<svg width="92" height="58" viewBox="0 0 92 58" fill="none" xmlns="http://www.w3.org/2000/svg">
<g clip-path="url(#clip0_9_5454)">
<path d="M51.2 5.2002C69.98 7.3502 84.21 23.2402 84.36 42.2202" stroke="white" stroke-miterlimit="10" stroke-linecap="round"/>
<path d="M9.56 42.8099C9.48 34.3399 12.26 26.0999 17.46 19.4299C22.39 13.0799 29.21 8.48992 36.94 6.32992C38.31 5.94992 39.7 5.64992 41.11 5.41992" stroke="white" stroke-miterlimit="10" stroke-linecap="round"/>
<path d="M5.13771 51.7333L5.26568 44.4744C5.27291 44.0645 5.60867 43.7403 6.01861 43.7475L13.2475 43.875C13.6574 43.8822 13.9816 44.218 13.9743 44.6279L13.8464 51.8868C13.8391 52.2967 13.5034 52.6209 13.0934 52.6136L5.86455 52.4862C5.45461 52.479 5.13048 52.1432 5.13771 51.7333Z" stroke="white" stroke-miterlimit="10" stroke-linecap="round"/>
<path d="M79.9462 51.7347L80.0742 44.4759C80.0814 44.0659 80.4172 43.7418 80.8271 43.749L88.056 43.8764C88.4659 43.8837 88.7901 44.2194 88.7828 44.6294L88.6549 51.8882C88.6476 52.2982 88.3119 52.6223 87.9019 52.6151L80.6731 52.4877C80.2631 52.4804 79.939 52.1447 79.9462 51.7347Z" stroke="white" stroke-miterlimit="10" stroke-linecap="round"/>
<path d="M0.500003 4.80013C0.540003 2.38013 2.53 0.460126 4.93 0.500126C7.33 0.540126 9.25 2.53013 9.21 4.95013C9.17 7.37013 7.18 9.29013 4.78 9.25013C2.38 9.21013 0.460003 7.22013 0.500003 4.80013Z" stroke="white" stroke-miterlimit="10" stroke-linecap="round"/>
<path d="M82.06 5.97005C82.1 3.55005 84.09 1.63005 86.49 1.67005C88.89 1.71005 90.81 3.70005 90.77 6.12005C90.73 8.54005 88.74 10.46 86.34 10.42C83.94 10.38 82.02 8.39005 82.06 5.97005Z" stroke="white" stroke-miterlimit="10" stroke-linecap="round"/>
<path d="M41.64 8.74007L41.75 2.31007C41.76 1.67007 42.29 1.16007 42.92 1.17007L49.33 1.28007C49.97 1.29007 50.47 1.82007 50.46 2.46007L50.35 8.89007C50.34 9.53007 49.81 10.0401 49.18 10.0301L42.77 9.92007C42.13 9.91007 41.63 9.38007 41.64 8.74007Z" stroke="white" stroke-miterlimit="10" stroke-linecap="round"/>
<path d="M50.82 5.3999L82.07 5.9499" stroke="white" stroke-miterlimit="10" stroke-linecap="round"/>
<path d="M10.04 4.68018L40.54 5.22018" stroke="white" stroke-miterlimit="10" stroke-linecap="round"/>
<path d="M51.08 56.6602H40.69L33.99 45.2702L45.47 20.9302L56.95 45.2402L51.09 56.6602H51.08Z" stroke="white" stroke-miterlimit="10" stroke-linecap="round"/>
<path d="M45.45 24.9302L45.49 42.8102" stroke="white" stroke-miterlimit="10" stroke-linecap="round"/>
</g>
<defs>
<clipPath id="clip0_9_5454">
<rect width="91.27" height="57.16" fill="white"/>
</clipPath>
</defs>
</svg>
