<svg width="80" height="80" viewBox="0 0 80 80" fill="none" xmlns="http://www.w3.org/2000/svg">
<g clip-path="url(#clip0_25_76)">
<path d="M45.2334 18.3296C49.5264 18.5396 53.8194 18.7334 58.1091 18.9661C59.4012 19.0372 59.679 19.3215 59.7501 20.6462C59.9633 24.5622 60.1377 28.4814 60.3283 32.4006C60.4349 34.5751 60.5254 36.7496 60.6546 38.9208C60.6966 39.6187 60.4801 40.1422 59.9827 40.6397C51.6519 48.9532 43.3308 57.2827 35.0097 65.6058C34.0988 66.517 33.5271 66.517 32.6258 65.6187C26.1266 59.1212 19.6274 52.6204 13.1314 46.1196C12.1946 45.1826 12.201 44.6301 13.1507 43.6801C21.4524 35.3732 29.7606 27.0727 38.0494 18.7561C38.5662 18.2359 39.1089 18.0097 39.8357 18.0582C41.6317 18.1777 43.431 18.252 45.227 18.3457C45.227 18.3425 45.227 18.336 45.227 18.3328L45.2334 18.3296ZM33.8695 63.0889C34.0051 62.9661 34.1247 62.8627 34.2377 62.7496C42.0484 54.9402 49.8624 47.1309 57.6505 39.2989C57.9024 39.0469 58.0252 38.5428 58.009 38.1648C57.7829 32.8756 57.5051 27.5897 57.2822 22.3037C57.2531 21.6478 57.0722 21.4604 56.41 21.4313C51.1222 21.2052 45.8375 20.9467 40.5528 20.6721C40.0263 20.6462 39.658 20.7754 39.2833 21.1535C31.5792 28.8821 23.8622 36.5945 16.1484 44.3134C15.9643 44.4976 15.7931 44.6947 15.6445 44.8562C21.7302 50.9467 27.7708 56.9887 33.8662 63.0889H33.8695Z" fill="white"/>
<path d="M76.14 65.1696C76.14 67.0242 76.1464 68.8756 76.14 70.7302C76.1368 71.7835 75.6651 72.2649 74.6282 72.2682C70.8973 72.2746 67.1632 72.2746 63.4322 72.2682C62.4438 72.2682 61.9592 71.7738 61.956 70.7754C61.9496 67.0404 61.9496 63.3085 61.956 59.5735C61.956 58.5751 62.4406 58.0808 63.429 58.0775C67.189 58.0711 70.949 58.0678 74.7058 58.0775C75.6458 58.0775 76.1335 58.5816 76.14 59.5283C76.1529 61.4087 76.1432 63.2892 76.1432 65.1696H76.14ZM64.566 69.6349H73.5009V60.6947H64.566V69.6349Z" fill="white"/>
<path d="M58.7673 72.5105C59.1711 73.2084 59.5749 73.9031 59.9754 74.5945C47.6295 82.1486 30.0085 81.9548 17.3848 72.9208C17.8338 72.2649 18.286 71.6058 18.7512 70.9241C31.7755 79.0856 45.0776 79.5864 58.7673 72.5073V72.5105Z" fill="white"/>
<path d="M77.468 10.2359C77.3194 10.475 77.1579 10.8466 76.8994 11.1309C76.2146 11.887 75.5137 12.6301 74.7707 13.328C74.3831 13.6931 74.312 14.0711 74.3992 14.5493C74.5866 15.6059 74.8224 16.6592 74.8999 17.7222C74.9322 18.1616 74.732 18.7884 74.4122 19.0308C74.0924 19.2698 73.4237 19.2989 73.0264 19.1309C72.0929 18.74 71.2175 18.2004 70.3453 17.677C69.906 17.412 69.5571 17.3668 69.0984 17.6511C68.2553 18.1713 67.3961 18.685 66.4852 19.0663C66.0555 19.2472 65.4289 19.2602 65.0025 19.0792C64.4469 18.8434 64.3403 18.2521 64.4663 17.6253C64.673 16.601 64.8087 15.5639 64.9896 14.5332C65.0768 14.0485 64.9863 13.677 64.6019 13.3183C63.8784 12.6398 63.2194 11.8934 62.5217 11.1858C62.1017 10.7593 61.7141 10.2359 62.0533 9.69957C62.3182 9.28277 62.8479 8.91444 63.3325 8.78197C64.2046 8.54287 65.1252 8.48148 66.0297 8.3684C66.5724 8.30054 66.9406 8.10345 67.1603 7.53802C67.5318 6.59134 67.9452 5.65111 68.4718 4.7852C68.714 4.38455 69.2179 4.01622 69.6734 3.90313C70.2872 3.75127 70.6974 4.23269 70.9558 4.78197C71.3854 5.70281 71.8667 6.60749 72.235 7.55418C72.4579 8.13253 72.8487 8.29731 73.3785 8.3684C74.3346 8.50087 75.2876 8.64949 76.2372 8.79812C76.9705 8.91444 77.3646 9.35386 77.4712 10.2392L77.468 10.2359ZM73.4205 10.9888C71.4339 11.0598 70.2032 10.1972 69.7735 8.27793C69.2535 9.11153 68.9724 9.97744 68.3749 10.4039C67.7676 10.8401 66.8502 10.8434 65.8682 11.0857C67.6771 12.1907 68.1617 13.6576 67.2927 15.593C68.2166 15.1923 68.9401 14.6333 69.6669 14.6333C70.4099 14.6333 71.1529 15.1794 72.1413 15.5897C71.0979 13.5897 71.8183 12.2004 73.4173 10.992L73.4205 10.9888Z" fill="white"/>
<path d="M59.9369 5.39255C59.5267 6.10337 59.1132 6.8142 58.7288 7.47979C45.333 0.510481 32.2441 0.924051 19.2812 8.72696C18.8419 8.07429 18.3832 7.39578 17.9277 6.71727C30.264 -1.89986 47.746 -2.10341 59.9369 5.39255Z" fill="white"/>
<path d="M11.6387 18.0549C9.16756 18.0549 6.69966 18.0484 4.22853 18.0613C3.5954 18.0646 3.06241 17.945 2.73939 17.3344C2.42606 16.7398 2.66833 16.2584 2.99458 15.7673C5.43664 12.1098 7.869 8.44583 10.3111 4.79154C11.1122 3.59284 12.1232 3.57668 12.9146 4.75923C15.3599 8.41675 17.7891 12.0807 20.2311 15.7382C20.5735 16.252 20.8352 16.7592 20.4863 17.3764C20.1471 17.9741 19.598 18.0678 18.9713 18.0613C16.5293 18.0484 14.084 18.0549 11.6419 18.0549H11.6387ZM6.33141 15.4216H16.9169C15.1306 12.7398 13.4024 10.1518 11.6225 7.48298C9.82976 10.1744 8.11127 12.7528 6.33141 15.4216Z" fill="white"/>
<path d="M10.3176 72.2682C6.01816 72.2585 2.57473 68.7755 2.59088 64.4524C2.60703 60.2197 6.11506 56.7658 10.3822 56.7819C14.6558 56.8013 18.0928 60.3102 18.0734 64.6365C18.054 68.8142 14.5363 72.2746 10.3208 72.265L10.3176 72.2682ZM10.337 59.3603C7.49437 59.3538 5.16537 61.6898 5.1686 64.5364C5.17506 67.3473 7.48468 69.6737 10.2821 69.6866C13.1279 69.7028 15.4795 67.3829 15.4924 64.5461C15.5086 61.7028 13.1828 59.3635 10.337 59.357V59.3603Z" fill="white"/>
<path d="M5.32314 19.9612C6.14362 20.4427 6.83489 20.8465 7.55523 21.2666C1.63421 32.2036 0.991393 43.412 5.66231 54.9855C4.90967 55.3183 4.16025 55.6478 3.30101 56.0259C-1.6897 43.6575 -1.01781 31.706 5.32637 19.958L5.32314 19.9612Z" fill="white"/>
<path d="M73.6914 23.6705C74.4764 23.2892 75.2128 22.9338 75.9493 22.5784C81.0273 32.3393 81.4246 45.6446 76.6309 55.9742C75.8815 55.6446 75.1289 55.315 74.3278 54.9661C76.4823 49.9063 77.5386 44.685 77.4256 39.2504C77.3125 33.8159 76.0689 28.6365 73.6914 23.6705Z" fill="white"/>
<path d="M49.342 24.2908C52.2169 24.2972 54.4942 26.5396 54.5072 29.3764C54.5201 32.2262 52.1975 34.5331 49.3162 34.5331C46.4283 34.5331 44.1769 32.2585 44.1866 29.3538C44.1962 26.4911 46.4445 24.2875 49.3388 24.294L49.342 24.2908ZM46.774 29.357C46.7643 30.8013 47.8464 31.916 49.2839 31.9354C50.7439 31.9547 51.9359 30.7948 51.9165 29.3667C51.9004 27.9903 50.7052 26.8045 49.3323 26.798C47.9401 26.7916 46.7804 27.9483 46.7707 29.357H46.774Z" fill="white"/>
</g>
<defs>
<clipPath id="clip0_25_76">
<rect width="80" height="80" fill="white"/>
</clipPath>
</defs>
</svg>
