<svg width="56" height="84" viewBox="0 0 56 84" fill="none" xmlns="http://www.w3.org/2000/svg">
<g clip-path="url(#clip0_25_61)">
<path d="M56 84H0V12.5296C13.2581 8.34978 26.4471 4.19306 39.7479 0V12.2653H56V84ZM1.64658 48.2846V82.2719H54.3501V29.9891C36.7209 36.1086 19.1673 42.2016 1.64658 48.2846ZM54.4027 14.0892H1.62357V37.004C2.00153 36.8917 2.33676 36.8091 2.66541 36.6934C15.6474 32.1898 28.6294 27.6828 41.6114 23.1725C45.6539 21.7682 49.6963 20.3606 53.7323 18.9365C53.9886 18.8473 54.3666 18.5764 54.3731 18.3781C54.429 16.9573 54.4027 15.5365 54.4027 14.0892ZM1.59728 46.4805C1.96537 46.3682 2.22173 46.2955 2.47479 46.2063C14.9638 41.8744 27.4561 37.5426 39.9451 33.2075C44.5298 31.6181 49.1146 30.0321 53.6895 28.4196C53.9656 28.3205 54.3666 28.0099 54.3699 27.7885C54.4192 25.4029 54.3994 23.0172 54.3994 20.5457C54.0445 20.6613 53.7651 20.7505 53.4858 20.8464C45.013 23.7805 36.5402 26.7147 28.0674 29.6521C19.4664 32.6358 10.8687 35.6261 2.27103 38.6132C1.9095 38.7387 1.57427 38.8081 1.58084 39.3533C1.61042 41.6894 1.59399 44.0222 1.59399 46.4838L1.59728 46.4805ZM6.86566 12.143C6.86566 12.1761 6.86566 12.2091 6.86566 12.2455H38.0158V2.31626C27.5678 5.61388 17.2151 8.87845 6.86237 12.1463L6.86566 12.143Z" fill="white"/>
<path d="M50.032 76.8V78.3894H32.4619V76.8H50.032Z" fill="white"/>
<path d="M41.4834 73.3273V71.7545H50.0285V73.3273H41.4834Z" fill="white"/>
<path d="M45.7686 68.3082V66.709H50.0181V68.3082H45.7686Z" fill="white"/>
</g>
<defs>
<clipPath id="clip0_25_61">
<rect width="56" height="84" fill="white"/>
</clipPath>
</defs>
</svg>
