<svg width="50" height="50" viewBox="0 0 50 50" fill="none" xmlns="http://www.w3.org/2000/svg">
<g clip-path="url(#clip0_42_1127)">
<path d="M48.6523 17.2566L48.6584 17.248L27.4475 0.805987C26.0535 -0.267116 23.9502 -0.269558 22.55 0.808429L1.41479 17.1882C0.650635 17.6338 0 18.6654 0 19.7983V45.6553C0 48.0494 1.95435 49.999 4.35425 49.999H45.6458C48.0457 49.999 50 48.0494 50 45.6553V19.7983C50 18.8363 49.5544 17.9292 48.6523 17.2566ZM2.49146 18.9779C2.70386 18.8546 1.8335 19.4968 23.8232 2.45776C24.4946 1.94135 25.5103 1.94257 26.1755 2.45532L47.4695 18.9462C48.0676 19.3625 48.0652 20.2378 47.4695 20.6529L29.1003 33.3702L26.7749 31.81C26.7664 31.8039 26.7603 31.799 26.7566 31.7978C25.7361 31.0934 24.2627 31.0934 23.2397 31.7978C23.2373 31.8002 23.2288 31.8039 23.2214 31.81L20.896 33.3702L2.52686 20.6529C2.02271 20.2989 1.86646 19.5505 2.49146 18.9779ZM45.6458 47.9163H4.35425C3.10181 47.9163 2.08374 46.9018 2.08374 45.6553V22.876L19.0417 34.6167L4.8584 44.1366C3.71826 44.9009 4.8645 46.6332 6.02051 45.8665C6.23657 45.7213 25.7019 32.6572 24.4556 33.4923C24.7803 33.286 25.2222 33.2591 25.6177 33.5509L43.9966 45.8787C45.1404 46.6454 46.3025 44.918 45.1587 44.1488L30.957 34.6191L47.915 22.876V45.6553C47.915 46.903 46.8958 47.9163 45.6445 47.9163H45.6458Z" fill="#252525"/>
</g>
<defs>
<clipPath id="clip0_42_1127">
<rect width="50" height="50" fill="white"/>
</clipPath>
</defs>
</svg>
