<svg width="39" height="54" viewBox="0 0 39 54" fill="none" xmlns="http://www.w3.org/2000/svg">
<g clip-path="url(#clip0_42_1102)">
<path d="M19.5005 0C8.74753 0 0 8.77289 0 19.5571C0 32.94 17.4509 52.5867 18.1933 53.4168C18.8916 54.1962 20.1094 54.1951 20.8067 53.4168C21.5502 52.5867 39 32.94 39 19.5571C39 8.77395 30.2525 0 19.4995 0H19.5005ZM19.5005 29.3963C14.0909 29.3963 9.68979 24.9824 9.68979 19.5571C9.68979 14.1318 14.0909 9.71789 19.5005 9.71789C24.9102 9.71789 29.3113 14.1318 29.3113 19.5571C29.3113 24.9824 24.9102 29.3963 19.5005 29.3963Z" fill="white"/>
</g>
<defs>
<clipPath id="clip0_42_1102">
<rect width="39" height="54" fill="white"/>
</clipPath>
</defs>
</svg>
