<svg width="56" height="48" viewBox="0 0 56 48" fill="none" xmlns="http://www.w3.org/2000/svg">
<g clip-path="url(#clip0_42_1107)">
<path d="M24.0472 14.18H31.9521C32.0353 13.1206 31.7024 11.9796 32.701 11.2462C33.533 10.5942 34.5316 10.8387 35.5301 10.8387C36.3622 10.8387 37.0278 11.2462 37.2775 12.0611C37.5271 12.7131 37.4439 13.528 37.5271 14.18C38.0264 14.4245 38.6088 14.6689 39.1081 14.9949C39.9402 15.5654 40.1898 16.5433 40.3562 17.5212C41.1883 22.0034 43.6846 25.3447 47.6787 27.4635C49.3429 28.36 50.5078 29.5009 50.9238 31.3752C51.007 31.7827 51.007 32.2717 51.007 32.6791C51.007 36.7538 51.007 40.7471 51.007 44.8218C51.007 46.9406 49.7589 48.0815 47.6787 48.0815C34.5316 48.0815 21.4677 48.0815 8.32057 48.0815C6.48996 48.0815 4.99219 46.7776 4.99219 44.8218C4.99219 40.7471 4.99219 36.6723 4.99219 32.5976C4.99219 30.3973 5.9907 28.7674 7.98773 27.708C12.3978 25.4262 14.9773 21.8404 15.7262 17.1138C15.9758 15.7284 16.7247 14.8319 18.0561 14.4245C18.3889 14.343 18.4721 14.18 18.4721 13.854C18.4721 13.365 18.4721 12.8761 18.5553 12.3871C18.7218 11.4907 19.4706 10.9202 20.3859 10.9202C20.8852 10.9202 21.4677 10.9202 21.9669 10.9202C23.0486 10.9202 23.8807 11.7352 23.8807 12.7946C23.8807 13.2836 23.8807 13.7725 23.8807 14.343L24.0472 14.18ZM49.4261 39.0357V38.3837C49.4261 36.5909 49.4261 34.7165 49.4261 32.9236C49.4261 31.0493 48.6772 29.7453 46.9298 28.8489C44.6831 27.708 42.8525 26.0781 41.3547 24.0408C39.857 22.0034 39.0249 19.7216 38.6088 17.2768C38.4424 16.2988 37.7767 15.8099 36.7782 15.8099C30.9536 15.8099 25.0457 15.8099 19.221 15.8099C18.1393 15.8099 17.5568 16.2988 17.3904 17.2768C16.8911 19.9661 15.8926 22.4924 14.1452 24.6112C12.6475 26.4856 10.8169 27.9525 8.65341 29.0934C7.40526 29.7453 6.57317 30.8048 6.57317 32.1902C6.57317 34.3905 6.57317 36.5909 6.57317 38.7912C6.57317 38.7912 6.57317 38.9542 6.57317 39.0357H49.3429H49.4261ZM6.57317 40.6656C6.57317 42.051 6.57317 43.3549 6.57317 44.6588C6.57317 45.9627 7.07242 46.3701 8.32057 46.3701C17.224 46.3701 26.2106 46.3701 35.114 46.3701C39.3577 46.3701 43.6014 46.3701 47.7619 46.3701C48.7604 46.3701 49.2596 45.8812 49.3429 44.9033C49.3429 44.3328 49.3429 43.7623 49.3429 43.1919C49.3429 42.2954 49.3429 41.4805 49.3429 40.5841H6.57317V40.6656ZM35.7797 14.18C35.9461 11.9796 35.9461 12.3871 34.1155 12.3871H33.9491C33.7827 12.4686 33.6163 12.6316 33.6163 12.7131C33.6163 13.2021 33.6163 13.6095 33.6163 14.0985C33.7827 14.0985 33.8659 14.0985 33.9491 14.0985C34.5316 14.0985 35.114 14.0985 35.7797 14.0985V14.18ZM22.383 14.18C22.7158 12.5501 22.5494 12.3056 20.9684 12.3871C20.9684 12.3871 20.802 12.3871 20.7188 12.3871C20.5524 12.5501 20.3027 12.6316 20.2195 12.8761C20.2195 13.2836 20.2195 13.7725 20.2195 14.18H22.383Z" fill="#252525"/>
<path d="M26.3777 0C35.1147 0 42.1043 1.05942 48.7611 3.66723C50.2589 4.23769 51.7566 4.88964 53.0048 5.78608C55.501 7.57895 56.3331 10.1053 55.9171 13.0391C55.6675 14.8319 55.4178 16.7063 55.1682 18.4992C54.9186 20.2105 53.5872 21.27 51.8398 20.8625C49.0107 20.2105 46.1816 19.5586 43.4357 18.9066C42.1875 18.5806 41.3554 17.5212 41.4386 16.2988C41.5219 14.9134 41.6883 13.528 41.8547 12.1426C42.0211 10.7572 41.6051 10.1053 40.1905 9.77929C35.2811 8.71986 30.2886 8.39389 25.296 8.55688C22.0508 8.71986 18.8889 9.12734 15.7269 9.86078C14.7284 10.1053 14.2291 10.7572 14.3123 11.8166C14.4788 13.2835 14.6452 14.6689 14.8116 16.1358C14.978 17.4397 14.0627 18.6621 12.7314 18.9881C9.90224 19.6401 7.07311 20.292 4.24399 20.944C2.5798 21.27 1.16524 20.3735 0.91561 18.7436C0.582772 16.5433 0.249934 14.4244 0.000305468 12.2241C-0.249323 9.12734 1.08203 6.68251 3.91115 5.21562C7.15632 3.50424 10.5679 2.36333 14.1459 1.54839C18.7224 0.488964 23.299 0 26.3777 0ZM12.8146 13.1205C12.8146 13.1205 12.8146 12.6316 12.7314 12.4686C12.3153 9.86078 13.8131 8.55688 15.8101 8.2309C18.6392 7.74194 21.4684 7.25297 24.3807 7.08998C29.9557 6.76401 35.3643 7.08998 40.773 8.39389C42.1875 8.71986 43.1028 9.53481 43.3525 11.0017C43.4357 11.5722 43.3525 12.2241 43.3525 12.7946C43.3525 13.1205 43.3525 13.2835 43.7685 13.2835C46.348 13.854 48.9275 14.5059 51.507 15.0764C52.3391 15.2394 53.088 15.4839 53.9201 15.6469C54.0865 14.7504 54.1697 13.9355 54.2529 13.1205C54.7522 9.94228 53.5872 7.66044 50.5917 6.27504C44.351 3.34126 37.6942 2.03735 30.871 1.71138C26.5441 1.54839 22.134 1.71138 17.8904 2.44482C13.5635 3.17827 9.31977 4.48217 5.32571 6.27504C2.91264 7.33447 1.16524 9.77929 1.6645 12.6316C1.83091 13.6095 1.91412 14.6689 2.08054 15.7284C5.65855 14.9134 9.23656 14.0985 12.8146 13.202V13.1205ZM12.8978 14.6689C9.31977 15.4839 5.82497 16.2988 2.24696 17.1952C2.24696 17.6842 2.33017 18.0917 2.41338 18.4177C2.49659 19.1511 3.07906 19.5586 3.82794 19.3956C4.74325 19.1511 5.65855 18.9881 6.49065 18.7436C8.32126 18.3362 10.1519 17.9287 11.9825 17.4397C12.5649 17.2767 12.981 17.0323 12.981 16.4618C12.981 15.8913 12.8978 15.3209 12.8146 14.6689H12.8978ZM43.186 14.6689C43.186 14.6689 43.1028 15.3209 43.0196 15.6469C43.0196 15.8098 43.0196 16.0543 43.0196 16.2173C43.0196 16.9508 43.186 17.2767 43.9349 17.4397C46.6808 18.0917 49.51 18.7436 52.2559 19.3956C52.8383 19.5586 53.4208 19.1511 53.504 18.5806C53.5872 18.0917 53.6704 17.6027 53.6704 17.1138C50.0924 16.2988 46.5976 15.4839 43.1028 14.6689H43.186Z" fill="#252525"/>
<path d="M19.0547 27.9524C19.0547 23.0628 23.132 19.1511 28.1245 19.2326C33.0339 19.2326 36.9447 23.3073 36.9447 28.1154C36.9447 32.9236 32.7843 36.8353 27.9581 36.7538C22.9655 36.7538 19.0547 32.7606 19.1379 28.0339L19.0547 27.9524ZM35.3638 27.9524C35.3638 24.1222 32.0354 20.781 28.1245 20.781C23.964 20.781 20.7189 23.9592 20.6357 27.9524C20.6357 31.8642 23.8808 35.1239 27.9581 35.1239C32.0354 35.1239 35.3638 31.9456 35.3638 27.9524Z" fill="#252525"/>
<path d="M31.454 30.5603C31.9532 30.5603 32.6189 31.2123 32.6189 31.7012C32.6189 32.1902 32.2861 32.5162 31.87 32.5162C31.3708 32.5162 30.7051 31.8642 30.7051 31.4567C30.7051 31.0493 31.0379 30.6418 31.454 30.6418V30.5603Z" fill="#252525"/>
<path d="M33.1177 28.7674C32.452 28.7674 32.1191 28.5229 32.1191 27.9524C32.1191 27.4635 32.5352 27.219 33.2009 27.219C33.8665 27.219 34.1994 27.545 34.1994 28.0339C34.1994 28.5229 33.7833 28.7674 33.1177 28.7674Z" fill="#252525"/>
<path d="M22.7993 28.7674C22.2168 28.7674 21.8008 28.4414 21.8008 28.0339C21.8008 27.545 22.2168 27.219 22.8825 27.219C23.5482 27.219 23.881 27.545 23.881 28.0339C23.881 28.5229 23.5482 28.7674 22.7993 28.7674Z" fill="#252525"/>
<path d="M28.79 22.8998C28.79 23.5518 28.5403 23.9592 28.0411 23.9592C27.5418 23.9592 27.209 23.6332 27.209 22.9813C27.209 22.2479 27.4586 21.9219 27.9579 21.9219C28.4571 21.9219 28.79 22.2479 28.79 22.8998Z" fill="#252525"/>
<path d="M24.2137 23.4703C24.713 23.4703 25.3787 24.1223 25.3787 24.6112C25.3787 25.0187 25.0458 25.4262 24.5466 25.3447C24.0473 25.3447 23.4648 24.7742 23.4648 24.2038C23.4648 23.7148 23.7977 23.3888 24.2969 23.4703H24.2137Z" fill="#252525"/>
<path d="M24.5466 30.5603C24.9626 30.5603 25.3787 30.9677 25.3787 31.3752C25.3787 31.8642 24.713 32.4346 24.2137 32.4346C23.7145 32.4346 23.4648 32.1086 23.4648 31.6197C23.4648 31.1307 24.1305 30.4788 24.6298 30.4788L24.5466 30.5603Z" fill="#252525"/>
<path d="M27.209 33.0051C27.209 32.3531 27.4586 32.0272 28.0411 32.0272C28.5403 32.0272 28.79 32.4346 28.79 33.0866C28.79 33.7385 28.4571 34.146 27.9579 34.0645C27.4586 34.0645 27.209 33.657 27.209 33.0051Z" fill="#252525"/>
<path d="M32.6189 24.2037C32.6189 24.6927 32.0364 25.3446 31.5372 25.3446C31.1211 25.3446 30.7883 25.0187 30.7051 24.6112C30.7051 24.1222 31.3708 23.4703 31.87 23.4703C32.2861 23.4703 32.6189 23.7963 32.6189 24.2037Z" fill="#252525"/>
</g>
<defs>
<clipPath id="clip0_42_1107">
<rect width="56" height="48" fill="white"/>
</clipPath>
</defs>
</svg>
