<svg width="51" height="58" viewBox="0 0 51 58" fill="none" xmlns="http://www.w3.org/2000/svg">
<g clip-path="url(#clip0_9_5548)">
<path d="M46.54 46.6701C46.43 46.6701 46.31 46.6501 46.2 46.6101L44.92 46.1301C42.43 45.1901 39.68 45.1901 37.19 46.1301L35.91 46.6101C35.61 46.7201 35.28 46.6801 35.02 46.5001C34.76 46.3201 34.6 46.0201 34.6 45.7001V7.28006C34.6 7.02006 34.71 6.78006 34.89 6.59006C35.07 6.41006 35.32 6.31006 35.57 6.31006H46.53C47.06 6.31006 47.5 6.75006 47.5 7.28006V45.7001C47.5 46.0201 47.34 46.3201 47.08 46.5001C46.92 46.6101 46.72 46.6701 46.53 46.6701H46.54ZM41.05 43.4801C42.58 43.4801 44.11 43.7501 45.57 44.3001V8.25006H36.55V44.2901C38 43.7501 39.53 43.4701 41.06 43.4701L41.05 43.4801Z" fill="#0C1115"/>
<path d="M41.05 54.5801C40.73 54.5801 40.44 54.4201 40.26 54.1601L34.78 46.2501C34.47 45.8101 34.58 45.2001 35.02 44.9001C35.46 44.5901 36.06 44.7001 36.37 45.1401L41.06 51.9101L45.75 45.1401C46.06 44.7001 46.66 44.5901 47.1 44.9001C47.54 45.2101 47.65 45.8101 47.34 46.2501L41.86 54.1601C41.68 54.4201 41.38 54.5801 41.07 54.5801H41.05Z" fill="#0C1115"/>
<path d="M41.06 45.4201C40.53 45.4201 40.09 44.9801 40.09 44.4501V7.28006C40.09 6.74006 40.53 6.31006 41.06 6.31006C41.59 6.31006 42.03 6.75006 42.03 7.28006V44.4501C42.03 44.9901 41.59 45.4201 41.06 45.4201Z" fill="#0C1115"/>
<path d="M46.57 8.25023H35.55C34.26 8.25023 33.21 7.20023 33.21 5.90023V3.16023C33.21 2.31023 33.54 1.52023 34.13 0.920234C34.73 0.320234 35.52 -0.00976562 36.36 -0.00976562H45.75C47.49 -0.00976562 48.9 1.41023 48.9 3.15023V5.89023C48.9 7.18023 47.85 8.24023 46.56 8.24023L46.57 8.25023ZM36.36 1.94023C36.04 1.94023 35.73 2.07023 35.5 2.30023C35.27 2.53023 35.14 2.84023 35.14 3.16023V5.90023C35.14 6.12023 35.32 6.30023 35.54 6.30023H46.56C46.78 6.30023 46.96 6.12023 46.96 5.90023V3.16023C46.96 2.49023 46.41 1.94023 45.74 1.94023H36.35H36.36Z" fill="#0C1115"/>
<path d="M29.75 9.10992H0.97C0.44 9.10992 0 8.66992 0 8.13992C0 7.60992 0.43 7.16992 0.97 7.16992H29.75C30.28 7.16992 30.72 7.60992 30.72 8.13992C30.72 8.66992 30.29 9.10992 29.75 9.10992Z" fill="#0C1115"/>
<path d="M29.75 15.65H0.97C0.44 15.65 0 15.21 0 14.68C0 14.15 0.43 13.71 0.97 13.71H29.75C30.28 13.71 30.72 14.15 30.72 14.68C30.72 15.21 30.29 15.65 29.75 15.65Z" fill="#0C1115"/>
<path d="M29.75 22.1802H0.97C0.44 22.1802 0 21.7402 0 21.2102C0 20.6802 0.43 20.2402 0.97 20.2402H29.75C30.28 20.2402 30.72 20.6802 30.72 21.2102C30.72 21.7402 30.29 22.1802 29.75 22.1802Z" fill="#0C1115"/>
<path d="M29.75 28.7198H0.97C0.44 28.7198 0 28.2798 0 27.7498C0 27.2198 0.43 26.7798 0.97 26.7798H29.75C30.28 26.7798 30.72 27.2198 30.72 27.7498C30.72 28.2798 30.29 28.7198 29.75 28.7198Z" fill="#0C1115"/>
<path d="M29.75 35.2501H0.97C0.44 35.2501 0 34.8101 0 34.2801C0 33.7501 0.43 33.3101 0.97 33.3101H29.75C30.28 33.3101 30.72 33.7501 30.72 34.2801C30.72 34.8101 30.29 35.2501 29.75 35.2501Z" fill="#0C1115"/>
<path d="M29.75 41.7901H0.97C0.44 41.7901 0 41.3501 0 40.8201C0 40.2901 0.43 39.8501 0.97 39.8501H29.75C30.28 39.8501 30.72 40.2901 30.72 40.8201C30.72 41.3501 30.29 41.7901 29.75 41.7901Z" fill="#0C1115"/>
<path d="M29.75 48.3301H0.97C0.44 48.3301 0 47.8901 0 47.3601C0 46.8301 0.43 46.3901 0.97 46.3901H29.75C30.28 46.3901 30.72 46.8301 30.72 47.3601C30.72 47.8901 30.29 48.3301 29.75 48.3301Z" fill="#0C1115"/>
<path d="M49.51 57.6502H0.97C0.44 57.6502 0 57.2102 0 56.6702C0 56.1302 0.43 55.7002 0.97 55.7002H49.51C50.04 55.7002 50.48 56.1402 50.48 56.6802C50.48 57.2202 50.05 57.6502 49.51 57.6502Z" fill="#F05A28"/>
</g>
<defs>
<clipPath id="clip0_9_5548">
<rect width="50.47" height="57.65" fill="white"/>
</clipPath>
</defs>
</svg>
