<svg width="44" height="44" viewBox="0 0 44 44" fill="none" xmlns="http://www.w3.org/2000/svg">
<g clip-path="url(#clip0_42_1122)">
<path d="M37.5564 28.4436C35.1605 26.0477 32.3082 24.2739 29.1964 23.1997C32.5291 20.9043 34.7188 17.0629 34.7188 12.7188C34.7188 5.70539 29.0134 0 22 0C14.9866 0 9.28125 5.70539 9.28125 12.7188C9.28125 17.0629 11.4709 20.9043 14.8036 23.1997C11.6918 24.273 8.83953 26.0477 6.44359 28.4436C2.28852 32.5987 0 38.1236 0 44H3.4375C3.4375 33.7648 11.7648 25.4375 22 25.4375C32.2352 25.4375 40.5625 33.7648 40.5625 44H44C44 38.1236 41.7115 32.5987 37.5564 28.4436ZM22 22C16.8824 22 12.7188 17.8363 12.7188 12.7188C12.7188 7.60117 16.8824 3.4375 22 3.4375C27.1176 3.4375 31.2812 7.60117 31.2812 12.7188C31.2812 17.8363 27.1176 22 22 22Z" fill="#252525"/>
</g>
<defs>
<clipPath id="clip0_42_1122">
<rect width="44" height="44" fill="white"/>
</clipPath>
</defs>
</svg>
