<svg width="58" height="81" viewBox="0 0 58 81" fill="none" xmlns="http://www.w3.org/2000/svg">
<g clip-path="url(#clip0_25_56)">
<path d="M4.13749 15.7669C3.08541 15.7669 2.1237 15.7765 1.15875 15.7637C0.371303 15.7508 0.0195332 15.4194 0.0130787 14.6471C-0.00305749 13.093 -0.00305749 11.542 0.0130787 9.98784C0.0195332 9.17376 0.368075 8.85198 1.21684 8.84555C2.44642 8.8359 3.67923 8.84555 5.02821 8.84555C5.02821 8.50769 5.02821 8.22453 5.02821 7.94137C5.02821 5.77261 5.02499 3.60386 5.02821 1.43511C5.02821 0.318556 5.34448 0 6.45788 0C21.4904 0 36.5229 0 51.5586 0C52.6591 0 52.9754 0.324991 52.9786 1.44476C52.985 3.58777 52.9786 5.72756 52.9786 7.87057V8.83911C54.2437 8.83911 55.4442 8.8359 56.6415 8.83911C57.6904 8.84233 57.9905 9.13514 57.9937 10.1584C58.0002 11.6031 58.0002 13.0511 57.9937 14.4959C57.9873 15.429 57.6678 15.7508 56.7448 15.7605C55.8089 15.7701 54.873 15.7605 53.8693 15.7605C53.7434 17.247 53.6111 18.6757 53.5014 20.1076C53.0722 25.6292 52.6462 31.1509 52.2299 36.6725C51.8845 41.2353 51.5618 45.798 51.2133 50.3575C50.8099 55.5863 50.3839 60.8119 49.9772 66.0375C49.69 69.7444 49.4028 73.4512 49.1414 77.1612C48.9929 79.2753 47.3309 80.9743 45.2203 80.9807C34.4026 81 23.5849 81 12.7639 80.9807C10.6953 80.9775 9.02031 79.2849 8.8654 77.2288C8.40391 71.173 7.91982 65.1205 7.4551 59.0647C7.10656 54.5309 6.78706 49.9939 6.43852 45.4601C6.08998 40.9263 5.71562 36.3926 5.36707 31.8588C5.07339 28.0458 4.79908 24.2295 4.51185 20.4133C4.3989 18.8977 4.26658 17.3822 4.13427 15.7605L4.13749 15.7669ZM6.19002 15.8023C6.32879 17.5431 6.47079 19.1938 6.59343 20.8477C6.98715 26.1023 7.36796 31.3568 7.77137 36.6114C8.28127 43.2238 8.82022 49.8363 9.3269 56.4519C9.8368 63.0933 10.3241 69.7347 10.8211 76.3761C10.9728 78.4001 11.6312 79.0114 13.6579 79.0114C23.885 79.0114 34.1121 79.0114 44.336 79.0114C44.6846 79.0114 45.0363 78.9954 45.3752 78.9407C46.3208 78.783 46.9049 78.2006 47.0534 77.2546C47.1276 76.7783 47.1599 76.2989 47.1986 75.8195C47.4342 72.7272 47.6633 69.6317 47.9021 66.5363C48.2023 62.6428 48.5121 58.7494 48.809 54.8559C49.0994 51.0686 49.377 47.2814 49.6674 43.4941C49.9643 39.6553 50.2742 35.8134 50.5743 31.9746C50.8873 27.975 51.1971 23.9753 51.5005 19.9725C51.6038 18.5953 51.6877 17.2181 51.7813 15.8023H6.19002ZM50.8776 2.05613H7.16142V8.79728H50.8776V2.05613ZM2.0882 13.7075H55.9218V10.9017H2.0882V13.7075Z" fill="white"/>
<path d="M29.0257 26.9871C35.9804 26.9582 41.2634 32.232 41.3538 39.295C41.4377 45.8913 35.7739 51.5063 29.016 51.5224C22.284 51.5384 16.5266 45.9396 16.6686 39.3271C16.8429 31.2603 22.8068 26.9131 29.0257 26.9871ZM28.9999 28.9339C23.3748 28.9339 18.6888 33.5513 18.6921 39.089C18.6953 44.9421 23.1812 49.4501 29.0031 49.4469C34.8315 49.4469 39.3077 44.9453 39.3109 39.0858C39.3109 33.5481 34.6282 28.9339 28.9999 28.9339Z" fill="white"/>
</g>
<defs>
<clipPath id="clip0_25_56">
<rect width="58" height="81" fill="white"/>
</clipPath>
</defs>
</svg>
