<svg width="22" height="12" viewBox="0 0 22 12" fill="none" xmlns="http://www.w3.org/2000/svg">
<g clip-path="url(#clip0_34_141)">
<path d="M11.0569 9.62301C11.1358 9.50792 11.1921 9.39157 11.2784 9.304C14.2581 6.32151 17.2402 3.34153 20.2236 0.362795C20.8355 -0.248965 21.7303 -0.0538022 21.9568 0.738108C22.0644 1.11217 21.9618 1.43744 21.6953 1.71142C21.3611 2.0542 21.0195 2.38948 20.6804 2.72852C17.742 5.66471 14.8049 8.59966 11.8666 11.5359C11.2471 12.1551 10.7491 12.1551 10.1296 11.5359C6.88343 8.29065 3.63724 5.0442 0.387302 1.80274C0.066938 1.48248 -0.0957469 1.12843 0.0569266 0.679309C0.284685 0.012503 1.0931 -0.216438 1.63622 0.232687C1.72382 0.305247 1.80141 0.390318 1.88275 0.471636C4.83611 3.42159 7.78821 6.3728 10.7416 9.32276C10.8204 9.40158 10.9043 9.47789 11.0569 9.62301Z" fill="black"/>
</g>
<defs>
<clipPath id="clip0_34_141">
<rect width="22" height="12" fill="white"/>
</clipPath>
</defs>
</svg>
