<svg width="45" height="87" viewBox="0 0 45 87" fill="none" xmlns="http://www.w3.org/2000/svg">
<g clip-path="url(#clip0_9_5510)">
<path d="M22.05 0.689941C22.05 0.689941 8.32001 13.1899 8.32001 30.4499V55.1699C8.32001 56.8599 9.68001 58.2299 11.37 58.2299H32.09C33.76 58.2299 35.12 56.8799 35.14 55.1999L35.33 29.9899C35.33 29.9899 34.47 12.6499 22.06 0.699941L22.05 0.689941Z" stroke="black" stroke-miterlimit="10"/>
<path d="M36.17 35.9102L41.56 40.8702C43.09 42.4502 43.94 44.5602 43.94 46.7502V61.7702C43.94 62.3802 43.45 62.8902 42.84 62.8902C42.54 62.8902 42.25 62.7702 42.04 62.5602L39.13 59.6402" stroke="black" stroke-miterlimit="10"/>
<path d="M8.26 35.8301L2.88 40.7901C1.36 42.3701 0.5 44.4801 0.5 46.6701V61.6901C0.5 62.3001 0.99 62.8101 1.6 62.8101C1.9 62.8101 2.19 62.6901 2.4 62.4801L5.08 59.7901" stroke="black" stroke-miterlimit="10"/>
<path d="M9.25 64.1299H34.39" stroke="black" stroke-miterlimit="10"/>
<path d="M14.08 69.0601H13.47C12.9398 69.0601 12.51 69.4899 12.51 70.0201V82.2401C12.51 82.7703 12.9398 83.2001 13.47 83.2001H14.08C14.6102 83.2001 15.04 82.7703 15.04 82.2401V70.0201C15.04 69.4899 14.6102 69.0601 14.08 69.0601Z" stroke="#F05A28" stroke-width="0.5" stroke-miterlimit="10"/>
<path d="M30.19 69.0601H30.81C31.34 69.0601 31.76 69.4901 31.76 70.0101V82.2401C31.76 82.7701 31.33 83.2001 30.8 83.2001H30.18C29.65 83.2001 29.23 82.7701 29.23 82.2501V70.0201C29.23 69.4901 29.66 69.0601 30.19 69.0601Z" stroke="#F05A28" stroke-width="0.5" stroke-miterlimit="10"/>
<path d="M21.51 69.0598H22.13C22.66 69.0598 23.08 69.4898 23.08 70.0098V84.8898C23.08 85.4198 22.65 85.8398 22.13 85.8398H21.51C20.98 85.8398 20.56 85.4098 20.56 84.8898V70.0098C20.56 69.4798 20.99 69.0498 21.52 69.0498L21.51 69.0598Z" stroke="#F05A28" stroke-width="0.5" stroke-miterlimit="10"/>
<path d="M22.21 34.8902C25.5016 34.8902 28.17 32.2128 28.17 28.9102C28.17 25.6075 25.5016 22.9302 22.21 22.9302C18.9184 22.9302 16.25 25.6075 16.25 28.9102C16.25 32.2128 18.9184 34.8902 22.21 34.8902Z" stroke="black" stroke-miterlimit="10"/>
</g>
<defs>
<clipPath id="clip0_9_5510">
<rect width="44.43" height="86.1" fill="white"/>
</clipPath>
</defs>
</svg>
