<svg width="17" height="15" viewBox="0 0 17 15" fill="none" xmlns="http://www.w3.org/2000/svg">
<g clip-path="url(#clip0_42_1095)">
<path d="M7.70447 9.20704V8.99201C7.70447 6.26035 7.70447 3.52869 7.70447 0.797024C7.70447 0.466752 7.85606 0.216956 8.16587 0.0785378C8.46106 -0.0534421 8.75027 -0.0180329 9.00557 0.180259C9.21233 0.34121 9.2981 0.55946 9.2981 0.816338C9.2961 2.62672 9.29743 4.43709 9.29743 6.24747C9.29743 7.16361 9.29743 8.0791 9.29743 8.99523V9.16841C9.31273 9.17936 9.32802 9.19095 9.34331 9.20189C9.36392 9.16648 9.37854 9.12528 9.40647 9.09566C10.2123 8.22717 11.0194 7.35997 11.8265 6.49341C12.0831 6.21786 12.4308 6.13416 12.7566 6.2655C13.0664 6.39104 13.2838 6.69427 13.238 7.01553C13.214 7.1855 13.1389 7.37671 13.0232 7.50289C11.7407 8.89995 10.4476 10.2873 9.15383 11.6741C8.74362 12.1138 8.25363 12.11 7.8421 11.6683C6.54898 10.2809 5.25786 8.89158 3.9674 7.5016C3.6629 7.17391 3.68484 6.69363 4.00995 6.40649C4.34237 6.11227 4.84831 6.14318 5.16544 6.4831C5.9812 7.35739 6.79431 8.23361 7.60874 9.10854C7.63001 9.13172 7.65262 9.15425 7.70381 9.20704H7.70447Z" fill="black"/>
<path d="M8.48152 15C5.94847 15 3.41542 15 0.882376 15C0.448899 15 0.147061 14.8062 0.0373625 14.4631C-0.118875 13.9725 0.231496 13.4967 0.778661 13.4581C0.82254 13.4549 0.867085 13.4562 0.911629 13.4562C5.97174 13.4562 11.0325 13.4562 16.0926 13.4562C16.572 13.4562 16.8798 13.6699 16.9795 14.071C17.0886 14.5094 16.7428 14.9665 16.2788 14.9955C16.1963 15.0006 16.1132 15 16.0301 15C13.5137 15 10.9973 15 8.48085 15H8.48152Z" fill="black"/>
</g>
<defs>
<clipPath id="clip0_42_1095">
<rect width="17" height="15" fill="white"/>
</clipPath>
</defs>
</svg>
