<svg width="76" height="56" viewBox="0 0 76 56" fill="none" xmlns="http://www.w3.org/2000/svg">
<g clip-path="url(#clip0_9_5492)">
<path d="M42.02 8.48021H49.12C50.23 8.48021 51.12 9.38021 51.12 10.4902C51.12 10.8002 51.05 11.1002 50.92 11.3702L42.28 29.0802C40.98 31.7502 38.28 33.4402 35.32 33.4402H16.66C13.75 33.4402 11.08 31.8002 9.76001 29.1902L0.720013 11.4002C0.220013 10.4102 0.610013 9.20021 1.59001 8.69021C1.87001 8.55021 2.18001 8.47021 2.50001 8.47021H44.25" stroke="black" stroke-miterlimit="10"/>
<path d="M9.38 40.4H40.02C43.12 40.4 45.97 38.68 47.42 35.92L64.41 3.6C65.41 1.7 67.38 0.5 69.52 0.5H75.33" stroke="black" stroke-miterlimit="10"/>
<path d="M16.99 55.1699C19.884 55.1699 22.23 52.8149 22.23 49.9099C22.23 47.0049 19.884 44.6499 16.99 44.6499C14.096 44.6499 11.75 47.0049 11.75 49.9099C11.75 52.8149 14.096 55.1699 16.99 55.1699Z" stroke="#F05A28" stroke-width="0.5" stroke-miterlimit="10"/>
<path d="M41.85 55.1699C44.744 55.1699 47.09 52.8149 47.09 49.9099C47.09 47.0049 44.744 44.6499 41.85 44.6499C38.956 44.6499 36.61 47.0049 36.61 49.9099C36.61 52.8149 38.956 55.1699 41.85 55.1699Z" stroke="#F05A28" stroke-width="0.5" stroke-miterlimit="10"/>
</g>
<defs>
<clipPath id="clip0_9_5492">
<rect width="75.34" height="55.43" fill="white"/>
</clipPath>
</defs>
</svg>
