<svg width="69" height="45" viewBox="0 0 69 45" fill="none" xmlns="http://www.w3.org/2000/svg">
<g clip-path="url(#clip0_9_5563)">
<path fill-rule="evenodd" clip-rule="evenodd" d="M30.17 6.04982C30.11 6.10982 30.05 6.15982 29.99 6.20982L29.97 6.22982L29.95 6.24982L29.93 6.26982H29.91V6.27982H29.88L29.86 6.30982L29.84 6.31982H29.81V6.32982H29.79V6.33982H29.77V6.34982H29.75V6.35982H29.73H29.71H29.69H29.67H29.65H29.63H29.61H29.55L29.53 6.36982C29.39 6.38982 29.24 6.36982 29.1 6.33982H29.07H29.04H29.02L28.99 6.31982L28.97 6.30982L28.95 6.29982L28.93 6.28982L28.91 6.27982H28.9L28.88 6.26982C27.53 5.61982 26.06 5.34982 24.61 5.44982C23.16 5.54982 21.74 6.02982 20.49 6.85982C19.24 7.69982 18.26 8.83982 17.62 10.1498C16.97 11.4598 16.66 12.9298 16.75 14.4398C16.79 15.1098 16.28 15.6798 15.62 15.7198C15.56 15.7198 15.51 15.7198 15.45 15.7198C13.19 15.6098 10.99 16.1298 9.07 17.1598C7.14 18.1998 5.48 19.7498 4.31 21.7098C3.14 23.6598 2.56 25.8698 2.56 28.0698C2.56 30.2698 3.14 32.4798 4.31 34.4298C5.48 36.3898 7.14 37.9398 9.07 38.9798C10.98 39.9998 13.16 40.5198 15.4 40.4298C15.45 40.4298 15.5 40.4298 15.55 40.4298H37.68C38.12 39.5798 39.01 38.9898 40.03 38.9898C41.49 38.9898 42.67 40.1798 42.67 41.6398C42.67 43.0998 41.49 44.2898 40.03 44.2898C39.01 44.2898 38.12 43.7098 37.68 42.8498H15.37C12.69 42.9698 10.08 42.3498 7.8 41.1198C5.48 39.8798 3.5 38.0198 2.1 35.6798C0.7 33.3398 0 30.6998 0 28.0798C0 25.4598 0.7 22.8198 2.1 20.4798C3.5 18.1398 5.48 16.2798 7.8 15.0398C9.75 13.9898 11.94 13.3898 14.2 13.3098C14.29 11.8298 14.67 10.3998 15.32 9.08982C16.15 7.40982 17.41 5.93982 19.02 4.85982C20.63 3.77982 22.46 3.16982 24.32 3.03982C25.9 2.92982 27.51 3.16982 29.03 3.75982C30.5 2.39982 32.22 1.37982 34.07 0.739823C36.18 0.00982285 38.46 -0.220177 40.73 0.109823C43 0.439823 45.13 1.30982 46.95 2.60982C48.77 3.90982 50.29 5.63982 51.34 7.68982C51.36 7.71982 51.37 7.74982 51.38 7.77982C52.43 9.95982 52.92 12.3298 52.86 14.6798C52.8 17.0598 52.18 19.4298 51 21.5598C49.82 23.6998 48.16 25.4898 46.18 26.8098C44.23 28.1098 41.98 28.9498 39.59 29.2198C39.52 29.2298 39.45 29.2398 39.37 29.2398H32.52C32.09 30.1098 31.19 30.7098 30.16 30.7098C29.13 30.7098 28.23 30.1098 27.8 29.2398H17.01C16.94 29.2398 16.88 29.2398 16.81 29.2198C16.39 29.1998 15.97 29.2798 15.61 29.4698C15.22 29.6598 14.88 29.9698 14.65 30.3498C14.41 30.7298 14.3 31.1698 14.3 31.6098C14.3 32.0498 14.42 32.4898 14.65 32.8698C14.89 33.2498 15.22 33.5598 15.61 33.7498C15.98 33.9298 16.39 34.0198 16.81 33.9998C16.87 33.9898 16.94 33.9898 17.01 33.9898H57.46C59.92 33.7298 62.09 32.5698 63.65 30.8398C65.23 29.0998 66.19 26.7798 66.19 24.2598C66.19 21.7398 65.23 19.4198 63.65 17.6698C62.62 16.5298 61.32 15.6398 59.86 15.0898C59.38 15.6898 58.64 16.0698 57.81 16.0698C56.35 16.0698 55.17 14.8798 55.17 13.4198C55.17 11.9598 56.35 10.7698 57.81 10.7698C59.02 10.7698 60.04 11.5898 60.35 12.6998C62.33 13.3698 64.07 14.5398 65.44 16.0398C67.42 18.2198 68.61 21.1098 68.61 24.2598C68.61 27.4098 67.42 30.2998 65.44 32.4798C63.49 34.6298 60.78 36.0798 57.7 36.3998C57.63 36.4098 57.55 36.4198 57.48 36.4198H17C16.13 36.4798 15.28 36.2998 14.54 35.9298C13.75 35.5398 13.07 34.9298 12.59 34.1498C12.11 33.3698 11.87 32.4898 11.87 31.6098C11.87 30.7298 12.11 29.8498 12.59 29.0698C13.07 28.2898 13.75 27.6798 14.54 27.2898C15.29 26.9198 16.14 26.7398 17 26.7998H27.82C28.27 25.9598 29.14 25.3898 30.15 25.3898C31.16 25.3898 32.04 25.9598 32.48 26.7998H39.33C41.33 26.5698 43.21 25.8698 44.85 24.7798C46.5 23.6798 47.9 22.1798 48.88 20.3898C49.87 18.5898 50.39 16.6098 50.44 14.6198C50.49 12.6498 50.08 10.6598 49.2 8.83982L49.18 8.79982C48.3 7.09982 47.05 5.65982 45.54 4.57982C44.03 3.49982 42.27 2.77982 40.38 2.49982C38.49 2.22982 36.6 2.41982 34.84 3.01982C33.09 3.61982 31.48 4.62982 30.17 5.99982V6.04982Z" fill="#2B2E31"/>
<path d="M30.14 30.7998C31.6477 30.7998 32.87 29.5731 32.87 28.0598C32.87 26.5466 31.6477 25.3198 30.14 25.3198C28.6322 25.3198 27.41 26.5466 27.41 28.0598C27.41 29.5731 28.6322 30.7998 30.14 30.7998Z" fill="#F05A28"/>
<path d="M57.8 16.23C59.3077 16.23 60.53 15.0033 60.53 13.49C60.53 11.9767 59.3077 10.75 57.8 10.75C56.2923 10.75 55.07 11.9767 55.07 13.49C55.07 15.0033 56.2923 16.23 57.8 16.23Z" fill="#F05A28"/>
<path d="M39.97 44.44C41.4777 44.44 42.7 43.2132 42.7 41.7C42.7 40.1867 41.4777 38.96 39.97 38.96C38.4623 38.96 37.24 40.1867 37.24 41.7C37.24 43.2132 38.4623 44.44 39.97 44.44Z" fill="#F05A28"/>
</g>
<defs>
<clipPath id="clip0_9_5563">
<rect width="68.6" height="44.44" fill="white"/>
</clipPath>
</defs>
</svg>
