<svg width="52" height="64" viewBox="0 0 52 64" fill="none" xmlns="http://www.w3.org/2000/svg">
<g clip-path="url(#clip0_9_5570)">
<path d="M48.98 51.0199H2.26C1.01 51.0199 0 49.9999 0 48.7499V19.1499C0 17.8999 1.01 16.8799 2.26 16.8799H13.42C13.93 16.8799 14.35 17.2999 14.35 17.8099C14.35 18.3199 13.94 18.7399 13.42 18.7399H2.26C2.03 18.7399 1.85 18.9199 1.85 19.1499V48.7499C1.85 48.9799 2.03 49.1599 2.26 49.1599H48.98C49.21 49.1599 49.39 48.9799 49.39 48.7499V19.1499C49.39 18.9199 49.21 18.7399 48.98 18.7399H37.82C37.31 18.7399 36.89 18.3199 36.89 17.8099C36.89 17.2999 37.3 16.8799 37.82 16.8799H48.98C50.23 16.8799 51.24 17.8999 51.24 19.1499V48.7499C51.24 49.9999 50.23 51.0199 48.98 51.0199Z" fill="black"/>
<path d="M31.66 35.7298C31.15 35.7298 30.73 35.3098 30.73 34.7998V25.1898C30.73 24.6798 31.14 24.2598 31.66 24.2598C32.18 24.2598 32.59 24.6798 32.59 25.1898V34.7998C32.59 35.3098 32.18 35.7298 31.66 35.7298Z" fill="black"/>
<path d="M25.62 14.3502C22.64 14.3502 20.21 11.9102 20.21 8.91021C20.21 5.91021 22.64 3.47021 25.62 3.47021C28.6 3.47021 31.03 5.91021 31.03 8.91021C31.03 11.9102 28.6 14.3502 25.62 14.3502ZM25.62 5.34021C23.66 5.34021 22.06 6.94021 22.06 8.92021C22.06 10.9002 23.66 12.5002 25.62 12.5002C27.58 12.5002 29.18 10.9002 29.18 8.92021C29.18 6.94021 27.58 5.34021 25.62 5.34021Z" fill="black"/>
<path d="M33.25 7.59C32.85 7.59 32.48 7.33 32.36 6.92C31.49 3.94 28.71 1.86 25.61 1.86C22.51 1.86 19.81 3.86 18.89 6.83C18.74 7.32 18.22 7.6 17.73 7.44C17.24 7.29 16.97 6.77 17.12 6.28C18.28 2.52 21.69 0 25.61 0C29.53 0 33.03 2.63 34.13 6.4C34.27 6.89 33.99 7.41 33.5 7.55C33.41 7.58 33.32 7.59 33.24 7.59H33.25Z" fill="black"/>
<path d="M19.58 35.7298C19.07 35.7298 18.65 35.3098 18.65 34.7998V25.1898C18.65 24.6798 19.06 24.2598 19.58 24.2598C20.1 24.2598 20.51 24.6798 20.51 25.1898V34.7998C20.51 35.3098 20.1 35.7298 19.58 35.7298Z" fill="black"/>
<path d="M19.58 35.7301C19.07 35.7301 18.65 35.3101 18.65 34.8001V28.7601C18.65 28.2501 19.06 27.8301 19.58 27.8301C20.1 27.8301 20.51 28.2501 20.51 28.7601V34.8001C20.51 35.3101 20.1 35.7301 19.58 35.7301Z" fill="black"/>
<path d="M15.36 35.7302C14.85 35.7302 14.43 35.3102 14.43 34.8002V23.1202C14.43 19.4802 17.15 16.4202 20.75 16.0002C21.26 15.9502 21.72 16.3102 21.78 16.8202C21.84 17.3302 21.47 17.7902 20.97 17.8502C18.3 18.1602 16.29 20.4202 16.29 23.1202V34.8002C16.29 35.3102 15.88 35.7302 15.36 35.7302Z" fill="black"/>
<path d="M35.88 35.73C35.37 35.73 34.95 35.31 34.95 34.8V23.11C34.95 20.41 32.94 18.15 30.27 17.84C29.76 17.78 29.4 17.32 29.46 16.81C29.52 16.3 29.98 15.94 30.49 15.99C34.09 16.4 36.81 19.46 36.81 23.11V34.8C36.81 35.31 36.4 35.73 35.88 35.73Z" fill="black"/>
<path d="M16.63 7.19016V10.7402C16.63 11.5802 17.31 12.2702 18.15 12.2702C18.99 12.2702 19.67 11.5902 19.67 10.7402V7.19016C19.67 6.35016 18.99 5.66016 18.15 5.66016C17.31 5.66016 16.63 6.34016 16.63 7.19016Z" fill="#F05A28"/>
<path d="M31.74 7.19016V10.7402C31.74 11.5802 32.42 12.2702 33.26 12.2702C34.1 12.2702 34.78 11.5902 34.78 10.7402V7.19016C34.78 6.35016 34.1 5.66016 33.26 5.66016C32.42 5.66016 31.74 6.34016 31.74 7.19016Z" fill="#F05A28"/>
<path d="M23.04 45.0202H7.69001C7.18001 45.0202 6.76001 44.6002 6.76001 44.0902C6.76001 43.5802 7.17001 43.1602 7.69001 43.1602H23.04C23.55 43.1602 23.97 43.5802 23.97 44.0902C23.97 44.6002 23.56 45.0202 23.04 45.0202Z" fill="#F05A28"/>
<path d="M23.04 41.0001H7.69001C7.18001 41.0001 6.76001 40.5801 6.76001 40.0701C6.76001 39.5601 7.17001 39.1401 7.69001 39.1401H23.04C23.55 39.1401 23.97 39.5601 23.97 40.0701C23.97 40.5801 23.56 41.0001 23.04 41.0001Z" fill="#F05A28"/>
<path d="M46.31 63.4498H4.93C2.21 63.4498 0 61.2298 0 58.4998V54.4798C0 53.9698 0.41 53.5498 0.93 53.5498H16.41C16.92 53.5498 17.34 53.9698 17.34 54.4798C17.34 55.8098 18.42 56.8998 19.75 56.8998H31.51C32.84 56.8998 33.92 55.8098 33.92 54.4798C33.92 53.9698 34.33 53.5498 34.85 53.5498H50.33C50.84 53.5498 51.26 53.9698 51.26 54.4798V58.4998C51.26 61.2298 49.05 63.4498 46.33 63.4498H46.31ZM1.85 55.4098V58.4998C1.85 60.1998 3.23 61.5898 4.93 61.5898H46.31C48.01 61.5898 49.39 60.1998 49.39 58.4998V55.4098H35.67C35.25 57.3198 33.54 58.7598 31.51 58.7598H19.75C17.72 58.7598 16.01 57.3198 15.59 55.4098H1.85Z" fill="black"/>
</g>
<defs>
<clipPath id="clip0_9_5570">
<rect width="51.24" height="63.45" fill="white"/>
</clipPath>
</defs>
</svg>
