<?xml version="1.0" encoding="utf-8"?>
<!-- Generator: Adobe Illustrator 27.9.0, SVG Export Plug-In . SVG Version: 6.00 Build 0)  -->
<svg version="1.1" id="Layer_1" xmlns="http://www.w3.org/2000/svg" xmlns:xlink="http://www.w3.org/1999/xlink" x="0px" y="0px"
	 viewBox="0 0 590 560" style="enable-background:new 0 0 590 560;" xml:space="preserve">
<style type="text/css">
	.st0{fill:#F7941D;}
	.st1{fill:#FBB040;}
	.st2{fill:#F15A29;}
	.st3{fill:#FFFFFF;}
</style>
<g>
	<path id="XMLID_00000128448208831511112160000002546571614140234131_" class="st0" d="M396.7,39.8l0.1-22.4c0-3.4,2.7-6.1,6.1-6.1
		s6.1,2.7,6.1,6.1l-0.1,22.4c-2-0.1-4-2.2-6.1-2.2C400.7,37.5,398.7,39.7,396.7,39.8z"/>
	<path id="XMLID_00000160179536235765654940000004132427890342973081_" class="st1" d="M392.8,47.1c-76.2,34.6-86.1,177-86.1,177
		c-8.9-16.7-26.8-29.1-47.1-29.2c-12.3,0-23.6,4.7-32.6,11.7C235.4,121.2,306.4,51.9,392.8,47.1z"/>
	<path id="XMLID_00000151530999324818166160000011853575922928161448_" class="st2" d="M413.5,47.1c77,35.5,85.3,177,85.3,177
		c8.9-16.7,27.1-29.1,47.3-29.2c12.3,0,23.6,4.7,32.6,11.7C570.5,121.2,499.9,51.9,413.5,47.1z"/>
	<path id="XMLID_00000125565762990408488300000000501648501991594881_" class="st0" d="M392.8,47.1c3.4-0.2,6.5-0.3,10-0.3
		s7.3,0.1,10.7,0.3c77.1,35.4,85.3,177,85.3,177s-13-28.4-48.2-28.7c-20.5-0.2-41.1,11.5-47.8,28.5c0,0-11.1-29.3-47.8-28.5
		c-38,0.8-48.3,28.7-48.3,28.7S315.6,82.2,392.8,47.1z"/>
	<path class="st0" d="M11.2,192.6h20.2v130.3H100v19H11.2V192.6z"/>
	<path class="st0" d="M116.2,254.1c5.3-4.9,11.5-8.6,18.6-11.1c7-2.5,14.1-3.7,21.1-3.7c7.3,0,13.6,0.9,18.9,2.7
		c5.3,1.8,9.6,4.3,13,7.4c3.4,3.1,5.9,6.6,7.5,10.6s2.4,8.2,2.4,12.5v51c0,3.5,0.1,6.7,0.2,9.7c0.1,3,0.3,5.8,0.6,8.4h-16.9
		c-0.4-5.1-0.6-10.1-0.6-15.2h-0.4c-4.2,6.5-9.2,11-15,13.7s-12.4,4-20,4c-4.6,0-9.1-0.6-13.3-1.9s-7.9-3.2-11.1-5.7
		s-5.7-5.7-7.5-9.4c-1.8-3.7-2.7-8-2.7-13c0-6.5,1.4-11.9,4.3-16.2c2.9-4.4,6.8-7.9,11.8-10.6c5-2.7,10.8-4.7,17.5-5.9
		c6.7-1.2,13.8-1.8,21.4-1.8h13.9v-4.2c0-2.5-0.5-5.1-1.5-7.6s-2.5-4.8-4.4-6.9c-2-2-4.4-3.7-7.4-4.8c-3-1.2-6.5-1.8-10.5-1.8
		c-3.7,0-6.9,0.4-9.6,1.1c-2.7,0.7-5.2,1.6-7.5,2.6c-2.3,1.1-4.3,2.3-6.1,3.7c-1.8,1.4-3.6,2.7-5.3,4L116.2,254.1z M169.8,293.8
		c-4.5,0-9.1,0.2-13.8,0.7s-9,1.4-12.9,2.8s-7,3.4-9.5,5.9s-3.7,5.8-3.7,9.7c0,5.8,1.9,9.9,5.8,12.4c3.9,2.5,9.1,3.8,15.7,3.8
		c5.2,0,9.6-0.9,13.3-2.6c3.7-1.8,6.6-4,8.9-6.9c2.2-2.8,3.9-5.9,4.8-9.4c1-3.4,1.5-6.9,1.5-10.2v-6.3h-10.1V293.8z"/>
	<path class="st0" d="M225.2,241.9h17.7v15.6h0.4c0.4-1.4,1.5-3.2,3.3-5.3s4-4.1,6.7-6s6-3.5,9.7-4.8s7.8-2,12.3-2
		c7.4,0,13.7,1.5,18.8,4.6c5.1,3.1,9.2,7.7,12.4,13.9c3.2-6.2,7.8-10.8,13.7-13.9c5.9-3.1,11.9-4.6,17.9-4.6c7.7,0,14.1,1.3,19,3.8
		s8.8,5.9,11.6,10c2.8,4.1,4.7,8.9,5.8,14.1c1.1,5.3,1.6,10.7,1.6,16.3v58.2h-19v-55.7c0-3.8-0.2-7.4-0.7-11
		c-0.5-3.5-1.5-6.6-3.1-9.3c-1.5-2.7-3.7-4.8-6.5-6.4s-6.5-2.4-11.2-2.4c-9.1,0-15.7,2.8-19.6,8.4s-5.9,12.9-5.9,21.7v54.6h-19
		v-52.3c0-4.8-0.2-9.1-0.7-13.1c-0.5-3.9-1.5-7.3-3-10.2c-1.5-2.9-3.6-5.1-6.3-6.7c-2.7-1.6-6.4-2.4-11.1-2.4c-3.4,0-6.6,0.7-9.8,2
		c-3.2,1.3-5.9,3.3-8.3,6c-2.4,2.7-4.3,6.1-5.7,10.2s-2.1,9-2.1,14.7v51.9h-19v-99.9H225.2z"/>
	<path class="st3" d="M11.2,354.6h30.1l47.4,113h0.8l47-113h30.1v149.3h-20.2V381.2H146L95.8,503.9H82.3L31.9,381.2h-0.4v122.7H11.2
		V354.6z"/>
	<path class="st3" d="M214.9,460.9c0,4.4,0.9,8.3,2.8,11.9c1.9,3.6,4.4,6.6,7.5,9.2c3.1,2.5,6.7,4.5,10.8,5.9s8.3,2.1,12.7,2.1
		c5.9,0,11-1.4,15.4-4.1s8.4-6.4,12-10.9l14.3,11c-10.5,13.6-25.3,20.5-44.3,20.5c-7.9,0-15-1.3-21.4-4s-11.8-6.4-16.2-11.1
		s-7.8-10.3-10.2-16.7c-2.4-6.4-3.6-13.3-3.6-20.8c0-7.4,1.3-14.4,3.9-20.8c2.6-6.4,6.2-11.9,10.8-16.7c4.6-4.7,10-8.4,16.3-11.1
		s13.2-4,20.7-4c8.9,0,16.3,1.5,22.5,4.6C275,409,280,413,284,418c3.9,5,6.8,10.6,8.5,16.9c1.8,6.3,2.6,12.6,2.6,19.1v6.7h-80.2
		V460.9z M274.7,445.7c-0.1-4.2-0.8-8.1-2-11.6s-3-6.6-5.4-9.2s-5.4-4.6-9-6.1s-7.8-2.2-12.5-2.2c-4.6,0-8.9,0.9-12.8,2.6
		c-3.9,1.8-7.1,4-9.8,6.9c-2.7,2.8-4.7,5.9-6.2,9.4c-1.5,3.4-2.2,6.9-2.2,10.2L274.7,445.7L274.7,445.7z"/>
	<path class="st0" d="M442.6,403.1h19V503h-19V403.1z"/>
	<path class="st3" d="M492.2,415.3c5.3-4.9,11.5-8.6,18.6-11.1c7-2.5,14.1-3.7,21.1-3.7c7.3,0,13.6,0.9,18.9,2.7
		c5.3,1.8,9.6,4.3,13,7.4s5.9,6.6,7.5,10.6s2.4,8.2,2.4,12.5v51c0,3.5,0.1,6.7,0.2,9.7c0.1,3,0.3,5.8,0.6,8.4h-16.9
		c-0.4-5.1-0.6-10.1-0.6-15.2h-0.4c-4.2,6.5-9.2,11-15,13.7s-12.4,4-20,4c-4.6,0-9.1-0.6-13.3-1.9s-7.9-3.2-11.1-5.7
		s-5.7-5.7-7.5-9.4c-1.8-3.7-2.7-8-2.7-13c0-6.5,1.4-11.9,4.3-16.2c2.9-4.4,6.8-7.9,11.8-10.6s10.8-4.7,17.5-5.9
		c6.7-1.2,13.8-1.8,21.4-1.8h13.9v-4.2c0-2.5-0.5-5.1-1.5-7.6s-2.5-4.8-4.4-6.9c-2-2-4.4-3.7-7.4-4.8c-3-1.2-6.5-1.8-10.5-1.8
		c-3.7,0-6.9,0.4-9.6,1.1c-2.7,0.7-5.2,1.6-7.5,2.6c-2.3,1.1-4.3,2.3-6.1,3.7c-1.8,1.4-3.6,2.7-5.3,4L492.2,415.3z M545.7,454.9
		c-4.5,0-9.1,0.2-13.8,0.7s-9,1.4-12.9,2.8s-7,3.4-9.5,5.9s-3.7,5.8-3.7,9.7c0,5.8,1.9,9.9,5.8,12.4c3.9,2.5,9.1,3.8,15.7,3.8
		c5.2,0,9.6-0.9,13.3-2.6c3.7-1.8,6.6-4,8.9-6.9c2.2-2.8,3.9-5.9,4.8-9.4c1-3.4,1.5-6.9,1.5-10.2v-6.3h-10.1V454.9z"/>
	<path class="st0" d="M494.8,270.1c-2.4-6.4-5.8-12-10.2-16.8c-4.4-4.8-9.8-8.5-16-11.2c-6.3-2.7-13.2-4-21-4
		c-6.7,0-13.3,1.5-19.7,4.4c-6.4,3-11.4,7.1-15.1,12.4h-0.4v-56.5h-19v145.1l0,0v73.8H393c-3.4-5.2-8.2-9.3-14.5-12.3
		s-13.1-4.5-20.2-4.5c-7.7,0-14.7,1.3-21,4s-11.6,6.4-16,11.1s-7.8,10.3-10.2,16.7c-2.4,6.4-3.6,13.3-3.6,20.8
		c0,7.3,1.2,14.2,3.6,20.6s5.8,12,10.2,16.8c4.4,4.8,9.8,8.5,16,11.2c6.3,2.7,13.2,4,21,4c6.7,0,13.3-1.5,19.7-4.4
		c6.4-3,11.4-7.1,15.1-12.4h0.4V503l0,0c0,18.8,15.3,34.1,34.1,34.1s34.1-15.3,34.1-34.1h-19.1c0,8.4-6.7,15.2-15.1,15.2
		s-15.2-6.8-15.2-15.2V400.1l0,0v-73.8h0.4c3.4,5.2,8.2,9.3,14.5,12.3s13.1,4.5,20.2,4.5c7.7,0,14.7-1.3,21-4s11.6-6.4,16-11.1
		s7.8-10.3,10.2-16.7c2.4-6.4,3.6-13.3,3.6-20.8C498.4,283.4,497.2,276.5,494.8,270.1z M391.1,467.1c-1.5,4.3-3.7,7.9-6.5,11
		c-2.8,3-6.3,5.4-10.3,7.2c-4.1,1.8-8.6,2.6-13.7,2.6s-9.6-0.9-13.7-2.6c-4.1-1.8-7.5-4.1-10.3-7.2c-2.8-3-5-6.7-6.5-11
		s-2.3-9-2.3-14c0-5.1,0.8-9.7,2.3-14s3.7-7.9,6.5-11c2.8-3,6.3-5.4,10.3-7.2c4.1-1.8,8.6-2.6,13.7-2.6s9.6,0.9,13.7,2.6
		c4.1,1.8,7.5,4.1,10.3,7.2c2.8,3,5,6.7,6.5,11s2.3,9,2.3,14S392.6,462.8,391.1,467.1z M475.8,304.7c-1.5,4.3-3.7,7.9-6.5,11
		c-2.8,3-6.3,5.4-10.3,7.2c-4.1,1.8-8.6,2.6-13.7,2.6s-9.6-0.9-13.7-2.6c-4.1-1.8-7.5-4.1-10.3-7.2c-2.8-3-5-6.7-6.5-11
		s-2.3-9-2.3-14c0-5.1,0.8-9.7,2.3-14s3.7-7.9,6.5-11c2.8-3,6.3-5.4,10.3-7.2c4.1-1.8,8.6-2.6,13.7-2.6s9.6,0.9,13.7,2.6
		c4.1,1.8,7.5,4.1,10.3,7.2c2.8,3,5,6.7,6.5,11s2.3,9,2.3,14C478.1,295.8,477.4,300.4,475.8,304.7z"/>
	<g>
		<path class="st3" d="M308,535.4c0,1.3,0.3,2.4,0.8,3.5c0.6,1.1,1.3,1.9,2.2,2.7c0.9,0.7,2,1.3,3.2,1.7s2.4,0.6,3.7,0.6
			c1.7,0,3.2-0.4,4.5-1.2s2.5-1.9,3.5-3.2l4.2,3.2c-3.1,4-7.4,6-13,6c-2.3,0-4.4-0.4-6.3-1.2s-3.5-1.9-4.8-3.2c-1.3-1.4-2.3-3-3-4.9
			s-1.1-3.9-1.1-6.1c0-2.2,0.4-4.2,1.1-6.1c0.8-1.9,1.8-3.5,3.2-4.9c1.3-1.4,2.9-2.5,4.8-3.2c1.9-0.8,3.9-1.2,6.1-1.2
			c2.6,0,4.8,0.5,6.6,1.4c1.8,0.9,3.3,2.1,4.4,3.6c1.2,1.5,2,3.1,2.5,4.9c0.5,1.8,0.8,3.7,0.8,5.6v2L308,535.4L308,535.4z
			 M325.6,531c0-1.2-0.2-2.4-0.6-3.4s-0.9-1.9-1.6-2.7s-1.6-1.4-2.6-1.8s-2.3-0.6-3.7-0.6c-1.4,0-2.6,0.3-3.7,0.8s-2.1,1.2-2.9,2
			s-1.4,1.7-1.8,2.7s-0.6,2-0.6,3H325.6z"/>
		<path class="st3" d="M359.1,526.5c-1-1.1-2.1-1.9-3.2-2.4c-1.1-0.6-2.5-0.8-4-0.8s-2.9,0.3-4,0.8c-1.1,0.6-2.1,1.3-2.8,2.3
			c-0.8,1-1.3,2.1-1.7,3.3c-0.4,1.3-0.6,2.6-0.6,3.9s0.2,2.6,0.7,3.9c0.5,1.2,1.1,2.3,1.9,3.2s1.8,1.6,3,2.1s2.5,0.8,3.9,0.8
			c1.6,0,2.9-0.3,4-0.8c1.1-0.6,2.1-1.4,3.1-2.4l4,4c-1.4,1.6-3.1,2.8-5,3.5s-3.9,1.1-6.1,1.1c-2.3,0-4.3-0.4-6.2-1.1
			c-1.9-0.7-3.5-1.8-4.9-3.1s-2.4-2.9-3.2-4.8c-0.7-1.9-1.1-3.9-1.1-6.2s0.4-4.3,1.1-6.2s1.8-3.5,3.1-4.9c1.3-1.4,2.9-2.4,4.8-3.2
			s4-1.1,6.3-1.1c2.1,0,4.2,0.4,6.1,1.1c2,0.8,3.7,1.9,5.1,3.5L359.1,526.5z"/>
		<path class="st3" d="M294.9,543.4c-0.7,0.1-1.4,0.2-2,0.2c-1.1,0-1.9-0.2-2.4-0.6c-0.6-0.4-1-0.9-1.2-1.5
			c-0.3-0.6-0.4-1.4-0.5-2.2c0-0.8-0.1-1.6-0.1-2.4v-13.3h8v-4.8h-8v-8.2l0,0c-1.2,1.8-3.1,2.9-5.4,2.9h-0.1v5.3h-6.4v4.8h6.4v15.3
			c0,1.2,0.1,2.4,0.2,3.6c0.1,1.2,0.4,2.2,1,3.2c0.6,0.9,1.4,1.7,2.6,2.3s2.8,0.9,5,0.9c0.6,0,1.4-0.1,2.4-0.2
			c1.1-0.1,1.9-0.4,2.6-0.8v-5.1C296.3,543,295.6,543.3,294.9,543.4z"/>
		<path class="st3" d="M393.1,524.1c-0.6-1.4-1.3-2.6-2.3-3.5s-2.1-1.6-3.4-2s-2.6-0.6-4-0.6c-2.3,0-4.3,0.5-6,1.5s-2.9,2.2-3.6,3.8
			h-0.1v-19.1c-1.4,1.4-3.4,2.2-5.6,2.3V548h5.6v-15.1c0-1.7,0.2-3.2,0.6-4.4s1-2.3,1.7-3.1s1.6-1.4,2.6-1.8s2.1-0.6,3.2-0.6
			c0.9,0,1.7,0.1,2.5,0.4c0.8,0.3,1.5,0.7,2.1,1.3s1.1,1.4,1.5,2.3c0.4,1,0.6,2.1,0.6,3.5V548h5.6v-18.8
			C393.9,527.2,393.6,525.6,393.1,524.1z"/>
	</g>
	<circle class="st2" cx="452.1" cy="387.8" r="9.5"/>
</g>
</svg>
