<svg width="39" height="52" viewBox="0 0 39 52" fill="none" xmlns="http://www.w3.org/2000/svg">
<g clip-path="url(#clip0_42_1088)">
<path fill-rule="evenodd" clip-rule="evenodd" d="M6.78841 0H24.2234L39 15.3583V45.2309C39 48.9734 35.9638 52 32.2238 52H6.78841C3.0362 52 0 48.9724 0 45.2309V6.76914C0 3.02758 3.0362 0 6.78841 0Z" fill="#D93832"/>
<path opacity="0.3" fill-rule="evenodd" clip-rule="evenodd" d="M24.2109 0V15.2415H39.0008L24.2109 0Z" fill="white"/>
<path d="M7.54492 38.7989V29.3008H11.5976C12.6008 29.3008 13.3963 29.574 13.9952 30.1326C14.5941 30.678 14.8945 31.4194 14.8945 32.3416C14.8945 33.2638 14.5951 34.0052 13.9952 34.5505C13.3963 35.1091 12.6008 35.3823 11.5976 35.3823H9.98223V38.7999H7.54594L7.54492 38.7989ZM9.98223 33.3155H11.3246C11.6893 33.3155 11.9765 33.2373 12.172 33.0555C12.3676 32.887 12.4715 32.6523 12.4715 32.3405C12.4715 32.0287 12.3676 31.7952 12.172 31.6255C11.9765 31.4438 11.6903 31.3655 11.3246 31.3655H9.98223V33.3145V33.3155ZM15.8978 38.7989V29.3008H19.2731C19.9372 29.3008 20.5636 29.3922 21.1492 29.5862C21.7359 29.7812 22.2696 30.0544 22.7391 30.4312C23.2087 30.7948 23.5865 31.2884 23.8595 31.912C24.1203 32.5355 24.2639 33.2505 24.2639 34.0559C24.2639 34.8613 24.1203 35.5631 23.8595 36.1867C23.5855 36.8103 23.2077 37.3039 22.7391 37.6675C22.2696 38.0443 21.7359 38.3175 21.1492 38.5125C20.5626 38.7075 19.9372 38.7979 19.2731 38.7979H15.8978V38.7989ZM18.2821 36.7331H18.9859C19.3638 36.7331 19.7152 36.6945 20.0411 36.6031C20.3538 36.5117 20.6532 36.3695 20.9404 36.1745C21.2144 35.9795 21.4354 35.7063 21.5923 35.3427C21.7491 34.9791 21.8266 34.5505 21.8266 34.0559C21.8266 33.5613 21.7481 33.1205 21.5923 32.757C21.4365 32.3934 21.2144 32.1202 20.9404 31.9252C20.6542 31.7302 20.3538 31.587 20.0411 31.4966C19.7152 31.4052 19.3638 31.3666 18.9859 31.3666H18.2821V36.7331ZM25.4881 38.7989V29.3008H32.2643V31.3666H27.9254V32.887H31.3914V34.9395H27.9254V38.7989H25.4891H25.4881Z" fill="white"/>
</g>
<defs>
<clipPath id="clip0_42_1088">
<rect width="39" height="52" fill="white"/>
</clipPath>
</defs>
</svg>
