<svg width="31" height="27" viewBox="0 0 31 27" fill="none" xmlns="http://www.w3.org/2000/svg">
<g filter="url(#filter0_d_10_5817)">
<path d="M16.82 8.77999C17.4275 8.77999 17.92 8.2875 17.92 7.67999C17.92 7.07247 17.4275 6.57999 16.82 6.57999C16.2125 6.57999 15.72 7.07247 15.72 7.67999C15.72 8.2875 16.2125 8.77999 16.82 8.77999Z" fill="white"/>
<path d="M19.2201 10.68C19.8276 10.68 20.3201 10.1875 20.3201 9.57998C20.3201 8.97247 19.8276 8.47998 19.2201 8.47998C18.6126 8.47998 18.1201 8.97247 18.1201 9.57998C18.1201 10.1875 18.6126 10.68 19.2201 10.68Z" fill="white"/>
<path d="M21.6901 12.49C22.2976 12.49 22.7901 11.9975 22.7901 11.39C22.7901 10.7825 22.2976 10.29 21.6901 10.29C21.0826 10.29 20.5901 10.7825 20.5901 11.39C20.5901 11.9975 21.0826 12.49 21.6901 12.49Z" fill="white"/>
<path d="M16.82 20.26C17.4275 20.26 17.92 19.7675 17.92 19.16C17.92 18.5525 17.4275 18.06 16.82 18.06C16.2125 18.06 15.72 18.5525 15.72 19.16C15.72 19.7675 16.2125 20.26 16.82 20.26Z" fill="white"/>
<path d="M19.2201 18.36C19.8276 18.36 20.3201 17.8675 20.3201 17.26C20.3201 16.6525 19.8276 16.16 19.2201 16.16C18.6126 16.16 18.1201 16.6525 18.1201 17.26C18.1201 17.8675 18.6126 18.36 19.2201 18.36Z" fill="white"/>
<path d="M21.6901 16.55C22.2976 16.55 22.7901 16.0575 22.7901 15.45C22.7901 14.8425 22.2976 14.35 21.6901 14.35C21.0826 14.35 20.5901 14.8425 20.5901 15.45C20.5901 16.0575 21.0826 16.55 21.6901 16.55Z" fill="white"/>
<path d="M23.9 14.34C24.5076 14.34 25 13.8475 25 13.24C25 12.6325 24.5076 12.14 23.9 12.14C23.2925 12.14 22.8 12.6325 22.8 13.24C22.8 13.8475 23.2925 14.34 23.9 14.34Z" fill="white"/>
<path d="M18.58 14.34C19.1875 14.34 19.68 13.8475 19.68 13.24C19.68 12.6325 19.1875 12.14 18.58 12.14C17.9725 12.14 17.48 12.6325 17.48 13.24C17.48 13.8475 17.9725 14.34 18.58 14.34Z" fill="white"/>
<path d="M15.7101 14.34C16.3176 14.34 16.8101 13.8475 16.8101 13.24C16.8101 12.6325 16.3176 12.14 15.7101 12.14C15.1026 12.14 14.6101 12.6325 14.6101 13.24C14.6101 13.8475 15.1026 14.34 15.7101 14.34Z" fill="white"/>
<path d="M12.85 14.34C13.4575 14.34 13.95 13.8475 13.95 13.24C13.95 12.6325 13.4575 12.14 12.85 12.14C12.2425 12.14 11.75 12.6325 11.75 13.24C11.75 13.8475 12.2425 14.34 12.85 14.34Z" fill="white"/>
<path d="M9.98013 14.34C10.5876 14.34 11.0801 13.8475 11.0801 13.24C11.0801 12.6325 10.5876 12.14 9.98013 12.14C9.37261 12.14 8.88013 12.6325 8.88013 13.24C8.88013 13.8475 9.37261 14.34 9.98013 14.34Z" fill="white"/>
<path d="M7.12002 14.34C7.72753 14.34 8.22002 13.8475 8.22002 13.24C8.22002 12.6325 7.72753 12.14 7.12002 12.14C6.51251 12.14 6.02002 12.6325 6.02002 13.24C6.02002 13.8475 6.51251 14.34 7.12002 14.34Z" fill="white"/>
</g>
<defs>
<filter id="filter0_d_10_5817" x="0.0200195" y="0.579987" width="30.98" height="25.68" filterUnits="userSpaceOnUse" color-interpolation-filters="sRGB">
<feFlood flood-opacity="0" result="BackgroundImageFix"/>
<feColorMatrix in="SourceAlpha" type="matrix" values="0 0 0 0 0 0 0 0 0 0 0 0 0 0 0 0 0 0 127 0" result="hardAlpha"/>
<feOffset/>
<feGaussianBlur stdDeviation="3"/>
<feColorMatrix type="matrix" values="0 0 0 0 0.0352941 0 0 0 0 0.0509804 0 0 0 0 0.0666667 0 0 0 0.55 0"/>
<feBlend mode="normal" in2="BackgroundImageFix" result="effect1_dropShadow_10_5817"/>
<feBlend mode="normal" in="SourceGraphic" in2="effect1_dropShadow_10_5817" result="shape"/>
</filter>
</defs>
</svg>
