<svg width="163" height="348" viewBox="0 0 163 348" fill="none" xmlns="http://www.w3.org/2000/svg">
<g opacity="0.19" filter="url(#filter0_d_10_5900)">
<path d="M21.34 107.45C27.7685 107.45 32.9799 102.239 32.9799 95.81C32.9799 89.3814 27.7685 84.17 21.34 84.17C14.9114 84.17 9.69995 89.3814 9.69995 95.81C9.69995 102.239 14.9114 107.45 21.34 107.45Z" fill="#4B4B4B"/>
<path d="M41.36 82.16C47.7886 82.16 53 76.9486 53 70.52C53 64.0914 47.7886 58.88 41.36 58.88C34.9314 58.88 29.72 64.0914 29.72 70.52C29.72 76.9486 34.9314 82.16 41.36 82.16Z" fill="#4B4B4B"/>
<path d="M60.44 56.09C66.8686 56.09 72.0801 50.8786 72.0801 44.45C72.0801 38.0214 66.8686 32.81 60.44 32.81C54.0115 32.81 48.8 38.0214 48.8 44.45C48.8 50.8786 54.0115 56.09 60.44 56.09Z" fill="#4B4B4B"/>
<path d="M142.36 107.45C148.789 107.45 154 102.239 154 95.81C154 89.3814 148.789 84.17 142.36 84.17C135.931 84.17 130.72 89.3814 130.72 95.81C130.72 102.239 135.931 107.45 142.36 107.45Z" fill="#4B4B4B"/>
<path d="M122.35 82.16C128.779 82.16 133.99 76.9486 133.99 70.52C133.99 64.0914 128.779 58.88 122.35 58.88C115.921 58.88 110.71 64.0914 110.71 70.52C110.71 76.9486 115.921 82.16 122.35 82.16Z" fill="#4B4B4B"/>
<path d="M103.26 56.09C109.688 56.09 114.9 50.8786 114.9 44.45C114.9 38.0214 109.688 32.81 103.26 32.81C96.8313 32.81 91.6199 38.0214 91.6199 44.45C91.6199 50.8786 96.8313 56.09 103.26 56.09Z" fill="#4B4B4B"/>
<path d="M79.9899 32.82C86.4184 32.82 91.6299 27.6086 91.6299 21.18C91.6299 14.7514 86.4184 9.53999 79.9899 9.53999C73.5613 9.53999 68.3499 14.7514 68.3499 21.18C68.3499 27.6086 73.5613 32.82 79.9899 32.82Z" fill="#4B4B4B"/>
<path d="M21.34 182.17C27.7685 182.17 32.9799 176.959 32.9799 170.53C32.9799 164.101 27.7685 158.89 21.34 158.89C14.9114 158.89 9.69995 164.101 9.69995 170.53C9.69995 176.959 14.9114 182.17 21.34 182.17Z" fill="#4B4B4B"/>
<path d="M41.36 156.88C47.7886 156.88 53 151.669 53 145.24C53 138.811 47.7886 133.6 41.36 133.6C34.9314 133.6 29.72 138.811 29.72 145.24C29.72 151.669 34.9314 156.88 41.36 156.88Z" fill="#4B4B4B"/>
<path d="M60.44 130.81C66.8686 130.81 72.0801 125.599 72.0801 119.17C72.0801 112.741 66.8686 107.53 60.44 107.53C54.0115 107.53 48.8 112.741 48.8 119.17C48.8 125.599 54.0115 130.81 60.44 130.81Z" fill="#4B4B4B"/>
<path d="M142.36 182.17C148.789 182.17 154 176.959 154 170.53C154 164.101 148.789 158.89 142.36 158.89C135.931 158.89 130.72 164.101 130.72 170.53C130.72 176.959 135.931 182.17 142.36 182.17Z" fill="#4B4B4B"/>
<path d="M122.35 156.88C128.779 156.88 133.99 151.669 133.99 145.24C133.99 138.811 128.779 133.6 122.35 133.6C115.921 133.6 110.71 138.811 110.71 145.24C110.71 151.669 115.921 156.88 122.35 156.88Z" fill="#4B4B4B"/>
<path d="M103.26 130.81C109.688 130.81 114.9 125.599 114.9 119.17C114.9 112.741 109.688 107.53 103.26 107.53C96.8313 107.53 91.6199 112.741 91.6199 119.17C91.6199 125.599 96.8313 130.81 103.26 130.81Z" fill="#4B4B4B"/>
<path d="M79.9899 107.54C86.4184 107.54 91.6299 102.329 91.6299 95.9C91.6299 89.4714 86.4184 84.26 79.9899 84.26C73.5613 84.26 68.3499 89.4714 68.3499 95.9C68.3499 102.329 73.5613 107.54 79.9899 107.54Z" fill="#4B4B4B"/>
</g>
<g opacity="0.19" filter="url(#filter1_d_10_5900)">
<path d="M21.34 264.08C27.7685 264.08 32.9799 258.869 32.9799 252.44C32.9799 246.011 27.7685 240.8 21.34 240.8C14.9114 240.8 9.69995 246.011 9.69995 252.44C9.69995 258.869 14.9114 264.08 21.34 264.08Z" fill="#4B4B4B"/>
<path d="M41.36 238.79C47.7886 238.79 53 233.579 53 227.15C53 220.721 47.7886 215.51 41.36 215.51C34.9314 215.51 29.72 220.721 29.72 227.15C29.72 233.579 34.9314 238.79 41.36 238.79Z" fill="#4B4B4B"/>
<path d="M60.44 212.73C66.8686 212.73 72.0801 207.519 72.0801 201.09C72.0801 194.661 66.8686 189.45 60.44 189.45C54.0115 189.45 48.8 194.661 48.8 201.09C48.8 207.519 54.0115 212.73 60.44 212.73Z" fill="#4B4B4B"/>
<path d="M142.36 264.08C148.789 264.08 154 258.869 154 252.44C154 246.011 148.789 240.8 142.36 240.8C135.931 240.8 130.72 246.011 130.72 252.44C130.72 258.869 135.931 264.08 142.36 264.08Z" fill="#4B4B4B"/>
<path d="M122.35 238.79C128.779 238.79 133.99 233.579 133.99 227.15C133.99 220.721 128.779 215.51 122.35 215.51C115.921 215.51 110.71 220.721 110.71 227.15C110.71 233.579 115.921 238.79 122.35 238.79Z" fill="#4B4B4B"/>
<path d="M103.26 212.73C109.688 212.73 114.9 207.519 114.9 201.09C114.9 194.661 109.688 189.45 103.26 189.45C96.8313 189.45 91.6199 194.661 91.6199 201.09C91.6199 207.519 96.8313 212.73 103.26 212.73Z" fill="#4B4B4B"/>
<path d="M79.9899 189.45C86.4184 189.45 91.6299 184.239 91.6299 177.81C91.6299 171.381 86.4184 166.17 79.9899 166.17C73.5613 166.17 68.3499 171.381 68.3499 177.81C68.3499 184.239 73.5613 189.45 79.9899 189.45Z" fill="#4B4B4B"/>
<path d="M21.34 338.81C27.7685 338.81 32.9799 333.599 32.9799 327.17C32.9799 320.741 27.7685 315.53 21.34 315.53C14.9114 315.53 9.69995 320.741 9.69995 327.17C9.69995 333.599 14.9114 338.81 21.34 338.81Z" fill="#4B4B4B"/>
<path d="M41.36 313.51C47.7886 313.51 53 308.299 53 301.87C53 295.441 47.7886 290.23 41.36 290.23C34.9314 290.23 29.72 295.441 29.72 301.87C29.72 308.299 34.9314 313.51 41.36 313.51Z" fill="#4B4B4B"/>
<path d="M60.44 287.45C66.8686 287.45 72.0801 282.239 72.0801 275.81C72.0801 269.381 66.8686 264.17 60.44 264.17C54.0115 264.17 48.8 269.381 48.8 275.81C48.8 282.239 54.0115 287.45 60.44 287.45Z" fill="#4B4B4B"/>
<path d="M142.36 338.81C148.789 338.81 154 333.599 154 327.17C154 320.741 148.789 315.53 142.36 315.53C135.931 315.53 130.72 320.741 130.72 327.17C130.72 333.599 135.931 338.81 142.36 338.81Z" fill="#4B4B4B"/>
<path d="M122.35 313.51C128.779 313.51 133.99 308.299 133.99 301.87C133.99 295.441 128.779 290.23 122.35 290.23C115.921 290.23 110.71 295.441 110.71 301.87C110.71 308.299 115.921 313.51 122.35 313.51Z" fill="#4B4B4B"/>
<path d="M103.26 287.45C109.688 287.45 114.9 282.239 114.9 275.81C114.9 269.381 109.688 264.17 103.26 264.17C96.8313 264.17 91.6199 269.381 91.6199 275.81C91.6199 282.239 96.8313 287.45 103.26 287.45Z" fill="#4B4B4B"/>
<path d="M79.9899 264.17C86.4184 264.17 91.6299 258.959 91.6299 252.53C91.6299 246.101 86.4184 240.89 79.9899 240.89C73.5613 240.89 68.3499 246.101 68.3499 252.53C68.3499 258.959 73.5613 264.17 79.9899 264.17Z" fill="#4B4B4B"/>
</g>
<defs>
<filter id="filter0_d_10_5900" x="3.69995" y="3.53999" width="156.3" height="184.63" filterUnits="userSpaceOnUse" color-interpolation-filters="sRGB">
<feFlood flood-opacity="0" result="BackgroundImageFix"/>
<feColorMatrix in="SourceAlpha" type="matrix" values="0 0 0 0 0 0 0 0 0 0 0 0 0 0 0 0 0 0 127 0" result="hardAlpha"/>
<feOffset/>
<feGaussianBlur stdDeviation="3"/>
<feColorMatrix type="matrix" values="0 0 0 0 0.0352941 0 0 0 0 0.0509804 0 0 0 0 0.0666667 0 0 0 0.55 0"/>
<feBlend mode="normal" in2="BackgroundImageFix" result="effect1_dropShadow_10_5900"/>
<feBlend mode="normal" in="SourceGraphic" in2="effect1_dropShadow_10_5900" result="shape"/>
</filter>
<filter id="filter1_d_10_5900" x="3.69995" y="160.17" width="156.3" height="184.64" filterUnits="userSpaceOnUse" color-interpolation-filters="sRGB">
<feFlood flood-opacity="0" result="BackgroundImageFix"/>
<feColorMatrix in="SourceAlpha" type="matrix" values="0 0 0 0 0 0 0 0 0 0 0 0 0 0 0 0 0 0 127 0" result="hardAlpha"/>
<feOffset/>
<feGaussianBlur stdDeviation="3"/>
<feColorMatrix type="matrix" values="0 0 0 0 0.0352941 0 0 0 0 0.0509804 0 0 0 0 0.0666667 0 0 0 0.55 0"/>
<feBlend mode="normal" in2="BackgroundImageFix" result="effect1_dropShadow_10_5900"/>
<feBlend mode="normal" in="SourceGraphic" in2="effect1_dropShadow_10_5900" result="shape"/>
</filter>
</defs>
</svg>
