<svg width="55" height="63" viewBox="0 0 55 63" fill="none" xmlns="http://www.w3.org/2000/svg">
<g clip-path="url(#clip0_9_5499)">
<path opacity="0.41" d="M33.3 19.98C39.27 20.95 43.7 26.06 43.83 32.13C43.97 38.57 39.92 44.07 33.56 44.88L33.68 50.51C34.71 50.4 35.06 50.21 36.06 49.93L37.82 53.25C38.1 53.91 38.87 54.22 39.53 53.93L41.15 53.23C41.81 52.94 42.11 52.18 41.83 51.52L40.65 47.94C42 47.12 43.24 46.12 44.33 44.98L47.55 46.92C48.13 47.34 48.94 47.21 49.36 46.62L50.39 45.18C50.81 44.59 50.68 43.78 50.1 43.36L47.25 40.91C47.98 39.51 48.53 38.01 48.88 36.47H52.64C53.35 36.53 53.98 36 54.04 35.28L54.19 33.51C54.25 32.79 53.72 32.16 53 32.1L49.3 31.47C49.22 29.88 48.94 28.31 48.45 26.79L51.63 24.87C52.27 24.55 52.54 23.77 52.22 23.12L51.44 21.53C51.12 20.89 50.34 20.62 49.7 20.94L46.26 22.29C45.37 20.96 44.31 19.76 43.1 18.71L44.82 15.45C45.21 14.84 45.03 14.04 44.43 13.65L42.95 12.69C42.35 12.3 41.54 12.48 41.15 13.08L38.93 15.98C37.48 15.29 35.93 14.79 34.35 14.51" stroke="black" stroke-width="0.75" stroke-miterlimit="10"/>
<path d="M5 0.25H29.6C32.22 0.25 34.35 2.38 34.35 5.02V57.79C34.35 60.42 32.22 62.56 29.6 62.56H5C2.38 62.56 0.25 60.43 0.25 57.79V5.02C0.25 2.38 2.38 0.25 5 0.25Z" stroke="black" stroke-width="0.5" stroke-miterlimit="10"/>
<path d="M5.00002 1.33008H29.6C31.63 1.33008 33.27 2.98008 33.27 5.02008V57.7901C33.27 59.8301 31.62 61.4801 29.6 61.4801H5.00002C2.97002 61.4801 1.33002 59.8301 1.33002 57.7901V5.02008C1.33002 2.98008 2.98002 1.33008 5.00002 1.33008Z" stroke="black" stroke-width="0.5" stroke-miterlimit="10"/>
<path d="M5.59998 51.5098H28.86" stroke="black" stroke-width="0.5" stroke-miterlimit="10"/>
<path d="M17.04 58.2C18.1832 58.2 19.11 57.2688 19.11 56.12C19.11 54.9713 18.1832 54.04 17.04 54.04C15.8967 54.04 14.97 54.9713 14.97 56.12C14.97 57.2688 15.8967 58.2 17.04 58.2Z" stroke="#F05A2B" stroke-width="0.25" stroke-miterlimit="10"/>
<path d="M17.04 57.1201C17.5923 57.1201 18.04 56.6724 18.04 56.1201C18.04 55.5678 17.5923 55.1201 17.04 55.1201C16.4877 55.1201 16.04 55.5678 16.04 56.1201C16.04 56.6724 16.4877 57.1201 17.04 57.1201Z" stroke="#F05A2B" stroke-width="0.25" stroke-miterlimit="10"/>
</g>
<defs>
<clipPath id="clip0_9_5499">
<rect width="54.57" height="62.8" fill="white"/>
</clipPath>
</defs>
</svg>
