<svg width="81" height="80" viewBox="0 0 81 80" fill="none" xmlns="http://www.w3.org/2000/svg">
<g clip-path="url(#clip0_25_68)">
<path d="M63.6332 20.193C65.7717 16.95 67.8489 13.8149 69.9124 10.6696C70.8659 9.22002 72.119 8.20194 73.8693 7.87157C76.304 7.4131 78.3199 8.17835 79.7705 10.1235C81.2722 12.136 81.4085 14.3576 80.1077 16.5084C78.7285 18.7906 77.1962 20.9819 75.7285 23.2102C72.8205 27.6196 69.9601 32.0593 66.9771 36.4216C66.1497 37.6284 65.9419 38.7578 66.1429 40.1669C66.9908 46.1001 67.7399 52.0433 68.5299 57.9832C68.724 59.4531 68.9147 60.9262 69.1463 62.3927C69.657 65.6627 67.8284 68.3966 64.3926 68.7068C58.7229 69.2158 53.4209 71.0328 48.0441 72.624C40.1167 74.9703 32.203 77.3469 24.2791 79.7C20.9828 80.6776 18.1803 79.1808 17.1894 75.921C11.564 57.4304 5.94535 38.9364 0.330135 20.4391C-0.718673 16.9871 0.752383 14.3172 4.23933 13.2856C7.32446 12.372 10.4028 11.445 13.4947 10.5584C14.0804 10.3898 14.2609 10.1403 14.2915 9.52679C14.4175 6.96811 16.5254 5.02972 19.3074 4.68587C24.388 4.06221 29.4584 3.36776 34.5356 2.71376C39.0781 2.12719 43.6241 1.5541 48.1667 0.970896C50.4107 0.684351 52.6582 0.418032 54.8954 0.0842916C58.5799 -0.465201 61.127 1.55747 61.556 5.24884C62.1247 10.1167 62.8159 14.9678 63.4595 19.8256C63.4697 19.9031 63.5276 19.9739 63.6298 20.1863L63.6332 20.193ZM63.6809 41.512C63.3914 41.93 63.2178 42.1727 63.0509 42.4222C61.4709 44.8123 59.8977 47.2091 58.3108 49.5959C58.0963 49.9195 57.8545 50.2465 57.5617 50.4994C55.3449 52.4209 53.1281 54.3424 50.8806 56.2303C49.7671 57.1674 48.48 57.3394 47.1553 56.7022C45.8409 56.0684 45.1326 54.9897 45.2178 53.53C45.2586 52.8457 45.5004 52.1681 45.6741 51.4972C45.8579 50.7926 46.0759 50.0948 46.304 49.3094C42.9703 49.7375 39.8035 50.1454 36.64 50.5533C34.1712 50.8702 31.7058 51.2073 29.2337 51.4905C28.1917 51.6085 27.6128 51.1938 27.5208 50.4252C27.4187 49.5858 27.8818 49.0869 28.951 48.9419C34.7808 48.1564 40.6071 47.3743 46.4402 46.6125C47.0089 46.5383 47.3699 46.3866 47.4993 45.7629C47.8194 44.2021 48.606 42.8537 49.5186 41.5524C50.5027 40.15 51.4153 38.6971 52.3551 37.2644C52.4641 37.0958 52.5424 36.907 52.6922 36.6205C51.4119 36.789 50.2643 36.9441 49.1167 37.0958C46.7058 37.4127 44.2984 37.7565 41.8841 38.0296C40.9783 38.1341 40.3892 37.6082 40.3415 36.843C40.2972 36.1384 40.8012 35.6024 41.6627 35.4878C45.8103 34.9282 49.9612 34.3888 54.1054 33.809C54.4153 33.7651 54.7966 33.546 54.9669 33.2932C57.0203 30.2389 59.0464 27.1645 61.0589 24.0833C61.2121 23.8507 61.3176 23.5102 61.2836 23.2405C60.4766 17.1624 59.6491 11.0842 58.825 5.00949C58.6071 3.41158 57.3506 2.41036 55.7127 2.61263C51.3914 3.15201 47.0736 3.7251 42.7558 4.28133C38.6321 4.81397 34.5083 5.33649 30.388 5.87587C26.6593 6.36131 22.9272 6.83664 19.2053 7.36591C17.5606 7.59851 16.6922 8.89302 16.9204 10.5145C17.2949 13.2047 17.6457 15.8982 17.9998 18.5917C18.7013 23.9215 19.3892 29.2546 20.0974 34.5843C20.8057 39.9141 21.5345 45.2404 22.2461 50.5702C23.0498 56.5943 23.8364 62.6185 24.6434 68.6394C24.8409 70.1058 26.1043 71.0901 27.5991 70.9047C31.8931 70.3788 36.1837 69.826 40.4777 69.2731C45.0475 68.6832 49.6173 68.0797 54.1871 67.4797C57.5787 67.0347 60.9737 66.5998 64.3653 66.1312C65.8125 65.9323 66.7762 64.5738 66.5821 63.1411C65.6253 56.0111 64.6718 48.8779 63.6877 41.5153L63.6809 41.512ZM14.5878 12.9013C11.329 13.8755 8.14512 14.8296 4.96124 15.7802C2.88746 16.4005 2.21663 17.6175 2.83978 19.6671C8.45499 38.1375 14.0702 56.6078 19.6854 75.0748C20.3052 77.1143 21.5753 77.7919 23.6287 77.1784C29.1179 75.54 34.6037 73.9017 40.0929 72.2633C40.3994 72.1723 40.7024 72.0678 41.0055 71.9734C40.7229 71.8723 40.4641 71.8419 40.2189 71.8756C36.1803 72.3981 32.1383 72.8903 28.1065 73.4702C25.2734 73.8747 22.5117 72.0004 22.0929 69.1787C21.5719 65.6627 21.136 62.1297 20.6661 58.6069C20.1179 54.4975 19.573 50.3915 19.0282 46.2821C18.4902 42.23 17.9453 38.1779 17.4073 34.1225C16.8148 29.6524 16.2223 25.1823 15.6298 20.7122C15.2893 18.1333 14.9453 15.5544 14.5912 12.9047L14.5878 12.9013ZM73.3176 22.128C71.472 20.938 69.6775 19.7817 67.8216 18.585C62.22 27.0768 56.6593 35.5046 51.0645 43.9864C52.9204 45.1865 54.7081 46.3428 56.5537 47.5328C62.1621 39.0308 67.7229 30.5997 73.3142 22.128H73.3176ZM77.2303 16.1443C78.2825 14.8532 78.7456 13.5216 77.9113 11.9978C77.2779 10.8449 75.9839 10.1842 74.724 10.346C73.3006 10.528 72.2893 11.3641 71.9317 12.6889C73.6684 13.8216 75.4119 14.961 77.2337 16.1477L77.2303 16.1443ZM49.1542 48.9689C50.3903 49.7746 51.5004 50.4994 52.6582 51.2545C53.2711 50.7219 53.959 50.1252 54.7217 49.4644C53.0872 48.4059 51.5685 47.4249 49.9646 46.3832C49.6616 47.3507 49.3892 48.2171 49.1542 48.9689ZM70.3381 14.7857C69.9737 15.3386 69.64 15.8443 69.262 16.4174C71.1009 17.6074 72.892 18.7637 74.7376 19.957C75.1054 19.4008 75.4425 18.8951 75.8171 18.3288C73.9749 17.1388 72.1837 15.9791 70.3381 14.7857ZM50.6321 53.0041C49.8455 52.4951 49.1474 52.0467 48.3778 51.5512C48.1463 52.2523 47.9011 52.7445 47.8432 53.2569C47.8057 53.5839 47.9317 54.0862 48.1701 54.2514C48.3982 54.4099 48.926 54.3458 49.2087 54.184C49.6854 53.9109 50.0702 53.4862 50.6355 53.0041H50.6321Z" fill="white"/>
<path d="M26.1659 28.2601C25.141 28.2668 24.5621 27.8218 24.4872 27.1038C24.4156 26.4127 24.923 25.8363 25.7709 25.7216C29.9696 25.1553 34.1716 24.6024 38.3702 24.0496C42.4293 23.5136 46.4917 22.9742 50.5507 22.4415C51.8106 22.2764 53.0706 22.1044 54.3339 21.9662C55.1444 21.8752 55.7573 22.3505 55.8595 23.0854C55.9548 23.7832 55.4474 24.4339 54.6438 24.5417C50.7516 25.0609 46.8595 25.5632 42.9639 26.0689C38.8742 26.6015 34.7845 27.1375 30.6983 27.6701C29.1285 27.8758 27.5621 28.0814 26.1659 28.2635V28.2601Z" fill="white"/>
<path d="M32.4726 15.6352C31.468 15.6487 30.9062 15.224 30.8142 14.4924C30.7291 13.798 31.2194 13.2047 32.0673 13.0901C35.8165 12.581 39.569 12.0888 43.3182 11.5966C46.1445 11.2258 48.9743 10.855 51.8006 10.4909C52.165 10.4437 52.5327 10.3965 52.8971 10.3864C53.7041 10.3662 54.2387 10.8044 54.3137 11.5225C54.3886 12.2136 53.9186 12.8271 53.1593 12.935C51.4533 13.1777 49.7439 13.3901 48.0378 13.6126C43.9209 14.152 39.8074 14.688 35.6905 15.224C34.5702 15.3689 33.4499 15.5105 32.4692 15.6352H32.4726Z" fill="white"/>
<path d="M30.7998 63.104C29.7748 63.1208 29.2266 62.7197 29.1346 61.9848C29.0427 61.2532 29.5535 60.6835 30.4559 60.5622C33.6738 60.1273 36.8951 59.6992 40.1131 59.2744C40.9337 59.1665 41.625 59.6317 41.7578 60.3734C41.8838 61.0779 41.3526 61.7589 40.4979 61.8803C38.625 62.1398 36.7419 62.359 34.8656 62.5949C33.4627 62.7702 32.0631 62.9489 30.7998 63.1074V63.104Z" fill="white"/>
<path d="M27.7421 39.8836C26.5775 39.8971 26.0463 39.4926 25.9816 38.7543C25.9135 37.9554 26.3459 37.4632 27.2892 37.3317C29.0531 37.089 30.8204 36.8564 32.5877 36.644C33.5446 36.5294 34.1677 36.9609 34.2665 37.7531C34.3618 38.5015 33.8136 39.0813 32.8601 39.2094C31.0656 39.4521 29.271 39.6814 27.7386 39.8836H27.7421Z" fill="white"/>
</g>
<defs>
<clipPath id="clip0_25_68">
<rect width="81" height="80" fill="white"/>
</clipPath>
</defs>
</svg>
