<svg width="80" height="80" viewBox="0 0 80 80" fill="none" xmlns="http://www.w3.org/2000/svg">
<g clip-path="url(#clip0_25_49)">
<path d="M51.9179 64.7884C54.5829 64.998 56.3877 66.1181 57.2354 68.5459C57.3198 68.79 57.4199 69.0465 57.4199 69.2999C57.4168 71.4556 57.5857 73.6331 57.3198 75.7575C57.007 78.2604 54.7143 79.9906 52.1775 79.9937C44.0543 80.0031 35.9279 80.0062 27.8047 79.9937C24.8707 79.9906 22.5278 77.6097 22.5059 74.6593C22.4966 73.2014 22.4997 71.7434 22.5059 70.2855C22.5153 67.3633 24.5516 65.1357 27.4637 64.851C27.6139 64.8353 27.7671 64.8291 28.0424 64.8103C27.9579 63.2491 27.9454 61.7192 27.7796 60.2018C27.1384 54.2448 25.3962 48.6257 22.4966 43.3727C22.2713 42.9628 22.0305 42.5624 21.7959 42.1556C21.1734 41.0825 21.1828 40.7352 21.9367 39.7685C26.1156 34.4153 30.3008 29.0684 34.4859 23.7184C35.8966 21.9163 37.3261 20.1267 38.7243 18.3121C39.1559 17.752 39.6189 17.339 40.3633 17.5612C41.1828 17.8052 41.3486 18.4654 41.3486 19.2256C41.3424 26.2557 41.358 33.2859 41.3298 40.316C41.3298 41.0356 41.5144 41.3703 42.2213 41.6519C44.708 42.6468 46.1218 45.4032 45.5557 47.9468C44.9363 50.7344 42.5716 52.5803 39.7377 52.4959C37.1478 52.4177 34.805 50.3308 34.3983 47.7434C33.9761 45.059 35.4525 42.5279 38.0424 41.5393C38.449 41.386 38.6711 41.2295 38.668 40.7352C38.6492 34.9816 38.6555 29.2249 38.6555 23.4712C38.6555 23.3242 38.6273 23.1771 38.5929 22.8267C37.592 24.0938 36.6974 25.2202 35.809 26.3527C32.1212 31.0676 28.4459 35.7888 24.7424 40.4881C24.3764 40.9511 24.3702 41.2796 24.658 41.7864C27.6232 47.0207 29.4781 52.6398 30.2757 58.5968C30.5041 60.2925 30.5353 62.0164 30.648 63.7309C30.6698 64.0626 30.6511 64.3973 30.6511 64.8385C31.0139 64.8385 31.286 64.8385 31.5613 64.8385C35.0771 64.8385 38.5929 64.8385 42.1056 64.8385C43.0158 64.8385 43.5257 65.2295 43.6226 65.9617C43.7446 66.8815 43.1628 67.4884 42.1181 67.4916C39.1747 67.4978 36.2344 67.4916 33.2911 67.4916C31.5206 67.4916 29.7502 67.4853 27.9798 67.4916C26.3126 67.501 25.1835 68.6179 25.1647 70.2792C25.149 71.7121 25.1459 73.1451 25.1647 74.5749C25.1866 76.1861 26.3189 77.325 27.9392 77.325C35.9842 77.3344 44.0324 77.3344 52.0774 77.325C53.6883 77.325 54.8144 76.1736 54.8363 74.5561C54.855 73.1232 54.855 71.6902 54.8363 70.2604C54.8175 68.6398 53.6883 67.5166 52.0805 67.4916C51.6896 67.4853 51.2986 67.4916 50.9076 67.4916C49.8472 67.4791 49.3811 67.0285 49.3499 65.9898C49.2091 61.3563 49.7659 56.804 50.992 52.3363C52.0117 48.6132 53.4631 45.0653 55.3836 41.7145C55.6433 41.2608 55.6339 40.9636 55.3054 40.5444C52.068 36.4396 48.8494 32.316 45.6276 28.1955C45.5463 28.0923 45.465 27.9922 45.3899 27.8858C44.8331 27.1067 44.8832 26.384 45.5213 25.8866C46.1469 25.3985 46.9132 25.5299 47.4919 26.2557C48.3833 27.3758 49.2623 28.5053 50.1444 29.6316C52.7249 32.9323 55.3023 36.2331 57.886 39.5307C58.8588 40.7728 58.8744 40.9918 58.0705 42.3715C54.9676 47.6902 53.0002 53.3938 52.3245 59.5229C52.1337 61.2499 52.0493 62.9863 51.9116 64.7821L51.9179 64.7884ZM40.0192 43.8545C38.3552 43.8451 37.0414 45.1247 37.0258 46.7767C37.0102 48.4568 38.3364 49.8271 39.9848 49.8365C41.6051 49.8459 42.9658 48.5068 42.9814 46.8862C42.997 45.1748 41.7146 43.8608 40.0192 43.8514V43.8545Z" fill="white"/>
<path d="M47.3942 9.57059C47.3473 10.1901 47.3661 10.8221 47.241 11.4259C46.8406 13.3688 45.2891 14.6547 43.3123 14.6766C41.1008 14.7016 38.8863 14.7047 36.6748 14.6766C34.4102 14.6453 32.6961 12.8964 32.6648 10.6406C32.6554 10.018 32.6648 9.39539 32.6648 8.66328H31.8578C25.5832 8.66328 19.3085 8.66954 13.0339 8.65077C12.4959 8.65077 12.2238 8.82284 11.9579 9.2984C10.982 11.0379 8.9582 11.7575 7.12211 11.0849C5.33293 10.431 4.25379 8.57568 4.55094 6.66406C4.83559 4.83692 6.51841 3.34142 8.42958 3.33203C10.0405 3.32578 11.2447 4.08604 12.0642 5.49081C12.1987 5.71921 12.5553 5.95698 12.8087 5.96011C19.2898 5.98514 25.774 5.97889 32.2582 5.97576C32.3583 5.97576 32.4584 5.95073 32.6617 5.9257C32.6617 5.33438 32.6585 4.74306 32.6617 4.15487C32.6773 1.73954 34.3852 0.0125192 36.7812 0.00313325C38.9426 -0.00625275 41.104 -0.00625275 43.2654 0.00313325C45.5707 0.0156479 47.3098 1.74267 47.3379 4.04224C47.3473 4.71803 47.3786 5.40008 47.3285 6.07275C47.2848 6.63903 47.5037 6.80485 48.0386 6.92687C52.9901 8.07822 57.51 10.1713 61.5294 13.2937C68.6548 18.8283 73.1434 26.0117 74.845 34.8909C75.1703 36.596 75.3329 38.3293 75.5738 40.0939C75.9679 40.1502 76.4308 40.1783 76.875 40.2816C78.7267 40.7102 79.9748 42.262 79.9936 44.1517C80.0061 45.3219 79.9998 46.4951 79.9936 47.6652C79.9842 49.9022 78.5766 51.5855 76.3495 51.7919C74.9044 51.9265 73.428 51.9202 71.9829 51.7919C69.9247 51.6105 68.5359 50.2057 68.3576 48.1408C68.2356 46.7204 68.2325 45.2718 68.3576 43.8514C68.5516 41.6363 70.1249 40.2597 72.3583 40.1502C72.4834 40.1439 72.6054 40.1283 72.7274 40.1189C72.5178 26.4091 62.2269 12.6711 47.388 9.56121L47.3942 9.57059ZM35.3235 7.34924C35.3235 8.36293 35.3142 9.37662 35.3235 10.3903C35.3361 11.4947 35.8428 12.011 36.9532 12.0172C38.9801 12.0297 41.007 12.0297 43.0339 12.0172C44.1537 12.011 44.6698 11.5041 44.6761 10.4028C44.6886 8.35042 44.6886 6.29801 44.6761 4.2456C44.6698 3.18499 44.1474 2.67189 43.0871 2.66563C41.0352 2.65624 38.9801 2.65624 36.9282 2.66563C35.8303 2.67189 35.3329 3.18499 35.3235 4.30818C35.3142 5.32187 35.3235 6.33555 35.3235 7.34924ZM77.3379 46.0008C77.3379 45.4564 77.3379 44.9089 77.3379 44.3645C77.3379 44.3395 77.3379 44.3113 77.3379 44.2863C77.2941 43.379 76.7812 42.8471 75.8615 42.8283C74.7449 42.8064 73.6251 42.8095 72.5084 42.8283C71.5606 42.844 71.032 43.3133 70.9976 44.2456C70.9538 45.4126 70.957 46.5858 70.9976 47.7528C71.0258 48.6257 71.5012 49.1326 72.3489 49.167C73.5688 49.2139 74.7918 49.2171 76.0117 49.1607C76.85 49.1232 77.3035 48.5757 77.3317 47.7184C77.3504 47.1459 77.3348 46.5765 77.3348 46.0039L77.3379 46.0008ZM8.51091 8.64138C9.25848 8.63825 9.85592 8.04068 9.83715 7.30857C9.82151 6.61401 9.23346 6.02894 8.53906 6.01017C7.81338 5.9914 7.19718 6.58898 7.19092 7.32108C7.18466 8.07509 7.75708 8.64451 8.51403 8.64138H8.51091Z" fill="white"/>
<path d="M7.13144 40.1408C8.45455 40.1314 9.50554 40.4255 10.3782 41.2264C11.1633 41.9491 11.6138 42.8564 11.6544 43.9046C11.7107 45.3062 11.7608 46.7235 11.6419 48.1189C11.4699 50.165 10.1499 51.5854 8.11674 51.77C6.49647 51.9171 4.83241 51.8889 3.21527 51.6981C1.36353 51.4822 0.0404154 49.7927 0.00913607 47.928C-0.00963153 46.7297 0.0028802 45.5315 0.00600813 44.3332C0.012264 41.9022 1.65756 40.2284 4.10047 40.1533C4.20369 40.1502 4.30692 40.1408 4.46644 40.1314C4.58843 39.0082 4.68852 37.8787 4.83554 36.7555C5.74576 29.9006 8.46707 23.8467 12.9087 18.5624C15.4079 15.5901 18.3232 13.0903 21.6701 11.1193C22.0923 10.869 22.7336 10.7563 23.1902 10.8815C23.5249 10.9722 23.9316 11.5635 23.9284 11.9264C23.9253 12.3613 23.6219 12.9276 23.2653 13.2029C21.9735 14.2041 20.5378 15.027 19.2772 16.0657C12.9494 21.2843 9.07701 27.9577 7.65068 36.036C7.41608 37.3594 7.30348 38.7047 7.12518 40.1345L7.13144 40.1408ZM2.66475 45.9695C2.66475 46.542 2.65224 47.1146 2.66475 47.684C2.68977 48.6101 3.1746 49.1419 4.10673 49.1732C5.24842 49.2108 6.39325 49.2076 7.53494 49.1732C8.4483 49.1482 8.96128 48.6726 8.99256 47.781C9.03948 46.5889 9.03948 45.3907 8.98943 44.1955C8.9519 43.3038 8.42327 42.8408 7.51617 42.8252C6.37448 42.8033 5.22966 42.8001 4.08483 42.8252C3.21214 42.8471 2.6929 43.3821 2.66162 44.2518C2.63973 44.8213 2.65849 45.3938 2.65537 45.9663L2.66475 45.9695Z" fill="white"/>
<path d="M63.1371 8.66327C61.8359 8.66327 60.5378 8.67578 59.2365 8.65701C58.2356 8.64137 57.6507 8.12201 57.6663 7.31481C57.6788 6.517 58.2794 5.99451 59.2741 5.98826C61.8233 5.97261 64.3726 5.96323 66.9187 5.99764C67.4818 6.0039 67.7758 5.84747 68.0604 5.34375C68.9769 3.71372 70.8412 2.98787 72.6053 3.48532C74.2631 3.95462 75.458 5.51583 75.4799 7.23659C75.5018 9.09502 74.3914 10.6312 72.6397 11.1631C70.838 11.7106 68.9112 10.9315 67.9979 9.2233C67.7664 8.78841 67.5131 8.64137 67.0407 8.65388C65.7426 8.68204 64.4414 8.66327 63.1402 8.66327H63.1371ZM72.8149 7.31168C72.8055 6.57958 72.1831 5.98513 71.4574 6.01016C70.7598 6.03519 70.1781 6.62338 70.1655 7.31794C70.153 8.05005 70.7505 8.64137 71.5012 8.64137C72.2613 8.64137 72.8274 8.06882 72.8149 7.31168Z" fill="white"/>
</g>
<defs>
<clipPath id="clip0_25_49">
<rect width="80" height="80" fill="white"/>
</clipPath>
</defs>
</svg>
