<svg width="55" height="68" viewBox="0 0 55 68" fill="none" xmlns="http://www.w3.org/2000/svg">
<g clip-path="url(#clip0_9_5527)">
<path d="M50.25 0C51.24 0.34 52.22 0.69 52.98 1.47C53.99 2.5 54.58 3.71 54.58 5.17C54.58 25.54 54.58 45.91 54.58 66.27C54.58 67.08 54.23 67.44 53.43 67.44C51.4 67.44 49.36 67.44 47.33 67.44C46.53 67.44 46.19 67.08 46.18 66.27C46.18 64.93 46.18 63.6 46.18 62.22H16.79C16.79 63.53 16.79 64.84 16.79 66.15C16.79 67.13 16.47 67.45 15.5 67.45C13.55 67.45 11.61 67.45 9.66 67.45C8.69 67.45 8.39 67.14 8.39 66.14C8.39 61.14 8.39 56.13 8.39 51.13C8.39 50.89 8.39 50.65 8.39 50.41C8.36 50.41 8.33 50.41 8.3 50.41C8.07 52.02 7.83 53.62 7.6 55.23C7.16 58.31 6.73 61.39 6.28 64.46C6.2 65.03 5.84 65.34 5.24 65.34C3.84 65.34 2.44 65.34 1.04 65.34C0.339996 65.34 -0.0800041 64.94 -4.12576e-06 64.22C0.149996 62.76 0.379996 61.31 0.579996 59.86C1.04 56.63 1.5 53.4 1.96 50.17C2.46 46.64 2.97 43.1 3.47 39.57C3.93 36.34 4.39 33.11 4.85 29.88C5.35 26.37 5.85 22.86 6.35 19.35C6.86 15.8 7.37 12.24 7.87 8.69C8.07 7.28 8.18 5.86 8.44 4.46C8.86 2.21 10.21 0.76 12.43 0.14C12.53 0.11 12.62 0.05 12.72 0.01C25.23 0.01 37.74 0.01 50.24 0.01L50.25 0ZM52.48 60.04C52.48 59.74 52.48 59.5 52.48 59.26C52.48 41.41 52.48 23.57 52.48 5.72C52.48 3.37 51.22 2.11 48.87 2.11C37.28 2.11 25.69 2.11 14.1 2.11C11.75 2.11 10.49 3.38 10.49 5.72C10.49 15.68 10.49 25.65 10.49 35.61C10.49 43.49 10.49 51.37 10.49 59.25C10.49 59.51 10.49 59.76 10.49 60.04H52.48ZM8.39 20.9C8.39 20.9 8.32 20.92 8.29 20.93C6.29 35.01 4.28 49.08 2.27 63.2H4.3C4.43 62.36 4.55 61.54 4.67 60.72C5.17 57.21 5.67 53.7 6.16 50.19C6.67 46.64 7.18 43.08 7.68 39.53C8.05 36.91 8.48 34.3 8.41 31.63C8.32 28.3 8.39 24.96 8.39 21.63C8.39 21.39 8.39 21.15 8.39 20.91V20.9ZM14.66 62.22H10.55V65.3H14.66V62.22ZM52.43 65.3V62.22H48.31V65.3H52.43Z" fill="black"/>
<path d="M50.38 32.7301C50.38 40.6501 50.38 48.5801 50.38 56.5001C50.38 57.6801 50.1 57.9601 48.91 57.9601C37.3 57.9601 25.69 57.9601 14.08 57.9601C12.86 57.9601 12.6 57.6801 12.6 56.4401C12.6 40.5901 12.6 24.7501 12.6 8.90012C12.6 7.64012 12.87 7.37012 14.14 7.37012C25.71 7.37012 37.27 7.37012 48.84 7.37012C50.14 7.37012 50.39 7.63012 50.39 8.96012C50.39 16.8801 50.39 24.8101 50.39 32.7301H50.38ZM14.72 55.8001H48.22V9.53012H14.72V55.8101V55.8001Z" fill="black"/>
<path d="M25.15 30.5398C23.13 28.2798 22.92 25.6398 23.08 22.8998C23.09 22.6598 23.08 22.4198 23.08 22.1798C23.1 21.4298 23.45 21.0698 24.21 21.0698C28.34 21.0698 32.47 21.0698 36.6 21.0698C37.38 21.0698 37.66 21.3398 37.84 22.2298C38.8 22.0398 39.73 22.0598 40.58 22.6498C41.28 23.1298 41.71 23.7898 41.91 24.6098C42.35 26.4398 40.9 28.4898 39.03 28.4098C37.67 28.3498 36.92 28.7698 36.07 29.9198C35.93 30.1098 35.87 30.2198 35.77 30.3898C35.77 30.4098 35.67 30.5498 35.74 30.5498C36.04 30.5498 36.33 30.5498 36.62 30.5498C37.34 30.5798 37.77 30.9898 37.76 31.6198C37.75 32.2498 37.3 32.6598 36.58 32.6598C33.24 32.6598 29.89 32.6598 26.55 32.6598C25.76 32.6598 24.98 32.6698 24.19 32.6598C23.48 32.6498 23.05 32.2298 23.07 31.5798C23.07 30.9598 23.49 30.5798 24.18 30.5498C24.46 30.5398 24.75 30.5498 25.13 30.5498L25.15 30.5398ZM25.19 23.1998C25.19 23.9898 25.16 24.7298 25.19 25.4698C25.33 28.8798 28.6 31.2798 31.86 30.3098C35.06 29.3498 36.06 26.4998 35.56 23.2098H25.18L25.19 23.1998ZM37.79 26.3398C38.05 26.3398 38.28 26.3398 38.51 26.3398C38.66 26.3398 38.82 26.3398 38.97 26.3098C39.53 26.1898 39.92 25.6898 39.86 25.1798C39.8 24.6698 39.33 24.2498 38.84 24.2398C38.31 24.2398 37.85 24.6498 37.8 25.2298C37.77 25.5698 37.8 25.9198 37.8 26.3398H37.79Z" fill="black"/>
<path d="M25.24 45.3101C27.25 45.3101 29.26 45.3101 31.27 45.3101C32.11 45.3101 32.54 45.6801 32.53 46.3801C32.52 47.0401 32.09 47.4101 31.29 47.4101C27.23 47.4101 23.16 47.4101 19.1 47.4101C18.27 47.4101 17.83 47.0301 17.84 46.3401C17.85 45.6801 18.29 45.3101 19.08 45.3101C21.13 45.3101 23.19 45.3101 25.24 45.3101Z" fill="black"/>
<path d="M24.65 38.9899C22.79 38.9899 20.94 38.9899 19.08 38.9899C18.29 38.9899 17.86 38.6099 17.85 37.9499C17.85 37.2799 18.27 36.8899 19.05 36.8799C22.79 36.8799 26.52 36.8799 30.26 36.8799C31.05 36.8799 31.48 37.2499 31.49 37.9099C31.49 38.5999 31.06 38.9799 30.22 38.9799C28.36 38.9799 26.51 38.9799 24.65 38.9799V38.9899Z" fill="black"/>
<path d="M23.57 51.63C22.06 51.63 20.56 51.63 19.05 51.63C18.27 51.63 17.84 51.24 17.85 50.56C17.85 49.9 18.29 49.52 19.08 49.52C22.12 49.52 25.15 49.52 28.19 49.52C28.97 49.52 29.4 49.91 29.39 50.58C29.39 51.24 28.95 51.62 28.16 51.62C26.63 51.62 25.1 51.62 23.57 51.62V51.63Z" fill="black"/>
<path d="M22.54 43.2001C21.36 43.2001 20.18 43.2001 19 43.2001C18.27 43.2001 17.84 42.8001 17.84 42.1601C17.84 41.5101 18.26 41.1001 18.98 41.1001C21.36 41.1001 23.74 41.1001 26.12 41.1001C26.85 41.1001 27.28 41.5001 27.28 42.1401C27.28 42.7901 26.86 43.2001 26.14 43.2001C24.94 43.2001 23.74 43.2001 22.54 43.2001Z" fill="black"/>
<path d="M29.38 16.8101C29.38 16.1301 29.37 15.4501 29.38 14.7701C29.4 14.0901 29.8 13.6801 30.42 13.6901C31.04 13.6901 31.46 14.1001 31.47 14.7801C31.48 16.1601 31.48 17.5401 31.47 18.9201C31.47 19.5801 31.02 20.0201 30.42 20.0201C29.81 20.0201 29.39 19.5901 29.38 18.9201C29.36 18.2201 29.38 17.5201 29.38 16.8201V16.8101Z" stroke="#F05A28" stroke-width="0.5" stroke-miterlimit="10"/>
<path d="M38.83 38.9901C38.15 38.9901 37.48 38.9901 36.8 38.9901C36.09 38.9801 35.67 38.5501 35.68 37.9101C35.69 37.2901 36.11 36.9001 36.79 36.8901C38.14 36.8901 39.5 36.8901 40.85 36.8901C41.53 36.8901 41.95 37.2901 41.97 37.9101C41.99 38.5501 41.56 38.9801 40.85 38.9901C40.17 39.0001 39.5 38.9901 38.82 38.9901H38.83Z" fill="black"/>
<path d="M39.34 51.6301C38.84 51.6301 38.34 51.6401 37.84 51.6301C37.17 51.6101 36.75 51.2101 36.74 50.5901C36.74 49.9701 37.15 49.5401 37.81 49.5301C38.86 49.5201 39.9 49.5101 40.95 49.5301C41.57 49.5401 41.98 49.9701 41.98 50.5601C41.98 51.1501 41.58 51.6001 40.97 51.6201C40.43 51.6401 39.88 51.6201 39.33 51.6201L39.34 51.6301Z" fill="black"/>
<path d="M25.18 17.8401C25.18 17.4901 25.16 17.1401 25.18 16.7901C25.22 16.2001 25.61 15.8101 26.18 15.8001C26.78 15.7801 27.24 16.1701 27.26 16.7801C27.29 17.5201 27.29 18.2701 27.26 19.0101C27.24 19.6101 26.76 20.0301 26.19 20.0101C25.63 20.0001 25.23 19.6001 25.18 19.0201C25.18 18.9801 25.18 18.9301 25.18 18.8901C25.18 18.5401 25.18 18.1901 25.18 17.8401Z" stroke="#F05A28" stroke-width="0.5" stroke-miterlimit="10"/>
<path d="M33.58 17.8401C33.58 17.4901 33.56 17.1401 33.58 16.7901C33.62 16.2001 34.01 15.8101 34.58 15.8001C35.18 15.7801 35.64 16.1701 35.66 16.7801C35.69 17.5201 35.69 18.2701 35.66 19.0101C35.64 19.6101 35.16 20.0301 34.59 20.0101C34.03 20.0001 33.63 19.6001 33.58 19.0201C33.58 18.9801 33.58 18.9301 33.58 18.8901C33.58 18.5401 33.58 18.1901 33.58 17.8401Z" stroke="#F05A28" stroke-width="0.5" stroke-miterlimit="10"/>
<path d="M39.85 43.2C39.5 43.2 39.15 43.21 38.8 43.2C38.18 43.17 37.78 42.74 37.78 42.15C37.78 41.55 38.18 41.12 38.8 41.1C39.52 41.08 40.24 41.08 40.96 41.1C41.57 41.12 41.98 41.55 41.98 42.14C41.98 42.73 41.57 43.16 40.96 43.19C40.59 43.21 40.22 43.19 39.85 43.19V43.2Z" fill="black"/>
<path d="M40.37 47.42C40.17 47.42 39.98 47.44 39.78 47.42C39.21 47.37 38.83 46.94 38.83 46.37C38.83 45.8 39.21 45.37 39.78 45.33C40.17 45.3 40.56 45.31 40.96 45.33C41.57 45.36 41.98 45.79 41.98 46.38C41.98 46.97 41.57 47.39 40.96 47.43C40.76 47.44 40.57 47.43 40.37 47.43V47.42Z" fill="black"/>
<path d="M45.14 50.5699C45.14 51.1699 44.71 51.61 44.13 51.63C43.53 51.65 43.04 51.18 43.04 50.58C43.04 49.97 43.5 49.5199 44.12 49.5299C44.72 49.5399 45.14 49.9699 45.14 50.5699Z" fill="black"/>
<path d="M45.14 37.9298C45.14 38.5298 44.73 38.9698 44.14 38.9898C43.53 39.0098 43.05 38.5498 43.04 37.9498C43.04 37.3398 43.51 36.8798 44.12 36.8898C44.71 36.8998 45.14 37.3298 45.14 37.9298Z" fill="black"/>
<path d="M45.14 42.1201C45.15 42.7501 44.71 43.2101 44.09 43.2001C43.51 43.2001 43.05 42.7501 43.04 42.1801C43.02 41.5701 43.49 41.1001 44.1 41.1001C44.7 41.1001 45.13 41.5201 45.14 42.1201Z" fill="black"/>
<path d="M45.14 46.38C45.13 46.98 44.69 47.41 44.1 47.41C43.49 47.41 43.02 46.93 43.03 46.33C43.04 45.72 43.52 45.28 44.14 45.31C44.73 45.33 45.14 45.78 45.13 46.38H45.14Z" fill="black"/>
</g>
<defs>
<clipPath id="clip0_9_5527">
<rect width="54.58" height="67.44" fill="white"/>
</clipPath>
</defs>
</svg>
