<?xml version="1.0" encoding="UTF-8"?>
<svg id="Layer_1" data-name="Layer 1" xmlns="http://www.w3.org/2000/svg" xmlns:xlink="http://www.w3.org/1999/xlink" version="1.1" viewBox="0 0 1500 1500">
  <defs>
    <style>
      .cls-1 {
        fill: #4d4d4d;
      }

      .cls-1, .cls-2, .cls-3, .cls-4, .cls-5, .cls-6, .cls-7, .cls-8, .cls-9, .cls-10, .cls-11 {
        stroke-width: 0px;
      }

      .cls-2 {
        fill: url(#linear-gradient);
      }

      .cls-3 {
        fill: #969696;
        isolation: isolate;
        opacity: .6;
      }

      .cls-4 {
        fill: url(#linear-gradient-4);
      }

      .cls-5 {
        fill: url(#linear-gradient-2);
      }

      .cls-6 {
        fill: url(#linear-gradient-3);
      }

      .cls-7 {
        fill: url(#linear-gradient-8);
      }

      .cls-8 {
        fill: url(#linear-gradient-9);
      }

      .cls-9 {
        fill: url(#linear-gradient-7);
      }

      .cls-10 {
        fill: url(#linear-gradient-5);
      }

      .cls-11 {
        fill: url(#linear-gradient-6);
      }
    </style>
    <linearGradient id="linear-gradient" x1="749.8" y1="750.6" x2="749.8" y2="1429.3" gradientUnits="userSpaceOnUse">
      <stop offset="0" stop-color="#58595b"/>
      <stop offset=".4" stop-color="#555658"/>
      <stop offset=".7" stop-color="#4d4d4f"/>
      <stop offset=".9" stop-color="#3f3f40"/>
      <stop offset="1" stop-color="#3b3b3c"/>
    </linearGradient>
    <linearGradient id="linear-gradient-2" x1="749.8" y1="750.6" x2="1229.7" y2="1230.5" gradientUnits="userSpaceOnUse">
      <stop offset="0" stop-color="#d1d3d4"/>
      <stop offset=".3" stop-color="#ced0d1"/>
      <stop offset=".4" stop-color="#c5c7c8"/>
      <stop offset=".6" stop-color="#b6b8b9"/>
      <stop offset=".7" stop-color="#a1a2a4"/>
      <stop offset=".9" stop-color="#858788"/>
      <stop offset="1" stop-color="#646567"/>
      <stop offset="1" stop-color="#616264"/>
    </linearGradient>
    <linearGradient id="linear-gradient-3" x1="749.6" y1="750.6" x2="1428.3" y2="750.6" gradientUnits="userSpaceOnUse">
      <stop offset="0" stop-color="#58595b"/>
      <stop offset=".5" stop-color="#555658"/>
      <stop offset=".8" stop-color="#4d4d4f"/>
      <stop offset="1" stop-color="#414042"/>
    </linearGradient>
    <linearGradient id="linear-gradient-4" x1="496.7" y1="604.8" x2="860.9" y2="-25.9" xlink:href="#linear-gradient-3"/>
    <linearGradient id="linear-gradient-5" x1="749.3" y1="750.5" x2="70.6" y2="750.5" xlink:href="#linear-gradient-3"/>
    <linearGradient id="linear-gradient-6" x1="750.1" y1="750.2" x2="269.5" y2="1230.7" xlink:href="#linear-gradient-2"/>
    <linearGradient id="linear-gradient-7" x1="749.1" y1="751" x2="1229.6" y2="270.5" xlink:href="#linear-gradient-2"/>
    <linearGradient id="linear-gradient-8" x1="749.9" y1="751.1" x2="269.4" y2="270.5" xlink:href="#linear-gradient-2"/>
    <linearGradient id="linear-gradient-9" x1="771.8" y1="795.1" x2="728.8" y2="698.5" gradientTransform="translate(0 1500) scale(1 -1)" gradientUnits="userSpaceOnUse">
      <stop offset="0" stop-color="#878889"/>
      <stop offset="1" stop-color="#464848"/>
    </linearGradient>
  </defs>
  <path class="cls-1" d="M1023.6,78.5l10.1-20.6s.8-1.8,2.8-1c0,0,1.7.8,1,2.6l-7.5,22.4-6.5-3.5h0Z"/>
  <path class="cls-1" d="M469.5,83.7l-7.4-21.7s-.7-1.8,1.3-2.7c0,0,1.8-.7,2.5,1.1l10.6,21.1-7,2.1h0Z"/>
  <path class="cls-1" d="M78,476.7l-20.6-10s-1.8-.8-1-2.8c0,0,.8-1.7,2.5-1l22.5,7.3-3.4,6.5Z"/>
  <path class="cls-1" d="M82.7,1029.8l-21,9.1s-1.8.9-2.8-1.1c0,0-.8-1.7.9-2.6l20.2-12.2,2.7,6.8Z"/>
  <path class="cls-1" d="M476.3,1420.2l-10.1,20.6s-.8,1.8-2.8,1c0,0-1.7-.8-1-2.6l7.5-22.4,6.5,3.5h-.1Z"/>
  <path class="cls-1" d="M1029.4,1417.8l7.2,21.8s.7,1.8-1.3,2.7c0,0-1.8.6-2.5-1.1l-10.4-21.2,7-2.1h0Z"/>
  <path class="cls-1" d="M1420.9,1024.6l20.6,10.1s1.8.8,1,2.8c0,0-.8,1.7-2.6,1l-22.4-7.5,3.5-6.5h0Z"/>
  <path class="cls-2" d="M468.7,1429.3l281.1-678.7,281.1,678.7s-75.5-19.7-281.1-19.7-281.1,19.7-281.1,19.7h0Z"/>
  <path class="cls-1" d="M1419.2,469.6l21.7-7.3s1.8-.7,2.7,1.3c0,0,.6,1.8-1.1,2.5l-21.2,10.5-2.1-7Z"/>
  <path class="cls-5" d="M1030.9,1429.3l-281.1-678.7,678.7,281.1s-67.3,39.4-212.7,184.8c-145.4,145.4-184.8,212.7-184.8,212.7h0Z"/>
  <path class="cls-6" d="M1428.3,469.5l-678.7,281.1,678.7,281.1s-19.7-75.5-19.7-281.1,19.7-281.1,19.7-281.1h0Z"/>
  <path class="cls-4" d="M468,71.8l281.1,678.7L1030.2,71.8s-75.5,19.7-281.1,19.7-281.1-19.7-281.1-19.7h0Z"/>
  <path class="cls-10" d="M70.6,469.4l678.7,281.1L70.6,1031.7s19.7-75.5,19.7-281.1-19.7-281.1-19.7-281.1h0Z"/>
  <path class="cls-11" d="M70.6,1031.7l679.9-281.1-281.6,678.7s-39.5-67.3-185.2-212.7c-145.7-145.4-213.1-184.8-213.1-184.8h0Z"/>
  <path class="cls-9" d="M1030.3,71.9l-281.6,678.7,679.9-281.1s-67.4-39.4-213.1-184.8c-145.7-145.4-185.2-212.7-185.2-212.7h0Z"/>
  <path class="cls-7" d="M70.5,469.5l679.9,281.1L468.7,71.9s-39.5,67.3-185.2,212.7c-145.7,145.4-213.1,184.8-213.1,184.8h.1Z"/>
  <path class="cls-8" d="M780.1,747.9c0,15.2-12,27.5-26.8,27.5s-27.8-13.2-27.8-28.4,13-26.6,27.8-26.6,26.8,12.3,26.8,27.5Z"/>
  <path class="cls-3" d="M766.9,747.9c0,7.7-6.1,13.9-13.5,13.9s-13.5-6.2-13.5-13.9,6.1-13.9,13.5-13.9,13.5,6.2,13.5,13.9Z"/>
</svg>