<svg width="58" height="54" viewBox="0 0 58 54" fill="none" xmlns="http://www.w3.org/2000/svg">
<g clip-path="url(#clip0_9_5521)">
<path d="M42.85 30.4398C44.55 29.4998 46.14 28.6198 47.74 27.7398C50.41 26.2598 53.08 24.7898 55.76 23.3098C56.97 22.6498 57.93 23.2198 57.93 24.6098C57.93 32.8898 57.93 41.1598 57.93 49.4398C57.93 50.8798 56.99 51.4498 55.74 50.7598C51.66 48.5098 47.58 46.2598 43.5 44.0098C43.31 43.9098 43.12 43.8098 42.85 43.6798C42.85 44.6198 42.85 45.4798 42.85 46.3398C42.84 50.1798 39.93 53.1398 36.11 53.1498C26.3 53.1698 16.49 53.1598 6.69 53.1498C3.02 53.1498 0.129996 50.4098 0.0499962 46.7298C-0.0400038 42.5898 0.0199962 38.4598 0.0199962 34.3198C0.0199962 32.1798 0.0699962 30.0398 0.0099962 27.8998C-0.100004 24.1498 2.82 20.9498 6.93 20.9698C15.21 21.0098 23.49 20.9698 31.77 20.9798C33.48 20.9798 35.19 20.9398 36.89 21.0598C40.17 21.2798 42.81 24.1698 42.86 27.4698C42.87 28.4198 42.86 29.3698 42.86 30.4498L42.85 30.4398ZM21.41 23.6898C16.57 23.6898 11.72 23.6898 6.88 23.6898C6.48 23.6898 6.07 23.6898 5.69 23.7898C3.85 24.2398 2.69 25.7398 2.69 27.6598C2.69 33.8098 2.74 39.9698 2.66 46.1198C2.63 48.4098 4.22 50.4798 6.98 50.4698C16.58 50.4398 26.19 50.4598 35.79 50.4598C38.52 50.4598 40.19 48.7798 40.19 46.0498C40.19 40.0398 40.16 34.0198 40.21 28.0098C40.23 25.2498 38.13 23.6198 35.87 23.6598C31.05 23.7398 26.23 23.6898 21.4 23.6898H21.41ZM55.22 47.4198V26.6798C55.06 26.7498 54.95 26.7898 54.85 26.8398C50.97 28.9898 47.09 31.1298 43.23 33.2998C43.04 33.4098 42.87 33.7198 42.87 33.9498C42.84 35.9898 42.87 38.0198 42.84 40.0598C42.84 40.4598 42.98 40.6598 43.32 40.8498C47.1 42.9298 50.87 45.0298 54.64 47.1198C54.81 47.2098 54.99 47.2998 55.22 47.4198Z" fill="black"/>
<path d="M19.88 9.53002C19.89 4.28002 24.17 -0.00998255 29.39 1.74471e-05C34.61 0.0100174 38.88 4.32002 38.86 9.57002C38.85 14.78 34.58 19.06 29.38 19.08C24.17 19.09 19.87 14.78 19.88 9.53002ZM29.35 16.36C33.12 16.37 36.18 13.33 36.19 9.55002C36.2 5.78002 33.13 2.71002 29.37 2.72002C25.6 2.72002 22.6 5.73002 22.58 9.50002C22.56 13.31 25.56 16.35 29.35 16.36Z" fill="#F05A28"/>
<path d="M16.83 9.61998C16.78 13.49 13.62 16.59 9.79 16.55C5.99 16.5 2.86 13.29 2.92 9.50998C2.98 5.53998 6.12 2.45998 10.03 2.52998C13.84 2.59998 16.9 5.78998 16.84 9.61998H16.83ZM14.16 9.55998C14.16 7.14998 12.22 5.18998 9.85 5.20998C7.51 5.22998 5.6 7.14998 5.58 9.47998C5.57 11.9 7.48 13.85 9.86 13.85C12.22 13.85 14.15 11.93 14.16 9.54998V9.55998Z" fill="#F05A28"/>
</g>
<defs>
<clipPath id="clip0_9_5521">
<rect width="57.93" height="53.15" fill="white"/>
</clipPath>
</defs>
</svg>
