<svg width="70" height="70" viewBox="0 0 70 70" fill="none" xmlns="http://www.w3.org/2000/svg">
<g clip-path="url(#clip0_9_5479)">
<path d="M27.14 10.3398H62.2C66.11 10.3398 69.27 13.5198 69.27 17.4398V55.4498C69.27 59.3698 66.1 62.5498 62.2 62.5498H7.58C3.67 62.5498 0.51 59.3698 0.5 55.4498V17.4398C0.5 13.5198 3.67 10.3398 7.58 10.3398H11.29" stroke="black" stroke-miterlimit="10"/>
<path d="M0.929993 52.4102H68.84" stroke="black" stroke-miterlimit="10"/>
<path d="M22.55 0.120117H16.25V45.9701H22.55V0.120117Z" stroke="#F05A2B" stroke-width="0.25" stroke-miterlimit="10"/>
<path d="M23.13 0.120117L25.71 4.19012V45.5601L22.95 45.9201" stroke="#F05A2B" stroke-width="0.25" stroke-miterlimit="10"/>
<path d="M31.74 17.0098H27.76V45.9698H31.74V17.0098Z" stroke="#F05A2B" stroke-width="0.25" stroke-miterlimit="10"/>
<path d="M43.26 40.8301H37.34V46.4501H43.26V40.8301Z" stroke="#F05A2B" stroke-width="0.25" stroke-miterlimit="10"/>
<path d="M32.1 17.0098L33.73 19.5798V45.1498L31.99 45.9398" stroke="#F05A2B" stroke-width="0.25" stroke-miterlimit="10"/>
<path d="M43.45 40.8301L44.97 41.2801V46.2901L43.53 46.4801" stroke="#F05A2B" stroke-width="0.25" stroke-miterlimit="10"/>
<path d="M47.93 30.4102C50.3932 30.4102 52.39 28.4089 52.39 25.9402C52.39 23.4715 50.3932 21.4702 47.93 21.4702C45.4668 21.4702 43.47 23.4715 43.47 25.9402C43.47 28.4089 45.4668 30.4102 47.93 30.4102Z" stroke="#F05A2B" stroke-width="0.25" stroke-miterlimit="10"/>
<path d="M45.19 66.27H24.57C23.6863 66.27 22.97 66.9864 22.97 67.87V67.89C22.97 68.7737 23.6863 69.49 24.57 69.49H45.19C46.0737 69.49 46.79 68.7737 46.79 67.89V67.87C46.79 66.9864 46.0737 66.27 45.19 66.27Z" stroke="black" stroke-width="0.5" stroke-miterlimit="10"/>
</g>
<defs>
<clipPath id="clip0_9_5479">
<rect width="69.77" height="69.74" fill="white"/>
</clipPath>
</defs>
</svg>
