<svg width="161" height="18" viewBox="0 0 161 18" fill="none" xmlns="http://www.w3.org/2000/svg">
<path d="M102.89 0.149572C104.85 -0.0804282 106.96 0.389569 108.44 1.75957C110.09 3.19957 110.87 5.38957 111.03 7.51957C111.21 9.28957 111.09 11.1096 110.57 12.8196C109.99 14.6996 108.72 16.4696 106.89 17.2896C105.26 17.9896 103.38 18.0396 101.68 17.5996C99.86 17.1296 98.39 15.7296 97.6 14.0496C96.57 11.8796 96.44 9.39957 96.73 7.04957C96.95 5.01957 97.8 2.98957 99.35 1.61957C100.33 0.759569 101.61 0.27957 102.9 0.15957M103 3.17957C101.38 3.48957 100.26 5.00957 99.96 6.56957C99.61 8.35957 99.59 10.2696 100.15 12.0196C100.62 13.4096 101.8 14.6596 103.3 14.8596C104.82 15.1396 106.38 14.2796 107.12 12.9596C107.91 11.5196 108.02 9.80957 107.96 8.19957C107.85 6.80957 107.61 5.29957 106.6 4.24957C105.72 3.24957 104.28 2.86957 103.01 3.16957L103 3.17957Z" fill="white"/>
<path d="M0.5 0.139648C6.53 0.139648 12.55 0.139648 18.57 0.139648C18.55 1.90965 18.61 3.68965 18.54 5.45965C16.8 5.41965 15.06 5.45965 13.32 5.44965C13.32 9.59965 13.32 13.7396 13.32 17.8896C10.8 17.8896 8.29 17.8896 5.77 17.8896C5.75 13.7396 5.77 9.58965 5.77 5.43965C4.01 5.43965 2.26 5.43965 0.5 5.43965C0.5 3.66965 0.5 1.90965 0.5 0.139648Z" fill="white"/>
<path d="M23.71 0.139648C26.32 0.139648 28.94 0.139648 31.55 0.139648C33.98 6.05965 36.42 11.9797 38.83 17.8997C36.4 17.8696 33.96 17.8897 31.53 17.8997C30.24 14.4197 28.98 10.9296 27.68 7.45965C26.36 10.9196 25.16 14.4197 23.89 17.8997C21.48 17.9097 19.07 17.8997 16.67 17.8997C18.99 11.9697 21.37 6.06965 23.71 0.149651V0.139648Z" fill="white"/>
<path d="M37.12 5.45965C37.06 3.68965 37.12 1.90965 37.1 0.139648C43.11 0.149648 49.13 0.139648 55.14 0.139648C55.14 1.90965 55.14 3.66965 55.14 5.43965C53.43 5.43965 51.72 5.43965 50.01 5.43965C50.01 9.58965 50.01 13.7396 50.01 17.8896C47.5 17.8896 44.99 17.8896 42.47 17.8896C42.47 13.7396 42.48 9.58965 42.47 5.43965C40.69 5.45965 38.91 5.41965 37.13 5.45965H37.12Z" fill="white"/>
<path d="M53.24 17.8796C55.61 11.9696 57.94 6.04965 60.3 0.139648C62.91 0.139648 65.52 0.139648 68.13 0.139648C70.57 6.04965 72.98 11.9696 75.42 17.8896C72.98 17.8896 70.53 17.9096 68.09 17.8796C66.83 14.3996 65.54 10.9396 64.27 7.45965C64.2 7.57965 64.14 7.70965 64.09 7.83965C62.88 11.1896 61.68 14.5497 60.47 17.8997C58.06 17.8997 55.65 17.9097 53.23 17.8997L53.24 17.8796Z" fill="white"/>
<path d="M83.28 0.369902C85.88 0.379902 88.49 0.299902 91.09 0.529902C92.57 0.679902 93.78 1.8299 94.31 3.1799C94.82 4.5399 94.85 6.0599 94.54 7.4699C94.18 8.9699 93.11 10.4099 91.56 10.8099C89.84 11.2299 88.06 11.0999 86.3 11.1199C86.3 13.2899 86.3 15.4599 86.3 17.6299C85.29 17.6399 84.28 17.6299 83.27 17.6299V0.369902M86.31 3.3299C86.31 4.9499 86.31 6.5699 86.31 8.1799C87.39 8.1799 88.48 8.1999 89.56 8.1099C90.22 8.0599 90.85 7.7199 91.21 7.1599C91.62 6.5699 91.63 5.8099 91.54 5.1199C91.38 4.2799 90.69 3.4999 89.81 3.4199C88.65 3.2499 87.48 3.3499 86.31 3.3299Z" fill="white"/>
<path d="M111.98 0.369141H115.07C115.84 4.26914 116.51 8.18914 117.32 12.0791C118.23 8.17914 119.12 4.26914 120.04 0.369141H123.63C124.49 4.33914 125.37 8.30914 126.23 12.2891C127.06 8.32914 127.77 4.33914 128.54 0.369141C129.55 0.369141 130.57 0.369141 131.59 0.369141C130.38 6.11914 129.18 11.8791 127.94 17.6291C126.88 17.6291 125.83 17.6291 124.77 17.6291C123.73 13.3591 122.79 9.06914 121.76 4.79914C120.78 9.07914 119.8 13.3491 118.81 17.6291H115.54C114.38 11.8691 113.14 6.12914 111.99 0.369141H111.98Z" fill="white"/>
<path d="M133.1 0.369141C136.81 0.369141 140.52 0.369141 144.23 0.369141V3.32914C141.53 3.32914 138.83 3.32914 136.14 3.32914C136.12 4.58914 136.14 5.84914 136.14 7.10914C138.65 7.10914 141.17 7.10914 143.68 7.10914C143.69 8.07914 143.68 9.03914 143.68 10.0091C141.16 10.0091 138.65 10.0091 136.13 10.0091C136.13 11.5591 136.13 13.1191 136.13 14.6691C138.92 14.6691 141.7 14.6691 144.49 14.6691C144.49 15.6491 144.49 16.6391 144.49 17.6291H133.09V0.369141H133.1Z" fill="white"/>
<path d="M147.04 0.369141C149.12 0.369141 151.2 0.369141 153.28 0.369141C154.59 0.489141 156 0.359142 157.19 1.01914C158.49 1.78914 159.19 3.30914 159.24 4.77914C159.33 6.16914 159.05 7.67914 158.03 8.68914C157.33 9.43914 156.35 9.80914 155.38 10.0191C157.13 11.1391 158.02 13.0991 158.99 14.8491C159.49 15.7791 159.98 16.7091 160.5 17.6291C159.3 17.6291 158.09 17.6291 156.88 17.6291C155.6 15.5391 154.48 13.3391 153.07 11.3391C152.4 10.3591 151.11 10.4091 150.05 10.4091C150.05 12.8191 150.05 15.2191 150.05 17.6291C149.04 17.6291 148.04 17.6291 147.03 17.6291V0.369141M150.06 3.32914C150.06 4.77914 150.06 6.21914 150.06 7.66914C151.63 7.62914 153.21 7.76914 154.77 7.52914C155.97 7.28914 156.37 5.80914 156.06 4.76914C155.91 3.93914 155.1 3.37914 154.29 3.36914C152.88 3.29914 151.47 3.34914 150.06 3.33914V3.32914Z" fill="white"/>
</svg>
