<svg width="161" height="110" viewBox="0 0 161 110" fill="none" xmlns="http://www.w3.org/2000/svg">
<path d="M39.7624 38.6279H6.89999V71.3713H39.7624V38.6279Z" fill="white"/>
<path d="M24.4996 67.192C18.124 67.192 12.88 62.3428 12.328 56.1278H14.7844V54.3037H12.282C12.65 47.9053 17.986 42.8178 24.4996 42.8178C28.4924 42.8178 32.062 44.7337 34.2884 47.6945L36.8368 47.0895C34.2148 43.047 29.67 40.3887 24.4996 40.3887C16.3852 40.3887 9.81641 46.9245 9.81641 55.0187C9.81641 63.1128 16.376 69.6487 24.4996 69.6487C29.67 69.6487 34.2148 66.972 36.8368 62.9478L34.2884 62.3428C32.062 65.2762 28.4924 67.192 24.4996 67.192Z" fill="#252525"/>
<path d="M34.2884 54.9906C34.2884 49.6098 29.9092 45.2373 24.4996 45.2373C19.09 45.2373 14.7108 49.6006 14.7108 54.9906C14.7108 60.3806 19.09 64.744 24.4996 64.744C25.7784 64.744 27.002 64.4873 28.1152 64.0473L26.864 61.9206V61.8931C26.1188 62.1498 25.3368 62.2873 24.4996 62.2873C20.838 62.2873 17.7928 59.6106 17.2408 56.0906H34.2884V54.9815V54.9906ZM24.4996 47.6848C28.2992 47.6848 31.4364 50.5723 31.8044 54.294H17.1948C17.5628 50.5723 20.7 47.6848 24.4996 47.6848Z" fill="#252525"/>
<path d="M50.0204 60.2888H44.0404V64.4321H49.8548V65.5871H44.0404V69.8955H50.186V71.0596H42.7064V59.1338H50.0204V60.2888Z" fill="white"/>
<path d="M56.8376 59.1338C60.996 59.1338 64.6484 60.793 64.6484 65.1013C64.6484 69.4096 60.9868 71.0688 56.8376 71.0688H52.6792V59.143H56.8376V59.1338ZM54.1788 69.8955H56.8376C59.4964 69.8955 63.158 69.0705 63.158 65.0921C63.158 61.1138 59.6712 60.2888 56.8376 60.2888H54.1788V69.8955Z" fill="white"/>
<path d="M78.6232 65.4222C78.6232 67.0814 78.1264 67.9064 77.6296 68.7314C77.1328 69.5564 75.6332 71.0505 72.8088 71.0505C71.9808 71.0505 69.4876 70.8855 68.1536 68.8964C67.4912 67.9064 67.3256 67.0722 67.3256 65.248V58.7855H68.8252V65.248C68.8252 67.0722 69.1564 67.8972 69.8188 68.5572C70.6468 69.3822 71.8152 69.7122 72.9744 69.7122C74.9708 69.7122 76.13 68.7222 76.636 67.723C77.1328 66.898 77.1328 65.5689 77.1328 65.2389V58.7764H78.6324V65.4039L78.6232 65.4222Z" fill="white"/>
<path d="M92.4232 61.2883C90.9236 60.6283 89.4332 60.1333 87.768 60.1333C84.6124 60.1333 82.2848 62.2875 82.2848 65.1016C82.2848 67.9158 84.6124 69.905 87.768 69.905C89.4332 69.905 91.0892 69.41 92.5888 68.5758V70.07C91.0892 70.73 89.5988 71.225 87.9336 71.225C83.7752 71.225 80.9508 68.4108 80.9508 65.0925C80.9508 61.2791 84.4376 58.96 87.9336 58.96C89.5988 58.96 91.0892 59.29 92.5888 59.95L92.4232 61.2791V61.2883Z" fill="white"/>
<path d="M106.72 71.0596H105.055L103.224 67.2463H97.2348L95.404 71.0596H93.9044L99.7188 59.1338H100.712L106.702 71.0596H106.72ZM100.234 61.123L97.9064 66.0913H102.727L100.234 61.123Z" fill="white"/>
<path d="M118.358 60.2888H113.537V71.0596H112.203V60.2888H107.382V59.1338H118.358V60.2888Z" fill="white"/>
<path d="M122.185 59.1338H120.686V71.0596H122.185V59.1338Z" fill="white"/>
<path d="M125.01 65.0925C125.01 61.9483 127.668 58.96 131.992 58.96C136.316 58.96 138.975 61.7741 138.975 65.0925C138.975 68.7408 135.82 71.225 131.827 71.225C128.165 71.225 125.01 68.5758 125.01 65.0925ZM137.476 64.9275C137.476 62.6083 135.479 60.1241 131.992 60.1241C128.506 60.1241 126.509 62.4433 126.509 65.0925C126.509 68.0716 129.002 69.8958 131.827 69.8958C135.148 69.8958 137.476 67.9066 137.476 64.9275Z" fill="white"/>
<path d="M154.1 71.0596H152.766L143.456 61.123V71.0596H141.965V59.1338H143.29L152.6 68.9055V59.1338H154.1V71.0596Z" fill="white"/>
<path d="M84.916 41.882H75.3388V38.9854H86.1764C88.6144 38.9854 89.792 40.4704 89.792 43.4495V44.9345C89.792 47.8312 88.6144 49.3162 86.1764 49.3162H77.3812V56.6679H75.3388V46.337H86.3328C87.2712 46.337 87.6668 45.6312 87.7496 44.1462C87.7496 42.6612 87.2804 41.8729 86.3328 41.8729H84.916V41.882Z" fill="white"/>
<path d="M105.809 53.7716V56.7416H94.9716C92.5336 56.7416 91.356 55.2566 91.356 52.3599V38.9766H93.3984V50.7924C93.3984 52.7449 94.2632 53.7624 95.9928 53.7624H105.809V53.7716Z" fill="white"/>
<path d="M114.678 38.9854C119.545 38.9854 121.983 41.9554 121.983 47.8312C121.983 53.707 119.545 56.677 114.761 56.7504C109.968 56.7504 107.539 53.7804 107.539 47.9045C107.539 42.0287 109.894 38.9854 114.687 38.9854M119.858 47.822C119.858 43.9079 118.128 41.9554 114.678 41.9554C111.228 41.9554 109.498 43.9079 109.498 47.822C109.498 51.7362 111.228 53.7712 114.678 53.7712C118.137 53.7712 119.858 51.7362 119.858 47.822Z" fill="white"/>
<path d="M133.133 41.882H123.473V38.9854H134.311C136.749 38.9854 137.926 40.4704 137.926 43.4495V44.9345C137.926 47.8312 136.749 49.3162 134.311 49.3162H127.797L137.853 56.6679H133.538L123.565 49.3162V46.3462H134.559C135.498 46.3462 135.893 45.6404 135.976 44.1554C135.976 42.6704 135.507 41.882 134.559 41.882H133.142H133.133Z" fill="white"/>
<path d="M154.1 41.9554H139.647V38.9854H154.1V41.9554ZM154.1 49.3162H139.647V46.3462H154.1V49.3162ZM154.1 56.6679H139.647V53.6979H154.1V56.6679Z" fill="white"/>
<path d="M118.294 49.3161V46.3369H111.302L111.219 49.3161H118.294Z" fill="white"/>
<path d="M84.916 41.882H75.3388V38.9854H86.1764C88.6144 38.9854 89.792 40.4704 89.792 43.4495V44.9345C89.792 47.8312 88.6144 49.3162 86.1764 49.3162H77.3812V56.6679H75.3388V46.337H86.3328C87.2712 46.337 87.6668 45.6312 87.7496 44.1462C87.7496 42.6612 87.2804 41.8729 86.3328 41.8729H84.916V41.882Z" fill="white"/>
<path d="M105.809 53.7716V56.7416H94.9716C92.5336 56.7416 91.356 55.2566 91.356 52.3599V38.9766H93.3984V50.7924C93.3984 52.7449 94.2632 53.7624 95.9928 53.7624H105.809V53.7716Z" fill="white"/>
<path d="M114.678 38.9854C119.545 38.9854 121.983 41.9554 121.983 47.8312C121.983 53.707 119.545 56.677 114.761 56.7504C109.968 56.7504 107.539 53.7804 107.539 47.9045C107.539 42.0287 109.894 38.9854 114.687 38.9854M119.858 47.822C119.858 43.9079 118.128 41.9554 114.678 41.9554C111.228 41.9554 109.498 43.9079 109.498 47.822C109.498 51.7362 111.228 53.7712 114.678 53.7712C118.137 53.7712 119.858 51.7362 119.858 47.822Z" fill="white"/>
<path d="M133.133 41.882H123.473V38.9854H134.311C136.749 38.9854 137.926 40.4704 137.926 43.4495V44.9345C137.926 47.8312 136.749 49.3162 134.311 49.3162H127.797L137.853 56.6679H133.538L123.565 49.3162V46.3462H134.559C135.498 46.3462 135.893 45.6404 135.976 44.1554C135.976 42.6704 135.507 41.882 134.559 41.882H133.142H133.133Z" fill="white"/>
<path d="M154.1 41.9554H139.647V38.9854H154.1V41.9554ZM154.1 49.3162H139.647V46.3462H154.1V49.3162ZM154.1 56.6679H139.647V53.6979H154.1V56.6679Z" fill="white"/>
<path d="M67.482 50.8014L71.6404 56.6681H73.6828L68.586 49.3164L67.482 50.8014Z" fill="white"/>
<path d="M65.4396 44.852L61.3548 38.9854H59.2388L64.4184 46.337L65.4396 44.852Z" fill="white"/>
<path d="M71.5668 38.9854L59.2388 56.6679H61.2812L73.6828 38.9854H71.5668Z" fill="white"/>
<path d="M44.712 56.6679H57.592V53.7712H44.712V49.3162H57.592V46.337H44.712V41.882H57.592V38.9854H42.826V56.6679H44.712Z" fill="white"/>
</svg>
