<svg width="175" height="120" viewBox="0 0 175 120" fill="none" xmlns="http://www.w3.org/2000/svg">
<path d="M17.01 38.5996H56.74V54.5896C56.74 54.5896 51.11 55.7396 42.93 56.4096C42.93 56.4096 41.84 53.3796 38.93 52.8396L38.63 46.2996H34.88L34.76 52.7796C34.76 52.7796 31.79 53.3896 30.82 56.4096L17.01 54.5896V38.5996Z" fill="white"/>
<path d="M56.61 59.6098C56.61 59.6098 55.4 60.0898 53.22 60.6398C53.34 60.9998 53.4 61.3698 53.4 61.7898C53.4 63.8498 51.7 65.5398 49.65 65.5398C47.6 65.5398 46.02 63.9698 45.9 61.9698C44.87 62.0898 43.84 62.2098 42.69 62.2698C41.66 64.4498 39.48 65.8998 36.94 65.8998C34.4 65.8998 32.1 64.3298 31.13 62.1498C30.1 62.0298 29.01 61.9698 27.92 61.7898C27.86 63.8498 26.22 65.4798 24.17 65.4798C22.12 65.4798 20.42 63.7798 20.42 61.7298C20.42 61.3098 20.48 60.8798 20.66 60.4598C19.51 60.2198 18.36 59.9098 17.15 59.5498C17.15 59.5498 17.03 69.9698 25.63 75.7198C25.63 75.7198 27.63 77.4198 35.99 81.0498C35.99 81.0498 36.96 81.8398 38.29 81.0498C38.29 81.0498 42.35 79.4098 47.8 76.2698C47.62 76.3298 56.82 71.3598 56.64 59.6198L56.61 59.6098Z" fill="white"/>
<path d="M50.25 59.7298C59.76 57.8498 64.97 55.7298 64.97 55.7298L64.49 54.1598C54.98 57.0698 42.99 57.7298 42.08 57.7898C41.53 55.7298 39.78 54.1598 37.6 53.9098H37.66L37.54 47.5498H36.27L36.09 53.9098H36.15C34.03 54.2098 32.33 55.7298 31.73 57.7898C30.94 57.7298 18.83 57.1198 9.26 54.1598L8.78 55.7298C8.78 55.7298 14.05 57.8498 23.5 59.7298C22.53 59.9698 21.8 60.8798 21.8 61.9098C21.8 63.1798 22.83 64.2098 24.1 64.2098C25.37 64.2098 26.4 63.1798 26.4 61.9098C26.4 61.1198 26.04 60.4598 25.43 60.0298C27.43 60.3898 29.61 60.7598 31.97 61.0598C32.76 63.0598 34.7 64.5098 36.94 64.5098C39.18 64.5098 41.18 63.1198 41.91 61.0598C44.21 60.7598 46.39 60.3898 48.39 60.0298C47.84 60.4498 47.42 61.1198 47.42 61.8498C47.42 63.1198 48.45 64.1498 49.72 64.1498C50.99 64.1498 52.02 63.1198 52.02 61.8498C51.96 60.8798 51.23 59.9698 50.26 59.7298H50.25Z" fill="white"/>
<path d="M87.86 68.2701H86.04V73.3002H85.62V68.2701H83.74V67.9102H87.92V68.2701H87.86Z" fill="white"/>
<path d="M89.26 70.8196V73.2396H88.84V67.8496H90.66C91.27 67.8496 91.69 67.9696 91.99 68.2096C92.29 68.4496 92.47 68.8196 92.47 69.2996C92.47 69.5996 92.41 69.8496 92.23 70.0896C92.05 70.3296 91.81 70.4496 91.5 70.5696C91.8 70.6296 92.05 70.8096 92.23 70.9896C92.35 71.2296 92.47 71.4696 92.47 71.7796V72.2596C92.47 72.4396 92.47 72.5596 92.53 72.6796C92.59 72.7996 92.65 72.9196 92.71 72.9796V73.0396H92.29C92.17 72.9796 92.11 72.7996 92.11 72.6796C92.05 72.4996 92.05 72.3796 92.05 72.1996V71.7196C92.05 71.4196 91.93 71.1096 91.75 70.9296C91.57 70.7496 91.27 70.6296 90.84 70.6296H89.27V70.8096L89.26 70.8196ZM89.26 70.4496H90.53C91.01 70.4496 91.38 70.3296 91.62 70.1496C91.86 69.9696 91.98 69.6696 91.98 69.3596C91.98 68.9996 91.86 68.7496 91.62 68.5096C91.38 68.3296 91.07 68.2096 90.59 68.2096H89.26V70.4496Z" fill="white"/>
<path d="M96.77 71.7902H94.41L93.86 73.3002H93.38L95.38 67.9102H95.8L97.74 73.3002H97.26L96.78 71.7902H96.77ZM94.53 71.3602H96.59L95.56 68.5102L94.53 71.3602Z" fill="white"/>
<path d="M99.31 73.2396H98.89V67.8496H99.31V73.2396Z" fill="white"/>
<path d="M104.94 73.2396H104.52L101.43 68.6396V73.2396H101.01V67.8496H101.43L104.52 72.4496V67.8496H104.94V73.2396Z" fill="white"/>
<path d="M107 73.2396H106.58V67.8496H107V73.2396Z" fill="white"/>
<path d="M112.63 73.2396H112.21L109.12 68.6396V73.2396H108.7V67.8496H109.12L112.21 72.4496V67.8496H112.63V73.2396Z" fill="white"/>
<path d="M117.96 72.5701C117.84 72.7501 117.6 72.9301 117.29 73.1201C116.99 73.3001 116.56 73.3601 116.08 73.3601C115.47 73.3601 114.93 73.1201 114.57 72.6901C114.15 72.2701 113.96 71.7201 113.96 71.0501V70.0801C113.96 69.4101 114.14 68.8701 114.51 68.4401C114.87 68.0201 115.36 67.8301 115.96 67.8301C116.56 67.8301 116.99 68.0101 117.35 68.3101C117.71 68.6101 117.83 69.0401 117.83 69.4601H117.41C117.41 69.1001 117.29 68.7901 117.05 68.5501C116.81 68.3101 116.44 68.1901 115.96 68.1901C115.48 68.1901 115.11 68.3701 114.81 68.7401C114.51 69.1001 114.39 69.5301 114.39 70.0701V71.0401C114.39 71.5901 114.57 72.0701 114.87 72.4301C115.17 72.7901 115.6 72.9801 116.08 72.9801C116.44 72.9801 116.75 72.9201 116.99 72.8001C117.23 72.6801 117.41 72.5601 117.47 72.3801V70.9901H116.02V70.6301H117.9V72.5701H117.96Z" fill="white"/>
<path d="M124.56 71.97C124.56 71.67 124.44 71.49 124.26 71.3C124.02 71.12 123.65 70.94 123.17 70.82C122.62 70.64 122.14 70.46 121.84 70.21C121.54 69.96 121.42 69.66 121.42 69.24C121.42 68.82 121.6 68.51 121.9 68.21C122.26 67.97 122.69 67.79 123.17 67.79C123.72 67.79 124.14 67.91 124.5 68.21C124.8 68.51 124.98 68.88 124.98 69.36H124.56C124.56 69 124.44 68.69 124.2 68.45C123.96 68.21 123.59 68.09 123.23 68.09C122.81 68.09 122.5 68.21 122.26 68.39C122.02 68.57 121.9 68.81 121.9 69.12C121.9 69.43 122.02 69.6 122.2 69.79C122.44 69.97 122.81 70.15 123.35 70.27C123.9 70.45 124.38 70.63 124.62 70.88C124.92 71.12 125.04 71.43 125.04 71.85C125.04 72.27 124.86 72.58 124.49 72.88C124.13 73.12 123.7 73.24 123.16 73.24C122.62 73.24 122.19 73.12 121.77 72.82C121.35 72.58 121.16 72.15 121.22 71.61H121.64C121.64 72.03 121.82 72.34 122.12 72.52C122.42 72.7 122.79 72.82 123.21 72.82C123.63 72.82 123.94 72.7 124.24 72.52C124.36 72.52 124.54 72.28 124.54 71.97H124.56Z" fill="white"/>
<path d="M129.11 70.6396H126.69V72.8796H129.48V73.2396H126.27V67.8496H129.48V68.2096H126.69V70.2096H129.11V70.6296V70.6396Z" fill="white"/>
<path d="M130.98 70.8196V73.2396H130.56V67.8496H132.38C132.99 67.8496 133.41 67.9696 133.71 68.2096C134.01 68.4496 134.19 68.8196 134.19 69.2996C134.19 69.5996 134.13 69.8496 133.95 70.0896C133.77 70.3296 133.53 70.4496 133.22 70.5696C133.52 70.6296 133.77 70.8096 133.95 70.9896C134.07 71.2296 134.19 71.4696 134.19 71.7796V72.2596C134.19 72.4396 134.19 72.5596 134.25 72.6796C134.31 72.7996 134.37 72.9196 134.43 72.9796V73.0396H134.01C133.89 72.9796 133.83 72.7996 133.83 72.6796C133.77 72.4996 133.77 72.3796 133.77 72.1996V71.7196C133.77 71.4196 133.65 71.1096 133.47 70.9296C133.23 70.7496 132.99 70.6296 132.56 70.6296H130.99V70.8096L130.98 70.8196ZM130.98 70.4496H132.25C132.73 70.4496 133.1 70.3296 133.34 70.1496C133.58 69.9696 133.7 69.6696 133.7 69.3596C133.7 68.9996 133.58 68.7496 133.34 68.5096C133.1 68.3296 132.79 68.2096 132.31 68.2096H130.98V70.4496Z" fill="white"/>
<path d="M137.1 72.3302L137.22 72.6902L137.34 72.3302L138.98 67.9102H139.46L137.46 73.3002H137.04L135.04 67.9102H135.52L137.09 72.3302H137.1Z" fill="white"/>
<path d="M140.92 73.2396H140.5V67.8496H140.92V73.2396Z" fill="white"/>
<path d="M146.31 71.5998C146.31 72.1498 146.13 72.5698 145.83 72.8698C145.47 73.1698 144.98 73.3498 144.44 73.3498C143.83 73.3498 143.35 73.1098 142.99 72.6798C142.63 72.2598 142.44 71.7098 142.44 70.9798V70.1298C142.44 69.4598 142.62 68.8598 142.99 68.4298C143.35 68.0098 143.84 67.7598 144.44 67.7598C145.04 67.7598 145.47 67.9398 145.83 68.2398C146.19 68.5398 146.38 68.9698 146.31 69.5098H145.89C145.89 69.0898 145.77 68.7198 145.47 68.4798C145.23 68.2398 144.86 68.1198 144.38 68.1198C143.9 68.1198 143.53 68.2998 143.23 68.6698C142.93 69.0298 142.81 69.5198 142.81 70.0598V70.9698C142.81 71.5798 142.93 71.9998 143.23 72.3598C143.53 72.7198 143.9 72.9098 144.38 72.9098C144.86 72.9098 145.23 72.7898 145.47 72.5498C145.71 72.3098 145.89 71.9398 145.89 71.5198H146.31V71.5798V71.5998Z" fill="white"/>
<path d="M150.42 70.6396H148V72.8796H150.79V73.2396H147.58V67.8496H150.79V68.2096H148V70.2096H150.42V70.6296V70.6396Z" fill="white"/>
<path d="M154.97 71.97C154.97 71.67 154.85 71.49 154.67 71.3C154.43 71.12 154.06 70.94 153.58 70.82C153.03 70.64 152.55 70.46 152.25 70.21C151.95 69.96 151.83 69.66 151.83 69.24C151.83 68.82 152.01 68.51 152.31 68.21C152.67 67.97 153.1 67.79 153.58 67.79C154.13 67.79 154.55 67.91 154.91 68.21C155.21 68.51 155.39 68.88 155.39 69.36H154.97C154.97 69 154.85 68.69 154.61 68.45C154.37 68.21 154 68.09 153.64 68.09C153.22 68.09 152.91 68.21 152.67 68.39C152.43 68.57 152.31 68.81 152.31 69.12C152.31 69.43 152.43 69.6 152.61 69.79C152.85 69.97 153.22 70.15 153.76 70.27C154.31 70.45 154.79 70.63 155.03 70.88C155.33 71.12 155.45 71.43 155.45 71.85C155.45 72.27 155.27 72.58 154.9 72.88C154.54 73.12 154.11 73.24 153.57 73.24C153.03 73.24 152.6 73.12 152.18 72.82C151.76 72.58 151.57 72.15 151.63 71.61H152.05C152.05 72.03 152.23 72.34 152.53 72.52C152.83 72.7 153.2 72.82 153.62 72.82C154.04 72.82 154.35 72.7 154.65 72.52C154.83 72.52 154.95 72.28 154.95 71.97H154.97Z" fill="white"/>
<path d="M71.33 52.71H73.39V63.01H71.33V52.71Z" fill="white"/>
<path d="M75.45 52.71H77.81L81.08 60.4L84.35 52.71H86.71V63.01H84.65V56.35L81.86 63.07H80.29L77.5 56.35V63.07H75.44V52.71H75.45Z" fill="white"/>
<path d="M88.77 52.71H91.13L94.4 60.4L97.67 52.71H100.03V63.01H97.97V56.35L95.18 63.07H93.61L90.82 56.35V63.07H88.76V52.71H88.77Z" fill="white"/>
<path d="M117.42 52.5898C119.72 52.5898 121.6 53.7998 122.26 55.9198H119.9C119.42 54.9498 118.51 54.4698 117.42 54.4698C115.6 54.4698 114.33 55.7998 114.33 57.8598C114.33 59.9198 115.6 61.2498 117.42 61.2498C118.51 61.2498 119.42 60.7698 119.9 59.7398H122.26C121.59 61.8598 119.72 63.0698 117.42 63.0698C114.45 63.0698 112.21 60.8898 112.21 57.7998C112.15 54.7698 114.39 52.5898 117.42 52.5898Z" fill="white"/>
<path d="M123.96 52.71H126.02V59.13C126.02 60.52 126.81 61.31 128.08 61.31C129.35 61.31 130.2 60.58 130.2 59.13V52.71H132.26V59.07C132.26 61.8 130.32 63.13 128.02 63.13C125.72 63.13 123.9 61.8 123.9 59.07V52.71H123.96Z" fill="white"/>
<path d="M136.37 52.71V61.37H141.03V63.01H134.31V52.71H136.37Z" fill="white"/>
<path d="M151.15 52.71H158.72V54.41H155.99V63.07H153.93V54.41H151.2V52.71H151.14H151.15Z" fill="white"/>
<path d="M166.23 54.4H162.29V57H165.74V58.64H162.29V61.37H166.23V63.07H160.23V52.71H166.23V54.41V54.4Z" fill="white"/>
<path d="M146.61 52.71H144.19L140.49 63.07H142.67L143.34 61.07L143.88 59.43L145.4 55.07L146.91 59.43L147.46 61.07L148.12 63.07H150.3L146.61 52.71Z" fill="white"/>
<path d="M107.55 52.71H105.12L101.43 63.07H103.61L104.28 61.07L104.82 59.43L106.33 55.07L107.85 59.43L108.39 61.07L109.06 63.07H111.24L107.55 52.71Z" fill="white"/>
<path d="M78.9 46.5301V47.5001H73.15C72.6 47.5001 72.3 47.3801 72.12 47.1401C71.94 46.9001 71.82 46.4701 71.82 45.7501C71.82 44.9601 71.94 44.4201 72.18 44.1801C72.36 44.0001 72.73 43.8801 73.27 43.8801V44.7901C73.03 44.7901 72.85 44.8501 72.72 44.9701C72.6 45.0901 72.54 45.3301 72.54 45.6401C72.54 45.8801 72.6 46.0601 72.72 46.2501C72.84 46.3701 73.02 46.4301 73.27 46.4301H77.57V43.8301H78.42V46.4301H78.9V46.5501V46.5301ZM74.96 49.0801V48.2901H75.81V49.0801H74.96Z" fill="white"/>
<path d="M81.44 45.9301C81.44 46.4101 81.26 46.8401 80.89 47.0801C80.59 47.3201 80.1 47.4401 79.56 47.4401H78.59V46.4701H79.56C79.92 46.4701 80.17 46.4701 80.23 46.4101C80.41 46.3501 80.47 46.1701 80.47 45.9301V43.8701H81.38V45.9301H81.44ZM79.02 49.0801V48.2901H79.87V49.0801H79.02ZM80.23 49.0801V48.2901H81.08V49.0801H80.23Z" fill="white"/>
<path d="M84.05 47.9898C84.05 48.4098 83.93 48.7798 83.69 48.9598C83.45 49.1398 83.02 49.2598 82.48 49.2598C82.18 49.2598 82 49.2598 81.75 49.1998V48.3498H81.81C81.93 48.4098 82.11 48.4098 82.48 48.4098C82.72 48.4098 82.9 48.3498 82.96 48.2298C83.08 48.1098 83.08 47.9298 83.08 47.6798V43.7998H84.05V47.9798V47.9898Z" fill="white"/>
<path d="M88.47 43.9897C89.02 43.9897 89.44 44.1097 89.68 44.3497C89.92 44.5897 90.04 45.0797 90.04 45.7397V45.7997L90.1 46.0997C90.16 46.3397 90.28 46.4597 90.46 46.5197H91.07V47.4897H90.95C90.34 47.4897 89.92 47.3097 89.74 47.0097L89.68 47.0697L89.62 47.1297C89.44 47.3697 88.95 47.4897 88.35 47.4897H84.66V46.5197H88.48C88.78 46.5197 88.96 46.4597 89.09 46.3397C89.22 46.2197 89.27 46.0397 89.27 45.7297C89.27 45.4197 89.21 45.1797 89.09 45.1197C88.97 44.9997 88.79 44.9397 88.48 44.9397H85.45V43.9697H88.48L88.47 43.9897Z" fill="white"/>
<path d="M93.37 45.93C93.37 46.17 93.43 46.35 93.61 46.41C93.67 46.47 93.91 46.47 94.28 46.47H94.34V47.44H94.28C93.67 47.44 93.19 47.26 92.83 46.96C92.47 47.26 92.04 47.44 91.38 47.44H90.65V46.47H91.38C91.74 46.47 91.99 46.47 92.05 46.41C92.23 46.35 92.29 46.17 92.29 45.93V43.87H93.26V45.93H93.38H93.37ZM91.92 43.08V42.29H92.77V43.08H91.92ZM93.07 43.08V42.29H93.92V43.08H93.07Z" fill="white"/>
<path d="M95.86 46.1697C95.86 46.5897 95.74 46.9597 95.5 47.1397C95.26 47.3197 94.83 47.4397 94.29 47.4397H94.11V46.4697H94.23C94.47 46.4697 94.59 46.4097 94.65 46.3497C94.77 46.2897 94.83 46.1097 94.83 45.9297V41.9297H95.8V46.1697H95.86Z" fill="white"/>
<path d="M96.46 47.4997V41.9297H97.43V47.4397H96.46V47.4997Z" fill="white"/>
<path d="M101.01 47.4994C100.53 47.4994 100.16 47.3794 99.98 47.1394C99.8 46.8994 99.68 46.4694 99.68 45.7494C99.68 44.9594 99.8 44.4194 100.04 44.1794C100.22 43.9994 100.59 43.8794 101.13 43.8794V44.7894C100.89 44.7894 100.71 44.8494 100.58 44.9694C100.45 45.0894 100.4 45.3294 100.4 45.6394C100.4 45.8794 100.46 46.0594 100.58 46.2494C100.7 46.3694 100.88 46.4294 101.13 46.4294H105.43V43.8294H106.28V47.3994H101.01V47.5194V47.4994ZM102.28 43.6894V42.8994H103.13V43.6894H102.28ZM103.49 43.6894V42.8994H104.34V43.6894H103.49Z" fill="white"/>
<path d="M107.85 45.9297C107.85 46.1097 107.91 46.2897 108.03 46.3497C108.09 46.4097 108.27 46.4697 108.45 46.4697H108.57V47.4397H108.39C107.84 47.4397 107.42 47.3197 107.18 47.1397C106.94 46.8997 106.82 46.5897 106.82 46.1697V41.9297H107.79V45.9297H107.85Z" fill="white"/>
<path d="M112.45 44.1696C112.75 44.4096 112.93 44.8396 112.93 45.3796V45.8596C112.93 46.4096 112.81 46.8296 112.51 47.0696C112.21 47.3096 111.78 47.4296 111.18 47.4296H110.88C110.46 47.4296 110.15 47.3096 109.91 47.1296L109.85 47.0696L109.73 46.9496C109.55 47.2496 109.12 47.4296 108.52 47.4296H108.4V46.4596H109.01C109.19 46.3996 109.37 46.2796 109.37 46.0396L109.43 45.8596V45.3796C109.43 44.8296 109.55 44.4096 109.85 44.1696C110.15 43.9296 110.58 43.8096 111.18 43.8096C111.78 43.8096 112.21 43.9896 112.45 44.1696ZM110.63 44.8396C110.45 44.9596 110.39 45.1396 110.39 45.4496V45.9296C110.39 46.2296 110.45 46.4096 110.57 46.5396C110.69 46.6696 110.87 46.7196 111.18 46.7196C111.73 46.7196 111.97 46.4796 111.97 45.9296V45.4496C111.97 44.9696 111.73 44.7196 111.18 44.7196C110.94 44.6596 110.76 44.7196 110.63 44.8396Z" fill="white"/>
<path d="M117.36 43.9897C117.91 43.9897 118.33 44.1097 118.57 44.3497C118.81 44.5897 118.93 45.0797 118.93 45.7397V45.7997L118.99 46.0997C119.05 46.3397 119.17 46.4597 119.35 46.5197H119.96V47.4897H119.84C119.23 47.4897 118.81 47.3097 118.63 47.0097L118.57 47.0697L118.51 47.1297C118.33 47.3697 117.84 47.4897 117.24 47.4897H113.55V46.5197H117.37C117.67 46.5197 117.85 46.4597 117.98 46.3397C118.11 46.2197 118.16 46.0397 118.16 45.7297C118.16 45.4197 118.1 45.1797 117.98 45.1197C117.86 44.9997 117.68 44.9397 117.37 44.9397H114.34V43.9697H117.37L117.36 43.9897Z" fill="white"/>
<path d="M123.41 44.29C123.83 44.35 124.14 44.47 124.32 44.71C124.44 44.89 124.56 45.19 124.56 45.68L124.62 46.04C124.68 46.28 124.8 46.4 124.98 46.46C125.04 46.46 125.28 46.52 125.59 46.52H125.65V47.49H125.53C124.86 47.49 124.44 47.31 124.26 47.01C124.26 47.07 124.2 47.07 124.2 47.13C123.96 47.37 123.59 47.49 123.05 47.49H119.6V46.52H122.99C123.47 46.52 123.72 46.34 123.72 45.91V45.79C123.72 45.49 123.54 45.31 123.11 45.24L120.2 44.82L120.26 43.85L123.41 44.27V44.29ZM121.54 43.08V42.29H122.39V43.08H121.54Z" fill="white"/>
<path d="M127.11 46.1697C127.11 46.5897 126.99 46.9597 126.75 47.1397C126.51 47.3197 126.08 47.4397 125.54 47.4397H125.36V46.4697H125.48C125.72 46.4697 125.84 46.4097 125.9 46.3497C126.02 46.2897 126.08 46.1097 126.08 45.9297V41.9297H127.05V46.1697H127.11Z" fill="white"/>
<path d="M136.56 46.5294V47.4994H130.81C130.26 47.4994 129.96 47.3794 129.78 47.1394C129.6 46.8994 129.48 46.4694 129.48 45.7494C129.48 44.9594 129.6 44.4194 129.84 44.1794C130.02 43.9994 130.39 43.8794 130.93 43.8794V44.7894C130.69 44.7894 130.51 44.8494 130.38 44.9694C130.25 45.0894 130.2 45.3294 130.2 45.6394C130.2 45.8794 130.26 46.0594 130.38 46.2494C130.5 46.3694 130.68 46.4294 130.93 46.4294H135.23V43.8294H136.08V46.4294H136.56V46.5494V46.5294ZM132.01 43.6894V42.8994H132.86V43.6894H132.01ZM133.22 43.6894V42.8994H134.07V43.6894H133.22Z" fill="white"/>
<path d="M138.8 45.9301C138.8 46.1701 138.86 46.3501 139.04 46.4101C139.1 46.4701 139.34 46.4701 139.71 46.4701H139.77V47.4401H139.71C139.1 47.4401 138.62 47.2601 138.26 46.9601C137.9 47.2601 137.47 47.4401 136.81 47.4401H136.26V46.4701H136.93C137.29 46.4701 137.54 46.4701 137.6 46.4101C137.78 46.3501 137.84 46.1701 137.84 45.9301V43.8701H138.81V45.9301H138.8ZM137.34 49.0801V48.2901H138.19V49.0801H137.34ZM138.55 49.0801V48.2901H139.4V49.0801H138.55Z" fill="white"/>
<path d="M141.28 46.1697C141.28 46.5897 141.16 46.9597 140.92 47.1397C140.68 47.3197 140.25 47.4397 139.71 47.4397H139.53V46.4697H139.65C139.89 46.4697 140.01 46.4097 140.07 46.3497C140.19 46.2897 140.25 46.1097 140.25 45.9297V41.9297H141.22V46.1697H141.28Z" fill="white"/>
<path d="M146 47.4994H145.45V47.9794C145.45 48.4594 145.33 48.8294 145.09 49.0094C144.85 49.1894 143.88 49.4294 143.21 49.4294L142.79 48.5194C143.03 48.5194 144.18 48.4594 144.3 48.3394C144.42 48.2194 144.48 48.0394 144.48 47.7894V47.4294H143.39C142.91 47.4294 142.6 47.3694 142.42 47.1894C141.51 46.4594 141.75 43.8594 143.63 43.8594H145.45V46.4594H146V47.4894V47.4994ZM143.7 44.7094C142.55 44.7094 142.55 46.4694 143.34 46.4694H144.55V44.7094H143.7Z" fill="white"/>
<path d="M148.24 45.9301C148.24 46.1701 148.3 46.3501 148.48 46.4101C148.54 46.4701 148.78 46.4701 149.15 46.4701H149.21V47.4401H149.15C148.54 47.4401 148.06 47.2601 147.7 46.9601C147.34 47.2601 146.91 47.4401 146.25 47.4401H145.58V46.4701H146.25C146.61 46.4701 146.86 46.4701 146.92 46.4101C147.1 46.3501 147.16 46.1701 147.16 45.9301V43.8701H148.13V45.9301H148.25H148.24ZM146.79 49.0801V48.2901H147.64V49.0801H146.79ZM148 49.0801V48.2901H148.85V49.0801H148Z" fill="white"/>
<path d="M151.27 42.9595C150.97 42.9595 150.79 43.0195 150.72 43.0795C150.6 43.1395 150.54 43.2595 150.54 43.4395C150.54 43.5595 150.54 43.6195 150.6 43.7395C150.66 43.7995 150.72 43.9195 150.84 43.9795L152.23 44.8895C152.53 45.0695 152.71 45.2495 152.78 45.3695C152.84 45.4895 152.9 45.7295 152.9 46.0395C152.9 46.5895 152.78 46.9495 152.6 47.1895C152.42 47.4295 152.05 47.5495 151.63 47.5495H149.03V46.5795H151.15C151.63 46.5795 151.82 46.4595 151.82 46.1595C151.82 45.9795 151.82 45.8595 151.76 45.7995C151.76 45.7395 151.64 45.6195 151.58 45.5595L150.37 44.8295C150.01 44.5895 149.76 44.4095 149.7 44.2795C149.58 44.0995 149.52 43.9195 149.52 43.6095C149.52 43.0595 149.64 42.6995 149.82 42.4595C150 42.2195 150.3 42.1595 150.73 42.0995L152.79 41.9795V42.8295L151.28 42.9495L151.27 42.9595Z" fill="white"/>
<path d="M154.42 45.9297C154.42 46.1097 154.48 46.2897 154.6 46.3497C154.66 46.4097 154.84 46.4697 155.02 46.4697H155.14V47.4397H155.02C154.47 47.4397 154.05 47.3197 153.81 47.1397C153.57 46.8997 153.45 46.5897 153.45 46.1697V41.9297H154.42V45.9297Z" fill="white"/>
<path d="M159.02 44.1701C159.32 44.4101 159.5 44.8401 159.5 45.3801V45.8601L159.56 46.0401C159.62 46.2801 159.74 46.4001 159.92 46.4601H160.53V47.4301H160.41C159.8 47.4301 159.38 47.2501 159.2 46.9501C159.16 46.9901 159.12 47.0301 159.08 47.0701C158.9 47.2501 158.53 47.3701 158.05 47.4301H157.44C157.02 47.4301 156.71 47.3101 156.47 47.1301L156.41 47.0701L156.23 47.0101C156.05 47.3101 155.62 47.4901 155.02 47.4901H154.9V46.5201H155.51C155.69 46.4601 155.87 46.3401 155.87 46.1001L155.93 45.9201V45.4401C155.93 44.8901 156.05 44.4701 156.35 44.2301C156.65 43.9901 157.08 43.8701 157.68 43.8701C158.29 43.8701 158.71 43.9901 159.01 44.1701H159.02ZM157.15 44.8401C156.97 44.9601 156.91 45.1401 156.91 45.4501V45.9301C156.91 46.2301 156.97 46.4101 157.09 46.5401C157.21 46.6701 157.39 46.7201 157.7 46.7201C158.25 46.7201 158.49 46.4801 158.49 45.9301V45.4501C158.49 44.9701 158.25 44.7201 157.7 44.7201C157.46 44.6601 157.28 44.7201 157.15 44.8401Z" fill="white"/>
<path d="M163.02 45.9301C163.02 46.4101 162.84 46.8401 162.47 47.0801C162.17 47.3201 161.68 47.4401 161.14 47.4401H160.17V46.4701H161.14C161.5 46.4701 161.75 46.4701 161.81 46.4101C161.99 46.3501 162.05 46.1701 162.05 45.9301V43.8701H162.96V45.9301H163.02ZM160.6 49.0801V48.2901H161.45V49.0801H160.6ZM161.81 49.0801V48.2901H162.66V49.0801H161.81Z" fill="white"/>
<path d="M163.63 47.4997V41.9297H164.6V47.4397H163.63V47.4997Z" fill="white"/>
</svg>
