<svg width="175" height="120" viewBox="0 0 175 120" fill="none" xmlns="http://www.w3.org/2000/svg">
<path d="M14.46 53.5896C15.1 51.1196 16.35 49.1196 18.22 47.5996C20.09 46.0796 22.48 45.3196 25.38 45.3196C27.25 45.3196 28.91 45.7096 30.36 46.4896C31.81 47.2696 33.02 48.3096 33.99 49.6196C34.96 50.9296 35.7 52.4496 36.22 54.1796C36.73 55.9096 36.99 57.7296 36.99 59.6396C36.99 61.6896 36.73 63.5796 36.19 65.3096C35.66 67.0396 34.89 68.5296 33.88 69.7896C32.87 71.0396 31.65 72.0196 30.22 72.7296C28.79 73.4396 27.17 73.7896 25.37 73.7896C22.58 73.7896 20.24 73.0296 18.35 71.5096C16.46 69.9896 15.16 68.0096 14.45 65.5696H14.34V73.1996H13.28V35.3496H14.34V53.5796H14.45L14.46 53.5896ZM15.09 64.6696C15.58 66.2596 16.3 67.6596 17.24 68.8596C18.18 70.0596 19.33 71.0196 20.71 71.7196C22.09 72.4296 23.64 72.7796 25.37 72.7796C27.1 72.7796 28.68 72.4296 30.01 71.7196C31.33 71.0096 32.43 70.0496 33.3 68.8296C34.16 67.6096 34.82 66.2096 35.26 64.6196C35.7 63.0296 35.92 61.3696 35.92 59.6396C35.92 58.0496 35.72 56.4696 35.31 54.8996C34.9 53.3296 34.28 51.9096 33.43 50.6596C32.58 49.4096 31.5 48.3796 30.17 47.5896C28.85 46.7996 27.25 46.3996 25.37 46.3996C22.05 46.3996 19.38 47.5396 17.37 49.8196C15.35 52.0996 14.35 55.3796 14.35 59.6496C14.35 61.4196 14.6 63.0996 15.09 64.6896" fill="white"/>
<path d="M41.17 50.8103C41.63 49.7003 42.29 48.7403 43.16 47.9203C44.02 47.1103 45.08 46.4703 46.34 46.0103C47.59 45.5503 49.07 45.3203 50.77 45.3203C51.97 45.3203 53.11 45.4403 54.19 45.6903C55.27 45.9403 56.21 46.3703 57.03 46.9903C57.84 47.6103 58.5 48.4103 58.99 49.4003C59.48 50.3903 59.75 51.6303 59.78 53.1103V70.4403C59.78 70.9703 59.89 71.3603 60.1 71.6103C60.31 71.8603 60.59 72.0303 60.95 72.1203C61.3 72.2103 61.68 72.2403 62.09 72.2203C62.5 72.2003 62.88 72.1803 63.23 72.1403V73.2003H61.64C60.86 73.2003 60.18 73.0103 59.6 72.6403C59.02 72.2703 58.73 71.5703 58.73 70.5503V67.0003H58.62C58.34 67.8803 57.89 68.7303 57.27 69.5403C56.65 70.3503 55.87 71.0803 54.94 71.7103C54 72.3503 52.93 72.8503 51.73 73.2203C50.53 73.5903 49.22 73.7803 47.81 73.7803C45.05 73.7803 42.84 73.1703 41.18 71.9503C39.52 70.7303 38.69 68.9003 38.69 66.4603C38.69 64.7603 38.96 63.4003 39.51 62.3803C40.06 61.3503 40.77 60.5503 41.66 59.9703C42.54 59.3903 43.55 58.9803 44.68 58.7503C45.81 58.5203 46.94 58.3703 48.07 58.3003C49.94 58.1903 51.55 58.1003 52.89 58.0103C54.23 57.9203 55.34 57.7403 56.2 57.4803C57.06 57.2203 57.7 56.8103 58.11 56.2603C58.52 55.7103 58.72 54.9303 58.72 53.9003C58.72 53.0903 58.65 52.2403 58.51 51.3503C58.37 50.4703 58.02 49.6503 57.48 48.9103C56.93 48.1703 56.13 47.5603 55.07 47.0803C54.01 46.6003 52.58 46.3603 50.78 46.3603C47.92 46.3603 45.69 47.0603 44.1 48.4503C42.51 49.8503 41.63 51.8203 41.45 54.3603H40.39C40.46 53.0903 40.73 51.8903 41.19 50.7803M58.61 57.1903C58.26 57.6903 57.71 58.0703 56.97 58.3303C56.23 58.5903 55.38 58.8003 54.43 58.9403C53.48 59.0803 52.44 59.1703 51.33 59.2003C50.22 59.2403 49.13 59.2903 48.07 59.3603C47.01 59.4303 45.98 59.5603 44.97 59.7603C43.96 59.9603 43.07 60.3103 42.29 60.8203C41.51 61.3303 40.89 62.0403 40.43 62.9403C39.97 63.8403 39.74 65.0203 39.74 66.4703C39.74 67.2503 39.87 68.0203 40.14 68.7703C40.41 69.5303 40.86 70.2003 41.49 70.7903C42.13 71.3703 42.95 71.8503 43.96 72.2203C44.97 72.5903 46.21 72.7803 47.7 72.7803C49.47 72.7803 51.04 72.4803 52.42 71.8803C53.8 71.2803 54.96 70.4903 55.89 69.5203C56.83 68.5503 57.53 67.4303 58.01 66.1503C58.49 64.8803 58.72 63.5703 58.72 62.2303V57.1903H58.61Z" fill="white"/>
<path d="M64.33 35.3496H63.27V73.1996H64.33V35.3496Z" fill="white"/>
<path d="M68.25 50.8103C68.71 49.7003 69.37 48.7403 70.24 47.9203C71.11 47.1103 72.17 46.4703 73.42 46.0103C74.67 45.5503 76.15 45.3203 77.85 45.3203C79.05 45.3203 80.19 45.4403 81.27 45.6903C82.35 45.9403 83.29 46.3703 84.11 46.9903C84.92 47.6103 85.58 48.4103 86.07 49.4003C86.56 50.3903 86.83 51.6303 86.87 53.1103V70.4403C86.87 70.9703 86.98 71.3603 87.19 71.6103C87.4 71.8603 87.68 72.0303 88.04 72.1203C88.39 72.2103 88.77 72.2403 89.18 72.2203C89.59 72.2003 89.96 72.1803 90.32 72.1403V73.2003H88.73C87.95 73.2003 87.27 73.0103 86.69 72.6403C86.11 72.2703 85.82 71.5703 85.82 70.5503V67.0003H85.71C85.43 67.8803 84.98 68.7303 84.36 69.5403C83.74 70.3503 82.96 71.0803 82.03 71.7103C81.09 72.3503 80.02 72.8503 78.82 73.2203C77.62 73.5903 76.31 73.7803 74.9 73.7803C72.14 73.7803 69.93 73.1703 68.27 71.9503C66.61 70.7303 65.78 68.9003 65.78 66.4603C65.78 64.7603 66.05 63.4003 66.6 62.3803C67.15 61.3503 67.86 60.5503 68.75 59.9703C69.63 59.3903 70.64 58.9803 71.77 58.7503C72.9 58.5203 74.03 58.3703 75.16 58.3003C77.03 58.1903 78.64 58.1003 79.98 58.0103C81.32 57.9203 82.43 57.7403 83.29 57.4803C84.15 57.2203 84.79 56.8103 85.2 56.2603C85.61 55.7103 85.81 54.9303 85.81 53.9003C85.81 53.0903 85.74 52.2403 85.6 51.3503C85.46 50.4703 85.11 49.6503 84.57 48.9103C84.02 48.1703 83.22 47.5603 82.16 47.0803C81.1 46.6003 79.67 46.3603 77.87 46.3603C75.01 46.3603 72.78 47.0603 71.19 48.4503C69.6 49.8503 68.72 51.8203 68.54 54.3603H67.48C67.55 53.0903 67.82 51.8903 68.28 50.7803M85.69 57.1903C85.34 57.6903 84.79 58.0703 84.05 58.3303C83.31 58.5903 82.46 58.8003 81.51 58.9403C80.56 59.0803 79.52 59.1703 78.41 59.2003C77.3 59.2403 76.21 59.2903 75.15 59.3603C74.09 59.4303 73.06 59.5603 72.05 59.7603C71.04 59.9603 70.15 60.3103 69.37 60.8203C68.59 61.3303 67.97 62.0403 67.52 62.9403C67.06 63.8403 66.83 65.0203 66.83 66.4703C66.83 67.2503 66.96 68.0203 67.23 68.7703C67.5 69.5303 67.95 70.2003 68.58 70.7903C69.22 71.3703 70.04 71.8503 71.04 72.2203C72.05 72.5903 73.29 72.7803 74.78 72.7803C76.55 72.7803 78.12 72.4803 79.5 71.8803C80.88 71.2803 82.04 70.4903 82.97 69.5203C83.9 68.5503 84.61 67.4303 85.09 66.1503C85.57 64.8803 85.81 63.5703 85.81 62.2303V57.1903H85.7H85.69Z" fill="white"/>
<path d="M91.42 45.9496V52.6796H91.53C91.78 51.6196 92.17 50.6496 92.72 49.7596C93.27 48.8796 93.96 48.0996 94.79 47.4296C95.62 46.7596 96.58 46.2396 97.68 45.8696C98.77 45.4996 99.99 45.3096 101.34 45.3096C102.75 45.3096 104.05 45.5196 105.24 45.9496C106.42 46.3696 107.45 46.9996 108.31 47.8296C109.17 48.6596 109.85 49.6796 110.32 50.8996C110.8 52.1196 111.04 53.5196 111.04 55.1096V73.1796H109.98V55.2596C109.98 53.6696 109.75 52.3196 109.29 51.2096C108.83 50.0996 108.2 49.1796 107.41 48.4496C106.61 47.7296 105.7 47.1996 104.65 46.8596C103.61 46.5296 102.5 46.3596 101.34 46.3596C99.71 46.3596 98.28 46.6696 97.05 47.2896C95.81 47.9096 94.78 48.7396 93.95 49.7796C93.12 50.8196 92.49 52.0296 92.07 53.4096C91.65 54.7896 91.43 56.2396 91.43 57.7596V73.1796H90.37V45.9396H91.43L91.42 45.9496Z" fill="white"/>
<path d="M135.04 68.0296C134.44 69.2496 133.65 70.2796 132.68 71.1296C131.71 71.9796 130.58 72.6296 129.29 73.0896C128 73.5496 126.58 73.7796 125.02 73.7796C123.08 73.7796 121.35 73.4196 119.85 72.6896C118.35 71.9696 117.08 70.9896 116.06 69.7496C115.03 68.5096 114.26 67.0696 113.73 65.4296C113.2 63.7896 112.93 62.0296 112.93 60.1596C112.93 58.1796 113.19 56.2996 113.7 54.5096C114.21 52.7296 114.99 51.1496 116.03 49.7896C117.07 48.4296 118.4 47.3396 120.01 46.5296C121.62 45.7196 123.5 45.3096 125.66 45.3096C126.93 45.3096 128.15 45.4996 129.32 45.8896C130.49 46.2796 131.53 46.8396 132.45 47.5896C133.37 48.3296 134.14 49.2596 134.75 50.3696C135.37 51.4796 135.77 52.7696 135.94 54.2096H134.88C134.67 52.8696 134.28 51.7096 133.71 50.7396C133.14 49.7696 132.45 48.9596 131.64 48.2996C130.83 47.6496 129.91 47.1596 128.88 46.8396C127.85 46.5196 126.78 46.3596 125.65 46.3596C123.49 46.3596 121.67 46.7796 120.17 47.6096C118.67 48.4396 117.47 49.5196 116.56 50.8396C115.66 52.1696 115 53.6496 114.6 55.2896C114.19 56.9296 113.99 58.5496 113.99 60.1396C113.99 61.7296 114.23 63.3896 114.71 64.9096C115.19 66.4296 115.88 67.7696 116.8 68.9396C117.72 70.1096 118.87 71.0296 120.25 71.7196C121.63 72.4096 123.22 72.7496 125.02 72.7496C126.36 72.7496 127.62 72.5496 128.78 72.1396C129.95 71.7296 130.98 71.1396 131.88 70.3596C132.78 69.5796 133.51 68.6596 134.08 67.5796C134.64 66.4996 134.98 65.2696 135.09 63.8996H136.15C136.01 65.4196 135.64 66.7896 135.04 68.0096" fill="white"/>
<path d="M139.52 64.9003C139.93 66.4703 140.55 67.8403 141.4 69.0103C142.25 70.1803 143.34 71.0903 144.69 71.7703C146.03 72.4403 147.68 72.7803 149.62 72.7803C152.48 72.7803 154.86 72.0303 156.75 70.5303C158.64 69.0303 159.82 66.7803 160.28 63.7703H161.34C160.95 66.9503 159.7 69.4103 157.58 71.1603C155.46 72.9103 152.85 73.7803 149.74 73.7803C147.62 73.8103 145.81 73.4803 144.31 72.7703C142.81 72.0603 141.58 71.0703 140.63 69.7803C139.68 68.4903 138.97 66.9703 138.51 65.2203C138.05 63.4703 137.82 61.5903 137.82 59.5703C137.82 57.3103 138.16 55.3003 138.83 53.5303C139.5 51.7603 140.38 50.2703 141.48 49.0503C142.58 47.8303 143.85 46.9003 145.3 46.2703C146.75 45.6303 148.23 45.3203 149.75 45.3203C151.87 45.3203 153.7 45.7303 155.24 46.5403C156.78 47.3503 158.03 48.4303 159 49.7703C159.97 51.1203 160.68 52.6503 161.12 54.3803C161.56 56.1103 161.75 57.9103 161.68 59.7903H138.89C138.92 61.6303 139.15 63.3303 139.55 64.9003M159.9 53.9903C159.44 52.4903 158.76 51.1703 157.86 50.0403C156.96 48.9103 155.84 48.0203 154.49 47.3603C153.15 46.7103 151.59 46.3803 149.83 46.3803C148.35 46.3803 146.96 46.6603 145.67 47.2303C144.38 47.8003 143.25 48.6203 142.28 49.6903C141.31 50.7703 140.52 52.0703 139.92 53.5903C139.32 55.1103 138.97 56.8203 138.86 58.7303H160.59C160.59 57.0703 160.36 55.4903 159.9 53.9903Z" fill="white"/>
<path d="M59.25 82.7904L58.67 84.5604H57.92L59.83 78.9404H60.71L62.63 84.5604H61.85L61.25 82.7904H59.26H59.25ZM61.09 82.2204L60.54 80.6004C60.41 80.2304 60.33 79.9004 60.25 79.5704H60.23C60.15 79.9004 60.05 80.2504 59.95 80.5904L59.4 82.2204H61.09Z" fill="white"/>
<path d="M64.38 84.5497V82.1697L62.6 78.9297H63.43L64.22 80.4797C64.44 80.9097 64.6 81.2497 64.78 81.6397H64.8C64.96 81.2697 65.15 80.9097 65.37 80.4797L66.18 78.9297H67.01L65.13 82.1597V84.5497H64.4H64.38Z" fill="white"/>
<path d="M68.71 78.9297V82.2597C68.71 83.5197 69.27 84.0497 70.02 84.0497C70.85 84.0497 71.39 83.4997 71.39 82.2597V78.9297H72.12V82.2097C72.12 83.9397 71.21 84.6397 69.99 84.6397C68.84 84.6397 67.97 83.9797 67.97 82.2397V78.9297H68.7H68.71Z" fill="white"/>
<path d="M73.72 79.0097C74.09 78.9297 74.61 78.8896 75.11 78.8896C75.89 78.8896 76.39 79.0296 76.74 79.3496C77.02 79.5996 77.18 79.9796 77.18 80.4196C77.18 81.1596 76.71 81.6496 76.12 81.8496V81.8796C76.55 82.0296 76.81 82.4297 76.95 83.0097C77.13 83.7897 77.27 84.3397 77.38 84.5497H76.63C76.54 84.3897 76.41 83.9096 76.25 83.2096C76.08 82.4296 75.78 82.1397 75.12 82.1197H74.44V84.5497H73.71V78.9996L73.72 79.0097ZM74.44 81.5696H75.18C75.96 81.5696 76.45 81.1396 76.45 80.4996C76.45 79.7696 75.92 79.4596 75.16 79.4496C74.81 79.4496 74.56 79.4796 74.44 79.5196V81.5696Z" fill="white"/>
<path d="M79.92 84.5497L78.09 78.9297H78.87L79.75 81.6997C79.99 82.4597 80.2 83.1397 80.35 83.7997H80.37C80.53 83.1497 80.76 82.4397 81.01 81.7097L81.96 78.9297H82.74L80.73 84.5497H79.93H79.92Z" fill="white"/>
<path d="M86.59 81.9204H84.41V83.9504H86.85V84.5604H83.69V78.9404H86.73V79.5504H84.42V81.3304H86.6V81.9304L86.59 81.9204Z" fill="white"/>
<path d="M88.13 79.0097C88.57 78.9397 89.1 78.8896 89.67 78.8896C90.71 78.8896 91.45 79.1296 91.95 79.5896C92.45 80.0496 92.74 80.6996 92.74 81.6096C92.74 82.5196 92.46 83.2796 91.93 83.7896C91.41 84.3196 90.54 84.5996 89.45 84.5996C88.93 84.5996 88.5 84.5696 88.13 84.5296V78.9996V79.0097ZM88.85 83.9797C89.03 84.0097 89.3 84.0196 89.58 84.0196C91.13 84.0196 91.97 83.1496 91.97 81.6396C91.97 80.3096 91.23 79.4697 89.69 79.4697C89.31 79.4697 89.03 79.4997 88.84 79.5497V83.9896L88.85 83.9797Z" fill="white"/>
<path d="M94.75 78.9297V84.5497H94.02V78.9297H94.75Z" fill="white"/>
<path d="M100.29 84.3696C100.02 84.4996 99.49 84.6396 98.81 84.6396C97.23 84.6396 96.03 83.6396 96.03 81.7996C96.03 79.9596 97.22 78.8496 98.97 78.8496C99.67 78.8496 100.11 78.9996 100.3 79.0996L100.12 79.6896C99.84 79.5596 99.45 79.4596 98.99 79.4596C97.67 79.4596 96.8 80.2996 96.8 81.7796C96.8 83.1596 97.59 84.0396 98.96 84.0396C99.4 84.0396 99.85 83.9496 100.14 83.8096L100.29 84.3896V84.3696Z" fill="white"/>
<path d="M107.58 84.3696C107.31 84.4996 106.78 84.6396 106.1 84.6396C104.52 84.6396 103.32 83.6396 103.32 81.7996C103.32 79.9596 104.51 78.8496 106.26 78.8496C106.96 78.8496 107.4 78.9996 107.59 79.0996L107.41 79.6896C107.13 79.5596 106.74 79.4596 106.28 79.4596C104.96 79.4596 104.09 80.2996 104.09 81.7796C104.09 83.1596 104.88 84.0396 106.25 84.0396C106.69 84.0396 107.14 83.9496 107.43 83.8096L107.58 84.3896V84.3696Z" fill="white"/>
<path d="M111.74 81.9204H109.56V83.9504H112V84.5604H108.84V78.9404H111.88V79.5504H109.57V81.3304H111.75V81.9304L111.74 81.9204Z" fill="white"/>
<path d="M113.27 84.5497V78.9297H114.06L115.86 81.7697C116.28 82.4297 116.6 83.0197 116.87 83.5997H116.89C116.82 82.8397 116.81 82.1597 116.81 81.2797V78.9297H117.49V84.5497H116.76L114.98 81.6997C114.59 81.0697 114.21 80.4297 113.93 79.8197H113.9C113.94 80.5397 113.96 81.2097 113.96 82.1497V84.5497H113.28H113.27Z" fill="white"/>
<path d="M120.17 79.5497H118.46V78.9297H122.62V79.5497H120.9V84.5497H120.17V79.5497Z" fill="white"/>
<path d="M126.5 81.9204H124.32V83.9504H126.76V84.5604H123.6V78.9404H126.64V79.5504H124.33V81.3304H126.51V81.9304L126.5 81.9204Z" fill="white"/>
<path d="M128.04 79.0097C128.41 78.9297 128.93 78.8896 129.43 78.8896C130.21 78.8896 130.71 79.0296 131.06 79.3496C131.34 79.5996 131.5 79.9796 131.5 80.4196C131.5 81.1596 131.03 81.6496 130.44 81.8496V81.8796C130.87 82.0296 131.13 82.4297 131.27 83.0097C131.45 83.7897 131.59 84.3397 131.7 84.5497H130.95C130.86 84.3897 130.73 83.9096 130.57 83.2096C130.4 82.4296 130.1 82.1397 129.44 82.1197H128.76V84.5497H128.03V78.9996L128.04 79.0097ZM128.76 81.5696H129.5C130.28 81.5696 130.77 81.1396 130.77 80.4996C130.77 79.7696 130.24 79.4596 129.48 79.4496C129.13 79.4496 128.88 79.4796 128.76 79.5196V81.5696Z" fill="white"/>
<path d="M138.5 84.5501C138.34 84.3901 138.19 84.2301 137.97 84.0001C137.49 84.4501 136.94 84.6401 136.33 84.6401C135.24 84.6401 134.6 83.9101 134.6 83.0601C134.6 82.2901 135.06 81.7701 135.7 81.4201V81.3901C135.41 81.0201 135.23 80.6101 135.23 80.2101C135.23 79.5301 135.72 78.8301 136.66 78.8301C137.36 78.8301 137.9 79.3001 137.9 80.0201C137.9 80.6101 137.56 81.0801 136.67 81.5201V81.5501C137.15 82.1001 137.68 82.7201 138.04 83.1201C138.3 82.7301 138.47 82.1901 138.58 81.4801H139.25C139.1 82.3601 138.86 83.0601 138.44 83.5601C138.74 83.8801 139.03 84.1901 139.37 84.5501H138.5ZM137.61 83.5901C137.28 83.2201 136.65 82.5401 136.03 81.8201C135.73 82.0101 135.3 82.3701 135.3 82.9601C135.3 83.6001 135.78 84.0901 136.45 84.0901C136.93 84.0901 137.34 83.8701 137.61 83.5801V83.5901ZM135.91 80.1601C135.91 80.5601 136.09 80.8701 136.34 81.1701C136.91 80.8401 137.27 80.5401 137.27 80.0701C137.27 79.7301 137.08 79.3401 136.62 79.3401C136.16 79.3401 135.91 79.7201 135.91 80.1601Z" fill="white"/>
<path d="M142.38 83.6698C142.71 83.8698 143.18 84.0398 143.68 84.0398C144.42 84.0398 144.86 83.6498 144.86 83.0798C144.86 82.5498 144.56 82.2498 143.8 81.9598C142.88 81.6398 142.32 81.1599 142.32 80.3699C142.32 79.4899 143.05 78.8398 144.14 78.8398C144.72 78.8398 145.13 78.9698 145.38 79.1098L145.18 79.6998C145 79.5998 144.62 79.4298 144.11 79.4298C143.34 79.4298 143.05 79.8898 143.05 80.2698C143.05 80.7998 143.39 81.0498 144.17 81.3498C145.12 81.7198 145.6 82.1798 145.6 82.9998C145.6 83.8698 144.96 84.6199 143.63 84.6199C143.09 84.6199 142.5 84.4598 142.2 84.2598L142.38 83.6498V83.6698Z" fill="white"/>
<path d="M146.93 78.9996C147.28 78.9396 147.74 78.8896 148.32 78.8896C149.04 78.8896 149.56 79.0596 149.9 79.3596C150.21 79.6296 150.39 80.0396 150.39 80.5396C150.39 81.0396 150.24 81.4496 149.96 81.7396C149.58 82.1496 148.95 82.3596 148.24 82.3596C148.02 82.3596 147.82 82.3596 147.66 82.3096V84.5596H146.93V79.0097V78.9996ZM147.66 81.7096C147.82 81.7496 148.02 81.7696 148.26 81.7696C149.14 81.7696 149.67 81.3396 149.67 80.5696C149.67 79.7996 149.14 79.4697 148.34 79.4697C148.02 79.4697 147.78 79.4996 147.66 79.5296V81.7096Z" fill="white"/>
<path d="M151.92 82.7904L151.34 84.5604H150.59L152.5 78.9404H153.38L155.3 84.5604H154.52L153.92 82.7904H151.93H151.92ZM153.76 82.2204L153.21 80.6004C153.08 80.2304 153 79.9004 152.92 79.5704H152.9C152.82 79.9004 152.72 80.2504 152.62 80.5904L152.07 82.2204H153.76Z" fill="white"/>
</svg>
