<svg width="131" height="90" viewBox="0 0 131 90" fill="none" xmlns="http://www.w3.org/2000/svg">
<path fill-rule="evenodd" clip-rule="evenodd" d="M64.6391 43.1924C66.0764 43.1924 67.2292 44.3474 67.2292 45.7799C67.2292 47.2124 66.0689 48.3674 64.6391 48.3674C63.2094 48.3674 62.0566 47.2049 62.0566 45.7799C62.0566 44.3549 63.2094 43.1924 64.6391 43.1924Z" fill="white"/>
<path fill-rule="evenodd" clip-rule="evenodd" d="M111.919 60.0451C111.919 57.4351 112.151 55.8901 113.783 53.7451L115.916 51.6001C116.478 52.0951 117.421 52.7176 117.982 53.2801C120.003 55.2901 121.613 57.4051 122.167 60.3526C122.706 63.1951 121.523 66.6826 119.779 68.8876C119.292 69.5026 118.918 69.8026 118.327 70.2676L117.78 70.6951C117.593 70.5676 117.428 70.4251 117.249 70.2601C115.385 68.4901 114.823 68.0626 113.566 65.6476C112.892 64.3426 112.428 63.3676 112.136 61.8976C112.024 61.3126 111.911 60.7126 111.911 60.0451H111.919ZM109.359 61.2901C109.359 62.7226 109.568 63.5326 109.913 64.8151C110.07 65.4001 110.272 65.7451 110.482 66.2551C110.946 67.4176 112.772 70.2376 113.738 71.2276C115.946 73.7701 118.738 76.0351 120.258 79.0876C120.879 80.3476 121.171 81.1351 121.171 82.7326C121.171 83.2576 121.029 83.5201 121.029 83.9851C122.055 83.7451 123.103 81.7876 123.237 80.7976C123.694 77.4976 122.818 76.0726 120.632 73.5901C120.408 73.3426 120.168 73.1551 119.944 72.9001L119.307 72.1651L120.52 71.0251C120.52 71.0251 120.542 71.0026 120.557 70.9951C120.557 70.9801 120.58 70.9651 120.595 70.9576L121.328 70.1776C121.635 69.8176 121.98 69.4951 122.272 69.1201C122.429 68.9101 122.541 68.8351 122.713 68.6026C123.454 67.5976 124.188 66.8026 124.682 65.5201C125.715 62.7751 125.625 60.1801 124.3 57.5476C124.023 57.0076 123.387 56.0701 122.983 55.6201C121.65 54.1276 121.119 53.5876 119.667 52.2901C119.509 52.1551 119.457 52.1476 119.292 51.9901L117.907 50.7376C117.571 50.4151 116.822 49.8901 116.687 49.2676C116.455 49.3276 115.295 50.3176 115.011 50.5651L114.007 51.4201C113.453 51.9901 113.094 52.2676 112.525 52.9126C112.391 53.0701 112.383 53.1076 112.248 53.2576C110.377 55.2751 109.359 58.6051 109.359 61.2976V61.2901Z" fill="white"/>
<path fill-rule="evenodd" clip-rule="evenodd" d="M5.73406 53.0628C6.3404 52.6128 5.6068 52.3728 8.07709 52.3728H17.3294C16.7755 53.4228 16.0643 54.0303 15.8323 55.9203C15.6451 57.4128 15.5778 59.1603 15.458 60.6678L15.1137 65.3703C15.0089 69.6453 14.4998 72.2703 15.6751 76.5828C15.7649 76.9128 15.8847 77.1978 16.0194 77.4828C17.4941 80.5203 20.0018 83.9853 23.6848 83.9853C23.3629 83.5203 22.7042 83.0628 22.3224 82.5678C21.5139 81.5028 21.3717 81.5028 20.5183 80.1753C19.897 79.2078 19.5602 78.4353 19.126 77.3403C18.34 75.3903 18.1978 73.5753 18.0181 71.4603C17.9133 70.1703 19.3506 59.0778 19.5602 57.5103C19.7548 56.0778 19.8671 54.1353 20.5109 52.8528C20.6755 52.5228 20.7878 52.2753 21.0124 51.9828C21.9107 50.7828 23.0485 49.9503 23.1309 49.8153C22.1203 49.7928 22.1502 49.7103 20.9675 50.1378C18.6769 50.9628 11.0714 50.5053 8.2268 50.5053C7.31354 50.5053 6.69223 50.6778 6.2356 51.1428C5.83886 51.5478 5.41217 52.3878 5.74154 53.0703L5.73406 53.0628Z" fill="white"/>
<path fill-rule="evenodd" clip-rule="evenodd" d="M91.7599 71.3847H94.5221V65.9247H101.768V71.5197C101.768 71.6772 101.813 71.7372 101.97 71.7372H104.388C104.545 71.7372 104.598 71.6772 104.598 71.5197V51.7422H101.768V64.2672H94.5221V51.9522C94.5221 51.7947 94.4697 51.7422 94.3125 51.7422H91.7599V71.3847Z" fill="white"/>
<path fill-rule="evenodd" clip-rule="evenodd" d="M43.0129 71.9473H44.9517V58.3123C44.9891 58.3573 45.5805 59.5798 46.1719 60.2698C47.3022 61.5523 47.5792 61.8973 48.8967 63.0673C49.6527 63.7423 51.2622 65.0473 51.8086 65.7523C52.1455 66.1948 52.6246 66.6373 53.2534 67.4848C54.3687 68.9623 54.5559 69.3448 55.3494 70.9273C55.4242 71.0998 55.5066 71.3323 55.6488 71.4523C55.7985 71.5648 56.5097 71.9248 56.7492 71.9473V51.7423H54.8179V65.6473L54.6757 65.4373C53.6726 63.6298 52.6395 62.5648 51.1723 61.2073C51.0151 61.0573 50.9178 60.9373 50.7606 60.7948L49.4581 59.6698C49.2261 59.4973 48.8069 59.0698 48.6197 58.8523L47.8637 58.0198C47.0178 56.9248 46.2243 55.9123 45.5356 54.6748L44.7047 53.0173C44.6149 52.8298 44.3005 51.9298 44.2555 51.8773C44.1657 51.7873 43.2001 51.4798 43.0054 51.4648V71.9473H43.0129Z" fill="white"/>
<path fill-rule="evenodd" clip-rule="evenodd" d="M72.0799 55.6195C72.0799 57.787 74.2134 59.542 75.9051 60.5695L76.8483 61.0795C77.2002 61.252 77.4771 61.4245 77.8365 61.6045C79.8426 62.6095 84.0271 64.777 84.0271 67.297C84.0271 67.9795 83.825 68.3395 83.5555 68.767C82.283 70.792 77.028 71.542 74.0337 68.0395C73.0231 66.8545 72.9707 65.8945 71.1891 65.632C70.6277 65.542 70.2909 65.2345 70.9721 67.102C71.6158 68.8795 73.2702 70.222 74.9095 71.032C77.2825 72.202 80.973 72.307 83.5705 71.1295L84.4538 70.702C86.0483 69.682 87.2011 68.6845 87.2011 66.397C87.2011 63.817 84.4913 61.537 82.3204 60.502C80.6361 59.692 78.9369 58.8595 77.305 57.9145L75.9426 56.992C75.4111 56.602 74.9844 56.1145 74.8497 55.387C74.7449 54.8245 74.8422 54.427 75.0817 53.9845C75.8902 52.5295 78.9593 52.4695 80.449 53.857L81.4146 54.8245C81.5569 54.982 81.5718 55.042 81.729 55.207C82.1258 55.6195 82.6647 56.167 83.2037 56.3545C83.7577 56.557 83.7801 56.4445 84.3041 56.4295C83.9747 55.027 83.1887 53.9245 82.1857 52.957C80.1495 50.992 75.9575 50.8795 73.7717 52.522C73.0007 53.092 72.0799 54.307 72.0799 55.6045V55.6195Z" fill="white"/>
<path fill-rule="evenodd" clip-rule="evenodd" d="M35.1454 57.2772V65.8572H27.4875C27.5923 64.6197 30.0626 62.4897 31.2005 61.4847C31.9415 60.8172 33.2216 59.7822 33.798 59.0397C33.9777 58.8147 34.0899 58.7247 34.2696 58.4697L35.1454 57.2772ZM22.7191 69.6597C22.7191 70.6347 22.8314 70.9647 23.0036 71.9547H26.4395C26.4171 71.6172 26.2749 71.4072 26.2075 71.0022C25.8332 68.8347 26.5369 68.1072 26.7165 67.3047H35.1379V71.9472H37.3462V51.5322C37.3462 51.1572 36.8746 51.4047 36.7025 51.5097C36.2758 51.7422 35.6844 52.7397 35.3401 53.2647C34.5915 54.4047 34.2771 54.6747 33.536 55.6047C32.9821 56.2947 31.2529 58.0347 30.4519 58.7472C30.2273 58.9347 30.1225 59.0022 29.9054 59.2272C29.7033 59.4447 29.5536 59.5047 29.3515 59.7147L27.2106 61.7172C27.1207 61.8147 27.0683 61.8672 26.9785 61.9572C25.7134 63.2847 24.4334 64.7697 23.6099 66.4047C23.2207 67.1847 22.7117 68.5047 22.7117 69.6597H22.7191Z" fill="white"/>
<path fill-rule="evenodd" clip-rule="evenodd" d="M63.2468 71.9472H65.9342V51.7422H63.2468V71.9472Z" fill="white"/>
<path fill-rule="evenodd" clip-rule="evenodd" d="M76.4441 39.69C71.8703 36.27 69.2429 28.1475 69.2503 22.6275V10.455C72.2521 12.0375 78.0386 10.395 81.1751 11.37C82.1033 11.655 82.7621 12.345 83.1289 13.215C83.2337 13.4625 83.1289 13.425 83.3909 13.4925L83.4657 12.3225C83.4657 10.485 82.5375 9.07496 81.3997 8.36246C80.7709 7.95746 80.0597 7.67996 79.0417 7.67996C77.0654 7.69496 71.2939 7.78496 70.0513 7.62746C68.7937 7.46996 67.6484 7.06496 66.5854 6.53246L65.5674 6.02246V17.7825C65.5674 19.8 65.5674 21.6675 65.7171 23.52C65.7845 24.405 65.9342 25.275 66.0839 26.1225C66.3459 27.5475 66.8175 29.3925 67.349 30.7425C68.7413 34.2825 70.4256 36.8925 73.5097 39.3075C74.67 40.23 80.1421 42.465 76.4291 39.69H76.4441Z" fill="white"/>
<path fill-rule="evenodd" clip-rule="evenodd" d="M52.7369 39.69C57.3106 36.27 59.9456 28.1475 59.9381 22.6275V10.455C56.9363 12.0375 51.1499 10.395 48.0059 11.37C47.0777 11.655 46.4189 12.345 46.0521 13.215C45.9473 13.4625 46.0521 13.425 45.7826 13.4925L45.7078 12.3225C45.7078 10.485 46.636 9.07496 47.7663 8.36246C48.3951 7.95746 49.1063 7.67996 50.1243 7.67996C52.1006 7.69496 57.8721 7.78496 59.1147 7.62746C60.3723 7.46996 61.5176 7.06496 62.5806 6.53246L63.5911 6.02246V17.7825C63.5911 19.8 63.5911 21.6675 63.4489 23.52C63.3815 24.405 63.2318 25.275 63.0821 26.1225C62.8276 27.5475 62.341 29.3925 61.817 30.7425C60.4247 34.2825 58.7404 36.8925 55.6563 39.3075C54.496 40.23 49.0165 42.465 52.7294 39.69H52.7369Z" fill="white"/>
</svg>
