<svg width="175" height="120" viewBox="0 0 175 120" fill="none" xmlns="http://www.w3.org/2000/svg">
<g clip-path="url(#clip0_419_121)">
<path d="M155.06 71.5996H154.07L156.37 77.2796L155.96 78.3596C155.84 78.6796 155.7 78.9296 155.54 79.0996C155.38 79.2796 155.16 79.3596 154.88 79.3596C154.65 79.3596 154.45 79.3196 154.28 79.2296L154.2 79.9996C154.32 80.0396 154.44 80.0596 154.57 80.0696C154.69 80.0696 154.82 80.0796 154.94 80.0796C155.43 80.0796 155.8 79.9496 156.06 79.6996C156.32 79.4396 156.53 79.0996 156.7 78.6696L159.5 71.5996H158.54L156.83 76.2296L155.07 71.5996H155.06Z" fill="white"/>
<path d="M153.78 71.5995H152.16V70.0195H151.37V71.5995H150.18V72.3195H151.37V75.8495C151.37 76.1595 151.41 76.4095 151.5 76.5995C151.59 76.7895 151.7 76.9395 151.84 77.0495C151.98 77.1595 152.13 77.2395 152.29 77.2795C152.45 77.3195 152.61 77.3395 152.76 77.3395C153.18 77.3395 153.53 77.2695 153.83 77.1395L153.79 76.4095C153.67 76.4695 153.54 76.5295 153.39 76.5695C153.25 76.6095 153.11 76.6295 152.97 76.6295C152.85 76.6295 152.74 76.6195 152.64 76.5895C152.54 76.5595 152.45 76.5095 152.38 76.4395C152.31 76.3695 152.25 76.2695 152.21 76.1295C152.17 75.9995 152.15 75.8295 152.15 75.6195V72.3195H153.77V71.5995H153.78Z" fill="white"/>
<path d="M149.09 71.5996H148.3V77.1996H149.09V71.5996Z" fill="white"/>
<path d="M149.09 69.0301C148.97 68.9201 148.84 68.8701 148.7 68.8701C148.56 68.8701 148.42 68.9201 148.3 69.0301C148.18 69.1401 148.12 69.2801 148.12 69.4401C148.12 69.6001 148.18 69.7501 148.3 69.8501C148.42 69.9601 148.55 70.0101 148.7 70.0101C148.85 70.0101 148.98 69.9601 149.09 69.8501C149.21 69.7401 149.27 69.6001 149.27 69.4401C149.27 69.2801 149.21 69.1401 149.09 69.0301Z" fill="white"/>
<path d="M141.53 71.5992C141.55 71.8092 141.56 72.0292 141.57 72.2592C141.58 72.4892 141.59 72.6792 141.59 72.8292V77.1992H142.38V74.3292C142.38 73.8192 142.46 73.4192 142.62 73.1292C142.78 72.8392 142.96 72.6292 143.16 72.4792C143.36 72.3392 143.56 72.2492 143.74 72.2192C143.92 72.1892 144.04 72.1692 144.08 72.1692C144.66 72.1692 145.06 72.3392 145.28 72.6692C145.5 72.9992 145.6 73.4792 145.6 74.0992V77.1992H146.39V73.6392C146.39 72.9392 146.22 72.3992 145.87 72.0192C145.53 71.6392 145 71.4492 144.28 71.4492C144.1 71.4492 143.91 71.4792 143.72 71.5292C143.53 71.5792 143.35 71.6492 143.19 71.7492C143.02 71.8392 142.87 71.9492 142.73 72.0792C142.59 72.2092 142.48 72.3492 142.39 72.4992H142.37C142.37 72.3492 142.37 72.1992 142.37 72.0492C142.37 71.8992 142.36 71.7492 142.34 71.5992H141.53Z" fill="white"/>
<path d="M139.91 77.1998C139.89 76.9898 139.88 76.7698 139.87 76.5398C139.86 76.3098 139.85 76.1198 139.85 75.9698V71.5998H139.06V74.4698C139.06 74.9798 138.98 75.3798 138.82 75.6698C138.66 75.9598 138.48 76.1698 138.28 76.3198C138.08 76.4598 137.88 76.5498 137.7 76.5798C137.52 76.6098 137.4 76.6298 137.36 76.6298C137.06 76.6298 136.82 76.5898 136.62 76.4998C136.42 76.4198 136.27 76.2898 136.15 76.1298C136.03 75.9698 135.95 75.7598 135.9 75.5198C135.85 75.2798 135.83 75.0098 135.83 74.6898V71.5898H135.04V75.1498C135.04 75.8498 135.21 76.3898 135.56 76.7698C135.9 77.1498 136.43 77.3398 137.15 77.3398C137.33 77.3398 137.52 77.3098 137.71 77.2598C137.9 77.2098 138.08 77.1398 138.24 77.0398C138.41 76.9498 138.56 76.8398 138.7 76.7098C138.84 76.5798 138.95 76.4398 139.04 76.2898H139.06C139.06 76.4398 139.06 76.5898 139.06 76.7398C139.06 76.8898 139.07 77.0398 139.09 77.1898H139.9L139.91 77.1998Z" fill="white"/>
<path d="M124.96 77.2H125.75V74.33C125.75 73.82 125.82 73.42 125.97 73.13C126.12 72.84 126.28 72.63 126.47 72.48C126.65 72.34 126.83 72.25 127 72.22C127.17 72.19 127.28 72.17 127.33 72.17C127.87 72.17 128.24 72.32 128.44 72.63C128.64 72.93 128.74 73.37 128.74 73.93V77.2H129.53V74.22C129.53 73.96 129.56 73.7 129.61 73.46C129.67 73.22 129.76 73 129.88 72.81C130 72.62 130.17 72.47 130.37 72.35C130.57 72.23 130.82 72.18 131.11 72.18C131.65 72.18 132.02 72.33 132.22 72.64C132.42 72.94 132.52 73.38 132.52 73.94V77.21H133.31V73.65C133.31 72.95 133.14 72.41 132.79 72.03C132.45 71.65 131.92 71.46 131.2 71.46C130.82 71.46 130.46 71.56 130.12 71.77C129.77 71.98 129.52 72.26 129.36 72.62C129.26 72.38 129.15 72.18 129.01 72.03C128.87 71.88 128.72 71.76 128.56 71.68C128.4 71.6 128.23 71.54 128.06 71.51C127.89 71.48 127.73 71.46 127.58 71.46C127.24 71.46 126.91 71.54 126.57 71.71C126.23 71.88 125.97 72.12 125.77 72.45H125.75V71.6H124.9C124.92 71.81 124.93 72.01 124.94 72.22C124.95 72.43 124.96 72.63 124.96 72.84V77.2Z" fill="white"/>
<path d="M114.88 77.2H115.67V74.33C115.67 73.82 115.74 73.42 115.89 73.13C116.04 72.84 116.2 72.63 116.39 72.48C116.57 72.34 116.75 72.25 116.92 72.22C117.09 72.19 117.2 72.17 117.25 72.17C117.79 72.17 118.16 72.32 118.36 72.63C118.56 72.93 118.66 73.37 118.66 73.93V77.2H119.45V74.22C119.45 73.96 119.48 73.7 119.53 73.46C119.59 73.22 119.68 73 119.8 72.81C119.92 72.62 120.09 72.47 120.29 72.35C120.49 72.23 120.74 72.18 121.03 72.18C121.57 72.18 121.94 72.33 122.14 72.64C122.34 72.94 122.44 73.38 122.44 73.94V77.21H123.23V73.65C123.23 72.95 123.06 72.41 122.71 72.03C122.37 71.65 121.84 71.46 121.12 71.46C120.74 71.46 120.38 71.56 120.04 71.77C119.69 71.98 119.44 72.26 119.28 72.62C119.18 72.38 119.07 72.18 118.93 72.03C118.79 71.88 118.64 71.76 118.48 71.68C118.32 71.6 118.15 71.54 117.98 71.51C117.81 71.48 117.65 71.46 117.5 71.46C117.16 71.46 116.83 71.54 116.49 71.71C116.15 71.88 115.89 72.12 115.69 72.45H115.67V71.6H114.82C114.84 71.81 114.85 72.01 114.86 72.22C114.87 72.43 114.88 72.63 114.88 72.84V77.2Z" fill="white"/>
<path d="M113.34 73.2192C113.19 72.8592 112.99 72.5492 112.72 72.2892C112.46 72.0292 112.14 71.8192 111.78 71.6692C111.42 71.5192 111.01 71.4492 110.58 71.4492C110.15 71.4492 109.75 71.5192 109.39 71.6692C109.03 71.8192 108.71 72.0192 108.45 72.2892C108.19 72.5492 107.98 72.8692 107.83 73.2192C107.68 73.5792 107.61 73.9692 107.61 74.3892C107.61 74.8092 107.68 75.1992 107.83 75.5592C107.98 75.9192 108.18 76.2292 108.45 76.4892C108.71 76.7492 109.03 76.9592 109.39 77.1092C109.75 77.2592 110.15 77.3292 110.58 77.3292C111.01 77.3292 111.42 77.2592 111.78 77.1092C112.14 76.9592 112.46 76.7592 112.72 76.4892C112.98 76.2292 113.19 75.9092 113.34 75.5592C113.49 75.1992 113.56 74.8092 113.56 74.3892C113.56 73.9692 113.49 73.5792 113.34 73.2192ZM112.55 75.2692C112.45 75.5392 112.31 75.7792 112.12 75.9792C111.94 76.1792 111.72 76.3392 111.46 76.4492C111.2 76.5692 110.91 76.6192 110.58 76.6192C110.25 76.6192 109.96 76.5592 109.7 76.4492C109.44 76.3292 109.22 76.1792 109.04 75.9792C108.86 75.7792 108.72 75.5492 108.62 75.2692C108.52 74.9992 108.47 74.7092 108.47 74.3992C108.47 74.0892 108.52 73.7992 108.62 73.5292C108.72 73.2592 108.86 73.0192 109.04 72.8192C109.22 72.6192 109.44 72.4592 109.7 72.3492C109.96 72.2292 110.25 72.1792 110.58 72.1792C110.91 72.1792 111.2 72.2392 111.46 72.3492C111.72 72.4692 111.94 72.6192 112.12 72.8192C112.3 73.0192 112.45 73.2592 112.55 73.5292C112.65 73.7992 112.7 74.0892 112.7 74.3992C112.7 74.7092 112.65 74.9992 112.55 75.2692Z" fill="white"/>
<path d="M106.98 72.4192C106.7 72.0892 106.39 71.8492 106.03 71.6992C105.68 71.5392 105.31 71.4592 104.93 71.4492C104.48 71.4492 104.06 71.5092 103.7 71.6592C103.33 71.8092 103.02 72.0092 102.76 72.2792C102.5 72.5392 102.3 72.8592 102.17 73.2192C102.03 73.5792 101.97 73.9792 101.97 74.3992C101.97 74.8192 102.04 75.2192 102.17 75.5792C102.31 75.9392 102.5 76.2592 102.76 76.5192C103.02 76.7792 103.33 76.9892 103.7 77.1392C104.07 77.2892 104.48 77.3592 104.93 77.3492C105.31 77.3492 105.68 77.2592 106.03 77.0992C106.38 76.9392 106.7 76.6992 106.98 76.3792L106.33 75.8892C106.19 76.0992 106 76.2692 105.76 76.4192C105.52 76.5592 105.24 76.6392 104.93 76.6392C104.6 76.6392 104.31 76.5992 104.05 76.4792C103.79 76.3692 103.57 76.2092 103.39 76.0092C103.21 75.8092 103.07 75.5692 102.97 75.2992C102.87 75.0292 102.83 74.7292 102.83 74.4092C102.83 74.0892 102.88 73.7892 102.97 73.5192C103.06 73.2492 103.21 73.0092 103.39 72.8092C103.57 72.6092 103.79 72.4492 104.05 72.3392C104.31 72.2292 104.6 72.1792 104.93 72.1792C105.24 72.1792 105.52 72.2492 105.76 72.3992C106 72.5392 106.19 72.7192 106.33 72.9292L106.98 72.4392V72.4192Z" fill="white"/>
<path d="M117 64.6597H120.1V39.9297H117V50.7497H104.62V39.9297H101.54V64.6597H104.62V53.8397H117V64.6597Z" fill="white"/>
<path d="M136.18 62.5294C137.8 60.9094 138.61 59.0394 138.61 56.9294V46.1094H135.53V56.9294C135.53 58.3094 135.04 59.4694 134.06 60.4294C133.09 61.3994 131.93 61.8794 130.58 61.8794C129.23 61.8794 128.05 61.3994 127.08 60.4294C126.11 59.4594 125.63 58.2994 125.63 56.9294V46.1094H122.53V56.9294C122.53 59.0394 123.34 60.9094 124.96 62.5294C126.57 64.1394 128.44 64.9394 130.58 64.9394C132.72 64.9394 134.57 64.1394 136.18 62.5294Z" fill="white"/>
<path d="M152.4 46.0697C151.69 45.8997 150.96 45.7997 150.18 45.7997C147.47 45.7997 145.21 46.8297 143.38 48.8997V39.9297H140.28V55.3897C140.28 58.0197 141.22 60.2797 143.09 62.1497C144.96 64.0097 147.22 64.9397 149.87 64.9397C152.52 64.9397 154.76 64.0097 156.63 62.1497C158.26 60.5397 159.19 58.6297 159.4 56.4297C158.8 56.6197 158.15 56.7197 157.49 56.7197C157.07 56.7197 156.65 56.6797 156.25 56.5997C156.02 57.8697 155.42 58.9997 154.44 59.9797C153.17 61.2497 151.65 61.8797 149.87 61.8797C148.09 61.8797 146.56 61.2497 145.28 59.9797C144.01 58.6997 143.38 57.1697 143.38 55.3897C143.38 53.6097 144.01 52.0897 145.28 50.8197C146.55 49.5497 148.09 48.8997 149.87 48.8997C150.28 48.8997 150.68 48.9397 151.06 49.0097C151.26 47.9097 151.73 46.9097 152.4 46.0697Z" fill="white"/>
<path d="M157.48 55.0193C160.16 55.0193 162.33 52.8493 162.33 50.1693C162.33 47.4893 160.16 45.3193 157.48 45.3193C154.8 45.3193 152.63 47.4893 152.63 50.1693C152.63 52.8493 154.8 55.0193 157.48 55.0193Z" fill="white"/>
<path d="M55.97 64.66V53.22C55.97 51.21 55.28 49.47 53.9 48C52.52 46.53 50.84 45.79 48.86 45.79C46.53 45.79 44.67 46.68 43.3 48.45C41.9 46.67 40.04 45.79 37.74 45.79C35.77 45.79 34.09 46.53 32.68 48C31.3 49.47 30.61 51.21 30.61 53.22V64.66H33.71V53.22C33.71 52.05 34.1 51.04 34.87 50.19C35.64 49.32 36.6 48.89 37.73 48.89C38.98 48.89 39.95 49.3 40.65 50.1C41.37 50.92 41.74 51.96 41.74 53.22V64.66H44.84V53.22C44.84 51.96 45.2 50.93 45.93 50.1C46.66 49.29 47.63 48.89 48.87 48.89C49.99 48.89 50.95 49.32 51.73 50.19C52.5 51.04 52.89 52.05 52.89 53.22V64.66H55.97Z" fill="white"/>
<path d="M73.96 48.6298C72.09 46.7398 69.83 45.7998 67.18 45.7998C64.53 45.7998 62.29 46.7398 60.4 48.6298C58.53 50.4998 57.59 52.7598 57.59 55.3898C57.59 58.0198 58.49 60.2198 60.29 62.1098C62.1 63.9898 64.3 64.9398 66.87 64.9398C69.59 64.9398 71.86 63.9198 73.68 61.8798V64.6698H76.76V55.3898C76.76 52.7598 75.82 50.4998 73.95 48.6298M71.77 59.9698C70.48 61.2398 68.95 61.8698 67.18 61.8698C65.41 61.8698 63.89 61.2398 62.61 59.9698C61.33 58.6898 60.69 57.1598 60.69 55.3798C60.69 53.5998 61.33 52.0798 62.61 50.8098C63.89 49.5298 65.41 48.8898 67.18 48.8898C68.95 48.8898 70.48 49.5298 71.77 50.8098C73.05 52.0798 73.69 53.5998 73.69 55.3798C73.69 57.1598 73.05 58.6798 71.77 59.9698Z" fill="white"/>
<path d="M87.6 48.8998V45.7998C85.47 45.7998 83.6 46.6098 81.98 48.2298C80.36 49.8498 79.55 51.7198 79.55 53.8498V64.6698H82.65V53.8498C82.65 52.4898 83.13 51.3198 84.1 50.3498C85.07 49.3798 86.23 48.8998 87.6 48.8998Z" fill="white"/>
<path d="M92.97 39.9297V46.1097H89.89V49.2097H92.97V64.6597H96.07V49.2097H99.17V46.1097H96.07V39.9297H92.97Z" fill="white"/>
<path d="M12.67 60.0898V60.1098L12.72 60.2298C13.01 60.8698 13.43 61.4798 13.96 62.0498C14.5 62.6198 15.13 63.1198 15.84 63.5298C16.55 63.9498 17.35 64.2798 18.21 64.5198C19.07 64.7598 19.97 64.8798 20.89 64.8798C22.03 64.8798 23.11 64.6898 24.12 64.3298C25.13 63.9598 26.02 63.4498 26.78 62.7998C27.54 62.1498 28.14 61.3598 28.57 60.4598C29 59.5498 29.22 58.5498 29.22 57.4798C29.22 56.4098 29.01 55.5398 28.61 54.7998C28.2 54.0698 27.66 53.4298 26.99 52.8898C26.32 52.3598 25.54 51.9098 24.68 51.5598C23.81 51.2098 22.91 50.8998 22 50.6398C21.32 50.4798 20.62 50.3098 19.94 50.1198C19.26 49.9398 18.65 49.7098 18.12 49.4398C17.59 49.1598 17.15 48.8198 16.83 48.4098C16.5 47.9998 16.34 47.4798 16.34 46.8498C16.34 46.2798 16.47 45.7698 16.73 45.3298C16.99 44.8898 17.34 44.5198 17.77 44.2098C18.2 43.9098 18.7 43.6698 19.25 43.5098C19.8 43.3498 20.37 43.2698 20.95 43.2698C21.48 43.2698 21.97 43.3098 22.4 43.3898C22.83 43.4698 23.24 43.5898 23.63 43.7598C24.01 43.9298 24.39 44.1498 24.73 44.4198C24.91 44.5598 25.12 44.7398 25.37 44.9698L28.02 43.5598C27.69 43.0098 27.28 42.5198 26.8 42.0998C26.3 41.6598 25.72 41.2898 25.1 40.9898C24.47 40.6898 23.8 40.4698 23.1 40.3198C22.39 40.1698 21.66 40.0898 20.91 40.0898C19.93 40.0898 18.96 40.2498 18.03 40.5798C17.1 40.9098 16.27 41.3598 15.54 41.9598C14.82 42.5498 14.23 43.2698 13.8 44.0998C13.37 44.9298 13.15 45.8698 13.15 46.8798C13.15 47.8898 13.36 48.7698 13.77 49.5198C14.18 50.2698 14.76 50.9198 15.48 51.4698C16.2 52.0198 17.04 52.4798 17.99 52.8398C18.94 53.1998 19.96 53.4898 21.02 53.7098C21.62 53.8798 22.22 54.0598 22.81 54.2498C23.4 54.4398 23.94 54.6798 24.42 54.9598C24.9 55.2398 25.29 55.5998 25.59 56.0298C25.89 56.4598 26.04 56.9998 26.04 57.6498C26.04 58.2998 25.89 58.8998 25.6 59.3998C25.31 59.8998 24.92 60.3298 24.44 60.6698C23.97 61.0098 23.42 61.2698 22.82 61.4398C22.23 61.6098 21.62 61.6998 21.02 61.6998C19.82 61.6998 18.72 61.4398 17.77 60.9298C16.81 60.4198 16.06 59.6998 15.54 58.7998L15.42 58.6698L15.39 58.6298L12.67 60.0798V60.0898Z" fill="white"/>
</g>
<defs>
<clipPath id="clip0_419_121">
<rect width="175" height="120" fill="white"/>
</clipPath>
</defs>
</svg>
