<svg width="159" height="110" viewBox="0 0 159 110" fill="none" xmlns="http://www.w3.org/2000/svg">
<path d="M6.8143 66.3664V43.8164H12.4474V52.7081H24.5314V43.8164H30.528V66.3664H24.6223V56.4664H12.4474V66.3664H6.8143Z" fill="white"/>
<path d="M41.0674 66.3664H35.4343V43.8164H41.0674V66.3664Z" fill="white"/>
<path d="M43.248 43.9082H67.5068V47.6665H58.512V66.4582H52.6063V47.6665H43.3388V43.9082H43.248Z" fill="white"/>
<path d="M62.4189 66.3664L72.7766 43.8164H80.0451L90.4937 66.3664H84.0429L81.9531 61.5997H70.8686L68.9606 66.3664H62.328H62.4189ZM80.6812 57.9331L76.5017 47.7581L72.2314 57.9331H80.6812Z" fill="white"/>
<path d="M117.933 66.3664V43.8164H123.838V52.7081H135.922V43.8164H141.646V66.3664H136.013V56.4664H123.838V66.3664H117.933Z" fill="white"/>
<path d="M152.186 66.3664H146.553V43.8164H152.186V66.3664Z" fill="white"/>
<path d="M108.574 51.4248C108.574 49.0415 107.211 46.8415 102.487 46.8415C96.3994 46.8415 95.8543 52.2498 95.8543 55.1831C95.8543 61.5081 98.4891 63.3415 102.85 63.4331C107.121 63.5248 108.665 60.7748 108.574 58.3915H114.843C114.571 64.0748 110.755 66.8248 102.85 66.9165C93.4011 67.0081 89.3126 61.7831 89.3126 55.1831C89.3126 48.5831 93.3103 43.1748 102.578 43.1748C111.845 43.1748 114.298 45.8331 114.571 51.4248H108.574Z" fill="white"/>
</svg>
