<svg width="161" height="110" viewBox="0 0 161 110" fill="none" xmlns="http://www.w3.org/2000/svg">
<path d="M33.5156 68.4662H36.8C37.4624 68.3928 38.1984 68.6587 38.7412 69.1262C39.0816 69.4653 39.284 69.8595 39.2104 70.327C39.2104 71.0603 38.8148 71.6745 38.134 71.9128C38.9896 72.032 39.606 72.8387 39.606 73.7187C39.606 75.0662 38.5296 75.7262 36.8552 75.7262H33.442L33.5156 68.4662ZM37.9316 70.5195C37.9316 69.9053 37.4624 69.5937 36.6528 69.5937H34.8588V71.5278H36.5976C37.4072 71.5278 37.9224 71.207 37.9224 70.5287L37.9316 70.5195ZM36.8092 72.6003H34.7944V74.6078H37.0024C37.858 74.6078 38.4008 74.2687 38.4008 73.6087C38.3548 72.9945 37.8856 72.6828 36.8092 72.6095V72.6003ZM56.212 68.4662H57.6104L59.3492 73.8653L61.1616 68.4662H62.238L64.0504 73.8653L65.7892 68.4662H67.1416L64.5932 75.7995H63.5168L61.7044 70.547L59.892 75.7995H58.8156L56.212 68.4662ZM72.6708 72.9395L69.7268 68.4662H71.2724L73.3608 71.7387L75.4492 68.4662H76.9212L73.9772 72.8662V75.7995H72.6248V72.9395H72.6708ZM44.7764 72.9395L41.8324 68.4662H43.378L45.4664 71.7387L47.5548 68.4662H49.0268L46.0828 72.8662V75.7995H44.7304V72.9395H44.7764ZM80.1596 68.4662H81.3648L85.3116 73.5262V68.4662H86.5904V75.7995H85.514L81.4936 70.5928V75.7995H80.2148L80.1688 68.4662H80.1596ZM90.7304 68.4662H93.4812C95.496 68.347 97.2348 69.8595 97.3544 71.867V72.1328C97.3544 74.1403 95.6892 75.7995 93.6744 75.7995H90.6568V68.4662H90.7304ZM92.0092 69.5937V74.6078H93.4812C94.8336 74.6812 95.956 73.7553 96.0296 72.4078V72.142C96.1032 70.7945 95.0268 69.6762 93.702 69.6762H93.4352L92.0092 69.6028V69.5937ZM100.639 68.4662H101.918V71.5187H105.478V68.4662H106.757V75.7995H105.404V72.747H101.918V75.7995H100.565L100.639 68.4662ZM112.81 68.4662H114.089L117.3 75.7995H115.948L115.212 73.9937H111.725L110.989 75.7995H109.636L112.801 68.4662H112.81ZM114.696 72.8662L113.418 70.0062L112.139 72.9395L114.687 72.8662H114.696ZM120.244 68.4662H121.642L123.85 71.9403L126.058 68.4662H127.457V75.7995H126.178V70.547L123.85 74.0212L121.569 70.547V75.7537H120.29L120.244 68.4662ZM152.435 39.9395C153.364 39.9395 154.1 40.6728 154.1 41.5987C154.1 42.5245 153.364 43.2578 152.435 43.2578C151.506 43.2578 150.77 42.5245 150.77 41.5987C150.77 40.6728 151.506 39.9395 152.435 39.9395ZM152.435 40.2145C151.625 40.2145 151.036 40.8287 150.963 41.562C150.889 42.2953 151.579 42.9553 152.315 43.0287C153.125 43.0287 153.714 42.4145 153.787 41.6812V41.6078C153.76 40.8012 153.244 40.2145 152.435 40.2145ZM152.012 42.5337H151.745V40.5995H152.481C152.95 40.5995 153.143 40.792 153.143 41.1403C153.143 41.4062 152.95 41.6812 152.674 41.6812L153.217 42.5337H152.876L152.334 41.727H152.067L152.021 42.5337H152.012ZM152.012 41.4062H152.352C152.692 41.4062 152.821 41.3328 152.821 41.067C152.821 40.8012 152.748 40.8012 152.426 40.8012H152.03V41.4153H152.002L152.012 41.4062ZM40.6364 39.9395L49.2752 61.0137H45.7148L43.1664 54.7528H35.466L32.8624 61.0137H29.4492L38.2812 39.9395H40.6364ZM39.3576 45.1278L36.6068 51.847H42.0256L39.3484 45.1278H39.3576ZM76.82 40.3337L79.2212 60.9862H75.808L74.4096 47.3187L68.126 60.9862H66.0376L59.8092 47.667L58.3372 60.9862H55.1264L57.6748 40.3337H60.0024L67.2888 55.9262L74.4556 40.3337H76.8108H76.82ZM93.8676 39.9395L85.1092 61.0137H88.596L91.1996 54.6795H98.9L101.448 61.0137H105.055L96.3424 39.9395H93.8676ZM97.6212 51.8745H92.2024L94.9532 45.1553L97.6304 51.8745H97.6212ZM117.226 40.2603C116.49 40.2603 115.018 40.2603 113.427 40.3795L111.835 40.4528V60.867H112.176C113.914 60.9862 115.046 61.0595 116.592 61.0595C118.993 61.1328 121.403 60.7937 123.758 60.0603C127.319 58.7128 129.72 55.0003 129.72 50.7195C129.794 47.8595 128.644 45.1187 126.656 43.1203C124.402 41.2595 121.256 40.2603 117.236 40.2603H117.226ZM115.212 57.9337V43.267H116.564C118.432 43.1937 120.318 43.6062 122.056 44.3395C124.605 45.687 126.132 48.272 126.003 51.132C126.077 52.9378 125.387 54.6795 124.264 55.9995C122.912 57.5395 120.98 58.1995 117.714 58.1995C116.904 58.1995 116.095 58.1262 115.212 57.9337ZM143.06 39.9395L134.302 61.0137H137.788L140.337 54.6795H148.037L150.586 61.0137H154.091L145.378 39.9395H143.051H143.06ZM146.814 51.8745H141.468L144.219 45.1553L146.823 51.8745H146.814ZM18.4828 48.327L26.1832 59.9412L22.6964 61.527L13.984 48.0612L14.6464 46.5945H14.766C17.9768 46.2003 20.0376 44.202 20.0376 41.4612C20.0376 38.4545 18.446 37.0612 14.6188 37.0612C13.8092 37.0612 11.408 37.1345 10.672 37.1345V60.9403H6.89079V34.3937H7.08399C7.15759 34.3937 13.3676 34.2012 14.6372 34.2012C17.112 34.2012 23.8096 34.2012 23.8096 41.1403C23.8096 46.0078 19.7892 47.7403 18.4644 48.327H18.4828Z" fill="white"/>
</svg>
