<svg width="137" height="94" viewBox="0 0 137 94" fill="none" xmlns="http://www.w3.org/2000/svg">
<path d="M22.7029 26.1631H5.87143V52.3969H22.7029V26.1631Z" fill="white"/>
<path d="M32.1911 26.1631H24.7148V33.6439H32.1911V26.1631Z" fill="white"/>
<path d="M32.1911 35.54H24.7148V43.0209H32.1911V35.54Z" fill="white"/>
<path d="M32.1911 44.916H24.7148V52.3968H32.1911V44.916Z" fill="white"/>
<path d="M60.6166 47.901V52.3973H42.3134V26.0146H60.2878V30.511H47.4411V36.8638H58.5421V41.0233H47.4411V47.8932H60.6245L60.6166 47.901Z" fill="white"/>
<path d="M65.5173 52.3973V26.0146H75.0995C77.2523 26.0146 79.139 26.3593 80.7595 27.0565C82.3801 27.7536 83.7344 28.6936 84.8226 29.8765C85.9107 31.0671 86.7249 32.4615 87.2729 34.0595C87.8131 35.6575 88.0871 37.3573 88.0871 39.1668C88.0871 41.1721 87.7818 42.9895 87.179 44.611C86.5683 46.2325 85.6994 47.619 84.5642 48.7705C83.4291 49.922 82.0591 50.815 80.4621 51.4495C78.865 52.084 77.0801 52.3973 75.0995 52.3973H65.5173ZM82.9359 39.1668C82.9359 37.9056 82.7637 36.7385 82.4192 35.6732C82.0747 34.6078 81.5659 33.6913 80.9005 32.9236C80.235 32.156 79.4052 31.5606 78.4345 31.1376C77.4559 30.7146 76.3521 30.5031 75.1151 30.5031H70.6607V47.8932H75.1151C76.3755 47.8932 77.495 47.6738 78.4736 47.2273C79.4522 46.7808 80.2663 46.1698 80.9239 45.3865C81.5815 44.6031 82.0826 43.6866 82.427 42.6213C82.7715 41.556 82.9437 40.4045 82.9437 39.1668H82.9359Z" fill="white"/>
<path d="M114.493 52.3973V34.9368L107.705 52.4678H104.911L98.1155 34.9368V52.3973H92.9878V26.0146H98.4834L106.281 46.1855L114.156 26.0146H119.613V52.3973H114.485H114.493Z" fill="white"/>
<path d="M126.001 52.3973V26.0146H131.129V52.3973H126.001Z" fill="white"/>
<path d="M14.7725 62.6035L15.7667 66.6847L16.7766 62.6035H17.7552L18.7729 66.6612L19.8298 62.6035H20.6987L19.1957 67.7813H18.2954L17.2385 63.7707L16.2208 67.7813H15.3205L13.8253 62.6035H14.7803H14.7725Z" fill="white"/>
<path d="M22.4132 62.6035L23.4074 66.6847L24.4173 62.6035H25.3959L26.4136 66.6612L27.4705 62.6035H28.3394L26.8363 67.7813H25.9361L24.8792 63.7707L23.8615 67.7813H22.9612L21.4659 62.6035H22.421H22.4132Z" fill="white"/>
<path d="M30.0617 62.6035L31.0559 66.6847L32.0658 62.6035H33.0444L34.0621 66.6612L35.119 62.6035H35.9879L34.4849 67.7813H33.5846L32.5277 63.7707L31.51 67.7813H30.6097L29.1145 62.6035H30.0695H30.0617Z" fill="white"/>
<path d="M36.9743 66.7324H37.9842V67.7899H36.9743V66.7324Z" fill="white"/>
<path d="M43.2059 62.7448C43.5503 62.9172 43.8087 63.1443 43.9887 63.4185C44.161 63.677 44.2784 63.9825 44.3332 64.335C44.3802 64.57 44.4115 64.9538 44.4115 65.4787H40.6459C40.6616 66.0035 40.7869 66.4265 41.0139 66.7477C41.2409 67.0688 41.601 67.2255 42.0864 67.2255C42.5405 67.2255 42.9006 67.0767 43.1667 66.7712C43.3155 66.5988 43.4251 66.3952 43.4877 66.1602H44.341C44.3175 66.3482 44.2471 66.5597 44.114 66.7947C43.9809 67.0297 43.8478 67.2177 43.6913 67.3665C43.4329 67.625 43.1041 67.7973 42.7205 67.8913C42.5091 67.9462 42.2743 67.9697 42.0159 67.9697C41.374 67.9697 40.8338 67.7347 40.3876 67.2647C39.9414 66.7947 39.7222 66.1367 39.7222 65.2907C39.7222 64.4447 39.9492 63.7867 40.3954 63.2618C40.8417 62.7448 41.4288 62.4863 42.1569 62.4863C42.5248 62.4863 42.8771 62.5725 43.2215 62.7448H43.2059ZM43.519 64.7815C43.4799 64.4055 43.4016 64.1 43.2763 63.8807C43.0415 63.4577 42.6422 63.254 42.0942 63.254C41.695 63.254 41.3662 63.395 41.1 63.6848C40.8338 63.9747 40.6929 64.3428 40.6694 64.7815H43.519Z" fill="white"/>
<path d="M48.8581 62.7605C49.0147 62.8545 49.1869 63.0268 49.3826 63.2697V60.6533H50.2203V67.7817H49.4374V67.061C49.2339 67.3822 48.999 67.6093 48.7172 67.7503C48.4432 67.8913 48.1222 67.9618 47.7699 67.9618C47.1985 67.9618 46.6974 67.719 46.2747 67.2333C45.8519 66.7477 45.6406 66.1053 45.6406 65.2985C45.6406 64.5465 45.8284 63.8885 46.212 63.3402C46.5956 62.7918 47.1437 62.5098 47.8561 62.5098C48.2475 62.5098 48.5841 62.596 48.8503 62.7605H48.8581ZM46.9166 66.6458C47.1515 67.0218 47.5272 67.2098 48.0439 67.2098C48.4432 67.2098 48.772 67.0375 49.0303 66.6928C49.2887 66.3482 49.4218 65.8468 49.4218 65.1967C49.4218 64.5465 49.2887 64.0608 49.0225 63.7397C48.7563 63.4263 48.4275 63.2697 48.0361 63.2697C47.5977 63.2697 47.2454 63.4342 46.9714 63.771C46.6974 64.1078 46.5643 64.6013 46.5643 65.2515C46.5643 65.8077 46.6818 66.2698 46.9166 66.6458Z" fill="white"/>
<path d="M52.013 62.6038H52.8742V63.3402C53.0777 63.0817 53.2656 62.9015 53.4378 62.784C53.7275 62.5882 54.0485 62.4863 54.4164 62.4863C54.8313 62.4863 55.1601 62.5882 55.4106 62.7919C55.5515 62.9094 55.6846 63.0817 55.7942 63.301C55.9899 63.0268 56.217 62.8153 56.4753 62.6822C56.7337 62.549 57.0311 62.4785 57.3521 62.4785C58.0489 62.4785 58.5186 62.7292 58.7769 63.2305C58.91 63.5047 58.9805 63.865 58.9805 64.3272V67.7738H58.0802V64.1783C58.0802 63.8337 57.9941 63.5987 57.8218 63.4655C57.6496 63.3323 57.4382 63.2697 57.1877 63.2697C56.8433 63.2697 56.5536 63.3872 56.3031 63.6143C56.0526 63.8415 55.9351 64.2253 55.9351 64.758V67.7738H55.0505V64.3898C55.0505 64.0373 55.0114 63.7788 54.9253 63.6222C54.7922 63.3793 54.5495 63.2618 54.1894 63.2618C53.8606 63.2618 53.5631 63.3872 53.2891 63.6457C53.0151 63.9042 52.882 64.3585 52.882 65.0322V67.7817H52.013V62.6038Z" fill="white"/>
<path d="M60.7575 60.6768H61.6422V61.6638H60.7575V60.6768ZM60.7575 62.6273H61.6422V67.7816H60.7575V62.6273Z" fill="white"/>
<path d="M63.2235 64.5781H65.6504V65.4711H63.2235V64.5781Z" fill="white"/>
<path d="M67.2396 62.6038H68.1007V63.3402C68.3043 63.0817 68.4922 62.9015 68.6644 62.784C68.9541 62.5882 69.275 62.4863 69.643 62.4863C70.0579 62.4863 70.3867 62.5882 70.6372 62.7919C70.7781 62.9094 70.9112 63.0817 71.0208 63.301C71.2165 63.0268 71.4435 62.8153 71.7019 62.6822C71.9602 62.549 72.2577 62.4785 72.5787 62.4785C73.2754 62.4785 73.7451 62.7292 74.0035 63.2305C74.1366 63.5047 74.207 63.865 74.207 64.3272V67.7738H73.3067V64.1783C73.3067 63.8337 73.2206 63.5987 73.0484 63.4655C72.8762 63.3323 72.6648 63.2697 72.4143 63.2697C72.0698 63.2697 71.7802 63.3872 71.5297 63.6143C71.287 63.8415 71.1617 64.2253 71.1617 64.758V67.7738H70.2771V64.3898C70.2771 64.0373 70.2379 63.7788 70.1518 63.6222C70.0187 63.3793 69.776 63.2618 69.4159 63.2618C69.0871 63.2618 68.7896 63.3872 68.5156 63.6457C68.2495 63.9042 68.1086 64.3585 68.1086 65.0322V67.7817H67.2396V62.6038Z" fill="white"/>
<path d="M79.186 62.7448C79.5304 62.9172 79.7888 63.1443 79.9688 63.4185C80.1411 63.677 80.2585 63.9825 80.3133 64.335C80.3603 64.57 80.3916 64.9538 80.3916 65.4787H76.626C76.6417 66.0035 76.767 66.4265 76.994 66.7477C77.221 67.0688 77.5811 67.2255 78.0665 67.2255C78.5206 67.2255 78.8807 67.0767 79.1468 66.7712C79.2956 66.5988 79.4052 66.3952 79.4678 66.1602H80.3211C80.2976 66.3482 80.2272 66.5597 80.0941 66.7947C79.961 67.0297 79.8279 67.2177 79.6714 67.3665C79.413 67.625 79.0842 67.7973 78.7006 67.8913C78.4892 67.9462 78.2544 67.9697 77.996 67.9697C77.3541 67.9697 76.8139 67.7347 76.3677 67.2647C75.9215 66.7947 75.7023 66.1367 75.7023 65.2907C75.7023 64.4447 75.9293 63.7867 76.3755 63.2618C76.8218 62.7448 77.4089 62.4863 78.137 62.4863C78.5049 62.4863 78.8572 62.5725 79.2016 62.7448H79.186ZM79.4991 64.7815C79.46 64.4055 79.3817 64.1 79.2564 63.8807C79.0216 63.4577 78.6223 63.254 78.0743 63.254C77.6751 63.254 77.3463 63.395 77.0801 63.6848C76.8139 63.9747 76.673 64.3428 76.6495 64.7815H79.4991Z" fill="white"/>
<path d="M82.1608 61.1543H83.0376V62.6035H83.8675V63.3163H83.0376V66.7003C83.0376 66.8805 83.1003 66.998 83.2177 67.0606C83.2882 67.0998 83.3978 67.1155 83.5543 67.1155C83.5935 67.1155 83.6404 67.1155 83.6874 67.1155C83.7344 67.1155 83.7892 67.1155 83.8596 67.0998V67.7891C83.7579 67.8205 83.6561 67.8361 83.5465 67.8518C83.4369 67.8675 83.3195 67.8675 83.1942 67.8675C82.7871 67.8675 82.5131 67.7656 82.3644 67.5541C82.2156 67.3426 82.1452 67.0763 82.1452 66.7473V63.3163H81.4406V62.6035H82.1452V61.1543H82.1608Z" fill="white"/>
<path d="M88.4315 62.7448C88.776 62.9172 89.0343 63.1443 89.2144 63.4185C89.3866 63.677 89.5041 63.9825 89.5589 64.335C89.6058 64.57 89.6371 64.9538 89.6371 65.4787H85.8716C85.8873 66.0035 86.0125 66.4265 86.2395 66.7477C86.4666 67.0688 86.8267 67.2255 87.3121 67.2255C87.7661 67.2255 88.1262 67.0767 88.3924 66.7712C88.5411 66.5988 88.6507 66.3952 88.7134 66.1602H89.5667C89.5432 66.3482 89.4727 66.5597 89.3397 66.7947C89.2144 67.0297 89.0735 67.2177 88.9169 67.3665C88.6586 67.625 88.3298 67.7973 87.9462 67.8913C87.7348 67.9462 87.4999 67.9697 87.2416 67.9697C86.5997 67.9697 86.0595 67.7347 85.6133 67.2647C85.167 66.7947 84.9478 66.1367 84.9478 65.2907C84.9478 64.4447 85.1749 63.7867 85.6211 63.2618C86.0673 62.7448 86.6545 62.4863 87.3825 62.4863C87.7505 62.4863 88.1027 62.5725 88.4472 62.7448H88.4315ZM88.7447 64.7815C88.7055 64.4055 88.6273 64.1 88.502 63.8807C88.2671 63.4577 87.8679 63.254 87.3199 63.254C86.9206 63.254 86.5918 63.395 86.3257 63.6848C86.0595 63.9747 85.9186 64.3428 85.8951 64.7815H88.7447Z" fill="white"/>
<path d="M91.2577 62.6038H92.0875V63.4968C92.1579 63.3245 92.3223 63.113 92.5885 62.8623C92.8547 62.6117 93.16 62.4863 93.5045 62.4863C93.5201 62.4863 93.5514 62.4863 93.5827 62.4863C93.6141 62.4863 93.6845 62.4942 93.7785 62.502V63.4185C93.7237 63.4107 93.6767 63.4028 93.6375 63.4028C93.5984 63.4028 93.5436 63.4028 93.4966 63.4028C93.0582 63.4028 92.7216 63.5438 92.4867 63.8258C92.2519 64.1078 92.1345 64.4368 92.1345 64.7972V67.7738H91.2655V62.596L91.2577 62.6038Z" fill="white"/>
<path d="M95.5477 66.1602C95.5712 66.45 95.6495 66.6694 95.7669 66.826C95.9939 67.108 96.3775 67.249 96.9334 67.249C97.2622 67.249 97.5518 67.1785 97.8023 67.0375C98.0529 66.8965 98.1781 66.6772 98.1781 66.3874C98.1781 66.168 98.0763 65.9957 97.8806 65.8782C97.7554 65.8077 97.497 65.7215 97.1213 65.6354L96.4167 65.463C95.9705 65.3534 95.6338 65.228 95.4225 65.0949C95.0467 64.8599 94.851 64.5309 94.851 64.1157C94.851 63.6222 95.031 63.2305 95.3911 62.925C95.7513 62.6195 96.2288 62.4707 96.8316 62.4707C97.6223 62.4707 98.1938 62.6979 98.5382 63.16C98.7574 63.4499 98.8592 63.7632 98.8592 64.1H98.0372C98.0215 63.9042 97.9511 63.724 97.8258 63.5674C97.6223 63.3402 97.27 63.2227 96.7611 63.2227C96.4245 63.2227 96.1662 63.2854 95.9939 63.4107C95.8217 63.536 95.7356 63.7005 95.7356 63.9042C95.7356 64.1314 95.853 64.3115 96.0801 64.4447C96.2131 64.523 96.401 64.5935 96.6594 64.6562L97.2465 64.7972C97.8806 64.946 98.3112 65.0949 98.5304 65.2359C98.867 65.4552 99.0393 65.8077 99.0393 66.2855C99.0393 66.7634 98.8592 67.1472 98.5069 67.484C98.1546 67.8209 97.6145 67.9854 96.8864 67.9854C96.1035 67.9854 95.5555 67.813 95.2267 67.4605C94.9058 67.108 94.7257 66.6772 94.7022 66.1602H95.5399H95.5477Z" fill="white"/>
<path d="M100.683 66.7324H101.693V67.7899H100.683V66.7324Z" fill="white"/>
<path d="M107.142 62.8781C107.51 63.1601 107.729 63.6536 107.799 64.3429H106.954C106.899 64.0217 106.782 63.7554 106.602 63.5439C106.422 63.3324 106.124 63.2306 105.717 63.2306C105.161 63.2306 104.77 63.5047 104.527 64.0452C104.371 64.3977 104.292 64.8286 104.292 65.3456C104.292 65.8626 104.402 66.3012 104.621 66.6537C104.84 67.0062 105.185 67.1864 105.654 67.1864C106.015 67.1864 106.304 67.0767 106.516 66.8574C106.727 66.6381 106.876 66.3326 106.954 65.9566H107.799C107.705 66.6459 107.463 67.1472 107.071 67.4606C106.688 67.7817 106.187 67.9384 105.584 67.9384C104.911 67.9384 104.371 67.6877 103.963 67.1942C103.564 66.7007 103.361 66.0819 103.361 65.3377C103.361 64.4291 103.58 63.7241 104.026 63.2149C104.472 62.7057 105.028 62.4551 105.717 62.4551C106.304 62.4551 106.774 62.5961 107.142 62.8781Z" fill="white"/>
<path d="M112.919 63.1209C113.373 63.5674 113.608 64.2176 113.608 65.0871C113.608 65.9566 113.405 66.6146 113.005 67.1551C112.606 67.6956 111.98 67.9697 111.127 67.9697C110.422 67.9697 109.858 67.7269 109.443 67.2491C109.029 66.7634 108.817 66.1211 108.817 65.3064C108.817 64.4369 109.036 63.7476 109.475 63.2306C109.913 62.7136 110.5 62.4551 111.244 62.4551C111.909 62.4551 112.465 62.6744 112.927 63.1209H112.919ZM112.379 66.5676C112.591 66.1289 112.7 65.6432 112.7 65.1106C112.7 64.6249 112.622 64.2332 112.473 63.9356C112.23 63.4577 111.815 63.2227 111.221 63.2227C110.696 63.2227 110.312 63.4264 110.07 63.8337C109.827 64.2411 109.71 64.7267 109.71 65.3064C109.71 65.8861 109.827 66.3169 110.07 66.6851C110.312 67.0532 110.688 67.2334 111.205 67.2334C111.776 67.2334 112.168 67.0141 112.379 66.5754V66.5676Z" fill="white"/>
<path d="M115.166 62.6038H116.027V63.3402C116.231 63.0817 116.419 62.9015 116.591 62.784C116.881 62.5882 117.202 62.4863 117.569 62.4863C117.984 62.4863 118.313 62.5882 118.564 62.7919C118.705 62.9094 118.838 63.0817 118.947 63.301C119.143 63.0268 119.37 62.8153 119.628 62.6822C119.887 62.549 120.184 62.4785 120.505 62.4785C121.202 62.4785 121.672 62.7292 121.93 63.2305C122.063 63.5047 122.134 63.865 122.134 64.3272V67.7738H121.233V64.1783C121.233 63.8337 121.147 63.5987 120.975 63.4655C120.803 63.3323 120.591 63.2697 120.341 63.2697C119.996 63.2697 119.707 63.3872 119.456 63.6143C119.206 63.8415 119.088 64.2253 119.088 64.758V67.7738H118.204V64.3898C118.204 64.0373 118.164 63.7788 118.078 63.6222C117.945 63.3793 117.703 63.2618 117.342 63.2618C117.014 63.2618 116.716 63.3872 116.442 63.6457C116.176 63.9042 116.035 64.3585 116.035 65.0322V67.7817H115.166V62.6038Z" fill="white"/>
</svg>
