<svg width="155" height="106" viewBox="0 0 155 106" fill="none" xmlns="http://www.w3.org/2000/svg">
<path d="M90.334 34.0878C90.0151 33.1956 89.6166 32.2946 89.1471 31.3759C88.3323 29.7683 82.7434 21.8359 82.7257 21.8094C81.84 20.7759 80.29 20.6434 79.2449 21.5356C78.2086 22.4101 78.0846 23.9648 78.9614 24.9983C79.0943 25.1573 83.6911 31.5791 84.6034 33.3369C85.064 34.2114 85.4271 35.0329 85.6663 35.7219C85.9054 36.4021 85.994 36.9498 85.9851 37.1971C85.9851 38.1511 85.7726 39.0521 85.3651 39.9001C84.7629 41.1544 83.7266 42.2851 82.3714 43.0889C81.0163 43.9016 79.3511 44.3874 77.5443 44.3874C75.1263 44.3874 73.0537 43.4246 71.4683 42.1703C69.9094 40.9336 67.7571 36.8703 70.5117 32.4624C71.3974 31.0403 82.4334 16.5271 83.6823 14.9371C84.3111 14.1421 84.8514 13.4796 85.2234 13.0291C85.4094 12.8083 85.56 12.6316 85.6574 12.5079C85.7017 12.4461 85.746 12.4019 85.7637 12.3754L85.7991 12.3489C86.6849 11.3066 86.552 9.75192 85.5246 8.86859C84.4794 7.99409 82.9206 8.11776 82.0437 9.16009C82.0171 9.18659 79.2537 12.4196 76.4549 16.3946C75.0554 18.3821 67.7394 28.6376 66.3843 30.5809C64.7546 32.9306 64.2231 35.7749 64.17 37.1971C64.108 38.9019 64.5597 40.5449 65.2683 42.0113C66.3223 44.2196 68.0494 46.0481 70.1751 47.3113C72.3009 48.5833 74.834 49.3164 77.5443 49.3164C81.1491 49.3164 84.444 48.0268 86.8886 45.8714C88.102 44.7938 89.1117 43.4864 89.8114 42.0201C90.5111 40.5538 90.9097 38.9108 90.9097 37.2059C90.9097 36.1194 90.6529 35.1124 90.3074 34.0878" fill="white"/>
<path d="M94.6031 50.0851C93.2657 48.7512 91.3969 47.9209 89.3597 47.9209C89.0054 47.9209 88.6866 47.9562 88.3766 48.0092C88.0577 48.0622 87.7566 48.1329 87.4377 48.2124C86.8089 48.3714 86.1534 48.5922 85.4714 48.8396C84.1074 49.3342 82.646 49.9791 81.2643 50.6062C79.794 51.2776 78.4566 51.9401 77.5 52.4171C76.5434 51.9401 75.1971 51.2776 73.7357 50.6062C72.354 49.9702 70.8837 49.3342 69.5286 48.8396C68.8466 48.5922 68.1911 48.3714 67.5623 48.2124C67.2434 48.1329 66.9423 48.0534 66.6234 48.0092C66.3134 47.9562 65.9946 47.9209 65.6403 47.9209C63.6031 47.9209 61.7343 48.7512 60.4057 50.0851C59.0683 51.4189 58.2357 53.2739 58.2357 55.3056C58.2357 57.3372 59.0683 59.2011 60.4057 60.5349C61.7343 61.8687 63.6031 62.6991 65.6403 62.6991C65.9946 62.6991 66.3134 62.6637 66.6234 62.6107C67.208 62.5136 67.7837 62.3546 68.3949 62.1691C69.4666 61.8246 70.618 61.3741 71.7871 60.8794C73.036 60.3494 74.2937 59.7664 75.392 59.2276C72.912 56.2066 68.944 56.8956 67.3231 57.3372C66.9334 57.4697 66.5614 57.5846 66.2691 57.6641C66.0743 57.7082 65.9149 57.7436 65.7997 57.7612C65.7466 57.7701 65.6934 57.7789 65.6669 57.7789H65.6314C64.9406 57.7789 64.3383 57.5051 63.8866 57.0546C63.4349 56.6041 63.1603 55.9946 63.1603 55.3056C63.1603 54.6166 63.4349 54.0159 63.8866 53.5654C64.3383 53.1149 64.9494 52.8411 65.6403 52.8411C65.6491 52.8411 65.7377 52.8411 65.8617 52.8676C66.1186 52.9117 66.5171 53.0177 66.9954 53.1679C67.8191 53.4329 68.8643 53.8392 69.9271 54.2986C70.1397 54.3957 70.9634 54.7756 72.0351 55.2791C73.6826 56.0564 75.9323 57.1341 77.5089 57.8761C79.0766 57.1341 81.3263 56.0564 82.9737 55.2791C84.0454 54.7667 84.8603 54.3869 85.0817 54.2986C86.1446 53.8481 87.1897 53.4329 88.0134 53.1679C88.4917 53.0177 88.8903 52.9117 89.1383 52.8676C89.2623 52.8499 89.3509 52.8411 89.3686 52.8411C90.0594 52.8411 90.6617 53.1149 91.1223 53.5654C91.574 54.0247 91.8486 54.6254 91.8486 55.3056C91.8486 55.9857 91.5829 56.6041 91.1223 57.0546C90.6617 57.5051 90.0683 57.7789 89.3686 57.7789H89.3331C89.3331 57.7789 89.2534 57.7701 89.2003 57.7524C89.0851 57.7347 88.9257 57.6994 88.7309 57.6552C88.4297 57.5846 88.0754 57.4697 87.6769 57.3284C86.056 56.8867 82.0791 56.1977 79.608 59.2187C80.7151 59.7487 81.964 60.3317 83.2129 60.8706C84.382 61.3741 85.5334 61.8246 86.6051 62.1602C87.2163 62.3457 87.792 62.5047 88.3854 62.6019C88.6954 62.6549 89.0143 62.6902 89.3686 62.6902C91.4057 62.6902 93.2746 61.8599 94.6031 60.5261C95.9317 59.2011 96.7643 57.3372 96.7643 55.2967C96.7643 53.2562 95.9317 51.4012 94.6031 50.0762" fill="white"/>
<path d="M81.22 36.8263C81.22 38.8844 79.5549 40.5451 77.5 40.5451C75.4451 40.5451 73.7711 38.8844 73.7711 36.8263C73.7711 34.7681 75.4363 33.1074 77.5 33.1074C79.5637 33.1074 81.22 34.7769 81.22 36.8263Z" fill="white"/>
<path d="M56.6503 70.6846H57.7751V74.5536H57.8017C58.2003 73.8646 58.9177 73.4317 59.9186 73.4317C61.4597 73.4317 62.5314 74.7126 62.5314 76.5764C62.5314 78.8024 61.1231 79.8977 59.7414 79.8977C58.8469 79.8977 58.1383 79.5532 57.6689 78.7317H57.6423L57.5803 79.7564H56.606C56.6414 79.3324 56.6591 78.7052 56.6591 78.1576V70.6846H56.6503ZM57.7751 77.2742C57.7751 77.4156 57.784 77.5569 57.8106 77.6806C58.032 78.4579 58.6963 78.9967 59.5023 78.9967C60.698 78.9967 61.3889 78.0427 61.3889 76.6206C61.3889 75.3662 60.7511 74.3062 59.5466 74.3062C58.776 74.3062 58.0586 74.8451 57.846 75.6842C57.8106 75.8256 57.784 75.9757 57.784 76.1612V77.2742H57.7751Z" fill="white"/>
<path d="M68.8111 78.0694C68.8111 78.7054 68.82 79.2707 68.8643 79.7566H67.8634L67.8014 78.7496H67.7749C67.4914 79.2442 66.8271 79.8979 65.7289 79.8979C64.7546 79.8979 63.5854 79.3502 63.5854 77.1861V73.5732H64.7103V76.9829C64.7103 78.1577 65.0823 78.9616 66.092 78.9616C66.8449 78.9616 67.3763 78.4404 67.58 77.9281C67.642 77.7779 67.6863 77.5747 67.6863 77.3539V73.5732H68.8111V78.0694Z" fill="white"/>
<path d="M70.2017 78.6168C70.5471 78.82 71.1406 79.0496 71.6986 79.0496C72.5046 79.0496 72.8943 78.6521 72.8943 78.131C72.8943 77.6098 72.5754 77.3006 71.7517 76.9915C70.6269 76.5851 70.0954 75.9845 70.0954 75.2425C70.0954 74.2443 70.9191 73.4316 72.2389 73.4316C72.8677 73.4316 73.4169 73.5995 73.7534 73.8115L73.4877 74.6153C73.2397 74.474 72.7969 74.2531 72.2211 74.2531C71.5569 74.2531 71.1937 74.633 71.1937 75.1011C71.1937 75.6223 71.5569 75.852 72.3629 76.1611C73.4257 76.5586 73.9926 77.0975 73.9926 78.025C73.9926 79.1203 73.1334 79.8888 71.6897 79.8888C71.0077 79.8888 70.3789 79.7121 69.9449 79.456L70.2106 78.6168H70.2017Z" fill="white"/>
<path d="M75.6489 72.433C75.2237 72.433 74.9403 72.0973 74.9403 71.7087C74.9403 71.32 75.2326 70.9932 75.6666 70.9932C76.1006 70.9932 76.384 71.3112 76.384 71.7087C76.384 72.1062 76.1006 72.433 75.6577 72.433H75.6489ZM75.1086 73.5725H76.2334V79.7558H75.1086V73.5725Z" fill="white"/>
<path d="M77.7923 75.2425C77.7923 74.5888 77.7834 74.0765 77.7391 73.573H78.74L78.802 74.58H78.8286C79.1386 74.0058 79.856 73.4316 80.8746 73.4316C81.7337 73.4316 83.0623 73.944 83.0623 76.064V79.7563H81.9374V76.1876C81.9374 75.1895 81.5654 74.3503 80.5026 74.3503C79.7763 74.3503 79.1917 74.8715 78.988 75.4986C78.9349 75.64 78.9083 75.8431 78.9083 76.0198V79.7475H77.7834V75.2336L77.7923 75.2425Z" fill="white"/>
<path d="M85.2234 76.859C85.25 78.3784 86.2066 79.0055 87.3403 79.0055C88.1463 79.0055 88.6511 78.8642 89.0586 78.6963L89.2623 79.4913C88.8637 79.668 88.1729 79.8889 87.1897 79.8889C85.2943 79.8889 84.1429 78.6257 84.1429 76.7707C84.1429 74.9157 85.2589 73.4229 87.0657 73.4229C89.094 73.4229 89.6166 75.1983 89.6166 76.3378C89.6166 76.5675 89.6077 76.7442 89.5811 76.8767H85.2411L85.2234 76.859ZM88.5094 76.0463C88.5183 75.3397 88.2171 74.2178 86.9594 74.2178C85.808 74.2178 85.3209 75.269 85.2323 76.0463H88.5094Z" fill="white"/>
<path d="M90.52 78.6168C90.8654 78.82 91.4589 79.0496 92.0169 79.0496C92.8229 79.0496 93.2126 78.6521 93.2126 78.131C93.2126 77.6098 92.8937 77.3006 92.07 76.9915C90.9451 76.5851 90.4137 75.9845 90.4137 75.2425C90.4137 74.2443 91.2374 73.4316 92.5571 73.4316C93.186 73.4316 93.7351 73.5995 94.0717 73.8115L93.806 74.6153C93.558 74.474 93.1151 74.2531 92.5394 74.2531C91.8751 74.2531 91.512 74.633 91.512 75.1011C91.512 75.6223 91.8751 75.852 92.6811 76.1611C93.744 76.5586 94.3109 77.0975 94.3109 78.025C94.3109 79.1203 93.4517 79.8888 92.008 79.8888C91.326 79.8888 90.6971 79.7121 90.2631 79.456L90.5289 78.6168H90.52Z" fill="white"/>
<path d="M95.2763 78.6168C95.6217 78.82 96.2151 79.0496 96.7731 79.0496C97.5791 79.0496 97.9689 78.6521 97.9689 78.131C97.9689 77.6098 97.65 77.3006 96.8263 76.9915C95.7014 76.5851 95.17 75.9845 95.17 75.2425C95.17 74.2443 95.9937 73.4316 97.3134 73.4316C97.9423 73.4316 98.4914 73.5995 98.828 73.8115L98.5623 74.6153C98.3143 74.474 97.8714 74.2531 97.2957 74.2531C96.6314 74.2531 96.2683 74.633 96.2683 75.1011C96.2683 75.6223 96.6314 75.852 97.4374 76.1611C98.5003 76.5586 99.0671 77.0975 99.0671 78.025C99.0671 79.1203 98.208 79.8888 96.7643 79.8888C96.0823 79.8888 95.4534 79.7121 95.0194 79.456L95.2851 78.6168H95.2763Z" fill="white"/>
<path fill-rule="evenodd" clip-rule="evenodd" d="M113.938 90.8067C113.894 89.6583 113.079 88.8368 111.901 88.6867C111.175 88.5895 110.502 88.6248 109.767 88.6867C109.235 88.722 108.518 88.8987 108.066 89.0488V86.9377L106.737 86.9023C106.534 88.245 106.357 89.9322 106.162 91.2042C108.261 90.1795 109.793 89.9675 110.829 90.0823C111.892 90.206 112.397 90.9303 112.353 91.902C109.758 90.9922 107.437 91.4427 105.905 93.174C104.762 94.4548 104.886 95.9918 106.374 96.8752C108.535 98.1648 110.821 97.3698 112.105 96.5572C112.787 96.9105 113.389 97.2108 113.938 97.4935V90.8155V90.8067ZM112.45 94.0838C112.45 94.9407 110.174 96.0537 108.323 96.2745C107.03 96.3717 106.578 95.8947 106.357 95.5237C106.135 95.0025 106.427 94.3842 106.844 93.9955C108.199 92.7058 110.493 92.7942 111.901 93.4743C112.14 93.5892 112.362 93.704 112.45 93.7747V94.0927V94.0838Z" fill="white"/>
<path fill-rule="evenodd" clip-rule="evenodd" d="M78.7134 85.5245C78.7134 87.9006 78.6957 92.5028 78.7134 94.8171C78.7311 96.6456 80.2014 97.794 81.9906 97.4053C83.3634 97.1138 84.1251 96.1775 84.6831 94.9055C84.0366 94.5256 83.4431 94.19 82.832 93.8278C82.77 95.3825 82.0437 96.787 81.2909 96.7075C80.9986 96.628 80.6443 96.5131 80.6443 95.5503V86.7523L78.7134 85.5156" fill="white"/>
<path fill-rule="evenodd" clip-rule="evenodd" d="M80.5911 86.4523C80.6797 84.6061 80.3786 83.7581 78.678 83.3076V86.5406" fill="white"/>
<path fill-rule="evenodd" clip-rule="evenodd" d="M65.8883 90.8067C65.8351 89.6583 65.0203 88.8368 63.8511 88.6867C63.1249 88.5895 62.4429 88.6248 61.7166 88.6867C61.1763 88.722 60.4677 88.8987 60.0071 89.0488V86.9377L58.6874 86.9023C58.4837 88.245 58.3066 89.9322 58.1117 91.2042C60.2109 90.1795 61.7343 89.9675 62.7794 90.0823C63.8334 90.206 64.3471 90.9303 64.3029 91.902C61.7077 90.9922 59.3871 91.4427 57.8549 93.174C56.7123 94.4548 56.8363 95.9918 58.3243 96.8752C60.4766 98.1648 62.7706 97.3698 64.0549 96.5572C64.7369 96.9105 65.3391 97.2108 65.8883 97.4935V90.8155V90.8067ZM64.3914 94.0838C64.3914 94.9407 62.124 96.0537 60.264 96.2745C58.9709 96.3717 58.5191 95.8947 58.2977 95.5237C58.0763 95.0025 58.3686 94.3842 58.7849 93.9955C60.1489 92.7058 62.4429 92.7942 63.8423 93.4743C64.0814 93.5892 64.294 93.704 64.3914 93.7747V94.0927V94.0838Z" fill="white"/>
<path fill-rule="evenodd" clip-rule="evenodd" d="M85.4537 87.3614V88.3684C85.4537 90.8329 85.4449 92.5024 85.4537 94.9669C85.4537 95.2584 85.2589 97.5198 87.4023 97.5198V94.1543C87.4023 91.9724 88.8549 90.1528 90.9717 89.6581C92.0611 89.4196 92.9469 89.8878 93.2746 90.9478C93.7529 92.4671 93.3454 93.8186 92.4066 95.0288C91.9991 95.5499 91.5297 96.0358 91.0691 96.5834C91.6891 96.9456 92.4863 97.3961 92.9911 97.7053C95.2497 95.8238 95.7723 92.8028 94.0894 90.5149C93.3986 89.5698 92.4863 88.9426 91.3083 88.7571C89.7583 88.5098 88.5714 89.2164 87.4731 90.3294V87.3526L87.4377 85.9923C87.2871 83.8193 86.1889 81.7964 83.4077 81.9024C85.4094 83.7839 85.4183 86.0276 85.4183 86.4958L85.4449 87.3526L85.4537 87.3614Z" fill="white"/>
<path fill-rule="evenodd" clip-rule="evenodd" d="M53.2757 86.6289V88.8372C53.2757 88.8372 53.3111 88.8726 53.3377 88.8902C56.978 89.9944 56.5794 94.0224 54.5954 96.0011C54.4891 96.1071 54.3829 96.2042 54.2766 96.3014C52.6557 97.6706 51.7789 97.8296 50.3883 95.6919C51.9294 95.4092 53.2757 94.7821 54.3651 93.6602C55.2686 92.7416 55.614 91.6462 55.1889 90.9572C54.5689 89.9414 53.5414 89.8972 52.514 89.9856C50.9197 90.1181 49.9454 91.0986 49.3254 92.4854C49.1483 92.8829 48.8029 94.0577 48.6523 94.4729C48.5814 94.4729 48.5017 94.4552 48.4486 94.4464C46.7303 93.9694 46.8631 92.9006 47.0669 92.0879C47.2883 91.2664 47.8463 90.5774 47.8551 90.5332C46.9251 89.8796 45.5966 90.0032 44.5249 90.7717C43.4974 91.5049 43.1343 92.5914 43.462 93.9871C43.9314 95.9746 45.4726 96.9021 46.2077 97.5381C44.2326 96.8932 42.5054 96.2042 41.478 94.3404C40.796 93.1037 40.9909 91.5844 41.8146 90.4714C43.1077 88.7401 46.6417 88.7401 48.7851 89.7824C48.8029 89.7912 49.848 88.9609 51.398 88.8019V86.7084" fill="white"/>
<path d="M69.4489 88.6339H67.828V95.2854C67.828 96.6104 68.3683 97.2023 69.6437 97.4584V94.1194C69.6437 92.1761 70.2194 90.6038 72.0883 89.8529C73.5763 89.2611 75.1706 90.0031 75.2503 91.7963C75.3123 93.2273 75.0554 94.2078 74.028 95.2413C73.718 95.5504 73.3283 95.9656 73.0271 96.2129C73.7003 96.6369 74.3203 97.0609 75.1351 97.5909C75.6931 96.4426 76.3309 95.4356 76.6674 94.3403C77.2786 92.2909 76.4991 90.2769 74.8871 89.1551C73.594 88.2541 72.1237 88.2629 70.2814 89.5968C70.1751 89.6674 69.8209 89.9854 69.6703 90.0738L69.4489 88.6339Z" fill="white"/>
<path fill-rule="evenodd" clip-rule="evenodd" d="M104.257 90.7096C104.08 89.6761 102.849 88.7398 101.521 88.7133C100.971 88.7133 99.4569 88.8635 98.208 89.6938L98.0309 88.6338H96.4189V95.2853C96.4189 96.6103 96.9503 97.2021 98.2346 97.4583V94.1193C98.2346 92.5911 98.3674 91.4605 99.4657 90.3475C99.7757 90.056 99.9883 89.9235 100.422 89.7203C101.202 89.3493 102.141 89.4023 102.406 90.0118C102.619 90.5153 102.318 90.9128 101.742 91.2926C101.521 91.4428 101.264 91.5135 100.954 91.6548C101.441 92.2025 101.875 92.6883 102.291 93.1653C103.637 92.5646 104.408 91.5841 104.257 90.7185" fill="white"/>
<path fill-rule="evenodd" clip-rule="evenodd" d="M113.735 87.3266H41.0883V86.0723H113.23L113.735 87.3266Z" fill="white"/>
</svg>
