<svg width="143" height="98" viewBox="0 0 143 98" fill="none" xmlns="http://www.w3.org/2000/svg">
<path d="M90.1145 70.9273C90.0492 70.2985 90.0001 69.6697 89.9266 69.0409C89.6814 67.0074 89.0359 65.0964 88.137 63.267C87.9164 62.8097 87.8919 62.4014 88.1289 61.9277C89.3709 59.4042 89.9102 56.7337 89.9021 53.9162C89.8857 44.9002 89.9021 35.876 89.8857 26.86C89.8857 25.9208 89.8776 24.9653 89.7223 24.0425C88.6845 17.7215 85.2444 13.1645 79.5244 10.3552C76.5418 8.89335 73.3631 8.44418 70.0537 8.74635C67.3571 8.99135 64.7504 9.56302 62.4134 10.935C56.4319 14.4467 53.3594 19.7632 53.196 26.6885C53.0816 31.809 53.196 36.9377 53.1633 42.0582C53.1552 43.814 53.0734 45.578 52.8855 47.3257C52.6322 49.6777 52.5668 52.0133 53.0489 54.3408C54.2828 60.2453 59.1857 67.0074 67.4061 68.4529C69.1712 68.7632 70.9607 69.0409 72.546 69.9555C73.1098 70.2822 73.5592 70.6905 74.0495 71.254C74.0904 71.2948 74.1149 71.3275 74.1639 71.3602H75.7492C75.5857 70.9273 75.3488 70.5272 75.1363 70.2414C74.262 69.0817 73.0608 68.3875 71.6798 68.0608C70.0945 67.6852 68.4684 67.4647 66.8995 67.04C57.3471 64.4838 52.3135 55.9333 54.1112 46.5008C54.9365 42.148 57.2327 38.669 60.7873 36.0475C63.8597 33.7772 67.3326 32.6828 71.1405 32.6665C72.0148 32.6665 72.2845 32.8788 72.2518 33.4587C72.2028 34.1855 71.6471 34.0548 71.165 34.112C69.8576 34.2672 68.5093 34.3243 67.2427 34.6673C59.1203 36.8723 53.7026 44.0182 55.4186 53.418C56.6934 60.3679 62.585 64.9902 68.9505 65.9865C70.6665 66.256 72.3989 66.4602 73.976 67.236C75.5612 68.0119 77.0076 68.9674 77.5877 70.7722C77.6694 71.0335 77.7675 71.2295 77.8165 71.3602H79.271C79.271 71.2458 79.2057 71.0825 79.1648 70.9192C78.8053 69.4247 78.0372 68.2078 76.8523 67.2523C74.981 65.7415 72.7829 65.031 70.4704 64.6063C67.9046 64.1409 65.4205 63.4712 63.206 62.0093C57.8292 58.4569 55.721 53.0015 56.8405 47.2603C58.0825 40.9148 64.015 35.9822 71.5654 35.5983C71.9413 35.582 72.2273 35.6882 72.2681 36.0965C72.309 36.4885 72.2191 36.8397 71.7533 36.9377C71.5736 36.9785 71.3938 37.0275 71.214 37.0438C67.6022 37.3868 64.4154 38.7017 61.727 41.1598C57.388 45.1125 56.5463 51.9235 59.8149 56.7908C62.2091 60.3597 65.6656 62.2789 69.8249 63.0302C72.0557 63.4304 74.2865 63.8795 76.2476 65.0964C78.5193 66.501 80.3252 68.5182 80.6684 71.3602H82.0248C82.0248 71.2867 82.033 71.2132 82.0248 71.1233C82.0248 70.9518 82.0248 70.7477 81.9758 70.519C81.9268 70.2822 81.8859 70.0372 81.8205 69.8004C81.0034 66.8522 79.0668 64.835 76.4764 63.3895C74.6297 62.3605 72.5705 62.0175 70.5194 61.65C67.3326 61.0865 64.4317 59.8697 62.1519 57.5014C59.725 54.986 58.6709 51.9562 59.2102 48.4527C59.6024 45.921 60.8853 43.863 62.7811 42.1888C65.2816 39.9675 68.256 38.8487 71.5409 38.4648C72.0965 38.3995 72.3744 38.7507 72.2681 39.306C72.1782 39.7552 71.8514 39.845 71.4592 39.9103C68.828 40.3105 66.4419 41.2905 64.3337 42.9483C60.5258 45.9455 59.6024 51.0497 62.2418 55.0187C63.8842 57.485 66.2458 59.0448 69.0649 59.8288C70.8054 60.3107 72.6358 60.4904 74.3764 60.9885C78.029 62.042 81.0279 64.0592 82.7276 67.5872C83.2424 68.6489 83.3976 69.882 83.6836 71.0499C83.7245 71.1887 83.7408 71.2949 83.7572 71.3765H85.0319C85.0401 71.205 84.991 70.9355 84.9665 70.666C84.5988 67.4729 83.1606 64.8514 80.7746 62.7117C78.1924 60.3924 75.0791 59.347 71.737 58.8407C68.6727 58.3752 66.0006 57.1583 63.8842 54.8308C61.6126 52.3237 61.49 48.4527 63.6064 45.8148C65.6983 43.2097 68.5583 42.0337 71.7206 41.4375C71.8596 41.413 72.1292 41.6008 72.1946 41.7478C72.4806 42.4093 72.2028 42.8095 71.3856 42.9728C69.4245 43.3648 67.6513 44.1652 66.0905 45.3983C64.1702 46.9092 63.2305 48.861 63.7617 51.3273C64.1866 53.3118 65.5104 54.6593 67.1855 55.6965C69.1385 56.9052 71.3202 57.387 73.5429 57.779C77.2037 58.4242 80.3415 60.0248 82.8256 62.8423C84.7541 65.0392 85.988 67.5545 86.1841 70.5108C86.2086 70.8783 86.2004 71.1233 86.2331 71.2703C86.2413 71.3193 86.2494 71.352 86.2658 71.3847H87.7121C87.7285 68.5999 86.9685 66.0518 85.514 63.7325C82.6213 59.1184 78.2905 56.8562 73.0281 56.1457C70.7074 55.8353 68.542 55.084 66.7197 53.5487C64.5788 51.7438 64.4481 49.0897 66.401 47.0888C67.8882 45.5617 69.7922 44.8675 71.8024 44.3938C72.1864 44.304 72.3417 44.5408 72.3335 44.8757C72.3172 45.4555 72.0148 45.8067 71.4592 45.9863C70.1844 46.3947 68.975 46.9337 67.9863 47.8647C66.5726 49.204 66.5726 51.1313 68.0026 52.4625C68.3458 52.781 68.7381 53.0505 69.1385 53.2955C70.7401 54.3 72.5705 54.5205 74.3845 54.8145C79.2629 55.5985 83.1606 58.024 86.0778 62.0012C88.0226 64.6553 88.8806 67.7015 89.0196 70.96C89.0196 71.0743 89.0441 71.2459 89.0768 71.3847H90.1799C90.1799 71.2377 90.1717 71.058 90.1554 70.9437M71.5817 52.046C71.402 52.5115 71.0506 52.6912 70.6093 52.5197C69.6451 52.144 68.877 51.5233 68.4602 50.5433C68.2478 50.037 68.256 49.5143 68.6237 49.0978C69.547 48.0443 70.7646 47.5462 72.1537 47.2032C72.2518 48.9182 72.1782 50.5107 71.5817 52.046ZM72.0312 31.1557C72.0148 31.2945 71.7288 31.3925 71.5654 31.3925C71.3938 31.3925 71.0914 31.3108 71.0669 31.1802C70.9607 30.4533 71.0996 29.7592 71.5327 29.0568C72.0148 29.751 72.121 30.4452 72.0312 31.1557ZM74.9075 47.9055C74.834 49.547 74.5071 51.1885 74.262 52.8218C74.2048 53.1975 73.9514 53.3445 73.6001 53.2873C73.265 53.2302 72.9464 53.1322 72.644 53.0668C72.881 52.0052 73.2078 51.0415 73.2896 50.0533C73.453 48.0607 73.551 46.0517 73.5674 44.0508C73.6001 40.4003 73.6001 36.758 73.5347 33.1075C73.502 31.3925 73.2732 29.6857 72.6277 28.0687C72.4234 27.5542 72.26 26.8845 71.5572 26.8763C70.8463 26.8682 70.6502 27.5378 70.4786 28.0523C70.2089 28.8853 70.0537 29.751 69.8494 30.6003C69.8004 30.7963 69.8167 31.1067 69.7023 31.172C69.3591 31.3762 69.3019 31.27 68.7462 31.417C68.3213 31.515 68.1497 31.662 68.305 30.8453C68.5828 29.3345 68.7217 27.8073 69.4572 26.4272C69.6124 26.1413 69.784 25.8555 69.972 25.5942C70.9444 24.2385 72.1782 24.2548 73.1506 25.6105C73.8779 26.6313 74.2701 27.7828 74.5071 28.9997C75.0219 31.6865 74.9565 34.3733 74.981 37.1173C74.981 38.1218 74.981 39.1263 74.981 40.1227C74.9974 42.7278 75.0301 45.3167 74.9075 47.9137M77.7021 40.7352C77.7021 43.5854 77.7512 46.4355 77.6776 49.2775C77.6449 50.6332 77.3834 51.9888 77.1873 53.3445C77.0974 53.9733 76.6807 53.9325 76.1659 53.81C75.6102 53.6793 75.6674 53.4262 75.741 52.9688C75.978 51.4417 76.2966 49.8655 76.3538 48.9917C76.6644 44.206 76.5173 39.404 76.4682 34.6102C76.4437 32.0703 76.5254 29.4652 75.5122 27.056C75.0709 26.0107 74.548 24.9572 73.8534 24.0833C72.546 22.45 70.7401 22.4745 69.3019 23.9853C68.2233 25.1205 67.6513 26.517 67.3081 28.0033C67.0629 29.0487 66.973 30.1348 66.7769 31.1965C66.7279 31.4578 66.5972 31.7682 66.401 31.9233C66.2049 32.0785 65.8209 32.103 65.5594 32.0948C65.494 32.0948 65.445 31.7355 65.4613 31.5232C65.78 28.5178 66.0987 25.684 67.831 23.1687C68.5093 22.1805 69.3918 21.4373 70.5766 21.127C72.0802 20.735 73.3794 21.2005 74.4499 22.2458C76.1005 23.8465 76.8932 25.8963 77.3181 28.1013C77.8656 30.9597 77.6776 33.8507 77.6858 36.7335C77.6858 38.0647 77.6858 39.3958 77.6858 40.727M80.3742 50.1595C80.3497 51.5968 80.1536 53.0505 79.8676 54.4633C79.843 54.6022 79.5652 54.8553 79.41 54.8308C79.0749 54.7737 78.3395 54.7492 78.5029 54.0958C79.3691 50.6413 79.0177 47.1297 79.0586 43.6425C79.1076 39.7307 79.1076 35.8188 79.0586 31.8988C79.0259 29.3427 78.8952 26.7865 77.7103 24.4263C77.0484 23.1115 76.2068 21.9437 75.1118 20.9637C73.0362 19.1017 69.8249 19.1997 67.7657 21.1678C65.7882 23.0625 64.7994 25.4553 64.3582 28.085C64.1457 29.3427 64.1539 30.6493 64.0885 31.9315C64.0477 32.789 63.7535 33.0993 62.7402 33.1483C62.7157 32.5032 62.6504 31.858 62.6667 31.2128C62.7239 28.9997 62.9445 26.811 63.7372 24.7203C64.4726 22.7767 65.5185 21.0208 67.1283 19.6897C70.0537 17.2642 74.1312 17.599 76.7788 20.4655C78.9197 22.793 80.08 25.6023 80.2516 28.7302C80.4232 31.858 80.3742 34.994 80.3905 38.1218C80.4069 42.1398 80.4396 46.1578 80.3742 50.1677M83.0789 52.389C83.0626 53.5977 82.8828 54.839 82.556 56.015C82.5233 56.1293 82.2618 56.3253 82.0984 56.3253C81.5018 56.3253 81.1423 55.8435 81.2077 55.3617C81.3139 54.5123 81.4692 53.663 81.5345 52.8137C81.6816 50.8782 81.8124 48.9427 81.9104 47.0072C81.9758 45.7169 82.0248 44.4265 82.0003 43.1443C81.9431 39.3795 81.8369 35.6147 81.7797 31.8498C81.747 29.8898 81.9349 27.9217 81.4038 25.9862C80.603 23.0788 79.3037 20.4573 76.8768 18.579C72.979 15.5573 67.4225 16.3822 64.4644 20.3267C62.634 22.7603 61.5717 25.488 61.392 28.526C61.3021 30.094 61.3021 31.6783 61.2694 33.2463C61.253 33.8343 61.1141 34.3407 60.5503 34.6347C60.2153 34.8143 59.9783 34.749 59.9783 34.3325C59.9865 32.4052 59.9946 30.486 60.0355 28.5587C60.0764 26.8355 60.346 25.1368 60.9344 23.5117C61.8659 20.9392 63.3204 18.7015 65.5185 17.0437C69.3509 14.1527 75.4386 14.2017 79.1893 18.5218C81.796 21.5108 83.1116 24.9817 83.1034 28.9588C83.0953 32.8135 83.1034 36.66 83.1034 40.5147C83.1034 44.3693 83.1443 48.4282 83.0789 52.3808M85.7673 53.712C85.7592 55.133 85.277 56.554 84.9992 57.975C84.9338 58.2935 84.7296 58.3997 84.4027 58.2363C83.8797 57.9832 83.6101 57.5503 83.7898 56.995C84.4272 54.9778 84.4926 52.9035 84.4844 50.8047C84.4599 43.2015 84.558 35.5983 84.4354 27.9952C84.3537 22.7358 82.2128 18.4157 77.7021 15.541C72.3335 12.1192 64.8812 13.8995 61.3674 19.461C59.7577 22.009 58.7444 24.7203 58.6709 27.7502C58.6137 30.3308 58.581 32.9115 58.581 35.4922C58.581 36.3987 58.058 36.8397 57.2899 37.346C57.2654 37.0275 57.2409 36.8478 57.2409 36.6682C57.2409 33.7608 57.1755 30.8453 57.2572 27.938C57.3553 24.2303 58.3277 20.784 60.7219 17.8603C63.108 14.9448 66.0905 13.0257 69.8984 12.6337C75.3569 12.0783 79.6714 14.1118 82.8501 18.5708C84.8194 21.3312 85.7837 24.4427 85.7918 27.8319C85.8082 36.4558 85.8327 45.088 85.7592 53.712M87.0911 61.0539C86.2004 60.5312 86.0125 60.131 86.3066 59.2572C87.0584 57.044 87.3853 54.7818 87.3362 52.438C87.2872 49.9227 87.3117 47.3992 87.3281 44.8757C87.3526 41.2333 87.4098 37.5828 87.4098 33.9405C87.4098 31.3027 87.4506 28.6485 87.2709 26.0188C86.7888 18.922 81.7552 12.6255 74.5643 11.3433C70.2089 10.5675 66.1559 11.278 62.536 13.9077C59.0794 16.4312 57.0121 19.8857 56.1377 24.0507C55.8762 25.2757 55.7864 26.5578 55.77 27.8237C55.721 31.3925 55.7455 34.9532 55.7618 38.522C55.7618 39.6 55.2225 40.4085 54.4626 41.1762C54.4462 40.9883 54.4217 40.8005 54.4217 40.6127C54.4217 35.778 54.3073 30.9352 54.4544 26.1087C54.6015 21.274 56.6362 17.2233 60.2071 13.973C62.8792 11.5393 66.0497 10.1837 69.6206 9.80802C78.2251 8.89335 85.8245 14.0302 88.0962 22.5235C88.5048 24.0425 88.7009 25.6677 88.709 27.2438C88.7581 36.2598 88.7336 45.2759 88.709 54.2919C88.709 56.4887 88.2188 58.5875 87.3362 60.5965C87.2709 60.7435 87.181 60.8742 87.0829 61.0457" fill="white"/>
<path d="M44.9265 79.355C44.7631 79.8859 44.5261 80.3269 44.2074 80.678L45.2697 81.6825L44.2564 82.736L43.1451 81.6825C42.8019 81.8867 42.5078 82.0337 42.2626 82.1154C41.8459 82.2542 41.3474 82.3195 40.7754 82.3195C39.566 82.3195 38.5691 81.9602 37.7847 81.2415C36.8286 80.3759 36.3465 79.1019 36.3465 77.4195C36.3465 75.7372 36.8368 74.4469 37.8174 73.5812C38.6182 72.8707 39.6151 72.5195 40.7999 72.5195C41.9848 72.5195 43.0062 72.8952 43.8152 73.6465C44.7549 74.5122 45.2207 75.729 45.2207 77.2807C45.2207 78.1055 45.1226 78.7997 44.9183 79.355M41.4128 80.6045C41.5272 80.5719 41.6743 80.5229 41.8459 80.4494L40.9062 79.5592L41.9031 78.522L42.8428 79.4122C42.9899 79.11 43.0879 78.8487 43.1533 78.62C43.2432 78.277 43.2922 77.885 43.2922 77.4359C43.2922 76.3987 43.0798 75.5984 42.6548 75.0267C42.2299 74.4632 41.6089 74.1774 40.7918 74.1774C40.0236 74.1774 39.4108 74.4469 38.9532 74.994C38.4956 75.5412 38.2668 76.3497 38.2668 77.4359C38.2668 78.7017 38.5936 79.6164 39.2474 80.1635C39.6723 80.5229 40.1789 80.6944 40.7672 80.6944C40.9879 80.6944 41.2003 80.6699 41.4046 80.6127" fill="white"/>
<path d="M46.6997 72.8057H48.669V78.4897C48.669 79.1267 48.7426 79.5922 48.8978 79.8862C49.1348 80.4088 49.6414 80.662 50.4259 80.662C51.2103 80.662 51.717 80.4007 51.9458 79.8862C52.0928 79.5922 52.1746 79.1267 52.1746 78.4897V72.8057H54.1439V78.4978C54.1439 79.486 53.9886 80.2455 53.6863 80.8008C53.1143 81.8053 52.0356 82.3117 50.4259 82.3117C48.8161 82.3117 47.7375 81.8053 47.1655 80.8008C46.8631 80.2537 46.7079 79.486 46.7079 78.4978V72.8057H46.6997Z" fill="white"/>
<path d="M57.7639 72.8057H55.8436V82.0667H57.7639V72.8057Z" fill="white"/>
<path d="M60.4604 73.7781C61.204 73.0186 62.1519 72.6348 63.3122 72.6348C64.8566 72.6348 65.9843 73.1493 66.6952 74.1701C67.0874 74.7418 67.2999 75.3216 67.3326 75.9014H65.3959C65.2734 75.4604 65.1181 75.1256 64.922 74.8969C64.5788 74.4968 64.064 74.2926 63.3858 74.2926C62.7075 74.2926 62.1519 74.5784 61.7515 75.1419C61.3511 75.7054 61.155 76.5139 61.155 77.5511C61.155 78.5883 61.3674 79.3641 61.7842 79.8868C62.2009 80.4013 62.7402 80.6626 63.3858 80.6626C64.0313 80.6626 64.5543 80.4421 64.9057 79.9929C65.1018 79.7561 65.257 79.3968 65.3878 78.9149H67.3081C67.1446 79.9276 66.7197 80.7443 66.0333 81.3813C65.3551 82.0101 64.4807 82.3286 63.4103 82.3286C62.0947 82.3286 61.0569 81.9039 60.3052 81.0464C59.5534 80.1889 59.1775 79.0129 59.1775 77.5184C59.1775 75.9014 59.6106 74.6601 60.4686 73.7781" fill="white"/>
<path d="M68.9015 72.8057H70.8054V76.6195L74.3845 72.8057H76.885L73.0853 76.6113L77.0811 82.0667H74.5888L71.737 78.0242L70.8054 78.9715V82.0667H68.9015V72.8057Z" fill="white"/>
<path d="M79.557 79.2083C79.6142 79.633 79.7368 79.9515 79.9084 80.1556C80.2271 80.5395 80.7827 80.7273 81.559 80.7273C82.0248 80.7273 82.4007 80.6783 82.6948 80.5803C83.2505 80.3843 83.5201 80.0331 83.5201 79.5023C83.5201 79.2001 83.3812 78.9633 83.1116 78.7918C82.8419 78.6285 82.4088 78.4815 81.8287 78.359L80.8236 78.1385C79.8348 77.918 79.1566 77.6811 78.7889 77.428C78.1679 77.0033 77.8492 76.3336 77.8492 75.4271C77.8492 74.5941 78.1515 73.9081 78.7644 73.361C79.3772 72.8138 80.2761 72.5361 81.4528 72.5361C82.4415 72.5361 83.2832 72.7975 83.9859 73.312C84.6805 73.8265 85.0482 74.5778 85.0809 75.566H83.2178C83.1851 75.0106 82.9318 74.6105 82.4742 74.3818C82.1637 74.2266 81.7796 74.1531 81.322 74.1531C80.8072 74.1531 80.3987 74.2511 80.0963 74.4553C79.794 74.6595 79.6387 74.9371 79.6387 75.2965C79.6387 75.6231 79.7858 75.8763 80.0881 76.0396C80.2843 76.1458 80.6928 76.2765 81.322 76.4235L82.9481 76.8073C83.6591 76.9788 84.1984 77.1993 84.5497 77.477C85.1054 77.9098 85.3751 78.5468 85.3751 79.3716C85.3751 80.1965 85.0482 80.9233 84.3945 81.4786C83.7408 82.034 82.8174 82.3198 81.6244 82.3198C80.4313 82.3198 79.4426 82.0421 78.748 81.495C78.0453 80.9478 77.7021 80.1883 77.7021 79.2246H79.5488L79.557 79.2083Z" fill="white"/>
<path d="M86.7397 82.0667V72.8057H88.66V76.3337H92.2636V72.8057H94.1839V82.0667H92.2636V77.9343H88.66V82.0667H86.7397Z" fill="white"/>
<path d="M97.812 72.8057H95.8917V82.0667H97.812V72.8057Z" fill="white"/>
<path d="M105.845 78.0568C105.305 78.506 104.529 78.7347 103.524 78.7347H101.595V82.0667H99.6751V72.8057H103.655C104.57 72.8057 105.305 73.0425 105.845 73.5243C106.392 73.998 106.662 74.7412 106.662 75.7457C106.662 76.84 106.392 77.6077 105.845 78.065M104.366 74.7248C104.12 74.5207 103.777 74.4145 103.336 74.4145H101.595V77.1422H103.336C103.777 77.1422 104.12 77.0278 104.366 76.8073C104.611 76.5868 104.733 76.2357 104.733 75.7538C104.733 75.272 104.611 74.929 104.366 74.7248Z" fill="white"/>
<path d="M72.4397 84.1494V84.8517H71.1976V88.1347H70.3233V84.8517H69.0731V84.1494H72.4397Z" fill="white"/>
<path d="M74.4662 85.2439C74.6787 85.3338 74.8585 85.4808 74.9974 85.6768C75.12 85.8483 75.2017 86.0524 75.2425 86.2893C75.2671 86.4281 75.2752 86.6159 75.2671 86.8773H73.0281C73.0444 87.1713 73.1507 87.3836 73.3468 87.4979C73.4693 87.5714 73.6164 87.6123 73.788 87.6123C73.9678 87.6123 74.123 87.5633 74.2374 87.4734C74.3028 87.4244 74.3519 87.3591 74.4009 87.2693H75.218C75.1935 87.4408 75.0955 87.6204 74.9239 87.8001C74.646 88.0859 74.262 88.2329 73.7635 88.2329C73.3549 88.2329 72.9954 88.1104 72.6767 87.8736C72.3662 87.6286 72.2109 87.2366 72.2109 86.6976C72.2109 86.1913 72.3498 85.7993 72.6358 85.5216C72.9218 85.2521 73.2814 85.1133 73.739 85.1133C74.0086 85.1133 74.2456 85.1623 74.4581 85.2521M73.2651 85.9136C73.1507 86.0279 73.0771 86.1749 73.0526 86.3709H74.4417C74.4254 86.1668 74.3518 86.0116 74.2293 85.9054C74.0985 85.7993 73.9433 85.7503 73.7553 85.7503C73.5511 85.7503 73.3876 85.8074 73.2732 85.9218" fill="white"/>
<path d="M77.5142 86.2403C77.4979 86.1341 77.457 86.0279 77.3998 85.9463C77.3099 85.8238 77.171 85.7666 76.9749 85.7666C76.7052 85.7666 76.5173 85.8973 76.4192 86.1504C76.3702 86.2893 76.3375 86.4689 76.3375 86.6976C76.3375 86.9263 76.362 87.0896 76.4192 87.2203C76.5173 87.4653 76.6971 87.5878 76.9585 87.5878C77.1465 87.5878 77.2772 87.5388 77.3589 87.4408C77.4406 87.3428 77.4897 87.2203 77.506 87.0651H78.3232C78.3068 87.3019 78.2169 87.5224 78.0617 87.7266C77.8084 88.0614 77.4325 88.2329 76.9422 88.2329C76.4519 88.2329 76.0842 88.0941 75.8472 87.8083C75.6102 87.5224 75.4958 87.1631 75.4958 86.7139C75.4958 86.2076 75.6266 85.8156 75.8799 85.5379C76.1414 85.2603 76.4928 85.1133 76.9504 85.1133C77.3344 85.1133 77.6531 85.1949 77.8983 85.3583C78.1434 85.5216 78.2905 85.8156 78.3313 86.2403H77.506H77.5142Z" fill="white"/>
<path d="M81.0933 85.2026C81.2485 85.2679 81.3711 85.3659 81.4773 85.4884C81.559 85.5946 81.6162 85.7089 81.6326 85.8314C81.6489 85.9457 81.6571 86.1336 81.6571 86.4031V88.1344H80.8399V86.3377C80.8399 86.1826 80.8154 86.0519 80.7582 85.9539C80.6847 85.8151 80.5458 85.7497 80.3415 85.7497C80.1372 85.7497 79.9738 85.8151 79.8594 85.9539C79.7531 86.0927 79.6959 86.2806 79.6959 86.5337V88.1262H78.8951V84.1572H79.6959V85.5619C79.8103 85.3904 79.9493 85.2679 80.0963 85.2026C80.2516 85.1372 80.4069 85.1046 80.5785 85.1046C80.7664 85.1046 80.938 85.1372 81.0933 85.2026Z" fill="white"/>
<path d="M84.893 85.3579C85.0973 85.5213 85.1953 85.7826 85.1953 86.1501V88.1346H84.37V86.3461C84.37 86.1909 84.3455 86.0684 84.3047 85.9868C84.2229 85.8316 84.0759 85.7581 83.8552 85.7581C83.5856 85.7581 83.3976 85.8724 83.2996 86.0929C83.2505 86.2073 83.2178 86.3624 83.2178 86.5421V88.1346H82.4171V85.1946H83.1933V85.6274C83.2996 85.4723 83.3976 85.3661 83.4875 85.3008C83.6509 85.1783 83.8634 85.1211 84.1167 85.1211C84.4354 85.1211 84.6887 85.2028 84.893 85.3579Z" fill="white"/>
<path d="M88.5047 87.7675C88.2433 88.0779 87.851 88.2249 87.3199 88.2249C86.7887 88.2249 86.3965 88.0697 86.135 87.7675C85.8735 87.4572 85.7428 87.0897 85.7428 86.6569C85.7428 86.224 85.8735 85.8647 86.135 85.5544C86.3965 85.244 86.7887 85.0889 87.3199 85.0889C87.851 85.0889 88.2433 85.244 88.5047 85.5544C88.7662 85.8647 88.897 86.2322 88.897 86.6569C88.897 87.0815 88.7662 87.4572 88.5047 87.7675ZM87.8674 87.3429C87.9899 87.1795 88.0553 86.959 88.0553 86.6569C88.0553 86.3547 87.9899 86.1342 87.8674 85.979C87.7448 85.8239 87.5569 85.7422 87.3281 85.7422C87.0993 85.7422 86.9113 85.8239 86.7887 85.979C86.658 86.1342 86.6008 86.3629 86.6008 86.6569C86.6008 86.9509 86.6662 87.1795 86.7887 87.3429C86.9195 87.5062 87.0993 87.5797 87.3281 87.5797C87.5569 87.5797 87.7448 87.498 87.8674 87.3429Z" fill="white"/>
<path d="M90.2943 84.1494H89.4935V88.1347H90.2943V84.1494Z" fill="white"/>
<path d="M93.6446 87.7675C93.3831 88.0779 92.9909 88.2249 92.4597 88.2249C91.9286 88.2249 91.5363 88.0697 91.2749 87.7675C91.0134 87.4572 90.8826 87.0897 90.8826 86.6569C90.8826 86.224 91.0134 85.8647 91.2749 85.5544C91.5363 85.244 91.9286 85.0889 92.4597 85.0889C92.9909 85.0889 93.3831 85.244 93.6446 85.5544C93.9061 85.8647 94.0368 86.2322 94.0368 86.6569C94.0368 87.0815 93.9061 87.4572 93.6446 87.7675ZM92.999 87.3429C93.1216 87.1795 93.187 86.959 93.187 86.6569C93.187 86.3547 93.1216 86.1342 92.999 85.979C92.8765 85.8239 92.6885 85.7422 92.4597 85.7422C92.2309 85.7422 92.043 85.8239 91.9204 85.979C91.7897 86.1342 91.7325 86.3629 91.7325 86.6569C91.7325 86.9509 91.7978 87.1795 91.9204 87.3429C92.0511 87.5062 92.2309 87.5797 92.4597 87.5797C92.6885 87.5797 92.8765 87.498 92.999 87.3429Z" fill="white"/>
<path d="M96.1287 85.1861C96.3248 85.2596 96.48 85.4066 96.6026 85.6107V85.1861H97.3871V87.9791C97.3871 88.3629 97.3217 88.6487 97.1828 88.8366C96.954 89.1714 96.5127 89.3347 95.859 89.3347C95.4668 89.3347 95.1481 89.2612 94.8948 89.1142C94.6496 88.9672 94.5107 88.7467 94.4862 88.4527H95.3605C95.3851 88.5426 95.4178 88.6079 95.4668 88.6487C95.5567 88.7222 95.6956 88.7549 95.908 88.7549C96.194 88.7549 96.3902 88.6651 96.4882 88.4772C96.5536 88.3547 96.5863 88.1587 96.5863 87.8811V87.6932C96.5127 87.8157 96.4228 87.9137 96.3411 87.9791C96.1777 88.0934 95.9734 88.1587 95.7201 88.1587C95.3279 88.1587 95.0092 88.0281 94.7722 87.7586C94.5352 87.4891 94.4208 87.1297 94.4208 86.6806C94.4208 86.2314 94.5352 85.8721 94.764 85.5781C94.9928 85.2841 95.3115 85.1289 95.7283 85.1289C95.8835 85.1289 96.0143 85.1534 96.1287 85.1942M96.3983 87.2931C96.5291 87.1542 96.5944 86.9419 96.5944 86.6397C96.5944 86.3621 96.5291 86.1497 96.4065 86.0027C96.2839 85.8557 96.1205 85.7822 95.9162 85.7822C95.6384 85.7822 95.4423 85.9129 95.336 86.1661C95.2788 86.3049 95.2543 86.4682 95.2543 86.6642C95.2543 86.8357 95.287 86.9909 95.3442 87.1216C95.4504 87.3666 95.6465 87.4972 95.9244 87.4972C96.1123 87.4972 96.2676 87.4319 96.3983 87.2931Z" fill="white"/>
<path d="M98.9642 84.8355H98.147V84.125H98.9642V84.8355ZM98.147 85.1867H98.9642V88.1348H98.147V85.1867Z" fill="white"/>
<path d="M101.742 85.2439C101.955 85.3338 102.135 85.4808 102.274 85.6768C102.396 85.8483 102.478 86.0524 102.519 86.2893C102.543 86.4281 102.551 86.6159 102.543 86.8773H100.304C100.321 87.1713 100.427 87.3836 100.623 87.4979C100.746 87.5714 100.893 87.6123 101.064 87.6123C101.244 87.6123 101.399 87.5633 101.514 87.4734C101.579 87.4244 101.628 87.3591 101.677 87.2693H102.494C102.47 87.4408 102.372 87.6204 102.2 87.8001C101.922 88.0859 101.538 88.2329 101.04 88.2329C100.631 88.2329 100.272 88.1104 99.9529 87.8736C99.6424 87.6286 99.4871 87.2366 99.4871 86.6976C99.4871 86.1913 99.626 85.7993 99.912 85.5216C100.198 85.2521 100.558 85.1133 101.015 85.1133C101.285 85.1133 101.522 85.1623 101.734 85.2521M100.541 85.9136C100.427 86.0279 100.353 86.1749 100.329 86.3709H101.718C101.702 86.1668 101.628 86.0116 101.505 85.9054C101.375 85.7993 101.219 85.7503 101.032 85.7503C100.827 85.7503 100.664 85.8074 100.549 85.9218" fill="white"/>
<path d="M103.581 87.187C103.597 87.3258 103.638 87.4238 103.695 87.481C103.793 87.5872 103.981 87.6362 104.251 87.6362C104.406 87.6362 104.537 87.6117 104.627 87.5708C104.717 87.5218 104.766 87.4565 104.766 87.3667C104.766 87.2768 104.725 87.2115 104.651 87.1707C104.578 87.1217 104.292 87.0482 103.81 86.942C103.458 86.8603 103.213 86.7542 103.074 86.6317C102.935 86.5092 102.862 86.3295 102.862 86.1008C102.862 85.8313 102.976 85.5945 103.197 85.3985C103.418 85.2025 103.736 85.1045 104.137 85.1045C104.521 85.1045 104.831 85.178 105.076 85.325C105.322 85.472 105.46 85.7252 105.493 86.0845H104.692C104.684 85.9865 104.651 85.9048 104.602 85.8477C104.513 85.7415 104.365 85.6925 104.153 85.6925C103.981 85.6925 103.851 85.717 103.777 85.7742C103.704 85.8232 103.663 85.8885 103.663 85.9538C103.663 86.0437 103.704 86.109 103.785 86.1417C103.867 86.1825 104.145 86.256 104.627 86.354C104.946 86.4275 105.191 86.5337 105.346 86.6807C105.501 86.8277 105.583 87.0155 105.583 87.236C105.583 87.53 105.469 87.7668 105.24 87.9547C105.011 88.1425 104.66 88.2323 104.186 88.2323C103.712 88.2323 103.344 88.1343 103.115 87.9383C102.886 87.7423 102.772 87.4973 102.772 87.1952H103.589L103.581 87.187Z" fill="white"/>
</svg>
