<svg width="175" height="120" viewBox="0 0 175 120" fill="none" xmlns="http://www.w3.org/2000/svg">
<path fill-rule="evenodd" clip-rule="evenodd" d="M51.43 51.8305C47.2 49.8005 44.61 55.1305 43.06 53.7205C42.59 53.3405 42.42 52.4405 42.42 52.0305C42.42 51.9905 42.42 51.9605 42.42 51.9305C43.72 51.8205 45 51.1505 45.86 49.7405C46.21 49.1705 46.45 48.3305 46.47 47.5705C46.44 46.1105 46.44 46.2105 44.85 46.4605C44.15 45.4805 43.91 44.5005 42.06 44.4305C40.3 44.3705 39.5 45.3005 38.99 46.4605C38.47 46.3705 37.99 46.3105 37.48 46.3605C36.59 49.3805 39.02 51.7205 41.64 51.9305C41.64 51.9505 41.64 51.9605 41.64 51.9805C41.65 52.2705 41.72 52.7505 41.87 53.1905C42.15 54.0305 42.83 54.8405 43.8 54.7205C45.66 54.5005 47.87 51.2005 50.79 52.3305C51.85 52.7405 52.83 53.7205 53.16 54.9005C54.13 58.3505 50.28 61.4205 46.85 58.8105L41.04 54.7405C40.77 54.5405 40.59 54.4205 40.26 54.2005C39.27 53.5405 37.59 52.1505 36.59 51.7305C33.68 50.4905 30.99 52.4505 30.36 54.7005C29.53 57.6605 31.68 60.2305 34.21 60.4905C36.63 60.7405 37.94 59.1905 39.4 58.3205C39.63 58.1805 39.89 58.0205 40.14 57.8505C40.74 57.4105 40.55 57.1205 40.18 57.1105C39.84 57.1005 37.72 58.6205 37.38 58.8305C36.27 59.5305 35.46 60.1405 33.72 59.6805C31.41 59.0705 29.84 55.9705 31.73 53.6605C34.8 49.9205 38.04 53.7505 40.49 55.2005C40.79 55.3805 40.9 55.4705 41.19 55.7005L46.9 59.7405C47.98 60.3905 49.28 60.7805 50.72 60.3605C54.76 59.2005 55.28 53.6805 51.43 51.8405V51.8305ZM45.79 47.2405C45.9 49.2905 44.37 51.0405 42.4 51.1705C42.19 48.8905 43.83 46.8705 45.79 47.2405ZM41.93 45.0805C43.31 45.0805 43.78 46.0305 44.12 46.7005C43.13 47.2305 42.28 48.0705 41.87 48.9305C41.74 48.3605 39.89 46.6405 39.65 46.6305C39.85 45.7105 40.84 45.0805 41.93 45.0805ZM38.08 46.9805C40.32 47.2405 41.58 48.9605 41.61 51.2005C40 51.2905 37.43 49.1405 38.08 46.9805Z" fill="white"/>
<path d="M15.29 57.8604C15.29 60.0204 13.43 60.6003 12.13 60.6003H9.07001C9.33001 60.4703 9.35001 60.3203 9.37001 60.0103V52.2004C9.36001 51.9004 9.33001 51.7404 9.07001 51.6104H11.29C13.36 51.6104 13.85 52.6104 13.85 53.2904C13.85 54.2804 12.8 54.9403 12.17 55.2803C13.12 55.0603 15.29 55.7004 15.29 57.8604ZM9.98001 57.0804C10.51 55.5104 13.13 55.3804 13.13 53.1304C13.13 52.8704 13.07 51.6804 11.13 51.6804H9.99001V57.0804H9.98001ZM14.58 57.8604C14.58 55.7904 12.93 55.2003 12.07 55.3503C12.03 55.3503 11.99 55.3604 11.95 55.3904C11.08 55.8804 10.19 56.3804 9.97001 57.3404V60.5103H11.9C12.61 60.5103 14.57 60.0903 14.57 57.8503" fill="white"/>
<path d="M12.12 60.75H8.42999L8.98999 60.47C9.16999 60.38 9.18999 60.3 9.19999 60.01V52.2C9.18999 51.91 9.15999 51.83 8.98999 51.74L8.42999 51.46H11.28C13.28 51.46 13.99 52.41 13.99 53.29C13.99 54.1 13.38 54.68 12.75 55.1C13.29 55.14 13.93 55.35 14.45 55.76C14.9 56.12 15.43 56.77 15.43 57.86C15.43 59.99 13.65 60.75 12.12 60.75ZM10.13 60.37H11.91C11.91 60.37 14.43 60.34 14.43 57.86C14.43 57.05 14.16 56.39 13.65 55.96C13.15 55.54 12.51 55.42 12.1 55.5C12.06 55.5 12.05 55.5 12.04 55.52C11.2 55.99 10.34 56.47 10.13 57.37V60.38V60.37ZM10.13 51.83V56.49C10.44 56.08 10.89 55.77 11.33 55.47C12.18 54.9 12.98 54.35 12.98 53.13C12.98 52.74 12.8 51.83 11.12 51.83H10.12H10.13Z" fill="white"/>
<path d="M68.5 60.01V52.2C68.5 51.92 68.53 51.83 68.71 51.74L69.31 51.46H67.63L63.71 59.56L60.11 52.13L59.83 51.47H58.2L58.78 51.75C58.96 51.84 58.98 51.92 58.98 52.19V52.36V60.44C58.98 60.56 58.98 60.6 58.89 60.64L58.58 60.76H59.79L59.48 60.64C59.4 60.6 59.39 60.57 59.39 60.44V59.51L59.48 52.93L63.41 61.08L67.39 53.04L67.57 60.03C67.57 60.31 67.54 60.4 67.36 60.49L66.77 60.77H69.31L68.72 60.49C68.53 60.4 68.51 60.32 68.51 60.03" fill="white"/>
<path d="M76.68 55.5498C75.32 54.8998 74.04 54.2898 74.2 53.0398C74.3 52.2498 75.13 51.6998 76.22 51.6998C77.44 51.6998 78.13 52.3098 78.85 53.2998L79.12 53.6698V52.4998L79.06 52.4598C78.12 51.7498 77.34 51.3398 76.14 51.3398C74.88 51.3398 73.79 52.0998 73.56 53.1498C73.19 54.9198 74.88 55.7398 76.36 56.4598C77.69 57.1098 78.95 57.7198 78.81 58.8898C78.68 59.9198 77.74 60.5098 76.29 60.4798C75.01 60.4598 73.94 59.9598 73.19 59.0598L72.93 58.7398V59.8598L72.99 59.8998C73.9 60.5398 75.08 60.8798 76.38 60.8798C78.06 60.8798 79.29 60.0498 79.5 58.7598C79.77 57.0198 78.19 56.2698 76.67 55.5498" fill="white"/>
<path d="M89.5 55.76C88.98 55.35 88.34 55.14 87.8 55.1C88.43 54.68 89.04 54.1 89.04 53.29C89.04 52.4 88.33 51.46 86.33 51.46H83.48L84.04 51.74C84.21 51.83 84.24 51.91 84.25 52.2V60.01C84.24 60.31 84.22 60.38 84.04 60.47L83.48 60.75H87.17C88.7 60.75 90.48 59.99 90.48 57.86C90.48 56.77 89.95 56.11 89.5 55.76ZM86.37 55.47C85.93 55.77 85.47 56.08 85.17 56.49V51.83H86.17C87.85 51.83 88.03 52.74 88.03 53.13C88.03 54.35 87.23 54.89 86.38 55.47M85.17 57.36C85.38 56.46 86.24 55.98 87.08 55.51C87.08 55.51 87.1 55.5 87.14 55.49C87.55 55.42 88.19 55.53 88.69 55.95C89.2 56.38 89.47 57.03 89.47 57.85C89.47 60.33 86.97 60.36 86.95 60.36H85.17V57.35V57.36Z" fill="white"/>
<path d="M100.34 51.4502L100.94 51.7302C101.13 51.8202 101.15 51.9002 101.15 52.1902V57.8602C101.15 59.5802 99.87 60.4702 98.6 60.4702C97.7 60.4702 95.99 59.9502 95.99 57.9702V52.1902C95.99 51.9002 96.01 51.8202 96.2 51.7302L96.79 51.4502H94.25L94.84 51.7302C95.03 51.8202 95.05 51.9002 95.05 52.1902V57.7702C95.05 59.9102 96.83 60.8702 98.59 60.8702C100.01 60.8702 101.53 59.7802 101.53 57.7702V52.1902C101.53 51.9002 101.55 51.8202 101.74 51.7302L102.33 51.4502H100.33H100.34Z" fill="white"/>
<path d="M112.29 60.0702C112.29 60.0702 111.29 57.3702 111.08 56.7902C110.79 56.0402 110.47 55.5702 109.79 55.4302C110.7 54.9202 111.6 54.3702 111.6 53.2702C111.6 52.9702 111.47 51.4502 108.91 51.4502H106.02L106.61 51.7302C106.8 51.8202 106.82 51.9002 106.82 52.1902V60.0002C106.82 60.2802 106.8 60.3602 106.6 60.4602L106.07 60.7402H108.5L107.97 60.4602C107.78 60.3602 107.75 60.2802 107.75 60.0002V57.3402C107.91 56.6402 108.45 56.2002 109.22 55.7502C109.63 55.7702 109.8 56.0502 110.21 57.0802C110.47 57.7502 111.19 59.7102 111.33 60.1102C111.36 60.2002 111.36 60.2702 111.33 60.3202C111.29 60.4102 111.18 60.4402 111.18 60.4402L110.55 60.7302H113.52L112.71 60.4402C112.7 60.4402 112.41 60.3602 112.3 60.0602M107.74 56.4902V51.8302H108.74C110.46 51.8302 110.6 52.8202 110.6 53.1202C110.6 54.3502 109.8 54.8902 108.95 55.4702C108.51 55.7702 108.06 56.0802 107.75 56.4902" fill="white"/>
<path d="M121.75 52.7001C121.62 52.3201 121.4 52.0001 121.12 51.7701C120.94 51.6301 120.73 51.5201 120.47 51.4401C120.21 51.3601 119.98 51.3301 119.68 51.3301V51.4801V51.5601V51.7101C119.98 51.7101 120.12 51.7401 120.36 51.8101C120.55 51.8701 120.73 51.9601 120.87 52.0801C121.08 52.2501 121.26 52.5101 121.37 52.8401C121.48 53.1701 121.52 53.5501 121.47 53.9201C121.45 54.1601 121.38 54.4101 121.24 54.8001C121.07 55.2001 120.89 55.5501 120.67 55.9001L119.75 57.3901L116.89 52.1101C116.83 52.0001 116.81 51.9101 116.84 51.8401C116.84 51.8301 116.84 51.8201 116.85 51.8101C116.88 51.7801 116.92 51.7501 116.98 51.7301L117.53 51.4701H115.67H114.88L115.5 51.7501C115.5 51.7501 115.76 51.8701 115.97 52.2501L119.02 57.9101V60.0201C119.02 60.3001 119 60.3801 118.8 60.4801L118.27 60.7601H120.66L120.15 60.4801C119.97 60.3801 119.94 60.3001 119.93 60.0201V57.8101L120.99 56.0901C121.25 55.6801 121.44 55.3001 121.6 54.9301C121.74 54.5401 121.83 54.2301 121.87 53.9601C121.91 53.5301 121.87 53.0901 121.75 52.7101" fill="white"/>
<path d="M36.99 69.6304C36.99 69.1004 36.97 68.2104 36.96 68.0604C36.94 67.8404 36.9 67.7604 36.65 67.7604H36.26C36.26 67.7604 36.2 67.7204 36.2 67.6804V67.5004C36.2 67.5004 36.2 67.4404 36.26 67.4404C36.35 67.4404 36.65 67.4704 37.34 67.4704C38.15 67.4704 38.5 67.4404 38.57 67.4404C38.64 67.4404 38.64 67.4704 38.64 67.5104V67.7004C38.64 67.7004 38.62 67.7704 38.56 67.7704H38.06C37.8 67.7704 37.77 67.8504 37.77 68.0904C37.77 68.2004 37.74 69.4604 37.74 70.0404V70.7604C37.74 70.9004 37.74 72.7004 37.77 73.0404C37.95 73.0604 39.6 73.0704 39.86 73.0404C40.35 72.9704 40.85 71.9704 40.97 71.6404C40.99 71.6104 41 71.5904 41.04 71.6104L41.17 71.6604C41.17 71.6604 41.19 71.6904 41.19 71.7304C41.17 71.7904 40.83 73.1604 40.78 73.3904C40.67 73.3904 40.02 73.3704 39.28 73.3704C38.54 73.3704 37.72 73.3704 37.27 73.3704C36.95 73.3704 36.7 73.3704 36.53 73.3704C36.36 73.3704 36.26 73.3904 36.21 73.3904C36.16 73.3904 36.14 73.3704 36.14 73.3304V73.1204C36.14 73.1204 36.14 73.0604 36.2 73.0604H36.6C36.91 73.0604 36.96 72.9404 36.96 72.8404C36.96 72.6804 36.99 70.6104 36.99 70.1004V69.6304Z" fill="white"/>
<path d="M44.89 71.6696C44.89 72.0696 44.89 72.4796 44.91 72.6496C44.94 72.9096 45.03 72.9396 45.13 72.9396C45.18 72.9396 45.3 72.9396 45.4 72.9196C45.47 72.8996 45.49 72.9196 45.5 72.9496L45.52 73.0596C45.52 73.1096 45.52 73.1296 45.48 73.1296L44.61 73.4196C44.56 73.4396 44.51 73.4496 44.44 73.4496C44.41 73.4496 44.37 73.4296 44.37 73.3496L44.3 72.8696H44.28C44.05 73.1896 43.56 73.4496 43.15 73.4496C42.92 73.4496 42.64 73.4196 42.37 73.0696C42.03 72.6296 42.05 72.3496 42.05 71.4396V70.4696C42.05 70.2396 41.93 70.1796 41.73 70.1496C41.59 70.1496 41.55 70.1296 41.55 70.0896V69.9396C41.55 69.9396 41.57 69.8696 41.64 69.8696H42.38C42.38 69.8696 42.46 69.8696 42.5 69.8496C42.53 69.8496 42.57 69.8496 42.59 69.8496C42.65 69.8496 42.69 69.8896 42.68 69.9496C42.68 70.0196 42.65 70.4196 42.65 70.9096V71.4996C42.65 71.8296 42.57 72.3696 42.83 72.7496C43.04 73.0496 43.27 73.0696 43.5 73.0696C43.73 73.0696 44.06 72.8496 44.22 72.6496C44.25 72.6096 44.3 72.4996 44.3 72.4296V70.4496C44.28 70.2196 44.15 70.1796 43.94 70.1596C43.8 70.1596 43.76 70.1396 43.76 70.0996V69.9596C43.76 69.8896 43.78 69.8896 43.86 69.8896H44.63C44.69 69.8896 44.73 69.8896 44.77 69.8696C44.81 69.8696 44.84 69.8696 44.87 69.8696C44.92 69.8696 44.95 69.9096 44.95 69.9496C44.95 70.0296 44.9 70.2396 44.9 71.0596V71.6796L44.89 71.6696Z" fill="white"/>
<path d="M46.89 73.3204C46.89 73.3204 46.89 73.3904 46.83 73.3904C46.76 73.3904 46.54 73.3604 46.18 73.3604C45.76 73.3604 45.62 73.3904 45.54 73.3904C45.47 73.3904 45.47 73.3603 45.47 73.3103V73.1604C45.47 73.1604 45.47 73.0903 45.54 73.0903H45.76C45.94 73.0903 46.03 73.0603 46.1 72.9903C46.26 72.8503 47.03 71.8204 47.17 71.6604C46.85 71.1704 46.38 70.4904 46.19 70.2904C46.12 70.2104 46.01 70.1703 45.89 70.1703H45.66C45.61 70.1703 45.6 70.1404 45.6 70.1104V69.9404C45.6 69.8804 45.6 69.8704 45.67 69.8704C45.74 69.8704 45.96 69.9004 46.35 69.9004C46.74 69.9004 47.05 69.8704 47.12 69.8704C47.16 69.8704 47.17 69.9004 47.17 69.9404V70.1003C47.17 70.1003 47.15 70.1703 47.12 70.1703H47.05C46.92 70.1703 46.92 70.3003 47.02 70.4503L47.54 71.2703L48.17 70.4404C48.25 70.3404 48.22 70.1703 48.08 70.1703H47.98C47.98 70.1703 47.93 70.1404 47.93 70.1104V69.9304C47.93 69.9304 47.93 69.8604 47.97 69.8604C48.07 69.8604 48.21 69.8904 48.69 69.8904C49.02 69.8904 49.11 69.8604 49.16 69.8604C49.23 69.8604 49.23 69.8904 49.23 69.9404V70.0903C49.23 70.0903 49.23 70.1604 49.16 70.1604H49.03C48.87 70.1604 48.79 70.1904 48.71 70.2604C48.57 70.3804 47.86 71.2504 47.69 71.4704C48.02 71.9604 48.36 72.4704 48.72 72.9104C48.82 73.0304 48.94 73.0903 49.09 73.0903H49.22C49.22 73.0903 49.26 73.1104 49.26 73.1604V73.3304C49.26 73.3304 49.26 73.4004 49.2 73.4004C49.13 73.4004 48.97 73.3704 48.56 73.3704C48.09 73.3704 47.84 73.4004 47.74 73.4004C47.68 73.4004 47.67 73.3704 47.67 73.3204V73.1804C47.67 73.1204 47.67 73.1003 47.74 73.1003H47.86C47.95 73.1003 48 72.9804 47.91 72.8304L47.31 71.8704C47.19 72.0404 46.64 72.7804 46.59 72.9104C46.55 73.0004 46.59 73.0903 46.68 73.0903H46.85C46.85 73.0903 46.89 73.1204 46.89 73.1604V73.3304V73.3204Z" fill="white"/>
<path d="M52.75 71.6696C52.75 72.0696 52.75 72.4796 52.77 72.6496C52.8 72.9096 52.89 72.9396 52.99 72.9396C53.04 72.9396 53.16 72.9396 53.26 72.9196C53.33 72.8996 53.35 72.9196 53.36 72.9496L53.38 73.0596C53.38 73.1096 53.38 73.1296 53.34 73.1296L52.47 73.4196C52.42 73.4396 52.37 73.4496 52.3 73.4496C52.27 73.4496 52.23 73.4296 52.23 73.3496L52.16 72.8696H52.14C51.91 73.1896 51.42 73.4496 51.01 73.4496C50.78 73.4496 50.5 73.4196 50.23 73.0696C49.89 72.6296 49.91 72.3496 49.91 71.4396V70.4696C49.91 70.2396 49.78 70.1796 49.59 70.1496C49.45 70.1496 49.41 70.1296 49.41 70.0896V69.9396C49.41 69.9396 49.43 69.8696 49.5 69.8696H50.24C50.24 69.8696 50.32 69.8696 50.36 69.8496C50.39 69.8496 50.43 69.8496 50.45 69.8496C50.51 69.8496 50.55 69.8896 50.54 69.9496C50.54 70.0196 50.51 70.4196 50.51 70.9096V71.4996C50.51 71.8296 50.43 72.3696 50.69 72.7496C50.9 73.0496 51.13 73.0696 51.36 73.0696C51.59 73.0696 51.92 72.8496 52.08 72.6496C52.11 72.6096 52.16 72.4996 52.16 72.4296V70.4496C52.14 70.2196 52.01 70.1796 51.8 70.1596C51.66 70.1596 51.62 70.1396 51.62 70.0996V69.9596C51.62 69.8896 51.64 69.8896 51.72 69.8896H52.49C52.55 69.8896 52.59 69.8896 52.63 69.8696C52.67 69.8696 52.7 69.8696 52.73 69.8696C52.78 69.8696 52.81 69.9096 52.81 69.9496C52.81 70.0296 52.76 70.2396 52.76 71.0596V71.6796L52.75 71.6696Z" fill="white"/>
<path d="M54.29 71.15C54.29 70.73 54.22 70.64 53.99 70.52L53.83 70.44C53.83 70.44 53.76 70.41 53.76 70.38V70.33C53.76 70.33 53.78 70.28 53.83 70.25L54.65 69.83C54.65 69.83 54.73 69.8 54.77 69.8C54.82 69.8 54.83 69.85 54.83 69.9L54.87 70.47H54.9C55.15 70.09 55.54 69.75 55.9 69.75C56.18 69.75 56.32 69.93 56.32 70.12C56.32 70.36 56.12 70.53 55.97 70.53C55.88 70.53 55.79 70.5 55.73 70.46C55.66 70.42 55.56 70.39 55.46 70.39C55.33 70.39 55.11 70.47 54.97 70.74C54.92 70.83 54.89 70.98 54.89 71.01V72.76C54.89 73.02 54.95 73.1 55.12 73.1H55.51C55.56 73.1 55.57 73.13 55.57 73.18V73.33C55.57 73.38 55.57 73.41 55.53 73.41C55.48 73.41 55.1 73.38 54.65 73.38C54.13 73.38 53.78 73.41 53.73 73.41C53.7 73.41 53.68 73.39 53.68 73.33V73.19C53.68 73.13 53.7 73.11 53.77 73.11H54.09C54.21 73.11 54.27 73.06 54.27 72.95C54.27 72.68 54.27 72.38 54.27 71.95V71.17L54.29 71.15Z" fill="white"/>
<path d="M56.61 75.2001C56.61 75.0201 56.79 74.8801 56.99 74.8801C57.15 74.8801 57.3 74.9501 57.37 74.9701C57.43 74.9701 57.49 74.9701 57.55 74.9201C57.67 74.7701 58.1 73.8201 58.22 73.5001C58.18 73.2901 57.3 70.6901 57.23 70.5201C57.13 70.3101 57.06 70.1701 56.84 70.1701H56.62C56.56 70.1701 56.55 70.1401 56.55 70.1001V69.9301C56.55 69.9301 56.55 69.8701 56.62 69.8701C56.69 69.8701 56.89 69.9001 57.39 69.9001C57.81 69.9001 58.07 69.8701 58.16 69.8701C58.23 69.8701 58.24 69.9001 58.24 69.9301V70.1101C58.24 70.1101 58.24 70.1801 58.19 70.1801H58.03C57.94 70.1801 57.9 70.2401 57.92 70.3601C57.95 70.5401 58.51 72.3701 58.6 72.5601H58.63C58.71 72.4301 59.44 70.7001 59.49 70.5001C59.54 70.3001 59.47 70.1801 59.35 70.1801H59.22C59.17 70.1801 59.16 70.1501 59.16 70.1101V69.9401C59.16 69.9401 59.16 69.8701 59.21 69.8701C59.32 69.8701 59.49 69.9001 59.89 69.9001C60.11 69.9001 60.31 69.8701 60.4 69.8701C60.45 69.8701 60.45 69.9001 60.45 69.9401V70.1001C60.45 70.1001 60.45 70.1701 60.41 70.1701H60.28C60.19 70.1701 60.07 70.2101 59.99 70.3201C59.81 70.5401 59.26 71.8101 58.68 73.1201C58.27 74.0401 57.95 74.8201 57.8 75.0901C57.68 75.3101 57.53 75.6301 57.09 75.6301C56.77 75.6301 56.62 75.4601 56.62 75.2101" fill="white"/>
<path d="M64.32 73.3104C63.75 73.0904 63.46 72.7204 63.33 72.1904C63.23 71.8104 63.2 71.2604 63.2 70.1704V68.1904C63.2 67.9004 63.14 67.7704 62.88 67.7704H62.49C62.49 67.7704 62.43 67.7504 62.43 67.6904V67.5104C62.43 67.5104 62.43 67.4404 62.5 67.4404C62.58 67.4404 62.99 67.4704 63.64 67.4704C64.29 67.4704 64.69 67.4404 64.78 67.4404C64.85 67.4404 64.85 67.4604 64.85 67.4904V67.7104C64.85 67.7104 64.85 67.7704 64.78 67.7704H64.36C64.12 67.7704 63.98 67.9304 63.96 68.1104C63.96 68.1904 63.94 68.7704 63.94 69.1904V69.7404C63.94 70.1804 63.97 71.2404 63.98 71.5104C63.98 71.8904 64.05 72.2804 64.25 72.5704C64.56 73.0204 65.09 73.1704 65.57 73.1704C66.05 73.1704 66.53 73.0104 66.82 72.7104C67.14 72.3604 67.25 71.8604 67.25 71.2404V69.4604C67.25 68.8304 67.23 68.3404 67.21 68.1404C67.18 67.9204 67.05 67.7704 66.84 67.7704H66.47C66.47 67.7704 66.41 67.7404 66.41 67.7004V67.5004C66.41 67.5004 66.41 67.4404 66.47 67.4404C66.55 67.4404 66.94 67.4704 67.49 67.4704C68.04 67.4704 68.33 67.4404 68.41 67.4404C68.49 67.4404 68.49 67.4704 68.49 67.5004V67.6804C68.49 67.7304 68.49 67.7604 68.44 67.7604H68.1C67.79 67.7604 67.77 67.9904 67.74 68.0904C67.72 68.1704 67.72 69.3604 67.72 69.4704C67.72 69.5804 67.7 71.0404 67.68 71.3704C67.63 72.0504 67.45 72.5804 66.98 72.9804C66.65 73.2904 66.14 73.4804 65.41 73.4804C64.98 73.4804 64.56 73.4204 64.29 73.3004" fill="white"/>
<path d="M72.3 72.9103C72.3 73.0403 72.38 73.0903 72.48 73.0903H72.75C72.82 73.0903 72.84 73.1203 72.84 73.1703V73.3003C72.84 73.3603 72.82 73.3903 72.77 73.3903C72.71 73.3903 72.45 73.3603 71.98 73.3603C71.56 73.3603 71.29 73.3903 71.23 73.3903C71.18 73.3903 71.16 73.3603 71.16 73.3003V73.1703C71.16 73.1103 71.19 73.0903 71.27 73.0903H71.51C71.6 73.0903 71.67 73.0503 71.68 72.9003C71.68 72.6803 71.7 72.4203 71.7 72.2003V71.1003C71.7 70.7703 71.7 70.5303 71.46 70.3503C71.26 70.2003 71.06 70.2003 70.85 70.2003C70.72 70.2003 70.43 70.2603 70.18 70.5203C70.01 70.7003 69.99 70.9303 69.99 71.0903V72.8103C69.99 73.0403 70.02 73.0803 70.19 73.0803H70.4C70.47 73.0803 70.48 73.1103 70.48 73.1603V73.3003C70.48 73.3503 70.46 73.3803 70.42 73.3803C70.36 73.3803 70.14 73.3503 69.7 73.3503C69.26 73.3503 69.01 73.3803 68.96 73.3803C68.92 73.3803 68.9 73.3503 68.9 73.3003V73.1503C68.9 73.1003 68.92 73.0703 68.98 73.0703H69.22C69.33 73.0703 69.39 73.0503 69.39 72.9003V70.9503C69.39 70.7003 69.26 70.5603 69.05 70.4603L68.98 70.4303C68.92 70.4003 68.91 70.3803 68.91 70.3603V70.3203C68.91 70.3203 68.94 70.2503 68.99 70.2403L69.71 69.8403C69.78 69.8103 69.83 69.7803 69.86 69.7803C69.9 69.7803 69.92 69.8103 69.93 69.8803L69.99 70.3903H70.01C70.25 70.0903 70.73 69.7803 71.15 69.7803C71.4 69.7803 71.66 69.8303 71.86 69.9603C72.11 70.1303 72.32 70.5403 72.32 70.7503V72.9003L72.3 72.9103Z" fill="white"/>
<path d="M74.88 72.5896H74.91C75.04 72.2696 75.63 70.8396 75.71 70.5196C75.77 70.2896 75.71 70.1596 75.56 70.1596H75.39C75.39 70.1596 75.36 70.1196 75.36 70.0796V69.9296C75.36 69.8796 75.38 69.8596 75.41 69.8596C75.53 69.8596 75.71 69.8896 76.08 69.8896C76.4 69.8896 76.61 69.8596 76.68 69.8596C76.75 69.8596 76.75 69.8596 76.75 69.9396V70.0796C76.75 70.1396 76.75 70.1596 76.71 70.1596H76.55C76.45 70.1596 76.37 70.1796 76.29 70.2496C76.17 70.3696 75.75 71.2696 75.62 71.5796C75.52 71.8296 74.9 73.2296 74.87 73.2896C74.8 73.4096 74.76 73.4796 74.67 73.4796C74.59 73.4796 74.54 73.4096 74.5 73.2996C74.48 73.2596 73.88 71.6796 73.85 71.6096C73.82 71.5396 73.48 70.5896 73.43 70.4596C73.32 70.2196 73.24 70.1496 73.09 70.1496H72.92C72.92 70.1496 72.87 70.1196 72.87 70.0696V69.9196C72.87 69.8596 72.89 69.8496 72.96 69.8496C73.05 69.8496 73.19 69.8796 73.66 69.8796C74.1 69.8796 74.32 69.8496 74.41 69.8496C74.48 69.8496 74.49 69.8696 74.49 69.9196V70.0696C74.49 70.1196 74.49 70.1496 74.43 70.1496H74.26C74.18 70.1496 74.11 70.1996 74.11 70.3096C74.11 70.4596 74.33 71.1496 74.38 71.2896C74.43 71.4496 74.79 72.4096 74.88 72.5796" fill="white"/>
<path d="M77.47 71.15C77.45 71.22 77.44 71.36 77.44 71.55C77.44 72.37 77.96 72.98 78.62 72.98C79.13 72.98 79.49 72.69 79.63 72.41C79.65 72.38 79.68 72.36 79.7 72.37L79.81 72.43C79.81 72.43 79.85 72.46 79.81 72.55C79.66 72.88 79.23 73.46 78.49 73.46C78.02 73.46 77.49 73.32 77.18 72.87C76.89 72.45 76.81 72.14 76.81 71.55C76.81 71.23 76.89 70.67 77.33 70.23C77.69 69.86 78.1 69.79 78.52 69.79C79.48 69.79 79.74 70.69 79.74 71.01C79.74 71.13 79.64 71.14 79.51 71.14H77.45L77.47 71.15ZM78.8 70.9C78.96 70.9 79.02 70.86 79.02 70.78C79.02 70.59 78.92 70.04 78.38 70.04C78.01 70.04 77.66 70.28 77.51 70.9H78.8Z" fill="white"/>
<path d="M80.91 70.9397C80.91 70.6597 80.86 70.5097 80.44 70.4397C80.38 70.4397 80.37 70.4197 80.37 70.3797V70.3097C80.37 70.3097 80.39 70.2697 80.43 70.2497C80.7 70.1497 81.01 70.0197 81.33 69.8397C81.4 69.8097 81.44 69.7897 81.49 69.7897C81.53 69.7897 81.54 69.8297 81.53 69.8897C81.51 70.0297 81.51 70.5597 81.51 71.2497V72.1597C81.51 72.4797 81.51 72.7797 81.51 72.8797C81.53 73.0397 81.55 73.0997 81.64 73.0997H82.02C82.09 73.0997 82.1 73.1297 82.1 73.1697V73.3097C82.1 73.3697 82.08 73.3897 82.02 73.3897C81.95 73.3897 81.57 73.3597 81.22 73.3597C80.74 73.3597 80.41 73.3897 80.32 73.3897C80.28 73.3897 80.25 73.3697 80.25 73.3197V73.1497C80.25 73.1497 80.28 73.0797 80.33 73.0797H80.74C80.83 73.0797 80.86 73.0497 80.87 72.9097C80.87 72.6597 80.87 72.3997 80.87 72.1497V70.9297L80.91 70.9397ZM80.53 68.3997C80.53 68.1897 80.7 67.9697 81.04 67.9697C81.33 67.9697 81.47 68.1997 81.47 68.3797C81.47 68.5997 81.32 68.8397 80.99 68.8397C80.81 68.8397 80.53 68.6697 80.53 68.4097" fill="white"/>
<path d="M83.68 70.8798C83.68 71.3098 83.68 72.5698 83.68 72.8298C83.68 72.9698 83.72 73.0898 83.9 73.0898H84.27C84.34 73.0898 84.36 73.1198 84.36 73.1698V73.3098C84.36 73.3598 84.34 73.3898 84.31 73.3898C84.25 73.3898 83.89 73.3598 83.37 73.3598C82.85 73.3598 82.5 73.3898 82.43 73.3898C82.39 73.3898 82.37 73.3598 82.37 73.3098V73.1698C82.37 73.1098 82.39 73.0898 82.48 73.0898H82.88C82.97 73.0898 83.06 73.0298 83.06 72.8798C83.06 72.6198 83.06 71.1898 83.06 70.7098V70.1898C83.06 69.5998 83.06 68.8399 83.03 68.6199C83.01 68.3399 82.88 68.1999 82.61 68.1199L82.44 68.0598C82.44 68.0598 82.39 68.0398 82.39 68.0198V67.9498C82.39 67.9498 82.42 67.9098 82.47 67.8898C82.76 67.7598 83.14 67.6099 83.44 67.4099C83.51 67.3599 83.56 67.3398 83.61 67.3398C83.67 67.3398 83.69 67.3798 83.68 67.4898C83.68 67.9498 83.65 69.6798 83.65 70.1398V70.8798H83.68Z" fill="white"/>
<path d="M85.37 71.15C85.35 71.22 85.34 71.36 85.34 71.55C85.34 72.37 85.86 72.98 86.52 72.98C87.03 72.98 87.39 72.69 87.53 72.41C87.55 72.38 87.58 72.36 87.6 72.37L87.71 72.43C87.71 72.43 87.75 72.46 87.71 72.55C87.56 72.88 87.13 73.46 86.39 73.46C85.92 73.46 85.39 73.32 85.08 72.87C84.79 72.45 84.71 72.14 84.71 71.55C84.71 71.23 84.79 70.67 85.23 70.23C85.59 69.86 86 69.79 86.42 69.79C87.38 69.79 87.64 70.69 87.64 71.01C87.64 71.13 87.54 71.14 87.41 71.14H85.35L85.37 71.15ZM86.7 70.9C86.86 70.9 86.92 70.86 86.92 70.78C86.92 70.59 86.82 70.04 86.28 70.04C85.91 70.04 85.56 70.28 85.41 70.9H86.7Z" fill="white"/>
<path d="M90.98 68.2898C90.98 67.9698 90.92 67.8699 90.46 67.7999C90.41 67.7999 90.4 67.7698 90.4 67.7398V67.5998C90.4 67.5998 90.42 67.5498 90.47 67.5398C90.79 67.4698 91.23 67.3999 91.39 67.3699C91.46 67.3699 91.52 67.3398 91.58 67.3398C91.62 67.3398 91.63 67.3998 91.62 67.4898C91.6 67.9098 91.59 69.1098 91.59 70.1698V72.0098C91.59 72.3198 91.61 72.6798 91.67 72.7698C91.75 72.8498 91.92 72.8999 92.04 72.9099C92.16 72.9099 92.19 72.9298 92.21 72.9698L92.23 73.0398C92.23 73.0398 92.23 73.1098 92.17 73.1298L91.23 73.4498C91.23 73.4498 91.14 73.4498 91.12 73.3798L91.01 73.0098C90.74 73.2798 90.21 73.4598 89.79 73.4598C89.52 73.4598 89.2 73.4798 88.81 73.0798C88.39 72.6598 88.29 72.2899 88.29 71.7299C88.29 71.2099 88.48 70.7098 88.87 70.3098C89.19 69.9598 89.64 69.7898 90.11 69.7898C90.45 69.7898 90.75 69.8399 91 69.9099V68.2898H90.98ZM90.98 70.9298C90.98 70.8098 90.98 70.6598 90.91 70.5198C90.79 70.2998 90.53 70.0698 90.04 70.0698C89.78 70.0698 89.5 70.1399 89.28 70.3699C88.96 70.7199 88.9 71.1599 88.9 71.4799C88.9 72.4199 89.55 73.0998 90.03 73.0998C90.51 73.0998 90.85 72.8598 90.94 72.6398C90.98 72.5198 90.99 72.4498 90.99 72.3598V70.9298H90.98Z" fill="white"/>
<path d="M96.29 71.1497C96.29 71.5397 96.29 72.6697 96.31 72.7897C96.33 72.9697 96.41 73.0597 96.58 73.0597H97.11C97.17 73.0597 97.18 73.0897 97.18 73.1197V73.3197C97.18 73.3197 97.18 73.3897 97.11 73.3897C96.99 73.3897 96.74 73.3597 95.95 73.3597C95.22 73.3597 94.89 73.3897 94.8 73.3897C94.74 73.3897 94.73 73.3597 94.73 73.3297V73.1197C94.73 73.1197 94.73 73.0597 94.78 73.0597H95.14C95.42 73.0597 95.48 73.0197 95.51 72.7897C95.51 72.7097 95.54 71.4097 95.54 70.4397V69.4797C95.54 68.9297 95.54 68.0197 95.52 67.9397C95.5 67.7697 95.42 67.7597 95.2 67.7597H94.73C94.73 67.7597 94.68 67.7397 94.68 67.6897V67.4897C94.68 67.4897 94.68 67.4297 94.73 67.4297C94.82 67.4297 95.12 67.4597 95.91 67.4597C96.06 67.4597 96.55 67.4297 96.83 67.4297C97.77 67.4297 98.21 67.5197 98.69 67.8497C99.08 68.1197 99.32 68.5797 99.32 69.0597C99.32 70.1097 98.53 70.7597 97.21 70.7597C96.9 70.7597 96.57 70.7597 96.3 70.7197V71.1497H96.29ZM96.29 70.4197C96.46 70.4697 96.73 70.4897 97.06 70.4897C97.57 70.4897 98.02 70.2197 98.23 69.9197C98.41 69.6797 98.45 69.3697 98.45 69.0797C98.45 67.9897 97.43 67.6997 96.94 67.6997C96.8 67.6997 96.46 67.6997 96.29 67.7597V70.4197Z" fill="white"/>
<path d="M100.04 71.15C100.02 71.22 100.02 71.36 100.02 71.55C100.02 72.37 100.54 72.98 101.2 72.98C101.71 72.98 102.07 72.69 102.21 72.41C102.23 72.38 102.26 72.36 102.28 72.37L102.39 72.43C102.39 72.43 102.43 72.46 102.39 72.55C102.24 72.88 101.81 73.46 101.07 73.46C100.6 73.46 100.07 73.32 99.76 72.87C99.47 72.45 99.39 72.14 99.39 71.55C99.39 71.23 99.47 70.67 99.91 70.23C100.27 69.86 100.68 69.79 101.1 69.79C102.06 69.79 102.32 70.69 102.32 71.01C102.32 71.13 102.22 71.14 102.09 71.14H100.03L100.04 71.15ZM101.36 70.9C101.52 70.9 101.58 70.86 101.58 70.78C101.58 70.59 101.48 70.04 100.94 70.04C100.57 70.04 100.22 70.28 100.07 70.9H101.36Z" fill="white"/>
<path d="M104.04 72.3197C104.04 72.9397 104.32 73.0497 104.47 73.0497C104.66 73.0497 104.9 73.0197 105.02 72.9397C105.06 72.9197 105.1 72.9197 105.12 72.9597L105.16 73.0297C105.16 73.0297 105.16 73.0997 105.14 73.1197C105.06 73.1997 104.72 73.4497 104.22 73.4497C103.81 73.4497 103.41 73.0597 103.41 72.7397C103.41 72.3997 103.44 71.6697 103.44 71.5497V71.3697C103.44 71.2197 103.44 70.6597 103.46 70.3097H102.95C102.87 70.3097 102.82 70.2797 102.82 70.2097C102.82 70.1397 102.87 70.1197 102.97 70.0597C103.17 69.9397 103.81 69.2897 103.92 69.0097C103.95 68.9397 103.99 68.9297 104.04 68.9297C104.11 68.9297 104.12 68.9897 104.12 69.0497L104.08 69.8697H105.24C105.29 69.8697 105.32 69.9097 105.3 69.9397L105.22 70.2297C105.22 70.2297 105.19 70.2997 105.14 70.2997H104.07C104.05 70.6797 104.04 71.0797 104.04 71.4697V72.2997V72.3197Z" fill="white"/>
<path d="M108.08 72.3698C108.08 72.8398 108.18 72.9898 108.33 72.9898C108.46 72.9898 108.58 72.9198 108.62 72.8698C108.65 72.8298 108.67 72.8098 108.7 72.8398L108.78 72.9098C108.78 72.9098 108.82 72.9798 108.78 73.0598C108.71 73.1798 108.56 73.4698 108.13 73.4698C107.83 73.4698 107.61 73.2498 107.54 72.9098H107.52C107.34 73.1198 107.07 73.2898 106.7 73.4198C106.54 73.4698 106.39 73.4698 106.21 73.4698C106.01 73.4698 105.71 73.2998 105.71 72.7798C105.71 72.3998 105.88 72.0598 106.54 71.7698C106.92 71.5998 107.35 71.3998 107.48 71.2898V70.7598C107.46 70.6198 107.45 70.3998 107.36 70.2898C107.27 70.1798 107.1 70.1098 106.86 70.1098C106.69 70.1098 106.43 70.1798 106.32 70.2898C106.2 70.3998 106.28 70.5198 106.28 70.6698C106.28 70.9598 106.18 71.1398 105.84 71.1398C105.71 71.1398 105.64 71.0598 105.64 70.8698C105.64 70.5998 105.87 70.2898 106.21 70.0898C106.56 69.8798 106.85 69.7998 107.23 69.7998C107.61 69.7998 107.78 69.9198 107.9 70.0198C108.08 70.1998 108.08 70.3898 108.08 70.6098V72.3798V72.3698ZM107.47 71.5298C107.17 71.7498 106.35 71.9198 106.35 72.6098C106.35 72.9198 106.53 73.0698 106.78 73.0698C107.03 73.0698 107.46 72.7798 107.46 72.5498V71.5298H107.47Z" fill="white"/>
<path d="M110.24 70.8798C110.24 71.3098 110.24 72.5698 110.24 72.8298C110.24 72.9698 110.28 73.0898 110.46 73.0898H110.83C110.9 73.0898 110.92 73.1198 110.92 73.1698V73.3098C110.92 73.3598 110.9 73.3898 110.87 73.3898C110.81 73.3898 110.45 73.3598 109.93 73.3598C109.41 73.3598 109.06 73.3898 108.99 73.3898C108.95 73.3898 108.93 73.3598 108.93 73.3098V73.1698C108.93 73.1098 108.95 73.0898 109.04 73.0898H109.44C109.53 73.0898 109.62 73.0298 109.62 72.8798C109.62 72.6198 109.62 71.1898 109.62 70.7098V70.1898C109.62 69.5998 109.62 68.8399 109.59 68.6199C109.57 68.3399 109.44 68.1999 109.17 68.1199L109 68.0598C109 68.0598 108.95 68.0398 108.95 68.0198V67.9498C108.95 67.9498 108.97 67.9098 109.02 67.8898C109.31 67.7598 109.69 67.6099 109.99 67.4099C110.06 67.3599 110.11 67.3398 110.16 67.3398C110.22 67.3398 110.24 67.3798 110.23 67.4898C110.23 67.9498 110.2 69.6798 110.2 70.1398V70.8798H110.24Z" fill="white"/>
<path d="M113.69 68.8701C113.69 68.3101 113.6 68.2001 113.3 68.1001L113.22 68.0701C113.13 68.0501 113.11 68.0301 113.11 68.0001V67.9301C113.11 67.9301 113.13 67.8901 113.18 67.8601C113.42 67.7501 113.85 67.5401 114.06 67.4001C114.12 67.3601 114.18 67.3301 114.23 67.3301C114.29 67.3301 114.31 67.3701 114.3 67.4701C114.3 67.5401 114.3 68.4901 114.3 69.2301V70.2001C114.57 69.9401 115.04 69.7801 115.45 69.7801C116.18 69.7801 116.97 70.3701 116.97 71.5601C116.97 72.5301 116.19 73.4501 115.24 73.4501C114.77 73.4501 114.45 73.3501 114.26 73.2301L113.93 73.4101C113.93 73.4101 113.87 73.4401 113.82 73.4401L113.72 73.4101C113.72 73.4101 113.68 73.3801 113.69 73.3401C113.71 73.2201 113.71 72.5301 113.71 71.9201V68.8501L113.69 68.8701ZM114.28 71.5701C114.28 72.2601 114.31 72.5101 114.4 72.7801C114.48 72.9801 114.83 73.2001 115.19 73.2001C115.69 73.2001 116.31 72.8601 116.31 71.7701C116.31 70.9601 115.89 70.2001 115.07 70.2001C114.76 70.2001 114.46 70.3101 114.28 70.5001V71.5801V71.5701Z" fill="white"/>
<path d="M117.17 75.2001C117.17 75.0201 117.35 74.8801 117.55 74.8801C117.71 74.8801 117.86 74.9501 117.93 74.9701C117.99 74.9701 118.05 74.9701 118.1 74.9201C118.22 74.7701 118.65 73.8201 118.77 73.5001C118.73 73.2901 117.85 70.6901 117.78 70.5201C117.68 70.3101 117.61 70.1701 117.39 70.1701H117.17C117.11 70.1701 117.1 70.1401 117.1 70.1001V69.9301C117.1 69.9301 117.1 69.8701 117.17 69.8701C117.24 69.8701 117.44 69.9001 117.94 69.9001C118.36 69.9001 118.62 69.8701 118.71 69.8701C118.78 69.8701 118.78 69.9001 118.78 69.9301V70.1101C118.78 70.1101 118.78 70.1801 118.73 70.1801H118.57C118.48 70.1801 118.44 70.2401 118.46 70.3601C118.49 70.5401 119.05 72.3701 119.14 72.5601H119.17C119.25 72.4301 119.98 70.7001 120.03 70.5001C120.08 70.2901 120.01 70.1801 119.89 70.1801H119.76C119.76 70.1801 119.7 70.1501 119.7 70.1101V69.9401C119.7 69.9401 119.7 69.8701 119.75 69.8701C119.86 69.8701 120.03 69.9001 120.43 69.9001C120.65 69.9001 120.85 69.8701 120.94 69.8701C120.99 69.8701 120.99 69.9001 120.99 69.9401V70.1001C120.99 70.1001 120.99 70.1701 120.95 70.1701H120.82C120.73 70.1701 120.61 70.2101 120.53 70.3201C120.35 70.5401 119.8 71.8101 119.22 73.1201C118.81 74.0401 118.49 74.8201 118.34 75.0901C118.22 75.3101 118.07 75.6301 117.63 75.6301C117.31 75.6301 117.16 75.4601 117.16 75.2101" fill="white"/>
<path d="M124.8 71.1497C124.8 71.5397 124.8 72.6697 124.82 72.7897C124.84 72.9697 124.92 73.0597 125.09 73.0597H125.62C125.68 73.0597 125.69 73.0897 125.69 73.1197V73.3197C125.69 73.3197 125.69 73.3897 125.62 73.3897C125.5 73.3897 125.25 73.3597 124.46 73.3597C123.73 73.3597 123.4 73.3897 123.31 73.3897C123.25 73.3897 123.24 73.3597 123.24 73.3297V73.1197C123.24 73.1197 123.24 73.0597 123.29 73.0597H123.65C123.93 73.0597 123.99 73.0197 124.02 72.7897C124.02 72.7097 124.05 71.4097 124.05 70.4397V69.4797C124.05 68.9297 124.05 68.0197 124.03 67.9397C124.01 67.7697 123.93 67.7597 123.71 67.7597H123.24C123.24 67.7597 123.19 67.7397 123.19 67.6897V67.4897C123.19 67.4897 123.19 67.4297 123.24 67.4297C123.33 67.4297 123.63 67.4597 124.42 67.4597C124.57 67.4597 125.06 67.4297 125.34 67.4297C126.28 67.4297 126.72 67.5197 127.2 67.8497C127.59 68.1197 127.83 68.5797 127.83 69.0597C127.83 70.1097 127.04 70.7597 125.72 70.7597C125.41 70.7597 125.08 70.7597 124.81 70.7197V71.1497H124.8ZM124.8 70.4197C124.97 70.4697 125.24 70.4897 125.57 70.4897C126.08 70.4897 126.53 70.2197 126.74 69.9197C126.92 69.6797 126.96 69.3697 126.96 69.0797C126.96 67.9897 125.94 67.6997 125.45 67.6997C125.31 67.6997 124.97 67.6997 124.8 67.7597V70.4197Z" fill="white"/>
<path d="M128.55 71.15C128.53 71.22 128.52 71.36 128.52 71.55C128.52 72.37 129.04 72.98 129.7 72.98C130.21 72.98 130.57 72.69 130.71 72.41C130.73 72.38 130.76 72.36 130.78 72.37L130.89 72.43C130.89 72.43 130.93 72.46 130.89 72.55C130.74 72.88 130.31 73.46 129.57 73.46C129.1 73.46 128.57 73.32 128.26 72.87C127.97 72.45 127.89 72.14 127.89 71.55C127.89 71.23 127.97 70.67 128.41 70.23C128.77 69.86 129.18 69.79 129.6 69.79C130.56 69.79 130.82 70.69 130.82 71.01C130.82 71.13 130.72 71.14 130.59 71.14H128.53L128.55 71.15ZM129.88 70.9C130.04 70.9 130.1 70.86 130.1 70.78C130.1 70.59 130 70.04 129.46 70.04C129.09 70.04 128.74 70.28 128.59 70.9H129.88Z" fill="white"/>
<path d="M132.55 72.3197C132.55 72.9397 132.83 73.0497 132.98 73.0497C133.17 73.0497 133.41 73.0197 133.53 72.9397C133.57 72.9197 133.6 72.9197 133.63 72.9597L133.67 73.0297C133.67 73.0297 133.67 73.0997 133.65 73.1197C133.57 73.1997 133.23 73.4497 132.73 73.4497C132.32 73.4497 131.92 73.0597 131.92 72.7397C131.92 72.3997 131.95 71.6697 131.95 71.5497V71.3697C131.95 71.2197 131.95 70.6597 131.97 70.3097H131.46C131.38 70.3097 131.33 70.2797 131.33 70.2097C131.33 70.1397 131.38 70.1197 131.48 70.0597C131.68 69.9397 132.32 69.2897 132.43 69.0097C132.46 68.9397 132.5 68.9297 132.55 68.9297C132.62 68.9297 132.63 68.9897 132.63 69.0497L132.59 69.8697H133.75C133.75 69.8697 133.82 69.9097 133.81 69.9397L133.73 70.2297C133.73 70.2297 133.7 70.2997 133.66 70.2997H132.59C132.57 70.6797 132.56 71.0797 132.56 71.4697V72.2997L132.55 72.3197Z" fill="white"/>
<path d="M136.6 72.3698C136.6 72.8398 136.7 72.9898 136.85 72.9898C136.98 72.9898 137.1 72.9198 137.14 72.8698C137.17 72.8298 137.19 72.8098 137.22 72.8398L137.3 72.9098C137.3 72.9098 137.34 72.9798 137.3 73.0598C137.23 73.1798 137.08 73.4698 136.65 73.4698C136.35 73.4698 136.13 73.2498 136.06 72.9098H136.04C135.86 73.1198 135.59 73.2898 135.22 73.4198C135.06 73.4698 134.91 73.4698 134.73 73.4698C134.53 73.4698 134.23 73.2998 134.23 72.7798C134.23 72.3998 134.4 72.0598 135.06 71.7698C135.43 71.5998 135.87 71.3998 136 71.2898V70.7598C135.98 70.6198 135.97 70.3998 135.88 70.2898C135.79 70.1798 135.62 70.1098 135.38 70.1098C135.21 70.1098 134.96 70.1798 134.84 70.2898C134.72 70.3998 134.8 70.5198 134.8 70.6698C134.8 70.9598 134.7 71.1398 134.36 71.1398C134.23 71.1398 134.16 71.0598 134.16 70.8698C134.16 70.5998 134.39 70.2898 134.73 70.0898C135.08 69.8798 135.37 69.7998 135.75 69.7998C136.13 69.7998 136.3 69.9198 136.42 70.0198C136.6 70.1998 136.6 70.3898 136.6 70.6098V72.3798V72.3698ZM135.99 71.5298C135.69 71.7498 134.87 71.9198 134.87 72.6098C134.87 72.9198 135.05 73.0698 135.3 73.0698C135.55 73.0698 135.98 72.7798 135.98 72.5498V71.5298H135.99Z" fill="white"/>
<path d="M138.75 70.8798C138.75 71.3098 138.75 72.5698 138.75 72.8298C138.75 72.9698 138.79 73.0898 138.97 73.0898H139.34C139.41 73.0898 139.43 73.1198 139.43 73.1698V73.3098C139.43 73.3598 139.41 73.3898 139.38 73.3898C139.32 73.3898 138.96 73.3598 138.44 73.3598C137.92 73.3598 137.57 73.3898 137.5 73.3898C137.46 73.3898 137.44 73.3598 137.44 73.3098V73.1698C137.44 73.1098 137.46 73.0898 137.55 73.0898H137.95C138.04 73.0898 138.13 73.0298 138.13 72.8798C138.13 72.6198 138.13 71.1898 138.13 70.7098V70.1898C138.13 69.5998 138.13 68.8399 138.1 68.6199C138.08 68.3399 137.95 68.1999 137.68 68.1199L137.51 68.0598C137.51 68.0598 137.46 68.0398 137.46 68.0198V67.9498C137.46 67.9498 137.48 67.9098 137.53 67.8898C137.82 67.7598 138.2 67.6099 138.5 67.4099C138.57 67.3599 138.62 67.3398 138.67 67.3398C138.73 67.3398 138.75 67.3798 138.74 67.4898C138.74 67.9498 138.71 69.6798 138.71 70.1398V70.8798H138.75Z" fill="white"/>
<path d="M26.19 59.3402L26.15 59.4202C25.83 59.9302 25.39 60.1802 25.12 60.2902C24.83 60.3602 24.43 60.3702 23.91 60.3702H21.06V52.1902C21.06 51.9102 21.09 51.8202 21.27 51.7302L21.86 51.4502H19.32L19.91 51.7302C20.1 51.8202 20.12 51.9002 20.12 52.1902V60.0002C20.12 60.2802 20.09 60.3702 19.91 60.4602L19.32 60.7402H25.74L25.94 60.0802L26.18 59.3402H26.19Z" fill="white"/>
<path d="M132.67 59.3402L132.63 59.4202C132.31 59.9302 131.87 60.1802 131.6 60.2902C131.31 60.3602 130.91 60.3702 130.39 60.3702H127.54V52.1902C127.54 51.9102 127.57 51.8202 127.75 51.7302L128.34 51.4502H125.8L126.39 51.7302C126.58 51.8202 126.6 51.9002 126.6 52.1902V60.0002C126.6 60.2802 126.58 60.3702 126.39 60.4602L125.8 60.7402H132.22L132.42 60.0802L132.66 59.3402H132.67Z" fill="white"/>
<path d="M144.36 60.74L143.65 60.45C143.65 60.45 143.39 60.34 143.23 59.96L139.3 51.25L139.16 51.52C139.16 51.52 139.02 51.79 138.8 52.2C138.8 52.2 137.78 54.17 137.27 55.17C136.36 56.96 135.92 58.32 136.56 59.58C136.97 60.41 138.12 60.86 138.99 60.86V60.71V60.62V60.47C138.22 60.47 137.25 60.11 136.9 59.41C136.54 58.69 136.54 57.92 136.94 56.85H140.83L142.28 60.08C142.31 60.15 142.33 60.22 142.33 60.27C142.32 60.4 142.28 60.45 142.16 60.51L141.67 60.74H142.3H144.36ZM137.09 56.49C137.22 56.16 137.4 55.79 137.61 55.37L137.87 54.86C138.26 54.11 138.66 53.32 138.97 52.72L140.65 56.48H137.09V56.49Z" fill="white"/>
<path d="M153.94 51.4502L154.54 51.7402C154.73 51.8302 154.75 51.9102 154.75 52.1802V52.3502V58.9702L149.2 51.5202L149.16 51.4602H147.55L148.14 51.7402C148.32 51.8302 148.35 51.9102 148.35 52.1902V52.3702V52.6002V59.2202V60.4402C148.35 60.5602 148.35 60.5902 148.27 60.6302L148.02 60.7502H149.09L148.84 60.6302C148.76 60.5902 148.75 60.5602 148.75 60.4402V59.1602V59.1302V52.4402L155.15 61.0502V52.2302V52.2002C155.15 51.9102 155.17 51.8302 155.36 51.7402L155.96 51.4502H153.94Z" fill="white"/>
<path d="M166.56 59.3502C166.56 59.3502 166.53 59.3802 166.52 59.3902C166.51 59.4002 166.49 59.4202 166.48 59.4302C166.45 59.4602 166.42 59.4902 166.39 59.5102C166.33 59.5702 166.28 59.6302 166.22 59.6802C166.11 59.7902 166.02 59.9202 165.91 60.0202C165.82 60.1002 165.73 60.1802 165.62 60.2302C165.47 60.3002 165.29 60.3202 165.13 60.3402C164.98 60.3602 164.83 60.3602 164.67 60.3702C164.54 60.3702 164.41 60.3702 164.29 60.3702H161.37V56.1402H163.47H164.36C164.47 56.1402 164.51 56.1502 164.54 56.2202L164.65 56.4502V55.4502L164.54 55.6802C164.51 55.7502 164.47 55.7602 164.36 55.7602H163.47H161.37V51.8202H163.98C164.93 51.8202 165.41 51.7802 165.64 52.0802C165.64 52.0802 165.64 52.1002 165.65 52.1102L166.04 52.8202V51.4502H159.63L160.22 51.7302C160.41 51.8202 160.43 51.9002 160.43 52.1902V60.0002C160.43 60.2902 160.41 60.3702 160.22 60.4602L159.63 60.7402H166.13L166.38 59.9002C166.44 59.7102 166.5 59.5202 166.56 59.3402" fill="white"/>
</svg>
