<svg width="119" height="82" viewBox="0 0 119 82" fill="none" xmlns="http://www.w3.org/2000/svg">
<path d="M66.5856 71.3942L66.9392 71.0594C67.0752 71.2302 67.2928 71.3054 67.5036 71.2507C67.7144 71.2029 67.8232 71.0662 67.7892 70.9227C67.7484 70.7519 67.5988 70.7177 67.3472 70.6699L67.2112 70.6426C66.8168 70.5674 66.5312 70.4307 66.436 70.0207C66.3544 69.6449 66.5924 69.2759 66.9596 69.1939C66.98 69.1939 67.0004 69.1871 67.0208 69.1802C67.3132 69.0914 67.6328 69.1802 67.8232 69.4194L67.49 69.7611C67.4084 69.6381 67.2588 69.5834 67.116 69.6176C66.9936 69.6312 66.9052 69.7474 66.9188 69.8704C66.9188 69.8704 66.9188 69.8841 66.9188 69.8909C66.9528 70.0412 67.0616 70.0822 67.2996 70.1301L67.4356 70.1574C67.9048 70.2462 68.1904 70.3761 68.2856 70.7997C68.3876 71.2576 68.0884 71.5856 67.6124 71.6949C67.2384 71.8042 66.8372 71.6881 66.5788 71.3874" fill="white"/>
<path d="M69.7204 69.9532C70.1148 69.8029 70.2236 69.5706 70.0944 69.2562C69.9652 68.9419 69.7272 68.8462 69.3464 68.9966L69.1968 69.0581L69.5708 70.0216L69.7204 69.9601V69.9532ZM68.5508 68.8121L69.1968 68.5592C69.8496 68.3064 70.3732 68.4909 70.5908 69.0581C70.8084 69.6252 70.55 70.1172 69.8972 70.3701L69.734 70.4316L69.9448 70.9646L69.462 71.1559L68.5508 68.8121Z" fill="white"/>
<path d="M72.6172 68.894L72.2432 68.607C72.0936 68.4908 71.8896 68.2927 71.8896 68.2927C71.9304 68.443 71.9644 68.6002 71.9848 68.7573L72.046 69.2288L72.6172 68.9008V68.894ZM71.4136 67.4863L71.4544 67.4658L73.7052 69.0922L73.236 69.3655L72.9912 69.181L72.114 69.6867L72.1548 69.9942L71.7264 70.247L71.4136 67.5V67.4863Z" fill="white"/>
<path d="M73.508 67.698C73.0524 67.1718 73.1 66.3723 73.6236 65.9077C73.6372 65.894 73.6508 65.8872 73.6576 65.8735C73.95 65.5933 74.3716 65.4908 74.7524 65.6138L74.63 66.0853C74.3988 66.0102 74.1404 66.0648 73.9568 66.2288C73.6304 66.55 73.6236 67.0693 73.9364 67.3973C74.222 67.6912 74.6844 67.7322 75.0176 67.4862C75.2284 67.3153 75.3236 67.0488 75.2692 66.7892L75.752 66.7413C75.8132 67.1582 75.6432 67.5818 75.31 67.8415C74.7864 68.3062 73.984 68.2515 73.5216 67.7253C73.5148 67.7117 73.5012 67.7048 73.4944 67.6912" fill="white"/>
<path d="M74.8952 64.7456L75.922 63.4336L76.2756 63.7138L75.5684 64.6158L76.194 65.1078L76.8128 64.3151L77.1596 64.5884L76.5408 65.3811L76.8264 65.6066L77.5608 64.6636L77.9144 64.9438L76.8604 66.2968L74.8952 64.7388V64.7456Z" fill="white"/>
<path d="M26.622 32.4861C27.7984 30.7163 28.8796 29.0284 28.8796 25.5708V25.4068H24.2828V18.4163H32.6808V11.4258H15.6536V25.5708C15.6536 32.4861 11.0432 32.4861 11.0432 39.5586C11.0432 46.6311 15.6536 46.4739 15.6536 53.5464V67.6914H24.2828V53.5464C24.2828 46.4739 19.6724 46.4739 19.6724 39.5586C19.6724 36.0189 20.8488 34.2559 22.0252 32.4861H26.622Z" fill="white"/>
<path d="M107.964 25.5708C107.964 32.5613 103.353 32.5613 103.353 39.5586C103.353 46.5559 107.964 46.6311 107.964 53.5464V67.6914H99.6268L95.0164 60.2978L90.5012 67.6914H82.0624V53.5464C82.0624 46.6311 77.452 46.6311 77.452 39.5586C77.452 32.4861 82.0624 32.5681 82.0624 25.5708V11.4258H90.6916V25.5708C90.6916 32.5613 86.0812 32.5613 86.0812 39.5586C86.0812 45.9888 89.9096 46.5491 90.5964 51.9406C90.5964 51.8859 90.6282 51.8313 90.6916 51.7766C91.6436 48.5239 90.3992 45.1073 90.3992 45.1073C90.3992 45.1073 92.5276 44.4034 99.0352 51.7766C99.1372 51.8586 99.2052 51.9748 99.2324 52.0978C98.6408 46.5491 94.7172 46.0708 94.7172 39.5586C94.7172 32.5681 99.3276 32.5681 99.3276 25.5708V11.4258H107.964V25.5708Z" fill="white"/>
<path d="M54.4816 67.6914C51.5712 66.2086 49.3136 63.6871 48.1576 60.6189H43.7852V53.5464C43.7852 46.4739 39.1748 46.4739 39.1748 39.5586C39.1748 32.6433 43.7852 32.4861 43.7852 25.5708V11.4258H35.156V25.5708C35.156 32.4861 30.5456 32.4861 30.5456 39.5586C30.5456 46.6311 35.156 46.4739 35.156 53.5464V67.6914H54.4816Z" fill="white"/>
<path d="M67.2928 20.828C67.2928 18.901 65.3344 17.2883 62.9748 17.2883C60.6152 17.2883 58.6568 18.8942 58.6568 20.828V25.01C58.6568 31.9253 53.9512 31.9253 53.9512 38.9978C53.9512 46.0703 58.6568 45.9132 58.6568 52.9857V57.0857C58.6568 59.0947 60.52 60.6253 62.9748 60.6253C65.4296 60.6253 67.2928 59.1015 67.2928 57.0857V52.9857C67.2928 45.9132 62.6824 45.9132 62.6824 38.9978C62.6824 32.0825 67.2928 31.9253 67.2928 25.01V20.8348V20.828ZM75.922 20.828V25.01C75.922 31.9253 71.3116 31.9253 71.3116 38.9978C71.3116 46.0703 75.922 45.9132 75.922 52.9857V57.0857C75.922 61.746 72.2908 65.6888 67.286 67.1307C65.8784 67.5202 64.43 67.7115 62.968 67.691C61.5128 67.7115 60.0576 67.527 58.65 67.1307C53.55 65.682 50.014 61.746 50.014 57.0857V52.9857C50.014 45.9132 45.3084 45.9132 45.3084 38.9978C45.3084 32.0825 50.014 31.9253 50.014 25.01V20.8348C50.014 16.2565 53.5432 12.3137 58.65 10.8718C60.0508 10.4482 61.506 10.2295 62.968 10.2295C64.43 10.2363 65.8852 10.455 67.286 10.8718C72.2908 12.3205 75.922 16.2565 75.922 20.8348" fill="white"/>
</svg>
