<svg width="175" height="120" viewBox="0 0 175 120" fill="none" xmlns="http://www.w3.org/2000/svg">
<path d="M87.46 64.7005L83.25 62.2405L82.99 62.6805C82.02 64.1705 80.71 64.9605 79.13 64.9605C76.41 64.9605 74.3 62.8505 74.3 60.1305C74.3 57.4105 76.41 55.3005 79.13 55.3005C80.8 55.3005 82.03 56.0005 82.99 57.5805L83.34 58.0205L87.55 55.5605L87.2 55.0305C85.18 52.1305 82.55 50.7305 79.21 50.7305C72.8 50.7305 69.38 55.5605 69.38 60.1205C69.38 64.6805 72.8 69.6005 79.21 69.6005C82.46 69.6005 85.53 67.9305 87.2 65.3005L87.46 64.6905V64.7005Z" fill="white"/>
<path d="M87.28 69.5198H93.07L94.83 65.2198H103.52L105.28 69.5198H111.07L100.54 44.5098H95.36L96.76 47.8498L87.28 69.5298M99.13 54.3398L101.5 60.2198H96.76L99.13 54.3398Z" fill="white"/>
<path d="M113.35 69.5196H118.44V58.2896H121.78V53.5496H118.44V51.3596C118.44 50.3896 119.05 49.4296 120.28 49.4296C120.89 49.4296 121.33 49.5196 121.68 49.6896L122.21 49.9496L124.32 45.3896L123.71 45.1296C122.74 44.7796 121.43 44.5996 120.55 44.5996C118.27 44.5996 116.34 45.3896 115.11 46.7896C113.97 48.0196 113.35 49.7696 113.35 51.6196V53.6396H111.07V58.3796H113.26L113.35 69.5296V69.5196Z" fill="white"/>
<path d="M45.33 44.3301V69.5201H50.86V55.1301L56.21 59.0801L61.56 55.1301V69.5201H67.09V44.3301L56.21 52.5801L45.33 44.3301Z" fill="white"/>
<path d="M133.1 50.7402C126.69 50.7402 123.27 55.5702 123.27 60.1302C123.27 64.6902 126.69 69.5202 133.1 69.5202C136 69.5202 138.8 68.1202 140.91 65.7502L136.78 63.4702C135.73 64.5202 134.41 65.1402 133.01 65.1402C130.9 65.1402 129.06 63.7402 128.62 61.9802H142.4V60.7502C142.4 53.8202 136.96 50.7402 133.1 50.7402ZM128.71 57.7602C129.41 56.0002 130.82 55.0402 132.66 55.0402C134.5 55.0402 136 56.0102 136.79 57.7602H128.72H128.71Z" fill="white"/>
<path d="M153.81 50.7402C147.4 50.7402 143.98 55.5702 143.98 60.1302C143.98 64.6902 147.4 69.5202 153.81 69.5202C156.71 69.5202 159.51 68.1202 161.62 65.7502L157.49 63.4702C156.44 64.5202 155.12 65.1402 153.72 65.1402C151.61 65.1402 149.77 63.7402 149.33 61.9802H163.11V60.7502C163.11 53.8202 157.67 50.7402 153.81 50.7402ZM149.42 57.8502C150.12 56.0902 151.53 55.1302 153.37 55.1302C155.21 55.1302 156.71 56.1002 157.5 57.8502H149.43H149.42Z" fill="white"/>
<path d="M162.41 49.8604H164.52V50.3004H163.64V52.5804H163.2V50.3004H162.32V49.8604H162.41Z" fill="white"/>
<path d="M164.87 49.8604H165.48L166.18 51.9704L166.88 49.8604H167.49V52.4904H167.23V50.4704L166.53 52.4904H166.18L165.3 50.4704V52.4904H164.86V49.8604H164.87Z" fill="white"/>
<path d="M13.12 65.7501V53.0201L21.1 56.8001V50.6501L7.5 44.3301V69.3501L21.1 75.6701V69.5201L13.12 65.7501Z" fill="white"/>
<path d="M29.18 65.7501V53.0201L21.1 56.8001V50.6501L34.71 44.3301V69.3501L21.1 75.6701V69.5201L29.18 65.7501Z" fill="white"/>
</svg>
