<svg width="147" height="100" viewBox="0 0 147 100" fill="none" xmlns="http://www.w3.org/2000/svg">
<path d="M21.546 27.042V42.1337H28.4844V34.042H43.3272V65.9587H28.4844V57.867H21.546V72.9587H50.2656V27.042H21.546Z" fill="white"/>
<path d="M32.4072 36.8253V46.5337H16.9764V27.042H9.98759V72.9587H16.9764V53.467H32.4072V63.1753H39.396V36.8253H32.4072Z" fill="white"/>
<path d="M72.45 34.1409C70.4172 34.2992 70.2156 34.4076 70.2156 36.3492V45.4659C70.2156 47.4076 70.4256 47.5326 72.45 47.6909V48.3492H65.6376V47.6909C67.7544 47.5326 67.9476 47.4076 67.9476 45.4659V40.9909H59.5308V45.4659C59.5308 47.3909 59.724 47.5326 61.7652 47.6909V48.3492H55.0872V47.6909C57.0528 47.5326 57.2376 47.4076 57.2376 45.4659V36.3492C57.2376 34.4076 57.0612 34.2992 55.02 34.1409V33.4492H61.6308V34.1409C59.724 34.2992 59.5308 34.4076 59.5308 36.3492V39.9492H67.9476V36.3492C67.9476 34.4242 67.7544 34.2992 65.7972 34.1409V33.4492H72.4416V34.1409H72.45Z" fill="white"/>
<path d="M83.916 33.1079C88.2336 33.1079 92.1396 36.1163 92.1396 40.6996C92.1396 45.6496 88.2504 48.6996 83.5884 48.6996C78.9264 48.6996 75.306 45.4579 75.306 41.0413C75.306 36.8913 78.5736 33.0996 83.9076 33.0996H83.9244L83.916 33.1079ZM83.3784 33.9746C80.6232 33.9746 77.994 36.1163 77.994 40.4579C77.994 44.7996 80.6064 47.8496 84.1344 47.8496C86.8896 47.8496 89.418 45.7496 89.418 41.3163C89.418 36.5079 86.6292 33.9746 83.3952 33.9746H83.3784Z" fill="white"/>
<path d="M103.48 40.3492C105.991 40.6659 107.906 41.6659 107.906 43.9659C107.906 45.4992 107.024 46.6909 105.58 47.4409C104.32 48.0826 102.64 48.3492 100.691 48.3492H95.046V47.6909C97.146 47.5492 97.314 47.3909 97.314 45.4659V36.3659C97.314 34.4076 97.1964 34.2659 95.2644 34.1409V33.4492H101.766C103.639 33.4492 104.706 33.7159 105.521 34.2492C106.378 34.7992 106.898 35.7992 106.898 36.8659C106.898 39.0409 104.916 39.9326 103.488 40.2659V40.3409L103.48 40.3492ZM100.657 40.0492C103.312 40.0492 104.429 39.0659 104.429 37.1659C104.429 35.5242 103.463 34.2242 101.228 34.2242C100.64 34.2242 100.078 34.3492 99.8676 34.5076C99.6576 34.6492 99.5904 34.9159 99.5904 35.6159V40.0492H100.657ZM99.5904 45.4076C99.5904 47.1159 100.069 47.5492 101.606 47.5409C103.53 47.5076 105.269 46.5742 105.269 44.2076C105.269 41.8409 103.597 40.8576 100.607 40.8576H99.5904V45.4159V45.4076Z" fill="white"/>
<path d="M119.23 40.3492C121.741 40.6659 123.656 41.6659 123.656 43.9659C123.656 45.4992 122.774 46.6909 121.33 47.4409C120.07 48.0826 118.39 48.3492 116.441 48.3492H110.796V47.6909C112.896 47.5492 113.056 47.3909 113.056 45.4659V36.3659C113.056 34.4076 112.938 34.2659 111.006 34.1409V33.4492H117.508C119.381 33.4492 120.448 33.7159 121.262 34.2492C122.119 34.7992 122.64 35.7992 122.64 36.8659C122.64 39.0409 120.658 39.9326 119.23 40.2659V40.3409V40.3492ZM116.407 40.0492C119.062 40.0492 120.179 39.0659 120.179 37.1659C120.179 35.5242 119.213 34.2242 116.978 34.2242C116.39 34.2242 115.828 34.3492 115.618 34.5076C115.408 34.6492 115.34 34.9159 115.34 35.6159V40.0492H116.407ZM115.34 45.4076C115.34 47.1159 115.819 47.5492 117.356 47.5409C119.28 47.5076 121.019 46.5742 121.019 44.2076C121.019 41.8409 119.347 40.8576 116.357 40.8576H115.34V45.4159V45.4076Z" fill="white"/>
<path d="M135.232 37.0412C134.803 35.5662 134.047 33.9079 131.981 33.9079C130.141 33.9079 129.276 35.1495 129.276 36.3995C129.276 38.0162 130.41 38.7995 132.409 39.7162C134.492 40.6829 136.66 41.7662 136.66 44.2912C136.66 46.8162 134.459 48.7079 131.116 48.7079C130.099 48.7079 129.276 48.5329 128.654 48.3329C128.033 48.1412 127.688 47.9579 127.436 47.8495C127.268 47.3912 126.907 45.3162 126.764 44.1995L127.504 43.9995C127.915 45.4579 129.108 47.8495 131.62 47.8495C133.409 47.8495 134.459 46.7995 134.459 45.1579C134.459 43.5162 133.148 42.7162 131.275 41.7745C129.57 40.9579 127.226 39.8162 127.226 37.2995C127.226 35.0162 129.158 33.1162 132.359 33.1162C133.526 33.1162 134.627 33.3829 135.542 33.6662C135.643 34.4829 135.752 35.4162 135.971 36.9245L135.232 37.0495V37.0412Z" fill="white"/>
<path d="M69.8124 62.5998C69.4932 63.6998 68.8464 65.4998 68.4432 66.2331C67.746 66.3915 65.6628 66.8915 63.9156 66.8915C57.8256 66.8915 55.104 62.8998 55.104 59.2831C55.104 54.4581 59.0352 51.2998 64.512 51.2998C66.5364 51.2998 68.2416 51.8498 68.8968 51.9581C69.09 53.2581 69.258 54.2415 69.4008 55.5415L68.6868 55.6998C68.04 53.1665 66.4608 52.1581 63.8904 52.1581C59.8668 52.1581 57.7164 55.3831 57.7164 58.7998C57.7164 63.1248 60.3876 65.9998 64.092 65.9998C66.5364 65.9998 67.8804 64.6998 69.1236 62.3331L69.804 62.5998H69.8124Z" fill="white"/>
<path d="M83.6892 62.8328C83.5296 63.6161 83.0424 65.8245 82.8072 66.5328H71.9124V65.8745C73.9368 65.7328 74.1384 65.5745 74.1384 63.5745V54.5828C74.1384 52.5911 73.9788 52.4495 72.0216 52.3245V51.6328H78.414V52.3245C76.5492 52.4495 76.3308 52.5745 76.3308 54.5828V63.4911C76.3308 64.7411 76.44 65.1828 76.8852 65.4161C77.3472 65.6661 78.1452 65.7161 79.0776 65.7161C80.3208 65.7161 81.1608 65.5745 81.6984 64.9828C82.1436 64.5411 82.5804 63.7911 82.9752 62.6995L83.6892 62.8411V62.8328Z" fill="white"/>
<path d="M85.6464 66.525V65.8667C87.57 65.725 87.78 65.5833 87.78 63.6083V54.575C87.78 52.5833 87.5784 52.4417 85.6464 52.3167V51.625H92.0892V52.3167C90.1824 52.4417 89.9724 52.5833 89.9724 54.575V63.6083C89.9724 65.5833 90.174 65.725 92.0892 65.8667V66.525H85.6464Z" fill="white"/>
<path d="M111.14 52.3245C109.83 52.3829 109.259 52.6495 109.15 53.6995C109.074 54.4329 109.007 55.4662 109.007 57.5995V66.7579H108.251L97.8768 54.8245H97.8432L97.8264 60.4162C97.8264 62.5329 97.9188 63.6079 97.986 64.2662C98.0952 65.4579 98.6328 65.7412 100.262 65.8662V66.5245H94.6092V65.8662C95.97 65.7745 96.5664 65.4745 96.6756 64.3329C96.768 63.6162 96.8688 62.5329 96.8688 60.4162V55.4995C96.8688 53.8245 96.7932 53.6995 96.3648 53.1495C95.8776 52.5829 95.3736 52.3995 94.2648 52.3162V51.6245H97.8936L107.948 62.9329H108.007V57.5912C108.007 55.4579 107.915 54.4245 107.848 53.7662C107.738 52.6829 107.184 52.3912 105.496 52.3079V51.6162H111.132V52.3079L111.14 52.3245Z" fill="white"/>
<path d="M113.4 66.525V65.8667C115.324 65.725 115.534 65.5833 115.534 63.6083V54.575C115.534 52.5833 115.332 52.4417 113.4 52.3167V51.625H119.843V52.3167C117.936 52.4417 117.726 52.5833 117.726 54.575V63.6083C117.726 65.5833 117.928 65.725 119.843 65.8667V66.525H113.4Z" fill="white"/>
<path d="M137.012 62.5998C136.693 63.6998 136.046 65.4998 135.643 66.2331C134.946 66.3915 132.863 66.8915 131.116 66.8915C125.026 66.8915 122.304 62.8998 122.304 59.2831C122.304 54.4581 126.235 51.2998 131.712 51.2998C133.736 51.2998 135.442 51.8498 136.097 51.9581C136.29 53.2581 136.458 54.2415 136.601 55.5415L135.887 55.6998C135.24 53.1665 133.661 52.1581 131.09 52.1581C127.067 52.1581 124.916 55.3831 124.916 58.7998C124.916 63.1248 127.588 65.9998 131.292 65.9998C133.736 65.9998 135.08 64.6998 136.324 62.3331L137.004 62.5998H137.012Z" fill="white"/>
</svg>
