<svg width="175" height="120" viewBox="0 0 175 120" fill="none" xmlns="http://www.w3.org/2000/svg">
<g clip-path="url(#clip0_411_318)">
<path d="M93.86 87.5094V79.5094L99.21 87.5094H100.59V77.3194H99.3V85.3194L93.95 77.3194H92.57V87.5094H93.86ZM86.03 80.3394C86.27 79.6994 86.45 79.0494 86.58 78.3894C86.74 78.9394 86.98 79.6494 87.3 80.4994L88.36 83.3194H84.91L86.03 80.3294V80.3394ZM83.41 87.5094L84.53 84.4294H88.79L89.98 87.5094H91.52L87.35 77.3194H85.9L81.99 87.5094H83.42H83.41ZM79.02 85.8794C78.5 86.3194 77.86 86.5294 77.1 86.5294C76.48 86.5294 75.9 86.3694 75.37 86.0494C74.84 85.7294 74.44 85.2494 74.19 84.5994C73.94 83.9494 73.81 83.1994 73.81 82.3294C73.81 81.6594 73.92 81.0094 74.13 80.3694C74.34 79.7394 74.71 79.2294 75.24 78.8594C75.77 78.4794 76.42 78.2994 77.2 78.2994C77.88 78.2994 78.45 78.4694 78.9 78.8094C79.35 79.1494 79.69 79.6894 79.93 80.4294L81.26 80.1194C80.99 79.1794 80.5 78.4494 79.81 77.9294C79.12 77.4094 78.26 77.1494 77.24 77.1494C76.34 77.1494 75.52 77.3494 74.77 77.7594C74.02 78.1694 73.45 78.7694 73.04 79.5594C72.63 80.3494 72.43 81.2694 72.43 82.3394C72.43 83.3094 72.61 84.2194 72.97 85.0694C73.33 85.9194 73.85 86.5594 74.54 87.0094C75.23 87.4594 76.12 87.6794 77.22 87.6794C78.32 87.6794 79.18 87.3894 79.91 86.8094C80.64 86.2294 81.15 85.3794 81.43 84.2794L80.08 83.9394C79.89 84.7994 79.54 85.4394 79.02 85.8794ZM66.27 80.3394C66.51 79.6994 66.69 79.0494 66.82 78.3894C66.98 78.9394 67.22 79.6494 67.54 80.4994L68.6 83.3194H65.15L66.27 80.3294V80.3394ZM63.64 87.5094L64.76 84.4294H69.02L70.21 87.5094H71.75L67.58 77.3194H66.13L62.22 87.5094H63.65H63.64ZM54.43 78.4494H57.65C58.4 78.4494 58.96 78.6094 59.31 78.9194C59.66 79.2294 59.83 79.6294 59.83 80.1094C59.83 80.4394 59.74 80.7394 59.56 81.0194C59.38 81.2994 59.12 81.4994 58.77 81.6294C58.42 81.7594 57.94 81.8194 57.32 81.8194H54.42V78.4494H54.43ZM54.43 87.5094V82.9894H55.99C56.34 82.9894 56.59 83.0094 56.74 83.0394C56.95 83.0894 57.15 83.1794 57.35 83.3094C57.55 83.4394 57.78 83.6694 58.03 83.9894C58.28 84.3094 58.61 84.7794 59 85.3894L60.35 87.5094H62.05L60.28 84.7394C59.93 84.1994 59.56 83.7494 59.16 83.3894C58.97 83.2194 58.7 83.0494 58.35 82.8794C59.33 82.7494 60.05 82.4294 60.52 81.9394C60.99 81.4394 61.22 80.8394 61.22 80.1094C61.22 79.5494 61.08 79.0394 60.8 78.5694C60.52 78.1094 60.14 77.7794 59.67 77.5994C59.2 77.4194 58.51 77.3294 57.6 77.3294H53.08V87.5194H54.43V87.5094ZM49.47 83.1994C49.47 84.4794 49.26 85.3394 48.84 85.7894C48.42 86.2394 47.71 86.4594 46.72 86.4594C46.14 86.4594 45.65 86.3494 45.25 86.1194C44.85 85.8894 44.57 85.5694 44.4 85.1494C44.24 84.7294 44.15 84.0794 44.15 83.1894V77.3094H42.8V83.1894C42.8 84.2694 42.93 85.1194 43.19 85.7394C43.45 86.3594 43.88 86.8394 44.49 87.1694C45.1 87.4994 45.88 87.6594 46.83 87.6594C47.78 87.6594 48.61 87.4694 49.21 87.0894C49.81 86.7094 50.23 86.2194 50.46 85.6194C50.69 85.0194 50.81 84.2094 50.81 83.1794V77.2994H49.46V83.1794L49.47 83.1994ZM33.9 87.5094V82.7094H39.19V87.5094H40.54V77.3194H39.19V81.4994H33.9V77.3194H32.55V87.5094H33.9Z" fill="white"/>
<path d="M118.8 98.5596V97.9797H116.38V93.6396H115.73V98.5596H118.8ZM114.85 98.5596V97.9797H111.83V96.3096H114.55V95.7297H111.83V94.2197H114.74V93.6396H111.18V98.5596H114.85ZM106.05 98.5596V94.3697L107.47 98.5596H108.06L109.49 94.4397V98.5596H110.12V93.6396H109.24L108.06 97.0596C107.94 97.4096 107.85 97.6696 107.8 97.8496C107.75 97.6896 107.67 97.4497 107.57 97.1197L106.41 93.6396H105.43V98.5596H106.06H106.05ZM102.28 95.0896C102.39 94.7796 102.48 94.4697 102.55 94.1497C102.63 94.4197 102.74 94.7596 102.9 95.1696L103.41 96.5296H101.74L102.28 95.0896ZM101.01 98.5596L101.55 97.0696H103.61L104.18 98.5596H104.92L102.91 93.6396H102.21L100.32 98.5596H101.01ZM95.8 99.9996C95.99 99.9996 96.16 99.9496 96.3 99.8596C96.44 99.7696 96.56 99.6196 96.67 99.4196C96.75 99.2696 96.86 98.9996 97.01 98.6096L98.37 94.9896H97.77L97.01 97.0696C96.91 97.3296 96.83 97.5996 96.76 97.8796C96.68 97.5896 96.6 97.3197 96.5 97.0497L95.76 94.9896H95.11L96.46 98.5596C96.44 98.6196 96.42 98.6696 96.41 98.7096C96.32 98.9496 96.26 99.0997 96.23 99.1597C96.18 99.2397 96.11 99.2996 96.03 99.3496C95.95 99.3896 95.84 99.4196 95.71 99.4196C95.61 99.4196 95.5 99.3997 95.36 99.3697L95.43 99.9397C95.57 99.9897 95.7 100.01 95.82 100.01L95.8 99.9996ZM92.46 95.7496C92.65 95.5196 92.88 95.4097 93.14 95.4097C93.4 95.4097 93.62 95.5196 93.81 95.7396C93.99 95.9596 94.09 96.2996 94.09 96.7696C94.09 97.2396 93.99 97.5696 93.8 97.7896C93.61 98.0196 93.38 98.1296 93.12 98.1296C92.8 98.1296 92.54 97.9697 92.35 97.6597C92.23 97.4697 92.18 97.1597 92.18 96.7297C92.18 96.2997 92.28 95.9596 92.47 95.7396L92.46 95.7496ZM92.18 98.1096C92.42 98.4596 92.75 98.6396 93.17 98.6396C93.59 98.6396 93.96 98.4696 94.26 98.1396C94.56 97.8096 94.71 97.3297 94.71 96.7197C94.71 96.4597 94.67 96.2196 94.6 95.9996C94.53 95.7696 94.43 95.5796 94.3 95.4196C94.17 95.2596 94.01 95.1397 93.82 95.0497C93.62 94.9597 93.42 94.9196 93.2 94.9196C92.8 94.9196 92.48 95.0797 92.22 95.3997V93.6497H91.62V98.5696H92.18V98.1197V98.1096Z" fill="white"/>
<path d="M78.12 19.8095C78.12 19.4895 77.99 19.1895 77.75 18.9695C77.54 18.7795 77.27 18.6795 76.99 18.6795C76.87 18.6795 76.74 18.6995 76.62 18.7395C76.6 18.7395 76.59 18.7595 76.58 18.7695C76.57 18.7695 76.56 18.7795 76.55 18.7995C73.29 24.2195 71.03 30.1695 69.88 36.3895C69.82 36.6695 69.76 36.9495 69.71 37.2295C69.69 37.3195 69.68 37.4195 69.66 37.5095C69.62 37.6995 69.59 37.8895 69.56 38.0795C69.54 38.1895 69.52 38.2995 69.51 38.4095C69.48 38.5895 69.45 38.7595 69.43 38.9395C69.41 39.0595 69.4 39.1695 69.38 39.2895C69.36 39.4695 69.33 39.6395 69.31 39.8195C69.3 39.9295 69.28 40.0495 69.27 40.1595C69.25 40.3495 69.23 40.5295 69.21 40.7195C69.21 40.8195 69.19 40.9195 69.18 41.0195C69.16 41.2695 69.14 41.5095 69.12 41.7595C69.12 41.7995 69.12 41.8395 69.12 41.8795C69.1 42.1295 69.09 42.3695 69.08 42.6195L67.57 42.3695L66.53 42.1295L65.88 41.9695L64.24 41.4695L64.11 41.4195L62.82 40.9195L61.81 40.4695L61.15 40.1595C61.19 40.0495 61.23 39.9495 61.27 39.8395C61.28 39.7995 61.3 39.7595 61.31 39.7195C61.4 39.4595 61.49 39.1895 61.57 38.9195C61.59 38.8595 61.6 38.8095 61.62 38.7495C61.7 38.4995 61.77 38.2395 61.83 37.9895C61.86 37.9895 61.88 37.9595 61.88 37.9295L62.3 35.8395L62.65 33.7195L62.9 31.5695L63.02 29.4495L63.07 27.2995L63.02 25.1495L62.85 22.9995L62.58 20.8795L62.23 18.7595L61.76 16.6595L61.19 14.5895L60.54 12.5395L59.79 10.5395C59.79 10.5395 59.79 10.5395 59.79 10.5295C59.79 10.5295 59.79 10.5295 59.79 10.5195C59.79 10.5195 59.79 10.5195 59.78 10.5195C59.78 10.5195 59.78 10.5195 59.77 10.5195C59.77 10.5195 59.77 10.5195 59.76 10.5195C59.76 10.5195 59.76 10.5195 59.75 10.5195C59.75 10.5195 59.75 10.5195 59.74 10.5195C59.74 10.5195 59.74 10.5195 59.73 10.5195C59.73 10.5195 59.73 10.5195 59.73 10.5295C59.73 10.5295 59.73 10.5295 59.73 10.5395C59.73 10.5395 59.73 10.5395 59.73 10.5495C59.73 10.5495 59.73 10.5495 59.73 10.5595L60.35 12.5795L60.87 14.6495L61.32 16.7195L61.67 18.8095L61.94 20.8995L62.11 23.0195L62.18 25.1395V27.2795L62.08 29.3995L61.91 31.5195L61.62 33.5595C61.62 33.5595 61.61 33.5795 61.61 33.5895C61.57 33.8195 61.53 34.0495 61.49 34.2695C61.48 34.3395 61.46 34.3995 61.45 34.4695C61.41 34.6395 61.38 34.8095 61.34 34.9795C61.33 35.0395 61.31 35.0995 61.3 35.1595C61.25 35.3895 61.19 35.6095 61.13 35.8395C61.13 35.8495 61.13 35.8695 61.12 35.8795C61.06 36.0895 61 36.2995 60.94 36.5095C60.92 36.5695 60.9 36.6295 60.88 36.6895C60.82 36.8695 60.77 37.0395 60.71 37.2195C60.69 37.2695 60.68 37.3195 60.66 37.3695C60.58 37.5895 60.5 37.8095 60.42 38.0295C60.41 38.0595 60.4 38.0895 60.38 38.1195C60.31 38.3095 60.23 38.4895 60.16 38.6795C60.14 38.7395 60.11 38.7995 60.09 38.8595C60.01 39.0395 59.94 39.2095 59.86 39.3895C59.86 39.3895 59.86 39.3995 59.86 39.4095C55.66 36.9095 52.36 33.1395 50.45 28.6395C50.45 28.6095 50.43 28.5795 50.43 28.5495C50.43 28.5095 50.38 28.4795 50.34 28.4895C50.33 28.4895 50.32 28.4995 50.31 28.5095C50.28 28.5295 50.27 28.5595 50.28 28.5895L50.42 29.0995C50.42 29.0995 50.43 29.1495 50.44 29.1695L50.48 29.3095C50.5 29.3895 50.52 29.4695 50.55 29.5495L50.63 29.8395L50.72 30.0895C50.74 30.1495 50.76 30.2095 50.78 30.2695C50.81 30.3595 50.84 30.4595 50.88 30.5495C50.9 30.5995 50.91 30.6395 50.93 30.6895L51.06 31.0595L51.56 32.2395L52.16 33.3895L52.46 33.8795C52.47 33.8995 52.49 33.9295 52.5 33.9495C52.52 33.9795 52.54 34.0095 52.55 34.0395L52.83 34.4895L53.55 35.5395L54.37 36.5395L55.24 37.4695L56.19 38.3495L57.21 39.1495L57.71 39.4995L58.25 39.8695L59.28 40.4995C58.76 41.4895 58.16 42.4495 57.5 43.3595L57.03 43.9795C56.84 44.2195 56.65 44.4595 56.44 44.6995L56.22 44.9495C55.18 46.1395 54.01 47.2195 52.72 48.1795L52.61 48.2595C52.49 48.3495 52.36 48.4395 52.24 48.5295C52.21 48.5295 52.19 48.5395 52.17 48.5695C52.07 48.7395 52.03 48.9195 52.03 49.1095C52.03 49.3395 52.1 49.5695 52.25 49.7595C52.46 50.0395 52.78 50.1895 53.12 50.1895C53.2 50.1895 53.28 50.1895 53.36 50.1595C53.38 50.1595 53.39 50.1595 53.41 50.1495C53.65 49.9895 53.88 49.8095 54.11 49.6395C54.18 49.5895 54.25 49.5295 54.32 49.4795C54.48 49.3495 54.65 49.2195 54.81 49.0895C54.88 49.0295 54.96 48.9695 55.03 48.9095C55.2 48.7595 55.38 48.6095 55.55 48.4595C55.6 48.4195 55.64 48.3795 55.69 48.3395C55.9 48.1495 56.11 47.9495 56.31 47.7495C56.36 47.6995 56.41 47.6395 56.47 47.5895C56.62 47.4395 56.77 47.2795 56.92 47.1195C56.98 47.0495 57.05 46.9795 57.11 46.9095C57.25 46.7595 57.39 46.5995 57.52 46.4395C57.57 46.3795 57.63 46.3095 57.68 46.2495C57.86 46.0295 58.04 45.8095 58.22 45.5795C58.24 45.5495 58.26 45.5295 58.28 45.4995C58.43 45.2995 58.58 45.0895 58.73 44.8795C58.78 44.8095 58.83 44.7295 58.88 44.6595C59 44.4895 59.11 44.3195 59.22 44.1495C59.27 44.0695 59.32 43.9895 59.37 43.9195C59.49 43.7195 59.62 43.5195 59.73 43.3195C59.76 43.2695 59.79 43.2295 59.81 43.1795C59.95 42.9295 60.09 42.6795 60.22 42.4295C60.26 42.3595 60.29 42.2895 60.32 42.2195C60.42 42.0295 60.51 41.8395 60.6 41.6495C60.64 41.5595 60.68 41.4695 60.72 41.3795C60.74 41.3295 60.76 41.2895 60.78 41.2395C62.28 42.1395 63.94 42.6995 65.65 42.8995C66.1 42.9495 66.56 42.9795 67.02 42.9795C67.21 42.9795 67.4 42.9795 67.58 42.9695C67.64 42.9695 67.7 42.9695 67.77 42.9595C67.9 42.9595 68.02 42.9495 68.15 42.9295C68.23 42.9295 68.3 42.9095 68.38 42.8995C68.49 42.8895 68.6 42.8795 68.72 42.8595C68.81 42.8495 68.9 42.8295 68.99 42.8195C69.05 42.8195 69.11 42.7995 69.17 42.7895C69.16 43.0995 69.15 43.4095 69.15 43.7095C69.15 43.7295 69.16 43.7495 69.18 43.7695C69.11 44.6695 69.07 45.5595 69.07 46.4595C69.07 49.2595 69.41 52.0595 70.09 54.7795C70.09 54.7895 70.09 54.7995 70.09 54.8095C70.18 55.0695 70.27 55.3295 70.36 55.5795C70.39 55.6595 70.42 55.7295 70.45 55.8095C70.52 55.9895 70.58 56.1695 70.65 56.3495C70.69 56.4495 70.73 56.5395 70.77 56.6395C70.83 56.7995 70.9 56.9495 70.96 57.1095C71 57.2095 71.05 57.3095 71.1 57.4095C71.17 57.5595 71.23 57.6995 71.3 57.8495C71.35 57.9495 71.4 58.0595 71.45 58.1595C71.52 58.2995 71.58 58.4395 71.65 58.5795C71.7 58.6895 71.76 58.7895 71.81 58.8895C71.88 59.0295 71.95 59.1595 72.02 59.2995C72.08 59.4095 72.14 59.5095 72.2 59.6195C72.27 59.7495 72.34 59.8795 72.42 60.0195C72.48 60.1295 72.54 60.2295 72.61 60.3395C72.69 60.4695 72.76 60.5995 72.84 60.7195C72.9 60.8295 72.97 60.9295 73.04 61.0395C73.12 61.1595 73.2 61.2895 73.28 61.4095C73.35 61.5195 73.42 61.6195 73.49 61.7195C73.57 61.8395 73.65 61.9595 73.73 62.0795C73.8 62.1795 73.88 62.2895 73.95 62.3895C74.03 62.5095 74.12 62.6295 74.2 62.7395C74.28 62.8395 74.35 62.9395 74.43 63.0495C74.52 63.1695 74.6 63.2795 74.69 63.3895C74.77 63.4895 74.85 63.5895 74.93 63.6895C75.02 63.7995 75.11 63.9195 75.2 64.0295C75.28 64.1295 75.37 64.2295 75.45 64.3195C75.54 64.4295 75.64 64.5395 75.73 64.6495C75.81 64.7495 75.9 64.8395 75.99 64.9395C76.09 65.0495 76.18 65.1495 76.28 65.2595C76.37 65.3495 76.46 65.4495 76.55 65.5395C76.61 65.5995 76.67 65.6695 76.73 65.7295C76.74 65.7495 76.75 65.7595 76.77 65.7795C76.77 65.7795 76.78 65.7795 76.79 65.7895C76.83 65.8295 76.87 65.8795 76.91 65.9195C76.94 65.9495 76.99 65.9495 77.02 65.9195C77.05 65.8895 77.05 65.8395 77.02 65.8095C76.96 65.7495 76.9 65.6795 76.84 65.6195C73.17 61.0495 71 55.4595 70.62 49.6095C70.62 49.5995 70.64 49.5795 70.64 49.5595L70.52 47.4195V45.2795L70.62 43.1395L70.84 41.0195L71.19 38.8795L71.61 36.7895L72.16 34.7195L72.83 32.6795L73.53 30.4895L74.3 28.3495L75.15 26.2295L76.1 24.1395L77.12 22.0995L78.22 20.0795C78.22 20.0795 78.23 20.0495 78.22 20.0295C78.24 19.9495 78.25 19.8695 78.25 19.7795L78.12 19.8095Z" fill="white"/>
<path d="M140.73 108.42V106.96C140.73 106.62 140.8 106.38 140.94 106.26C141.08 106.14 141.25 106.08 141.44 106.08C141.56 106.08 141.67 106.11 141.76 106.16C141.85 106.21 141.91 106.29 141.95 106.38C141.99 106.47 142 106.61 142 106.79V108.42H142.45V106.77C142.45 106.56 142.45 106.41 142.42 106.33C142.39 106.2 142.35 106.09 142.28 105.99C142.21 105.9 142.11 105.82 141.98 105.76C141.84 105.7 141.7 105.67 141.53 105.67C141.16 105.67 140.87 105.82 140.68 106.11V105.73H140.27V108.41H140.72L140.73 108.42ZM137.98 106.26C138.12 106.12 138.3 106.05 138.51 106.05C138.74 106.05 138.93 106.14 139.07 106.31C139.16 106.42 139.22 106.59 139.24 106.82H137.74C137.76 106.59 137.83 106.4 137.98 106.26ZM138.95 107.97C138.83 108.06 138.69 108.1 138.52 108.1C138.3 108.1 138.11 108.02 137.96 107.87C137.81 107.71 137.73 107.49 137.71 107.19H139.71C139.71 107.14 139.71 107.1 139.71 107.07C139.71 106.63 139.6 106.28 139.37 106.04C139.14 105.8 138.85 105.67 138.49 105.67C138.13 105.67 137.82 105.79 137.59 106.04C137.36 106.29 137.24 106.64 137.24 107.09C137.24 107.54 137.35 107.86 137.58 108.1C137.81 108.34 138.12 108.46 138.51 108.46C138.82 108.46 139.08 108.38 139.28 108.23C139.48 108.08 139.62 107.87 139.69 107.59L139.22 107.53C139.15 107.72 139.06 107.86 138.94 107.95L138.95 107.97ZM133.55 108.42V107.03C133.55 106.79 133.57 106.6 133.62 106.47C133.67 106.34 133.75 106.24 133.86 106.17C133.97 106.1 134.09 106.07 134.21 106.07C134.38 106.07 134.5 106.12 134.57 106.22C134.64 106.32 134.68 106.47 134.68 106.67V108.41H135.13V106.85C135.13 106.57 135.19 106.37 135.32 106.25C135.45 106.13 135.6 106.06 135.79 106.06C135.89 106.06 135.98 106.08 136.06 106.13C136.14 106.18 136.19 106.24 136.22 106.32C136.25 106.4 136.26 106.53 136.26 106.71V108.4H136.71V106.56C136.71 106.25 136.64 106.03 136.5 105.88C136.36 105.73 136.15 105.66 135.89 105.66C135.55 105.66 135.27 105.82 135.06 106.13C135.01 105.98 134.92 105.87 134.79 105.78C134.66 105.7 134.5 105.66 134.3 105.66C134.12 105.66 133.96 105.7 133.82 105.78C133.68 105.86 133.57 105.97 133.48 106.1V105.72H133.07V108.4H133.52L133.55 108.42ZM130.75 106.31C130.9 106.14 131.09 106.06 131.31 106.06C131.53 106.06 131.72 106.15 131.87 106.32C132.02 106.49 132.1 106.74 132.1 107.07C132.1 107.42 132.03 107.68 131.88 107.85C131.73 108.02 131.54 108.11 131.32 108.11C131.1 108.11 130.9 108.02 130.76 107.85C130.61 107.68 130.54 107.42 130.54 107.08C130.54 106.74 130.61 106.48 130.76 106.31H130.75ZM130.41 108.12C130.64 108.36 130.94 108.48 131.32 108.48C131.55 108.48 131.77 108.43 131.97 108.32C132.17 108.21 132.32 108.06 132.42 107.86C132.52 107.66 132.58 107.39 132.58 107.05C132.58 106.62 132.46 106.29 132.23 106.05C132 105.81 131.7 105.69 131.33 105.69C131 105.69 130.72 105.79 130.49 105.99C130.21 106.23 130.08 106.6 130.08 107.09C130.08 107.54 130.2 107.89 130.43 108.13L130.41 108.12ZM127.47 108.42L128.01 106.36L128.11 106.82L128.54 108.42H129.01L129.85 105.74H129.41L128.95 107.29L128.8 107.81L128.67 107.3L128.27 105.75H127.8L127.37 107.32C127.28 107.66 127.24 107.84 127.23 107.87L127.07 107.3L126.64 105.75H126.17L126.99 108.43H127.46L127.47 108.42ZM123.1 107.95C122.95 108.03 122.81 108.08 122.68 108.08C122.46 108.08 122.29 108 122.17 107.84C122.05 107.68 121.99 107.52 121.99 107.37C121.99 107.25 122.03 107.12 122.12 107C122.21 106.88 122.37 106.74 122.62 106.59L123.45 107.62C123.36 107.75 123.25 107.86 123.1 107.95ZM122.61 105.82C122.55 105.75 122.51 105.68 122.48 105.62C122.45 105.56 122.44 105.5 122.44 105.44C122.44 105.33 122.48 105.23 122.56 105.15C122.64 105.07 122.74 105.03 122.87 105.03C123 105.03 123.09 105.07 123.17 105.15C123.25 105.23 123.29 105.33 123.29 105.46C123.29 105.57 123.26 105.66 123.2 105.75C123.14 105.84 123.01 105.94 122.82 106.06L122.62 105.83L122.61 105.82ZM124.3 108.5L124.61 108.14C124.39 107.99 124.2 107.8 124.03 107.57C124.17 107.36 124.28 107.1 124.36 106.77L123.89 106.67C123.85 106.87 123.79 107.04 123.71 107.18L123.05 106.34C123.52 106.09 123.75 105.79 123.75 105.44C123.75 105.22 123.67 105.04 123.51 104.88C123.35 104.72 123.14 104.65 122.89 104.65C122.64 104.65 122.41 104.73 122.23 104.9C122.06 105.06 121.97 105.26 121.97 105.48C121.97 105.59 122 105.71 122.05 105.83C122.11 105.95 122.22 106.1 122.38 106.3C122.09 106.44 121.87 106.6 121.72 106.79C121.57 106.97 121.5 107.18 121.5 107.41C121.5 107.67 121.59 107.9 121.77 108.11C121.99 108.37 122.29 108.49 122.67 108.49C122.87 108.49 123.07 108.45 123.24 108.37C123.41 108.29 123.58 108.16 123.73 108C123.93 108.23 124.11 108.4 124.3 108.52V108.5ZM117.77 108.42V106.96C117.77 106.62 117.84 106.38 117.98 106.26C118.12 106.14 118.29 106.08 118.48 106.08C118.6 106.08 118.71 106.11 118.8 106.16C118.89 106.21 118.95 106.29 118.99 106.38C119.03 106.47 119.04 106.61 119.04 106.79V108.42H119.49V106.77C119.49 106.56 119.49 106.41 119.46 106.33C119.43 106.2 119.39 106.09 119.32 105.99C119.25 105.9 119.15 105.82 119.02 105.76C118.88 105.7 118.74 105.67 118.57 105.67C118.2 105.67 117.91 105.82 117.72 106.11V105.73H117.31V108.41H117.76L117.77 108.42ZM115.02 106.26C115.16 106.12 115.34 106.05 115.55 106.05C115.78 106.05 115.97 106.14 116.11 106.31C116.2 106.42 116.26 106.59 116.28 106.82H114.78C114.8 106.59 114.87 106.4 115.02 106.26ZM116 107.97C115.88 108.06 115.74 108.1 115.57 108.1C115.35 108.1 115.16 108.02 115.01 107.87C114.86 107.71 114.78 107.49 114.76 107.19H116.76C116.76 107.14 116.76 107.1 116.76 107.07C116.76 106.63 116.65 106.28 116.42 106.04C116.19 105.8 115.9 105.67 115.54 105.67C115.18 105.67 114.87 105.79 114.64 106.04C114.41 106.29 114.29 106.64 114.29 107.09C114.29 107.54 114.4 107.86 114.63 108.1C114.86 108.34 115.17 108.46 115.56 108.46C115.87 108.46 116.13 108.38 116.33 108.23C116.53 108.08 116.67 107.87 116.74 107.59L116.27 107.53C116.2 107.72 116.11 107.86 115.99 107.95L116 107.97ZM110.59 108.42V107.03C110.59 106.79 110.61 106.6 110.66 106.47C110.71 106.34 110.79 106.24 110.9 106.17C111.01 106.1 111.13 106.07 111.25 106.07C111.42 106.07 111.54 106.12 111.61 106.22C111.68 106.32 111.72 106.47 111.72 106.67V108.41H112.17V106.85C112.17 106.57 112.23 106.37 112.36 106.25C112.48 106.12 112.64 106.06 112.83 106.06C112.93 106.06 113.03 106.08 113.1 106.13C113.18 106.18 113.23 106.24 113.26 106.32C113.29 106.4 113.3 106.53 113.3 106.71V108.4H113.75V106.56C113.75 106.25 113.68 106.03 113.54 105.88C113.4 105.73 113.19 105.66 112.93 105.66C112.59 105.66 112.31 105.82 112.1 106.13C112.05 105.98 111.96 105.87 111.83 105.78C111.7 105.7 111.54 105.66 111.34 105.66C111.16 105.66 111 105.7 110.86 105.78C110.72 105.86 110.61 105.97 110.52 106.1V105.72H110.11V108.4H110.56L110.59 108.42ZM107.43 108.42V107.02C107.43 106.83 107.46 106.65 107.51 106.49C107.54 106.38 107.6 106.3 107.68 106.24C107.76 106.18 107.85 106.15 107.95 106.15C108.06 106.15 108.17 106.18 108.28 106.25L108.44 105.83C108.28 105.73 108.13 105.68 107.97 105.68C107.86 105.68 107.77 105.71 107.68 105.77C107.59 105.83 107.5 105.96 107.39 106.15V105.74H106.98V108.42H107.43ZM104.64 106.31C104.79 106.14 104.98 106.06 105.2 106.06C105.42 106.06 105.61 106.15 105.76 106.32C105.91 106.49 105.99 106.74 105.99 107.07C105.99 107.42 105.92 107.68 105.77 107.85C105.62 108.02 105.43 108.11 105.21 108.11C104.99 108.11 104.79 108.02 104.65 107.85C104.5 107.68 104.43 107.42 104.43 107.08C104.43 106.74 104.5 106.48 104.65 106.31H104.64ZM104.29 108.12C104.52 108.36 104.82 108.48 105.2 108.48C105.43 108.48 105.65 108.43 105.85 108.32C106.05 108.21 106.2 108.06 106.3 107.86C106.4 107.66 106.46 107.39 106.46 107.05C106.46 106.62 106.34 106.29 106.11 106.05C105.88 105.81 105.58 105.69 105.21 105.69C104.88 105.69 104.6 105.79 104.37 105.99C104.09 106.23 103.96 106.6 103.96 107.09C103.96 107.54 104.08 107.89 104.31 108.13L104.29 108.12ZM103.24 108.42V106.1H103.76V105.75H103.24V105.5C103.24 105.34 103.27 105.23 103.33 105.17C103.39 105.11 103.48 105.08 103.62 105.08C103.7 105.08 103.79 105.08 103.89 105.11L103.96 104.71C103.81 104.68 103.66 104.66 103.54 104.66C103.34 104.66 103.19 104.7 103.08 104.77C102.97 104.84 102.89 104.94 102.85 105.06C102.82 105.15 102.8 105.28 102.8 105.46V105.74H102.4V106.09H102.8V108.41H103.25L103.24 108.42ZM100.08 107.24C100.08 107.44 100.06 107.59 100.01 107.69C99.95 107.82 99.85 107.93 99.71 108C99.57 108.08 99.42 108.11 99.24 108.11C99.06 108.11 98.93 108.07 98.84 107.99C98.75 107.91 98.7 107.81 98.7 107.69C98.7 107.61 98.72 107.54 98.76 107.47C98.8 107.41 98.86 107.36 98.94 107.32C99.02 107.29 99.15 107.26 99.34 107.23C99.67 107.18 99.92 107.13 100.08 107.06V107.23V107.24ZM100.21 108.42H100.68C100.62 108.32 100.58 108.21 100.57 108.1C100.55 107.99 100.54 107.72 100.54 107.3V106.69C100.54 106.49 100.54 106.35 100.52 106.27C100.49 106.15 100.45 106.04 100.38 105.96C100.31 105.88 100.21 105.81 100.06 105.76C99.91 105.71 99.73 105.68 99.5 105.68C99.27 105.68 99.07 105.71 98.89 105.77C98.71 105.83 98.58 105.92 98.49 106.04C98.4 106.16 98.33 106.31 98.29 106.5L98.73 106.56C98.78 106.37 98.85 106.24 98.96 106.16C99.06 106.09 99.22 106.05 99.43 106.05C99.66 106.05 99.83 106.1 99.95 106.2C100.04 106.28 100.08 106.41 100.08 106.59C100.08 106.61 100.08 106.65 100.08 106.71C99.91 106.77 99.64 106.82 99.27 106.87C99.09 106.89 98.96 106.91 98.87 106.94C98.75 106.97 98.64 107.02 98.54 107.09C98.44 107.16 98.37 107.24 98.31 107.35C98.25 107.46 98.22 107.58 98.22 107.71C98.22 107.93 98.3 108.12 98.46 108.26C98.62 108.4 98.84 108.48 99.14 108.48C99.32 108.48 99.49 108.45 99.64 108.39C99.8 108.33 99.96 108.23 100.13 108.09C100.14 108.22 100.17 108.33 100.22 108.42H100.21ZM96.14 106.3C96.29 106.12 96.46 106.03 96.65 106.03C96.84 106.03 97.01 106.11 97.15 106.28C97.29 106.45 97.36 106.71 97.36 107.05C97.36 107.41 97.29 107.67 97.14 107.84C97 108.01 96.82 108.1 96.62 108.1C96.42 108.1 96.25 108.02 96.11 107.85C95.97 107.69 95.9 107.43 95.9 107.09C95.9 106.75 95.97 106.48 96.12 106.3H96.14ZM95.96 109.44V108.14C96.04 108.24 96.14 108.32 96.26 108.38C96.38 108.44 96.52 108.48 96.67 108.48C96.88 108.48 97.07 108.42 97.26 108.3C97.45 108.18 97.59 108.02 97.69 107.8C97.79 107.58 97.84 107.33 97.84 107.06C97.84 106.8 97.8 106.57 97.71 106.36C97.62 106.15 97.49 105.98 97.31 105.86C97.14 105.74 96.93 105.68 96.7 105.68C96.53 105.68 96.38 105.71 96.25 105.78C96.12 105.85 96.02 105.95 95.92 106.09V105.74H95.51V109.44H95.96ZM92.15 107.89C92.28 108.09 92.46 108.23 92.68 108.33C92.91 108.43 93.19 108.48 93.52 108.48C93.78 108.48 94.02 108.43 94.23 108.33C94.44 108.23 94.6 108.1 94.72 107.92C94.83 107.75 94.89 107.56 94.89 107.36C94.89 107.16 94.84 106.99 94.74 106.83C94.64 106.68 94.48 106.55 94.26 106.45C94.11 106.38 93.84 106.3 93.44 106.21C93.04 106.12 92.8 106.03 92.7 105.95C92.6 105.86 92.56 105.75 92.56 105.62C92.56 105.47 92.63 105.34 92.76 105.23C92.9 105.12 93.11 105.07 93.41 105.07C93.71 105.07 93.91 105.13 94.05 105.25C94.2 105.37 94.28 105.55 94.31 105.78L94.78 105.74C94.78 105.52 94.71 105.33 94.6 105.16C94.49 104.99 94.33 104.86 94.12 104.77C93.91 104.68 93.67 104.64 93.4 104.64C93.15 104.64 92.93 104.68 92.72 104.77C92.52 104.85 92.36 104.98 92.26 105.14C92.15 105.3 92.1 105.48 92.1 105.66C92.1 105.83 92.14 105.98 92.23 106.12C92.32 106.26 92.45 106.37 92.62 106.46C92.76 106.53 92.99 106.61 93.33 106.69C93.67 106.77 93.89 106.83 93.99 106.87C94.14 106.93 94.26 107 94.32 107.09C94.39 107.18 94.42 107.28 94.42 107.39C94.42 107.5 94.39 107.61 94.32 107.71C94.25 107.81 94.14 107.88 94 107.94C93.86 108 93.69 108.02 93.51 108.02C93.3 108.02 93.11 107.98 92.94 107.91C92.77 107.84 92.65 107.74 92.57 107.62C92.49 107.5 92.44 107.35 92.42 107.16L91.96 107.2C91.96 107.45 92.03 107.67 92.16 107.86L92.15 107.89ZM88.26 106.3C88.4 106.14 88.56 106.05 88.77 106.05C88.98 106.05 89.15 106.14 89.29 106.31C89.43 106.48 89.5 106.75 89.5 107.12C89.5 107.45 89.43 107.7 89.29 107.86C89.15 108.02 88.98 108.1 88.78 108.1C88.58 108.1 88.41 108.02 88.27 107.85C88.13 107.68 88.05 107.42 88.05 107.08C88.05 106.74 88.12 106.47 88.25 106.3H88.26ZM89.91 108.42V104.72H89.46V106.05C89.38 105.94 89.28 105.85 89.15 105.78C89.02 105.71 88.88 105.68 88.72 105.68C88.5 105.68 88.3 105.74 88.12 105.85C87.94 105.96 87.81 106.13 87.72 106.35C87.63 106.57 87.59 106.81 87.59 107.08C87.59 107.35 87.64 107.6 87.74 107.81C87.84 108.02 87.98 108.19 88.16 108.3C88.34 108.42 88.54 108.48 88.75 108.48C89.08 108.48 89.33 108.35 89.5 108.08V108.42H89.92H89.91ZM85.33 108.42V106.96C85.33 106.62 85.4 106.38 85.54 106.26C85.68 106.14 85.85 106.08 86.04 106.08C86.16 106.08 86.27 106.11 86.36 106.16C86.45 106.21 86.51 106.29 86.55 106.38C86.59 106.47 86.6 106.61 86.6 106.79V108.42H87.05V106.77C87.05 106.56 87.05 106.41 87.02 106.33C86.99 106.2 86.95 106.09 86.88 105.99C86.81 105.9 86.71 105.82 86.58 105.76C86.44 105.7 86.3 105.67 86.13 105.67C85.76 105.67 85.47 105.82 85.28 106.11V105.73H84.87V108.41H85.32L85.33 108.42ZM83.72 107.24C83.72 107.44 83.7 107.59 83.65 107.69C83.59 107.82 83.49 107.93 83.35 108C83.21 108.07 83.06 108.11 82.88 108.11C82.7 108.11 82.57 108.07 82.48 107.99C82.39 107.91 82.34 107.81 82.34 107.69C82.34 107.61 82.36 107.54 82.4 107.47C82.44 107.41 82.5 107.36 82.58 107.32C82.66 107.29 82.79 107.26 82.98 107.23C83.31 107.18 83.56 107.13 83.72 107.06V107.23V107.24ZM83.85 108.42H84.32C84.26 108.32 84.22 108.21 84.21 108.1C84.19 107.99 84.18 107.72 84.18 107.3V106.69C84.18 106.49 84.18 106.35 84.16 106.27C84.13 106.15 84.09 106.04 84.02 105.96C83.95 105.88 83.85 105.81 83.7 105.76C83.55 105.71 83.37 105.68 83.14 105.68C82.91 105.68 82.71 105.71 82.53 105.77C82.35 105.83 82.22 105.92 82.13 106.04C82.04 106.16 81.97 106.31 81.93 106.5L82.37 106.56C82.42 106.37 82.49 106.24 82.6 106.16C82.7 106.09 82.86 106.05 83.07 106.05C83.3 106.05 83.47 106.1 83.59 106.2C83.68 106.28 83.72 106.41 83.72 106.59C83.72 106.61 83.72 106.65 83.72 106.71C83.55 106.77 83.28 106.82 82.91 106.87C82.73 106.89 82.6 106.91 82.51 106.94C82.39 106.97 82.28 107.02 82.18 107.09C82.08 107.16 82.01 107.24 81.95 107.35C81.89 107.46 81.86 107.58 81.86 107.71C81.86 107.93 81.94 108.12 82.1 108.26C82.26 108.4 82.48 108.48 82.78 108.48C82.96 108.48 83.13 108.45 83.28 108.39C83.44 108.33 83.6 108.23 83.77 108.09C83.78 108.22 83.81 108.33 83.86 108.42H83.85ZM78.26 109.5C78.4 109.5 78.53 109.47 78.63 109.4C78.73 109.33 78.83 109.22 78.91 109.07C78.97 108.96 79.06 108.76 79.16 108.46L80.18 105.74H79.73L79.16 107.3C79.09 107.5 79.03 107.7 78.97 107.91C78.91 107.69 78.85 107.49 78.78 107.29L78.22 105.74H77.73L78.75 108.42C78.75 108.42 78.72 108.51 78.71 108.53C78.65 108.71 78.6 108.82 78.57 108.87C78.53 108.93 78.48 108.98 78.42 109.01C78.36 109.04 78.28 109.06 78.18 109.06C78.11 109.06 78.02 109.05 77.92 109.02L77.97 109.45C78.08 109.49 78.18 109.51 78.26 109.51V109.5ZM77.35 108.03C77.28 108.03 77.23 108.02 77.19 108C77.15 107.98 77.13 107.95 77.11 107.91C77.09 107.87 77.09 107.79 77.09 107.66V106.09H77.55V105.74H77.09V104.8L76.64 105.07V105.73H76.31V106.08H76.64V107.62C76.64 107.89 76.66 108.07 76.7 108.16C76.74 108.24 76.8 108.31 76.89 108.37C76.98 108.42 77.11 108.45 77.27 108.45C77.37 108.45 77.49 108.44 77.61 108.41L77.54 108.01C77.46 108.02 77.39 108.03 77.34 108.03H77.35ZM75.85 108.42V105.74H75.4V107.17C75.4 107.4 75.38 107.57 75.33 107.69C75.28 107.81 75.2 107.91 75.08 107.97C74.96 108.04 74.83 108.07 74.7 108.07C74.57 108.07 74.45 108.04 74.36 107.97C74.27 107.9 74.21 107.81 74.18 107.69C74.16 107.61 74.15 107.45 74.15 107.21V105.72H73.7V107.38C73.7 107.57 73.7 107.71 73.73 107.8C73.76 107.93 73.8 108.04 73.87 108.14C73.94 108.24 74.04 108.31 74.18 108.37C74.32 108.43 74.46 108.46 74.62 108.46C74.98 108.46 75.26 108.31 75.47 108.01V108.4H75.88L75.85 108.42ZM72.52 107.24C72.52 107.44 72.5 107.59 72.45 107.69C72.39 107.82 72.29 107.93 72.15 108C72.01 108.07 71.86 108.11 71.68 108.11C71.5 108.11 71.37 108.07 71.28 107.99C71.19 107.91 71.14 107.81 71.14 107.69C71.14 107.61 71.16 107.54 71.2 107.47C71.24 107.41 71.3 107.36 71.38 107.32C71.46 107.29 71.59 107.26 71.78 107.23C72.11 107.18 72.36 107.13 72.52 107.06V107.23V107.24ZM72.65 108.42H73.12C73.06 108.32 73.02 108.21 73.01 108.1C72.99 107.99 72.98 107.72 72.98 107.3V106.69C72.98 106.49 72.98 106.35 72.96 106.27C72.93 106.15 72.89 106.04 72.82 105.96C72.75 105.88 72.65 105.81 72.5 105.76C72.36 105.71 72.17 105.68 71.94 105.68C71.71 105.68 71.51 105.71 71.33 105.77C71.15 105.83 71.02 105.92 70.93 106.04C70.84 106.16 70.77 106.31 70.73 106.5L71.17 106.56C71.22 106.37 71.29 106.24 71.4 106.16C71.5 106.09 71.66 106.05 71.87 106.05C72.1 106.05 72.27 106.1 72.39 106.2C72.48 106.28 72.52 106.41 72.52 106.59C72.52 106.61 72.52 106.65 72.52 106.71C72.35 106.77 72.08 106.82 71.71 106.87C71.53 106.89 71.4 106.91 71.31 106.94C71.19 106.97 71.08 107.02 70.98 107.09C70.88 107.16 70.81 107.24 70.75 107.35C70.69 107.46 70.66 107.58 70.66 107.71C70.66 107.93 70.74 108.12 70.9 108.26C71.06 108.4 71.28 108.48 71.58 108.48C71.76 108.48 71.93 108.45 72.08 108.39C72.24 108.33 72.4 108.23 72.57 108.09C72.58 108.22 72.61 108.33 72.66 108.42H72.65ZM68.52 106.26C68.66 106.12 68.84 106.05 69.05 106.05C69.28 106.05 69.47 106.14 69.61 106.31C69.7 106.42 69.76 106.59 69.78 106.82H68.28C68.3 106.59 68.37 106.4 68.52 106.26ZM69.5 107.97C69.38 108.06 69.24 108.1 69.07 108.1C68.85 108.1 68.66 108.02 68.51 107.87C68.36 107.71 68.28 107.49 68.26 107.19H70.26C70.26 107.14 70.26 107.1 70.26 107.07C70.26 106.63 70.15 106.28 69.92 106.04C69.69 105.8 69.4 105.67 69.04 105.67C68.68 105.67 68.37 105.79 68.14 106.04C67.91 106.29 67.79 106.64 67.79 107.09C67.79 107.54 67.9 107.86 68.13 108.1C68.36 108.34 68.67 108.46 69.06 108.46C69.37 108.46 69.63 108.38 69.83 108.23C70.03 108.08 70.17 107.87 70.24 107.59L69.77 107.53C69.7 107.72 69.61 107.86 69.49 107.95L69.5 107.97ZM65.02 106.71H65.87C66.11 106.71 66.29 106.73 66.41 106.77C66.53 106.81 66.63 106.88 66.7 106.98C66.77 107.08 66.81 107.2 66.81 107.34C66.81 107.46 66.79 107.56 66.74 107.65C66.69 107.74 66.63 107.81 66.55 107.86C66.47 107.91 66.38 107.94 66.27 107.96C66.21 107.97 66.1 107.98 65.94 107.98H65.02V106.71ZM65.02 105.16H65.76C66.03 105.16 66.21 105.18 66.32 105.21C66.43 105.24 66.51 105.31 66.57 105.4C66.63 105.49 66.66 105.6 66.66 105.72C66.66 105.85 66.63 105.96 66.57 106.04C66.51 106.13 66.41 106.19 66.29 106.22C66.2 106.25 66.04 106.26 65.82 106.26H65.02V105.14V105.16ZM65.95 108.42C66.19 108.42 66.38 108.4 66.55 108.36C66.71 108.32 66.85 108.26 66.95 108.18C67.05 108.1 67.15 107.98 67.22 107.84C67.29 107.69 67.33 107.53 67.33 107.36C67.33 107.14 67.27 106.96 67.15 106.8C67.03 106.64 66.86 106.53 66.63 106.46C66.8 106.37 66.93 106.26 67.02 106.12C67.11 105.98 67.15 105.83 67.15 105.67C67.15 105.5 67.1 105.34 67 105.18C66.9 105.02 66.77 104.91 66.6 104.83C66.43 104.76 66.2 104.72 65.92 104.72H64.53V108.42H65.94H65.95Z" fill="white"/>
</g>
<defs>
<clipPath id="clip0_411_318">
<rect width="175" height="120" fill="white"/>
</clipPath>
</defs>
</svg>
