<svg width="161" height="110" viewBox="0 0 161 110" fill="none" xmlns="http://www.w3.org/2000/svg">
<path d="M45.1812 58.1351C43.47 58.1351 41.9796 58.7493 40.7652 59.9501C39.5508 61.151 38.9252 62.5993 38.9252 64.2493C38.9252 65.8993 39.5324 67.3568 40.7284 68.5943C41.9336 69.8318 43.3872 70.4643 45.0616 70.4643H45.2824C46.9752 70.4643 48.4288 69.841 49.6156 68.6035C50.7932 67.3751 51.3912 65.9085 51.3912 64.2585C51.3912 62.6085 50.7748 61.151 49.5696 59.941C48.3644 58.7401 46.874 58.126 45.1628 58.126L45.1812 58.1351ZM48.5668 67.7143C47.6284 68.6768 46.5244 69.1443 45.1996 69.1443C43.8748 69.1443 42.7616 68.6768 41.7956 67.7143C40.8296 66.7518 40.3604 65.6426 40.3604 64.3318C40.3604 63.021 40.8296 61.9026 41.7956 60.9218C42.7616 59.941 43.8748 59.4643 45.1904 59.4643C46.506 59.4643 47.61 59.9318 48.5576 60.9035C49.5144 61.8751 49.9744 62.9935 49.9744 64.3135C49.9744 65.6335 49.5144 66.7518 48.576 67.7143H48.5668Z" fill="white"/>
<path d="M88.6144 70.1983H88.9456V59.6017C88.9456 58.96 88.4212 58.4375 87.7772 58.4375H87.5104V69.1075C87.5104 69.7125 87.998 70.1983 88.6052 70.1983H88.6144Z" fill="white"/>
<path d="M96.646 58.1351C94.9348 58.1351 93.4444 58.7493 92.23 59.9501C91.0156 61.151 90.39 62.5993 90.39 64.2493C90.39 65.8993 90.9972 67.3568 92.1932 68.5943C93.3984 69.8318 94.852 70.4643 96.5264 70.4643H96.7472C98.44 70.4643 99.8936 69.841 101.08 68.6035C102.258 67.3751 102.856 65.9085 102.856 64.2585C102.856 62.6085 102.24 61.151 101.034 59.941C99.8292 58.7401 98.3388 58.126 96.6276 58.126L96.646 58.1351ZM100.041 67.7143C99.1024 68.6768 97.9984 69.1443 96.6736 69.1443C95.3488 69.1443 94.2356 68.6768 93.2696 67.7143C92.3036 66.7518 91.8344 65.6426 91.8344 64.3318C91.8344 63.021 92.3036 61.9026 93.2696 60.9218C94.2356 59.941 95.3488 59.4643 96.6644 59.4643C97.98 59.4643 99.084 59.9318 100.032 60.9035C100.988 61.8751 101.448 62.9935 101.448 64.3135C101.448 65.6335 100.988 66.7518 100.05 67.7143H100.041Z" fill="white"/>
<path d="M106.702 68.1178C106.085 67.5128 105.791 66.7704 105.791 65.8354V59.7579H107.925C108.532 59.7579 109.02 59.272 109.02 58.667V58.4287H105.791V55.0095C105.791 54.3037 105.22 53.7354 104.512 53.7354H104.365V65.8354C104.365 67.1462 104.816 68.237 105.708 69.0804C106.591 69.9237 107.677 70.3454 108.937 70.3454H109.25V69.9604C109.25 69.4837 108.91 69.0804 108.45 68.9887C107.796 68.8512 107.143 68.5487 106.711 68.1178H106.702Z" fill="white"/>
<path d="M111.476 70.1983H111.936V59.3358C111.936 58.8408 111.532 58.4375 111.035 58.4375H110.51V69.2358C110.51 69.7675 110.943 70.2075 111.486 70.2075L111.476 70.1983Z" fill="white"/>
<path d="M122.001 68.5579C121.265 68.9704 120.483 69.1904 119.683 69.1904C118.386 69.1904 117.282 68.7229 116.316 67.7604C115.35 66.7979 114.88 65.6796 114.88 64.3504C114.88 63.0213 115.35 61.9029 116.316 60.9404C117.282 59.9779 118.386 59.5104 119.683 59.5104C120.483 59.5104 121.265 59.7213 122.001 60.1429C122.277 60.2988 122.544 60.4821 122.783 60.6838C123.262 61.0779 123.988 60.9679 124.31 60.4363L124.412 60.2713L124.338 60.1979C123.087 58.8688 121.55 58.1904 119.775 58.1904C117.999 58.1904 116.49 58.8046 115.276 60.0054C114.062 61.2063 113.436 62.6638 113.436 64.3229C113.436 65.9821 114.043 67.4396 115.239 68.6679C116.444 69.8963 117.898 70.5196 119.572 70.5196H119.793C121.587 70.5196 123.114 69.8413 124.329 68.5029L124.366 68.4663L124.283 68.3196C123.952 67.7788 123.225 67.6504 122.737 68.0446C122.507 68.2371 122.25 68.4113 121.992 68.5579H122.001Z" fill="white"/>
<path d="M131.339 63.3412C130.806 63.0112 130.272 62.6904 129.748 62.4062C129.251 62.1312 128.818 61.8287 128.469 61.4987C128.156 61.2145 128.009 60.912 128.009 60.5912C128.009 60.2704 128.138 60.0137 128.395 59.7937C128.671 59.5645 128.975 59.4454 129.334 59.4454C129.692 59.4454 130.033 59.537 130.336 59.7295C130.732 59.977 131.266 59.867 131.505 59.4637L131.67 59.1979V59.1795L131.588 59.0879C130.999 58.4462 130.272 58.1162 129.435 58.1162C128.598 58.1162 127.926 58.3454 127.402 58.8037C126.859 59.2712 126.583 59.8487 126.583 60.527C126.583 61.2054 126.794 61.7737 127.218 62.2687C127.613 62.7362 128.092 63.1304 128.644 63.4512C129.14 63.7445 129.656 64.047 130.226 64.377C130.723 64.6704 131.155 65.0279 131.505 65.4495C131.836 65.8437 131.992 66.3112 131.992 66.8979C131.992 67.4845 131.735 67.9612 131.21 68.4379C130.677 68.9145 130.033 69.1529 129.242 69.1529C128.395 69.1529 127.714 68.8779 127.19 68.3187C126.868 67.9795 126.298 68.0437 126.049 68.447L125.911 68.6762L125.939 68.722C126.233 69.2537 126.702 69.6845 127.328 70.0054C127.944 70.317 128.616 70.4729 129.324 70.4729C130.447 70.4729 131.422 70.097 132.213 69.3545C133.014 68.612 133.418 67.6954 133.418 66.632C133.418 65.9079 133.207 65.2479 132.802 64.6887C132.406 64.1479 131.919 63.6895 131.358 63.3412H131.339Z" fill="white"/>
<path d="M84.18 59.9504C82.9748 58.7495 81.4844 58.1354 79.764 58.1354C78.6876 58.1354 77.6296 58.4287 76.636 58.997C75.9828 59.3729 75.44 59.8312 75.0076 60.3629V54.8812C75.0076 54.2487 74.4924 53.7354 73.8576 53.7354H73.5724V62.6729C73.5724 64.3412 73.7012 66.5504 75.0076 68.2095C75.4676 68.7687 76.0288 69.2362 76.7004 69.6212C77.694 70.1803 78.7244 70.4645 79.7732 70.4645C81.4936 70.4645 82.984 69.8504 84.1892 68.6495C85.3944 67.4487 86.0108 65.982 86.0108 64.2954C86.0108 62.6087 85.3944 61.1512 84.1892 59.9412L84.18 59.9504ZM83.168 67.7145C82.2296 68.677 81.1256 69.1445 79.8008 69.1445C78.476 69.1445 77.3628 68.677 76.3968 67.7145C75.4308 66.752 74.9616 65.6429 74.9616 64.332C74.9616 63.0212 75.4308 61.9029 76.3968 60.922C77.3628 59.9412 78.476 59.4645 79.7916 59.4645C81.1072 59.4645 82.2112 59.932 83.1588 60.9037C84.1156 61.8754 84.5756 62.9937 84.5756 64.3137C84.5756 65.6337 84.1156 66.752 83.1772 67.7145H83.168Z" fill="white"/>
<path d="M71.4472 63.3506L72.0912 63.1306C71.53 60.2798 69.0092 58.1348 65.9824 58.1348C62.56 58.1348 59.8 60.8389 59.754 64.2489C59.708 67.7139 62.514 70.5464 65.9824 70.5464C67.9512 70.5464 69.7176 69.6298 70.8584 68.2089L70.7664 68.1173C70.3064 67.6589 69.5704 67.6223 69.0644 68.0348C68.2272 68.7314 67.16 69.1439 65.9824 69.1439C64.1608 69.1439 62.5784 68.1448 61.7596 66.6598L71.4564 63.3689V63.3506H71.4472ZM61.1616 64.3406C61.1616 61.6914 63.3144 59.5373 65.9824 59.5373C67.8868 59.5373 69.5428 60.6464 70.3156 62.2506L61.2628 65.3214C61.1984 65.0098 61.1616 64.6798 61.1616 64.3406Z" fill="white"/>
<path d="M59.9288 58.9873C59.1652 58.4189 58.3464 58.1348 57.5 58.1348C57.1412 58.1348 56.7916 58.1714 56.4604 58.2448C54.7952 58.6573 52.8724 60.1331 52.8724 62.6998V70.2256C53.6636 70.2256 54.3076 69.5839 54.3076 68.7956V62.4431C54.3076 61.6456 54.602 60.9673 55.2184 60.3623C55.8348 59.7573 56.5248 59.4639 57.3252 59.4639C57.6932 59.4639 58.0428 59.5373 58.3832 59.6748C58.9812 59.9223 59.6712 59.7114 60.0024 59.1614L60.0484 59.0881L59.9196 58.9964L59.9288 58.9873Z" fill="white"/>
<path d="M39.0908 68.9514C38.6124 68.4198 37.8488 68.2273 37.1956 68.5023C36.2664 68.8873 35.2268 69.0706 34.1412 69.0156C30.6268 68.8139 27.784 65.9631 27.646 62.4614C27.4528 57.7314 31.3444 55.4123 34.1136 55.2564C35.1992 55.1923 36.2296 55.3848 37.168 55.7698C37.8304 56.0448 38.594 55.8523 39.0632 55.3206L39.2012 55.1648C37.766 54.2114 36.0272 53.6798 34.1596 53.7623C29.9276 53.9364 25.8796 57.4839 26.1464 62.6081C26.3672 66.8981 29.8816 70.3631 34.1964 70.5373C36.064 70.6198 37.8028 70.0881 39.238 69.1348L39.1 68.9789L39.0908 68.9514Z" fill="white"/>
<path d="M77.7124 44.9072L76.1484 43.3488H71.7876L66.884 38.463H72.312L72.3396 38.4905V38.463H72.3856L72.3396 38.4171V36.2813L65.6696 29.6355H70.8676L72.5236 31.2855V29.0855L71.5116 28.0771H62.8912V36.6663L71.1436 44.8888H77.7124V44.9072ZM65.3292 36.9138L64.4552 36.043V30.6346L70.7572 36.9138H65.3292Z" fill="white"/>
<path d="M93.8032 29.6537L87.1332 36.2995V38.4995L87.1608 38.472H92.644L87.7404 43.3578H83.3428L81.7788 44.9162H88.3844L96.6368 36.6937V28.1045H88.0164L87.124 28.9937V31.1937L88.6696 29.6537H93.8032ZM88.7248 36.9137L95.082 30.5795V36.0428L94.208 36.9137H88.7248Z" fill="white"/>
<path d="M72.9468 49.4261H66.1848L70.0304 45.5945H70.0488L68.4848 44.0361H58.9076L62.5784 40.3786H64.8048L63.2408 38.8203H61.9252L55.8348 44.8886L61.9252 50.957H73.5908L78.5864 45.9795H76.3784L72.9376 49.4078L72.9468 49.4261ZM58.7328 45.6036H67.8224L63.9768 49.4353H62.5692L58.7236 45.6036H58.7328Z" fill="white"/>
<path d="M97.6028 38.8389H96.3516L94.7876 40.3972H96.9496L100.62 44.0547H91.1628L89.6172 45.5947L89.5988 45.613H89.6264L93.472 49.4447H86.5812L83.1404 46.0164H80.9324L85.928 50.9939H97.5936L103.684 44.9255L97.5936 38.8572L97.6028 38.8389ZM96.9588 49.4264H95.68L91.8344 45.5947H100.795L96.9496 49.4264H96.9588Z" fill="white"/>
<path d="M85.8544 27.2158L79.764 21.1475L78.9912 21.9175V22.2841V30.7908L76.8844 28.6916V30.8916L78.9912 32.9908V44.11V44.1466L79.764 44.9166L85.8544 38.8483V27.225V27.2158ZM84.2996 38.1975L80.5 41.9833V36.5016L84.2996 32.7158V38.1975ZM84.2996 30.5158L80.5 34.3016V24.0716L84.2996 27.8575V30.525V30.5158Z" fill="white"/>
<path d="M77.7768 40.7365L75.2284 38.1973V27.8573L77.7768 25.3182V23.1182L73.6736 27.2157V38.839L77.7768 42.9273V40.7365Z" fill="white"/>
<path d="M75.4584 84.828C75.67 84.388 75.854 83.9847 76.038 83.5905C76.5072 82.5822 76.9672 81.5739 77.4364 80.5747C77.4548 80.5289 77.4916 80.4922 77.5284 80.4647C77.7216 80.3455 78.1632 80.4372 78.2644 80.6297C78.3104 80.7213 78.3288 80.868 78.2828 80.9505C77.4456 82.7655 76.5992 84.5714 75.762 86.3772C75.6792 86.5605 75.5504 86.5605 75.394 86.5697C75.2376 86.5697 75.164 86.4963 75.0996 86.3588C74.842 85.7813 74.566 85.213 74.2992 84.6447C74.2624 84.5713 74.2164 84.498 74.1704 84.4155C73.8576 85.0755 73.554 85.7172 73.2504 86.3588C73.186 86.4872 73.1216 86.5789 72.956 86.5697C72.7904 86.5697 72.6616 86.5697 72.5696 86.368C72.1372 85.4238 71.6864 84.4888 71.2448 83.5447C70.8584 82.7197 70.472 81.9038 70.0856 81.0788C70.0212 80.9413 69.92 80.8038 70.0304 80.6297C70.1224 80.4738 70.2236 80.373 70.4076 80.4097C70.4352 80.4097 70.4628 80.4097 70.4904 80.4097C70.748 80.373 70.8952 80.4647 71.0056 80.7213C71.5852 82.0047 72.1924 83.2697 72.7996 84.5439C72.8364 84.6172 72.8732 84.6905 72.9284 84.7913C73.1676 84.2963 73.3976 83.8288 73.6184 83.3522C73.646 83.2972 73.6184 83.2147 73.6 83.1597C73.2596 82.4172 72.91 81.6747 72.5604 80.9414C72.4592 80.7305 72.6248 80.4555 72.8548 80.4372C73.1983 80.4127 73.4436 80.5533 73.5908 80.8588C73.784 81.2805 73.9772 81.7022 74.1888 82.1605C74.336 81.858 74.4648 81.5922 74.5936 81.3172C74.7132 81.0697 74.8144 80.8038 74.9432 80.5655C74.98 80.4922 75.0904 80.4372 75.1824 80.4097C75.2652 80.3822 75.3664 80.4097 75.4492 80.4097C75.762 80.4097 75.9276 80.6847 75.7988 80.9597C75.4584 81.6747 75.1364 82.3897 74.796 83.1047C74.7408 83.2239 74.7316 83.3338 74.796 83.453C75.0076 83.893 75.21 84.3238 75.44 84.8097L75.4584 84.828Z" fill="white"/>
<path d="M100.979 85.3511C101.402 85.672 101.872 85.7636 102.387 85.6995C103.068 85.6078 103.592 85.2503 103.997 84.7095C104.126 84.5353 104.254 84.5811 104.411 84.6178C104.576 84.6636 104.595 84.7736 104.622 84.9203C104.733 85.5161 104.374 85.837 103.942 86.1303C102.709 86.9736 100.749 86.8545 99.5992 85.452C98.3572 83.9211 98.7344 81.5561 100.712 80.6028C102.083 79.9428 103.61 80.282 104.613 81.4278C104.733 81.5653 104.705 81.657 104.586 81.7761C103.905 82.4453 103.233 83.1145 102.552 83.7837C102.074 84.2512 101.596 84.7186 101.126 85.1861C101.08 85.232 101.034 85.287 100.979 85.342V85.3511ZM103.307 81.6295C102.727 81.1345 101.494 81.052 100.676 81.7853C99.6636 82.6928 99.7464 83.9761 100.289 84.6911C101.292 83.6645 102.295 82.647 103.298 81.6295H103.307Z" fill="white"/>
<path d="M80.9968 85.3695C81.6776 85.9011 82.708 85.8095 83.4072 85.2778C83.628 85.1036 83.8304 84.8928 84.0052 84.6728C84.134 84.517 84.2628 84.5903 84.4008 84.6178C84.5388 84.6545 84.6308 84.7278 84.6124 84.8745C84.6124 84.8928 84.6124 84.902 84.6124 84.9111C84.7412 85.4886 84.4008 85.8095 83.9776 86.1028C82.57 87.0745 80.6564 86.7445 79.58 85.4153C78.3472 83.8936 78.7428 81.4186 80.868 80.5295C82.1928 79.9795 83.6004 80.2636 84.6216 81.4186C84.7412 81.5561 84.7044 81.657 84.5848 81.7761C83.812 82.537 83.0392 83.2978 82.2664 84.0586C81.8432 84.4803 81.42 84.9203 81.006 85.3511L80.9968 85.3695ZM80.27 84.682C81.282 83.6645 82.2848 82.6378 83.2968 81.6203C82.5976 81.107 81.42 81.0428 80.5644 81.8861C79.6996 82.7295 79.7272 83.9486 80.2792 84.682H80.27Z" fill="white"/>
<path d="M93.3984 80.8868C93.7848 80.566 94.2172 80.401 94.7048 80.3185C96.2044 80.0527 97.6212 81.0152 97.8972 82.5002C97.9248 82.6743 97.9432 82.8485 97.9432 83.0135C97.9432 84.031 97.9432 85.0393 97.9432 86.0568C97.9432 86.3043 97.8236 86.4785 97.6396 86.5152C97.3728 86.5793 97.06 86.4785 96.9772 86.2952C96.9496 86.2402 96.9496 86.1577 96.9496 86.0935C96.9496 85.0485 96.9588 84.0127 96.9496 82.9677C96.9312 82.2435 96.5724 81.7027 95.9284 81.391C95.082 80.9785 94.0516 81.3635 93.5916 82.2068C93.4444 82.4818 93.3892 82.7568 93.3892 83.0685C93.3892 84.0585 93.3892 85.0393 93.3892 86.0293C93.3892 86.2493 93.3156 86.4143 93.1224 86.4968C92.8924 86.5977 92.5704 86.5152 92.4416 86.3318C92.4048 86.2768 92.3864 86.1943 92.3864 86.121C92.3864 84.3518 92.3864 82.5735 92.3864 80.8043C92.3864 80.566 92.552 80.4285 92.8004 80.4102C93.2144 80.3735 93.3616 80.5477 93.4168 80.8777L93.3984 80.8868Z" fill="white"/>
<path d="M109.747 85.3602C109.747 85.2685 109.747 85.2319 109.747 85.186C109.71 84.9569 109.802 84.8469 110.032 84.8102C110.198 84.7827 110.29 84.7919 110.382 84.9569C110.731 85.5894 111.173 85.8094 111.863 85.6719C112.286 85.5894 112.608 85.3419 112.728 84.9202C112.838 84.526 112.672 84.1869 112.35 83.9485C111.973 83.6735 111.55 83.4444 111.164 83.1694C110.906 82.986 110.648 82.7844 110.437 82.5552C110.06 82.1335 109.958 81.6294 110.179 81.1069C110.391 80.6119 110.814 80.3735 111.329 80.291C111.826 80.2085 112.268 80.3369 112.654 80.6485C112.801 80.7677 112.912 80.896 112.875 81.1069C112.866 81.171 112.875 81.2444 112.875 81.3177C112.875 81.611 112.728 81.7485 112.442 81.7119C112.387 81.7119 112.323 81.6569 112.286 81.6019C112.13 81.4094 111.946 81.2535 111.688 81.2169C111.458 81.1802 111.2 81.2994 111.118 81.4827C111.026 81.666 111.072 81.8494 111.311 82.0144C111.743 82.3169 112.194 82.5827 112.645 82.8669C113.04 83.1235 113.39 83.4352 113.583 83.8752C113.924 84.6727 113.74 85.461 113.096 86.0752C112.231 86.891 110.731 86.8452 109.949 85.9835C109.774 85.791 109.692 85.5802 109.728 85.3694L109.747 85.3602Z" fill="white"/>
<path d="M108.33 81.2253C108.33 81.2711 108.33 81.3261 108.33 81.3719C108.33 81.5003 108.33 81.6286 108.164 81.6653C107.999 81.7019 107.842 81.7844 107.704 81.5736C107.493 81.2619 107.162 81.1519 106.867 81.2436C106.49 81.3628 106.398 81.7111 106.702 81.9586C106.996 82.1878 107.318 82.3894 107.631 82.5819C108.045 82.8478 108.486 83.0769 108.79 83.4894C109.425 84.3328 109.287 85.4419 108.486 86.1386C107.686 86.8353 106.334 86.8169 105.561 86.1386C105.23 85.8544 105.055 85.3778 105.202 84.9744C105.239 84.8828 105.414 84.8369 105.542 84.7911C105.653 84.7453 105.745 84.7911 105.8 84.9103C105.947 85.2128 106.15 85.4603 106.462 85.5978C106.978 85.8269 107.668 85.6711 108.017 85.2311C108.33 84.8278 108.256 84.2778 107.796 83.9294C107.428 83.6453 107.024 83.4161 106.628 83.1686C106.278 82.9486 105.947 82.7011 105.736 82.3344C105.22 81.4453 105.717 80.4553 106.748 80.2811C107.162 80.2078 107.548 80.2719 107.907 80.4828C108.266 80.6936 108.33 80.8128 108.33 81.2161V81.2253Z" fill="white"/>
<path d="M88.9456 80.7673C88.9456 79.5757 88.9456 78.3748 88.9456 77.1832C88.9456 76.8807 89.0928 76.7432 89.3964 76.7432C89.838 76.7432 89.9484 76.8532 89.9484 77.2932C89.9484 79.6123 89.9484 81.9315 89.9484 84.2507C89.9484 84.8923 90.2704 85.369 90.8684 85.5982C90.9696 85.6348 91.0892 85.6715 91.1904 85.6623C91.4204 85.6532 91.5584 85.7723 91.6504 85.9557C91.7332 86.1298 91.6504 86.414 91.5032 86.5423C91.4388 86.5882 91.3376 86.6157 91.2548 86.6157C90.022 86.6248 88.964 85.5798 88.9548 84.3423C88.9548 84.324 88.9548 84.3148 88.9548 84.2965C88.9548 83.114 88.9548 81.9315 88.9548 80.749L88.9456 80.7673Z" fill="white"/>
<path d="M85.5416 80.8315C85.5416 79.6215 85.5416 78.4115 85.5416 77.2015C85.5416 76.844 85.6704 76.7432 86.112 76.7432C86.388 76.7432 86.526 76.9082 86.526 77.2198C86.526 79.539 86.526 81.8582 86.526 84.1865C86.526 84.8557 86.802 85.3507 87.446 85.5982C87.5564 85.644 87.676 85.6715 87.7864 85.6715C88.0072 85.6715 88.1544 85.7815 88.2188 85.9648C88.3108 86.2032 88.2188 86.4782 88.0348 86.5882C87.9888 86.6157 87.9152 86.6248 87.86 86.6248C86.664 86.6523 85.5784 85.6257 85.5508 84.434C85.5508 84.3882 85.5508 84.3332 85.5508 84.2873C85.5508 83.1323 85.5508 81.9773 85.5508 80.8223L85.5416 80.8315Z" fill="white"/>
<path d="M126.666 85.3419C127.641 86.0385 128.984 85.6719 129.674 84.7094C129.803 84.5352 129.922 84.5719 130.088 84.6085C130.263 84.6544 130.281 84.7644 130.318 84.9202C130.428 85.5252 130.07 85.846 129.637 86.1302C128.11 87.1385 125.847 86.7444 124.899 84.7919C123.961 82.8669 125.203 80.6944 127.227 80.3369C128.414 80.126 129.444 80.4652 130.263 81.3727C130.447 81.5744 130.447 81.6294 130.263 81.8219C129.094 82.9677 127.935 84.1135 126.767 85.2594C126.739 85.2869 126.712 85.3235 126.675 85.3602L126.666 85.3419ZM129.002 81.6202C128.303 81.0885 127.08 81.0244 126.224 81.9044C125.332 82.8302 125.451 83.9944 125.976 84.6727C126.978 83.6552 127.981 82.6469 128.993 81.6294L129.002 81.6202Z" fill="white"/>
<path d="M147.752 85.3601C148.479 85.9009 149.5 85.7726 150.181 85.2501C150.392 85.0851 150.586 84.8834 150.751 84.6726C150.898 84.4892 151.036 84.5809 151.184 84.6176C151.322 84.6451 151.386 84.7367 151.368 84.8742C151.368 84.9201 151.358 84.9751 151.368 85.0209C151.469 85.4609 151.211 85.7267 150.898 85.9834C149.592 87.0101 147.734 86.8634 146.574 85.6809C145.544 84.6451 145.406 83.1051 146.004 81.9959C147.007 80.1442 149.39 79.7776 150.862 80.9509C151.027 81.0884 151.184 81.2351 151.331 81.3909C151.496 81.5651 151.496 81.6384 151.322 81.8034C150.659 82.4542 149.997 83.0959 149.344 83.7467C148.81 84.2784 148.295 84.8192 147.761 85.3692L147.752 85.3601ZM147.025 84.6542C148.037 83.6367 149.049 82.6284 150.061 81.6109C149.417 81.1067 148.194 81.0151 147.329 81.8676C146.455 82.7292 146.482 83.8934 147.025 84.6542Z" fill="white"/>
<path d="M132.25 80.8864C132.636 80.5381 133.087 80.3639 133.584 80.2906C135.47 80.0247 136.795 81.4181 136.795 82.9581C136.795 83.9848 136.795 85.0114 136.795 86.0473C136.795 86.3589 136.648 86.5147 136.344 86.5147C135.939 86.5147 135.792 86.3864 135.792 86.0381C135.792 85.0389 135.792 84.0398 135.792 83.0314C135.792 82.2339 135.332 81.5373 134.578 81.2898C133.888 81.0698 133.188 81.2439 132.636 81.9039C132.351 82.2431 132.222 82.6281 132.222 83.0681C132.222 84.0581 132.222 85.0573 132.222 86.0473C132.222 86.3681 132.075 86.4964 131.716 86.4964C131.358 86.4964 131.22 86.3681 131.22 86.0381C131.22 84.3239 131.22 82.6189 131.22 80.9048C131.22 80.5839 131.339 80.4006 131.56 80.3823C131.992 80.3456 132.186 80.4281 132.241 80.8681L132.25 80.8864Z" fill="white"/>
<path d="M121.55 86.6615C119.95 86.744 118.772 85.534 118.441 84.4248C117.999 82.9306 118.588 81.4456 119.95 80.694C121.182 80.0156 122.875 80.144 123.933 81.299C123.998 81.3723 124.034 81.4823 124.044 81.574C124.062 81.7206 124.044 81.8673 124.044 82.014C124.044 82.1881 123.988 82.2798 123.804 82.344C123.602 82.4173 123.501 82.3623 123.381 82.2156C122.792 81.4731 122.038 81.1156 121.072 81.2806C119.959 81.4823 119.149 82.6648 119.287 83.7831C119.398 84.6631 120.216 85.5431 121.063 85.6806C122.02 85.8456 122.792 85.5156 123.372 84.7548C123.501 84.5806 123.62 84.5623 123.814 84.6173C124.016 84.6815 124.007 84.819 124.034 84.984C124.136 85.5523 123.795 85.8548 123.39 86.1298C122.829 86.5148 122.204 86.689 121.532 86.6615H121.55Z" fill="white"/>
<path d="M138.883 80.4097C139.306 80.4097 139.711 80.4097 140.116 80.4097C140.429 80.4097 140.567 80.5656 140.567 80.8864C140.567 81.2072 140.42 81.3539 140.107 81.3539C139.711 81.3539 139.316 81.3539 138.902 81.3539C138.902 81.4181 138.892 81.4822 138.892 81.5372C138.892 82.4172 138.911 83.3064 138.892 84.1864C138.874 84.9289 139.444 85.5797 140.19 85.6256C140.502 85.6439 140.631 85.8456 140.613 86.1939C140.594 86.4231 140.41 86.5697 140.134 86.5697C138.957 86.5422 137.917 85.5339 137.908 84.3606C137.89 82.4264 137.908 80.4922 137.908 78.5672C137.908 78.3564 138.074 78.1914 138.285 78.1914C138.359 78.1914 138.423 78.1914 138.497 78.1914C138.745 78.1914 138.911 78.3564 138.911 78.6131C138.911 79.1356 138.911 79.6581 138.911 80.1806C138.911 80.2539 138.911 80.3272 138.911 80.4189L138.883 80.4097Z" fill="white"/>
<path d="M142.306 80.7027C142.784 80.3727 143.308 80.2352 143.879 80.281C144.284 80.3085 144.652 80.4552 144.964 80.7027C145.047 80.7669 145.084 80.8952 145.112 80.996C145.139 81.0969 145.112 81.2069 145.112 81.3077C145.121 81.4635 145.066 81.5644 144.909 81.6285C144.753 81.6927 144.624 81.711 144.477 81.5735C144.1 81.216 143.63 81.0969 143.152 81.2985C142.609 81.5277 142.278 81.9402 142.269 82.5452C142.269 83.7185 142.269 84.8919 142.269 86.0652C142.269 86.3585 142.103 86.496 141.772 86.496C141.432 86.496 141.266 86.3585 141.266 86.0652C141.266 84.3144 141.266 82.5635 141.266 80.8127C141.266 80.556 141.432 80.391 141.689 80.391C141.941 80.391 142.143 80.4888 142.296 80.6844L142.306 80.7027Z" fill="white"/>
<path d="M18.676 86.4329C18.4736 86.4788 18.3448 86.3596 18.2344 86.1213C17.9768 85.5621 17.7008 85.0121 17.4156 84.4621C17.1856 84.0038 16.9464 83.5546 16.698 83.1054C16.6612 83.0413 16.5692 82.9771 16.4956 82.9771C15.0696 82.9771 13.6528 82.9771 12.2268 82.9771C12.1624 82.9771 12.0612 83.0504 12.0336 83.1054C11.8404 83.4721 11.6564 83.8479 11.4724 84.2238C11.132 84.9021 10.8008 85.5804 10.4512 86.2588C10.4144 86.3321 10.304 86.3871 10.212 86.4146C10.1108 86.4421 10.0004 86.4238 9.8992 86.4146C9.6232 86.4054 9.4576 86.1213 9.5772 85.8829C9.8072 85.4154 10.028 84.9479 10.258 84.4804C10.7824 83.4171 11.316 82.3538 11.8404 81.2813C12.4384 80.0621 13.0364 78.8429 13.6344 77.6238C13.7908 77.3121 13.9472 77.0096 14.0852 76.6888C14.1496 76.5329 14.2692 76.5421 14.398 76.5421C14.5268 76.5421 14.6372 76.5421 14.7108 76.6888C15.3272 77.9446 15.9436 79.2004 16.56 80.4563C17.1856 81.7396 17.8112 83.0229 18.4368 84.2971C18.7036 84.8379 18.9796 85.3696 19.2464 85.9013C19.3384 86.0754 19.182 86.3688 18.9796 86.3963C18.8968 86.4054 18.814 86.3963 18.6668 86.4146L18.676 86.4329ZM16.192 82.0054C15.5848 80.7679 14.9868 79.5579 14.3704 78.3113C13.7632 79.5579 13.1652 80.7771 12.5672 82.0054H16.192Z" fill="white"/>
<path d="M55.6876 81.0701V80.6484C55.6876 79.4934 55.6876 78.3384 55.6876 77.1834C55.6876 76.9542 55.8072 76.7434 55.9728 76.6975C56.212 76.6242 56.534 76.7067 56.6444 76.89C56.6904 76.9634 56.6904 77.0734 56.6904 77.165C56.6904 79.6034 56.6904 82.0417 56.6904 84.4801C56.6904 84.9842 56.6904 85.4975 56.6904 86.0017C56.6904 86.2675 56.534 86.4142 56.258 86.4142C55.89 86.4142 55.706 86.295 55.6876 86.0109C55.6876 85.9192 55.6876 85.8184 55.6876 85.6809C54.8044 86.4325 53.8108 86.6984 52.7068 86.46C51.9248 86.2859 51.3176 85.8367 50.8484 85.195C49.91 83.9025 50.1032 82.2067 51.29 81.0609C52.394 80.0067 54.2708 79.86 55.6876 81.0517V81.0701ZM51.2808 83.4259C51.198 84.4892 52.2836 85.6259 53.4796 85.6259C54.6296 85.6259 55.752 84.5625 55.7336 83.4167C55.706 82.2159 54.6848 81.1801 53.4796 81.1709C52.2376 81.1709 51.2164 82.335 51.29 83.4259H51.2808Z" fill="white"/>
<path d="M24.564 85.9931C24.196 86.2681 23.8188 86.4423 23.3864 86.5156C21.4728 86.864 19.9916 85.4431 20.0008 83.784C20.0008 82.8031 20.0008 81.8223 20.0008 80.8415C20.0008 80.6123 20.1204 80.4106 20.2952 80.3648C20.562 80.2915 20.884 80.3923 20.9852 80.5848C21.0128 80.6398 21.0128 80.7223 21.0128 80.7865C21.0128 81.7856 21.0312 82.7848 21.0128 83.7931C20.9852 84.7832 21.9696 85.874 23.23 85.5715C23.7728 85.4431 24.1776 85.0948 24.4076 84.5906C24.5088 84.3706 24.5732 84.1048 24.5732 83.8573C24.5916 82.849 24.5732 81.8406 24.5732 80.8323C24.5732 80.6306 24.7112 80.4198 24.8584 80.374C25.1252 80.3006 25.4472 80.3923 25.5484 80.5848C25.576 80.6398 25.576 80.704 25.576 80.7681C25.576 82.5373 25.5852 84.2973 25.576 86.0665C25.576 86.8273 25.254 87.4506 24.7204 88.0281C23.7636 89.0731 21.8592 89.1465 20.8104 88.2573C20.6264 88.1015 20.47 87.9181 20.3136 87.7348C20.2768 87.6981 20.2584 87.6248 20.2584 87.5606C20.2584 87.4323 20.2584 87.2948 20.2584 87.1665C20.2584 86.8273 20.2584 86.8365 20.5896 86.754C20.746 86.7173 20.8196 86.7631 20.9116 86.8915C21.3624 87.5423 21.9604 87.9548 22.7976 87.9181C23.7636 87.8815 24.6284 86.9556 24.564 85.9931Z" fill="white"/>
<path d="M45.9908 85.2508C46.8648 85.8924 47.9964 85.6449 48.6956 84.9941C48.8244 84.8749 48.9348 84.7374 49.036 84.5999C49.1556 84.4258 49.3028 84.4991 49.45 84.5358C49.588 84.5724 49.6708 84.6458 49.6524 84.8016V84.8199C49.7812 85.4158 49.4224 85.7366 48.9992 86.0391C47.8952 86.8183 46.1196 86.7724 45.0524 85.7824C44.3256 85.1041 43.884 84.3066 43.9208 83.2891C43.9484 82.5283 44.2244 81.8774 44.7396 81.3091C45.448 80.5208 46.3496 80.1908 47.3984 80.2366C47.9688 80.2641 48.5116 80.4383 48.9716 80.7774C49.1924 80.9424 49.3948 81.1258 49.588 81.3183C49.7996 81.5199 49.7996 81.5658 49.588 81.7766C49.1464 82.2074 48.7048 82.6474 48.2632 83.0783C47.8492 83.4908 47.4352 83.9033 47.012 84.3066C46.6808 84.6274 46.3404 84.9299 46 85.2508H45.9908ZM48.2632 81.5108C47.564 80.9974 46.276 80.9974 45.4388 82.0058C44.804 82.7666 44.7396 84.0408 45.356 84.5724C46.322 83.5549 47.2972 82.5283 48.2632 81.5108Z" fill="white"/>
<path d="M31.096 85.9655C30.1668 86.6346 29.164 86.763 28.1428 86.323C27.1584 85.9013 26.5972 85.0855 26.5512 84.0221C26.5052 82.9405 26.542 81.8588 26.542 80.768C26.542 80.5296 26.7076 80.3738 26.9468 80.3646C27.002 80.3646 27.0572 80.3646 27.1124 80.3646C27.3792 80.3646 27.5356 80.5205 27.5356 80.7863C27.5356 81.8038 27.554 82.8305 27.5356 83.848C27.5172 84.5171 28.06 85.3055 28.7592 85.5438C29.394 85.7546 30.222 85.5071 30.682 84.948C30.9672 84.5996 31.1236 84.2146 31.1144 83.7471C31.096 82.7846 31.1144 81.813 31.1144 80.8505C31.1144 80.4838 31.2432 80.3555 31.6204 80.3555C31.9884 80.3555 32.1172 80.4838 32.1172 80.8321C32.1172 82.5188 32.1172 84.2055 32.1172 85.9013C32.1172 86.2405 31.9976 86.4055 31.7216 86.4238C31.2892 86.4513 31.1512 86.3413 31.1052 85.9563L31.096 85.9655Z" fill="white"/>
<path d="M63.342 86.5797C61.686 86.6531 60.3428 85.3056 60.1404 83.8664C59.9932 82.7939 60.352 81.8681 61.1432 81.1072C62.1644 80.1264 63.9216 79.9797 65.0716 80.7314C65.182 80.8047 65.2832 80.8964 65.4028 80.9606C65.826 81.2081 65.8352 81.6022 65.826 82.0239C65.826 82.2256 65.6972 82.2531 65.5592 82.3081C65.4212 82.3631 65.3108 82.3631 65.2188 82.2256C65.0072 81.9047 64.7128 81.6572 64.3724 81.4739C63.3236 80.9239 62.1552 81.2264 61.4928 82.2072C61.0604 82.8581 60.95 83.5822 61.2904 84.2789C62.0448 85.8556 63.894 86.0756 65.0164 84.8564C65.0716 84.7922 65.136 84.7372 65.1728 84.6639C65.274 84.4897 65.4028 84.4622 65.5868 84.5172C65.7616 84.5722 65.8444 84.6639 65.8168 84.8472V84.8656C65.9364 85.4431 65.596 85.7639 65.1728 86.0481C64.6208 86.4239 64.0044 86.5889 63.342 86.5706V86.5797Z" fill="white"/>
<path d="M40.4248 84.7558C40.7376 84.1141 41.032 83.5183 41.3264 82.9133C41.6944 82.1433 42.0716 81.3824 42.4212 80.6033C42.5592 80.2824 42.7984 80.3741 43.0284 80.3558C43.24 80.3374 43.286 80.5208 43.3596 80.6583C43.3872 80.7041 43.3688 80.7866 43.3504 80.8324C42.7984 81.9874 42.2464 83.1424 41.6944 84.2974C41.3724 84.9666 41.0412 85.6266 40.7284 86.2958C40.6548 86.4424 40.572 86.4974 40.4064 86.4974C40.25 86.4974 40.1396 86.4883 40.066 86.3049C39.79 85.6908 39.4864 85.0766 39.1828 84.4716C38.6032 83.2708 38.0144 82.0699 37.4348 80.8691C37.3336 80.6491 37.4992 80.3741 37.7384 80.3649C38.2996 80.3374 38.3088 80.3649 38.5664 80.9149C39.1184 82.0883 39.698 83.2524 40.2684 84.4258C40.3144 84.5266 40.3604 84.6274 40.4248 84.7649V84.7558Z" fill="white"/>
<path d="M34.1872 80.6667C34.7576 80.2817 35.3832 80.1259 36.0456 80.2909C36.3492 80.3642 36.6252 80.5475 36.9012 80.6942C36.9564 80.7217 36.9932 80.8225 37.0024 80.8959C37.0208 80.9967 37.0024 81.1067 37.0024 81.2075C37.0024 81.4917 36.9288 81.5925 36.6436 81.6384C36.5792 81.6475 36.478 81.6109 36.4228 81.5651C36.0272 81.1984 35.5672 81.0517 35.0612 81.2534C34.4816 81.4825 34.1596 81.9409 34.1596 82.5734C34.1596 83.7101 34.1596 84.8376 34.1596 85.9742C34.1596 86.2676 34.0124 86.4234 33.718 86.4234C33.3132 86.4234 33.1568 86.3042 33.1568 85.9742C33.1568 84.2417 33.1568 82.5092 33.1568 80.7859C33.1568 80.52 33.3224 80.3642 33.58 80.3551C33.9572 80.3551 33.9848 80.3642 34.178 80.6575L34.1872 80.6667Z" fill="white"/>
<path d="M58.0704 83.3899C58.0704 82.5282 58.0704 81.6665 58.0704 80.8049C58.0704 80.5115 58.2176 80.374 58.5304 80.374C58.8984 80.374 59.064 80.5115 59.064 80.7957C59.064 82.5282 59.064 84.2607 59.064 85.984C59.064 86.2957 58.9076 86.424 58.5396 86.424C58.2084 86.424 58.0612 86.2865 58.0612 85.9932C58.0612 85.1224 58.0612 84.2515 58.0612 83.3899H58.0704Z" fill="white"/>
<path d="M59.2112 79.0083C59.202 79.3933 58.9444 79.6408 58.558 79.6316C58.1532 79.6316 57.8864 79.3566 57.8956 78.9624C57.9048 78.5774 58.1808 78.3391 58.5856 78.3574C58.972 78.3666 59.2112 78.6233 59.202 79.0083H59.2112Z" fill="white"/>
</svg>
