<svg width="131" height="90" viewBox="0 0 131 90" fill="none" xmlns="http://www.w3.org/2000/svg">
<path fill-rule="evenodd" clip-rule="evenodd" d="M5.61429 28.2746H20.1815L21.7759 28.3421L23.303 28.4771L24.7627 28.8071L26.1626 29.1371L27.4277 29.6696L28.6254 30.2021L29.7557 30.8696L30.8187 31.6046L31.7469 32.4071L32.6751 33.2696L33.4761 34.1996L34.2097 35.1971L34.8086 36.2621L35.4074 37.3271L35.8715 38.4596L36.2683 39.5921L56.9513 26.2646L64.467 31.3271L48.3727 41.7221L50.9627 43.4546L67.1918 33.1271L74.1759 37.7921L58.149 48.3896L60.8738 50.0546L77.1702 39.6596V28.2671H89.1399V50.9846H99.7771V61.6422H77.1628V50.7146L57.0112 63.7047L36.4629 49.7771L36.0662 50.9771L35.6694 52.1096L35.0706 53.2421L34.4717 54.3746L33.7381 55.3722L32.9371 56.3697L32.0763 57.2996L31.0807 58.1021L30.0851 58.9046L28.8874 59.5721L27.6897 60.1721L26.3572 60.7047L24.9574 61.1021L23.4977 61.3722L21.9706 61.5746L20.3087 61.6422H5.61429V28.2596V28.2746ZM17.0525 38.7371H20.1815L21.5813 38.8721L22.7117 39.2696L23.7073 39.8696L24.5681 40.6721L25.167 41.6021L25.6311 42.5996L25.9006 43.7321L25.9679 44.8646L25.9006 45.9972L25.6311 47.1296L25.167 48.1271L24.5007 49.0572L23.6998 49.8596L22.7042 50.4596L21.5065 50.8571L20.174 50.9921H17.045V38.7296L17.0525 38.7371ZM102.771 28.2746H114.808V50.9921H125.386V61.6496H102.771V28.2671V28.2746Z" fill="white"/>
</svg>
