<svg width="155" height="106" viewBox="0 0 155 106" fill="none" xmlns="http://www.w3.org/2000/svg">
<path d="M83.3812 34.9443H73.594C72.8847 34.9443 72.3097 35.5178 72.3097 36.2252V37.559C72.3097 38.2664 72.8847 38.8398 73.594 38.8398H83.3812C84.0904 38.8398 84.6654 38.2664 84.6654 37.559V36.2252C84.6654 35.5178 84.0904 34.9443 83.3812 34.9443Z" fill="white"/>
<path d="M31.7617 49.0162C30.318 47.6029 28.2011 46.6489 25.482 46.1807L21.7797 45.5359C19.9197 45.209 18.5203 44.6084 17.6169 43.7692C16.7311 42.9389 16.2794 41.764 16.2794 40.2624C16.2794 38.5575 16.864 37.1972 18.0243 36.2167C19.1934 35.2274 20.8674 34.7239 22.9931 34.7239C26.7751 34.7239 28.9186 36.2962 29.5297 39.5469C29.6537 40.2094 30.2471 40.6864 30.938 40.6864H31.806C32.24 40.6864 32.6474 40.492 32.922 40.1564C33.1966 39.8119 33.3029 39.3702 33.2143 38.9462C32.7183 36.6407 31.682 34.8475 30.1497 33.6109C28.3074 32.118 25.916 31.3672 23.0374 31.3672C19.9109 31.3672 17.3511 32.1799 15.4291 33.7787C13.4983 35.3864 12.524 37.6565 12.524 40.5185C12.524 43.0007 13.2503 44.9617 14.6763 46.3397C16.0934 47.7089 18.1483 48.6187 20.77 49.0604L24.3837 49.661C26.3323 49.9879 27.8114 50.5885 28.7591 51.4542C29.6891 52.2934 30.1674 53.5742 30.1674 55.2525C30.1674 57.1075 29.5651 58.5385 28.3783 59.5102C27.1737 60.4907 25.3757 60.9854 23.0374 60.9854C18.8746 60.9854 16.5097 59.2982 15.8189 55.8355C15.686 55.1554 15.0837 54.6519 14.4017 54.6519H13.4894C13.0643 54.6519 12.6569 54.8374 12.3823 55.173C12.1077 55.5087 11.9926 55.9415 12.0723 56.3655C12.524 58.7505 13.5426 60.6409 15.1014 61.9835C16.9614 63.5824 19.5477 64.395 22.7983 64.395C26.2349 64.395 28.9806 63.5735 30.9557 61.9659C32.9486 60.3405 33.9583 58.0174 33.9583 55.067C33.9583 52.4877 33.2143 50.4649 31.7617 49.0339V49.0162Z" fill="white"/>
<path d="M89.2269 49.6079C88.6069 48.1681 87.7389 46.8872 86.6583 45.8096C85.5777 44.7319 84.3023 43.8662 82.8674 43.2479C81.4237 42.6207 79.856 42.3027 78.1997 42.3027C76.3043 42.3027 74.5949 42.6737 73.1334 43.4069C71.7074 44.1224 70.4763 45.0411 69.4754 46.1452C68.9352 46.6664 68.8466 47.2141 68.8732 47.5939C68.8997 48.0532 69.0592 48.4684 69.3337 48.7864C69.5729 49.0867 69.8474 49.3076 70.1486 49.4312L70.2017 49.4489C70.2814 49.4754 70.3612 49.4931 70.4409 49.5107C70.5294 49.5284 70.6357 49.5372 70.742 49.5372C71.2026 49.5372 71.6543 49.3694 72.0706 49.0337L72.1503 48.9631L72.2123 48.8747C72.5312 48.4684 72.912 48.0886 73.346 47.7617C73.7889 47.4261 74.2849 47.1346 74.8074 46.8961C75.33 46.6576 75.888 46.4721 76.4549 46.3484C78.0669 46.0039 79.732 46.1452 81.158 46.7194C82.0792 47.0904 82.9029 47.6116 83.6026 48.2564C84.3023 48.9101 84.878 49.6874 85.312 50.5619C85.5954 51.1449 85.808 51.7544 85.9409 52.3904H68.1114C67.5534 52.3904 67.0752 52.5936 66.7209 52.9734C66.3843 53.3356 66.2072 53.7949 66.2072 54.3072C66.2072 55.9414 66.526 57.4961 67.1637 58.9359C67.7926 60.3669 68.6606 61.6389 69.7323 62.7077C70.804 63.7766 72.0794 64.6334 73.5143 65.2606C74.958 65.8877 76.5257 66.2057 78.182 66.2057C79.8383 66.2057 81.3972 65.8877 82.8497 65.2606C84.2846 64.6422 85.56 63.7766 86.6406 62.6989C87.7212 61.6212 88.5892 60.3492 89.2092 58.9182C89.838 57.4784 90.1569 55.9149 90.1569 54.2631C90.1569 52.6112 89.838 51.0477 89.2092 49.5991L89.2269 49.6079ZM70.2637 55.9591H86.0383C85.9143 56.6304 85.7017 57.2664 85.4094 57.8671C84.9754 58.7592 84.3909 59.5542 83.6823 60.2167C82.9737 60.8792 82.1412 61.4092 81.2023 61.7891C80.2723 62.1689 79.2449 62.3544 78.1732 62.3544C77.1014 62.3544 76.1006 62.1601 75.1617 61.7891C74.2229 61.4092 73.3726 60.8792 72.6463 60.2167C71.9289 59.5631 71.3354 58.7681 70.9014 57.8759C70.6092 57.2752 70.3877 56.6304 70.2637 55.9591Z" fill="white"/>
<path d="M111.99 58.7501C111.777 58.8738 111.582 59.0063 111.387 59.183C110.652 59.8808 109.82 60.402 108.916 60.7288C107.995 61.0645 107.021 61.2411 106.002 61.2411C104.904 61.2411 103.877 61.0203 102.938 60.5874C101.981 60.1458 101.149 59.5539 100.458 58.8208C99.758 58.0876 99.2 57.222 98.8014 56.2503C98.4029 55.2875 98.1992 54.2716 98.1992 53.2293C98.1992 53.194 98.1992 53.1586 98.1992 53.1233C98.1992 53.088 98.1992 53.0526 98.1992 53.0173C98.1992 51.9485 98.4117 50.9238 98.8192 49.961C99.2354 48.9981 99.8112 48.1413 100.529 47.417C101.246 46.6926 102.096 46.1096 103.053 45.6856C103.992 45.2616 105.019 45.0496 106.1 45.0496C107.101 45.0496 108.057 45.2175 108.961 45.5443C109.846 45.8711 110.67 46.3746 111.414 47.0548C111.591 47.205 111.786 47.3463 111.99 47.4611C112.689 47.8498 113.584 47.7526 114.177 47.205C114.611 46.8251 114.842 46.3305 114.842 45.7651C114.842 45.3941 114.727 44.8376 114.204 44.3076C113.203 43.2918 111.972 42.5056 110.546 41.9756C109.147 41.4545 107.667 41.1895 106.162 41.1895C104.55 41.1895 103 41.4986 101.556 42.117C100.13 42.7265 98.8634 43.5833 97.7917 44.6433C96.7289 45.7033 95.8697 46.9665 95.2586 48.3798C94.6386 49.802 94.3286 51.3566 94.3286 52.982C94.3286 53.0261 94.3286 53.0703 94.3286 53.1145V53.2823C94.3286 54.8988 94.6386 56.4446 95.2497 57.8756C95.8609 59.2978 96.72 60.5609 97.7829 61.6298C98.8457 62.6986 100.112 63.5466 101.547 64.1561C102.982 64.7745 104.532 65.0836 106.153 65.0836C107.667 65.0836 109.147 64.801 110.555 64.2445C111.972 63.688 113.194 62.8841 114.195 61.8771C114.727 61.3471 114.833 60.7906 114.833 60.4196C114.833 59.872 114.62 59.3773 114.213 59.0063C113.575 58.4233 112.707 58.3261 111.981 58.7413L111.99 58.7501Z" fill="white"/>
<path d="M141.989 48.4593C141.36 47.0283 140.492 45.7563 139.42 44.6875C138.349 43.6186 137.073 42.7618 135.638 42.1346C134.195 41.5075 132.627 41.1895 130.971 41.1895C129.314 41.1895 127.755 41.5075 126.303 42.1346C124.868 42.753 123.593 43.6186 122.512 44.6963C121.431 45.774 120.563 47.046 119.943 48.477C119.315 49.9168 118.996 51.4803 118.996 53.1321C118.996 54.784 119.315 56.3475 119.943 57.7961C120.563 59.236 121.431 60.5168 122.512 61.5945C123.593 62.6721 124.868 63.5378 126.303 64.1561C127.747 64.7833 129.314 65.1013 130.971 65.1013C132.866 65.1013 134.575 64.7303 136.037 63.9971C137.463 63.2816 138.694 62.363 139.695 61.2588C140.235 60.7376 140.324 60.19 140.297 59.8101C140.271 59.3508 140.111 58.9356 139.837 58.6176C139.597 58.3173 139.323 58.0964 139.022 57.9728L138.969 57.9551C138.889 57.9286 138.809 57.911 138.729 57.8933C138.641 57.8756 138.535 57.8668 138.428 57.8668C137.968 57.8668 137.516 58.0346 137.1 58.3703L137.02 58.441L136.958 58.5293C136.639 58.9356 136.258 59.3154 135.824 59.6423C135.381 59.9779 134.885 60.2695 134.363 60.508C133.84 60.7465 133.282 60.932 132.715 61.0556C131.103 61.4001 129.438 61.2588 128.012 60.6846C127.091 60.3136 126.267 59.7925 125.568 59.1476C124.868 58.494 124.292 57.7166 123.858 56.8421C123.575 56.2591 123.362 55.6496 123.229 55.0136H141.059C141.617 55.0136 142.095 54.8105 142.449 54.4306C142.786 54.0685 142.963 53.6091 142.963 53.0968C142.963 51.4626 142.644 49.908 142.007 48.4681L141.989 48.4593ZM123.761 49.5458C124.195 48.6536 124.779 47.8586 125.488 47.1961C126.197 46.5336 127.029 46.0036 127.968 45.6238C128.898 45.244 129.925 45.0585 130.997 45.0585C132.069 45.0585 133.07 45.2528 134.009 45.6238C134.947 46.0036 135.798 46.5336 136.524 47.1961C137.241 47.8498 137.835 48.6448 138.269 49.537C138.561 50.1376 138.783 50.7825 138.907 51.4538H123.132C123.256 50.7825 123.469 50.1465 123.761 49.5458Z" fill="white"/>
<path d="M61.1231 48.4946C60.5032 47.046 59.6529 45.7651 58.5723 44.6875C57.5006 43.6186 56.2251 42.7618 54.7726 42.1346C53.32 41.5075 51.7434 41.1895 50.096 41.1895C48.4486 41.1895 46.8986 41.5075 45.446 42.1346C44.0023 42.753 42.718 43.6098 41.6374 44.6786C40.5569 45.7475 39.6889 47.0283 39.0689 48.477C38.44 49.9345 38.13 51.5068 38.13 53.1498V70.5868C38.13 71.1256 38.3249 71.6644 38.7146 72.0443C39.1043 72.4241 39.5737 72.6185 40.0963 72.6185C40.6543 72.6185 41.1414 72.4064 41.4957 72.0089C41.8234 71.6379 41.9917 71.1698 41.9917 70.6574V53.1498C41.9917 52.0368 42.2043 50.968 42.6206 49.9875C43.0457 48.9981 43.6214 48.1325 44.3477 47.3993C45.0651 46.675 45.9331 46.092 46.9251 45.668C47.9083 45.2528 48.9711 45.0408 50.096 45.0408C51.2209 45.0408 52.3191 45.2528 53.2934 45.668C54.2766 46.092 55.1357 46.675 55.862 47.3993C56.5883 48.1236 57.164 48.9981 57.5803 49.9786C57.9966 50.9591 58.2003 52.028 58.2003 53.141C58.2003 54.254 57.9877 55.2698 57.5803 56.2415C57.164 57.222 56.5883 58.0965 55.862 58.8296C55.1357 59.5628 54.2766 60.1546 53.2934 60.5786C52.3191 61.0026 51.2474 61.2146 50.096 61.2146C48.9446 61.2146 47.8994 61.0026 46.9251 60.5786C45.942 60.1546 45.0829 59.5628 44.3566 58.8296C44.3566 58.8296 44.3477 58.8208 44.3389 58.812C43.5329 57.9993 42.1423 58.441 41.9651 59.5716L41.7614 60.8701C41.6817 61.3825 41.8854 61.886 42.3017 62.204C43.0103 62.7428 43.9049 63.3523 44.5071 63.6703C45.3397 64.1208 46.2431 64.4741 47.182 64.7126C48.1297 64.9511 49.1129 65.0748 50.1137 65.0748C51.7612 65.0748 53.3377 64.7568 54.7903 64.1296C56.234 63.5113 57.5183 62.6456 58.59 61.5679C59.6617 60.4903 60.5209 59.2095 61.132 57.7696C61.752 56.321 62.062 54.7663 62.062 53.1321C62.062 51.498 61.752 49.9256 61.132 48.4681L61.1231 48.4946Z" fill="white"/>
<path d="M46.9251 74.5443H46.0128V67.6455H46.9251V74.5443Z" fill="white"/>
<path d="M49.4848 69.4214L49.5114 70.0662C49.9011 69.5715 50.4148 69.3242 51.0525 69.3242C52.142 69.3242 52.6823 69.9337 52.6911 71.1527V74.5359H51.8143V71.1439C51.8143 70.7729 51.7257 70.499 51.5574 70.3224C51.3891 70.1457 51.1323 70.0574 50.778 70.0574C50.4945 70.0574 50.2465 70.1369 50.0251 70.287C49.8037 70.4372 49.6443 70.6404 49.5203 70.8877V74.5359H48.6434V69.4126H49.476L49.4848 69.4214Z" fill="white"/>
<path d="M55.4014 68.1846V69.4212H56.358V70.1014H55.4014V73.2814C55.4014 73.4846 55.4457 73.6436 55.5254 73.7407C55.6051 73.8379 55.7557 73.8909 55.9594 73.8909C56.0568 73.8909 56.1986 73.8732 56.3757 73.8379V74.5446C56.1454 74.6064 55.924 74.6417 55.7026 74.6417C55.3128 74.6417 55.0117 74.5269 54.8168 74.2884C54.6131 74.0499 54.5157 73.7142 54.5157 73.2814V70.1014H53.5768V69.4212H54.5157V68.1846H55.3926H55.4014Z" fill="white"/>
<path d="M59.7149 74.6418C59.0151 74.6418 58.4483 74.4121 58.0143 73.9616C57.5803 73.5023 57.3589 72.8928 57.3589 72.1331V71.9741C57.3589 71.4618 57.4563 71.0113 57.6511 70.6138C57.846 70.2163 58.1206 69.8983 58.466 69.6775C58.8114 69.4478 59.1923 69.3418 59.5997 69.3418C60.264 69.3418 60.7866 69.5626 61.1586 69.9955C61.5306 70.4371 61.7166 71.0643 61.7166 71.877V72.2391H58.2357C58.2446 72.7426 58.3951 73.149 58.6786 73.467C58.962 73.7761 59.3251 73.9351 59.7591 73.9351C60.0691 73.9351 60.3349 73.8733 60.5474 73.7496C60.76 73.626 60.9549 73.4581 61.1143 73.2461L61.6546 73.6613C61.2206 74.3238 60.574 74.6506 59.7149 74.6506V74.6418ZM59.6086 70.0485C59.2543 70.0485 58.9531 70.181 58.714 70.4371C58.4749 70.6933 58.3243 71.0555 58.2711 71.5148H60.8486V71.4441C60.822 71.0025 60.7069 70.658 60.4854 70.4106C60.2729 70.1633 59.9806 70.0396 59.6086 70.0396V70.0485Z" fill="white"/>
<path d="M65.41 70.2076C65.2771 70.1811 65.1354 70.1722 64.976 70.1722C64.4003 70.1722 64.0106 70.4195 63.8068 70.9054V74.5447H62.93V69.4214H63.7891L63.8068 70.0132C64.0991 69.5539 64.5066 69.3242 65.0291 69.3242C65.1974 69.3242 65.3303 69.3507 65.4188 69.3949V70.2076H65.41Z" fill="white"/>
<path d="M66.4197 68.069C66.4197 67.9276 66.464 67.804 66.5526 67.7068C66.6411 67.6096 66.7651 67.5566 66.9423 67.5566C67.1194 67.5566 67.2434 67.6096 67.332 67.7068C67.4206 67.804 67.4649 67.9276 67.4649 68.069C67.4649 68.2103 67.4206 68.3251 67.332 68.4223C67.2434 68.5195 67.1106 68.5636 66.9423 68.5636C66.774 68.5636 66.6411 68.5195 66.5526 68.4223C66.464 68.3251 66.4197 68.2103 66.4197 68.069ZM67.3674 74.5438H66.4906V69.4205H67.3674V74.5438Z" fill="white"/>
<path d="M68.7403 71.9388C68.7403 71.4353 68.8377 70.9848 69.0414 70.5873C69.2363 70.1898 69.5108 69.8807 69.8651 69.6598C70.2194 69.439 70.618 69.333 71.0697 69.333C71.7694 69.333 72.3363 69.5715 72.7703 70.0573C73.2043 70.5432 73.4168 71.1792 73.4168 71.983V72.0448C73.4168 72.5395 73.3194 72.99 73.1334 73.3875C72.9385 73.785 72.664 74.0942 72.3097 74.315C71.9554 74.5358 71.548 74.6507 71.0786 74.6507C70.3788 74.6507 69.8208 74.4122 69.3868 73.9263C68.9528 73.4405 68.7403 72.8045 68.7403 72.0095V71.9477V71.9388ZM69.6171 72.0448C69.6171 72.6102 69.75 73.0695 70.0157 73.414C70.2814 73.7585 70.6357 73.9263 71.0786 73.9263C71.5214 73.9263 71.8757 73.7497 72.1414 73.4052C72.4071 73.0607 72.5311 72.566 72.5311 71.9388C72.5311 71.3735 72.3983 70.923 72.1326 70.5697C71.8668 70.2252 71.5125 70.0485 71.0697 70.0485C70.6268 70.0485 70.2903 70.2252 70.0245 70.5608C69.7588 70.8965 69.626 71.4 69.626 72.036L69.6171 72.0448Z" fill="white"/>
<path d="M77.19 70.2076C77.0571 70.1811 76.9154 70.1722 76.756 70.1722C76.1803 70.1722 75.7906 70.4195 75.5868 70.9054V74.5447H74.71V69.4214H75.5691L75.5868 70.0132C75.8791 69.5539 76.2866 69.3242 76.8091 69.3242C76.9774 69.3242 77.1103 69.3507 77.1989 69.3949V70.2076H77.19Z" fill="white"/>
<path d="M81.1846 73.1932C81.1846 72.9547 81.096 72.7692 80.9189 72.6455C80.7417 72.513 80.4317 72.3982 79.98 72.3098C79.5283 72.2215 79.1829 72.0978 78.9171 71.9653C78.6514 71.8328 78.4654 71.6738 78.3414 71.4883C78.2174 71.3028 78.1554 71.0908 78.1554 70.8347C78.1554 70.4107 78.3326 70.0573 78.6869 69.7658C79.0411 69.4743 79.5017 69.333 80.0509 69.333C80.6354 69.333 81.1049 69.4832 81.468 69.7835C81.8311 70.0838 82.0083 70.4637 82.0083 70.9318H81.1226C81.1226 70.6933 81.0163 70.4813 80.8126 70.3135C80.6089 70.1368 80.352 70.0573 80.042 70.0573C79.732 70.0573 79.4751 70.128 79.2891 70.2693C79.1031 70.4107 79.0146 70.5873 79.0146 70.817C79.0146 71.029 79.0943 71.188 79.2626 71.294C79.4309 71.4 79.732 71.506 80.1749 71.6032C80.6089 71.7003 80.972 71.8152 81.2377 71.9565C81.5123 72.089 81.716 72.2568 81.84 72.4512C81.9729 72.6455 82.0349 72.8752 82.0349 73.149C82.0349 73.6083 81.8489 73.9705 81.4857 74.2532C81.1226 74.527 80.6443 74.6683 80.0597 74.6683C79.6523 74.6683 79.2803 74.5977 78.9703 74.4475C78.6603 74.2973 78.4034 74.103 78.2263 73.838C78.0491 73.573 77.9606 73.2992 77.9606 72.99H78.8374C78.8551 73.2815 78.9703 73.52 79.1917 73.6878C79.4131 73.8645 79.7054 73.944 80.0597 73.944C80.3963 73.944 80.662 73.8733 80.8569 73.7408C81.0606 73.6083 81.158 73.4317 81.158 73.202L81.1846 73.1932Z" fill="white"/>
<path d="M85.8257 72.6976C85.8257 72.3708 85.9143 72.0616 86.1003 71.7878C86.2863 71.5139 86.6406 71.1871 87.1631 70.8161C86.8531 70.4451 86.6494 70.1448 86.5431 69.9151C86.4369 69.6854 86.3837 69.4646 86.3837 69.2349C86.3837 68.7138 86.5431 68.2986 86.8531 68.0071C87.1631 67.7156 87.5883 67.5654 88.1197 67.5654C88.598 67.5654 88.9877 67.7068 89.2977 67.9806C89.6077 68.2544 89.7671 68.6078 89.7671 69.0229C89.7671 69.2968 89.6963 69.5618 89.5546 69.7914C89.4129 70.0299 89.1649 70.2773 88.8194 70.5334L88.3146 70.9044L89.8557 72.7329C90.0683 72.3266 90.1746 71.8673 90.1746 71.3638H90.9717C90.9717 72.1676 90.7769 72.8389 90.3871 73.3689L91.3791 74.5438H90.3251L89.8646 73.9961C89.6343 74.2081 89.3597 74.3671 89.0409 74.4731C88.722 74.5791 88.4031 74.6321 88.0754 74.6321C87.4023 74.6321 86.862 74.4554 86.4546 74.0933C86.0471 73.7311 85.8434 73.2629 85.8434 72.6799L85.8257 72.6976ZM88.0577 73.9254C88.5271 73.9254 88.9523 73.7488 89.3331 73.3954L87.6503 71.3814L87.4909 71.4963C86.9594 71.8849 86.6937 72.2824 86.6937 72.6976C86.6937 73.0686 86.8177 73.3689 87.0569 73.5898C87.296 73.8106 87.6326 73.9254 88.0489 73.9254H88.0577ZM87.2606 69.2084C87.2606 69.5088 87.4466 69.8886 87.8186 70.3479L88.3766 69.9504C88.5891 69.8003 88.7397 69.6589 88.8194 69.5176C88.8991 69.3763 88.9346 69.2173 88.9346 69.0141C88.9346 68.8021 88.8549 68.6254 88.6954 68.4841C88.536 68.3428 88.3411 68.2721 88.0931 68.2721C87.8363 68.2721 87.6237 68.3604 87.4731 68.5371C87.3226 68.7138 87.2429 68.9346 87.2429 69.1996L87.2606 69.2084Z" fill="white"/>
<path d="M98.89 71.3643H95.8963V73.8111H99.3771V74.5531H94.984V67.6543H99.3328V68.3963H95.8963V70.6135H98.89V71.3555V71.3643Z" fill="white"/>
<path d="M102.291 71.2936L103.434 69.4209H104.461L102.778 71.9561L104.514 74.5442H103.496L102.309 72.6274L101.122 74.5442H100.103L101.839 71.9561L100.157 69.4209H101.175L102.3 71.2936H102.291Z" fill="white"/>
<path d="M106.463 70.0481C106.853 69.5711 107.357 69.3326 107.986 69.3326C109.076 69.3326 109.616 69.9421 109.625 71.1611V74.5442H108.748V71.1522C108.748 70.7812 108.659 70.5074 108.491 70.3307C108.323 70.1541 108.066 70.0657 107.712 70.0657C107.428 70.0657 107.18 70.1452 106.959 70.2954C106.737 70.4456 106.578 70.6487 106.454 70.8961V74.5442H105.577V67.2744H106.454V70.0481H106.463Z" fill="white"/>
<path d="M111.139 68.069C111.139 67.9276 111.184 67.804 111.272 67.7068C111.361 67.6096 111.485 67.5566 111.662 67.5566C111.839 67.5566 111.963 67.6096 112.052 67.7068C112.14 67.804 112.185 67.9276 112.185 68.069C112.185 68.2103 112.14 68.3251 112.052 68.4223C111.963 68.5195 111.83 68.5636 111.662 68.5636C111.494 68.5636 111.361 68.5195 111.272 68.4223C111.184 68.3251 111.139 68.2103 111.139 68.069ZM112.087 74.5438H111.21V69.4205H112.087V74.5438Z" fill="white"/>
<path d="M118.039 72.0444C118.039 72.8305 117.862 73.4577 117.499 73.9347C117.136 74.4117 116.657 74.6502 116.046 74.6502C115.4 74.6502 114.895 74.4205 114.541 73.9612L114.496 74.553H113.69V67.2832H114.567V69.995C114.921 69.5534 115.409 69.3414 116.037 69.3414C116.666 69.3414 117.153 69.5799 117.508 70.048C117.862 70.5162 118.039 71.161 118.039 71.9825V72.062V72.0444ZM117.162 71.9472C117.162 71.3465 117.047 70.8872 116.817 70.5604C116.587 70.2335 116.25 70.0745 115.816 70.0745C115.24 70.0745 114.824 70.3395 114.567 70.8784V73.0955C114.833 73.6344 115.258 73.8994 115.825 73.8994C116.25 73.8994 116.578 73.7404 116.808 73.4135C117.038 73.0867 117.162 72.6009 117.162 71.9472Z" fill="white"/>
<path d="M119.341 68.069C119.341 67.9276 119.385 67.804 119.474 67.7068C119.563 67.6096 119.687 67.5566 119.864 67.5566C120.041 67.5566 120.165 67.6096 120.253 67.7068C120.342 67.804 120.386 67.9276 120.386 68.069C120.386 68.2103 120.342 68.3251 120.253 68.4223C120.165 68.5195 120.032 68.5636 119.864 68.5636C119.695 68.5636 119.563 68.5195 119.474 68.4223C119.385 68.3251 119.341 68.2103 119.341 68.069ZM120.298 74.5438H119.421V69.4205H120.298V74.5438Z" fill="white"/>
<path d="M123.088 68.1846V69.4212H124.044V70.1014H123.088V73.2814C123.088 73.4846 123.132 73.6436 123.212 73.7407C123.291 73.8379 123.442 73.8909 123.646 73.8909C123.743 73.8909 123.885 73.8732 124.062 73.8379V74.5446C123.832 74.6064 123.61 74.6417 123.389 74.6417C122.999 74.6417 122.698 74.5269 122.503 74.2884C122.299 74.0499 122.202 73.7142 122.202 73.2814V70.1014H121.263V69.4212H122.202V68.1846H123.079H123.088Z" fill="white"/>
<path d="M125.267 68.069C125.267 67.9276 125.311 67.804 125.399 67.7068C125.488 67.6096 125.612 67.5566 125.789 67.5566C125.966 67.5566 126.09 67.6096 126.179 67.7068C126.267 67.804 126.312 67.9276 126.312 68.069C126.312 68.2103 126.267 68.3251 126.179 68.4223C126.09 68.5195 125.957 68.5636 125.789 68.5636C125.621 68.5636 125.488 68.5195 125.399 68.4223C125.311 68.3251 125.267 68.2103 125.267 68.069ZM126.223 74.5438H125.346V69.4205H126.223V74.5438Z" fill="white"/>
<path d="M127.587 71.9388C127.587 71.4353 127.685 70.9848 127.888 70.5873C128.083 70.1898 128.358 69.8807 128.712 69.6598C129.066 69.439 129.465 69.333 129.917 69.333C130.616 69.333 131.183 69.5715 131.617 70.0573C132.051 70.5432 132.264 71.1792 132.264 71.983V72.0448C132.264 72.5395 132.166 72.99 131.98 73.3875C131.785 73.785 131.511 74.0942 131.157 74.315C130.802 74.5358 130.395 74.6507 129.925 74.6507C129.226 74.6507 128.668 74.4122 128.234 73.9263C127.8 73.4405 127.587 72.8045 127.587 72.0095V71.9477V71.9388ZM128.473 72.0448C128.473 72.6102 128.606 73.0695 128.871 73.414C129.137 73.7585 129.491 73.9263 129.934 73.9263C130.377 73.9263 130.731 73.7497 130.997 73.4052C131.263 73.0607 131.396 72.566 131.396 71.9388C131.396 71.3735 131.263 70.923 130.997 70.5697C130.731 70.2252 130.377 70.0485 129.934 70.0485C129.491 70.0485 129.155 70.2252 128.889 70.5608C128.623 70.8965 128.491 71.4 128.491 72.036L128.473 72.0448Z" fill="white"/>
<path d="M134.389 69.4214L134.416 70.0662C134.806 69.5715 135.319 69.3242 135.957 69.3242C137.047 69.3242 137.587 69.9337 137.596 71.1527V74.5359H136.719V71.1439C136.719 70.7729 136.63 70.499 136.462 70.3224C136.294 70.1457 136.037 70.0574 135.683 70.0574C135.399 70.0574 135.151 70.1369 134.93 70.287C134.708 70.4372 134.549 70.6404 134.425 70.8877V74.5359H133.548V69.4126H134.381L134.389 69.4214Z" fill="white"/>
<path d="M142.113 73.1932C142.113 72.9547 142.024 72.7692 141.847 72.6455C141.67 72.513 141.36 72.3982 140.908 72.3098C140.465 72.2127 140.111 72.0978 139.845 71.9653C139.58 71.8328 139.394 71.6738 139.27 71.4883C139.146 71.3028 139.084 71.0908 139.084 70.8347C139.084 70.4107 139.261 70.0573 139.615 69.7658C139.969 69.4743 140.43 69.333 140.979 69.333C141.564 69.333 142.033 69.4832 142.396 69.7835C142.759 70.0838 142.937 70.4637 142.937 70.9318H142.051C142.051 70.6933 141.953 70.4813 141.741 70.3135C141.537 70.1368 141.28 70.0573 140.97 70.0573C140.66 70.0573 140.403 70.128 140.217 70.2693C140.031 70.4107 139.943 70.5873 139.943 70.817C139.943 71.029 140.023 71.188 140.191 71.294C140.359 71.4 140.66 71.506 141.103 71.6032C141.537 71.7003 141.9 71.8152 142.166 71.9565C142.441 72.089 142.644 72.2568 142.768 72.4512C142.901 72.6455 142.963 72.8752 142.963 73.149C142.963 73.6083 142.777 73.9705 142.414 74.2532C142.051 74.527 141.573 74.6683 140.988 74.6683C140.581 74.6683 140.209 74.5977 139.899 74.4475C139.589 74.2973 139.332 74.103 139.155 73.838C138.977 73.573 138.889 73.2992 138.889 72.99H139.766C139.783 73.2815 139.899 73.52 140.12 73.6878C140.341 73.8645 140.634 73.944 140.988 73.944C141.325 73.944 141.59 73.8733 141.785 73.7408C141.989 73.6083 142.086 73.4317 142.086 73.202L142.113 73.1932Z" fill="white"/>
</svg>
