<svg width="149" height="102" viewBox="0 0 149 102" fill="none" xmlns="http://www.w3.org/2000/svg">
<path fill-rule="evenodd" clip-rule="evenodd" d="M12.797 61.9906C15.1299 64.5321 18.0077 65.7051 20.9707 66.9036C22.4181 67.4901 23.8911 68.0936 25.3471 68.8671L25.8835 69.1561L26.4199 69.4536H26.4369C27.101 69.9211 27.7055 70.4566 28.2504 71.0516C28.6847 71.5361 29.0848 72.0631 29.4254 72.6241C31.1793 75.3951 31.886 78.2936 31.554 81.3111L31.2134 80.5801C30.8643 79.8406 30.4386 79.1436 29.9363 78.5146C29.3403 77.8091 28.6165 77.1206 27.7481 76.4491C24.1721 73.9501 19.7787 75.4036 16.3815 71.8336C16.2623 71.7316 16.1431 71.6211 16.0324 71.5106C14.8234 70.0656 14.2785 68.2636 14.7638 66.3341C17.1989 67.8896 19.7872 69.1731 22.4863 70.1676C23.5335 70.5161 24.5893 70.8051 25.6706 71.0261L25.5514 70.9581C25.2023 70.7626 24.8617 70.5671 24.5297 70.3971C22.9375 69.5471 21.422 68.9521 19.9575 68.3741C18.161 67.6686 16.4581 67.0056 14.7893 65.9261C13.8357 65.3056 12.9503 64.6001 12.1414 63.8011C11.9285 63.5971 11.7157 63.3761 11.5113 63.1466C8.04603 59.3726 7.42448 56.0916 6.539 51.3911L6.38574 50.5751L7.33083 51.8586C9.13586 54.3236 10.5577 56.2616 13.393 57.9616C13.8528 58.2336 14.3296 58.4886 14.8149 58.7181C15.3002 58.9476 15.794 59.1516 16.3049 59.3301L17.3096 59.6871H16.2453C14.9681 59.6956 13.708 59.4661 12.5416 59.0156C11.5965 58.6586 10.711 58.1571 9.90214 57.5366C10.2087 58.2336 10.5663 58.9136 10.9664 59.5596C11.5028 60.4181 12.1159 61.2256 12.797 61.9736M42.7758 75.5311C47.6034 72.2841 51.3923 67.8216 53.8273 62.6536C56.2028 63.8181 58.2548 65.1356 60.2812 66.8696C55.8623 71.7571 49.6894 74.9701 42.7843 75.5311M54.6958 60.6306C56.1177 56.9756 56.884 53.0486 56.884 49.0026C56.884 45.5006 56.3135 42.0751 55.2322 38.8536C57.8461 37.5446 60.2727 35.8786 62.4523 33.8896C68.9998 43.3756 68.6763 56.0406 61.686 65.1866C59.4808 63.2996 57.2756 61.8971 54.6958 60.6391M54.4574 36.7796C52.0734 31.0081 48.0376 26.0186 42.7843 22.4741C50.1236 23.0776 56.6626 26.6731 61.1326 32.1216C59.1232 33.9831 56.8755 35.5471 54.4659 36.7796M28.7017 37.7061C31.0601 31.9346 35.1981 27.0046 40.5791 23.6641C45.9687 26.9961 50.0981 31.9346 52.4565 37.7061C48.6166 39.3211 44.8363 40.0351 40.5791 40.0351C36.322 40.0351 32.5416 39.3296 28.7017 37.7061ZM20.0341 32.1216C24.5041 26.6731 31.0431 23.0776 38.3824 22.4741C33.1291 26.0186 29.0933 31.0081 26.7093 36.7796C24.2998 35.5471 22.052 33.9831 20.0427 32.1216M37.829 75.1486C38.0163 75.2761 38.1951 75.4036 38.3824 75.5311C38.1696 75.5141 37.9482 75.4971 37.7353 75.4716L37.7183 75.5396C37.7524 75.4121 37.7949 75.2761 37.829 75.1486ZM44.7341 59.9591C47.1692 60.2736 49.5532 60.8856 51.8095 61.7781C49.3744 66.9121 45.5089 71.2981 40.5791 74.3496C39.8384 73.8906 39.1232 73.4061 38.4335 72.8876C38.5187 72.5391 38.6123 72.1906 38.6975 71.8421C39.5063 68.6461 40.3237 65.3736 41.7371 62.9766C42.5204 61.6506 43.4825 60.5881 44.7341 59.9591ZM26.505 50.2181C26.3603 46.7076 26.8371 43.1716 27.9439 39.7716C31.9116 41.4291 36.1772 42.2791 40.5791 42.2366C44.981 42.2791 49.2467 41.4291 53.2143 39.7716C55.3344 46.2996 55.1471 53.3631 52.6779 59.7466C51.537 59.2961 50.3961 58.9136 49.2552 58.6076L49.0593 58.1401C48.9231 57.8171 48.7443 57.5196 48.5315 57.2561C48.3101 56.9841 48.0547 56.7461 47.7737 56.5506C47.5523 56.3976 47.3139 56.2616 47.067 56.1596C46.8541 56.0661 46.6243 55.9981 46.3859 55.9471C46.1049 55.3946 45.7558 54.8931 45.3216 54.4681C44.8703 54.0176 44.3339 53.6266 43.7124 53.3121C43.0568 52.9806 42.316 52.7256 41.4731 52.5471C40.6387 52.3686 39.7107 52.2666 38.6889 52.2411C38.0844 52.2241 37.4799 52.1476 36.9009 52.0116C36.3135 51.8841 35.7345 51.6971 35.1811 51.4591C34.6276 51.2211 34.0912 50.9406 33.5889 50.6091C33.0865 50.2776 32.6183 49.9036 32.1755 49.4786L30.2598 47.6341L30.7111 50.2606C30.8132 50.8556 30.992 51.4336 31.2304 51.9776C31.4773 52.5301 31.7924 53.0401 32.1585 53.5161C32.3032 53.7031 32.465 53.8816 32.6353 54.0516L32.78 54.1961C32.2266 54.1621 31.6902 54.0686 31.1623 53.9156C30.4641 53.7201 29.8085 53.4311 29.1955 53.0656C28.0716 52.3856 27.1861 51.3826 26.4965 50.2266M17.6757 35.5046C17.9992 34.9606 18.3398 34.4166 18.7059 33.8896C20.8856 35.8786 23.3207 37.5446 25.926 38.8536C25.3215 40.6556 24.8788 42.5086 24.6063 44.4126C24.5723 44.1491 24.5467 43.8771 24.5297 43.6051C24.4956 43.0866 24.4786 42.5766 24.4956 42.0581L24.5978 38.9641L22.8949 41.5566C20.7919 44.7526 20.4854 47.5746 21.158 50.2521L20.8941 49.9886C19.9149 48.9941 19.1316 47.8721 18.5527 46.6736C17.9481 45.4411 17.5565 44.1236 17.3777 42.7806C17.1733 41.4291 17.1308 39.9841 17.2585 38.4371C17.3351 37.4936 17.4713 36.5246 17.6672 35.5131M18.4675 30.5576C17.9907 31.1271 17.5395 31.7136 17.1137 32.3256C15.3257 34.8501 13.989 37.5871 13.1035 40.4346L13.1801 40.3411L13.1376 40.4686C12.4224 42.4831 12.0988 44.5826 12.1499 46.6566V46.6991C12.1669 47.4301 12.2265 48.1611 12.3372 48.9006C12.6437 51.0001 13.2653 52.7681 14.0997 54.3151C14.9341 55.8621 15.9899 57.1966 17.1819 58.4291C17.6842 58.9306 18.1951 59.4151 18.7144 59.8911C19.2338 60.3671 19.7617 60.8346 20.2896 61.3021L20.843 61.7781L21.4049 62.2541C22.1968 62.9256 22.9971 63.6056 23.8145 64.3281C24.6233 65.0506 25.4237 65.8071 26.207 66.6146L26.3347 66.7506C27.6885 68.0851 28.889 69.5726 29.9022 71.1791C29.9788 71.3066 30.064 71.4341 30.1406 71.5616C28.9912 66.9886 26.6923 62.7811 23.4569 59.3301C28.6165 63.3676 31.8179 69.4026 32.2692 75.9476C33.2824 72.4201 33.1206 68.6461 31.7839 65.2036C30.6174 62.5601 28.9401 60.1801 27.3139 57.8681C25.7643 55.6751 24.2743 53.5501 23.4143 51.3911C22.6395 49.4701 22.3671 47.4981 22.9801 45.3901V45.4496C23.3292 47.3706 23.9167 49.3171 24.8958 51.0086C25.7217 52.4281 26.82 53.6691 28.2845 54.5531C29.3488 55.1991 30.5408 55.6411 31.8009 55.8366C33.0099 56.0236 34.27 55.9896 35.5301 55.6921L38.1611 55.0716L35.6664 54.0261C35.2407 53.8476 34.849 53.6266 34.4914 53.3546C34.253 53.1761 34.0316 52.9721 33.8273 52.7596C34.0401 52.8701 34.2615 52.9721 34.4914 53.0656C35.147 53.3376 35.8196 53.5586 36.5178 53.7116C37.2075 53.8646 37.9141 53.9581 38.6293 53.9751H38.6379C39.5233 54.0006 40.3237 54.0856 41.0389 54.2301C41.7456 54.3746 42.3671 54.5871 42.9035 54.8676C43.4059 55.1226 43.8231 55.4371 44.1636 55.8026C44.5042 56.1681 44.7767 56.5931 44.964 57.0691L45.1683 57.5876L45.7303 57.6216C45.8409 57.6216 45.9516 57.6471 46.0623 57.6641C43.2526 58.0891 41.405 59.8316 40.0683 62.2456C38.6379 64.8211 37.8035 68.1446 36.9861 71.4001C36.62 72.8451 36.2624 74.2816 35.8622 75.5991C35.5727 76.5341 35.2662 77.4181 34.9171 78.2256C34.9767 77.5031 35.0108 76.7806 35.0363 76.0496C35.0789 74.9701 35.0874 73.8821 35.0959 72.8026C35.13 69.6321 35.164 66.5551 35.9218 64.0476C36.041 63.6481 36.1857 63.2656 36.339 62.9001C35.8622 64.9316 36.024 67.0821 36.8669 69.0456C36.8158 64.9146 38.6889 60.9876 41.9329 58.4291L40.9963 58.3526C39.8639 58.2591 38.74 58.4716 37.7439 58.9476C36.7477 59.4236 35.8792 60.1546 35.2321 61.0981C34.5765 62.2541 34.1508 63.5461 33.8784 64.9486C33.6315 66.4871 33.4782 68.0426 33.4101 69.6066V69.6661L33.3845 70.3631V70.3801C33.3931 72.8791 33.3505 75.0211 33.2483 76.7891L33.2143 77.3841C33.1547 78.2766 33.0695 79.1606 32.9418 80.0191C32.8567 80.6056 32.746 81.1836 32.6097 81.7446L31.9627 84.4476L34.0401 82.5946C35.3939 81.3876 36.322 79.5856 37.0712 77.4776L37.0287 77.5966C38.1866 77.7411 39.3701 77.8091 40.5621 77.8091C48.8295 77.8091 56.4838 74.2986 61.8733 68.3486C62.3672 67.8046 62.844 67.2436 63.2867 66.6656C71.0517 56.6441 71.3668 42.6701 64.0189 32.3171C63.5932 31.7051 63.142 31.1186 62.6652 30.5491C53.6315 19.6946 37.9737 16.8896 25.6621 24.3271C22.946 25.9676 20.4769 28.1096 18.442 30.5491L18.4675 30.5576Z" fill="white"/>
<path d="M81.95 39.5848H84.632V41.4633C84.3766 41.6078 84.07 41.7013 83.7039 41.7693C83.3378 41.8288 82.9377 41.8628 82.5034 41.8628C81.7457 41.8628 81.0475 41.7608 80.4259 41.5483C79.7959 41.3358 79.2595 41.0298 78.7997 40.6218C78.3399 40.2138 77.9909 39.7208 77.7354 39.1343C77.48 38.5478 77.3523 37.8933 77.3523 37.1623C77.3523 36.3378 77.463 35.6068 77.6929 34.9778C77.9142 34.3573 78.2548 33.8303 78.6975 33.4053C79.1403 32.9803 79.6852 32.6658 80.3323 32.4533C80.9794 32.2408 81.7286 32.1388 82.5715 32.1388C82.9121 32.1388 83.2952 32.1813 83.7295 32.2748C84.1637 32.3683 84.5979 32.4788 85.0151 32.6233C85.4408 32.7678 85.7729 32.9038 86.0283 33.0483L87.016 30.2008C86.437 29.8778 85.7389 29.6058 84.9045 29.3933C84.0701 29.1723 83.159 29.0703 82.1629 29.0703C81.1071 29.0703 80.0939 29.2403 79.1318 29.5718C78.1697 29.9118 77.3182 30.4218 76.5775 31.1188C75.8367 31.8158 75.2578 32.6828 74.8235 33.7283C74.3978 34.7738 74.1765 36.0063 74.1765 37.4258C74.1765 38.5053 74.3638 39.5083 74.7469 40.4178C75.1301 41.3273 75.675 42.1178 76.3902 42.7893C77.1054 43.4523 77.9738 43.9793 78.987 44.3448C80.0002 44.7188 81.1411 44.9058 82.4012 44.9058C82.878 44.9058 83.3889 44.8548 83.9168 44.7443C84.4532 44.6423 84.9726 44.4978 85.4919 44.3363C86.0028 44.1663 86.4626 43.9793 86.8542 43.7753C87.2459 43.5713 87.5354 43.3758 87.7227 43.1718V36.6183H81.9415V39.5678L81.95 39.5848Z" fill="white"/>
<path d="M100.784 38.088C101.209 37.5695 101.524 36.9915 101.712 36.3625C101.899 35.7335 101.993 35.096 101.993 34.467C101.993 33.668 101.856 32.9455 101.592 32.308C101.328 31.6705 100.937 31.118 100.417 30.6675C99.9066 30.2085 99.268 29.86 98.5103 29.6135C97.7525 29.367 96.884 29.248 95.9134 29.248H91.205V44.752H94.2616V39.822H96.2966L99.5746 44.752H103.142L99.5064 39.091C100 38.8105 100.434 38.4875 100.767 38.088H100.784ZM94.2702 32.189H96.4668C97.0032 32.189 97.429 32.2825 97.744 32.461C98.059 32.6395 98.2974 32.869 98.4507 33.1325C98.6039 33.396 98.7061 33.6595 98.7572 33.923C98.8083 34.1865 98.8338 34.399 98.8338 34.569C98.8338 34.79 98.7912 35.0365 98.7146 35.2915C98.638 35.555 98.5103 35.8015 98.3315 36.0395C98.1527 36.2775 97.9143 36.473 97.5992 36.626C97.2927 36.779 96.9011 36.8555 96.4413 36.8555H94.2702V32.1805V32.189Z" fill="white"/>
<path d="M132.108 29.2402V32.1897H135.735V44.7442H138.791V32.1897H142.572V29.2402H132.108Z" fill="white"/>
<path d="M124.998 28.6279L117.991 44.7439H121.005L122.274 41.7094H127.425L128.625 44.7439H132.167L125.16 28.6279H124.99H124.998ZM123.346 39.1424L124.922 35.3599L126.412 39.1424H123.346Z" fill="white"/>
<path d="M108.744 38.4457H115.411V35.4962H108.744V32.1897H116.28V29.2402H105.688V44.7442H116.578V41.7947H108.744V38.4457Z" fill="white"/>
<path d="M88.1228 57.6291L84.632 49.0186H81.5924L82.8184 52.0786L80.443 57.9861L77.3863 49.0186H73.8018L80.0513 65.1346L84.3595 55.9121L88.0462 65.0921L94.0403 49.0186H90.7452L88.1228 57.6291Z" fill="white"/>
<path d="M103.159 58.1225H109.826V55.173H103.159V51.8665H110.686V48.917H100.094V64.421H110.984V61.4715H103.159V58.1225Z" fill="white"/>
<path d="M132.15 48.917V51.8665H135.777V64.421H138.834V51.8665H142.614V48.917H132.15Z" fill="white"/>
<path d="M120.733 51.9515C121.116 51.688 121.635 51.552 122.291 51.552C122.827 51.552 123.398 51.654 124.011 51.8665C124.624 52.079 125.228 52.3425 125.816 52.6655L126.974 50.328C126.352 49.92 125.654 49.5715 124.87 49.274C124.087 48.9765 123.074 48.832 121.822 48.832C120.869 48.8745 120.026 49.087 119.294 49.478C118.561 49.8605 117.999 50.3875 117.591 51.0505C117.191 51.7135 116.986 52.487 116.986 53.388C116.986 54.136 117.122 54.765 117.395 55.275C117.667 55.785 118.025 56.2185 118.468 56.5585C118.91 56.907 119.387 57.196 119.89 57.434C120.392 57.672 120.886 57.8845 121.363 58.063C121.771 58.216 122.146 58.403 122.495 58.607C122.836 58.8195 123.117 59.049 123.321 59.304C123.525 59.559 123.627 59.8395 123.627 60.1455C123.627 60.596 123.508 60.9445 123.261 61.1995C123.014 61.4545 122.708 61.633 122.333 61.735C121.959 61.837 121.592 61.8965 121.226 61.8965C120.86 61.8965 120.46 61.837 120.026 61.7265C119.592 61.616 119.157 61.4545 118.732 61.2505C118.306 61.0465 117.906 60.8085 117.54 60.545L116.186 62.925C116.731 63.3075 117.301 63.6135 117.897 63.86C118.485 64.1065 119.089 64.285 119.702 64.404C120.315 64.523 120.911 64.5825 121.507 64.5825C122.657 64.5825 123.627 64.3785 124.419 63.962C125.211 63.5455 125.807 63.0015 126.216 62.33C126.624 61.6585 126.829 60.9275 126.829 60.137C126.829 59.389 126.727 58.7685 126.514 58.25C126.301 57.74 126.02 57.3065 125.671 56.9665C125.322 56.6265 124.922 56.3375 124.479 56.0995C124.036 55.87 123.585 55.666 123.142 55.496C122.648 55.3175 122.171 55.1135 121.72 54.884C121.26 54.663 120.886 54.3995 120.605 54.119C120.315 53.83 120.171 53.507 120.171 53.1415C120.171 52.606 120.358 52.2065 120.741 51.943L120.733 51.9515Z" fill="white"/>
<path d="M134.798 70.3715H136.433V75.803H137.267V70.3715H138.945V69.5724H134.798V70.3715ZM132.763 75.9985V69.5724H131.937L131.954 74.2474L132.15 74.29L127.374 69.3854H127.331V75.803H128.166L128.148 71.1789L127.91 71.1194L132.738 76.0069H132.763V75.9985ZM121.014 75.803H125.194V75.0039H121.856V73.0745H124.734V72.2754H121.856V70.38H125.075V69.581H121.014V75.8115V75.803ZM113.138 75.803V71.3065L112.993 71.6974L115.386 75.021H115.403L117.761 71.6974L117.71 71.2724V75.803H118.536V69.377H118.519L115.258 73.9414L115.615 74.0095L112.346 69.377H112.337V75.803H113.146H113.138ZM106.165 70.3715H107.799V75.803H108.634V70.3715H110.311V69.5724H106.165V70.3715ZM104.496 70.0485C104.257 69.904 103.985 69.785 103.678 69.683C103.372 69.5895 103.014 69.5384 102.614 69.5384C102.257 69.5469 101.942 69.6235 101.661 69.768C101.388 69.9125 101.167 70.0995 101.005 70.346C100.843 70.5925 100.767 70.8729 100.767 71.2044C100.767 71.4764 100.818 71.706 100.92 71.893C101.022 72.08 101.158 72.2415 101.337 72.369C101.516 72.4965 101.695 72.6069 101.899 72.7004C102.103 72.7854 102.299 72.8705 102.495 72.947C102.699 73.0235 102.895 73.117 103.082 73.219C103.27 73.321 103.414 73.44 103.525 73.5845C103.636 73.729 103.695 73.899 103.695 74.1115C103.695 74.358 103.636 74.5535 103.508 74.7065C103.38 74.8595 103.219 74.9699 103.031 75.038C102.836 75.1059 102.648 75.1485 102.452 75.1485C102.265 75.1485 102.078 75.1229 101.882 75.0634C101.686 75.0124 101.499 74.9359 101.32 74.8509C101.141 74.7659 100.979 74.6725 100.843 74.5705L100.469 75.225C100.639 75.3355 100.826 75.4375 101.039 75.5395C101.252 75.6415 101.482 75.718 101.737 75.786C101.993 75.854 102.248 75.8794 102.529 75.8794C102.946 75.8794 103.312 75.803 103.619 75.65C103.925 75.497 104.155 75.2845 104.326 75.0125C104.487 74.7405 104.572 74.4429 104.572 74.1199C104.572 73.8224 104.53 73.5675 104.436 73.372C104.351 73.168 104.223 72.998 104.07 72.862C103.917 72.726 103.747 72.6069 103.559 72.5134C103.372 72.4199 103.176 72.3349 102.98 72.2669C102.759 72.1819 102.538 72.0884 102.333 71.9949C102.129 71.9014 101.959 71.7825 101.831 71.6465C101.703 71.5105 101.644 71.349 101.644 71.1535C101.644 70.8985 101.746 70.686 101.942 70.533C102.137 70.38 102.41 70.3035 102.742 70.3035C102.98 70.3035 103.227 70.3459 103.483 70.4224C103.738 70.4989 103.968 70.601 104.181 70.703L104.504 70.0655L104.496 70.0485ZM94.6277 75.803H98.8083V75.0039H95.4707V73.0745H98.3485V72.2754H95.4707V70.38H98.6891V69.581H94.6277V75.8115V75.803ZM87.1863 69.5724L89.9279 76.0835L92.678 69.5724H91.6988L89.7491 74.63L90.2259 74.7235L88.1739 69.5724H87.1777H87.1863ZM85.245 75.9985V69.5724H84.4191L84.4361 74.2474L84.632 74.29L79.8555 69.3854H79.8129V75.803H80.6473L80.6303 71.1789L80.3919 71.1194L85.2195 76.0069H85.245V75.9985ZM76.4923 75.803H77.3267V69.5724H76.4923V75.803Z" fill="white"/>
</svg>
