<svg width="157" height="108" viewBox="0 0 157 108" fill="none" xmlns="http://www.w3.org/2000/svg">
<g clip-path="url(#clip0_419_340)">
<path d="M71.9957 56.997C71.9957 57.249 71.9957 57.375 72.0585 57.501C72.1213 57.627 72.1213 57.753 72.1841 57.816C71.8701 58.005 71.4933 58.131 71.1165 58.257C70.6769 58.383 70.3001 58.383 69.9233 58.32C69.3581 58.257 68.8557 58.131 68.4789 57.879C68.1021 57.627 67.7881 57.312 67.5369 56.934C67.2857 56.556 67.0345 56.178 66.7833 55.674C66.5949 55.233 66.3437 54.729 66.0925 54.225C65.8413 53.721 65.5273 53.217 65.2133 52.713C64.8365 52.209 64.4597 51.768 63.8945 51.327C63.5805 52.398 63.2665 53.469 63.0153 54.54C62.7641 55.611 62.6385 56.682 62.5757 57.69C62.5129 58.698 62.5129 59.643 62.6385 60.588C62.7641 61.47 62.9525 62.289 63.3293 63.045C62.5129 63.297 61.8221 63.36 61.1313 63.234C60.4405 63.108 59.8753 62.793 59.4357 62.352C58.9961 61.911 58.6193 61.344 58.4309 60.651C58.2425 59.958 58.1797 59.202 58.3681 58.446C58.6821 56.745 59.1217 55.17 59.5613 53.775C60.0637 52.389 60.5661 51.066 61.1313 49.869C60.5661 49.743 60.1265 49.743 59.7497 49.869C59.3729 49.995 59.2473 50.184 59.2473 50.436C59.1845 50.562 59.1845 50.688 59.1217 50.751C58.9961 51.003 58.7449 51.255 58.4309 51.381C58.1169 51.633 57.8029 51.633 57.4889 51.57C57.1749 51.507 56.9865 51.318 56.8609 51.066C56.7353 50.814 56.7981 50.562 56.9237 50.247C57.1121 49.869 57.3633 49.554 57.7401 49.239C58.1169 48.987 58.4937 48.735 58.9333 48.609C59.3729 48.483 59.8753 48.357 60.3777 48.357C60.8801 48.357 61.3825 48.357 61.8849 48.483C62.3873 47.601 63.0153 46.719 63.7689 45.774C64.4597 44.829 65.2761 43.947 66.2181 43.128C67.0973 42.309 68.1021 41.679 69.1697 41.112C70.2373 40.545 71.4305 40.23 72.6237 40.167H72.8121C73.0633 40.167 73.3773 40.167 73.6285 40.23C73.9425 40.293 74.1309 40.419 74.3821 40.545C74.5705 40.734 74.6961 40.986 74.8217 41.301C74.9473 41.616 74.8845 42.057 74.8217 42.561C74.3193 45.081 73.8797 47.358 73.5029 49.311C73.3145 50.13 73.1889 50.949 73.0005 51.768C72.8121 52.587 72.6865 53.28 72.5609 53.91C72.4353 54.54 72.3097 55.233 72.1213 55.989C71.9957 56.43 71.9957 56.745 71.9957 56.997ZM64.388 49.869C65.0788 50.436 65.7068 51.066 66.0836 51.633C66.5232 52.263 66.8372 52.83 67.1512 53.397C67.4024 53.964 67.6536 54.468 67.842 54.972C68.0304 55.476 68.2816 55.854 68.5328 56.169V56.043C68.7212 55.224 68.8468 54.468 68.9724 53.838C69.098 53.145 69.2236 52.452 69.412 51.57C69.6004 50.751 69.726 49.869 69.9144 48.987C70.354 46.908 70.7936 44.577 71.296 41.922C71.3588 41.544 71.296 41.355 71.1076 41.292C70.6052 41.292 70.04 41.544 69.4748 41.985C68.9096 42.426 68.2816 43.056 67.7164 43.812C67.1512 44.568 66.5232 45.513 65.958 46.521C65.3928 47.529 64.8904 48.663 64.388 49.86" fill="white"/>
<path d="M82.3667 54.2873C82.0527 55.1693 81.6759 55.9253 81.2363 56.4293C80.7967 56.9333 80.3571 57.3743 79.9175 57.6263C79.4779 57.8783 79.0383 58.0673 78.5359 58.1933C78.0963 58.2563 77.7195 58.3193 77.4055 58.3193C76.6519 58.3193 76.0239 58.1303 75.5215 57.6893C75.0191 57.2483 74.7051 56.6183 74.7051 55.6733V55.0433C74.7051 54.7913 74.7679 54.6023 74.7679 54.3503L77.0287 43.0643C77.0915 42.6233 76.9659 42.4343 76.7147 42.4343V42.5603C76.6519 42.6863 76.5891 42.8123 76.5263 42.8753C76.4007 42.9383 76.2751 43.0013 76.1495 43.0013C76.0239 43.0013 75.8983 42.9383 75.7727 42.8753C75.7099 42.8123 75.6471 42.6863 75.7099 42.5603C75.7727 42.3713 75.8355 42.1823 76.0239 41.9933C76.2123 41.8673 76.4635 41.7413 76.7147 41.6153C76.9659 41.4893 77.2799 41.4263 77.5311 41.4263C77.8451 41.3633 78.0963 41.3633 78.4103 41.3633C78.7243 41.3633 78.9755 41.3633 79.2267 41.4263C79.5407 41.4893 79.7291 41.6153 79.9803 41.7413C80.1687 41.9303 80.3571 42.1823 80.4199 42.4973C80.4827 42.8123 80.4827 43.2533 80.4199 43.7573L78.2219 54.9173C78.1591 55.2323 78.1591 55.4843 78.2219 55.6733C78.2847 55.8623 78.3475 55.9883 78.4103 56.1143C78.5359 56.2403 78.6615 56.3033 78.7871 56.3033C78.9755 56.3663 79.1011 56.3663 79.2895 56.3663C79.5407 56.3663 79.7291 56.3033 79.9803 56.1773C80.2315 56.0513 80.4199 55.9253 80.6083 55.6733C80.7967 55.4843 80.9851 55.2323 81.1107 54.9803C81.2363 54.7283 81.3619 54.4763 81.4875 54.1613H82.3667V54.2873Z" fill="white"/>
<path d="M105.746 59.58C105.935 59.454 106.06 59.328 106.186 59.328C106.311 59.265 106.437 59.328 106.437 59.328C106.5 59.391 106.5 59.454 106.437 59.58C106.374 59.706 106.249 59.832 106.06 59.958C105.997 60.021 105.872 60.084 105.683 60.21C105.495 60.336 105.307 60.399 105.055 60.525C104.804 60.651 104.553 60.777 104.302 60.903C104.051 61.029 103.737 61.092 103.485 61.155C103.171 61.281 102.795 61.344 102.481 61.407C102.104 61.47 101.79 61.47 101.413 61.533H100.408C100.094 61.47 99.7803 61.407 99.5291 61.344C98.7755 61.092 98.1475 60.777 97.6451 60.399C97.1427 60.021 96.7031 59.58 96.3263 59.013C95.9495 58.446 95.6355 57.816 95.3215 56.997C95.0075 56.241 94.7563 55.296 94.4423 54.225C94.3795 53.847 94.2539 53.469 94.1283 53.091C94.0027 52.713 93.8771 52.272 93.7515 51.894C93.6259 52.461 93.5003 53.028 93.4375 53.532C93.3747 54.036 93.2491 54.477 93.1863 54.855C93.1235 55.296 92.9979 55.737 92.9351 56.115C92.8723 56.493 92.8095 56.808 92.8095 57.06C92.8095 57.312 92.8095 57.438 92.8723 57.564C92.9351 57.69 92.9351 57.816 93.0607 57.879C92.6839 58.131 92.2443 58.257 91.8047 58.383C91.3651 58.509 90.9255 58.446 90.5487 58.383C90.1719 58.257 89.8579 58.068 89.6695 57.69C89.4811 57.312 89.4183 56.808 89.5439 56.178C89.6695 55.422 89.7951 54.792 89.9207 54.162C90.0463 53.595 90.1719 52.902 90.2975 52.146C90.4231 51.39 90.6115 50.634 90.7371 49.878L91.9931 43.632C92.0559 43.191 91.9303 43.002 91.6791 43.002V43.128C91.6163 43.254 91.5535 43.38 91.4907 43.443C91.3651 43.506 91.2395 43.569 91.1139 43.569C90.9883 43.569 90.8627 43.506 90.7371 43.443C90.6115 43.38 90.6115 43.254 90.6743 43.128C90.7371 42.939 90.7999 42.75 90.9883 42.561C91.1767 42.435 91.4279 42.309 91.6791 42.183C91.9303 42.057 92.2443 41.994 92.5583 41.994C92.8723 41.931 93.1235 41.931 93.4375 41.931C93.6887 41.931 94.0027 41.931 94.2539 41.994C94.5051 42.057 94.7563 42.183 95.0075 42.309C95.1959 42.498 95.3843 42.75 95.4471 43.065C95.5099 43.38 95.5099 43.821 95.4471 44.325C95.3215 45.018 95.1959 45.711 95.0703 46.404C94.9447 47.034 94.8191 47.727 94.6307 48.483C94.5051 49.239 94.3167 50.058 94.1911 50.814C95.0075 50.814 95.6983 50.688 96.2635 50.373C96.8287 50.121 97.3311 49.743 97.7707 49.365C98.1475 48.924 98.4615 48.483 98.7127 47.979C98.9639 47.475 99.0895 46.971 99.2151 46.53C99.3407 45.963 99.3407 45.396 99.2779 44.766C99.2151 44.136 98.9639 43.569 98.6499 43.065C98.2731 42.561 97.7707 42.12 97.1427 41.742C96.4519 41.427 95.6355 41.238 94.5051 41.238C93.3119 41.238 92.3071 41.364 91.4907 41.679C90.6743 41.994 89.9835 42.372 89.4183 42.75C88.9159 43.128 88.4763 43.569 88.2879 43.947C88.0367 44.325 87.9111 44.577 87.9111 44.766C87.9111 44.829 87.9111 44.892 87.9739 44.955C88.0367 45.018 88.0995 45.081 88.1623 45.081C88.2251 45.144 88.2879 45.144 88.4135 45.207C88.4763 45.27 88.5391 45.333 88.6019 45.396C88.6019 45.459 88.6647 45.459 88.6647 45.522C88.6647 45.585 88.7275 45.648 88.7275 45.648C88.7903 45.9 88.7275 46.152 88.6019 46.404C88.4135 46.656 88.2251 46.845 87.9111 46.971C87.5971 47.097 87.3459 47.097 87.0319 46.971C86.7807 46.845 86.5923 46.719 86.5295 46.404C86.4667 45.9 86.5295 45.333 86.8435 44.64C87.1575 43.947 87.6599 43.254 88.3507 42.561C89.0415 41.931 89.9207 41.364 90.9883 40.86C92.0559 40.419 93.3747 40.167 94.8191 40.167C95.9495 40.167 97.0171 40.293 98.0219 40.608C99.0267 40.86 99.8431 41.301 100.534 41.805C101.225 42.309 101.727 43.002 102.041 43.758C102.355 44.514 102.418 45.459 102.229 46.467C102.167 46.908 101.978 47.349 101.727 47.79C101.476 48.231 101.162 48.672 100.722 49.113C100.283 49.554 99.8431 49.932 99.2779 50.247C98.7127 50.625 98.0847 50.877 97.3939 51.129C97.5195 51.696 97.7079 52.263 97.8335 52.767C98.0219 53.271 98.1475 53.775 98.3359 54.279C98.7127 55.539 99.2151 56.547 99.7803 57.366C100.345 58.185 100.973 58.752 101.664 59.193C102.355 59.634 103.046 59.823 103.799 59.886C104.239 59.949 104.993 59.823 105.746 59.571" fill="white"/>
<path d="M115.373 54.2875C115.059 55.1695 114.682 55.9255 114.242 56.4295C113.803 56.9335 113.363 57.3745 112.923 57.6265C112.484 57.8785 112.044 58.0675 111.542 58.1935C111.102 58.2565 110.725 58.3195 110.411 58.3195C109.783 58.3195 109.281 58.1935 108.779 57.8785C108.339 57.6265 107.962 57.1855 107.837 56.5555C107.46 57.0595 106.957 57.4375 106.392 57.7525C105.764 58.0675 105.136 58.2565 104.508 58.2565C103.817 58.2565 103.252 58.1305 102.75 57.8155C102.247 57.5005 101.933 57.1225 101.682 56.5555C101.431 56.0515 101.305 55.4215 101.305 54.7285C101.305 54.0355 101.368 53.2795 101.619 52.5235C101.808 51.7045 102.122 51.0115 102.561 50.2555C103.001 49.5625 103.441 48.9325 104.006 48.4285C104.571 47.9245 105.136 47.4835 105.764 47.1685C106.392 46.8535 107.083 46.7275 107.774 46.7275C108.213 46.7275 108.527 46.8535 108.779 47.0425C109.03 47.2315 109.218 47.4835 109.407 47.7985C109.658 47.4835 109.909 47.2315 110.286 47.0425C110.6 46.8535 110.977 46.7905 111.353 46.7905C111.73 46.7905 112.044 46.7905 112.358 46.9165C112.672 47.0425 112.986 47.1685 113.175 47.3575C113.112 47.4205 112.986 47.4835 112.923 47.6725C112.861 47.7985 112.735 47.9875 112.672 48.1765C112.609 48.4285 112.484 48.7435 112.421 49.1215C112.421 49.1845 112.358 49.3105 112.295 49.5625C112.233 49.8145 112.17 50.1925 112.107 50.6335C112.044 51.0745 111.919 51.5155 111.856 51.9565C111.793 52.4605 111.667 52.9015 111.605 53.3425C111.542 53.7835 111.416 54.1615 111.353 54.4135C111.291 54.7285 111.291 54.8545 111.291 54.9175C111.228 55.2325 111.228 55.4845 111.291 55.6735C111.353 55.8625 111.416 55.9885 111.479 56.1145C111.605 56.2405 111.73 56.3035 111.856 56.3035C111.981 56.3665 112.17 56.3665 112.358 56.3665C112.609 56.3665 112.798 56.3035 113.049 56.1775C113.3 56.0515 113.489 55.9255 113.677 55.6735C113.865 55.4845 114.054 55.2325 114.179 54.9805C114.305 54.7285 114.431 54.4765 114.556 54.1615H115.373V54.2875ZM105.809 56.4925C106.123 56.4925 106.437 56.4295 106.625 56.2405C106.877 56.0515 107.065 55.8625 107.253 55.6105C107.442 55.3585 107.567 55.1065 107.63 54.7915C107.756 54.5395 107.819 54.2875 107.819 54.0985C107.881 53.9095 107.881 53.5945 108.007 53.2165C108.07 52.8385 108.133 52.4605 108.258 52.0825C108.321 51.6415 108.447 51.2635 108.509 50.8855C108.572 50.5075 108.635 50.1295 108.698 49.8775C108.761 49.4365 108.761 49.1215 108.698 48.9325C108.635 48.7435 108.447 48.6175 108.133 48.6175C107.819 48.6175 107.505 48.7435 107.191 48.9325C106.877 49.1215 106.625 49.4365 106.374 49.8145C106.123 50.1925 105.872 50.6335 105.683 51.1375C105.432 51.6415 105.244 52.1455 105.118 52.6495C104.93 53.1535 104.867 53.6575 104.804 54.1615C104.741 54.6025 104.741 55.0435 104.804 55.3585C104.867 55.7365 104.993 55.9885 105.181 56.1775C105.244 56.3665 105.495 56.4925 105.809 56.4925Z" fill="white"/>
<path d="M121.841 54.2873C121.527 55.1693 121.15 55.9253 120.711 56.4293C120.271 56.9333 119.831 57.3743 119.392 57.6263C118.952 57.8783 118.513 58.0673 118.01 58.1933C117.571 58.2563 117.194 58.3193 116.88 58.3193C116.126 58.3193 115.498 58.1303 114.996 57.6893C114.493 57.2483 114.179 56.6183 114.179 55.6733V55.0433C114.179 54.7913 114.242 54.6023 114.242 54.3503C114.431 53.4053 114.619 52.5233 114.745 51.7673C114.807 51.4523 114.87 51.1373 114.933 50.8223C114.996 50.5073 115.059 50.2553 115.121 50.0033C115.184 49.7513 115.184 49.5623 115.247 49.3733C115.31 49.1843 115.31 49.1213 115.31 49.1213C115.435 48.4283 115.687 47.9243 116.063 47.6093C116.44 47.2313 116.817 47.0423 117.257 46.9163C117.696 46.7903 118.136 46.7903 118.575 46.9163C119.015 47.0423 119.392 47.1683 119.706 47.4203C119.643 47.4833 119.517 47.5463 119.455 47.7353C119.392 47.8613 119.266 48.0503 119.203 48.2393C119.141 48.4913 119.015 48.8063 118.952 49.1843C118.952 49.2473 118.889 49.3733 118.889 49.6253C118.827 49.8773 118.764 50.2553 118.701 50.6963C118.638 51.1373 118.513 51.5783 118.45 52.0193C118.387 52.5233 118.261 52.9643 118.199 53.4053C118.136 53.8463 118.01 54.2243 117.947 54.4763C117.885 54.7913 117.885 54.9173 117.885 54.9803C117.822 55.2953 117.822 55.5473 117.885 55.7363C117.947 55.9253 118.01 56.0513 118.073 56.1773C118.199 56.3033 118.324 56.3663 118.45 56.3663C118.575 56.4293 118.764 56.4293 118.952 56.4293C119.203 56.4293 119.392 56.3663 119.643 56.2403C119.894 56.1143 120.083 55.9883 120.271 55.7363C120.459 55.5473 120.648 55.2953 120.773 55.0433C120.899 54.7913 121.025 54.5393 121.15 54.2243L121.841 54.2873ZM119.455 43.0553C119.203 42.7403 118.827 42.6143 118.324 42.6143C117.822 42.6143 117.382 42.7403 117.005 43.0553C116.629 43.3703 116.377 43.7483 116.252 44.1893C116.189 44.6303 116.252 45.0083 116.566 45.3233C116.88 45.6383 117.257 45.7643 117.696 45.7643C118.199 45.7643 118.638 45.6383 119.015 45.3233C119.392 45.0083 119.643 44.6303 119.769 44.1893C119.831 43.7483 119.706 43.3703 119.455 43.0553Z" fill="white"/>
<path d="M135.361 54.225C135.173 54.918 134.859 55.548 134.419 56.052C134.042 56.493 133.477 56.934 132.786 57.312C132.095 57.69 131.153 57.879 130.023 57.879C129.96 58.005 129.96 58.131 129.96 58.194C129.96 58.257 129.96 58.383 129.897 58.446C129.897 58.509 129.835 58.572 129.835 58.635C130.337 58.761 130.777 58.887 131.153 59.139C131.53 59.391 131.844 59.643 132.033 60.021C132.284 60.336 132.409 60.714 132.472 61.155C132.535 61.596 132.535 62.037 132.472 62.478C132.409 62.856 132.284 63.171 132.033 63.486C131.844 63.801 131.53 64.053 131.279 64.305C130.965 64.557 130.651 64.683 130.274 64.872C129.897 64.998 129.521 65.061 129.144 65.061C128.767 65.061 128.39 64.998 128.013 64.935C127.637 64.809 127.26 64.683 126.946 64.431C126.632 64.242 126.381 63.927 126.129 63.612C125.878 63.297 125.753 62.856 125.753 62.415V61.785C125.753 61.596 125.815 61.344 125.878 61.092C125.941 60.651 126.067 60.21 126.129 59.769C126.192 59.391 126.255 59.013 126.381 58.572C126.443 58.131 126.569 57.69 126.632 57.312C126.255 57.627 125.815 57.879 125.376 58.131C124.936 58.32 124.434 58.446 123.869 58.446C123.178 58.446 122.613 58.32 122.11 58.005C121.608 57.69 121.294 57.312 121.043 56.745C120.791 56.241 120.666 55.611 120.666 54.918C120.666 54.225 120.729 53.469 120.98 52.713C121.168 51.894 121.482 51.201 121.922 50.445C122.361 49.752 122.801 49.122 123.366 48.618C123.931 48.114 124.497 47.673 125.125 47.358C125.753 47.043 126.443 46.917 127.134 46.917C127.574 46.917 127.888 47.043 128.139 47.232C128.39 47.421 128.579 47.673 128.767 47.988C129.018 47.673 129.269 47.421 129.646 47.232C129.96 47.043 130.337 46.98 130.651 46.98C131.028 46.98 131.342 46.98 131.656 47.106C131.97 47.232 132.284 47.358 132.472 47.547C132.409 47.61 132.284 47.673 132.221 47.862C132.158 47.988 132.033 48.177 131.97 48.366C131.907 48.618 131.781 48.933 131.719 49.311C131.719 49.374 131.656 49.689 131.53 50.193C131.405 50.697 131.279 51.327 131.153 52.083C131.028 52.839 130.839 53.658 130.651 54.54C130.463 55.422 130.274 56.304 130.149 57.123C131.028 57.123 131.781 56.997 132.284 56.745C132.849 56.493 133.226 56.241 133.54 55.926C133.854 55.611 134.042 55.296 134.168 55.044C134.293 54.729 134.356 54.54 134.419 54.414L135.361 54.225ZM125.178 56.493C125.492 56.493 125.744 56.43 125.932 56.241C126.183 56.115 126.372 55.863 126.497 55.674C126.686 55.422 126.811 55.17 126.874 54.918C127 54.666 127.062 54.414 127.125 54.225C127.188 53.784 127.314 53.28 127.376 52.839C127.502 52.398 127.565 51.957 127.628 51.516C127.69 51.075 127.753 50.76 127.816 50.382C127.879 50.067 127.942 49.752 128.004 49.563C128.067 49.185 128.004 48.933 127.942 48.807C127.879 48.618 127.69 48.555 127.376 48.555C127.062 48.555 126.748 48.681 126.434 48.87C126.12 49.059 125.869 49.374 125.618 49.752C125.367 50.13 125.116 50.571 124.927 51.075C124.676 51.579 124.488 52.083 124.362 52.587C124.174 53.091 124.111 53.595 124.048 54.099C123.985 54.54 123.985 54.981 124.048 55.296C124.111 55.674 124.236 55.926 124.425 56.115C124.613 56.367 124.864 56.493 125.178 56.493ZM130.328 63.243C130.642 63.117 130.893 62.865 131.019 62.487C131.144 62.109 131.144 61.731 131.082 61.353C131.019 60.975 130.83 60.597 130.579 60.282C130.328 59.967 130.014 59.778 129.637 59.778L129.26 61.668C129.135 62.298 129.198 62.739 129.449 63.054C129.7 63.306 129.951 63.369 130.328 63.243Z" fill="white"/>
<path d="M148.432 54.2875C148.118 55.1695 147.742 55.9255 147.302 56.4295C146.862 56.9335 146.423 57.3745 145.983 57.6265C145.544 57.8785 145.104 58.0675 144.602 58.1935C144.162 58.2565 143.785 58.3195 143.471 58.3195C142.843 58.3195 142.341 58.1935 141.838 57.8785C141.399 57.6265 141.022 57.1855 140.896 56.5555C140.52 57.0595 140.017 57.4375 139.452 57.7525C138.824 58.0675 138.196 58.2565 137.568 58.2565C136.877 58.2565 136.312 58.1305 135.81 57.8155C135.307 57.5005 134.993 57.1225 134.742 56.5555C134.491 56.0515 134.365 55.4215 134.365 54.7285C134.365 54.0355 134.428 53.2795 134.679 52.5235C134.868 51.7045 135.182 51.0115 135.621 50.2555C136.061 49.5625 136.5 48.9325 137.066 48.4285C137.631 47.9245 138.196 47.4835 138.824 47.1685C139.452 46.8535 140.143 46.7275 140.834 46.7275C141.273 46.7275 141.587 46.8535 141.838 47.0425C142.09 47.2315 142.278 47.4835 142.466 47.7985C142.718 47.4835 142.969 47.2315 143.346 47.0425C143.66 46.8535 144.036 46.7905 144.413 46.7905C144.79 46.7905 145.104 46.7905 145.418 46.9165C145.732 47.0425 146.046 47.1685 146.234 47.3575C146.172 47.4205 146.046 47.4835 145.983 47.6725C145.92 47.7985 145.795 47.9875 145.732 48.1765C145.669 48.4285 145.544 48.7435 145.481 49.1215C145.481 49.1845 145.418 49.3105 145.355 49.5625C145.292 49.8145 145.23 50.1925 145.167 50.6335C145.104 51.0745 144.978 51.5155 144.916 51.9565C144.853 52.4605 144.727 52.9015 144.664 53.3425C144.602 53.7835 144.476 54.1615 144.413 54.4135C144.35 54.7285 144.35 54.8545 144.35 54.9175C144.288 55.2325 144.288 55.4845 144.35 55.6735C144.413 55.8625 144.476 55.9885 144.539 56.1145C144.664 56.2405 144.79 56.3035 144.916 56.3035C145.041 56.3665 145.23 56.3665 145.418 56.3665C145.669 56.3665 145.858 56.3035 146.109 56.1775C146.36 56.0515 146.548 55.9255 146.737 55.6735C146.925 55.4845 147.114 55.2325 147.239 54.9805C147.365 54.7285 147.49 54.4765 147.616 54.1615H148.432V54.2875ZM138.878 56.4925C139.192 56.4925 139.506 56.4295 139.694 56.2405C139.945 56.0515 140.134 55.8625 140.322 55.6105C140.511 55.3585 140.636 55.1065 140.699 54.7915C140.825 54.5395 140.887 54.2875 140.887 54.0985C140.95 53.9095 140.95 53.5945 141.076 53.2165C141.139 52.8385 141.201 52.4605 141.327 52.0825C141.39 51.6415 141.515 51.2635 141.578 50.8855C141.641 50.5075 141.704 50.1295 141.767 49.8775C141.829 49.4365 141.829 49.1215 141.767 48.9325C141.704 48.7435 141.515 48.6175 141.201 48.6175C140.887 48.6175 140.573 48.7435 140.259 48.9325C139.945 49.1215 139.694 49.4365 139.443 49.8145C139.192 50.1925 138.941 50.6335 138.752 51.1375C138.501 51.6415 138.313 52.1455 138.187 52.6495C137.999 53.1535 137.936 53.6575 137.873 54.1615C137.81 54.6025 137.81 55.0435 137.873 55.3585C137.936 55.7365 138.061 55.9885 138.25 56.1775C138.313 56.3665 138.564 56.4925 138.878 56.4925Z" fill="white"/>
<path d="M22.9579 56.8075C22.9579 57.1225 22.7067 57.3745 22.3927 57.3745C22.0787 57.3745 21.8275 57.1225 21.8275 56.8075C21.8275 56.4925 22.0787 56.2405 22.3927 56.2405C22.7067 56.1775 22.9579 56.4925 22.9579 56.8075Z" fill="white"/>
<path d="M22.5811 58.2565C22.5811 58.5715 22.3299 58.8235 22.0159 58.8235C21.7019 58.8235 21.4507 58.5715 21.4507 58.2565C21.4507 57.9415 21.7019 57.6895 22.0159 57.6895C22.3299 57.6895 22.5811 57.9415 22.5811 58.2565Z" fill="white"/>
<path d="M22.3927 59.8317C22.3927 60.1467 22.1415 60.3987 21.8275 60.3987C21.5135 60.3987 21.2623 60.1467 21.2623 59.8317C21.2623 59.5167 21.5135 59.2646 21.8275 59.2646C22.1415 59.2646 22.3927 59.5167 22.3927 59.8317Z" fill="white"/>
<path d="M22.3927 61.4068C22.3927 61.7218 22.1415 61.9738 21.8275 61.9738C21.5135 61.9738 21.2623 61.7218 21.2623 61.4068C21.2623 61.0918 21.5135 60.8398 21.8275 60.8398C22.1415 60.8398 22.3927 61.0918 22.3927 61.4068Z" fill="white"/>
<path d="M22.4555 62.9819C22.4555 63.2969 22.2043 63.5489 21.8903 63.5489C21.5763 63.5489 21.3251 63.2969 21.3251 62.9819C21.3251 62.6669 21.5763 62.4149 21.8903 62.4149C22.2043 62.3519 22.4555 62.6039 22.4555 62.9819Z" fill="white"/>
<path d="M35.9126 56.8075C35.9126 57.1225 36.1638 57.3745 36.4778 57.3745C36.7918 57.3745 37.043 57.1225 37.043 56.8075C37.043 56.4925 36.7918 56.2405 36.4778 56.2405C36.1638 56.1775 35.9126 56.4925 35.9126 56.8075Z" fill="white"/>
<path d="M36.2894 58.2565C36.2894 58.5715 36.5406 58.8235 36.8546 58.8235C37.1686 58.8235 37.4198 58.5715 37.4198 58.2565C37.4198 57.9415 37.1686 57.6895 36.8546 57.6895C36.5406 57.6895 36.2894 57.9415 36.2894 58.2565Z" fill="white"/>
<path d="M36.4778 59.8317C36.4778 60.1467 36.729 60.3987 37.043 60.3987C37.357 60.3987 37.6082 60.1467 37.6082 59.8317C37.6082 59.5167 37.357 59.2646 37.043 59.2646C36.729 59.2646 36.4778 59.5167 36.4778 59.8317Z" fill="white"/>
<path d="M36.4778 61.4068C36.4778 61.7218 36.729 61.9738 37.043 61.9738C37.357 61.9738 37.6082 61.7218 37.6082 61.4068C37.6082 61.0918 37.357 60.8398 37.043 60.8398C36.729 60.8398 36.4778 61.0918 36.4778 61.4068Z" fill="white"/>
<path d="M36.415 62.9819C36.415 63.2969 36.6662 63.5489 36.9802 63.5489C37.2942 63.5489 37.5454 63.2969 37.5454 62.9819C37.5454 62.6669 37.2942 62.4149 36.9802 62.4149C36.6662 62.3519 36.415 62.6039 36.415 62.9819Z" fill="white"/>
<path d="M11.1425 48.2938C13.5917 45.8998 16.9291 44.4508 20.5715 44.4508C23.3347 44.4508 25.9185 45.2698 28.0537 46.7188C28.3677 46.9078 28.6189 47.0968 28.8701 47.2858C29.2469 47.6008 29.4353 47.7268 29.4981 47.8528C29.9377 47.4748 30.5657 47.0338 31.0053 46.7818C31.0681 46.7188 31.1309 46.7188 31.1937 46.6558C31.3821 46.5298 31.5077 46.4668 31.5077 46.4668C33.5173 45.3328 35.7781 44.6398 38.299 44.6398C41.8786 44.6398 45.1532 46.0888 47.6024 48.3568C44.7764 44.9548 42.1926 43.3078 37.4826 43.3078C34.217 43.3078 32.0101 43.8748 29.4981 45.5758C26.9861 43.7488 24.5907 43.1188 21.2623 43.1188C16.4805 43.0558 13.9685 44.8198 11.1425 48.2938Z" fill="white"/>
<path d="M12.5241 46.3403L12.6497 46.4033C12.6497 46.3403 12.7125 46.2773 12.7125 46.2773C12.7125 46.2773 12.5869 46.2773 12.5241 46.3403Z" fill="white"/>
<path d="M13.7173 44.5046C16.9829 39.0146 22.8951 35.6126 29.3096 35.6126C35.7242 35.6126 41.8158 39.1406 45.0904 44.6936C45.844 45.0086 46.5348 45.3866 47.2256 45.8276H47.2884C44.0856 38.7626 37.043 34.2266 29.3096 34.2266C21.5763 34.2266 14.5965 38.7626 11.3937 45.7646C12.0845 45.2606 12.9009 44.8196 13.7173 44.5046Z" fill="white"/>
<path d="M45.9696 46.3408C45.9696 46.3408 45.9696 46.4038 46.0324 46.4038L46.0952 46.3408H45.9696Z" fill="white"/>
<path d="M46.3464 48.2304C44.0228 46.7814 41.1878 45.8994 38.2362 45.8994C34.9706 45.8994 31.9473 46.9074 29.4353 48.6714C26.9233 46.8444 23.8371 45.7734 20.5087 45.7734C17.8083 45.7734 15.2245 46.4664 13.0265 47.7264H12.9637C8.88172 50.4354 8.56772 54.6654 8.56772 54.6654C10.4517 53.6574 12.6497 53.0274 14.9823 53.0274C18.3107 53.0274 21.3341 54.2244 23.7205 56.2404C23.1553 57.8154 22.9041 59.5164 22.9041 61.2894V70.3704C23.4693 70.6224 24.0973 70.8114 24.7253 70.9374V61.2894C24.7253 60.0294 24.9137 58.8324 25.2277 57.6984C25.6673 58.2024 26.0441 58.7064 26.4209 59.2734C25.9813 60.7224 25.7301 62.2344 25.7301 63.8724V71.2524C26.2953 71.3784 26.9233 71.4414 27.5513 71.5044V63.8094C27.5513 63.1164 27.6141 62.4234 27.7397 61.7304C28.3049 63.2424 28.6817 64.9434 28.6817 66.6534V71.5764H29.4353C29.8121 71.5764 30.1261 71.5764 30.5029 71.5134V66.6534C30.5029 64.9524 30.8169 63.2514 31.4449 61.7304C31.5705 62.4234 31.5705 63.1164 31.5705 63.8094V71.4414C32.1985 71.3784 32.7637 71.2524 33.3917 71.1264V63.8724C33.3917 62.2974 33.1405 60.7224 32.7009 59.2734C33.0149 58.7694 33.3917 58.2654 33.7685 57.8244C34.0197 58.8954 34.2081 60.0294 34.2081 61.1634V70.9374C34.8361 70.7484 35.4013 70.5594 36.0293 70.3704V61.1634C36.0293 59.4624 35.7781 57.8874 35.2757 56.3664C37.6621 54.3504 40.7482 53.0904 44.0766 53.0904C46.2746 53.0904 48.2842 53.5944 50.1144 54.5394C50.1144 54.6024 50.1772 54.6024 50.1772 54.6654C50.0516 54.1614 49.612 50.6334 46.3464 48.2304ZM38.2362 47.7264C39.869 47.7264 41.439 48.0414 42.8924 48.5454C42.2644 48.4824 41.6364 48.4194 41.0084 48.4194C37.7428 48.4194 34.6566 49.4274 32.2074 51.1914C31.8306 50.6874 31.391 50.2464 30.8886 49.8054C33.0866 48.4824 35.6076 47.7264 38.2452 47.7264M29.4353 50.9394C29.9377 51.3804 30.3773 51.8214 30.8169 52.3254C30.3145 52.7664 29.8749 53.2074 29.4353 53.7114C28.9957 53.2074 28.5561 52.7664 28.0537 52.3254C28.4933 51.8214 28.9957 51.3804 29.4353 50.9394ZM20.5087 47.6004C23.2719 47.6004 25.8557 48.4194 27.9909 49.8684C27.4885 50.3094 27.0489 50.7504 26.6721 51.2544C24.1601 49.4904 21.1367 48.4824 17.9339 48.4824C16.9919 48.4824 16.0499 48.5454 15.1707 48.7344C16.8035 47.9784 18.6247 47.6004 20.5177 47.6004M24.4741 54.5394C21.8365 52.5234 18.5619 51.2634 15.0451 51.2634C14.1031 51.2634 13.1611 51.3264 12.2819 51.5154C14.0403 50.6964 15.9243 50.2554 17.9429 50.2554C20.7689 50.2554 23.4154 51.1374 25.6134 52.6494C25.1738 53.2164 24.797 53.8464 24.483 54.5394M27.1745 57.2484C26.7977 56.7444 26.3581 56.2404 25.8557 55.7994C26.1697 55.1064 26.5465 54.4134 26.9861 53.7834C27.4885 54.2244 27.9281 54.7284 28.3677 55.2324C27.8653 55.8624 27.4885 56.5554 27.1745 57.2484ZM29.4981 61.4694C29.1841 60.5874 28.8073 59.7684 28.3677 59.0124C28.6817 58.1934 29.0585 57.4374 29.4981 56.7444C29.9377 57.5004 30.3145 58.2564 30.6285 59.0754C30.1889 59.8314 29.8121 60.6504 29.4981 61.4694ZM31.8217 57.2484C31.4449 56.4924 31.0681 55.7994 30.6285 55.1694C31.0053 54.6654 31.4449 54.2244 31.9473 53.7834C32.3869 54.4134 32.7637 55.1064 33.0777 55.8624C32.5753 56.3034 32.1985 56.8074 31.8217 57.2484ZM43.96 51.2544C40.3804 51.2544 37.043 52.5144 34.4054 54.5934C34.0914 53.9004 33.7146 53.2704 33.275 52.6404C35.473 51.1284 38.1196 50.1834 41.0084 50.1834C43.0808 50.1834 45.0904 50.6874 46.8578 51.5064C45.9786 51.3804 44.9738 51.2544 43.969 51.2544" fill="white"/>
<path d="M47.728 55.0439H47.6024C47.0372 64.7549 39.0526 72.3239 29.3725 72.3239C19.6923 72.3239 11.7077 64.7549 11.1425 55.1069C10.6401 55.2329 10.2005 55.4219 9.76093 55.6109C10.5773 65.8259 19.1271 73.7729 29.3725 73.7729C39.6178 73.7729 48.2304 65.7629 48.984 55.5479C48.5444 55.2959 48.1676 55.1699 47.728 55.0439Z" fill="white"/>
<path d="M62.3784 72.1253L63.132 66.6983C63.8856 66.6353 64.6392 66.5723 65.3928 66.5723C66.272 66.5723 66.8372 66.7613 67.214 67.1393C67.5908 67.5173 67.7164 68.0843 67.7164 68.7773C67.7164 69.0923 67.7164 69.4073 67.6536 69.7223C67.5908 70.0373 67.528 70.3523 67.3396 70.6673C67.214 70.9823 67.0256 71.2343 66.7744 71.4863C66.5232 71.7383 66.272 71.9273 65.8952 72.0533C65.5184 72.1793 65.0788 72.3053 64.5764 72.3053C63.76 72.2423 63.0692 72.1793 62.3784 72.1163V72.1253ZM64.388 67.6523L63.8856 71.1803H65.016C65.2044 71.1803 65.33 71.1173 65.5184 71.0543C65.7068 70.9913 65.8324 70.8653 65.8952 70.7393C66.0208 70.6133 66.0836 70.4243 66.1464 70.2353C66.2092 70.0463 66.272 69.7313 66.3348 69.4163C66.3976 69.1643 66.3976 68.9123 66.3976 68.7233C66.3976 68.2823 66.3348 68.0303 66.1464 67.8413C65.958 67.6523 65.7068 67.5893 65.33 67.5893H64.388V67.6523Z" fill="white"/>
<path d="M71.9329 71.0538H69.9233L69.4209 72.1878H68.0393L70.8025 66.6348H72.4353L73.6285 72.1878H72.2469L71.9329 71.0538ZM71.3677 67.8408L70.3629 70.1088H71.8073L71.3677 67.8408Z" fill="white"/>
<path d="M77.1453 67.7155L76.5173 72.1885H75.1357L75.7637 67.7155H74.1937L74.3193 66.6445H78.8409L78.7153 67.7155H77.1453Z" fill="white"/>
<path d="M83.7483 67.7148H81.1107L80.9851 68.7858H83.4971L83.3715 69.8568H80.8595L80.6711 71.1168H83.4343L83.3087 72.1878H79.1639L79.9175 66.6348H83.8739L83.7483 67.7058V67.7148Z" fill="white"/>
<path d="M88.9697 66.7071C88.9697 66.8961 88.9069 67.2111 88.8441 67.6521H86.9601C86.7717 67.6521 86.5833 67.7151 86.4577 67.7781C86.3321 67.8411 86.2693 67.9671 86.2693 68.1561C86.2693 68.2821 86.3321 68.4081 86.5205 68.4711C86.7089 68.5971 86.8973 68.6601 87.1485 68.7861L87.9021 69.1641C88.1533 69.2901 88.3417 69.4791 88.5301 69.6681C88.7185 69.9201 88.7813 70.1721 88.7813 70.4241C88.7813 71.6211 87.9649 72.2511 86.3321 72.2511C85.5785 72.2511 84.9505 72.1881 84.3853 72.0621C84.4481 71.4951 84.5109 71.1801 84.5109 71.1171H86.5833C86.8345 71.1171 87.0229 71.0541 87.1485 70.9911C87.2741 70.9281 87.3997 70.7391 87.3997 70.4871C87.3997 70.3611 87.3369 70.1721 87.1485 70.0461C86.9601 69.9201 86.7717 69.7941 86.5205 69.7311C86.2693 69.6051 86.0181 69.5421 85.7669 69.4161C85.5157 69.2901 85.3273 69.1641 85.1389 68.9121C84.9505 68.7231 84.8877 68.4711 84.8877 68.2191C84.8877 67.9671 84.9505 67.7151 85.0133 67.5261C85.0761 67.3371 85.2017 67.1481 85.3273 67.0221C85.4529 66.8961 85.6413 66.7701 85.8297 66.7071C86.0181 66.6441 86.2065 66.5811 86.3949 66.5181C86.5833 66.4551 86.7717 66.4551 87.0229 66.4551C87.6509 66.5181 88.3417 66.5811 88.9697 66.7071Z" fill="white"/>
<path d="M94.2449 67.7152L94.0565 68.9752H96.5057L96.3801 70.0462H93.9309C93.8053 70.9912 93.6797 71.6842 93.6169 72.2512H92.2353L92.9889 66.6982H97.0081L96.8825 67.7692H94.2449V67.7062V67.7152Z" fill="white"/>
<path d="M100.597 71.0543H98.5871L98.0847 72.1253H96.7031L99.4663 66.5723H101.099L102.292 72.1253H100.848L100.597 71.0543ZM100.031 67.8413L99.0267 70.1093H100.471L100.031 67.8413Z" fill="white"/>
<path d="M104.616 70.0466C104.553 70.4876 104.616 70.8025 104.741 70.9285C104.867 71.0545 105.181 71.1805 105.621 71.1805H107.128L107.002 72.0626C106.437 72.1886 105.746 72.2516 105.055 72.2516C104.867 72.2516 104.679 72.2516 104.49 72.1886C104.302 72.1256 104.176 72.1256 103.988 72.0626C103.862 71.9996 103.737 71.8736 103.611 71.7476C103.548 71.6216 103.423 71.4326 103.36 71.2436C103.297 71.0546 103.234 70.8026 103.234 70.5506C103.234 70.2986 103.234 69.9205 103.297 69.5425C103.36 69.0385 103.423 68.5976 103.548 68.2196C103.674 67.8416 103.799 67.5266 103.988 67.3376C104.176 67.1486 104.365 66.9596 104.553 66.8336C104.804 66.7076 104.993 66.6446 105.244 66.5816C105.432 66.5186 105.683 66.5186 105.997 66.5186C106.563 66.5186 107.128 66.5816 107.693 66.7076L107.567 67.6525H106.123C105.683 67.6525 105.369 67.7155 105.181 67.9045C104.993 68.0935 104.867 68.4086 104.804 68.8496L104.616 70.0466Z" fill="white"/>
<path d="M111.282 67.7155L110.654 72.1885H109.272L109.9 67.7155H108.33L108.456 66.6445H112.977L112.852 67.7155H111.282Z" fill="white"/>
<path d="M116.566 66.5186C116.817 66.5186 117.005 66.5186 117.194 66.5816C117.382 66.6446 117.571 66.6446 117.696 66.7706C117.885 66.8336 118.01 66.9596 118.136 67.0856C118.261 67.2116 118.324 67.4006 118.45 67.5896C118.513 67.7786 118.575 68.0306 118.575 68.3456C118.575 68.6606 118.575 68.9755 118.513 69.3535C118.45 69.9205 118.324 70.4245 118.136 70.8025C117.947 71.1805 117.759 71.4956 117.508 71.6846C117.257 71.8736 117.005 71.9996 116.691 72.1256C116.44 72.1886 116.126 72.2516 115.749 72.2516H114.933C114.807 72.2516 114.619 72.1886 114.493 72.1256C114.368 72.0626 114.179 71.9996 114.117 71.9366C113.991 71.8736 113.928 71.7476 113.803 71.6216C113.677 71.4956 113.614 71.3065 113.614 71.1175C113.551 70.9285 113.551 70.6766 113.551 70.4246C113.551 70.1726 113.551 69.8575 113.614 69.5425C113.677 69.0385 113.74 68.6606 113.865 68.2826C113.991 67.9046 114.117 67.6526 114.305 67.4006C114.493 67.1486 114.682 67.0226 114.87 66.8966C115.121 66.7706 115.31 66.7076 115.561 66.6446C115.812 66.5816 116.063 66.5816 116.315 66.5816H116.566V66.5186ZM116.315 67.5896C115.938 67.5896 115.687 67.6525 115.498 67.8415C115.31 67.9675 115.184 68.2826 115.121 68.6606L114.933 70.1096C114.87 70.4876 114.933 70.8025 115.059 70.9285C115.184 71.0545 115.435 71.1805 115.749 71.1805H115.938C116.252 71.1805 116.503 71.1175 116.691 70.9285C116.88 70.7395 117.005 70.4876 117.068 70.1096L117.257 68.6606C117.319 68.2826 117.257 67.9675 117.131 67.8415C116.943 67.7155 116.691 67.5896 116.315 67.5896Z" fill="white"/>
<path d="M124.613 67.9038C124.613 68.7228 124.236 69.4158 123.42 70.0458L124.174 72.1878H122.666L122.038 70.2978H121.034L120.782 72.1878H119.401L120.154 66.6978C121.034 66.5718 121.787 66.5088 122.604 66.5088C123.922 66.5088 124.613 66.9498 124.613 67.8948V67.9038ZM121.464 67.5888L121.276 69.2268H122.657C122.783 69.1008 122.971 68.9748 123.034 68.7228C123.16 68.5338 123.223 68.3448 123.223 68.1558C123.223 67.7778 122.971 67.5888 122.532 67.5888H121.464Z" fill="white"/>
<path d="M127.69 69.2271L129.26 66.6441H130.642L128.193 70.3611L127.942 72.1881H126.623L126.874 70.3611L125.367 66.5811H126.748L127.69 69.2271Z" fill="white"/>
<path d="M133.405 72.1878L134.159 66.6348H135.54L134.912 71.1708H137.299L137.173 72.2418H133.405V72.1788V72.1878Z" fill="white"/>
<path d="M138.187 72.1878L138.941 66.6348H140.322L139.694 71.1708H142.081L141.955 72.2418H138.187V72.1788V72.1878Z" fill="white"/>
<path d="M144.602 70.0466C144.539 70.4876 144.602 70.8025 144.727 70.9285C144.853 71.0545 145.167 71.1805 145.606 71.1805H147.114L146.988 72.0626C146.423 72.1886 145.732 72.2516 145.041 72.2516C144.853 72.2516 144.664 72.2516 144.476 72.1886C144.288 72.1256 144.162 72.1256 143.974 72.0626C143.848 71.9996 143.722 71.8736 143.597 71.7476C143.534 71.6216 143.408 71.4326 143.346 71.2436C143.283 71.0546 143.22 70.8026 143.22 70.5506C143.22 70.2986 143.22 69.9205 143.283 69.5425C143.346 69.0385 143.408 68.5976 143.534 68.2196C143.66 67.8416 143.785 67.5266 143.974 67.3376C144.162 67.1486 144.35 66.9596 144.539 66.8336C144.79 66.7076 144.978 66.6446 145.23 66.5816C145.418 66.5186 145.669 66.5186 145.983 66.5186C146.548 66.5186 147.114 66.5816 147.679 66.7076L147.553 67.6525H146.109C145.669 67.6525 145.355 67.7155 145.167 67.9045C144.978 68.0935 144.853 68.4086 144.79 68.8496L144.602 70.0466Z" fill="white"/>
</g>
<defs>
<clipPath id="clip0_419_340">
<rect width="157" height="108" fill="white"/>
</clipPath>
</defs>
</svg>
