<svg width="163" height="112" viewBox="0 0 163 112" fill="none" xmlns="http://www.w3.org/2000/svg">
<path d="M111.65 32.2467H51.3497C51.1447 32.2467 50.9771 32.0787 50.9771 31.8733C50.9771 31.668 51.1447 31.5 51.3497 31.5H111.65C111.855 31.5 112.023 31.668 112.023 31.8733C112.023 32.0787 111.855 32.2467 111.65 32.2467Z" fill="white"/>
<path d="M68.0409 38.8176C67.631 38.8176 67.2957 38.4816 67.2957 38.0709V35.2989L67.7149 35.0936C68.7581 34.5896 69.3635 34.0203 69.4566 33.4416C69.5777 32.7416 68.9537 32.1256 68.9537 32.1163C68.5252 31.7336 68.0967 31.5656 67.6683 31.6216C66.8486 31.7429 66.1128 32.6856 65.9172 33.0123C65.703 33.3669 65.2466 33.4789 64.8926 33.2643C64.5387 33.0496 64.4269 32.5923 64.6411 32.2376C64.7529 32.0509 65.8054 30.3896 67.4541 30.1469C68.0595 30.0536 68.9909 30.1376 69.9689 31.0243C70.0341 31.0896 71.1611 32.2003 70.9283 33.6656C70.7699 34.6549 70.0434 35.5136 68.7767 36.2136V38.0616C68.7767 38.4723 68.4507 38.8083 68.0315 38.8083L68.0409 38.8176Z" fill="white"/>
<path d="M96.021 38.8176C95.6111 38.8176 95.2758 38.4816 95.2758 38.0709V35.2989L95.695 35.0936C96.7382 34.5896 97.3436 34.0203 97.4367 33.4416C97.5578 32.7416 96.9338 32.1256 96.9338 32.1163C96.5053 31.7336 96.0768 31.5656 95.6484 31.6216C94.8287 31.7429 94.0929 32.6856 93.8973 33.0123C93.6831 33.3669 93.2267 33.4789 92.8727 33.2643C92.5188 33.0496 92.407 32.5923 92.6212 32.2376C92.733 32.0509 93.7855 30.3896 95.4342 30.1469C96.0396 30.0536 96.971 30.1376 97.949 31.0243C98.0142 31.0896 99.1412 32.2003 98.9084 33.6656C98.75 34.6549 98.0235 35.5136 96.7568 36.2136V38.0616C96.7568 38.4723 96.4308 38.8083 96.0116 38.8083L96.021 38.8176Z" fill="white"/>
<path d="M72.4372 41.8412L68.0036 38.8172L63.1788 41.5518L62.443 40.2545L68.0781 37.0625L73.2755 40.6092L72.4372 41.8412Z" fill="white"/>
<path d="M100.566 41.9625L96.0582 38.8172L90.8329 41.7385L90.1157 40.4412L96.1421 37.0625L101.414 40.7398L100.566 41.9625Z" fill="white"/>
<path d="M79.6278 69.6921H55.9788L58.2795 49.7748L52.1786 49.6348V41.3281L62.8994 40.0215L63.1136 40.5535C64.9764 45.2762 67.3516 44.8748 67.4447 44.8562L67.5379 44.8375H67.6496C71.6548 45.0802 72.4558 41.0108 72.4838 40.8335L72.6048 40.1801L81.0156 40.6935V49.9242H78.3331L79.6278 69.6828V69.6921ZM57.6554 68.1988H78.0444L76.7497 48.4402H79.5347V42.0935L73.8064 41.7388C73.2289 43.6988 71.4312 46.4895 67.659 46.3215C66.9976 46.4148 64.0916 46.5175 61.9679 41.6175L53.6875 42.6255V48.1601L59.9654 48.3095L57.6647 68.1895L57.6554 68.1988Z" fill="white"/>
<path d="M107.552 69.6925H83.9031L86.2037 49.9618L80.1494 49.9245L80.1029 40.7685L90.8422 40.0498L91.0471 40.5538C92.91 45.2765 95.2758 44.8751 95.3783 44.8565L95.4714 44.8378H95.5832C99.5883 45.0805 100.389 41.0111 100.417 40.8338L100.529 40.1991L111.762 40.6938V49.9431H106.257L107.552 69.6925ZM85.5797 68.1991H105.969L104.674 48.4405H110.281V42.1125L101.731 41.7391C101.153 43.6991 99.3555 46.5178 95.5739 46.3311C94.9126 46.4245 91.9972 46.5271 89.8735 41.6085L81.6025 42.1591L81.6397 48.4405L87.8803 48.4778L85.5797 68.1991Z" fill="white"/>
<path d="M77.6252 55.9346H58.3074V57.4279H77.6252V55.9346Z" fill="white"/>
<path d="M77.6252 52.9951H58.3074V54.4885H77.6252V52.9951Z" fill="white"/>
<path d="M77.6252 50.0449H58.3074V51.5383H77.6252V50.0449Z" fill="white"/>
<path d="M92.6492 59.7425C92.4909 59.7425 92.3325 59.6959 92.2021 59.5932C91.9786 59.4252 91.8668 59.1452 91.9227 58.8652L92.4443 56.0465L89.9946 54.0865C89.7618 53.8999 89.6686 53.5919 89.7431 53.3025C89.8177 53.0132 90.0598 52.8079 90.3579 52.7612L93.3943 52.3412L94.8194 50.0265C94.9498 49.8119 95.1827 49.6719 95.4435 49.6719C95.7136 49.6812 95.9371 49.7932 96.0769 50.0079L97.6044 52.3132L100.622 52.4532C100.92 52.4625 101.181 52.6585 101.284 52.9385C101.386 53.2185 101.321 53.5359 101.107 53.7412L98.8805 55.8879L99.43 58.4732C99.4859 58.7439 99.3927 59.0145 99.1878 59.1919C98.9829 59.3692 98.6942 59.4159 98.4427 59.3319L95.7602 58.3332L92.9845 59.6865C92.8821 59.7425 92.7703 59.7612 92.6585 59.7612L92.6492 59.7425ZM92.258 53.9932L93.7017 55.1599C93.9159 55.3279 94.0184 55.6079 93.9718 55.8785L93.6365 57.6892L95.3783 56.8399C95.5646 56.7465 95.7695 56.7372 95.9651 56.8119L97.6789 57.4465L97.325 55.7852C97.2691 55.5332 97.3529 55.2719 97.5392 55.0945L98.8153 53.8625L97.148 53.7879C96.9058 53.7785 96.6916 53.6572 96.5612 53.4519L95.4714 51.8092L94.4748 53.4332C94.363 53.6199 94.1674 53.7505 93.9439 53.7785L92.2766 54.0119L92.258 53.9932Z" fill="white"/>
<path d="M81.8167 22.3905C79.7582 22.3905 78.091 20.7198 78.091 18.6572C78.091 16.5945 79.7582 14.9238 81.8167 14.9238C83.8751 14.9238 85.5424 16.5945 85.5424 18.6572C85.5424 20.7198 83.8751 22.3905 81.8167 22.3905ZM81.8167 16.4172C80.5779 16.4172 79.5812 17.4252 79.5812 18.6572C79.5812 19.8892 80.5872 20.8972 81.8167 20.8972C83.0462 20.8972 84.0521 19.8892 84.0521 18.6572C84.0521 17.4252 83.0462 16.4172 81.8167 16.4172Z" fill="white"/>
<path d="M86.7626 15.6616C87.4107 15.6616 87.9362 15.1351 87.9362 14.4856C87.9362 13.8361 87.4107 13.3096 86.7626 13.3096C86.1144 13.3096 85.589 13.8361 85.589 14.4856C85.589 15.1351 86.1144 15.6616 86.7626 15.6616Z" fill="white"/>
<path d="M88.672 20.1596C89.3202 20.1596 89.8456 19.6331 89.8456 18.9836C89.8456 18.3341 89.3202 17.8076 88.672 17.8076C88.0238 17.8076 87.4984 18.3341 87.4984 18.9836C87.4984 19.6331 88.0238 20.1596 88.672 20.1596Z" fill="white"/>
<path d="M86.6508 25.1997C87.299 25.1997 87.8244 24.6731 87.8244 24.0237C87.8244 23.3742 87.299 22.8477 86.6508 22.8477C86.0026 22.8477 85.4772 23.3742 85.4772 24.0237C85.4772 24.6731 86.0026 25.1997 86.6508 25.1997Z" fill="white"/>
<path d="M77.1316 15.6616C77.7797 15.6616 78.3052 15.1351 78.3052 14.4856C78.3052 13.8361 77.7797 13.3096 77.1316 13.3096C76.4834 13.3096 75.958 13.8361 75.958 14.4856C75.958 15.1351 76.4834 15.6616 77.1316 15.6616Z" fill="white"/>
<path d="M75.2222 20.1596C75.8703 20.1596 76.3958 19.6331 76.3958 18.9836C76.3958 18.3341 75.8703 17.8076 75.2222 17.8076C74.574 17.8076 74.0486 18.3341 74.0486 18.9836C74.0486 19.6331 74.574 20.1596 75.2222 20.1596Z" fill="white"/>
<path d="M77.2434 25.1997C77.8915 25.1997 78.417 24.6731 78.417 24.0237C78.417 23.3742 77.8915 22.8477 77.2434 22.8477C76.5952 22.8477 76.0698 23.3742 76.0698 24.0237C76.0698 24.6731 76.5952 25.1997 77.2434 25.1997Z" fill="white"/>
<path d="M81.7794 27.1225C82.4276 27.1225 82.953 26.596 82.953 25.9465C82.953 25.297 82.4276 24.7705 81.7794 24.7705C81.1313 24.7705 80.6058 25.297 80.6058 25.9465C80.6058 26.596 81.1313 27.1225 81.7794 27.1225Z" fill="white"/>
<path d="M81.7794 13.4213C82.4276 13.4213 82.953 12.8948 82.953 12.2453C82.953 11.5958 82.4276 11.0693 81.7794 11.0693C81.1313 11.0693 80.6058 11.5958 80.6058 12.2453C80.6058 12.8948 81.1313 13.4213 81.7794 13.4213Z" fill="white"/>
<path d="M24.3196 83.011C25.4373 82.507 25.9403 81.5084 25.9403 79.9404V79.399C25.9403 77.047 24.8226 75.8897 22.2146 75.8897H18.4143V91.131H22.3729C24.8878 91.131 26.1918 89.871 26.1918 87.519V86.2777C26.1918 84.663 25.6609 83.515 24.3196 83.011ZM20.9385 78.0737H22.1494C23.0435 78.0737 23.4347 78.5497 23.4347 79.6417V80.491C23.4347 81.7137 22.8666 82.1057 21.9258 82.1057H20.9385V78.083V78.0737ZM23.6862 87.4537C23.6862 88.583 23.2298 88.9563 22.3822 88.9563H20.9385V84.2804H22.0562C23.2019 84.2804 23.6769 84.719 23.6769 86.1283V87.4537H23.6862ZM30.2249 88.9563H34.3604V91.131H27.7007V75.8897H30.2155V88.9563H30.2249ZM35.4595 75.8897H42.3241V78.0643H37.9743V82.311H41.4299V84.4857H37.9743V88.947H42.3241V91.1217H35.4595V75.8804V75.8897ZM50.9957 87.4724C50.9957 89.9083 49.7103 91.3084 47.2421 91.3084C44.7738 91.3084 43.4884 89.9177 43.4884 87.4724V86.539H45.8635V87.631C45.8635 88.723 46.3665 89.115 47.1675 89.115C47.9686 89.115 48.4715 88.723 48.4715 87.631C48.4715 84.495 43.5536 83.907 43.5536 79.5577C43.5536 77.1217 44.811 75.7217 47.2607 75.7217C49.7103 75.7217 50.9678 77.1123 50.9678 79.5577V80.0337H48.5926V79.399C48.5926 78.307 48.1362 77.8963 47.3352 77.8963C46.5342 77.8963 46.0778 78.307 46.0778 79.399C46.0778 82.535 50.9957 83.123 50.9957 87.4724ZM59.5462 87.4724C59.5462 89.9083 58.2609 91.3084 55.7926 91.3084C53.3243 91.3084 52.0389 89.9177 52.0389 87.4724V86.539H54.414V87.631C54.414 88.723 54.917 89.115 55.718 89.115C56.5191 89.115 57.0221 88.723 57.0221 87.631C57.0221 84.495 52.1041 83.907 52.1041 79.5577C52.1041 77.1217 53.3615 75.7217 55.8112 75.7217C58.2608 75.7217 59.5183 77.1123 59.5183 79.5577V80.0337H57.1431V79.399C57.1431 78.307 56.6867 77.8963 55.8857 77.8963C55.0847 77.8963 54.6283 78.307 54.6283 79.399C54.6283 82.535 59.5462 83.123 59.5462 87.4724ZM60.9899 75.8897H67.8546V78.0643H63.5048V82.311H66.9604V84.4857H63.5048V88.947H67.8546V91.1217H60.9899V75.8804V75.8897ZM73.3872 75.8897H69.41V91.131H73.3872C75.9021 91.131 77.1409 89.8057 77.1409 87.3603V79.651C77.1409 77.215 75.9021 75.8804 73.3872 75.8804V75.8897ZM74.6261 87.4724C74.6261 88.5644 74.1417 88.9563 73.3407 88.9563H71.9249V78.0737H73.3407C74.1417 78.0737 74.6261 78.4657 74.6261 79.5577V87.4817V87.4724ZM84.8066 88.9563H88.9421V91.131H82.2824V75.8897H84.7973V88.9563H84.8066ZM91.9413 75.8897L89.3799 91.131H91.6898L92.1276 88.3683H95.2106L95.6484 91.131H98.1912L95.6298 75.8897H91.9506H91.9413ZM92.4443 86.2963L93.6551 78.587L94.866 86.2963H92.435H92.4443ZM104.357 75.8897H106.732V87.491C106.732 89.927 105.447 91.327 102.979 91.327C100.51 91.327 99.2251 89.9363 99.2251 87.491V75.8897H101.74V87.6497C101.74 88.7417 102.243 89.1337 103.044 89.1337C103.845 89.1337 104.348 88.7417 104.348 87.6497V75.8897H104.357ZM114.175 75.8897H116.419V91.131H113.83L110.7 80.0897V91.131H108.437V75.8897H111.594L114.184 85.0084V75.8897H114.175ZM122.203 75.8897H118.226V91.131H122.203C124.718 91.131 125.957 89.8057 125.957 87.3603V79.651C125.957 77.215 124.718 75.8804 122.203 75.8804V75.8897ZM123.442 87.4724C123.442 88.5644 122.958 88.9563 122.157 88.9563H120.741V78.0737H122.157C122.958 78.0737 123.442 78.4657 123.442 79.5577V87.4817V87.4724ZM135.104 86.931C135.104 85.3443 134.694 84.187 133.436 83.683C134.554 83.179 135.085 82.1617 135.085 80.5937V79.399C135.085 77.047 133.967 75.8897 131.359 75.8897H127.559V91.131H130.074V84.9243H130.94C132.086 84.9243 132.589 85.447 132.589 86.8657V89.2643C132.589 90.5057 132.682 90.7483 132.822 91.131H135.383C135.132 90.5617 135.104 90.0204 135.104 89.283V86.931ZM132.57 81.1444C132.57 82.367 132.002 82.759 131.061 82.759H130.074V78.083H131.285C132.179 78.083 132.57 78.559 132.57 79.651V81.1537V81.1444ZM144.576 75.8897L141.4 86.0817V91.131H138.885V86.0817L135.709 75.8897H138.345L140.264 82.8337L142.183 75.8897H144.586H144.576Z" fill="white"/>
<path d="M37.0243 94.2109L34.9472 100.866H33.6525L32.1809 95.8256L30.6161 100.866H29.3307L27.3467 94.2109H28.5669L30.0199 99.6336L31.5941 94.2109H32.8794L34.3418 99.6056L35.8041 94.2109H37.0336H37.0243Z" fill="white"/>
<path d="M39.12 95.098V97.0487H41.5324V97.9447H39.12V99.9887H41.8398V100.885H37.9743V94.2207H41.8398V95.1167H39.12V95.098Z" fill="white"/>
<path d="M50.5021 97.1505C50.3344 97.4492 50.0643 97.6918 49.6917 97.8785C49.3191 98.0652 48.8534 98.1585 48.2759 98.1585H47.0092V100.856H45.8635V94.2012H48.2759C48.8162 94.2012 49.2633 94.2852 49.6358 94.4625C50.0084 94.6398 50.2878 94.8732 50.4741 95.1718C50.6604 95.4705 50.7535 95.8065 50.7535 96.1798C50.7535 96.5158 50.6697 96.8425 50.5021 97.1412V97.1505ZM49.2539 96.9918C49.4682 96.8052 49.5799 96.5345 49.5799 96.1892C49.5799 95.4612 49.1422 95.0972 48.2853 95.0972H47.0185V97.2718H48.2853C48.723 97.2718 49.049 97.1785 49.2633 96.9918H49.2539Z" fill="white"/>
<path d="M55.4852 100.866L53.8738 98.2056H52.9983V100.866H51.8526V94.2109H54.265C54.8053 94.2109 55.2523 94.3043 55.6249 94.4816C55.9975 94.6589 56.2769 94.9016 56.4632 95.2003C56.6495 95.4989 56.7426 95.8349 56.7426 96.2083C56.7426 96.6469 56.6122 97.0389 56.3421 97.3936C56.0813 97.7483 55.6715 97.9909 55.1219 98.1216L56.8544 100.884H55.4852V100.866ZM52.9983 97.3376H54.265C54.6935 97.3376 55.0195 97.2349 55.2337 97.0296C55.4479 96.8243 55.5597 96.5536 55.5597 96.2083C55.5597 95.8629 55.4479 95.5923 55.2337 95.3963C55.0195 95.2003 54.6935 95.1069 54.2557 95.1069H52.989V97.3376H52.9983Z" fill="white"/>
<path d="M59.3599 95.098V97.0487H61.7723V97.9447H59.3599V99.9887H62.0797V100.885H58.2143V94.2207H62.0797V95.1167H59.3599V95.098Z" fill="white"/>
<path d="M64.5201 100.707C64.1475 100.549 63.8494 100.325 63.6352 100.045C63.421 99.7554 63.3092 99.4194 63.3092 99.0367H64.5387C64.5666 99.3261 64.6877 99.5594 64.8926 99.7461C65.1069 99.9327 65.4049 100.026 65.7868 100.026C66.1687 100.026 66.4947 99.9327 66.7089 99.7554C66.9325 99.578 67.0442 99.3354 67.0442 99.0554C67.0442 98.8314 66.979 98.6447 66.8393 98.5141C66.6996 98.3741 66.5319 98.262 66.327 98.1874C66.1221 98.1127 65.8427 98.0287 65.4794 97.9354C65.023 97.8234 64.6505 97.702 64.371 97.59C64.0823 97.4687 63.8401 97.2914 63.6445 97.0394C63.4489 96.7874 63.3465 96.4607 63.3465 96.0407C63.3465 95.6581 63.4489 95.3221 63.6445 95.0327C63.8401 94.7434 64.1289 94.5287 64.4921 94.3701C64.8554 94.2114 65.2745 94.1367 65.7495 94.1367C66.4295 94.1367 66.979 94.2954 67.4168 94.622C67.8546 94.9487 68.0874 95.3874 68.134 95.9474H66.8673C66.8486 95.7047 66.7275 95.4994 66.504 95.322C66.2805 95.154 65.9917 95.0607 65.6285 95.0607C65.3025 95.0607 65.0323 95.1447 64.8181 95.3034C64.6132 95.4621 64.5014 95.6954 64.5014 95.9941C64.5014 96.1994 64.5666 96.3674 64.697 96.4981C64.8274 96.6287 64.9951 96.7314 65.1907 96.8061C65.3863 96.8807 65.6657 96.9647 66.0197 97.058C66.4854 97.1794 66.8579 97.3007 67.156 97.422C67.4447 97.5434 67.6962 97.7301 67.9011 97.9821C68.1061 98.2341 68.2085 98.57 68.2085 98.99C68.2085 99.326 68.1154 99.6434 67.9198 99.9514C67.7242 100.259 67.4541 100.493 67.0815 100.679C66.7182 100.857 66.2805 100.95 65.7868 100.95C65.3211 100.95 64.9019 100.866 64.5201 100.717V100.707Z" fill="white"/>
<path d="M70.6023 100.707C70.2297 100.549 69.9316 100.325 69.7174 100.045C69.5032 99.7554 69.3914 99.4194 69.3914 99.0367H70.6209C70.6488 99.3261 70.7699 99.5594 70.9748 99.7461C71.1891 99.9327 71.4871 100.026 71.869 100.026C72.2509 100.026 72.5769 99.9327 72.8005 99.7554C73.024 99.578 73.1358 99.3354 73.1358 99.0554C73.1358 98.8314 73.0706 98.6447 72.9309 98.5141C72.7911 98.3741 72.6235 98.262 72.4186 98.1874C72.2136 98.1127 71.9342 98.0287 71.571 97.9354C71.1146 97.8234 70.742 97.702 70.4626 97.59C70.1738 97.4687 69.9316 97.2914 69.736 97.0394C69.5404 96.7874 69.438 96.4607 69.438 96.0407C69.438 95.6581 69.5404 95.3221 69.736 95.0327C69.9316 94.7434 70.2204 94.5287 70.5836 94.3701C70.9469 94.2114 71.366 94.1367 71.8411 94.1367C72.521 94.1367 73.0706 94.2954 73.5083 94.622C73.9461 94.9487 74.179 95.3874 74.2255 95.9474H72.9588C72.9402 95.7047 72.8191 95.4994 72.5955 95.322C72.372 95.154 72.0832 95.0607 71.72 95.0607C71.394 95.0607 71.1239 95.1447 70.9096 95.3034C70.6954 95.4621 70.593 95.6954 70.593 95.9941C70.593 96.1994 70.6582 96.3674 70.7886 96.4981C70.919 96.6287 71.0866 96.7314 71.2822 96.8061C71.4778 96.8807 71.7572 96.9647 72.1112 97.058C72.5769 97.1794 72.9495 97.3007 73.2475 97.422C73.5363 97.5434 73.7878 97.7301 73.9927 97.9821C74.1976 98.2341 74.3 98.57 74.3 98.99C74.3 99.326 74.2069 99.6434 74.0113 99.9514C73.8157 100.259 73.5456 100.493 73.173 100.679C72.8098 100.857 72.372 100.95 71.8783 100.95C71.4126 100.95 70.9842 100.866 70.6116 100.717L70.6023 100.707Z" fill="white"/>
<path d="M82.7854 94.2109V95.1069H80.9225V100.875H79.7769V95.1069H77.9047V94.2109H82.7854Z" fill="white"/>
<path d="M85.3375 100.502C84.7879 100.212 84.3595 99.811 84.0428 99.2883C83.7261 98.7656 83.5678 98.187 83.5678 97.5336C83.5678 96.8803 83.7261 96.3016 84.0428 95.779C84.3595 95.2656 84.7973 94.855 85.3375 94.5656C85.887 94.2763 86.4831 94.127 87.1351 94.127C87.7871 94.127 88.3926 94.2763 88.9421 94.5656C89.4916 94.855 89.9201 95.2563 90.2368 95.779C90.5535 96.3016 90.7118 96.8803 90.7118 97.5336C90.7118 98.187 90.5535 98.775 90.2368 99.2883C89.9201 99.811 89.4916 100.212 88.9421 100.502C88.3926 100.791 87.7965 100.94 87.1351 100.94C86.4831 100.94 85.887 100.791 85.3375 100.502ZM88.3646 99.6896C88.7279 99.4843 89.0073 99.2043 89.2122 98.831C89.4171 98.4576 89.5196 98.0283 89.5196 97.5336C89.5196 97.039 89.4171 96.6096 89.2122 96.2363C89.0073 95.863 88.7279 95.583 88.3646 95.387C88.0014 95.191 87.5915 95.0883 87.1258 95.0883C86.6601 95.0883 86.2503 95.191 85.887 95.387C85.5238 95.583 85.2443 95.8723 85.0394 96.2363C84.8345 96.6096 84.732 97.039 84.732 97.5336C84.732 98.0283 84.8345 98.4576 85.0394 98.831C85.2443 99.2043 85.5238 99.4936 85.887 99.6896C86.2503 99.895 86.6601 99.9883 87.1258 99.9883C87.5915 99.9883 88.0014 99.8856 88.3646 99.6896Z" fill="white"/>
<path d="M95.5925 94.2109V100.866H94.4469V94.2109H95.5925Z" fill="white"/>
<path d="M104.478 94.2109V100.866H103.333V96.3109L101.2 100.866H100.408L98.2657 96.3109V100.866H97.1201V94.2109H98.3589L100.818 99.4283L103.267 94.2109H104.497H104.478Z" fill="white"/>
<path d="M110.626 97.1505C110.458 97.4492 110.188 97.6918 109.815 97.8785C109.443 98.0652 108.977 98.1585 108.4 98.1585H107.133V100.856H105.987V94.2012H108.4C108.94 94.2012 109.387 94.2852 109.76 94.4625C110.132 94.6398 110.412 94.8732 110.598 95.1718C110.784 95.4705 110.877 95.8065 110.877 96.1798C110.877 96.5158 110.793 96.8425 110.626 97.1412V97.1505ZM109.378 96.9918C109.592 96.8052 109.704 96.5345 109.704 96.1892C109.704 95.4612 109.266 95.0972 108.409 95.0972H107.142V97.2718H108.409C108.847 97.2718 109.173 97.1785 109.387 96.9918H109.378Z" fill="white"/>
<path d="M115.609 100.866L113.998 98.2056H113.122V100.866H111.976V94.2109H114.389C114.929 94.2109 115.376 94.3043 115.749 94.4816C116.121 94.6589 116.401 94.9016 116.587 95.2003C116.773 95.4989 116.866 95.8349 116.866 96.2083C116.866 96.6469 116.736 97.0389 116.466 97.3936C116.205 97.7483 115.795 97.9909 115.246 98.1216L116.978 100.884H115.609V100.866ZM113.122 97.3376H114.389C114.817 97.3376 115.143 97.2349 115.357 97.0296C115.572 96.8243 115.683 96.5536 115.683 96.2083C115.683 95.8629 115.572 95.5923 115.357 95.3963C115.143 95.2003 114.817 95.1069 114.379 95.1069H113.113V97.3376H113.122Z" fill="white"/>
<path d="M119.484 95.098V97.0487H121.896V97.9447H119.484V99.9887H122.203V100.885H118.338V94.2207H122.203V95.1167H119.484V95.098Z" fill="white"/>
<path d="M124.644 100.707C124.271 100.549 123.973 100.325 123.759 100.045C123.545 99.7554 123.433 99.4194 123.433 99.0367H124.662C124.69 99.3261 124.811 99.5594 125.016 99.7461C125.231 99.9327 125.529 100.026 125.911 100.026C126.292 100.026 126.618 99.9327 126.842 99.7554C127.065 99.578 127.177 99.3354 127.177 99.0554C127.177 98.8314 127.112 98.6447 126.972 98.5141C126.833 98.3741 126.665 98.262 126.46 98.1874C126.255 98.1127 125.976 98.0287 125.612 97.9354C125.156 97.8234 124.783 97.702 124.504 97.59C124.215 97.4687 123.973 97.2914 123.778 97.0394C123.573 96.7874 123.479 96.4607 123.479 96.0407C123.479 95.6581 123.582 95.3221 123.778 95.0327C123.982 94.7434 124.262 94.5287 124.625 94.3701C124.988 94.2207 125.408 94.1367 125.883 94.1367C126.563 94.1367 127.112 94.2954 127.55 94.622C127.988 94.9487 128.22 95.3874 128.267 95.9474H127C126.982 95.7047 126.861 95.4994 126.637 95.322C126.413 95.154 126.125 95.0607 125.761 95.0607C125.435 95.0607 125.165 95.1447 124.951 95.3034C124.746 95.4621 124.634 95.6954 124.634 95.9941C124.634 96.1994 124.7 96.3674 124.83 96.4981C124.96 96.6287 125.128 96.7314 125.324 96.8061C125.529 96.8807 125.799 96.9647 126.153 97.058C126.618 97.1794 126.991 97.3007 127.289 97.422C127.578 97.5434 127.829 97.7301 128.034 97.9821C128.239 98.2341 128.342 98.57 128.342 98.99C128.342 99.326 128.248 99.6434 128.053 99.9514C127.857 100.259 127.587 100.493 127.215 100.679C126.851 100.857 126.413 100.95 125.92 100.95C125.454 100.95 125.035 100.866 124.653 100.717L124.644 100.707Z" fill="white"/>
<path d="M130.726 100.707C130.353 100.549 130.055 100.325 129.841 100.045C129.627 99.7554 129.515 99.4194 129.515 99.0367H130.745C130.773 99.3261 130.894 99.5594 131.099 99.7461C131.313 99.9327 131.611 100.026 131.993 100.026C132.375 100.026 132.701 99.9327 132.915 99.7554C133.138 99.578 133.25 99.3354 133.25 99.0554C133.25 98.8314 133.185 98.6447 133.045 98.5141C132.906 98.3741 132.738 98.262 132.533 98.1874C132.328 98.1127 132.049 98.0287 131.685 97.9354C131.229 97.8234 130.856 97.702 130.577 97.59C130.298 97.4687 130.046 97.2914 129.85 97.0394C129.646 96.7874 129.552 96.4607 129.552 96.0407C129.552 95.6581 129.655 95.3221 129.85 95.0327C130.046 94.7434 130.335 94.5287 130.698 94.3701C131.061 94.2114 131.48 94.1367 131.955 94.1367C132.635 94.1367 133.185 94.2954 133.623 94.622C134.051 94.9487 134.293 95.3874 134.34 95.9474H133.073C133.055 95.7047 132.933 95.4994 132.71 95.322C132.486 95.154 132.198 95.0607 131.834 95.0607C131.508 95.0607 131.238 95.1447 131.024 95.3034C130.819 95.4621 130.707 95.6954 130.707 95.9941C130.707 96.1994 130.773 96.3674 130.903 96.4981C131.033 96.6287 131.201 96.7314 131.397 96.8061C131.602 96.8807 131.872 96.9647 132.226 97.058C132.691 97.1794 133.064 97.3007 133.362 97.422C133.651 97.5434 133.902 97.7301 134.107 97.9821C134.312 98.2341 134.414 98.57 134.414 98.99C134.414 99.326 134.321 99.6434 134.126 99.9514C133.93 100.259 133.66 100.493 133.287 100.679C132.924 100.857 132.486 100.95 131.993 100.95C131.527 100.95 131.099 100.866 130.726 100.717V100.707Z" fill="white"/>
</svg>
