<svg width="141" height="96" viewBox="0 0 141 96" fill="none" xmlns="http://www.w3.org/2000/svg">
<path d="M9.01594 56.9112C9.01594 56.9112 11.135 56.1752 12.1421 58.5032L14.3901 67.0792L16.8717 58.8952C16.8717 58.8952 17.2745 57.7512 18.5878 57.6872C19.8609 57.6232 20.5538 58.7032 20.7713 59.8232L22.9709 67.0712L25.3236 58.2632C25.3236 58.2632 26.0971 56.4872 28.0872 56.8552C28.0872 56.8552 28.2403 56.8872 28.1758 57.1352C28.1114 57.3832 25.0094 70.1512 25.0094 70.1512C25.0094 70.1512 24.7596 71.1592 23.4463 71.1672C22.2619 71.1672 21.8993 71.2552 21.5206 70.2792C21.1822 69.4232 18.8698 63.9752 18.8698 63.9752C18.8698 63.9752 18.7006 63.4952 18.4589 63.9912C18.2494 64.4312 15.5664 70.2632 15.5664 70.2632C15.5664 70.2632 15.0024 71.3112 13.8583 71.1432C13.8583 71.1432 12.6981 71.0952 12.3677 69.6712C12.1421 68.7032 8.97566 57.2312 8.97566 57.2312C8.97566 57.2312 8.89508 57.0312 9.03206 56.9112H9.01594Z" fill="white"/>
<path d="M59.1797 62.1676C60.63 60.2716 62.1528 61.4716 62.1528 61.4716C63.4258 62.4476 62.3462 63.3356 62.3462 63.3356C60.0741 64.1116 58.801 63.6956 58.801 63.6956C58.6882 62.8876 59.1797 62.1756 59.1797 62.1756V62.1676ZM55.4412 63.7756C54.8289 68.1596 58.2693 70.1516 58.2693 70.1516C63.0149 72.8556 65.0856 69.1756 65.0856 69.1756C65.4159 68.2476 64.2718 67.2556 63.4742 67.7196C62.6765 68.1916 61.8547 68.2236 61.8547 68.2236C58.656 68.0796 58.9461 65.8396 58.9461 65.8396C58.9461 65.8396 61.5243 65.6956 63.2566 65.4636C64.9889 65.2396 66.552 62.3676 64.6102 60.1596C62.6685 57.9516 59.2683 59.2156 59.2683 59.2156C56.0294 60.2476 55.4331 63.7596 55.4331 63.7596L55.4412 63.7756Z" fill="white"/>
<path d="M29.8195 56.8634L29.7953 70.3274C29.7953 70.3274 30.4721 71.5994 31.8177 70.9994C31.8177 70.9994 32.1641 70.9354 32.5509 70.3514V65.0314C32.5509 65.0314 32.712 63.1034 34.7021 63.0234C34.7021 63.0234 36.1363 62.9274 36.7406 64.3994L36.7567 70.3194C36.7567 70.3194 37.4254 71.5834 38.8274 70.9834C38.8274 70.9834 39.3027 70.7594 39.4961 70.3354V63.4634C39.4961 63.4634 38.7629 60.8234 35.9026 60.3354C35.9026 60.3354 34.1703 59.9434 32.6878 60.9514V56.8634C32.6878 56.8634 31.4229 55.0394 29.8114 56.8634H29.8195Z" fill="white"/>
<path d="M44.7816 60.4072H42.3886C42.2729 60.4072 42.1791 60.5003 42.1791 60.6152V70.9192C42.1791 71.0341 42.2729 71.1272 42.3886 71.1272H44.7816C44.8973 71.1272 44.9911 71.0341 44.9911 70.9192V60.6152C44.9911 60.5003 44.8973 60.4072 44.7816 60.4072Z" fill="white"/>
<path d="M43.7906 59.3036C44.7161 59.3036 45.4665 58.5586 45.4665 57.6396C45.4665 56.7206 44.7161 55.9756 43.7906 55.9756C42.865 55.9756 42.1147 56.7206 42.1147 57.6396C42.1147 58.5586 42.865 59.3036 43.7906 59.3036Z" fill="white"/>
<path d="M48.9713 58.1762C48.9713 58.1762 49.4306 59.4082 48.2059 59.3202C48.2059 59.3202 46.8523 59.9282 47.4646 61.1362C47.4646 61.1362 47.5291 61.2642 47.8353 61.2242C47.8353 61.2242 48.9471 61.3522 48.8827 62.8002C48.8182 64.2482 48.8585 67.2562 48.8585 67.2562C48.8585 67.2562 48.5282 69.8082 50.5747 70.7602C50.5747 70.7602 52.0733 71.6242 53.5155 70.8002C54.9497 69.9762 53.862 68.9202 53.862 68.9202C53.862 68.9202 52.8629 69.0482 51.9041 67.9442C51.9041 67.9442 51.5979 67.4722 51.6221 67.1842C51.6463 66.8962 51.6221 62.5762 51.6221 62.5762C51.6221 62.5762 51.6866 61.8402 52.6857 61.4962C53.6847 61.1522 54.0393 61.0642 54.0393 61.0642C54.0393 61.0642 54.5871 60.6562 54.1037 59.9202C54.1037 59.9202 53.862 59.5922 53.3383 59.6082C53.3383 59.6082 52.589 59.9442 52.025 59.1762C52.025 59.1762 51.4287 58.3522 51.6866 57.3842C51.6866 57.3842 51.8799 56.5202 50.7761 56.1202C50.7761 56.1202 49.7609 55.8642 49.1727 57.0082C49.1727 57.0082 48.8666 57.6242 48.9633 58.1762H48.9713Z" fill="white"/>
<path d="M67.7847 70.0001L68.3487 59.2561C68.3487 59.2561 67.9137 56.7041 70.7901 56.7521C70.7901 56.7521 71.6844 56.9441 71.8375 57.1601L75.9063 64.4481L79.8463 57.2721C79.8463 57.2721 81.4819 55.5441 82.8758 57.6401L83.5929 69.9841C83.5929 69.9841 83.5929 70.7441 82.8516 71.0641C82.8516 71.0641 81.5705 71.4961 81.1999 70.1761L80.2169 62.0241L77.0182 68.5121C77.0182 68.5121 76.3898 69.5281 75.431 69.3361C74.4722 69.1441 74.2788 68.4721 74.2788 68.4721L71.5555 62.2481L70.2905 69.9201C70.2905 69.9201 70.3147 70.7201 69.3962 71.0241C68.4857 71.3281 67.8975 70.6321 67.7847 70.0081V70.0001Z" fill="white"/>
<path d="M96.299 64.8559C96.3231 67.8399 94.3653 71.1679 91.0215 71.1679C87.8793 71.1679 85.7602 68.2079 85.7441 64.8559C85.7199 61.1199 87.8309 58.5439 91.0215 58.5439C93.9382 58.5439 96.2667 60.5999 96.299 64.8559ZM91.0135 61.4639C89.4665 61.4399 88.7172 62.9439 88.7253 64.8799C88.7333 66.6159 89.3618 68.2479 90.9893 68.2479C92.7135 68.2479 93.2131 66.7599 93.2292 64.8319C93.2534 62.1759 92.2301 61.4799 91.0054 61.4639H91.0135Z" fill="white"/>
<path d="M98.3938 61.2715L98.1118 69.9595C98.1118 69.9595 98.1763 70.9755 99.1996 71.1275C100.223 71.2795 100.569 70.3915 100.569 70.3915C100.569 70.3915 101.552 65.3355 101.568 63.8875C101.568 63.8875 101.899 61.9195 103.832 62.2235C103.832 62.2235 104.791 62.4395 105.162 63.4555C105.162 63.4555 106.185 68.9435 106.161 70.4795C106.161 70.4795 106.749 71.6875 108.119 70.9115C108.119 70.9115 108.731 70.6315 108.667 69.8715C108.667 69.8715 108.538 64.6155 107.837 61.9835C107.837 61.9835 106.507 59.1515 103.067 59.9755C103.067 59.9755 101.939 60.2795 101.149 61.2475C101.149 61.2475 99.9972 59.5595 98.845 60.4875C98.845 60.4875 98.4744 60.8315 98.3858 61.2635L98.3938 61.2715Z" fill="white"/>
<path d="M117.03 67.5357C115.66 69.8237 113.872 68.0957 113.872 68.0957C112.002 65.8717 113.001 63.2077 113.001 63.2077C114.806 60.5517 117.07 62.0637 117.07 62.0637L117.03 67.5357ZM117.763 55.7757L117.57 59.2317C117.57 59.2317 115.088 58.1517 112.518 60.0317C109.948 61.9117 109.73 66.1517 111.317 69.0237C112.905 71.8957 115.934 71.6157 117.828 69.7117C117.828 69.7117 118.633 71.0957 119.963 70.3837C119.963 70.3837 120.728 69.9917 120.728 69.2637L120.535 55.5997C120.535 55.5997 120.422 54.5197 119.181 54.5597C119.181 54.5597 118.158 54.6237 117.763 55.7677V55.7757Z" fill="white"/>
<path d="M131.742 61.3033C132.854 64.4153 129.502 65.5193 129.502 65.5193C127.126 66.5113 125.232 66.0633 125.232 66.0633C125.321 67.0553 126.102 67.9033 126.102 67.9033C127.843 69.2473 130.22 67.5593 130.22 67.5593C131.154 66.9513 131.678 67.4953 131.678 67.4953C132.459 68.2313 131.807 68.8393 131.807 68.8393C129.567 71.3273 127.343 71.0873 127.343 71.0873C121.703 70.9993 122.34 64.7753 122.34 64.7753C122.211 60.8233 125.538 59.5033 125.538 59.5033C130.348 58.0153 131.742 61.3193 131.742 61.3193V61.3033ZM125.264 63.5913C125.264 63.5913 127.005 63.9033 128.656 63.4073C128.656 63.4073 129.237 63.4073 129.406 62.5113C129.406 62.5113 129.502 61.7513 128.568 61.4713C128.568 61.4713 127.021 60.9113 125.772 62.3273C125.772 62.3273 125.345 62.9193 125.264 63.5913Z" fill="white"/>
<path d="M14.7365 76.0156H15.3972V81.1036H14.7365V76.0156Z" fill="white"/>
<path d="M16.7669 76.0156H17.5968L20.8035 80.2396H20.8197V76.0156H21.4803V81.1036H20.6505L17.4437 76.8796H17.4276V81.1036H16.7669V76.0156Z" fill="white"/>
<path d="M26.5725 76.5756H24.7435V81.1036H24.0828V76.5756H22.2538V76.0156H26.5725V76.5756Z" fill="white"/>
<path d="M27.3459 76.0158H30.8266V76.5758H28.0066V78.1678H30.6413V78.7278H28.0066V80.5358H30.9717V81.0958H27.3459V76.0078V76.0158Z" fill="white"/>
<path d="M31.9869 76.0156H33.4049C34.4765 76.0156 35.6126 76.1596 35.6126 77.4156C35.6126 78.1596 35.0889 78.6396 34.2267 78.7596L35.7979 81.1036H34.9922L33.4935 78.8156H32.6475V81.1036H31.9869V76.0156ZM32.6395 78.2556H33.2277C33.9528 78.2556 34.9035 78.2556 34.9035 77.4156C34.9035 76.6796 34.2106 76.5756 33.5661 76.5756H32.6395V78.2556Z" fill="white"/>
<path d="M36.7647 76.0156H37.4254V81.1036H36.7647V76.0156Z" fill="white"/>
<path d="M38.4729 78.5597C38.4729 77.0237 39.6814 75.8877 41.3654 75.8877C43.0493 75.8877 44.2579 77.0237 44.2579 78.5597C44.2579 80.0957 43.0493 81.2317 41.3654 81.2317C39.6814 81.2317 38.4729 80.0957 38.4729 78.5597ZM43.5569 78.5597C43.5569 77.3917 42.6626 76.4477 41.3654 76.4477C40.0682 76.4477 39.1738 77.3917 39.1738 78.5597C39.1738 79.7277 40.0682 80.6717 41.3654 80.6717C42.6626 80.6717 43.5569 79.7277 43.5569 78.5597Z" fill="white"/>
<path d="M45.3214 76.0156H46.7395C47.8111 76.0156 48.9471 76.1596 48.9471 77.4156C48.9471 78.1596 48.4234 78.6396 47.5613 78.7596L49.1325 81.1036H48.3267L46.8281 78.8156H45.9821V81.1036H45.3214V76.0156ZM45.9741 78.2556H46.5622C47.2874 78.2556 48.2381 78.2556 48.2381 77.4156C48.2381 76.6796 47.5452 76.5756 46.9006 76.5756H45.9741V78.2556Z" fill="white"/>
<path d="M52.17 76.0156H54.2971C55.3848 76.0156 57.0123 76.6876 57.0123 78.5596C57.0123 80.4316 55.3848 81.1036 54.2971 81.1036H52.17V76.0156ZM52.8307 80.5436H54.0795C55.3445 80.5436 56.3114 79.9516 56.3114 78.5596C56.3114 77.1676 55.3526 76.5756 54.0795 76.5756H52.8307V80.5436Z" fill="white"/>
<path d="M58.0678 76.0158H61.5485V76.5758H58.7285V78.1678H61.3632V78.7278H58.7285V80.5358H61.6935V81.0958H58.0678V76.0078V76.0158Z" fill="white"/>
<path d="M65.3354 76.9115C65.1178 76.5915 64.723 76.4475 64.3282 76.4475C63.7481 76.4475 63.1438 76.6955 63.1438 77.3035C63.1438 77.7675 63.4258 77.9755 64.3121 78.2395C65.1742 78.4875 65.9719 78.7515 65.9719 79.7515C65.9719 80.7515 65.0292 81.2395 64.0221 81.2395C63.3775 81.2395 62.6926 81.0475 62.3139 80.5355L62.8779 80.1115C63.1116 80.4875 63.5789 80.6795 64.0623 80.6795C64.6263 80.6795 65.2709 80.3755 65.2709 79.7915C65.2709 79.1675 64.8117 79.0555 63.8206 78.7595C63.0391 78.5195 62.4429 78.2075 62.4429 77.3595C62.4429 76.3835 63.3614 75.8955 64.3282 75.8955C64.9486 75.8955 65.4723 76.0555 65.8752 76.4955L65.3354 76.9275V76.9115Z" fill="white"/>
<path d="M67.0596 76.0156H67.7203V81.1036H67.0596V76.0156Z" fill="white"/>
<path d="M73.8034 80.7597C73.1669 81.0797 72.4498 81.2317 71.7327 81.2317C70.0085 81.2317 68.7758 80.1517 68.7758 78.5597C68.7758 76.9677 70.0971 75.8877 71.7569 75.8877C72.4821 75.8877 73.1911 76.0637 73.7148 76.5597L73.2233 77.0317C72.8446 76.6557 72.2806 76.4477 71.7166 76.4477C70.4517 76.4477 69.4848 77.3277 69.4848 78.5597C69.4848 79.7917 70.4194 80.6717 71.773 80.6717C72.2162 80.6717 72.7399 80.5677 73.1508 80.3757V78.8157H71.8778V78.2557H73.8115V80.7597H73.8034Z" fill="white"/>
<path d="M75.1812 76.0156H76.0111L79.2178 80.2396H79.2339V76.0156H79.8946V81.1036H79.0647L75.858 76.8796H75.8419V81.1036H75.1812V76.0156Z" fill="white"/>
<path d="M83.891 76.9115C83.6734 76.5915 83.2786 76.4475 82.8838 76.4475C82.3037 76.4475 81.6994 76.6955 81.6994 77.3035C81.6994 77.7675 81.9814 77.9755 82.8677 78.2395C83.7298 78.4875 84.5275 78.7515 84.5275 79.7515C84.5275 80.7515 83.5848 81.2395 82.5777 81.2395C81.9331 81.2395 81.2482 81.0475 80.8696 80.5355L81.4336 80.1115C81.6672 80.4875 82.1345 80.6795 82.618 80.6795C83.182 80.6795 83.8265 80.3755 83.8265 79.7915C83.8265 79.1675 83.3673 79.0555 82.3762 78.7595C81.5947 78.5195 80.9985 78.2075 80.9985 77.3595C80.9985 76.3835 81.917 75.8955 82.8838 75.8955C83.5042 75.8955 84.028 76.0555 84.4308 76.4955L83.891 76.9275V76.9115Z" fill="white"/>
<path d="M90.9893 80.3679C90.5462 80.8879 90.0627 81.1839 89.3295 81.1839C88.3869 81.1839 87.5731 80.6479 87.5731 79.7359C87.5731 79.0159 88.1371 78.5439 88.7978 78.2639C88.4352 77.9279 88.129 77.5759 88.129 77.0879C88.129 76.3359 88.7978 75.9199 89.5632 75.9199C90.3286 75.9199 90.949 76.3039 90.949 77.0479C90.949 77.6879 90.3286 78.0799 89.7727 78.3439L90.949 79.4879L91.6903 78.3439H92.4315L91.368 79.9119L92.633 81.1039H91.7306L90.9813 80.3679H90.9893ZM89.2006 78.6319C88.7333 78.8719 88.2257 79.1679 88.2257 79.7199C88.2257 80.2719 88.7253 80.6719 89.3054 80.6719C89.8855 80.6719 90.24 80.3439 90.5865 79.9679L89.2006 78.6319ZM89.3698 77.9759C89.7807 77.7679 90.2964 77.5359 90.2964 77.0319C90.2964 76.6559 89.9741 76.4319 89.5954 76.4319C89.1603 76.4319 88.7978 76.6959 88.7978 77.1119C88.7978 77.3839 88.9911 77.5999 89.1845 77.7839L89.3779 77.9679L89.3698 77.9759Z" fill="white"/>
<path d="M95.6061 76.0156H99.0384V76.5756H96.2587V78.2556H98.837V78.8156H96.2587V81.1036H95.598V76.0156H95.6061Z" fill="white"/>
<path d="M99.9569 76.0156H100.618V81.1036H99.9569V76.0156Z" fill="white"/>
<path d="M105.71 76.5756H103.881V81.1036H103.22V76.5756H101.391V76.0156H105.71V76.5756Z" fill="white"/>
<path d="M106.161 78.5597C106.161 77.0237 107.369 75.8877 109.053 75.8877C110.737 75.8877 111.946 77.0237 111.946 78.5597C111.946 80.0957 110.737 81.2317 109.053 81.2317C107.369 81.2317 106.161 80.0957 106.161 78.5597ZM111.245 78.5597C111.245 77.3917 110.351 76.4477 109.053 76.4477C107.756 76.4477 106.862 77.3917 106.862 78.5597C106.862 79.7277 107.756 80.6717 109.053 80.6717C110.351 80.6717 111.245 79.7277 111.245 78.5597Z" fill="white"/>
<path d="M117.159 79.1598C117.159 80.2638 116.595 81.2318 115.072 81.2318C113.549 81.2318 112.985 80.2718 112.985 79.1598V76.0078H113.646V79.0718C113.646 79.8878 113.976 80.6638 115.08 80.6638C116.184 80.6638 116.514 79.8878 116.514 79.0718V76.0078H117.175V79.1598H117.159Z" fill="white"/>
<path d="M122.227 76.5756H120.398V81.1036H119.737V76.5756H117.908V76.0156H122.227V76.5756Z" fill="white"/>
<path d="M125.635 76.9115C125.417 76.5915 125.023 76.4475 124.628 76.4475C124.048 76.4475 123.443 76.6955 123.443 77.3035C123.443 77.7675 123.725 77.9755 124.612 78.2395C125.474 78.4875 126.272 78.7515 126.272 79.7515C126.272 80.7515 125.329 81.2395 124.322 81.2395C123.677 81.2395 122.992 81.0475 122.614 80.5355L123.178 80.1115C123.411 80.4875 123.879 80.6795 124.362 80.6795C124.926 80.6795 125.571 80.3755 125.571 79.7915C125.571 79.1675 125.111 79.0555 124.12 78.7595C123.339 78.5195 122.743 78.2075 122.743 77.3595C122.743 76.3835 123.661 75.8955 124.628 75.8955C125.248 75.8955 125.772 76.0555 126.175 76.4955L125.635 76.9275V76.9115Z" fill="white"/>
<path d="M87.0252 15.3916C86.5176 14.9756 85.9053 14.7676 85.1882 14.7676C84.4711 14.7676 83.9151 14.9276 83.5365 15.2556C83.1578 15.5836 82.8919 15.9516 82.7307 16.3596C82.5777 16.7676 82.4085 17.3356 82.2393 18.0636L80.515 24.7516C80.515 24.7516 80.5795 24.7756 80.6037 24.7916C81.0468 25.0156 81.4013 25.3276 81.6753 25.7356C81.9492 26.1436 82.1748 26.6236 82.344 27.1836C82.5213 27.7436 82.6743 28.2556 82.8113 28.7356L83.7218 31.9276L87.3717 19.0956C87.6456 18.1196 87.7826 17.4156 87.7826 16.9676C87.7826 16.3436 87.5328 15.8156 87.0252 15.3996V15.3916Z" fill="white"/>
<path d="M62.3623 31.9194L60.5091 39.0874C60.9362 39.2794 61.4679 39.3834 62.1125 39.3834C62.9585 39.3834 63.6353 39.1994 64.151 38.8234C64.2638 38.7434 64.3685 38.6554 64.4652 38.5674C64.8117 38.2554 65.0695 37.9194 65.2306 37.5514C65.4321 37.0794 65.7141 36.3034 66.0605 35.2234L67.0918 31.9354L70.5403 20.9514L73.9324 31.8954L74.9637 35.2234C75.3262 36.3354 75.6082 37.1274 75.8016 37.5834C75.9627 37.9434 76.2125 38.2794 76.567 38.5914C76.6637 38.6714 76.7604 38.7514 76.8651 38.8314C77.3727 39.1994 78.0576 39.3834 78.9036 39.3834C79.5401 39.3834 80.0719 39.2874 80.507 39.0954L78.6458 31.9594L78.6297 31.9194L76.559 25.2714L74.593 18.9594C74.2546 17.8874 73.9887 17.1194 73.7873 16.6554C73.5859 16.1914 73.2314 15.7594 72.7157 15.3674C72.2001 14.9754 71.4749 14.7754 70.5403 14.7754C69.6057 14.7754 68.8886 14.9674 68.3568 15.3434C67.825 15.7194 67.4383 16.1754 67.1966 16.6874C66.9629 17.2074 66.689 17.9674 66.3909 18.9594L64.4491 25.2474L62.3623 31.9194Z" fill="white"/>
<path d="M57.8664 15.6078C57.5199 15.0478 56.8351 14.7598 55.8279 14.7598C55.0947 14.7598 54.4743 14.9678 53.9748 15.3918C53.4753 15.8158 53.2255 16.3358 53.2255 16.9518C53.2255 17.4398 53.3625 18.1518 53.6364 19.0798L57.2863 31.9118L58.1967 28.7198C58.511 27.6398 58.7688 26.8478 58.9702 26.3438C59.1797 25.8398 59.5262 25.3998 60.0177 25.0238C60.1627 24.9118 60.3238 24.8238 60.5011 24.7438L58.7769 18.0638C58.519 16.9918 58.2129 16.1758 57.8583 15.6158L57.8664 15.6078Z" fill="white"/>
<path d="M87.3555 44.7601L83.7057 31.9281L82.7952 28.7361C82.6582 28.2561 82.5051 27.7441 82.3279 27.1841C82.1506 26.6241 81.9331 26.1441 81.6591 25.7361C81.3852 25.3281 81.0307 25.0161 80.5875 24.7921C80.5553 24.7761 80.5231 24.7681 80.4989 24.7521C80.0719 24.5601 79.5401 24.4561 78.9036 24.4561C78.0576 24.4561 77.3808 24.6401 76.8651 25.0161C76.7523 25.0961 76.6476 25.1841 76.5509 25.2721L78.6216 31.9201L80.4989 39.0961L82.2231 45.7761C82.481 46.8481 82.7871 47.6641 83.1417 48.2241C83.4881 48.7841 84.173 49.0721 85.1801 49.0721C85.9133 49.0721 86.5337 48.8641 87.0333 48.4401C87.5328 48.0161 87.7826 47.4961 87.7826 46.8801C87.7826 46.3921 87.6456 45.6801 87.3717 44.7521L87.3555 44.7601Z" fill="white"/>
<path d="M62.0964 24.4641C61.4599 24.4641 60.9281 24.5601 60.493 24.7521C60.3158 24.8321 60.1546 24.9201 60.0096 25.0321C59.5181 25.4081 59.1717 25.8561 58.9622 26.3521C58.7607 26.8561 58.4949 27.6481 58.1887 28.7281L57.2782 31.9201L53.6283 44.7521C53.3544 45.7281 53.2174 46.4321 53.2174 46.8801C53.2174 47.5041 53.4672 48.0321 53.9748 48.4481C54.4824 48.8641 55.0947 49.0721 55.8118 49.0721C56.5289 49.0721 57.0849 48.9121 57.4635 48.5841C57.8422 48.2561 58.1081 47.8881 58.2693 47.4801C58.4223 47.0721 58.5915 46.5041 58.7607 45.7761L60.485 39.0881L62.3623 31.9201L64.4249 25.2481C64.3282 25.1681 64.2315 25.0881 64.1268 25.0081C63.6192 24.6401 62.9343 24.4561 62.0883 24.4561L62.0964 24.4641Z" fill="white"/>
<path d="M74.9637 35.2325L73.9323 31.8965L70.4678 42.8965L67.0757 31.9525L66.0444 35.2405C65.6979 36.3205 65.4159 37.0965 65.2145 37.5685C65.0534 37.9365 64.7955 38.2725 64.4491 38.5845L66.415 44.8965C66.7534 45.9685 67.0193 46.7365 67.2207 47.2005C67.4222 47.6645 67.7767 48.0965 68.2923 48.4885C68.808 48.8805 69.5331 49.0805 70.4678 49.0805C71.4024 49.0805 72.1195 48.8885 72.6513 48.5125C73.183 48.1365 73.5698 47.6805 73.8115 47.1685C74.0451 46.6485 74.3191 45.8885 74.6172 44.8965L76.5751 38.6085C76.2206 38.3045 75.9627 37.9605 75.8016 37.5925C75.6002 37.1285 75.3423 36.3445 74.9637 35.2325Z" fill="white"/>
</svg>
