<svg width="161" height="110" viewBox="0 0 161 110" fill="none" xmlns="http://www.w3.org/2000/svg">
<path d="M59.0364 40.2136V31.2119H60.5176V40.2136H59.0364Z" fill="white"/>
<path d="M66.8104 40.2142L64.1884 32.6975H64.1424C64.216 33.8158 64.2436 34.8608 64.2436 35.8417V40.2233H62.9004V31.2217H64.9796L67.4912 38.3808H67.528L70.1132 31.2217H72.2016V40.2233H70.7756V35.7683C70.7756 35.3192 70.7848 34.7417 70.8124 34.0175C70.8308 33.3025 70.8584 32.8625 70.8676 32.7158H70.8216L68.1076 40.2233H66.8012L66.8104 40.2142Z" fill="white"/>
<path d="M77.7032 40.214H76.222V32.4681H73.5632V31.2031H80.3528V32.4681H77.694V40.214H77.7032Z" fill="white"/>
<path d="M59.0364 44.0088H61.7228C62.9648 44.0088 63.8664 44.1921 64.4184 44.5496C64.9704 44.9071 65.2464 45.4846 65.2464 46.2638C65.2464 46.7863 65.1084 47.2263 64.8416 47.5746C64.5656 47.923 64.1792 48.143 63.664 48.2346V48.2988C64.2988 48.418 64.768 48.6563 65.0624 49.0046C65.3568 49.353 65.5132 49.8296 65.5132 50.4346C65.5132 51.2413 65.228 51.8738 64.6668 52.3321C64.0964 52.7905 63.3144 53.0196 62.3024 53.0196H59.0364V44.018V44.0088ZM60.5176 47.7213H61.9436C62.56 47.7213 63.0108 47.6205 63.296 47.428C63.5812 47.2355 63.7192 46.9055 63.7192 46.4288C63.7192 46.0071 63.5628 45.7046 63.2592 45.5121C62.9556 45.3196 62.468 45.228 61.7964 45.228H60.5176V47.7121V47.7213ZM60.5176 48.9221V51.773H62.0908C62.7072 51.773 63.1764 51.6538 63.4892 51.4155C63.802 51.1771 63.9584 50.8105 63.9584 50.2971C63.9584 49.8296 63.802 49.4813 63.48 49.2521C63.158 49.023 62.6704 48.913 62.0172 48.913H60.5176V48.9221Z" fill="white"/>
<path d="M72.0636 53.011L71.8612 52.1219H71.7876C71.5852 52.4427 71.3 52.6902 70.9228 52.8644C70.5456 53.0477 70.1224 53.1394 69.644 53.1394C68.816 53.1394 68.1996 52.9377 67.7856 52.5252C67.3808 52.1127 67.1692 51.4894 67.1692 50.6552V46.2002H68.632V50.3985C68.632 50.921 68.7424 51.3152 68.954 51.5719C69.1656 51.8285 69.506 51.966 69.966 51.966C70.5732 51.966 71.024 51.7827 71.3092 51.4252C71.5944 51.0585 71.7416 50.4535 71.7416 49.601V46.2094H73.2044V53.0202H72.0636V53.011Z" fill="white"/>
<path d="M79.8744 51.0671C79.8744 51.7363 79.6352 52.2405 79.1476 52.598C78.66 52.9555 77.9608 53.1296 77.0592 53.1296C76.1576 53.1296 75.4124 52.9921 74.8604 52.7171V51.4705C75.6608 51.8371 76.4152 52.0205 77.1052 52.0205C77.9976 52.0205 78.4484 51.7546 78.4484 51.2138C78.4484 51.0396 78.4024 50.9021 78.3012 50.783C78.2 50.6638 78.0436 50.5446 77.8136 50.4255C77.5836 50.3063 77.2708 50.1596 76.866 50.0038C76.0748 49.7013 75.5504 49.3988 75.2652 49.0963C74.9892 48.7938 74.8512 48.3996 74.8512 47.9138C74.8512 47.3271 75.0904 46.878 75.5596 46.5571C76.0288 46.2363 76.6728 46.0713 77.4824 46.0713C78.292 46.0713 79.0464 46.2363 79.764 46.5571L79.2948 47.648C78.5588 47.3455 77.9332 47.1896 77.4364 47.1896C76.6728 47.1896 76.2864 47.4096 76.2864 47.8405C76.2864 48.0513 76.3876 48.2346 76.59 48.3813C76.7924 48.528 77.2248 48.7296 77.8964 48.9955C78.4576 49.2155 78.8716 49.408 79.1292 49.5913C79.3868 49.7746 79.5708 49.9763 79.6996 50.2146C79.8284 50.453 79.8836 50.7371 79.8836 51.058L79.8744 51.0671Z" fill="white"/>
<path d="M81.3556 44.3936C81.3556 44.1369 81.4292 43.9352 81.5672 43.7977C81.7052 43.6602 81.9168 43.5869 82.1744 43.5869C82.432 43.5869 82.6252 43.6602 82.7724 43.7977C82.9104 43.9352 82.984 44.1369 82.984 44.3936C82.984 44.6502 82.9104 44.8336 82.7724 44.9802C82.6344 45.1177 82.432 45.1911 82.1744 45.1911C81.9168 45.1911 81.7052 45.1177 81.5672 44.9802C81.4292 44.8427 81.3556 44.6411 81.3556 44.3936ZM82.892 53.0103H81.4384V46.1994H82.892V53.0103Z" fill="white"/>
<path d="M90.988 53.0105H89.5252V48.8213C89.5252 48.2988 89.4148 47.9046 89.2032 47.648C88.9916 47.3913 88.6512 47.263 88.1912 47.263C87.5748 47.263 87.124 47.4463 86.848 47.8038C86.572 48.1613 86.4248 48.7663 86.4248 49.6188V53.0105H84.9712V46.1996H86.112L86.3144 47.0888H86.388C86.5904 46.768 86.8848 46.5113 87.262 46.3371C87.6392 46.163 88.0624 46.0713 88.5224 46.0713C90.16 46.0713 90.9788 46.9055 90.9788 48.5646V53.0013L90.988 53.0105Z" fill="white"/>
<path d="M95.9928 53.1296C94.9256 53.1296 94.0976 52.818 93.4996 52.2038C92.9016 51.5896 92.598 50.7371 92.598 49.6463C92.598 48.5555 92.874 47.6571 93.4352 47.0246C93.9872 46.3921 94.76 46.0713 95.726 46.0713C96.6276 46.0713 97.3452 46.3463 97.8604 46.8871C98.3848 47.4371 98.6424 48.1888 98.6424 49.1421V49.9213H94.0884C94.1068 50.5813 94.2908 51.0946 94.622 51.443C94.9624 51.8005 95.4316 51.9746 96.048 51.9746C96.4528 51.9746 96.83 51.938 97.1796 51.8646C97.5292 51.7913 97.8972 51.663 98.302 51.4888V52.6621C97.9432 52.8271 97.5844 52.9463 97.2256 53.0196C96.8668 53.093 96.4528 53.1205 95.9836 53.1205L95.9928 53.1296ZM95.726 47.1713C95.266 47.1713 94.898 47.318 94.6128 47.6113C94.3368 47.9046 94.1712 48.3263 94.116 48.8855H97.2164C97.2164 48.3263 97.0692 47.8955 96.8116 47.6113C96.5448 47.318 96.186 47.1805 95.726 47.1805V47.1713Z" fill="white"/>
<path d="M104.898 51.0671C104.898 51.7363 104.659 52.2405 104.172 52.598C103.684 52.9555 102.985 53.1296 102.083 53.1296C101.182 53.1296 100.436 52.9921 99.8844 52.7171V51.4705C100.685 51.8371 101.439 52.0205 102.129 52.0205C103.022 52.0205 103.472 51.7546 103.472 51.2138C103.472 51.0396 103.426 50.9021 103.325 50.783C103.224 50.6638 103.068 50.5446 102.838 50.4255C102.608 50.3063 102.295 50.1596 101.89 50.0038C101.099 49.7013 100.574 49.3988 100.289 49.0963C100.013 48.7938 99.8752 48.3996 99.8752 47.9138C99.8752 47.3271 100.114 46.878 100.584 46.5571C101.053 46.2363 101.697 46.0713 102.506 46.0713C103.316 46.0713 104.07 46.2363 104.788 46.5571L104.319 47.648C103.583 47.3455 102.957 47.1896 102.46 47.1896C101.697 47.1896 101.31 47.4096 101.31 47.8405C101.31 48.0513 101.412 48.2346 101.614 48.3813C101.816 48.528 102.249 48.7296 102.92 48.9955C103.482 49.2155 103.896 49.408 104.153 49.5913C104.411 49.7746 104.595 49.9763 104.724 50.2146C104.852 50.453 104.908 50.7371 104.908 51.058L104.898 51.0671Z" fill="white"/>
<path d="M111.053 51.0671C111.053 51.7363 110.814 52.2405 110.326 52.598C109.839 52.9555 109.14 53.1296 108.238 53.1296C107.336 53.1296 106.591 52.9921 106.039 52.7171V51.4705C106.84 51.8371 107.594 52.0205 108.284 52.0205C109.176 52.0205 109.627 51.7546 109.627 51.2138C109.627 51.0396 109.581 50.9021 109.48 50.783C109.379 50.6638 109.222 50.5446 108.992 50.4255C108.762 50.3063 108.45 50.1596 108.045 50.0038C107.254 49.7013 106.729 49.3988 106.444 49.0963C106.168 48.7938 106.03 48.3996 106.03 47.9138C106.03 47.3271 106.269 46.878 106.738 46.5571C107.208 46.2363 107.852 46.0713 108.661 46.0713C109.471 46.0713 110.225 46.2363 110.943 46.5571L110.474 47.648C109.738 47.3455 109.112 47.1896 108.615 47.1896C107.852 47.1896 107.465 47.4096 107.465 47.8405C107.465 48.0513 107.566 48.2346 107.769 48.3813C107.971 48.528 108.404 48.7296 109.075 48.9955C109.636 49.2155 110.05 49.408 110.308 49.5913C110.566 49.7746 110.75 49.9763 110.878 50.2146C111.007 50.453 111.062 50.7371 111.062 51.058L111.053 51.0671Z" fill="white"/>
<path d="M121.284 50.5634C121.284 51.3609 120.989 51.9934 120.41 52.4517C119.83 52.91 119.03 53.1392 118.008 53.1392C116.987 53.1392 116.15 52.9834 115.497 52.6625V51.2692C115.911 51.4617 116.343 51.6175 116.812 51.7275C117.272 51.8375 117.705 51.8925 118.11 51.8925C118.698 51.8925 119.131 51.7825 119.407 51.5625C119.683 51.3425 119.821 51.04 119.821 50.6734C119.821 50.3342 119.692 50.05 119.434 49.8209C119.177 49.5825 118.652 49.3075 117.852 48.9867C117.024 48.6567 116.444 48.2717 116.104 47.85C115.764 47.4192 115.598 46.9059 115.598 46.31C115.598 45.5584 115.865 44.9717 116.398 44.5317C116.932 44.1009 117.65 43.8809 118.56 43.8809C119.471 43.8809 120.29 44.0734 121.146 44.4492L120.676 45.65C119.876 45.3109 119.158 45.1459 118.524 45.1459C118.045 45.1459 117.686 45.2467 117.438 45.4575C117.19 45.6684 117.07 45.9434 117.07 46.2825C117.07 46.5209 117.116 46.7134 117.217 46.8875C117.318 47.0525 117.475 47.2084 117.705 47.355C117.935 47.5017 118.34 47.6942 118.928 47.9417C119.591 48.2167 120.078 48.4734 120.391 48.7117C120.704 48.95 120.925 49.2159 121.072 49.5184C121.219 49.8209 121.293 50.1692 121.293 50.5817L121.284 50.5634Z" fill="white"/>
<path d="M125.635 53.1296C124.605 53.1296 123.814 52.8271 123.28 52.2313C122.746 51.6263 122.47 50.7646 122.47 49.6371C122.47 48.5096 122.756 47.6113 123.317 46.9971C123.878 46.383 124.697 46.0713 125.755 46.0713C126.472 46.0713 127.126 46.2088 127.705 46.4746L127.264 47.6388C126.647 47.4005 126.141 47.2813 125.746 47.2813C124.559 47.2813 123.97 48.0605 123.97 49.628C123.97 50.3888 124.117 50.9663 124.412 51.3513C124.706 51.7363 125.138 51.9288 125.709 51.9288C126.353 51.9288 126.969 51.773 127.549 51.4521V52.7171C127.291 52.873 127.015 52.9738 126.721 53.0471C126.426 53.1113 126.068 53.148 125.644 53.148L125.635 53.1296Z" fill="white"/>
<path d="M135.157 53.0102H133.694V48.821C133.694 48.2985 133.584 47.9044 133.372 47.6477C133.161 47.391 132.82 47.2627 132.36 47.2627C131.753 47.2627 131.302 47.446 131.017 47.8035C130.732 48.1702 130.585 48.7752 130.585 49.6277V53.0102H129.131V43.4219H130.585V45.851C130.585 46.2452 130.557 46.6577 130.511 47.0977H130.603C130.806 46.7677 131.072 46.511 131.431 46.3369C131.781 46.1535 132.195 46.0619 132.664 46.0619C134.32 46.0619 135.148 46.896 135.148 48.5552V52.9919L135.157 53.0102Z" fill="white"/>
<path d="M143.244 49.5919C143.244 50.7011 142.959 51.5719 142.388 52.1952C141.818 52.8186 141.018 53.1302 139.996 53.1302C139.362 53.1302 138.791 52.9836 138.304 52.6994C137.816 52.4152 137.439 52.0027 137.172 51.4619C136.905 50.9211 136.776 50.2977 136.776 49.5919C136.776 48.4919 137.062 47.6211 137.632 47.0069C138.202 46.3836 139.003 46.0811 140.033 46.0811C141.064 46.0811 141.809 46.4019 142.379 47.0344C142.959 47.6669 143.244 48.5194 143.244 49.6011V49.5919ZM138.267 49.5919C138.267 51.1686 138.846 51.9477 140.015 51.9477C141.183 51.9477 141.744 51.1594 141.744 49.5919C141.744 48.0244 141.165 47.2544 140.006 47.2544C139.398 47.2544 138.957 47.4561 138.681 47.8594C138.405 48.2627 138.267 48.8402 138.267 49.5919Z" fill="white"/>
<path d="M150.981 49.5919C150.981 50.7011 150.696 51.5719 150.126 52.1952C149.555 52.8186 148.755 53.1302 147.734 53.1302C147.099 53.1302 146.528 52.9836 146.041 52.6994C145.553 52.4152 145.176 52.0027 144.909 51.4619C144.642 50.9211 144.514 50.2977 144.514 49.5919C144.514 48.4919 144.799 47.6211 145.369 47.0069C145.94 46.3836 146.74 46.0811 147.77 46.0811C148.801 46.0811 149.546 46.4019 150.116 47.0344C150.696 47.6669 150.981 48.5194 150.981 49.6011V49.5919ZM146.004 49.5919C146.004 51.1686 146.584 51.9477 147.752 51.9477C148.92 51.9477 149.482 51.1594 149.482 49.5919C149.482 48.0244 148.902 47.2544 147.743 47.2544C147.136 47.2544 146.694 47.4561 146.418 47.8594C146.142 48.2627 146.004 48.8402 146.004 49.5919Z" fill="white"/>
<path d="M154.1 53.0102H152.646V43.4219H154.1V53.0102Z" fill="white"/>
<path d="M64.9888 65.3031C64.9888 66.5589 64.6484 67.5214 63.9584 68.1814C63.2684 68.8414 62.2932 69.1806 61.0052 69.1806H58.8892V61.5723H61.226C62.4128 61.5723 63.3328 61.9023 63.9952 62.5531C64.6576 63.2131 64.9796 64.1206 64.9796 65.3031H64.9888ZM64.0504 65.3306C64.0504 64.3406 63.802 63.5889 63.3052 63.0848C62.8084 62.5806 62.0632 62.3331 61.0788 62.3331H59.7908V68.4106H60.8764C61.9344 68.4106 62.7348 68.1539 63.2592 67.6314C63.7836 67.1089 64.0596 66.3481 64.0596 65.3306H64.0504Z" fill="white"/>
<path d="M67.3808 63.4697V67.1731C67.3808 67.6406 67.4912 67.9889 67.7028 68.2181C67.9144 68.4472 68.2456 68.5572 68.6964 68.5572C69.2944 68.5572 69.736 68.3922 70.012 68.0714C70.288 67.7506 70.426 67.2097 70.426 66.4764V63.4789H71.2908V69.1806H70.5732L70.4444 68.4197H70.3984C70.2236 68.7039 69.9752 68.9147 69.6624 69.0614C69.3496 69.2081 68.9908 69.2814 68.586 69.2814C67.8868 69.2814 67.3716 69.1164 67.022 68.7864C66.6724 68.4564 66.5068 67.9247 66.5068 67.2006V63.4697H67.3808Z" fill="white"/>
<path d="M75.7988 63.378C76.5532 63.378 77.1328 63.6347 77.556 64.148C77.9792 64.6613 78.1816 65.3855 78.1816 66.3205C78.1816 67.2555 77.97 67.9888 77.556 68.5022C77.1328 69.0247 76.5532 69.2813 75.808 69.2813C75.4308 69.2813 75.0904 69.2172 74.7868 69.0797C74.4832 68.9422 74.2164 68.7313 74.014 68.4471H73.9496L73.7656 69.1805H73.14V61.0771H74.0048V63.048C74.0048 63.488 73.9864 63.8822 73.9588 64.2305H74.0048C74.4096 63.6622 75.0076 63.378 75.7988 63.378ZM75.67 64.1022C75.0812 64.1022 74.6488 64.2672 74.3912 64.6063C74.1336 64.9455 73.9956 65.5138 73.9956 66.3205C73.9956 67.1271 74.1336 67.6955 74.4004 68.0438C74.6672 68.3922 75.0996 68.5572 75.6884 68.5572C76.222 68.5572 76.6176 68.3647 76.8752 67.9797C77.1328 67.5947 77.2708 67.0355 77.2708 66.3113C77.2708 65.5871 77.142 65.0188 76.8752 64.6521C76.6084 64.2855 76.2128 64.1022 75.6608 64.1022H75.67Z" fill="white"/>
<path d="M83.2048 69.1804L83.03 68.3646H82.984C82.6988 68.7221 82.4136 68.9604 82.1284 69.0888C81.8432 69.2171 81.4936 69.2813 81.0612 69.2813C80.4908 69.2813 80.0492 69.1346 79.7272 68.8413C79.4052 68.5479 79.2396 68.1354 79.2396 67.5946C79.2396 66.4396 80.1688 65.8346 82.018 65.7796L82.9932 65.7521V65.3946C82.9932 64.9454 82.892 64.6154 82.6988 64.4046C82.5056 64.1938 82.1928 64.0838 81.7696 64.0838C81.2912 64.0838 80.7484 64.2304 80.1504 64.5238L79.8836 63.8638C80.1688 63.7079 80.4724 63.5888 80.8128 63.5063C81.1532 63.4238 81.4844 63.3779 81.8248 63.3779C82.5056 63.3779 83.0116 63.5246 83.3428 63.8271C83.674 64.1296 83.8396 64.6154 83.8396 65.2754V69.1713H83.1956L83.2048 69.1804ZM81.2452 68.5663C81.788 68.5663 82.2112 68.4196 82.5148 68.1263C82.8184 67.8329 82.9748 67.4204 82.9748 66.8888V66.3754L82.11 66.4121C81.42 66.4396 80.9232 66.5404 80.6196 66.7329C80.316 66.9254 80.1596 67.2188 80.1596 67.6129C80.1596 67.9246 80.2516 68.1629 80.4448 68.3279C80.638 68.4929 80.8956 68.5754 81.2452 68.5754V68.5663Z" fill="white"/>
<path d="M85.56 61.9297C85.56 61.728 85.606 61.5905 85.7072 61.4988C85.8084 61.4072 85.928 61.3613 86.0752 61.3613C86.2224 61.3613 86.3328 61.4072 86.434 61.4988C86.5352 61.5905 86.5812 61.7372 86.5812 61.9297C86.5812 62.1222 86.5352 62.2688 86.434 62.3605C86.3328 62.4522 86.2132 62.5072 86.0752 62.5072C85.928 62.5072 85.8084 62.4613 85.7072 62.3605C85.606 62.2597 85.56 62.1222 85.56 61.9297ZM86.5076 69.1805H85.6428V63.4788H86.5076V69.1805Z" fill="white"/>
<path d="M21.942 61.0137H19.4764V69.7312H21.942V61.0137Z" fill="white"/>
<path d="M33.4052 61.0137H32.6508H30.912L29.164 66.532H29.118H29.0628L27.324 61.0137H25.5852H24.8308H23.4324V69.722H25.852L25.6404 63.0578H25.7508L28.0968 69.722H29.118H30.1392L32.4852 63.0578H32.5864L32.384 69.722H34.8036V61.0137H33.4052Z" fill="white"/>
<path d="M35.65 61.0137V63.0028H38.0144V69.722H40.4708V63.012H42.9732V61.0137H35.65Z" fill="white"/>
<path d="M43.7552 45.2287L39.3576 31.167H36.4044L40.4064 46.3378C40.9492 50.0228 37.8212 49.6745 37.8212 49.6745H32.6692V48.1987H30.866H29.0536V49.6837H23.9016C23.9016 49.6837 20.7736 50.032 21.3164 46.347L25.3184 31.1762H22.3744L17.9768 45.2378C17.9768 45.2378 16.5968 48.8862 18.5748 51.187C20.562 53.4878 22.816 53.4512 23.7268 53.4512H29.0536V58.6853H32.6784V53.4512H38.0052C38.9068 53.4512 41.1608 53.4787 43.148 51.187C45.1352 48.8862 43.7552 45.2378 43.7552 45.2378" fill="white"/>
<path d="M36.3032 47.2632C36.3032 47.4649 36.1468 47.6299 35.9536 47.6299H25.7876C25.5944 47.6299 25.438 47.4649 25.438 47.2632V46.6216C25.438 46.4199 25.5944 46.2549 25.7876 46.2549H35.9536C36.1468 46.2549 36.3032 46.4199 36.3032 46.6216V47.2632Z" fill="white"/>
<path d="M33.5524 44.5039H28.1796V45.6131H33.5524V44.5039Z" fill="white"/>
<path d="M30.5808 43.6521C30.5808 43.6521 32.016 42.5338 32.6876 40.5538C33.3592 38.5738 32.9268 37.2354 35.4568 36.1904C35.4568 36.1904 35.2636 36.5754 35.4568 38.6288C35.65 40.6821 35.4844 41.5896 33.8744 42.8913C33.8744 42.8913 32.2552 43.9729 30.5808 43.6521Z" fill="white"/>
<path d="M27.0664 35.6123C27.0664 35.6123 25.9348 37.9681 26.2936 39.8656C26.6524 41.7723 27.2964 43.6056 29.7436 43.4315C29.7436 43.4315 30.8844 43.3581 31.0868 42.1023C31.2892 40.8465 30.8936 40.5348 29.8908 39.5265C28.8788 38.5181 27.784 37.684 27.0756 35.6123" fill="white"/>
<path d="M28.5844 31.9824C28.5844 31.9824 27.3608 33.3391 27.7748 35.7591C27.7748 35.7591 27.9864 37.1433 29.44 38.2708C30.8936 39.3983 31.6756 40.3424 31.6756 41.4058C31.6756 41.4058 32.4116 40.3974 32.568 38.4816C32.7244 36.5658 31.7216 35.1266 31.2984 34.6041C30.866 34.0816 28.9892 32.7891 28.5844 31.9824Z" fill="white"/>
<path d="M33.166 30.8369C33.166 30.8369 31.6756 32.1936 31.74 33.6052C31.7952 35.0261 32.706 35.9886 32.9084 36.4286C33.1108 36.8686 33.0556 37.3636 33.0556 37.3636C33.0556 37.3636 33.9388 36.9144 34.2516 35.5486C34.5644 34.1827 34.2424 33.5869 33.6168 32.4044C33.0004 31.2219 33.166 30.8369 33.166 30.8369Z" fill="white"/>
<path d="M30.774 25.6846C30.774 25.6846 28.9248 29.0946 29.2192 31.1662C29.5228 33.2379 31.0592 33.5404 31.0592 33.5404C31.0592 33.5404 32.4116 32.5046 32.1264 29.9929C32.1264 29.9929 31.97 29.0579 31.5652 28.1412C31.1604 27.2154 30.7832 26.1704 30.7648 25.6846" fill="white"/>
<path d="M51.3912 31.167H51.0416V69.722H51.3912V31.167Z" fill="white"/>
<path fill-rule="evenodd" clip-rule="evenodd" d="M15.3088 79.924C15.3088 82.3532 13.4228 84.3149 11.1044 84.3149C8.78599 84.3149 6.89999 82.344 6.89999 79.924C6.89999 77.504 8.77679 75.5332 11.1044 75.5332C13.432 75.5332 15.3088 77.504 15.3088 79.924Z" fill="white"/>
<path fill-rule="evenodd" clip-rule="evenodd" d="M28.6672 79.924C28.6672 82.3532 26.7812 84.3149 24.4628 84.3149C22.1444 84.3149 20.2584 82.344 20.2584 79.924C20.2584 77.504 22.1444 75.5332 24.4628 75.5332C26.7812 75.5332 28.6672 77.504 28.6672 79.924Z" fill="white"/>
<path fill-rule="evenodd" clip-rule="evenodd" d="M42.0256 79.924C42.0256 82.3532 40.1396 84.3149 37.8212 84.3149C35.5028 84.3149 33.6168 82.344 33.6168 79.924C33.6168 77.504 35.5028 75.5332 37.8212 75.5332C40.1396 75.5332 42.0256 77.504 42.0256 79.924Z" fill="white"/>
<path fill-rule="evenodd" clip-rule="evenodd" d="M55.3932 79.924C55.3932 82.3532 53.5072 84.3149 51.1888 84.3149C48.8704 84.3149 46.9844 82.344 46.9844 79.924C46.9844 77.504 48.8704 75.5332 51.1888 75.5332C53.5072 75.5332 55.3932 77.504 55.3932 79.924Z" fill="white"/>
</svg>
