<svg width="161" height="110" viewBox="0 0 161 110" fill="none" xmlns="http://www.w3.org/2000/svg">
<path d="M69.3128 41.4795H64.0504C63.6824 41.4795 63.3604 41.782 63.3604 42.1395V57.0628C63.3604 57.4203 63.6732 57.7228 64.0504 57.7228H64.492C64.9244 57.7228 65.2556 57.4387 65.2556 57.0628V52.2045H69.3404C72.5788 52.2045 75.2192 49.7845 75.2192 46.8053C75.2192 43.8262 72.5696 41.4795 69.322 41.4795H69.3128ZM65.2556 43.2578H69.2392C71.4932 43.2578 73.324 44.8437 73.324 46.787C73.324 48.7303 71.5024 50.4537 69.2668 50.4537H65.2556V43.2578Z" fill="white"/>
<path d="M93.3156 41.4796H83.4992C83.1312 41.4796 82.8092 41.7821 82.8092 42.1396V57.063C82.8092 57.4205 83.122 57.723 83.4992 57.723H93.3156C93.6836 57.723 94.0056 57.4205 94.0056 57.063V56.7055C94.0056 56.348 93.6928 56.0455 93.3156 56.0455H84.732V50.2246H92.1196C92.4876 50.2246 92.8096 49.9221 92.8096 49.5646V49.1888C92.8096 48.8313 92.4968 48.5288 92.1196 48.5288H84.732V43.148H93.3156C93.6836 43.148 94.0056 42.8455 94.0056 42.488V42.1121C94.0056 41.7546 93.6928 41.4521 93.3156 41.4521V41.4796Z" fill="white"/>
<path d="M108.836 41.4977C108.707 41.2686 108.496 41.1494 108.192 41.1494H108.118C107.861 41.1494 107.612 41.2869 107.493 41.5069L99.958 56.9252V56.9436C99.8384 57.2094 99.9212 57.4019 99.9764 57.4844C100.032 57.5669 100.179 57.7136 100.464 57.7136H101.145C101.476 57.7136 101.715 57.5027 101.816 57.3011L103.675 53.4327H112.562L114.448 57.3194C114.549 57.5027 114.779 57.7044 115.11 57.7044H115.745C115.984 57.7044 116.159 57.6311 116.27 57.4752C116.343 57.3744 116.408 57.2002 116.316 56.9436L108.827 41.4794L108.836 41.4977ZM111.798 51.8469H104.475L108.174 44.1011L111.808 51.8469H111.798Z" fill="white"/>
<path d="M135.847 46.5853C135.847 43.7253 133.29 41.4795 130.024 41.4795H123.952C123.565 41.4795 123.262 41.7637 123.262 42.1395V57.0628C123.262 57.4203 123.574 57.7228 123.952 57.7228H124.393C124.826 57.7228 125.157 57.4387 125.157 57.0628V51.737H129.288C129.536 51.737 129.757 51.737 129.996 51.7278L133.418 57.3287C133.566 57.5853 133.786 57.7228 134.081 57.7228H134.835C135.074 57.7228 135.277 57.6128 135.378 57.4203C135.488 57.2187 135.461 56.962 135.323 56.7603L132.002 51.4345C134.32 50.6553 135.838 48.767 135.838 46.5945L135.847 46.5853ZM133.934 46.5853C133.934 48.5103 132.158 50.0687 129.968 50.0687H125.175V43.2303H129.941C132.14 43.2303 133.924 44.7337 133.924 46.5853H133.934Z" fill="white"/>
<path d="M153.41 56.0545H145.976V42.1395C145.976 41.782 145.673 41.4795 145.314 41.4795H144.771C144.403 41.4795 144.081 41.782 144.081 42.1395V57.0628C144.081 57.4203 144.394 57.7228 144.771 57.7228H153.41C153.806 57.7228 154.1 57.457 154.1 57.1087V56.7145C154.1 56.1187 153.622 56.0545 153.41 56.0545Z" fill="white"/>
<path d="M72.8088 63.5707H71.1896C71.0424 63.5707 70.9228 63.699 70.9228 63.8457V68.4932C70.9228 68.649 71.0424 68.7682 71.1896 68.7682H72.8088C74.2532 68.7682 75.4308 67.5949 75.4308 66.1557C75.4308 64.7165 74.2532 63.5615 72.8088 63.5615V63.5707ZM72.7168 67.824H71.9256V64.524H72.7168C73.6736 64.524 74.3636 65.2115 74.3636 66.1649C74.3636 67.1182 73.6736 67.824 72.7168 67.824Z" fill="white"/>
<path d="M81.3924 63.5713H78.568C78.4116 63.5713 78.292 63.6996 78.292 63.8463V68.4938C78.292 68.6496 78.4208 68.7688 78.568 68.7688H81.3924C81.5488 68.7688 81.6684 68.6405 81.6684 68.4938V68.1088C81.6684 67.953 81.5396 67.8338 81.3924 67.8338H79.304V66.6055H81.0428C81.1992 66.6055 81.3188 66.4771 81.3188 66.3305V65.9363C81.3188 65.7896 81.19 65.6613 81.0428 65.6613H79.304V64.5155H81.3924C81.5488 64.5155 81.6684 64.3871 81.6684 64.2405V63.8463C81.6684 63.6905 81.5396 63.5713 81.3924 63.5713Z" fill="white"/>
<path d="M88.6972 63.571H88.2464C88.09 63.571 87.9704 63.6993 87.9704 63.846V66.7977L85.1092 63.5068H84.87C84.7136 63.5068 84.594 63.626 84.594 63.7727V68.5027C84.594 68.6493 84.7228 68.7777 84.87 68.7777H85.3116C85.468 68.7777 85.5876 68.6493 85.5876 68.5027V65.4685L88.4488 68.851H88.6972C88.8536 68.851 88.9732 68.7318 88.9732 68.5852V63.8552C88.9732 63.7085 88.8444 63.5802 88.6972 63.5802V63.571Z" fill="white"/>
<path d="M94.898 63.5713H91.862C91.7056 63.5713 91.586 63.6996 91.586 63.8463V64.2405C91.586 64.3963 91.7148 64.5155 91.862 64.5155H92.8648V68.4938C92.8648 68.6405 92.9936 68.7688 93.1408 68.7688H93.61C93.7572 68.7688 93.886 68.6405 93.886 68.4938V64.5155H94.8888C95.0452 64.5155 95.1648 64.3871 95.1648 64.2405V63.8463C95.1648 63.6905 95.036 63.5713 94.8888 63.5713H94.898Z" fill="white"/>
<path d="M99.5992 63.6627C99.5532 63.5802 99.4428 63.5068 99.3508 63.5068H99.2772C99.1852 63.5068 99.0748 63.5802 99.0288 63.6718L96.8668 68.4018C96.83 68.4935 96.83 68.5852 96.8852 68.6677C96.9312 68.741 97.0232 68.7868 97.1244 68.7868H97.566C97.7224 68.7868 97.8236 68.686 97.8604 68.5943C97.934 68.4385 97.9984 68.2827 98.072 68.1177C98.1364 67.9802 98.1916 67.8518 98.256 67.7143H100.372L100.768 68.5943C100.823 68.7135 100.924 68.7868 101.062 68.7868H101.504C101.605 68.7868 101.688 68.741 101.743 68.6677C101.789 68.5943 101.798 68.4935 101.761 68.4018L99.6084 63.6718L99.5992 63.6627ZM98.6516 66.8252L99.3048 65.3585L99.9672 66.8252H98.6516Z" fill="white"/>
<path d="M107.116 67.8426H105.349V63.8551C105.349 63.7084 105.22 63.5801 105.073 63.5801H104.604C104.448 63.5801 104.328 63.7084 104.328 63.8551V68.5026C104.328 68.6584 104.457 68.7776 104.604 68.7776H107.116C107.272 68.7776 107.392 68.6492 107.392 68.5026V68.1176C107.392 67.9617 107.263 67.8426 107.116 67.8426Z" fill="white"/>
<path d="M117.346 67.4118C117.245 67.3293 117.107 67.3293 116.996 67.4118C116.702 67.641 116.362 67.8427 115.874 67.8427C114.972 67.8427 114.236 67.091 114.236 66.1652C114.236 65.2393 114.963 64.4785 115.865 64.4785C116.26 64.4785 116.674 64.6435 116.987 64.9093C117.07 64.9918 117.144 65.001 117.199 65.001C117.245 65.001 117.318 64.9735 117.374 64.9093L117.686 64.5977C117.742 64.5427 117.769 64.4693 117.769 64.396C117.769 64.3227 117.732 64.2493 117.668 64.1943C117.116 63.7177 116.564 63.5068 115.865 63.5068C114.384 63.5068 113.178 64.7077 113.178 66.1835C113.178 67.6593 114.384 68.851 115.865 68.851C116.564 68.851 117.19 68.6035 117.677 68.1268C117.732 68.0718 117.769 67.9893 117.76 67.9068C117.76 67.8335 117.723 67.7693 117.677 67.7327L117.346 67.4118Z" fill="white"/>
<path d="M123.363 67.8426H121.596V63.8551C121.596 63.7084 121.468 63.5801 121.32 63.5801H120.851C120.695 63.5801 120.575 63.7084 120.575 63.8551V68.5026C120.575 68.6584 120.704 68.7776 120.851 68.7776H123.363C123.519 68.7776 123.639 68.6492 123.639 68.5026V68.1176C123.639 67.9617 123.51 67.8426 123.363 67.8426Z" fill="white"/>
<path d="M126.978 63.5713H126.509C126.357 63.5713 126.233 63.6944 126.233 63.8463V68.503C126.233 68.6548 126.357 68.778 126.509 68.778H126.978C127.131 68.778 127.254 68.6548 127.254 68.503V63.8463C127.254 63.6944 127.131 63.5713 126.978 63.5713Z" fill="white"/>
<path d="M134.578 63.571H134.127C133.97 63.571 133.851 63.6993 133.851 63.846V66.7977L130.99 63.5068H130.75C130.594 63.5068 130.474 63.626 130.474 63.7727V68.5027C130.474 68.6493 130.603 68.7777 130.75 68.7777H131.192C131.348 68.7777 131.468 68.6493 131.468 68.5027V65.4685L134.329 68.851H134.578C134.734 68.851 134.854 68.7318 134.854 68.5852V63.8552C134.854 63.7085 134.725 63.5802 134.578 63.5802V63.571Z" fill="white"/>
<path d="M138.828 63.5713H138.359C138.206 63.5713 138.083 63.6944 138.083 63.8463V68.503C138.083 68.6548 138.206 68.778 138.359 68.778H138.828C138.98 68.778 139.104 68.6548 139.104 68.503V63.8463C139.104 63.6944 138.98 63.5713 138.828 63.5713Z" fill="white"/>
<path d="M146.473 67.7327L146.142 67.4118C146.041 67.3293 145.903 67.3293 145.792 67.4118C145.498 67.641 145.158 67.8427 144.67 67.8427C143.768 67.8427 143.032 67.091 143.032 66.1652C143.032 65.2393 143.759 64.4785 144.661 64.4785C145.056 64.4785 145.47 64.6435 145.783 64.9093C145.866 64.9918 145.94 65.001 145.995 65.001C146.041 65.001 146.114 64.9735 146.17 64.9093L146.482 64.5977C146.538 64.5427 146.565 64.4693 146.565 64.396C146.565 64.3227 146.528 64.2493 146.464 64.1943C145.912 63.7177 145.36 63.5068 144.661 63.5068C143.18 63.5068 141.974 64.7077 141.974 66.1835C141.974 67.6593 143.18 68.851 144.661 68.851C145.36 68.851 145.986 68.6035 146.473 68.1268C146.528 68.0718 146.565 67.9893 146.556 67.9068C146.556 67.8335 146.519 67.7693 146.473 67.7327Z" fill="white"/>
<path d="M29.854 41.4238C27.9036 41.4238 26.3212 43.0005 26.3212 44.9438C26.3212 46.8872 27.9036 48.4638 29.854 48.4638C31.8044 48.4638 33.3868 46.8872 33.3868 44.9438C33.3868 43.0005 31.8044 41.4238 29.854 41.4238ZM29.854 42.8172C31.0316 42.8172 31.9884 43.7705 31.9884 44.9438C31.9884 46.1172 31.0316 47.0705 29.854 47.0705C28.6764 47.0705 27.7196 46.1172 27.7196 44.9438C27.7196 43.7705 28.6764 42.8172 29.854 42.8172Z" fill="white"/>
<path d="M31.2524 59.2623C34.6656 54.3764 38.1984 49.3256 42.3108 49.3256C42.5224 49.3256 42.6972 49.1514 42.6972 48.9406C42.6972 48.6289 42.5592 48.3264 42.32 48.1156C42.0808 47.9048 41.768 47.8131 41.446 47.8498C36.9472 48.4364 33.4144 53.4964 29.992 58.3914L29.8448 58.6023L29.6976 58.3914C26.2752 53.4964 22.7424 48.4364 18.2436 47.8498C17.9308 47.8039 17.6088 47.9048 17.3696 48.1156C17.1304 48.3264 16.9924 48.6289 16.9924 48.9406C16.9924 49.0414 17.0292 49.1423 17.1028 49.2064C17.1764 49.2798 17.2684 49.3164 17.3696 49.3164C21.482 49.3164 25.0148 54.3673 28.428 59.2623L28.888 59.9223C27.6276 61.7006 26.5328 63.1581 25.4196 64.3681C24.5088 63.2131 23.6256 61.8381 22.7056 60.3898C21.3348 58.2448 19.918 56.0264 18.2344 54.3123C16.5048 52.5431 14.7292 51.5714 12.8248 51.3514C12.512 51.3148 12.19 51.4156 11.9508 51.6264C11.7116 51.8373 11.5828 52.1398 11.5828 52.4514C11.5828 52.6623 11.7576 52.8364 11.9692 52.8364C16.054 52.8364 18.7772 57.0989 21.4176 61.2239C22.402 62.7639 23.3312 64.2214 24.334 65.4681C22.9448 66.7148 21.6844 67.3198 20.4792 67.3198C18.2252 67.3198 16.7716 64.7989 15.2352 62.1314C14.3152 60.5364 13.3584 58.8864 12.1532 57.6031C10.9388 56.3198 9.6232 55.5956 8.142 55.3848C7.8292 55.3481 7.5164 55.4489 7.2864 55.6506C7.0656 55.8431 6.9368 56.1089 6.9184 56.3931C6.9184 56.4114 6.9184 56.4298 6.9184 56.4573C6.9184 56.4573 6.9184 56.4664 6.9184 56.4756C6.9184 56.4939 6.9184 56.5031 6.9184 56.5214C6.9184 56.5214 6.9184 56.5398 6.9184 56.5489C6.9184 56.5673 6.9276 56.5856 6.9368 56.6039C6.9368 56.6039 6.9368 56.6131 6.9368 56.6223C6.9368 56.6406 6.9552 56.6589 6.9644 56.6773C6.9644 56.6773 6.9644 56.6773 6.9644 56.6864C6.9736 56.7048 6.992 56.7231 7.0104 56.7414C7.0656 56.7964 7.13 56.8331 7.2036 56.8514C7.2036 56.8514 7.2036 56.8514 7.2128 56.8514C7.2312 56.8514 7.2496 56.8514 7.2772 56.8514C10.4144 56.8514 12.1808 59.9131 13.9012 62.8831C14.7568 64.3681 15.5664 65.7706 16.56 66.8614C17.756 68.1906 19.044 68.8322 20.4792 68.8322C21.4912 68.8322 22.5124 68.5298 23.5336 67.9431C24.4168 67.4389 25.3 66.7148 26.2476 65.7339C27.9588 63.9648 29.5596 61.6731 31.2524 59.2439V59.2623Z" fill="white"/>
<path d="M38.2628 61.2236C40.894 57.0987 43.6264 52.8361 47.7112 52.8361C47.8124 52.8361 47.9136 52.7903 47.978 52.717C48.0516 52.6436 48.0884 52.5428 48.0884 52.442C48.0884 52.1303 47.9504 51.8278 47.7204 51.6261C47.4812 51.4153 47.1684 51.3145 46.8556 51.3511C44.942 51.5711 43.1664 52.5428 41.4368 54.312C39.7624 56.0261 38.3456 58.2445 36.9656 60.3895C36.0456 61.8378 35.1624 63.2036 34.2516 64.3586C33.4696 63.4786 32.1908 61.8287 31.648 61.132C31.5192 60.967 31.2708 60.9761 31.1512 61.1411C31.004 61.3428 30.866 61.5445 30.7188 61.7462C30.5624 61.957 30.5716 62.2503 30.728 62.452C31.3444 63.2495 32.4944 64.7162 33.2212 65.5228C32.0436 66.7328 30.9488 67.3011 29.8172 67.3011C29.0168 67.3011 28.2348 67.0078 27.4252 66.412C27.2688 66.302 27.0572 66.3203 26.9284 66.4486C26.772 66.6045 26.5696 66.8153 26.3856 66.9895C26.22 67.1545 26.2384 67.4295 26.4224 67.567C27.5264 68.4103 28.6396 68.8228 29.8172 68.8228C33.3592 68.8228 35.7236 65.1195 38.2352 61.1962L38.2628 61.2236Z" fill="white"/>
<path d="M52.7804 56.4937C52.7804 56.0446 52.5044 55.6229 52.0444 55.4579C51.8696 55.3937 51.6856 55.3846 51.5108 55.4121C50.048 55.6229 48.7416 56.3471 47.5364 57.6212C46.3312 58.8954 45.3744 60.5454 44.4544 62.1496C42.918 64.8171 41.4644 67.3379 39.2104 67.3379C38.3456 67.3379 37.444 67.0171 36.4872 66.3754C36.2848 66.2379 36.018 66.2837 35.8616 66.4671C35.7328 66.6137 35.604 66.7696 35.4752 66.9071C35.2912 67.1179 35.328 67.4479 35.558 67.6037C35.7604 67.7412 35.9536 67.8696 36.1468 67.9796C37.168 68.5662 38.1892 68.8687 39.2012 68.8687C40.6456 68.8687 41.9244 68.2271 43.1204 66.8979C44.1048 65.8071 44.9144 64.4046 45.7792 62.9196C47.4904 59.9587 49.2568 56.8971 52.3848 56.8879C52.5964 56.8879 52.7804 56.7229 52.7804 56.5121V56.4937Z" fill="white"/>
</svg>
