<svg width="145" height="100" viewBox="0 0 145 100" fill="none" xmlns="http://www.w3.org/2000/svg">
<path d="M24.0286 27.833H6.21429V55.7413H24.0286V27.833Z" fill="white"/>
<path d="M34.0709 27.833H26.158V35.7913H34.0709V27.833Z" fill="white"/>
<path d="M34.0709 37.8076H26.158V45.7659H34.0709V37.8076Z" fill="white"/>
<path d="M34.0709 47.7832H26.158V55.7415H34.0709V47.7832Z" fill="white"/>
<path d="M64.1563 50.9581V55.7415H44.7843V27.6748H63.8083V32.4581H50.2114V39.2165H61.9606V43.6415H50.2114V50.9498H64.1646L64.1563 50.9581Z" fill="white"/>
<path d="M69.3432 55.7415V27.6748H79.4849C81.7635 27.6748 83.7603 28.0415 85.4755 28.7831C87.1906 29.5248 88.624 30.5248 89.7757 31.7831C90.9275 33.0498 91.7892 34.5331 92.3692 36.2331C92.9409 37.9331 93.2309 39.7415 93.2309 41.6665C93.2309 43.7998 92.9077 45.7331 92.2697 47.4581C91.6235 49.1831 90.7037 50.6581 89.5023 51.8831C88.3009 53.1081 86.8509 54.0581 85.1606 54.7331C83.4703 55.4081 81.5812 55.7415 79.4849 55.7415H69.3432ZM87.7789 41.6665C87.7789 40.3248 87.5966 39.0831 87.232 37.9498C86.8675 36.8165 86.3289 35.8415 85.6246 35.0248C84.9203 34.2081 84.042 33.5748 83.0146 33.1248C81.9789 32.6748 80.8106 32.4498 79.5015 32.4498H74.7869V50.9498H79.5015C80.8355 50.9498 82.0203 50.7165 83.056 50.2415C84.0917 49.7665 84.9535 49.1165 85.6495 48.2831C86.3455 47.4498 86.8757 46.4748 87.2403 45.3415C87.6049 44.2081 87.7872 42.9831 87.7872 41.6665H87.7789Z" fill="white"/>
<path d="M121.179 55.7415V37.1665L113.995 55.8165H111.037L103.845 37.1665V55.7415H98.4177V27.6748H104.234L112.487 49.1331L120.822 27.6748H126.597V55.7415H121.17H121.179Z" fill="white"/>
<path d="M133.359 55.7415V27.6748H138.786V55.7415H133.359Z" fill="white"/>
<path d="M15.6351 66.6006L16.6874 70.9423L17.7563 66.6006H18.792L19.8691 70.9173L20.9877 66.6006H21.9074L20.3166 72.1089H19.3637L18.2451 67.8423L17.168 72.1089H16.2151L14.6326 66.6006H15.6434H15.6351Z" fill="white"/>
<path d="M23.722 66.6006L24.7743 70.9423L25.8431 66.6006H26.8788L27.956 70.9173L29.0746 66.6006H29.9943L28.4034 72.1089H27.4506L26.332 67.8423L25.2548 72.1089H24.302L22.7194 66.6006H23.7303H23.722Z" fill="white"/>
<path d="M31.8171 66.6006L32.8694 70.9423L33.9383 66.6006H34.974L36.0511 70.9173L37.1697 66.6006H38.0894L36.4986 72.1089H35.5457L34.4271 67.8423L33.35 72.1089H32.3971L30.8146 66.6006H31.8254H31.8171Z" fill="white"/>
<path d="M39.1334 70.9922H40.2023V72.1172H39.1334V70.9922Z" fill="white"/>
<path d="M45.7289 66.7506C46.0934 66.9339 46.3669 67.1756 46.5574 67.4673C46.7397 67.7423 46.864 68.0673 46.922 68.4423C46.9717 68.6923 47.0049 69.1006 47.0049 69.6589H43.0194C43.036 70.2173 43.1686 70.6673 43.4089 71.0089C43.6491 71.3506 44.0303 71.5173 44.544 71.5173C45.0246 71.5173 45.4057 71.3589 45.6874 71.0339C45.8449 70.8506 45.9609 70.6339 46.0271 70.3839H46.9303C46.9054 70.5839 46.8309 70.8089 46.69 71.0589C46.5491 71.3089 46.4083 71.5089 46.2426 71.6673C45.9691 71.9423 45.6211 72.1256 45.2151 72.2256C44.9914 72.2839 44.7429 72.3089 44.4694 72.3089C43.79 72.3089 43.2183 72.0589 42.746 71.5589C42.2737 71.0589 42.0417 70.3589 42.0417 69.4589C42.0417 68.5589 42.282 67.8589 42.7543 67.3006C43.2266 66.7506 43.848 66.4756 44.6186 66.4756C45.008 66.4756 45.3809 66.5673 45.7454 66.7506H45.7289ZM46.0603 68.9173C46.0189 68.5173 45.936 68.1923 45.8034 67.9589C45.5549 67.5089 45.1323 67.2923 44.5523 67.2923C44.1297 67.2923 43.7817 67.4423 43.5 67.7506C43.2183 68.0589 43.0691 68.4506 43.0443 68.9173H46.0603Z" fill="white"/>
<path d="M51.7112 66.7671C51.8769 66.8671 52.0592 67.0504 52.2663 67.3087V64.5254H53.1529V72.1087H52.3243V71.3421C52.1089 71.6837 51.8603 71.9254 51.562 72.0754C51.272 72.2254 50.9323 72.3004 50.5594 72.3004C49.9546 72.3004 49.4243 72.0421 48.9769 71.5254C48.5294 71.0087 48.3057 70.3254 48.3057 69.4671C48.3057 68.6671 48.5046 67.9671 48.9106 67.3837C49.3166 66.8004 49.8966 66.5004 50.6506 66.5004C51.0649 66.5004 51.4212 66.5921 51.7029 66.7671H51.7112ZM49.6563 70.9004C49.9049 71.3004 50.3026 71.5004 50.8494 71.5004C51.272 71.5004 51.62 71.3171 51.8934 70.9504C52.1669 70.5837 52.3077 70.0504 52.3077 69.3587C52.3077 68.6671 52.1669 68.1504 51.8852 67.8087C51.6034 67.4754 51.2554 67.3087 50.8412 67.3087C50.3772 67.3087 50.0043 67.4837 49.7143 67.8421C49.4243 68.2004 49.2834 68.7254 49.2834 69.4171C49.2834 70.0087 49.4077 70.5004 49.6563 70.9004Z" fill="white"/>
<path d="M55.0503 66.6001H55.9617V67.3835C56.1771 67.1085 56.376 66.9168 56.5583 66.7918C56.8649 66.5835 57.2046 66.4751 57.594 66.4751C58.0331 66.4751 58.3811 66.5835 58.6463 66.8001C58.7954 66.9251 58.9363 67.1085 59.0523 67.3418C59.2594 67.0501 59.4997 66.8251 59.7731 66.6835C60.0466 66.5418 60.3614 66.4668 60.7011 66.4668C61.4386 66.4668 61.9357 66.7335 62.2091 67.2668C62.35 67.5585 62.4246 67.9418 62.4246 68.4335V72.1001H61.4717V68.2751C61.4717 67.9085 61.3806 67.6585 61.1983 67.5168C61.016 67.3751 60.7923 67.3085 60.5272 67.3085C60.1626 67.3085 59.856 67.4335 59.5909 67.6751C59.3257 67.9168 59.2014 68.3251 59.2014 68.8918V72.1001H58.2651V68.5001C58.2651 68.1251 58.2237 67.8501 58.1326 67.6835C57.9917 67.4251 57.7349 67.3001 57.3537 67.3001C57.0057 67.3001 56.6909 67.4335 56.4009 67.7085C56.1109 67.9835 55.97 68.4668 55.97 69.1835V72.1085H55.0503V66.6001Z" fill="white"/>
<path d="M64.3054 64.5508H65.2417V65.6008H64.3054V64.5508ZM64.3054 66.6258H65.2417V72.1091H64.3054V66.6258Z" fill="white"/>
<path d="M66.9154 68.7002H69.484V69.6502H66.9154V68.7002Z" fill="white"/>
<path d="M71.166 66.6001H72.0774V67.3835C72.2928 67.1085 72.4917 66.9168 72.674 66.7918C72.9806 66.5835 73.3203 66.4751 73.7097 66.4751C74.1488 66.4751 74.4968 66.5835 74.762 66.8001C74.9111 66.9251 75.052 67.1085 75.168 67.3418C75.3751 67.0501 75.6154 66.8251 75.8888 66.6835C76.1623 66.5418 76.4771 66.4668 76.8168 66.4668C77.5543 66.4668 78.0514 66.7335 78.3248 67.2668C78.4657 67.5585 78.5403 67.9418 78.5403 68.4335V72.1001H77.5874V68.2751C77.5874 67.9085 77.4963 67.6585 77.314 67.5168C77.1317 67.3751 76.908 67.3085 76.6428 67.3085C76.2783 67.3085 75.9717 67.4335 75.7066 67.6751C75.4497 67.9168 75.3171 68.3251 75.3171 68.8918V72.1001H74.3808V68.5001C74.3808 68.1251 74.3394 67.8501 74.2483 67.6835C74.1074 67.4251 73.8506 67.3001 73.4694 67.3001C73.1214 67.3001 72.8066 67.4335 72.5166 67.7085C72.2348 67.9835 72.0857 68.4668 72.0857 69.1835V72.1085H71.166V66.6001Z" fill="white"/>
<path d="M83.81 66.7506C84.1746 66.9339 84.448 67.1756 84.6386 67.4673C84.8209 67.7423 84.9451 68.0673 85.0031 68.4423C85.0529 68.6923 85.086 69.1006 85.086 69.6589H81.1006C81.1171 70.2173 81.2497 70.6673 81.49 71.0089C81.7303 71.3506 82.1114 71.5173 82.6252 71.5173C83.1057 71.5173 83.4869 71.3589 83.7686 71.0339C83.926 70.8506 84.042 70.6339 84.1083 70.3839H85.0114C84.9866 70.5839 84.912 70.8089 84.7712 71.0589C84.6303 71.3089 84.4894 71.5089 84.3237 71.6673C84.0503 71.9423 83.7023 72.1256 83.2963 72.2256C83.0726 72.2839 82.824 72.3089 82.5506 72.3089C81.8711 72.3089 81.2994 72.0589 80.8272 71.5589C80.3549 71.0589 80.1229 70.3589 80.1229 69.4589C80.1229 68.5589 80.3632 67.8589 80.8354 67.3006C81.3077 66.7506 81.9291 66.4756 82.6997 66.4756C83.0891 66.4756 83.462 66.5673 83.8266 66.7506H83.81ZM84.1414 68.9173C84.1 68.5173 84.0172 68.1923 83.8846 67.9589C83.636 67.5089 83.2134 67.2923 82.6334 67.2923C82.2109 67.2923 81.8629 67.4423 81.5812 67.7506C81.2994 68.0589 81.1503 68.4506 81.1254 68.9173H84.1414Z" fill="white"/>
<path d="M86.9586 65.0586H87.8866V66.6003H88.7649V67.3586H87.8866V70.9586C87.8866 71.1503 87.9529 71.2753 88.0771 71.3419C88.1517 71.3836 88.2677 71.4003 88.4334 71.4003C88.4749 71.4003 88.5246 71.4003 88.5743 71.4003C88.624 71.4003 88.682 71.4003 88.7566 71.3836V72.1169C88.6489 72.1503 88.5411 72.1669 88.4251 72.1836C88.3091 72.2003 88.1849 72.2003 88.0523 72.2003C87.6214 72.2003 87.3314 72.0919 87.174 71.8669C87.0166 71.6419 86.942 71.3586 86.942 71.0086V67.3586H86.1963V66.6003H86.942V65.0586H86.9586Z" fill="white"/>
<path d="M93.5954 66.7506C93.96 66.9339 94.2334 67.1756 94.424 67.4673C94.6063 67.7423 94.7306 68.0673 94.7886 68.4423C94.8383 68.6923 94.8714 69.1006 94.8714 69.6589H90.886C90.9026 70.2173 91.0352 70.6673 91.2754 71.0089C91.5157 71.3506 91.8969 71.5173 92.4106 71.5173C92.8911 71.5173 93.2723 71.3589 93.554 71.0339C93.7114 70.8506 93.8274 70.6339 93.8937 70.3839H94.7969C94.772 70.5839 94.6974 70.8089 94.5566 71.0589C94.424 71.3089 94.2749 71.5089 94.1092 71.6673C93.8357 71.9423 93.4877 72.1256 93.0817 72.2256C92.858 72.2839 92.6094 72.3089 92.336 72.3089C91.6566 72.3089 91.0849 72.0589 90.6126 71.5589C90.1403 71.0589 89.9083 70.3589 89.9083 69.4589C89.9083 68.5589 90.1486 67.8589 90.6209 67.3006C91.0932 66.7506 91.7146 66.4756 92.4852 66.4756C92.8746 66.4756 93.2474 66.5673 93.612 66.7506H93.5954ZM93.9269 68.9173C93.8854 68.5173 93.8026 68.1923 93.67 67.9589C93.4214 67.5089 92.9989 67.2923 92.4189 67.2923C91.9963 67.2923 91.6483 67.4423 91.3666 67.7506C91.0849 68.0589 90.9357 68.4506 90.9109 68.9173H93.9269Z" fill="white"/>
<path d="M96.5866 66.6006H97.4649V67.5506C97.5394 67.3673 97.7134 67.1423 97.9951 66.8756C98.2769 66.6089 98.6 66.4756 98.9646 66.4756C98.9812 66.4756 99.0143 66.4756 99.0474 66.4756C99.0806 66.4756 99.1552 66.4839 99.2546 66.4923V67.4673C99.1966 67.4589 99.1469 67.4506 99.1054 67.4506C99.064 67.4506 99.006 67.4506 98.9563 67.4506C98.4923 67.4506 98.136 67.6006 97.8874 67.9006C97.6389 68.2006 97.5146 68.5506 97.5146 68.9339V72.1006H96.5949V66.5923L96.5866 66.6006Z" fill="white"/>
<path d="M101.127 70.384C101.152 70.6923 101.235 70.9256 101.359 71.0923C101.599 71.3923 102.005 71.5423 102.594 71.5423C102.942 71.5423 103.248 71.4673 103.513 71.3173C103.779 71.1673 103.911 70.934 103.911 70.6257C103.911 70.3923 103.803 70.209 103.596 70.084C103.464 70.009 103.19 69.9173 102.793 69.8257L102.047 69.6423C101.575 69.5257 101.218 69.3923 100.995 69.2506C100.597 69.0006 100.39 68.6506 100.39 68.209C100.39 67.684 100.58 67.2673 100.961 66.9423C101.343 66.6173 101.848 66.459 102.486 66.459C103.323 66.459 103.928 66.7006 104.292 67.1923C104.524 67.5006 104.632 67.834 104.632 68.1923H103.762C103.745 67.984 103.671 67.7923 103.538 67.6257C103.323 67.384 102.95 67.259 102.411 67.259C102.055 67.259 101.782 67.3256 101.599 67.459C101.417 67.5923 101.326 67.7673 101.326 67.984C101.326 68.2257 101.45 68.4173 101.691 68.559C101.831 68.6423 102.03 68.7173 102.304 68.784L102.925 68.934C103.596 69.0923 104.052 69.2506 104.284 69.4007C104.64 69.634 104.823 70.009 104.823 70.5173C104.823 71.0257 104.632 71.434 104.259 71.7923C103.886 72.1507 103.315 72.3257 102.544 72.3257C101.715 72.3257 101.135 72.1423 100.787 71.7673C100.448 71.3923 100.257 70.934 100.232 70.384H101.119H101.127Z" fill="white"/>
<path d="M106.563 70.9922H107.631V72.1172H106.563V70.9922Z" fill="white"/>
<path d="M113.398 66.8924C113.788 67.1924 114.02 67.7174 114.094 68.4507H113.199C113.141 68.109 113.017 67.8257 112.827 67.6007C112.636 67.3757 112.321 67.2674 111.89 67.2674C111.302 67.2674 110.888 67.559 110.631 68.134C110.465 68.509 110.382 68.9674 110.382 69.5174C110.382 70.0674 110.498 70.534 110.73 70.909C110.962 71.284 111.327 71.4757 111.824 71.4757C112.205 71.4757 112.512 71.359 112.735 71.1257C112.959 70.8924 113.117 70.5674 113.199 70.1674H114.094C113.995 70.9007 113.738 71.434 113.324 71.7674C112.918 72.109 112.387 72.2757 111.749 72.2757C111.037 72.2757 110.465 72.009 110.034 71.484C109.612 70.959 109.396 70.3007 109.396 69.509C109.396 68.5424 109.628 67.7924 110.101 67.2507C110.573 66.709 111.161 66.4424 111.89 66.4424C112.512 66.4424 113.009 66.5924 113.398 66.8924Z" fill="white"/>
<path d="M119.513 67.1507C119.994 67.6257 120.242 68.3174 120.242 69.2424C120.242 70.1674 120.027 70.8674 119.604 71.4424C119.182 72.0174 118.519 72.309 117.616 72.309C116.87 72.309 116.273 72.0507 115.834 71.5424C115.395 71.0257 115.171 70.3424 115.171 69.4757C115.171 68.5507 115.403 67.8174 115.867 67.2674C116.331 66.7174 116.953 66.4424 117.74 66.4424C118.444 66.4424 119.033 66.6757 119.521 67.1507H119.513ZM118.941 70.8174C119.165 70.3507 119.281 69.834 119.281 69.2674C119.281 68.7507 119.198 68.334 119.041 68.0174C118.784 67.509 118.345 67.259 117.715 67.259C117.16 67.259 116.754 67.4757 116.497 67.909C116.24 68.3424 116.116 68.859 116.116 69.4757C116.116 70.0924 116.24 70.5507 116.497 70.9424C116.754 71.334 117.152 71.5257 117.699 71.5257C118.303 71.5257 118.718 71.2924 118.941 70.8257V70.8174Z" fill="white"/>
<path d="M121.891 66.6001H122.803V67.3835C123.018 67.1085 123.217 66.9168 123.399 66.7918C123.706 66.5835 124.045 66.4751 124.435 66.4751C124.874 66.4751 125.222 66.5835 125.487 66.8001C125.636 66.9251 125.777 67.1085 125.893 67.3418C126.1 67.0501 126.341 66.8251 126.614 66.6835C126.887 66.5418 127.202 66.4668 127.542 66.4668C128.279 66.4668 128.777 66.7335 129.05 67.2668C129.191 67.5585 129.265 67.9418 129.265 68.4335V72.1001H128.313V68.2751C128.313 67.9085 128.221 67.6585 128.039 67.5168C127.857 67.3751 127.633 67.3085 127.368 67.3085C127.003 67.3085 126.697 67.4335 126.432 67.6751C126.167 67.9168 126.042 68.3251 126.042 68.8918V72.1001H125.106V68.5001C125.106 68.1251 125.065 67.8501 124.973 67.6835C124.833 67.4251 124.576 67.3001 124.195 67.3001C123.847 67.3001 123.532 67.4335 123.242 67.7085C122.96 67.9835 122.811 68.4668 122.811 69.1835V72.1085H121.891V66.6001Z" fill="white"/>
</svg>
