<svg width="141" height="96" viewBox="0 0 141 96" fill="none" xmlns="http://www.w3.org/2000/svg">
<path d="M118.222 38.12C118.875 40.6 121.437 42.088 123.975 41.408C126.473 40.76 127.972 38.216 127.287 35.696C126.634 33.216 124.072 31.728 121.534 32.408C119.068 33.088 117.562 35.632 118.222 38.12Z" fill="white"/>
<path d="M111.873 43.0799C113.557 42.6159 114.589 40.8799 114.121 39.1999C113.654 37.5199 111.906 36.5039 110.214 36.9679C108.522 37.4319 107.498 39.1679 107.966 40.8479C108.401 42.5199 110.157 43.5199 111.873 43.0799Z" fill="white"/>
<path d="M102.503 44.6961C103.752 44.3521 104.501 43.0801 104.163 41.8401C103.824 40.6001 102.535 39.8561 101.286 40.1921C100.037 40.5281 99.2882 41.8081 99.6266 43.0481C99.965 44.2881 101.254 45.0321 102.503 44.6961Z" fill="white"/>
<path d="M95.2193 45.7839C96.0009 45.5679 96.4682 44.7599 96.2829 43.9839C96.0975 43.2079 95.2515 42.7439 94.47 42.9279C93.6885 43.1439 93.2211 43.9519 93.4065 44.7279C93.5918 45.5039 94.4055 45.9679 95.2193 45.7839Z" fill="white"/>
<path d="M114.75 28.688C115.934 30.704 118.529 31.416 120.559 30.24C122.589 29.064 123.307 26.488 122.122 24.472C120.938 22.456 118.343 21.744 116.313 22.92C114.283 24.096 113.565 26.672 114.75 28.688Z" fill="white"/>
<path d="M105.347 34.0564C106.161 35.4804 107.974 35.9524 109.408 35.1444C110.842 34.3364 111.317 32.5364 110.504 31.1124C109.69 29.6884 107.877 29.2164 106.443 30.0244C105.033 30.8324 104.533 32.6324 105.347 34.0564Z" fill="white"/>
<path d="M98.6597 35.448C97.6284 36.04 97.2819 37.312 97.8782 38.336C98.4744 39.36 99.7555 39.704 100.787 39.112C101.818 38.52 102.165 37.248 101.568 36.224C101.004 35.232 99.691 34.888 98.6597 35.448Z" fill="white"/>
<path d="M92.6894 39.7285C92.0367 40.1045 91.787 40.9365 92.1576 41.5925C92.5282 42.2485 93.3742 42.4885 94.0349 42.1205C94.6956 41.7525 94.9373 40.9125 94.5667 40.2565C94.1961 39.6005 93.3501 39.3605 92.6894 39.7285Z" fill="white"/>
<path d="M114.283 20.4C115.781 18.912 115.781 16.52 114.283 15.032C112.784 13.544 110.375 13.544 108.876 15.032C107.378 16.52 107.378 18.912 108.876 20.4C110.343 21.888 112.784 21.888 114.283 20.4Z" fill="white"/>
<path d="M104.936 24.2799C103.84 23.1919 102.092 23.1919 101.028 24.2799C99.9327 25.3679 99.9327 27.1039 101.028 28.1599C102.124 29.2479 103.873 29.2479 104.936 28.1599C106.032 27.0719 106.032 25.3359 104.936 24.2799Z" fill="white"/>
<path d="M94.9373 31.5123C94.188 32.2563 94.188 33.4643 94.9373 34.2083C95.6866 34.9523 96.9032 34.9523 97.6525 34.2083C98.4019 33.4643 98.4019 32.2563 97.6525 31.5363C96.9032 30.7603 95.6866 30.7603 94.9373 31.5043V31.5123Z" fill="white"/>
<path d="M90.2158 38.8956C90.7154 39.3916 91.5292 39.3916 92.0287 38.8956C92.5282 38.3996 92.5282 37.5916 92.0287 37.0956C91.5292 36.5996 90.7154 36.5996 90.2158 37.0956C89.7163 37.5916 89.7163 38.3996 90.2158 38.8956Z" fill="white"/>
<path d="M100.811 14.0079C102.527 14.9999 104.751 14.4079 105.75 12.7039C106.749 10.9999 106.153 8.79191 104.437 7.79991C102.721 6.80791 100.497 7.39991 99.4977 9.10391C98.4664 10.8079 99.0626 13.0159 100.811 14.0079Z" fill="white"/>
<path d="M94.3411 20.0556C93.624 21.2636 94.0591 22.8156 95.2757 23.5276C96.4923 24.2396 98.0554 23.8076 98.7725 22.5996C99.4896 21.3916 99.0545 19.8396 97.8379 19.1276C96.589 18.4156 95.0259 18.8476 94.3411 20.0556Z" fill="white"/>
<path d="M92.6572 28.0004C91.8434 27.5364 90.8121 27.8164 90.3448 28.6244C89.8774 29.4324 90.1594 30.4564 90.9732 30.9204C91.787 31.3844 92.8183 31.1044 93.2856 30.2964C93.7529 29.4884 93.4709 28.4644 92.6572 28.0004Z" fill="white"/>
<path d="M88.7172 34.7683C88.1532 34.4563 87.4361 34.6403 87.1219 35.2003C86.8077 35.7603 86.993 36.4723 87.557 36.7843C88.121 37.0963 88.8381 36.9123 89.1523 36.3523C89.4665 35.7923 89.2812 35.0803 88.7172 34.7683Z" fill="white"/>
<path d="M91.3116 9.88014C93.1245 10.3761 95.0018 9.28814 95.4691 7.48814C95.9687 5.68814 94.8729 3.82414 93.06 3.36014C91.2472 2.89614 89.3699 3.95214 88.9025 5.75214C88.403 7.55214 89.4988 9.41614 91.3116 9.88014Z" fill="white"/>
<path d="M88.4352 20.4962C89.6841 20.8402 90.9651 20.0962 91.3116 18.8482C91.6581 17.6082 90.9087 16.3362 89.6518 15.9922C88.3949 15.6482 87.1219 16.3922 86.7754 17.6402C86.4612 18.8802 87.1783 20.1522 88.4352 20.4962Z" fill="white"/>
<path d="M86.1872 28.8718C87.0332 29.0878 87.9034 28.5918 88.121 27.7518C88.3385 26.9118 87.839 26.0478 86.993 25.8318C86.147 25.6158 85.2768 26.1118 85.0592 26.9518C84.8417 27.7598 85.3412 28.6238 86.1872 28.8718Z" fill="white"/>
<path d="M83.6895 34.0804C83.5365 34.6404 83.8749 35.2324 84.4389 35.3844C85.0029 35.5364 85.5991 35.2004 85.7522 34.6404C85.9053 34.0804 85.5669 33.4884 85.0029 33.3364C84.4066 33.1844 83.8185 33.5204 83.6895 34.0804Z" fill="white"/>
<path d="M80.9985 8.32819C82.7469 8.32819 84.1891 6.90419 84.1891 5.16019C84.1891 3.41619 82.7549 1.99219 80.9985 1.99219C79.242 1.99219 77.8079 3.41619 77.8079 5.16019C77.8079 6.90419 79.242 8.32819 80.9985 8.32819Z" fill="white"/>
<path d="M80.9984 15.0957C79.814 15.0957 78.8713 16.0237 78.8713 17.2077C78.8713 18.3917 79.806 19.3197 80.9984 19.3197C82.1909 19.3197 83.1255 18.3917 83.1255 17.2077C83.1255 16.0237 82.1909 15.0957 80.9984 15.0957Z" fill="white"/>
<path d="M82.4971 26.6081C82.4971 25.8001 81.8444 25.1201 80.9984 25.1201C80.1524 25.1201 79.4998 25.7681 79.4998 26.6081C79.4998 27.4481 80.1524 28.0961 80.9984 28.0961C81.8444 28.0961 82.4971 27.4161 82.4971 26.6081Z" fill="white"/>
<path d="M80.9985 32.9355C80.4667 32.9355 80.0316 33.3675 80.0316 33.8955C80.0316 34.4235 80.4667 34.8555 80.9985 34.8555C81.5302 34.8555 81.9653 34.4235 81.9653 33.8955C81.9653 33.3675 81.5302 32.9355 80.9985 32.9355Z" fill="white"/>
<path d="M70.5967 9.51226C72.192 9.08026 73.1266 7.46426 72.6915 5.88026C72.2564 4.29626 70.6289 3.36826 69.0336 3.80026C67.4383 4.23226 66.5036 5.84826 66.9387 7.43226C67.3738 8.98426 69.0336 9.91226 70.5967 9.51226Z" fill="white"/>
<path d="M71.1285 18.7519C71.4105 19.7759 72.4418 20.3679 73.4731 20.0879C74.5044 19.8079 75.1006 18.7839 74.8186 17.7599C74.5366 16.7359 73.5053 16.1439 72.474 16.4239C71.4749 16.7039 70.8465 17.7599 71.1285 18.7519Z" fill="white"/>
<path d="M74.0935 27.7199C74.2788 28.4639 75.0603 28.8959 75.7774 28.6799C76.5267 28.4959 76.9618 27.7199 76.7443 27.0079C76.5589 26.2639 75.7774 25.8319 75.0603 26.0479C74.311 26.2319 73.9001 26.9759 74.0935 27.7199Z" fill="white"/>
<path d="M76.5026 34.6078C76.6315 35.0718 77.0988 35.3198 77.5339 35.1998C78.0012 35.0718 78.251 34.6078 78.1301 34.1758C78.0012 33.7118 77.5339 33.4638 77.0988 33.5838C76.6637 33.7038 76.3817 34.1438 76.5026 34.6078Z" fill="white"/>
<path d="M60.8153 13.3275C62.1286 12.5835 62.5959 10.8795 61.8466 9.57554C61.0973 8.27154 59.3811 7.80754 58.0678 8.55154C56.7545 9.29554 56.2872 10.9995 57.0365 12.3035C57.818 13.6395 59.502 14.0715 60.8153 13.3275Z" fill="white"/>
<path d="M66.3425 22.8238C67.1563 22.3598 67.4383 21.3358 66.971 20.5278C66.5037 19.7198 65.4723 19.4398 64.6586 19.9038C63.8448 20.3678 63.5628 21.3918 64.0301 22.1998C64.4652 23.0078 65.5287 23.2878 66.3425 22.8238Z" fill="white"/>
<path d="M70.8465 30.6078C71.4749 30.2638 71.6602 29.4878 71.3138 28.8718C70.9673 28.2558 70.1858 28.0638 69.5654 28.4078C68.945 28.7518 68.7516 29.5278 69.0981 30.1438C69.4767 30.7358 70.2583 30.9518 70.8465 30.6078Z" fill="white"/>
<path d="M74.5286 35.4479C74.3111 35.1039 73.876 34.9839 73.4973 35.1679C73.1508 35.3839 73.03 35.8159 73.2153 36.1919C73.4328 36.5359 73.8679 36.6559 74.2144 36.4719C74.6172 36.2559 74.7461 35.7919 74.5286 35.4479Z" fill="white"/>
<path d="M52.2828 19.5598C53.2819 18.5678 53.2819 16.9518 52.2828 15.9598C51.2837 14.9678 49.6562 14.9678 48.6571 15.9598C47.658 16.9518 47.658 18.5678 48.6571 19.5598C49.6884 20.5518 51.3159 20.5518 52.2828 19.5598Z" fill="white"/>
<path d="M60.1224 25.2399C59.5262 24.6479 58.5916 24.6479 58.0276 25.2399C57.4313 25.8319 57.4313 26.7599 58.0276 27.3199C58.6238 27.9119 59.5584 27.9119 60.1224 27.3199C60.6864 26.7279 60.6864 25.7999 60.1224 25.2399Z" fill="white"/>
<path d="M66.5923 32.096C66.125 31.632 65.4079 31.632 64.9325 32.096C64.4571 32.56 64.4652 33.272 64.9325 33.744C65.3998 34.216 66.1169 34.208 66.5923 33.744C67.0274 33.28 67.0274 32.568 66.5923 32.096Z" fill="white"/>
<path d="M71.4024 37.6239C71.1526 37.3759 70.7498 37.4079 70.5242 37.6559C70.2744 37.9039 70.3066 38.3039 70.5564 38.5279C70.8062 38.7519 71.1849 38.7439 71.4346 38.5279C71.6522 38.2799 71.6522 37.8799 71.4024 37.6319V37.6239Z" fill="white"/>
<path d="M42.4048 28.5916C43.5328 29.2396 44.9669 28.8396 45.5954 27.7516C46.248 26.6316 45.8452 25.2076 44.7494 24.5836C43.6214 23.9356 42.1872 24.3356 41.5588 25.4236C40.9061 26.5116 41.2768 27.9356 42.4048 28.5916Z" fill="white"/>
<path d="M54.7805 31.5676C54.1521 31.2236 53.4028 31.4396 53.0321 32.0316C52.6857 32.6556 52.9032 33.3996 53.4995 33.7676C54.1279 34.1116 54.8772 33.9196 55.2479 33.3036C55.5943 32.6796 55.3768 31.9036 54.7805 31.5676Z" fill="white"/>
<path d="M62.8779 36.4398C62.3784 36.1598 61.7177 36.3118 61.4438 36.8398C61.1618 37.3358 61.3148 37.9918 61.8466 38.2638C62.3462 38.5438 63.0068 38.3918 63.2808 37.8878C63.5547 37.3838 63.3775 36.7358 62.8779 36.4318V36.4398Z" fill="white"/>
<path d="M124.249 42.9277C121.437 42.9277 119.125 45.1917 119.125 48.0157C119.125 50.8397 121.405 53.1037 124.249 53.1037C127.093 53.1037 129.341 50.8397 129.374 48.0477C129.341 45.2237 127.061 42.9277 124.249 42.9277Z" fill="white"/>
<path d="M115.781 48.0158C115.781 45.9998 114.154 44.3838 112.123 44.3838C110.093 44.3838 108.465 45.9998 108.465 48.0158C108.465 50.0318 110.093 51.6478 112.123 51.6478C114.154 51.6478 115.781 50.0318 115.781 48.0158Z" fill="white"/>
<path d="M102.656 45.5361C101.278 45.5361 100.158 46.6561 100.158 48.0161C100.158 49.3761 101.286 50.4961 102.656 50.4961C104.026 50.4961 105.154 49.3761 105.154 48.0161C105.154 46.6561 104.026 45.5361 102.656 45.5361Z" fill="white"/>
<path d="M96.9355 48.0164C96.9355 47.1204 96.2184 46.4004 95.308 46.4004C94.3975 46.4004 93.6804 47.1124 93.6804 48.0164C93.6804 48.9204 94.3975 49.6324 95.308 49.6324C96.2184 49.6324 96.9355 48.9204 96.9355 48.0164Z" fill="white"/>
<path d="M123.967 54.5916C121.47 53.9116 118.907 55.3996 118.214 57.8796C117.522 60.3596 119.028 62.9036 121.526 63.5916C124.024 64.2796 126.586 62.7836 127.279 60.3036V60.2716C127.931 57.8236 126.433 55.2796 123.967 54.5916Z" fill="white"/>
<path d="M110.222 59.0315C111.906 59.4955 113.662 58.4715 114.129 56.7995C114.597 55.1275 113.565 53.3835 111.881 52.9195C110.198 52.4555 108.441 53.4795 107.974 55.1515C107.506 56.8235 108.506 58.5675 110.222 59.0315Z" fill="white"/>
<path d="M101.278 55.8C102.527 56.144 103.808 55.4 104.155 54.152C104.501 52.904 103.752 51.64 102.495 51.296C101.238 50.952 99.965 51.696 99.6185 52.944C99.3043 54.184 100.021 55.456 101.278 55.8Z" fill="white"/>
<path d="M94.4378 53.1042C95.2193 53.3202 96.0331 52.8562 96.2507 52.0482C96.4682 51.2722 96.0009 50.4642 95.1871 50.2482C94.4056 50.0322 93.5918 50.4962 93.3743 51.3042C93.1567 52.0482 93.624 52.8882 94.4378 53.1042Z" fill="white"/>
<path d="M120.559 65.7598C118.529 64.5838 115.934 65.2958 114.75 67.3118C113.565 69.3278 114.283 71.9038 116.313 73.0798C118.343 74.2558 120.938 73.5438 122.122 71.5278C123.282 69.5118 122.589 66.9358 120.559 65.7598Z" fill="white"/>
<path d="M110.528 64.896C111.342 63.472 110.874 61.672 109.432 60.864C107.99 60.056 106.185 60.52 105.371 61.952C104.558 63.384 105.025 65.176 106.467 65.984C107.877 66.792 109.682 66.296 110.528 64.896Z" fill="white"/>
<path d="M101.56 59.7761C102.157 58.7521 101.81 57.4801 100.779 56.8881C99.7474 56.2961 98.4663 56.6401 97.8701 57.6641C97.2739 58.6881 97.6203 59.9601 98.6517 60.5521C99.683 61.1121 100.964 60.7681 101.56 59.7761Z" fill="white"/>
<path d="M94.5908 55.7436C94.9695 55.0956 94.7439 54.2556 94.0913 53.8476C93.4387 53.4716 92.5927 53.6956 92.1818 54.3436C91.7708 54.9916 92.0287 55.8316 92.6813 56.2396H92.7135C93.3662 56.6156 94.2122 56.3916 94.5908 55.7436Z" fill="white"/>
<path d="M108.844 75.5998C107.345 77.0878 107.345 79.4798 108.844 80.9678C110.343 82.4558 112.752 82.4558 114.25 80.9678C115.749 79.4798 115.749 77.0878 114.25 75.5998C112.784 74.1438 110.343 74.1438 108.844 75.5998Z" fill="white"/>
<path d="M104.936 71.7204C106.032 70.6324 106.032 68.8964 104.936 67.8404C103.84 66.7524 102.092 66.7524 101.028 67.8404C99.9327 68.9284 99.9327 70.6644 101.028 71.7204C102.092 72.8084 103.84 72.8084 104.936 71.7204Z" fill="white"/>
<path d="M97.6525 64.4884C98.4019 63.7444 98.4019 62.5364 97.6525 61.7924C96.9032 61.0484 95.6866 61.0484 94.9373 61.7924C94.188 62.5364 94.188 63.7444 94.9373 64.4644C95.6866 65.2404 96.9032 65.2404 97.6525 64.4964V64.4884Z" fill="white"/>
<path d="M90.2158 58.8722C90.7154 59.3682 91.5292 59.3682 92.0287 58.8722C92.5282 58.3762 92.5282 57.5682 92.0287 57.0722C91.5292 56.5762 90.7154 56.5762 90.2158 57.0722C89.7163 57.5682 89.7163 58.3762 90.2158 58.8722Z" fill="white"/>
<path d="M100.811 81.9921C99.0948 82.9841 98.4986 85.1841 99.4977 86.8961C100.497 88.6081 102.712 89.1921 104.437 88.2001C106.161 87.2081 106.749 85.0081 105.75 83.2961C104.751 81.5841 102.535 81.0001 100.811 81.9921Z" fill="white"/>
<path d="M98.7483 73.4244C98.0312 72.2164 96.5004 71.7764 95.2515 72.4964C94.0349 73.2084 93.5918 74.7284 94.3169 75.9684C95.034 77.1764 96.5648 77.6164 97.8137 76.8964C99.0303 76.1844 99.4735 74.6324 98.7483 73.4244Z" fill="white"/>
<path d="M92.6572 67.9995C93.4709 67.5355 93.7529 66.5115 93.2856 65.7035C92.8183 64.8955 91.787 64.6155 90.9732 65.0795C90.1594 65.5435 89.8774 66.5675 90.3448 67.3755C90.8121 68.1835 91.8434 68.4635 92.6572 67.9995Z" fill="white"/>
<path d="M87.565 59.2156C87.001 59.5276 86.8157 60.2396 87.13 60.7996C87.4442 61.3596 88.1613 61.5436 88.7253 61.2316C89.2893 60.9196 89.4746 60.2076 89.1604 59.6476C88.8461 59.0876 88.129 58.9036 87.565 59.2156Z" fill="white"/>
<path d="M91.3116 86.1201C89.4988 86.6161 88.403 88.4481 88.9025 90.2481C89.4021 92.0481 91.2472 93.1361 93.06 92.6401C94.8729 92.1441 95.9687 90.3121 95.4691 88.5121C95.0018 86.7121 93.1245 85.6241 91.3116 86.1201Z" fill="white"/>
<path d="M89.6599 79.9764C90.9087 79.6324 91.658 78.3604 91.3196 77.1204C90.9812 75.8804 89.6921 75.1364 88.4432 75.4724C87.1944 75.8084 86.4773 77.0884 86.7835 78.3284C87.1299 79.6004 88.411 80.3124 89.6599 79.9764Z" fill="white"/>
<path d="M88.129 68.2477C87.9115 67.4077 87.0333 66.9117 86.1953 67.1277C85.3574 67.3437 84.8498 68.2157 85.0673 69.0477C85.2849 69.8797 86.1631 70.3837 87.0011 70.1677C87.8793 69.9837 88.3788 69.1117 88.129 68.2477Z" fill="white"/>
<path d="M85.7199 61.3597C85.5669 60.7997 84.9706 60.4637 84.4066 60.6157C83.8426 60.7677 83.5042 61.3597 83.6573 61.9197C83.8104 62.4797 84.3744 62.8157 84.9706 62.6637C85.5346 62.5117 85.873 61.9197 85.7199 61.3597Z" fill="white"/>
<path d="M80.9985 87.6719C79.2501 87.6719 77.8079 89.0959 77.8079 90.8399C77.8079 92.5839 79.242 94.0079 80.9985 94.0079C82.7549 94.0079 84.1891 92.6079 84.1891 90.8399C84.1891 89.0719 82.7791 87.6719 80.9985 87.6719Z" fill="white"/>
<path d="M78.8713 78.7917C78.8713 79.9677 79.806 80.9037 80.9984 80.9037C82.1909 80.9037 83.1255 79.9757 83.1255 78.7917C83.1255 77.6077 82.1909 76.6797 80.9984 76.6797C79.806 76.6797 78.8713 77.6077 78.8713 78.7917Z" fill="white"/>
<path d="M80.9984 70.8559C81.8122 70.8559 82.4971 70.2079 82.4971 69.3679C82.4971 68.5279 81.8444 67.8799 80.9984 67.8799C80.1524 67.8799 79.4998 68.5279 79.4998 69.3679C79.532 70.2079 80.1847 70.8559 80.9984 70.8559Z" fill="white"/>
<path d="M80.9985 61.1436C80.4667 61.1436 80.0316 61.5756 80.0316 62.1036C80.0316 62.6316 80.4667 63.0636 80.9985 63.0636C81.5302 63.0636 81.9653 62.6316 81.9653 62.1036C81.9653 61.5756 81.5302 61.1436 80.9985 61.1436Z" fill="white"/>
<path d="M70.5967 86.4875C69.0014 86.0555 67.3819 87.0155 66.9387 88.5675C66.5036 90.1515 67.4705 91.7595 69.0336 92.1995C70.6289 92.6315 72.2484 91.6716 72.6915 90.1196C73.1266 88.5356 72.192 86.9275 70.5967 86.4875Z" fill="white"/>
<path d="M73.465 75.8797C72.4337 75.5997 71.4024 76.2237 71.1204 77.2157C70.8384 78.2397 71.4669 79.2637 72.4659 79.5437C73.4973 79.8237 74.5286 79.1997 74.8106 78.2077C75.0926 77.2157 74.4963 76.1597 73.465 75.8797Z" fill="white"/>
<path d="M75.7774 67.3119C75.0281 67.1279 74.2788 67.5599 74.0935 68.2719C73.9082 69.0159 74.3433 69.7599 75.0604 69.9439C75.8097 70.1279 76.559 69.6959 76.7443 68.9839C76.9618 68.2719 76.5268 67.5279 75.7774 67.3119Z" fill="white"/>
<path d="M78.1543 61.8238C78.2832 61.3598 78.0012 60.8958 77.5581 60.7998C77.1149 60.7038 76.6235 60.9518 76.5268 61.3918C76.4301 61.8318 76.6799 62.3198 77.123 62.4158C77.5581 62.5438 78.0254 62.2878 78.1543 61.8238Z" fill="white"/>
<path d="M60.8153 82.6719C59.502 81.9279 57.8181 82.3599 57.0365 83.6639C56.2872 84.9679 56.7223 86.6399 58.0356 87.4159C59.3489 88.1599 61.0329 87.7279 61.8144 86.4239C62.596 85.1199 62.1287 83.4479 60.8153 82.6719Z" fill="white"/>
<path d="M66.3425 73.1762C65.5287 72.7122 64.4974 72.9922 64.0301 73.8002C63.5628 74.6082 63.8448 75.6322 64.6586 76.0962C65.4723 76.5602 66.5037 76.2802 66.971 75.4722C67.4383 74.6642 67.1563 73.6402 66.3425 73.1762Z" fill="white"/>
<path d="M69.5976 67.5925C70.2261 67.9365 71.0076 67.7445 71.346 67.1285C71.6844 66.5125 71.4991 65.7285 70.8787 65.3925C70.2583 65.0565 69.4687 65.2405 69.1303 65.8565C68.7919 66.4725 68.9772 67.2565 69.5976 67.5925Z" fill="white"/>
<path d="M74.2788 59.5279C73.9324 59.3119 73.465 59.4319 73.2797 59.8079C73.0622 60.1519 73.183 60.6159 73.5617 60.7999C73.9082 61.0159 74.3755 60.8959 74.5608 60.5199C74.7461 60.2079 74.6253 59.7439 74.2788 59.5279Z" fill="white"/>
<path d="M48.6893 76.4403C47.6902 77.4323 47.6902 79.0483 48.6893 80.0403C49.6884 81.0323 51.3159 81.0323 52.315 80.0403C53.3141 79.0483 53.3141 77.4323 52.315 76.4403C51.3159 75.4483 49.6884 75.4483 48.6893 76.4403Z" fill="white"/>
<path d="M58.0276 68.6803C57.4313 69.2723 57.4313 70.2003 58.0276 70.7603C58.6238 71.3523 59.5584 71.3523 60.1224 70.7603C60.6864 70.1683 60.7186 69.2403 60.1224 68.6803C59.5584 68.0883 58.5916 68.0883 58.0276 68.6803Z" fill="white"/>
<path d="M64.9406 62.2563C64.4733 62.7203 64.4733 63.4323 64.9406 63.9043C65.4079 64.3763 66.125 64.3683 66.6003 63.9043C67.0757 63.4403 67.0677 62.7283 66.6003 62.2563C66.133 61.7843 65.3837 61.7923 64.9406 62.2563Z" fill="white"/>
<path d="M71.4024 57.4803C71.1526 57.2323 70.7498 57.2643 70.5242 57.5123C70.2744 57.7603 70.3066 58.1603 70.5564 58.3843C70.8062 58.6083 71.1849 58.6003 71.4346 58.3843C71.6522 58.1363 71.6522 57.7363 71.4024 57.4883V57.4803Z" fill="white"/>
<path d="M42.4692 67.3435C41.3412 67.9915 40.9706 69.3915 41.6232 70.5115C42.2758 71.6315 43.6858 71.9995 44.8138 71.3515C45.9418 70.7035 46.3125 69.3035 45.6598 68.1835C45.0314 67.0635 43.5972 66.6955 42.4692 67.3435Z" fill="white"/>
<path d="M53.4995 62.2238C52.9032 62.5678 52.6857 63.3438 53.0321 63.9598C53.3786 64.5518 54.1601 64.7678 54.7805 64.4238C55.3768 64.0798 55.5943 63.3038 55.2479 62.6878C54.9014 62.0958 54.1199 61.8798 53.4995 62.2238Z" fill="white"/>
<path d="M61.8144 57.7279C61.3149 58.0079 61.1295 58.6559 61.4357 59.1519C61.7177 59.6479 62.3703 59.8319 62.8699 59.5279C63.3694 59.2479 63.5547 58.5999 63.2486 58.1039C62.9666 57.6079 62.3139 57.4239 61.8144 57.7279Z" fill="white"/>
<path d="M37.7155 40.6323H41.4621V54.9683H37.7155V40.6323ZM40.0037 34.2403C38.8435 33.9283 37.6591 34.6163 37.3449 35.7603C37.0306 36.9043 37.7236 38.0883 38.8757 38.4003C40.0279 38.7123 41.2204 38.0243 41.5346 36.8803C41.8488 35.7363 41.1559 34.5203 40.0037 34.2403ZM53.0644 55.2803C52.162 55.2803 51.2515 55.1283 50.4055 54.7523C49.6562 54.4083 48.9955 53.8803 48.496 53.2323V62.1363H44.838V40.6323H48.4637V42.6163C48.931 41.9043 49.5917 41.3443 50.3733 40.9443C51.187 40.5443 52.0894 40.3203 53.0321 40.3203C53.9748 40.3203 54.8128 40.5043 55.6588 40.8483C56.5048 41.1923 57.2541 41.7203 57.8745 42.3363C58.5271 43.0163 59.0589 43.8243 59.4053 44.6963C59.8082 45.6883 60.0016 46.7123 59.9693 47.7683C60.0016 48.8243 59.784 49.8803 59.3731 50.8723C58.9944 51.7443 58.4707 52.5443 57.81 53.2323C56.5934 54.5363 54.845 55.2803 53.0563 55.2803H53.0644ZM52.315 51.8003C52.8468 51.8003 53.3786 51.7043 53.8781 51.4883C54.3454 51.2723 54.7805 50.9923 55.1592 50.6163C55.5379 50.2403 55.8118 49.8083 56.0052 49.3443C56.4081 48.3203 56.4081 47.2003 56.0052 46.1763C55.8199 45.7123 55.5057 45.2803 55.1592 44.9043C54.7805 44.5283 54.3454 44.2563 53.8781 44.0323C53.3786 43.8163 52.8468 43.7203 52.315 43.7203C51.2515 43.7203 50.2202 44.1523 49.4386 44.8963C49.06 45.2723 48.786 45.7043 48.5926 46.1683C48.1898 47.1923 48.1898 48.3123 48.5926 49.3043C48.778 49.7683 49.06 50.2003 49.4386 50.5763C50.2202 51.3843 51.2515 51.8163 52.315 51.7843V51.8003ZM62.6524 40.6323H66.2781V42.8323C66.5923 42.0563 67.1241 41.4083 67.8411 40.9683C68.5905 40.5683 69.4042 40.3443 70.2825 40.3763C70.7498 40.3763 71.1849 40.4403 71.628 40.5283C72.0067 40.6243 72.3773 40.7443 72.7238 40.9283L71.3782 44.5283C71.1285 44.3763 70.8465 44.2483 70.5645 44.1523C70.1858 44.0563 69.8152 44.0003 69.4365 44.0003C68.5905 43.9683 67.7767 44.2483 67.1563 44.7763C66.5923 45.3043 66.3103 46.1763 66.3103 47.3523V54.9203H62.6524V40.6163V40.6323ZM80.8776 55.2803C79.8463 55.2803 78.815 55.0963 77.8481 54.6883C76.9457 54.3123 76.132 53.7603 75.4068 53.0723C73.9968 51.6723 73.2153 49.7843 73.2153 47.8003C73.2153 46.8083 73.4006 45.8163 73.7793 44.8803C74.158 43.9843 74.6817 43.1763 75.3746 42.4883C78.4041 39.5683 83.2222 39.5683 86.2517 42.4883C87.6617 43.8883 88.4674 45.7763 88.4674 47.7603C88.4674 48.7523 88.2821 49.7443 87.8712 50.6483C87.4925 51.5443 86.9366 52.3523 86.2759 53.0403C85.591 53.7203 84.7773 54.2803 83.8346 54.6563C82.9322 55.0563 81.9009 55.2803 80.8696 55.2803H80.8776ZM80.9098 51.8003C81.4416 51.8003 81.9734 51.7043 82.4729 51.4883C82.9402 51.2723 83.3512 50.9923 83.7218 50.6483C84.1005 50.2723 84.3744 49.8403 84.5678 49.3763C84.9706 48.3523 84.9706 47.2323 84.5678 46.2403C84.3825 45.7763 84.1005 45.3443 83.7218 44.9683C83.3431 44.5923 82.9402 44.3203 82.4729 44.1283C81.4738 43.6963 80.3458 43.6963 79.379 44.1283C78.9117 44.3443 78.5008 44.6243 78.1301 44.9683C77.7514 45.3443 77.4775 45.7763 77.2841 46.2403C76.8813 47.2643 76.8813 48.3843 77.2841 49.3763C77.4694 49.8403 77.7514 50.2723 78.1301 50.6483C78.5088 51.0243 78.9117 51.2963 79.379 51.4883C79.8463 51.6803 80.3781 51.8003 80.9098 51.8003ZM11.6265 40.6323H15.373L18.2817 49.7843L21.7221 40.6323H24.9691L28.345 49.7843L31.3745 40.6323H35.1211L30.2143 54.9683H26.7417L23.3013 45.6323L19.8286 54.9683H16.2996L11.6104 40.6323H11.6265Z" fill="white"/>
</svg>
