<svg width="123" height="84" viewBox="0 0 123 84" fill="none" xmlns="http://www.w3.org/2000/svg">
<path d="M33.7231 60.9137C32.4369 53.4937 37.6661 46.5288 45.0953 45.6118C45.742 45.5348 46.3886 45.4927 47.0422 45.4927C51.0766 45.4927 55.111 45.4927 59.1525 45.4927H60.0029C59.9748 48.3417 60.0521 51.1068 62.0623 53.4868C68.2966 49.3358 71.7898 43.5748 72.577 36.0428C71.3189 36.0428 70.1241 36.0148 68.9292 36.0428C62.3716 36.2178 56.4043 31.5767 54.9283 25.0947C54.8299 24.6607 54.7526 24.2198 54.6472 23.7158C52.2996 23.7158 49.9521 23.7158 47.6045 23.7158C46.248 23.7158 44.9196 23.5338 43.6123 23.1628C38.137 21.6088 34.18 16.8837 33.6106 11.2488C33.4912 10.1008 33.5122 8.96675 33.6809 7.83975C33.9691 7.69275 34.2432 7.76275 34.5173 7.76275C39.5568 7.76275 44.5963 7.78375 49.6288 7.74875C53.3328 7.72075 56.8682 8.44875 60.256 9.91875C60.6566 10.0938 60.9588 10.1008 61.3454 9.85575C63.6718 8.40675 66.2232 7.75575 68.9644 7.75575C75.6837 7.75575 82.403 7.75575 89.1153 7.75575H89.9306C90.781 10.8498 89.783 16.0508 86.1633 19.6278C82.8528 22.8968 78.7833 24.0168 74.1233 23.6808C75.269 26.4248 75.9789 29.1267 76.2178 31.9688C79.3034 32.1577 82.1148 33.1097 84.4905 35.0697C89.1645 38.9127 91.006 43.8967 89.6143 49.7417C88.1945 55.7057 84.2304 59.3387 78.1858 60.6407C77.251 60.8437 76.3092 60.9137 75.3533 60.9137C72.9706 60.9137 70.588 60.8717 68.2123 60.9207C65.7172 60.9767 63.4891 60.2137 61.4508 58.8557C60.9729 58.5337 60.6214 58.5337 60.1013 58.7647C56.833 60.1787 53.3961 60.8857 49.8396 60.8997C44.7228 60.9277 39.613 60.8997 34.4962 60.8997H33.7161L33.7231 60.9137ZM85.6642 11.7597H84.7857C79.6478 11.7597 74.5169 11.7597 69.379 11.7597C68.7254 11.7597 68.0788 11.7737 67.4321 11.8787C63.2642 12.5437 60.4176 14.8678 59.1454 18.8368C57.8662 22.8197 58.8924 26.3617 61.9077 29.2738C64.8948 32.1508 68.641 32.1508 72.4716 31.9408C71.9445 27.2088 70.0819 23.0928 66.9472 19.4108C69.1682 19.4108 71.2205 19.4248 73.2658 19.4108C74.6926 19.3968 76.1124 19.4878 77.5392 19.2778C81.3487 18.7248 84.87 15.5187 85.6642 11.7597ZM76.2811 36.1687C75.5572 44.4077 71.8109 50.9947 65.1408 55.9997C65.8226 56.3637 66.4692 56.6157 67.151 56.7207C70.2365 57.1967 73.3502 57.1127 76.4357 56.8747C83.155 56.3497 87.5128 49.7908 85.5237 43.3927C84.2515 39.3048 80.2803 36.1898 76.2811 36.1618V36.1687ZM37.9543 56.9027C38.0808 56.9377 38.1511 56.9727 38.2214 56.9727C42.8532 56.9307 47.4921 57.1337 52.1169 56.8537C54.106 56.7347 56.0529 56.2587 57.9576 55.4818C56.7206 53.7108 56.0248 51.7648 55.7085 49.6788C52.6159 49.6788 49.5866 49.6718 46.5573 49.6788C44.0059 49.6858 41.827 50.6027 40.084 52.4717C38.9242 53.7178 38.1933 55.1877 37.9543 56.8957V56.9027ZM37.7153 11.7597C37.7013 11.8647 37.6802 11.9138 37.6872 11.9628C37.6942 12.0398 37.7153 12.1098 37.7364 12.1798C38.8469 15.5538 41.0539 17.9057 44.4698 18.9347C47.8435 19.9497 51.3297 19.1798 54.7596 19.4528C55.2094 17.0728 56.1442 15.0148 57.5781 13.1597C57.4445 13.0827 57.3672 13.0128 57.2758 12.9847C54.9916 12.2147 52.637 11.7878 50.2262 11.7668C46.7189 11.7318 43.2117 11.7597 39.7114 11.7597H37.7083H37.7153Z" fill="white"/>
<path d="M37.638 67.4522C37.638 66.7802 37.638 66.1852 37.638 65.5902C37.638 65.0232 37.638 64.4492 37.638 63.8822C38.0176 63.7702 38.3268 63.7842 38.6853 63.8612V73.1012C38.2354 73.1852 37.7575 73.4022 37.5256 72.7372C35.7684 73.6332 34.2081 73.4372 33.1468 72.2052C32.1768 71.0852 32.1276 69.3562 33.0202 68.1242C33.9972 66.7802 35.4802 66.5422 37.638 67.4452V67.4522ZM37.624 69.9582C37.5607 69.5662 37.8418 68.9362 37.3006 68.4462C36.5345 67.7532 35.2624 67.6692 34.3908 68.2782C33.5263 68.8802 33.21 70.0212 33.6388 71.0012C34.0464 71.9462 35.1569 72.5762 36.162 72.2822C37.1812 71.9812 37.8067 71.8482 37.624 69.9582Z" fill="white"/>
<path d="M81.1589 70.4202H76.1967C76.1827 71.2182 76.5622 71.7362 77.1807 72.0722C77.9117 72.4642 78.7411 72.5272 79.3737 72.0162C79.8867 71.5962 80.3577 71.5192 80.934 71.6102C80.5193 72.9402 79.0363 73.6052 77.3775 73.2062C75.775 72.8212 74.7489 71.1972 75.0651 69.5312C75.4236 67.6552 76.8574 66.6472 78.7762 66.9132C80.3577 67.1372 81.2995 68.4812 81.1589 70.4132V70.4202ZM80.0906 69.6292C79.943 68.3972 79.2401 67.7812 78.1015 67.8092C77.0613 67.8372 76.2881 68.5722 76.2319 69.6292H80.0906Z" fill="white"/>
<path d="M69.372 71.5962C68.9503 72.9542 67.3899 73.6332 65.7242 73.1992C64.1287 72.7792 63.1869 71.1342 63.5383 69.3842C63.8967 67.5992 65.3868 66.6262 67.2915 66.9272C68.8167 67.1652 69.7375 68.5442 69.5688 70.4062H64.6066C64.6277 71.2532 65.0143 71.8132 65.682 72.1212C66.413 72.4642 67.2564 72.5412 67.8749 71.9742C68.3669 71.5262 68.8378 71.5822 69.372 71.5962ZM68.5075 69.6012C68.381 68.4182 67.7343 67.8162 66.6519 67.8092C65.5485 67.7952 64.7823 68.4742 64.6347 69.6012H68.5075Z" fill="white"/>
<path d="M58.1122 68.8307C57.6483 68.8797 57.2547 68.9567 56.9595 68.3617C56.6151 67.6827 54.9775 67.5497 54.373 68.0467C53.9232 68.4107 53.9794 68.9847 54.5136 69.2717C54.9634 69.5167 55.4695 69.5377 55.9615 69.6147C56.4113 69.6847 56.8541 69.7477 57.2618 69.9437C58.2528 70.4127 58.555 71.7497 57.7959 72.5267C56.8682 73.4717 55.6733 73.4507 54.4995 73.1847C53.5155 72.9607 52.9041 72.3167 52.7424 71.2317C53.2414 71.1197 53.628 71.0147 53.9513 71.6377C54.3871 72.4777 56.088 72.7017 56.833 72.0997C57.0579 71.9177 57.2055 71.6937 57.1634 71.3927C57.1071 71.0007 56.833 70.7627 56.4746 70.6857C55.8912 70.5527 55.2938 70.4757 54.7034 70.3637C53.5226 70.1467 52.9954 69.6007 53.0235 68.6347C53.0446 67.7107 53.7615 67.0527 54.865 66.9197C55.5398 66.8427 56.2145 66.8497 56.8611 67.0877C57.6905 67.3887 58.0911 67.9557 58.1052 68.8307H58.1122Z" fill="white"/>
<path d="M86.9786 67.0877C87.3581 66.9897 87.6744 67.0037 88.068 67.0807C88.068 68.7187 88.068 70.3567 88.068 72.0017C88.068 72.7787 88.1032 73.5557 88.0258 74.3187C87.8853 75.7467 87.2386 76.2857 85.7416 76.2997C85.608 76.0267 85.594 75.7327 85.6361 75.4387C86.838 75.0957 86.9716 74.9137 86.9786 73.5907C86.9786 71.4277 86.9786 69.2577 86.9786 67.0947V67.0877Z" fill="white"/>
<path d="M44.8142 67.0526H45.6998C45.9106 67.2556 45.6998 67.5356 45.8614 67.7876C46.494 67.3116 47.1476 66.8076 48.0473 66.9406C48.1387 67.2556 48.1316 67.5636 48.0403 67.8926C47.6186 67.9626 47.2039 68.0116 46.8243 68.2286C46.1566 68.6136 45.7208 69.0756 45.7771 69.9436C45.8474 70.9796 45.7911 72.0296 45.7911 73.0586C45.4678 73.2546 45.1586 73.1426 44.8071 73.1706V67.0526H44.8142Z" fill="white"/>
<path d="M87.5971 65.4574C87.077 65.4714 86.8029 65.2264 86.7888 64.8064C86.7747 64.3934 87.0418 64.1064 87.4776 64.0924C87.9134 64.0784 88.1875 64.3164 88.2086 64.7574C88.2297 65.2054 87.9696 65.4294 87.5971 65.4644V65.4574Z" fill="white"/>
</svg>
