<svg width="159" height="44" viewBox="0 0 159 44" fill="none" xmlns="http://www.w3.org/2000/svg">
<path d="M46.54 24.5598V1.50984L46.55 1.45984V1.42984L46.58 1.37984L46.6 1.34984L46.65 1.28984L46.7 1.24984H46.71V1.23985H46.73L46.81 1.19984C46.83 1.19984 46.86 1.19984 46.88 1.19984H47.43C47.48 1.19984 47.53 1.20984 47.58 1.22984C47.63 1.24984 47.67 1.27984 47.7 1.31984L57.07 12.8198L65.39 23.0298V1.53984C65.39 1.43984 65.43 1.34984 65.5 1.28984C65.56 1.22984 65.65 1.18984 65.75 1.18984H66.17C66.27 1.18984 66.36 1.22984 66.42 1.29984C66.49 1.35984 66.53 1.44984 66.53 1.54984V24.5898L66.51 24.6298V24.6798L66.5 24.6998L66.46 24.7498V24.7698L66.42 24.8098L66.38 24.8498H66.37L66.36 24.8598V24.8798L66.24 24.9098H66.19H65.64C65.59 24.9098 65.54 24.8998 65.49 24.8798C65.44 24.8598 65.4 24.8298 65.37 24.7798L55.99 13.2798L47.67 3.06984V24.5598C47.67 24.6598 47.63 24.7498 47.57 24.8098C47.51 24.8698 47.42 24.9098 47.32 24.9098H46.9C46.8 24.9098 46.71 24.8698 46.65 24.8098C46.59 24.7498 46.55 24.6598 46.55 24.5598M69.66 1.98985V1.55984C69.66 1.45984 69.7 1.36984 69.76 1.30984C69.82 1.24984 69.91 1.19984 70.01 1.19984H89.31C89.41 1.19984 89.49 1.23984 89.56 1.30984C89.62 1.36984 89.66 1.45984 89.66 1.55984V1.98985C89.66 2.08985 89.62 2.17985 89.56 2.23985C89.5 2.30985 89.41 2.34984 89.31 2.34984H80.23V24.5598C80.23 24.6598 80.19 24.7498 80.13 24.8098C80.07 24.8798 79.98 24.9198 79.88 24.9198H79.45C79.35 24.9198 79.27 24.8798 79.2 24.8098C79.14 24.7498 79.1 24.6598 79.1 24.5598V2.34984H70.02C69.92 2.34984 69.83 2.30985 69.77 2.23985C69.71 2.17985 69.67 2.08985 69.67 1.98985H69.66ZM89.15 13.0498C89.15 9.77984 90.46 6.81984 92.57 4.66984C94.68 2.51984 97.6 1.18984 100.81 1.18984C104.02 1.18984 106.94 2.51984 109.05 4.66984C111.16 6.81984 112.47 9.77984 112.47 13.0498C112.47 16.3198 111.16 19.2798 109.05 21.4298C106.94 23.5798 104.02 24.9098 100.81 24.9098C97.6 24.9098 94.68 23.5798 92.57 21.4298C90.46 19.2798 89.15 16.3198 89.15 13.0498ZM90.28 13.0498C90.28 15.9998 91.46 18.6798 93.37 20.6198C95.27 22.5598 97.91 23.7598 100.81 23.7598C103.71 23.7598 106.34 22.5598 108.25 20.6198C110.16 18.6798 111.34 15.9998 111.34 13.0498C111.34 10.0998 110.16 7.41984 108.25 5.47984C106.34 3.53984 103.71 2.33984 100.81 2.33984C97.91 2.33984 95.27 3.53984 93.37 5.47984C91.46 7.41984 90.28 10.0998 90.28 13.0498ZM138.56 24.5598V1.50984L138.57 1.45984V1.42984L138.61 1.37984V1.35984L138.62 1.34984L138.68 1.29984L138.73 1.25984H138.74L138.8 1.22984L138.87 1.20984H138.92H150.13C152.46 1.20984 154.57 2.16984 156.1 3.72984C157.63 5.27984 158.57 7.42984 158.57 9.79984C158.57 11.6098 158.02 13.3198 157.06 14.7198C156.12 16.0898 154.78 17.1798 153.18 17.8098L158.51 24.3398C158.55 24.3898 158.58 24.4598 158.58 24.5298C158.58 24.5898 158.58 24.6598 158.54 24.7198C158.51 24.7798 158.47 24.8298 158.41 24.8698C158.35 24.9098 158.29 24.9298 158.22 24.9298H157.67C157.62 24.9298 157.57 24.9198 157.52 24.8998C157.47 24.8798 157.43 24.8398 157.4 24.7998L152 18.1798C151.71 18.2498 151.41 18.2998 151.11 18.3298C150.79 18.3698 150.46 18.3898 150.13 18.3898H139.7V24.5698C139.7 24.6698 139.66 24.7598 139.6 24.8198C139.54 24.8798 139.45 24.9198 139.35 24.9198H138.93C138.83 24.9198 138.74 24.8798 138.68 24.8198C138.62 24.7598 138.58 24.6698 138.58 24.5698L138.56 24.5598ZM139.69 2.33984V17.2198H150.12C150.4 17.2198 150.67 17.1998 150.94 17.1698C151.21 17.1398 151.48 17.0898 151.74 17.0298C151.89 16.9898 152.03 16.9598 152.18 16.9098C153.73 16.4498 155.04 15.4898 155.96 14.2298C156.89 12.9698 157.43 11.4098 157.43 9.76984C157.43 7.71984 156.61 5.85984 155.29 4.50984C153.97 3.15984 152.14 2.32985 150.12 2.32985H139.69V2.33984ZM23.83 11.2298C23.83 13.8498 24.88 16.2298 26.57 17.9498C28.26 19.6698 30.6 20.7298 33.17 20.7298C35.74 20.7298 38.08 19.6598 39.77 17.9498C41.46 16.2298 42.51 13.8498 42.51 11.2298C42.51 8.60984 41.46 6.22984 39.77 4.50984C38.08 2.78984 35.74 1.72984 33.17 1.72984C30.6 1.72984 28.26 2.78984 26.57 4.50984C24.88 6.22984 23.83 8.60984 23.83 11.2298ZM33.89 21.8598V24.4598H38.66V25.2898H28.28V24.4598H33.06V21.8898C30.22 21.8598 27.64 20.6698 25.77 18.7698C23.87 16.8398 22.7 14.1798 22.7 11.2398C22.7 8.29985 23.87 5.63984 25.77 3.70984C27.67 1.77984 30.28 0.589844 33.17 0.589844C36.06 0.589844 38.68 1.77984 40.58 3.70984C42.48 5.63984 43.65 8.29985 43.65 11.2398C43.65 14.1798 42.48 16.8398 40.58 18.7698C38.84 20.5398 36.5 21.6898 33.9 21.8698L33.89 21.8598ZM117.12 11.5798V1.18984C117.12 1.08984 117.16 0.999842 117.23 0.939842C117.3 0.879842 117.39 0.839844 117.49 0.839844H117.86C117.96 0.839844 118.05 0.879842 118.12 0.939842C118.19 0.999842 118.23 1.08984 118.23 1.18984V11.5798C118.23 13.5198 119.07 15.2798 120.43 16.5498C121.79 17.8298 123.67 18.6198 125.74 18.6198C127.81 18.6198 129.69 17.8298 131.05 16.5498C132.41 15.2798 133.25 13.5198 133.25 11.5798V1.18984C133.25 1.18984 133.26 1.08984 133.28 1.04984C133.3 1.00984 133.32 0.979842 133.35 0.939842C133.38 0.899842 133.43 0.879844 133.47 0.859844C133.51 0.839844 133.56 0.829845 133.61 0.829845H133.97C134.07 0.829845 134.16 0.869844 134.23 0.929844C134.3 0.989844 134.34 1.07984 134.34 1.17984V11.5698C134.34 13.7998 133.37 15.8298 131.81 17.2898C130.25 18.7498 128.1 19.6598 125.73 19.6598C123.36 19.6598 121.21 18.7498 119.65 17.2898C118.09 15.8198 117.12 13.7998 117.12 11.5698V11.5798ZM120.12 25.2498C120.12 24.1398 120.77 23.1498 121.83 22.4398C122.84 21.7698 124.22 21.3498 125.73 21.3498C127.24 21.3498 128.63 21.7698 129.63 22.4398C130.68 23.1498 131.33 24.1398 131.33 25.2498H130.5C130.5 24.4298 129.99 23.6798 129.16 23.1298C128.29 22.5398 127.07 22.1798 125.72 22.1798C124.37 22.1798 123.15 22.5398 122.28 23.1298C121.45 23.6798 120.94 24.4298 120.94 25.2498H120.11H120.12ZM4.64001 5.47984C2.59001 7.56984 1.56001 10.3098 1.56001 13.0498C1.56001 15.7898 2.59001 18.5398 4.64001 20.6298C5.61001 21.6198 6.74001 22.3898 7.96001 22.9198C9.19001 23.4498 10.51 23.7398 11.88 23.7698C13.25 23.7998 14.58 23.5598 15.82 23.0798C17.06 22.5998 18.21 21.8798 19.21 20.9398L19.36 20.7998C19.36 20.7998 19.46 20.6998 19.51 20.6498C19.58 20.5798 19.67 20.5498 19.76 20.5398C19.85 20.5398 19.94 20.5698 20.01 20.6398L20.32 20.9398C20.32 20.9398 20.38 21.0098 20.4 21.0598C20.42 21.0998 20.43 21.1498 20.43 21.1998C20.43 21.2498 20.43 21.2898 20.4 21.3298C20.38 21.3698 20.36 21.4098 20.33 21.4498C20.25 21.5298 20.16 21.6198 20.08 21.6998L20.01 21.7598C18.93 22.7798 17.69 23.5698 16.34 24.1098C15 24.6498 13.56 24.9298 12.08 24.9298C12.02 24.9298 11.96 24.9298 11.87 24.9298C10.35 24.8998 8.88001 24.5798 7.52001 23.9898C6.16001 23.3998 4.91001 22.5498 3.83001 21.4598C1.56001 19.1498 0.420013 16.1098 0.420013 13.0698C0.420013 10.0298 1.56001 6.99984 3.83001 4.68984C4.90001 3.59984 6.15001 2.73985 7.52001 2.14985C8.89001 1.55985 10.35 1.23984 11.87 1.20984C13.38 1.17984 14.86 1.44985 16.24 1.98985C17.62 2.52985 18.89 3.32984 20 4.36984C20.05 4.41984 20.11 4.46984 20.16 4.51984L20.32 4.67984C20.32 4.67984 20.37 4.74984 20.39 4.79984C20.41 4.83984 20.42 4.88984 20.42 4.92984C20.42 4.96984 20.41 5.01984 20.39 5.06984C20.37 5.10984 20.35 5.14984 20.31 5.18984L20 5.48985C19.93 5.55985 19.84 5.58984 19.75 5.58984C19.66 5.58984 19.57 5.54985 19.5 5.48985C19.45 5.42985 19.4 5.37984 19.35 5.33984C19.3 5.28984 19.25 5.24984 19.2 5.20984C18.2 4.26984 17.05 3.53984 15.81 3.05984C14.57 2.57984 13.23 2.33984 11.87 2.36984C10.5 2.39984 9.17001 2.68984 7.95001 3.21984C6.72001 3.74984 5.60001 4.51984 4.63001 5.50984L4.64001 5.47984Z" fill="white"/>
<path d="M35.91 42.1198H31.21L30.72 43.1998H30.01L33.29 36.0498H33.84L37.13 43.1998H36.42L35.92 42.1198H35.91ZM35.61 41.4698L33.56 37.0098L31.51 41.4698H35.62H35.61Z" fill="white"/>
<path d="M40.71 42.3001C41.12 42.6201 41.59 42.7801 42.13 42.7801C42.78 42.7801 43.33 42.5501 43.79 42.0801L44.24 42.5401C43.65 43.1401 42.95 43.4301 42.13 43.4301C41.31 43.4301 40.6 43.1301 40.02 42.5401C39.44 41.9501 39.15 41.2301 39.15 40.4001C39.15 39.5701 39.44 38.8501 40.02 38.2601C40.6 37.6701 41.31 37.3701 42.13 37.3701C42.95 37.3701 43.65 37.6601 44.24 38.2501C44.32 38.3301 44.39 38.4101 44.45 38.5001L40.71 42.3001ZM43.55 38.4901C43.14 38.1701 42.67 38.0101 42.13 38.0101C41.48 38.0101 40.93 38.2401 40.47 38.7101C40.01 39.1801 39.78 39.7401 39.78 40.4001C39.78 40.9501 39.94 41.4301 40.26 41.8501L43.55 38.5101V38.4901Z" fill="white"/>
<path d="M47.27 42.3496C47.78 42.6296 48.29 42.7696 48.81 42.7696C49.26 42.7696 49.62 42.6796 49.9 42.4896C50.18 42.3096 50.32 42.0596 50.32 41.7496C50.32 41.5196 50.25 41.3296 50.12 41.1796C49.99 41.0196 49.78 40.9096 49.49 40.8496L48.3 40.5596C47.86 40.4296 47.52 40.2296 47.3 39.9496C47.07 39.6796 46.96 39.3496 46.96 38.9696C46.96 38.5296 47.13 38.1496 47.48 37.8396C47.83 37.5196 48.29 37.3596 48.86 37.3496C49.66 37.3496 50.34 37.5796 50.88 38.0296L50.39 38.4596C49.95 38.1496 49.44 37.9896 48.87 37.9896C48.45 37.9996 48.14 38.0996 47.92 38.2996C47.7 38.4896 47.6 38.7196 47.6 38.9696C47.6 39.1896 47.67 39.3796 47.8 39.5396C47.93 39.6996 48.14 39.8196 48.43 39.8996L49.68 40.2296C50.08 40.3296 50.38 40.5096 50.61 40.7696C50.83 41.0296 50.95 41.3596 50.95 41.7496C50.95 42.2396 50.75 42.6396 50.35 42.9496C49.94 43.2596 49.43 43.4096 48.81 43.4096C48.1 43.4096 47.44 43.2196 46.84 42.8496L47.27 42.3396V42.3496Z" fill="white"/>
<path d="M53.72 36.0596H54.35V37.5696H55.2V38.2196H54.35V43.2096H53.72V36.0596Z" fill="white"/>
<path d="M58.44 39.2098V43.1998H57.8V36.0498H58.44V38.1298C58.97 37.6098 59.61 37.3498 60.36 37.3498C61.11 37.3498 61.78 37.6198 62.32 38.1698C62.85 38.7198 63.13 39.3798 63.13 40.1598V43.1898H62.49V40.1598C62.49 39.5598 62.28 39.0498 61.87 38.6298C61.46 38.2098 60.96 37.9998 60.36 37.9998C59.76 37.9998 59.27 38.2098 58.85 38.6298C58.68 38.7998 58.54 38.9898 58.44 39.1998" fill="white"/>
<path d="M67.29 42.3001C67.7 42.6201 68.17 42.7801 68.7 42.7801C69.35 42.7801 69.9 42.5501 70.36 42.0801L70.81 42.5401C70.22 43.1401 69.52 43.4301 68.69 43.4301C67.86 43.4301 67.17 43.1301 66.59 42.5401C66.01 41.9501 65.72 41.2301 65.72 40.4001C65.72 39.5701 66.01 38.8501 66.59 38.2601C67.17 37.6701 67.88 37.3701 68.69 37.3701C69.5 37.3701 70.22 37.6601 70.81 38.2501C70.88 38.3301 70.96 38.4101 71.02 38.5001L67.28 42.3001H67.29ZM70.13 38.4901C69.72 38.1701 69.25 38.0101 68.71 38.0101C68.06 38.0101 67.51 38.2401 67.06 38.7101C66.6 39.1801 66.37 39.7401 66.37 40.4001C66.37 40.9501 66.53 41.4301 66.85 41.8501L70.14 38.5101L70.13 38.4901Z" fill="white"/>
<path d="M73.85 36.0596H74.49V37.5696H75.35V38.2196H74.49V43.2096H73.85V36.0596Z" fill="white"/>
<path d="M78.58 35.8398V36.7098H77.94V35.8398H78.58ZM78.58 37.5698V43.1998H77.94V37.5698H78.58Z" fill="white"/>
<path d="M86.2 41.8901L86.69 42.3101C86.63 42.3901 86.56 42.4601 86.48 42.5401C85.9 43.1401 85.19 43.4301 84.37 43.4301C83.55 43.4301 82.85 43.1301 82.26 42.5401C81.67 41.9501 81.38 41.2301 81.38 40.4001C81.38 39.5701 81.67 38.8501 82.26 38.2601C82.84 37.6701 83.54 37.3701 84.37 37.3701C85.2 37.3701 85.9 37.6601 86.48 38.2501C86.56 38.3301 86.63 38.4101 86.69 38.4801L86.2 38.9001C86.15 38.8401 86.1 38.7701 86.04 38.7101C85.58 38.2501 85.02 38.0201 84.38 38.0201C83.74 38.0201 83.18 38.2501 82.72 38.7201C82.27 39.1901 82.04 39.7501 82.04 40.4101C82.04 41.0701 82.27 41.6301 82.72 42.1001C83.18 42.5701 83.73 42.8001 84.38 42.8001C85.03 42.8001 85.58 42.5701 86.04 42.1001C86.1 42.0401 86.15 41.9801 86.2 41.9201" fill="white"/>
<path d="M99.98 41.8301L100.45 42.2601L100.4 42.3101C99.67 43.0501 98.8 43.4201 97.77 43.4201C96.74 43.4201 95.86 43.0501 95.13 42.3101C94.4 41.5701 94.04 40.6801 94.04 39.6201C94.04 38.5601 94.41 37.6801 95.13 36.9401C95.86 36.2001 96.74 35.8301 97.77 35.8301C98.8 35.8301 99.68 36.2001 100.4 36.9401C100.43 36.9701 100.45 36.9901 100.48 37.0201L100.02 37.4701L99.95 37.4001C99.35 36.7901 98.62 36.4801 97.77 36.4801C96.92 36.4801 96.18 36.7901 95.58 37.4001C94.98 38.0101 94.68 38.7501 94.68 39.6201C94.68 40.4901 94.98 41.2301 95.58 41.8501C96.18 42.4601 96.91 42.7701 97.77 42.7701C98.63 42.7701 99.35 42.4601 99.95 41.8501L99.98 41.8201" fill="white"/>
<path d="M103.88 36.0596H103.24V43.2096H103.88V36.0596Z" fill="white"/>
<path d="M107.75 35.8398V36.7098H107.11V35.8398H107.75ZM107.75 37.5698V43.1998H107.11V37.5698H107.75Z" fill="white"/>
<path d="M111.63 39.2096V43.1996H110.99V37.5696H111.63V38.1296C112.17 37.6096 112.8 37.3496 113.54 37.3496C114.28 37.3496 114.96 37.6196 115.5 38.1696C116.05 38.7196 116.31 39.3796 116.31 40.1596V43.1896H115.67V40.1596C115.67 39.5596 115.46 39.0496 115.05 38.6296C114.63 38.2096 114.13 37.9996 113.54 37.9996C112.95 37.9996 112.45 38.2096 112.03 38.6296C111.86 38.7996 111.73 38.9896 111.62 39.1996" fill="white"/>
<path d="M119.97 35.8398V36.7098H119.34V35.8398H119.97ZM119.97 37.5698V43.1998H119.34V37.5698H119.97Z" fill="white"/>
<path d="M127.59 41.8901L128.08 42.3101C128.02 42.3901 127.95 42.4601 127.88 42.5401C127.29 43.1401 126.59 43.4301 125.77 43.4301C124.95 43.4301 124.24 43.1301 123.66 42.5401C123.08 41.9501 122.79 41.2301 122.79 40.4001C122.79 39.5701 123.08 38.8501 123.66 38.2601C124.24 37.6701 124.95 37.3701 125.77 37.3701C126.59 37.3701 127.29 37.6601 127.88 38.2501C127.96 38.3301 128.02 38.4101 128.08 38.4801L127.59 38.9001C127.54 38.8401 127.49 38.7701 127.43 38.7101C126.97 38.2501 126.42 38.0201 125.77 38.0201C125.12 38.0201 124.57 38.2501 124.11 38.7201C123.65 39.1901 123.42 39.7501 123.42 40.4101C123.42 41.0701 123.65 41.6301 124.11 42.1001C124.56 42.5701 125.12 42.8001 125.77 42.8001C126.42 42.8001 126.97 42.5701 127.43 42.1001C127.49 42.0401 127.55 41.9801 127.59 41.9201" fill="white"/>
</svg>
