<svg width="159" height="18" viewBox="0 0 159 18" fill="none" xmlns="http://www.w3.org/2000/svg">
<path d="M2.09 13.4107C2.78 14.5507 3.87 15.1407 5.37 15.1407C6.7 15.1407 7.32 14.5407 7.32 13.8507C7.32 13.3607 7.04 13.0207 6.61 12.7607C6.37 12.5907 5.84 12.3707 5.48 12.2707C5.16 12.1407 4.41 11.8907 4.04 11.7407C2 10.9907 0.87 9.92074 0.87 7.95074C0.87 6.82074 1.28 5.92074 2.13 5.27074C2.97 4.59074 4.01 4.26074 5.23 4.26074C7.12 4.26074 8.57 4.97075 9.58 6.40075L7.65 7.86074C7.12 7.18074 6.34 6.85074 5.3 6.85074C4.34 6.85074 3.72 7.30074 3.72 7.92074C3.72 8.35074 3.83 8.61074 4.23 8.86074C4.44 8.97074 4.64 9.07074 4.81 9.14074L5.75 9.46074C6.18 9.61074 6.56 9.74074 6.88 9.87074C9.26 10.7707 10.22 11.8807 10.22 13.7507C10.22 16.1707 8.57 17.7507 5.36 17.7507C2.71 17.7507 0.88 16.5707 -0.0100002 14.8607L2.09 13.4207V13.4107Z" fill="white"/>
<path d="M17.16 6.23074C18.53 4.92074 20.18 4.26074 22.11 4.26074C24.04 4.26074 25.69 4.92074 27.04 6.23074C28.41 7.54074 29.08 9.14074 29.08 11.0307C29.08 12.9207 28.4 14.5407 27.05 15.8507C25.7 17.1407 24.05 17.8007 22.1 17.8007C20.15 17.8007 18.52 17.1407 17.15 15.8507C15.8 14.5407 15.12 12.9207 15.12 11.0307C15.12 9.14074 15.8 7.54074 17.15 6.23074M19.2 13.9907C19.99 14.7807 20.96 15.1707 22.11 15.1707C23.26 15.1707 24.21 14.7807 25 13.9707C25.81 13.1607 26.2 12.1707 26.2 11.0207C26.2 9.87074 25.81 8.90074 25.02 8.09074C24.23 7.28074 23.26 6.87074 22.11 6.87074C20.96 6.87074 19.99 7.28074 19.2 8.09074C18.41 8.90074 18.02 9.87074 18.02 11.0207C18.02 12.1707 18.41 13.1807 19.2 13.9807" fill="white"/>
<path d="M34.77 17.54V4.45996H37.66V14.91H42.77V17.54H34.77Z" fill="white"/>
<path d="M48.28 17.54V4.45996H57.21V7.08996H51.17V9.54996H56.82V12.12H51.17V14.91H57.34V17.54H48.28Z" fill="white"/>
<path d="M62.15 17.5404L67.55 4.46035H70.12L75.52 17.5404H72.44L71.56 15.3403H66.1L65.22 17.5404H62.14H62.15ZM66.93 13.0404H70.74L68.85 8.29035L66.94 13.0404H66.93ZM67.57 2.83035L68.51 0.110352H71.53L69.65 2.83035H67.57Z" fill="white"/>
<path d="M153.99 17.7601C155.99 17.7601 157.79 16.9401 159.01 15.5301L158.34 14.9101C157.33 16.1301 155.77 16.8601 153.99 16.8601C150.67 16.8601 148.2 14.3501 148.2 11.0101C148.2 7.67012 150.67 5.15012 153.99 5.15012C155.77 5.15012 157.29 5.86012 158.32 7.06012L158.98 6.44012C157.76 5.07012 156 4.25012 154 4.25012C150.22 4.25012 147.24 7.14012 147.24 11.0101C147.24 14.8801 150.24 17.7501 154 17.7501L153.99 17.7601ZM139.17 17.5401H140.14V4.48012H139.17V17.5401ZM131.22 17.8901V4.48012H130.25V15.2701L121.09 4.12012V17.5301H122.06V6.74012L131.22 17.8901ZM112.19 17.5401H113.16V4.48012H112.19V17.5401ZM98.64 17.5401H105.23V16.6401H99.61V4.48012H98.64V17.5401ZM86.81 17.7601C88.81 17.7601 90.61 16.9401 91.83 15.5301L91.16 14.9101C90.15 16.1301 88.59 16.8601 86.81 16.8601C83.49 16.8601 81.02 14.3501 81.02 11.0101C81.02 7.67012 83.49 5.15012 86.81 5.15012C88.59 5.15012 90.11 5.86012 91.14 7.06012L91.8 6.44012C90.58 5.07012 88.82 4.25012 86.82 4.25012C83.04 4.25012 80.06 7.14012 80.06 11.0101C80.06 14.8801 83.06 17.7501 86.82 17.7501L86.81 17.7601Z" fill="white"/>
</svg>
