<?xml version="1.0" encoding="UTF-8"?>
<svg id="Layer_1" data-name="Layer 1" xmlns="http://www.w3.org/2000/svg" viewBox="0 0 175 120">
  <defs>
    <style>
      .cls-1 {
        fill: #78c487;
      }

      .cls-1, .cls-2, .cls-3, .cls-4, .cls-5 {
        stroke-width: 0px;
      }

      .cls-2 {
        fill: #35af4a;
      }

      .cls-3 {
        fill: #abd8b3;
      }

      .cls-4 {
        fill: #000;
      }

      .cls-5 {
        fill: #040a10;
      }
    </style>
  </defs>
  <path class="cls-5" d="M49.11,63.42c-1.86,0-3.48.67-4.8,1.98-1.32,1.31-2,2.89-2,4.69s.66,3.39,1.96,4.74h0c1.31,1.35,2.89,2.04,4.71,2.04h.24c1.84,0,3.42-.68,4.71-2.03,1.28-1.34,1.93-2.94,1.93-4.74s-.67-3.39-1.98-4.71c-1.31-1.31-2.93-1.98-4.79-1.98ZM52.79,73.87c-1.02,1.05-2.22,1.56-3.66,1.56s-2.65-.51-3.7-1.56c-1.05-1.05-1.56-2.26-1.56-3.69s.51-2.65,1.56-3.72c1.05-1.07,2.26-1.59,3.69-1.59s2.63.51,3.66,1.57c1.04,1.06,1.54,2.28,1.54,3.72s-.5,2.66-1.52,3.71Z"/>
  <path class="cls-2" d="M96.32,76.58h.36v-11.56c0-.7-.57-1.27-1.27-1.27h-.29v11.64c0,.66.53,1.19,1.19,1.19Z"/>
  <path class="cls-2" d="M105.05,63.42c-1.86,0-3.48.67-4.8,1.98-1.32,1.31-2,2.89-2,4.69s.66,3.39,1.96,4.74h0c1.31,1.35,2.89,2.04,4.71,2.04h.24c1.84,0,3.42-.68,4.71-2.03,1.28-1.34,1.93-2.94,1.93-4.74s-.67-3.39-1.98-4.71c-1.31-1.31-2.93-1.98-4.79-1.98ZM108.74,73.87c-1.02,1.05-2.22,1.56-3.66,1.56s-2.65-.51-3.7-1.56c-1.05-1.05-1.56-2.26-1.56-3.69s.51-2.65,1.56-3.72c1.05-1.07,2.26-1.59,3.69-1.59s2.63.51,3.66,1.57c1.04,1.06,1.54,2.28,1.54,3.72s-.5,2.66-1.52,3.71Z"/>
  <path class="cls-2" d="M115.98,74.31c-.67-.66-.99-1.47-.99-2.49v-6.63h2.32c.66,0,1.19-.53,1.19-1.19v-.26h-3.51v-3.73c0-.77-.62-1.39-1.39-1.39h-.16v13.2c0,1.43.49,2.62,1.46,3.54.96.92,2.14,1.38,3.51,1.38h.34v-.42c0-.52-.37-.96-.87-1.06-.71-.15-1.42-.48-1.89-.95Z"/>
  <path class="cls-2" d="M121.17,76.58h.5v-11.85c0-.54-.44-.98-.98-.98h-.57v11.78c0,.58.47,1.06,1.06,1.06Z"/>
  <path class="cls-2" d="M132.61,74.79c-.8.45-1.65.69-2.52.69-1.41,0-2.61-.51-3.66-1.56-1.05-1.05-1.56-2.27-1.56-3.72s.51-2.67,1.56-3.72c1.05-1.05,2.25-1.56,3.66-1.56.87,0,1.72.23,2.52.69.3.17.59.37.85.59.52.43,1.31.31,1.66-.27l.11-.18-.08-.08c-1.36-1.45-3.03-2.19-4.96-2.19s-3.57.67-4.89,1.98c-1.32,1.31-2,2.9-2,4.71s.66,3.4,1.96,4.74c1.31,1.34,2.89,2.02,4.71,2.02h.24c1.95,0,3.61-.74,4.93-2.2l.04-.04-.09-.16c-.36-.59-1.15-.73-1.68-.3-.25.21-.53.4-.81.56Z"/>
  <path class="cls-2" d="M142.76,69.1c-.58-.36-1.16-.71-1.73-1.02-.54-.3-1.01-.63-1.39-.99-.34-.31-.5-.64-.5-.99s.14-.63.42-.87c.3-.25.63-.38,1.02-.38s.76.1,1.09.31c.43.27,1.01.15,1.27-.29l.18-.29v-.02l-.09-.1c-.64-.7-1.43-1.06-2.34-1.06s-1.64.25-2.21.75c-.59.51-.89,1.14-.89,1.88s.23,1.36.69,1.9c.43.51.95.94,1.55,1.29.54.32,1.1.65,1.72,1.01.54.32,1.01.71,1.39,1.17.36.43.53.94.53,1.58s-.28,1.16-.85,1.68c-.58.52-1.28.78-2.14.78-.92,0-1.66-.3-2.23-.91-.35-.37-.97-.3-1.24.14l-.15.25.03.05c.32.58.83,1.05,1.51,1.4.67.34,1.4.51,2.17.51,1.22,0,2.28-.41,3.14-1.22.87-.81,1.31-1.81,1.31-2.97,0-.79-.23-1.51-.67-2.12-.43-.59-.96-1.09-1.57-1.47Z"/>
  <path class="cls-2" d="M91.5,65.4c-1.31-1.31-2.93-1.98-4.8-1.98-1.17,0-2.32.32-3.4.94-.71.41-1.3.91-1.77,1.49v-5.98c0-.69-.56-1.25-1.25-1.25h-.31v9.75c0,1.82.14,4.23,1.56,6.04h0c.5.61,1.11,1.12,1.84,1.54,1.08.61,2.2.92,3.34.92,1.87,0,3.49-.67,4.8-1.98s1.98-2.91,1.98-4.75-.67-3.43-1.98-4.75ZM90.4,73.87c-1.02,1.05-2.22,1.56-3.66,1.56s-2.65-.51-3.7-1.56c-1.05-1.05-1.56-2.26-1.56-3.69s.51-2.65,1.56-3.72c1.05-1.07,2.26-1.59,3.69-1.59s2.63.51,3.66,1.57c1.04,1.06,1.54,2.28,1.54,3.72s-.5,2.66-1.52,3.71Z"/>
  <path class="cls-5" d="M77.66,69.11l.7-.24c-.61-3.11-3.35-5.45-6.64-5.45-3.72,0-6.72,2.95-6.77,6.67-.05,3.78,3,6.87,6.77,6.87,2.14,0,4.06-1,5.3-2.55l-.1-.1c-.5-.5-1.3-.54-1.85-.09-.91.76-2.07,1.21-3.35,1.21-1.98,0-3.7-1.09-4.59-2.71l10.54-3.59v-.02ZM66.48,70.19c0-2.89,2.34-5.24,5.24-5.24,2.07,0,3.87,1.21,4.71,2.96l-9.84,3.35c-.07-.34-.11-.7-.11-1.07Z"/>
  <path class="cls-5" d="M65.14,64.35c-.83-.62-1.72-.93-2.64-.93-.39,0-.77.04-1.13.12-1.81.45-3.9,2.06-3.9,4.86v8.21h0c.86,0,1.56-.7,1.56-1.56v-6.93c0-.87.32-1.61.99-2.27.67-.66,1.42-.98,2.29-.98.4,0,.78.08,1.15.23.65.27,1.4.04,1.76-.56l.05-.08-.14-.1Z"/>
  <path class="cls-5" d="M42.49,75.22c-.52-.58-1.35-.79-2.06-.49-1.01.42-2.14.62-3.32.56-3.82-.22-6.91-3.33-7.06-7.15-.21-5.16,4.02-7.69,7.03-7.86,1.18-.07,2.3.14,3.32.56.72.3,1.55.09,2.06-.49l.15-.17c-1.56-1.04-3.45-1.62-5.48-1.53-4.6.19-9,4.06-8.71,9.65.24,4.68,4.06,8.46,8.75,8.65,2.03.09,3.92-.49,5.48-1.53l-.15-.17Z"/>
  <g>
    <g>
      <path class="cls-1" d="M84.47,48.99l-1.7-1.7h-4.74l-5.33-5.33h5.9l.03.03v-.03h.05l-.05-.05v-2.33l-7.25-7.25h5.65l1.8,1.8v-2.4l-1.1-1.1h-9.37v9.37l8.97,8.97h7.14ZM71.01,40.27l-.95-.95v-5.9l6.85,6.85h-5.9Z"/>
      <path class="cls-1" d="M101.96,32.35l-7.25,7.25v2.4l.03-.03h5.96l-5.33,5.33h-4.78l-1.7,1.7h7.18l8.97-8.97v-9.37h-9.37l-.97.97v2.4l1.68-1.68h5.58ZM96.44,40.27l6.91-6.91v5.96l-.95.95h-5.96Z"/>
    </g>
    <path class="cls-3" d="M79.29,53.92h-7.35l4.18-4.18h.02l-1.7-1.7h-10.41l3.99-3.99h2.42l-1.7-1.7h-1.43l-6.62,6.62,6.62,6.62h12.68l5.43-5.43h-2.4l-3.74,3.74ZM63.84,49.75h9.88l-4.18,4.18h-1.53l-4.18-4.18Z"/>
    <path class="cls-3" d="M106.09,42.37h-1.36l-1.7,1.7h2.35l3.99,3.99h-10.28l-1.68,1.68h0,0s-.02.02-.02.02h.03l4.18,4.18h-7.49l-3.74-3.74h-2.4l5.43,5.43h12.68l6.62-6.62-6.62-6.62ZM105.39,53.92h-1.39l-4.18-4.18h9.74l-4.18,4.18Z"/>
    <path class="cls-2" d="M93.32,29.69l-6.62-6.62-.84.84v.4h0v9.28l-2.29-2.29v2.4l2.29,2.29v12.13h0v.04l.84.84,6.62-6.62v-12.68ZM91.63,41.67l-4.13,4.13v-5.98l4.13-4.13v5.98ZM91.63,33.29l-4.13,4.13v-11.16l4.13,4.13v2.91Z"/>
    <polygon class="cls-2" points="84.54 44.44 81.77 41.67 81.77 30.39 84.54 27.62 84.54 25.22 80.08 29.69 80.08 42.37 84.54 46.83 84.54 44.44"/>
  </g>
  <g>
    <path class="cls-4" d="M82.02,92.54c.23-.48.43-.92.63-1.35.51-1.1,1.01-2.2,1.52-3.29.02-.05.06-.09.1-.12.21-.13.69-.03.8.18.05.1.07.26.02.35-.91,1.98-1.83,3.95-2.74,5.92-.09.2-.23.2-.4.21-.17,0-.25-.08-.32-.23-.28-.63-.58-1.25-.87-1.87-.04-.08-.09-.16-.14-.25-.34.72-.67,1.42-1,2.12-.07.14-.14.24-.32.23-.18,0-.32,0-.42-.22-.47-1.03-.96-2.05-1.44-3.08-.42-.9-.84-1.79-1.26-2.69-.07-.15-.18-.3-.06-.49.1-.17.21-.28.41-.24.03,0,.06,0,.09,0,.28-.04.44.06.56.34.63,1.4,1.29,2.78,1.95,4.17.04.08.08.16.14.27.26-.54.51-1.05.75-1.57.03-.06,0-.15-.02-.21-.37-.81-.75-1.62-1.13-2.42-.11-.23.07-.53.32-.55q.56-.04.8.46c.21.46.42.92.65,1.42.16-.33.3-.62.44-.92.13-.27.24-.56.38-.82.04-.08.16-.14.26-.17.09-.03.2,0,.29,0,.34,0,.52.3.38.6-.37.78-.72,1.56-1.09,2.34-.06.13-.07.25,0,.38.23.48.45.95.7,1.48Z"/>
    <path class="cls-4" d="M109.76,93.11c.46.35.97.45,1.53.38.74-.1,1.31-.49,1.75-1.08.14-.19.28-.14.45-.1.18.05.2.17.23.33.12.65-.27,1-.74,1.32-1.34.92-3.47.79-4.72-.74-1.35-1.67-.94-4.25,1.21-5.29,1.49-.72,3.15-.35,4.24.9.13.15.1.25-.03.38-.74.73-1.47,1.46-2.21,2.19-.52.51-1.04,1.02-1.55,1.53-.05.05-.1.11-.16.17ZM112.29,89.05c-.63-.54-1.97-.63-2.86.17-1.1.99-1.01,2.39-.42,3.17,1.09-1.12,2.18-2.23,3.27-3.34Z"/>
    <path class="cls-4" d="M88.04,93.13c.74.58,1.86.48,2.62-.1.24-.19.46-.42.65-.66.14-.17.28-.09.43-.06.15.04.25.12.23.28,0,.02,0,.03,0,.04.14.63-.23.98-.69,1.3-1.53,1.06-3.61.7-4.78-.75-1.34-1.66-.91-4.36,1.4-5.33,1.44-.6,2.97-.29,4.08.97.13.15.09.26-.04.39-.84.83-1.68,1.66-2.52,2.49-.46.46-.92.94-1.37,1.41ZM87.25,92.38c1.1-1.11,2.19-2.23,3.29-3.34-.76-.56-2.04-.63-2.97.29-.94.92-.91,2.25-.31,3.05Z"/>
    <path class="cls-4" d="M101.52,88.24c.42-.35.89-.53,1.42-.62,1.63-.29,3.17.76,3.47,2.38.03.19.05.38.05.56,0,1.11,0,2.21,0,3.32,0,.27-.13.46-.33.5-.29.07-.63-.04-.72-.24-.03-.06-.03-.15-.03-.22,0-1.14.01-2.27,0-3.41-.02-.79-.41-1.38-1.11-1.72-.92-.45-2.04-.03-2.54.89-.16.3-.22.6-.22.94,0,1.08,0,2.15,0,3.23,0,.24-.08.42-.29.51-.25.11-.6.02-.74-.18-.04-.06-.06-.15-.06-.23,0-1.93,0-3.87,0-5.8,0-.26.18-.41.45-.43.45-.04.61.15.67.51Z"/>
    <path class="cls-4" d="M119.29,93.12c0-.1,0-.14,0-.19-.04-.25.06-.37.31-.41.18-.03.28-.02.38.16.38.69.86.93,1.61.78.46-.09.81-.36.94-.82.12-.43-.06-.8-.41-1.06-.41-.3-.87-.55-1.29-.85-.28-.2-.56-.42-.79-.67-.41-.46-.52-1.01-.28-1.58.23-.54.69-.8,1.25-.89.54-.09,1.02.05,1.44.39.16.13.28.27.24.5-.01.07,0,.15,0,.23,0,.32-.16.47-.47.43-.06,0-.13-.06-.17-.12-.17-.21-.37-.38-.65-.42-.25-.04-.53.09-.62.29-.1.2-.05.4.21.58.47.33.96.62,1.45.93.43.28.81.62,1.02,1.1.37.87.17,1.73-.53,2.4-.94.89-2.57.84-3.42-.1-.19-.21-.28-.44-.24-.67Z"/>
    <path class="cls-4" d="M117.75,88.61c0,.05,0,.11,0,.16,0,.14,0,.28-.18.32-.18.04-.35.13-.5-.1-.23-.34-.59-.46-.91-.36-.41.13-.51.51-.18.78.32.25.67.47,1.01.68.45.29.93.54,1.26.99.69.92.54,2.13-.33,2.89-.87.76-2.34.74-3.18,0-.36-.31-.55-.83-.39-1.27.04-.1.23-.15.37-.2.12-.05.22,0,.28.13.16.33.38.6.72.75.56.25,1.31.08,1.69-.4.34-.44.26-1.04-.24-1.42-.4-.31-.84-.56-1.27-.83-.38-.24-.74-.51-.97-.91-.56-.97-.02-2.05,1.1-2.24.45-.08.87-.01,1.26.22.39.23.46.36.46.8Z"/>
    <path class="cls-4" d="M96.68,88.11c0-1.3,0-2.61,0-3.91,0-.33.16-.48.49-.48.48,0,.6.12.6.6,0,2.53,0,5.06,0,7.59,0,.7.35,1.22,1,1.47.11.04.24.08.35.07.25-.01.4.12.5.32.09.19,0,.5-.16.64-.07.05-.18.08-.27.08-1.34.01-2.49-1.13-2.5-2.48,0-.02,0-.03,0-.05,0-1.29,0-2.58,0-3.87Z"/>
    <path class="cls-4" d="M92.98,88.18c0-1.32,0-2.64,0-3.96,0-.39.14-.5.62-.5.3,0,.45.18.45.52,0,2.53,0,5.06,0,7.6,0,.73.3,1.27,1,1.54.12.05.25.08.37.08.24,0,.4.12.47.32.1.26,0,.56-.2.68-.05.03-.13.04-.19.04-1.3.03-2.48-1.09-2.51-2.39,0-.05,0-.11,0-.16,0-1.26,0-2.52,0-3.78Z"/>
  </g>
  <g>
    <path class="cls-4" d="M137.68,93.1c1.06.76,2.52.36,3.27-.69.14-.19.27-.15.45-.11.19.05.21.17.25.34.12.66-.27,1.01-.74,1.32-1.66,1.1-4.12.67-5.15-1.46-1.02-2.1.33-4.47,2.53-4.86,1.29-.23,2.41.14,3.3,1.13.2.22.2.28,0,.49-1.27,1.25-2.53,2.5-3.8,3.75-.03.03-.06.07-.1.11ZM140.22,89.04c-.76-.58-2.09-.65-3.02.31-.97,1.01-.84,2.28-.27,3.02,1.09-1.11,2.18-2.21,3.28-3.32Z"/>
    <path class="cls-4" d="M160.6,93.12c.79.59,1.9.45,2.64-.12.23-.18.44-.4.62-.63.16-.2.31-.1.47-.06.15.03.22.13.2.28,0,.05-.01.11,0,.16.11.48-.17.77-.51,1.05-1.42,1.12-3.44.96-4.7-.33-1.12-1.13-1.27-2.81-.62-4.02,1.09-2.02,3.68-2.42,5.28-1.14.18.15.35.31.51.48.18.19.18.27-.01.45-.72.71-1.44,1.41-2.15,2.12-.58.58-1.14,1.17-1.72,1.77ZM159.81,92.35c1.1-1.11,2.2-2.21,3.3-3.32-.7-.55-2.03-.65-2.97.28-.95.94-.92,2.21-.33,3.04Z"/>
    <path class="cls-4" d="M143.75,88.24c.42-.38.91-.57,1.45-.65,2.05-.29,3.49,1.23,3.49,2.91,0,1.12,0,2.24,0,3.37,0,.34-.16.51-.49.51-.44,0-.6-.14-.6-.52,0-1.09,0-2.18,0-3.28,0-.87-.5-1.63-1.32-1.9-.75-.24-1.51-.05-2.11.67-.31.37-.45.79-.45,1.27,0,1.08,0,2.17,0,3.25,0,.35-.16.49-.55.49-.39,0-.54-.14-.54-.5,0-1.87,0-3.73,0-5.6,0-.35.13-.55.37-.57.47-.04.68.05.74.53Z"/>
    <path class="cls-4" d="M132.12,94.54c-1.74.09-3.02-1.23-3.38-2.44-.48-1.63.16-3.25,1.64-4.07,1.34-.74,3.18-.6,4.33.66.07.08.11.2.12.3.02.16,0,.32,0,.48,0,.19-.06.29-.26.36-.22.08-.33.02-.46-.14-.64-.81-1.46-1.2-2.51-1.02-1.21.22-2.09,1.51-1.94,2.73.12.96,1.01,1.92,1.93,2.07,1.04.18,1.88-.18,2.51-1.01.14-.19.27-.21.48-.15.22.07.21.22.24.4.11.62-.26.95-.7,1.25-.61.42-1.29.61-2.02.58Z"/>
    <path class="cls-4" d="M150.96,87.72c.46,0,.9,0,1.34,0,.34,0,.49.17.49.52,0,.35-.16.51-.5.51-.43,0-.86,0-1.31,0,0,.07-.01.14-.01.2,0,.96.02,1.93,0,2.89-.02.81.6,1.52,1.41,1.57.34.02.48.24.46.62-.02.25-.22.41-.52.41-1.28-.03-2.41-1.13-2.42-2.41-.02-2.11,0-4.22,0-6.32,0-.23.18-.41.41-.41.08,0,.15,0,.23,0,.27,0,.45.18.45.46,0,.57,0,1.14,0,1.71,0,.08,0,.16,0,.26Z"/>
    <path class="cls-4" d="M154.68,88.04c.52-.36,1.09-.51,1.71-.46.44.03.84.19,1.18.46.09.07.13.21.16.32.03.11,0,.23,0,.34.01.17-.05.28-.22.35-.17.07-.31.09-.47-.06-.41-.39-.92-.52-1.44-.3-.59.25-.95.7-.96,1.36,0,1.28,0,2.56,0,3.84,0,.32-.18.47-.54.47-.37,0-.55-.15-.55-.47,0-1.91,0-3.82,0-5.73,0-.28.18-.46.46-.46q.41,0,.66.32Z"/>
  </g>
  <g>
    <path class="cls-4" d="M20.3,94.29c-.22.05-.36-.08-.48-.34-.28-.61-.58-1.21-.89-1.81-.25-.5-.51-.99-.78-1.48-.04-.07-.14-.14-.22-.14-1.55,0-3.09,0-4.64,0-.07,0-.18.08-.21.14-.21.4-.41.81-.61,1.22-.37.74-.73,1.48-1.11,2.22-.04.08-.16.14-.26.17-.11.03-.23.01-.34,0-.3-.01-.48-.32-.35-.58.25-.51.49-1.02.74-1.53.57-1.16,1.15-2.32,1.72-3.49.65-1.33,1.3-2.66,1.95-3.99.17-.34.34-.67.49-1.02.07-.17.2-.16.34-.16.14,0,.26,0,.34.16.67,1.37,1.34,2.74,2.01,4.11.68,1.4,1.36,2.8,2.04,4.19.29.59.59,1.17.88,1.75.1.19-.07.51-.29.54-.09.01-.18,0-.34.02ZM17.6,89.46c-.66-1.35-1.31-2.67-1.98-4.03-.66,1.36-1.31,2.69-1.96,4.03h3.94Z"/>
    <path class="cls-4" d="M60.53,88.44v-.46c0-1.26,0-2.52,0-3.78,0-.25.13-.48.31-.53.26-.08.61.01.73.21.05.08.05.2.05.3,0,2.66,0,5.32,0,7.98,0,.55,0,1.11,0,1.66,0,.29-.17.45-.47.45-.4,0-.6-.13-.62-.44,0-.1,0-.21,0-.36-.96.82-2.04,1.11-3.24.85-.85-.19-1.51-.68-2.02-1.38-1.02-1.41-.81-3.26.48-4.51,1.2-1.15,3.24-1.31,4.78-.01ZM55.74,91.01c-.09,1.16,1.09,2.4,2.39,2.4,1.25,0,2.47-1.16,2.45-2.41-.03-1.31-1.14-2.44-2.45-2.45-1.35,0-2.46,1.27-2.38,2.46Z"/>
    <path class="cls-4" d="M26.7,93.81c-.4.3-.81.49-1.28.57-2.08.38-3.69-1.17-3.68-2.98,0-1.07,0-2.14,0-3.21,0-.25.13-.47.32-.52.29-.08.64.03.75.24.03.06.03.15.03.22,0,1.09.02,2.18,0,3.28-.03,1.08,1.04,2.27,2.41,1.94.59-.14,1.03-.52,1.28-1.07.11-.24.18-.53.18-.8.02-1.1,0-2.2,0-3.3,0-.22.15-.45.31-.5.29-.08.64.02.75.23.03.06.03.13.03.2,0,1.93.01,3.85,0,5.78,0,.83-.35,1.51-.93,2.14-1.04,1.14-3.11,1.22-4.25.25-.2-.17-.37-.37-.54-.57-.04-.04-.06-.12-.06-.19,0-.14,0-.29,0-.43,0-.37,0-.36.36-.45.17-.04.25.01.35.15.49.71,1.14,1.16,2.05,1.12,1.05-.04,1.99-1.05,1.92-2.1Z"/>
    <path class="cls-4" d="M49.99,93c.95.7,2.18.43,2.94-.28.14-.13.26-.28.37-.43.13-.19.29-.11.45-.07.15.04.24.12.22.29,0,0,0,.02,0,.02.14.65-.25,1-.71,1.33-1.2.85-3.13.8-4.29-.28-.79-.74-1.27-1.61-1.23-2.72.03-.83.33-1.54.89-2.16.77-.86,1.75-1.22,2.89-1.17.62.03,1.21.22,1.71.59.24.18.46.38.67.59.23.22.23.27,0,.5-.48.47-.96.95-1.44,1.42-.45.45-.9.9-1.36,1.34-.36.35-.73.68-1.1,1.03ZM52.46,88.92c-.76-.56-2.16-.56-3.07.54-.69.83-.76,2.22-.09,2.8,1.05-1.11,2.11-2.23,3.16-3.34Z"/>
    <path class="cls-4" d="M33.8,93.78c-1.01.73-2.1.87-3.21.39-1.07-.46-1.68-1.35-1.73-2.51-.05-1.18-.01-2.36-.01-3.55,0-.26.18-.43.44-.44.06,0,.12,0,.18,0,.29,0,.46.17.46.46,0,1.11.02,2.23,0,3.34-.02.73.57,1.59,1.33,1.85.69.23,1.59-.04,2.09-.65.31-.38.48-.8.47-1.31-.02-1.05,0-2.11,0-3.16,0-.4.14-.54.55-.54.4,0,.54.14.54.52,0,1.84,0,3.68,0,5.53,0,.37-.13.55-.43.57-.47.03-.62-.09-.67-.51Z"/>
    <path class="cls-4" d="M68.85,94.45c-1.8.08-3.26-1.39-3.48-2.96-.16-1.17.23-2.18,1.09-3.01,1.11-1.07,3.02-1.23,4.27-.41.12.08.23.18.36.25.46.27.47.7.46,1.16,0,.22-.14.25-.29.31-.15.06-.27.06-.37-.09-.23-.35-.55-.62-.92-.82-1.14-.6-2.41-.27-3.13.8-.47.71-.59,1.5-.22,2.26.82,1.72,2.83,1.96,4.05.63.06-.07.13-.13.17-.21.11-.19.25-.22.45-.16.19.06.28.16.25.36,0,0,0,.02,0,.02.13.63-.24.98-.7,1.29-.6.41-1.27.59-1.99.57Z"/>
    <path class="cls-4" d="M43.94,92.46c.34-.7.66-1.35.98-2.01.4-.84.81-1.67,1.19-2.52.15-.35.41-.25.66-.27.23-.02.28.18.36.33.03.05.01.14-.01.19-.6,1.26-1.2,2.52-1.8,3.78-.35.73-.71,1.45-1.05,2.18-.08.16-.17.22-.35.22-.17,0-.29-.01-.37-.21-.3-.67-.63-1.34-.96-2-.63-1.31-1.27-2.62-1.9-3.93-.11-.24.07-.54.33-.55.61-.03.62,0,.9.6.6,1.28,1.23,2.55,1.85,3.83.05.11.1.22.17.37Z"/>
    <path class="cls-4" d="M37.16,88c.62-.42,1.3-.59,2.02-.41.33.08.63.28.93.44.06.03.1.14.11.22.02.11,0,.23,0,.34,0,.31-.08.42-.39.47-.07.01-.18-.03-.24-.08-.43-.4-.93-.56-1.48-.34-.63.25-.98.75-.98,1.44,0,1.24,0,2.47,0,3.71,0,.32-.16.49-.48.49-.44,0-.61-.13-.61-.49,0-1.89,0-3.78,0-5.66,0-.29.18-.46.46-.47.41,0,.44.01.65.33Z"/>
    <path class="cls-4" d="M63.12,90.97c0-.94,0-1.88,0-2.82,0-.32.16-.47.5-.47.4,0,.58.15.58.46,0,1.89,0,3.78,0,5.66,0,.34-.17.48-.57.48-.36,0-.52-.15-.52-.47,0-.95,0-1.9,0-2.84Z"/>
    <path class="cls-4" d="M64.36,86.19c-.01.42-.29.69-.71.68-.44,0-.73-.3-.72-.73.01-.42.31-.68.75-.66.42.01.68.29.67.71Z"/>
  </g>
</svg>