<?xml version="1.0" encoding="UTF-8"?>
<svg id="Layer_1" data-name="Layer 1" xmlns="http://www.w3.org/2000/svg" xmlns:xlink="http://www.w3.org/1999/xlink" viewBox="0 0 175 120">
  <defs>
    <style>
      .cls-1 {
        fill: url(#linear-gradient);
      }

      .cls-1, .cls-2, .cls-3, .cls-4, .cls-5, .cls-6, .cls-7 {
        stroke-width: 0px;
      }

      .cls-2 {
        fill: #afb2b1;
      }

      .cls-3 {
        fill: #c4c6c5;
      }

      .cls-4 {
        fill: #171f48;
      }

      .cls-5 {
        fill: url(#New_Gradient_Swatch_copy);
      }

      .cls-6 {
        fill: url(#New_Gradient_Swatch_copy-2);
      }

      .cls-7 {
        fill: url(#linear-gradient-2);
      }
    </style>
    <linearGradient id="New_Gradient_Swatch_copy" data-name="New Gradient Swatch copy" x1="37.89" y1="48.31" x2="80.71" y2="48.31" gradientUnits="userSpaceOnUse">
      <stop offset="0" stop-color="#2e9ed5"/>
      <stop offset="1" stop-color="#1f75af"/>
    </linearGradient>
    <linearGradient id="linear-gradient" x1="87.08" y1="32.96" x2="107.88" y2="32.96" gradientUnits="userSpaceOnUse">
      <stop offset="0" stop-color="#1f75af"/>
      <stop offset="1" stop-color="#2e9ed5"/>
    </linearGradient>
    <linearGradient id="New_Gradient_Swatch_copy-2" data-name="New Gradient Swatch copy" x1="-265.1" x2="-222.28" gradientTransform="translate(-128.84) rotate(-180) scale(1 -1)" xlink:href="#New_Gradient_Swatch_copy"/>
    <linearGradient id="linear-gradient-2" x1="66.28" x2="87.08" xlink:href="#linear-gradient"/>
  </defs>
  <g>
    <polygon class="cls-5" points="52.36 77.73 37.89 77.73 66.25 18.88 80.71 18.88 52.36 77.73"/>
    <polygon class="cls-2" points="83.96 68.53 79.52 77.73 65.06 77.73 76.56 53.87 83.96 68.53"/>
    <polygon class="cls-1" points="107.88 18.88 100.66 33.86 95.6 44.37 94.31 47.05 93.02 44.37 87.08 32.04 88.37 29.36 93.42 18.88 107.88 18.88"/>
    <polygon class="cls-6" points="121.8 77.73 136.27 77.73 107.91 18.88 93.44 18.88 121.8 77.73"/>
    <polygon class="cls-4" points="94.31 47.05 88.37 59.38 87.08 62.05 85.79 59.38 79.85 47.05 81.14 44.37 87.08 32.04 93.02 44.37 94.31 47.05"/>
    <polygon class="cls-7" points="85.79 29.36 87.08 32.04 81.14 44.37 79.85 47.05 78.56 44.37 73.49 33.86 66.28 18.88 80.74 18.88 85.79 29.36"/>
    <polygon class="cls-3" points="109.1 77.73 94.63 77.73 87.08 62.05 88.37 59.38 94.31 47.05 109.1 77.73"/>
  </g>
  <g>
    <path class="cls-4" d="M8.17,90.79h3.36l2.32,6.57h.03l2.33-6.57h3.34v10.07h-2.22v-7.72h-.03l-2.65,7.72h-1.69l-2.55-7.72h-.03v7.72h-2.22v-10.07Z"/>
    <path class="cls-4" d="M20.6,90.79h2.53l2.49,6.6h.03l2.53-6.6h2.38l-4.15,10.07h-1.78l-4.02-10.07Z"/>
    <path class="cls-4" d="M34.14,90.79h1.83l4.38,10.07h-2.5l-.87-2.13h-3.91l-.84,2.13h-2.45l4.35-10.07ZM34.99,93.72l-1.22,3.13h2.46l-1.24-3.13Z"/>
    <path class="cls-4" d="M45.54,90.79h2.22v10.07h-2.22v-10.07Z"/>
    <path class="cls-4" d="M49.78,90.79h3.02l4.28,7h.03v-7h2.22v10.07h-2.9l-4.39-7.17h-.03v7.17h-2.22v-10.07Z"/>
    <path class="cls-4" d="M60.38,90.79h2.53l2.49,6.6h.03l2.53-6.6h2.38l-4.15,10.07h-1.78l-4.02-10.07Z"/>
    <path class="cls-4" d="M71.47,90.79h6.84v2.05h-4.62v1.88h4.37v2.05h-4.37v2.05h4.88v2.05h-7.1v-10.07Z"/>
    <path class="cls-4" d="M85.32,93.25c-.18-.23-.42-.4-.73-.51-.31-.11-.6-.16-.87-.16-.16,0-.33.02-.5.06-.17.04-.33.1-.48.18-.15.08-.27.19-.37.32-.1.13-.14.29-.14.48,0,.3.11.54.34.7.23.16.51.3.86.41.35.11.72.23,1.12.34.4.11.77.28,1.12.48.35.21.63.49.86.84s.34.82.34,1.41-.1,1.05-.31,1.46c-.21.42-.49.76-.85,1.04-.36.28-.77.48-1.24.61s-.96.2-1.49.2c-.65,0-1.26-.1-1.82-.3-.56-.2-1.08-.52-1.56-.97l1.58-1.74c.23.3.51.54.86.7s.7.25,1.07.25c.18,0,.36-.02.55-.06.18-.04.35-.11.5-.19.15-.09.27-.19.36-.33.09-.13.14-.29.14-.47,0-.3-.12-.54-.35-.72-.23-.18-.52-.32-.87-.45-.35-.12-.73-.25-1.14-.37-.41-.12-.79-.29-1.14-.5-.35-.21-.64-.48-.87-.83-.23-.34-.35-.79-.35-1.35s.11-1.01.32-1.42c.21-.41.5-.75.85-1.02.36-.27.77-.48,1.23-.62.46-.14.94-.21,1.44-.21.57,0,1.12.08,1.65.24.53.16,1.01.43,1.44.81l-1.52,1.66Z"/>
    <path class="cls-4" d="M90.46,92.76h-2.87v-1.96h7.97v1.96h-2.87v8.11h-2.22v-8.11Z"/>
    <path class="cls-4" d="M96.67,90.79h3.36l2.32,6.57h.03l2.33-6.57h3.34v10.07h-2.22v-7.72h-.03l-2.65,7.72h-1.69l-2.55-7.72h-.03v7.72h-2.22v-10.07Z"/>
    <path class="cls-4" d="M110.18,90.79h6.84v2.05h-4.62v1.88h4.37v2.05h-4.37v2.05h4.88v2.05h-7.1v-10.07Z"/>
    <path class="cls-4" d="M119.06,90.79h3.02l4.28,7h.03v-7h2.22v10.07h-2.9l-4.39-7.17h-.03v7.17h-2.22v-10.07Z"/>
    <path class="cls-4" d="M132.6,92.76h-2.87v-1.96h7.97v1.96h-2.87v8.11h-2.22v-8.11Z"/>
    <path class="cls-4" d="M143.11,90.79h2.22v8.02h4.11v2.05h-6.33v-10.07Z"/>
    <path class="cls-4" d="M150.75,90.79h2.22v8.02h4.11v2.05h-6.33v-10.07Z"/>
    <path class="cls-4" d="M164.88,93.41c-.22-.27-.49-.47-.8-.61-.32-.14-.69-.21-1.1-.21s-.8.08-1.16.24c-.36.16-.66.39-.92.68-.26.29-.47.63-.61,1.03-.15.4-.22.83-.22,1.29s.07.91.22,1.3c.15.39.35.74.6,1.02.26.29.56.51.9.68.35.16.72.24,1.12.24.45,0,.86-.09,1.21-.28s.64-.45.87-.8l1.85,1.38c-.43.6-.97,1.04-1.62,1.32s-1.33.43-2.02.43c-.79,0-1.51-.12-2.18-.37-.66-.25-1.24-.6-1.72-1.06s-.86-1.02-1.13-1.67c-.27-.65-.41-1.38-.41-2.19s.14-1.54.41-2.19.65-1.21,1.13-1.67c.48-.46,1.06-.81,1.72-1.06.66-.25,1.39-.37,2.18-.37.28,0,.58.03.89.08.31.05.61.14.91.25.3.11.59.27.86.45.27.19.52.42.74.7l-1.71,1.39Z"/>
  </g>
</svg>