<?xml version="1.0" encoding="UTF-8"?>
<svg id="Layer_1" data-name="Layer 1" xmlns="http://www.w3.org/2000/svg" viewBox="0 0 175 120">
  <defs>
    <style>
      .cls-1 {
        fill: #4c8dcb;
      }

      .cls-1, .cls-2, .cls-3, .cls-4, .cls-5, .cls-6, .cls-7, .cls-8, .cls-9, .cls-10, .cls-11, .cls-12, .cls-13, .cls-14, .cls-15, .cls-16, .cls-17, .cls-18, .cls-19, .cls-20, .cls-21, .cls-22, .cls-23, .cls-24 {
        stroke-width: 0px;
      }

      .cls-2 {
        fill: #3468a3;
      }

      .cls-3 {
        fill: #746fa7;
      }

      .cls-4 {
        fill: #99558e;
      }

      .cls-5 {
        fill: #d4525c;
      }

      .cls-6 {
        fill: #2e4e88;
      }

      .cls-7 {
        fill: #2a4c87;
      }

      .cls-8 {
        fill: #351a55;
      }

      .cls-9 {
        fill: #7ec45f;
      }

      .cls-10 {
        fill: #194c88;
      }

      .cls-11 {
        fill: #4fba6a;
      }

      .cls-12 {
        fill: #e0654f;
      }

      .cls-13 {
        fill: #4c609b;
      }

      .cls-14 {
        fill: #fec127;
      }

      .cls-15 {
        fill: #00aa75;
      }

      .cls-16 {
        fill: #0aa496;
      }

      .cls-17 {
        fill: #1f3d70;
      }

      .cls-18 {
        fill: #be266a;
      }

      .cls-19 {
        fill: #54669f;
      }

      .cls-20 {
        fill: #3498b3;
      }

      .cls-21 {
        fill: #af3379;
      }

      .cls-22 {
        fill: #f89828;
      }

      .cls-23 {
        fill: #f57f2a;
      }

      .cls-24 {
        fill: #fed627;
      }
    </style>
  </defs>
  <path id="path999" class="cls-7" d="M146.73,47.65c.81,3.1,3.99,4.96,7.14,4.11,3.1-.81,4.96-3.99,4.11-7.14-.81-3.1-3.99-4.96-7.14-4.11-3.06.85-4.93,4.03-4.11,7.14Z"/>
  <path id="path1001" class="cls-7" d="M138.85,53.85c2.09-.58,3.37-2.75,2.79-4.85s-2.75-3.37-4.85-2.79-3.37,2.75-2.79,4.85c.54,2.09,2.72,3.34,4.85,2.79Z"/>
  <path id="path1003" class="cls-7" d="M127.22,55.87c1.55-.43,2.48-2.02,2.06-3.57s-2.02-2.48-3.57-2.06-2.48,2.02-2.06,3.57,2.02,2.48,3.57,2.06Z"/>
  <path id="path1005" class="cls-6" d="M118.18,57.23c.97-.27,1.55-1.28,1.32-2.25s-1.28-1.55-2.25-1.32c-.97.27-1.55,1.28-1.32,2.25s1.24,1.55,2.25,1.32Z"/>
  <path id="path1007" class="cls-17" d="M142.42,35.86c1.47,2.52,4.69,3.41,7.21,1.94s3.41-4.69,1.94-7.21-4.69-3.41-7.21-1.94c-2.52,1.47-3.41,4.69-1.94,7.21Z"/>
  <path id="path1009" class="cls-17" d="M130.75,42.57c1.01,1.78,3.26,2.37,5.04,1.36s2.37-3.26,1.36-5.04-3.26-2.37-5.04-1.36c-1.75,1.01-2.37,3.26-1.36,5.04Z"/>
  <path id="path1011" class="cls-17" d="M122.45,44.31c-1.28.74-1.71,2.33-.97,3.61s2.33,1.71,3.61.97,1.71-2.33.97-3.61c-.7-1.24-2.33-1.67-3.61-.97Z"/>
  <path id="path1013" class="cls-17" d="M115.04,49.66c-.81.47-1.12,1.51-.66,2.33s1.51,1.12,2.33.66,1.12-1.51.66-2.33-1.51-1.12-2.33-.66Z"/>
  <path id="path1015" class="cls-10" d="M141.84,25.5c1.86-1.86,1.86-4.85,0-6.71s-4.85-1.86-6.71,0-1.86,4.85,0,6.71c1.82,1.86,4.85,1.86,6.71,0Z"/>
  <path id="path1017" class="cls-10" d="M130.24,30.35c-1.36-1.36-3.53-1.36-4.85,0-1.36,1.36-1.36,3.53,0,4.85,1.36,1.36,3.53,1.36,4.85,0,1.36-1.36,1.36-3.53,0-4.85Z"/>
  <path id="path1019" class="cls-10" d="M117.83,39.39c-.93.93-.93,2.44,0,3.37s2.44.93,3.37,0,.93-2.44,0-3.34c-.93-.97-2.44-.97-3.37-.04Z"/>
  <path id="path1021" class="cls-10" d="M111.97,48.62c.62.62,1.63.62,2.25,0,.62-.62.62-1.63,0-2.25s-1.63-.62-2.25,0-.62,1.63,0,2.25h0Z"/>
  <path id="path1023" class="cls-2" d="M125.12,17.51c2.13,1.24,4.89.5,6.13-1.63s.5-4.89-1.63-6.13-4.89-.5-6.13,1.63c-1.28,2.13-.54,4.89,1.63,6.13-.04,0,0,0,0,0Z"/>
  <path id="path1025" class="cls-2" d="M117.09,25.07c-.89,1.51-.35,3.45,1.16,4.34s3.45.35,4.34-1.16.35-3.45-1.16-4.34c-1.55-.89-3.49-.35-4.34,1.16Z"/>
  <path id="path1027" class="cls-2" d="M115,35c-1.01-.58-2.29-.23-2.87.78s-.23,2.29.78,2.87,2.29.23,2.87-.78.23-2.29-.78-2.87Z"/>
  <path id="path1029" class="cls-2" d="M110.11,43.46c-.7-.39-1.59-.16-1.98.54s-.16,1.59.54,1.98,1.59.16,1.98-.54.16-1.59-.54-1.98Z"/>
  <path id="path1031" class="cls-1" d="M113.33,12.35c2.25.62,4.58-.74,5.16-2.99.62-2.25-.74-4.58-2.99-5.16s-4.58.74-5.16,2.99c-.62,2.25.74,4.58,2.99,5.16h0Z"/>
  <path id="path1033" class="cls-1" d="M109.76,25.62c1.55.43,3.14-.5,3.57-2.06.43-1.55-.5-3.14-2.06-3.57s-3.14.5-3.57,2.06c-.39,1.55.5,3.14,2.06,3.57Z"/>
  <path id="path1035" class="cls-1" d="M106.97,36.09c1.05.27,2.13-.35,2.4-1.4s-.35-2.13-1.4-2.4-2.13.35-2.4,1.4c-.27,1.01.35,2.09,1.4,2.4Z"/>
  <path id="path1037" class="cls-1" d="M103.87,42.6c-.19.7.23,1.44.93,1.63s1.44-.23,1.63-.93-.23-1.44-.93-1.63c-.74-.19-1.47.23-1.63.93Z"/>
  <path id="path1039" class="cls-20" d="M100.53,10.41c2.17,0,3.96-1.78,3.96-3.96s-1.78-3.96-3.96-3.96-3.96,1.78-3.96,3.96,1.78,3.96,3.96,3.96Z"/>
  <path id="path1041" class="cls-20" d="M100.53,18.87c-1.47,0-2.64,1.16-2.64,2.64s1.16,2.64,2.64,2.64,2.64-1.16,2.64-2.64-1.16-2.64-2.64-2.64Z"/>
  <path id="path1043" class="cls-20" d="M102.39,33.26c0-1.01-.81-1.86-1.86-1.86s-1.86.81-1.86,1.86.81,1.86,1.86,1.86,1.86-.85,1.86-1.86Z"/>
  <path id="path1045" class="cls-20" d="M100.53,41.17c-.66,0-1.2.54-1.2,1.2s.54,1.2,1.2,1.2,1.2-.54,1.2-1.2-.54-1.2-1.2-1.2Z"/>
  <path id="path1047" class="cls-16" d="M87.62,11.89c1.98-.54,3.14-2.56,2.6-4.54s-2.56-3.14-4.54-2.6-3.14,2.56-2.6,4.54c.54,1.94,2.6,3.1,4.54,2.6Z"/>
  <path id="path1049" class="cls-16" d="M88.28,23.44c.35,1.28,1.63,2.02,2.91,1.67s2.02-1.63,1.67-2.91-1.63-2.02-2.91-1.67c-1.24.35-2.02,1.67-1.67,2.91Z"/>
  <path id="path1051" class="cls-16" d="M91.96,34.65c.23.93,1.2,1.47,2.09,1.2.93-.23,1.47-1.2,1.2-2.09-.23-.93-1.2-1.47-2.09-1.2-.93.23-1.44,1.16-1.2,2.09h0Z"/>
  <path id="path1053" class="cls-16" d="M94.95,43.26c.16.58.74.89,1.28.74.58-.16.89-.74.74-1.28-.16-.58-.74-.89-1.28-.74s-.89.7-.74,1.28Z"/>
  <path id="path1055" class="cls-15" d="M75.48,16.66c1.63-.93,2.21-3.06,1.28-4.69s-3.06-2.21-4.69-1.28-2.21,3.06-1.28,4.69c.97,1.67,3.06,2.21,4.69,1.28Z"/>
  <path id="path1057" class="cls-15" d="M82.34,28.53c1.01-.58,1.36-1.86.78-2.87s-1.86-1.36-2.87-.78-1.36,1.86-.78,2.87c.54,1.01,1.86,1.36,2.87.78Z"/>
  <path id="path1059" class="cls-15" d="M87.93,38.26c.78-.43,1.01-1.4.58-2.17s-1.4-1.01-2.17-.58-1.01,1.4-.58,2.17c.47.74,1.44,1.01,2.17.58Z"/>
  <path id="path1061" class="cls-15" d="M92.5,44.31c-.27-.43-.81-.58-1.28-.35-.43.27-.58.81-.35,1.28.27.43.81.58,1.24.35.5-.27.66-.85.39-1.28Z"/>
  <path id="path1063" class="cls-11" d="M64.89,24.45c1.24-1.24,1.24-3.26,0-4.5s-3.26-1.24-4.5,0-1.24,3.26,0,4.5c1.28,1.24,3.3,1.24,4.5,0Z"/>
  <path id="path1065" class="cls-11" d="M74.62,31.55c-.74-.74-1.9-.74-2.6,0-.74.74-.74,1.9,0,2.6.74.74,1.9.74,2.6,0s.7-1.9,0-2.6Z"/>
  <path id="path1067" class="cls-11" d="M82.65,40.12c-.58-.58-1.47-.58-2.06,0s-.58,1.47,0,2.06,1.47.58,2.06,0c.54-.58.54-1.47,0-2.06Z"/>
  <path id="path1069" class="cls-11" d="M88.62,47.03c-.31-.31-.81-.27-1.09.04-.31.31-.27.81.04,1.09s.78.27,1.09,0c.27-.31.27-.81-.04-1.12Z"/>
  <path id="path1071" class="cls-9" d="M52.63,35.74c1.4.81,3.18.31,3.96-1.05.81-1.4.31-3.18-1.05-3.96-1.4-.81-3.18-.31-3.96,1.05-.81,1.36-.35,3.14,1.05,3.96Z"/>
  <path id="path1073" class="cls-9" d="M67.99,39.46c-.78-.43-1.71-.16-2.17.58-.43.78-.16,1.71.58,2.17.78.43,1.71.19,2.17-.58.43-.78.16-1.75-.58-2.17Z"/>
  <path id="path1075" class="cls-9" d="M78.04,45.55c-.62-.35-1.44-.16-1.78.5-.35.62-.16,1.44.5,1.78.62.35,1.44.16,1.78-.47s.12-1.44-.5-1.82Z"/>
  <path id="path1077" class="cls-13" d="M154.21,53.66c-3.49,0-6.36,2.83-6.36,6.36s2.83,6.36,6.36,6.36,6.32-2.83,6.36-6.32c-.04-3.53-2.87-6.4-6.36-6.4h0Z"/>
  <path id="path1079" class="cls-13" d="M143.7,60.02c0-2.52-2.02-4.54-4.54-4.54s-4.54,2.02-4.54,4.54,2.02,4.54,4.54,4.54,4.54-2.02,4.54-4.54Z"/>
  <path id="path1081" class="cls-13" d="M127.41,56.92c-1.71,0-3.1,1.4-3.1,3.1s1.4,3.1,3.1,3.1,3.1-1.4,3.1-3.1-1.4-3.1-3.1-3.1Z"/>
  <path id="path1083" class="cls-19" d="M120.31,60.02c0-1.12-.89-2.02-2.02-2.02s-2.02.89-2.02,2.02.89,2.02,2.02,2.02,2.02-.89,2.02-2.02Z"/>
  <path id="path1085" class="cls-3" d="M153.86,68.24c-3.1-.85-6.28,1.01-7.14,4.11s1.01,6.28,4.11,7.14,6.28-1.01,7.14-4.11v-.04c.81-3.06-1.05-6.24-4.11-7.1h0Z"/>
  <path id="path1087" class="cls-3" d="M136.8,73.79c2.09.58,4.27-.7,4.85-2.79s-.7-4.27-2.79-4.85-4.27.7-4.85,2.79.66,4.27,2.79,4.85Z"/>
  <path id="path1089" class="cls-3" d="M125.7,69.75c1.55.43,3.14-.5,3.57-2.06s-.5-3.14-2.06-3.57-3.14.5-3.57,2.06c-.39,1.55.5,3.14,2.06,3.57Z"/>
  <path id="path1091" class="cls-3" d="M117.21,66.38c.97.27,1.98-.31,2.25-1.32.27-.97-.31-1.98-1.32-2.25-.97-.27-1.98.31-2.25,1.32-.27.93.31,1.98,1.32,2.25h0Z"/>
  <path id="path1093" class="cls-4" d="M149.63,82.2c-2.52-1.47-5.74-.58-7.21,1.94s-.58,5.74,1.94,7.21,5.74.58,7.21-1.94c1.44-2.52.58-5.74-1.94-7.21Z"/>
  <path id="path1095" class="cls-4" d="M137.18,81.12c1.01-1.78.43-4.03-1.36-5.04s-4.03-.43-5.04,1.36-.43,4.03,1.36,5.04c1.75,1.01,3.99.39,5.04-1.36Z"/>
  <path id="path1097" class="cls-4" d="M126.05,74.72c.74-1.28.31-2.87-.97-3.61s-2.87-.31-3.61.97-.31,2.87.97,3.61c1.28.7,2.87.27,3.61-.97Z"/>
  <path id="path1099" class="cls-4" d="M117.4,69.68c.47-.81.19-1.86-.62-2.37-.81-.47-1.86-.19-2.37.62s-.19,1.86.62,2.37h.04c.81.47,1.86.19,2.33-.62Z"/>
  <path id="path1101" class="cls-21" d="M135.09,94.5c-1.86,1.86-1.86,4.85,0,6.71,1.86,1.86,4.85,1.86,6.71,0s1.86-4.85,0-6.71c-1.82-1.82-4.85-1.82-6.71,0Z"/>
  <path id="path1103" class="cls-21" d="M130.24,89.65c1.36-1.36,1.36-3.53,0-4.85-1.36-1.36-3.53-1.36-4.85,0-1.36,1.36-1.36,3.53,0,4.85,1.32,1.36,3.49,1.36,4.85,0Z"/>
  <path id="path1105" class="cls-21" d="M121.2,80.61c.93-.93.93-2.44,0-3.37s-2.44-.93-3.37,0-.93,2.44,0,3.34c.93.97,2.44.97,3.37.04h0Z"/>
  <path id="path1107" class="cls-21" d="M111.97,73.59c.62.62,1.63.62,2.25,0,.62-.62.62-1.63,0-2.25s-1.63-.62-2.25,0-.62,1.63,0,2.25h0Z"/>
  <path id="path1109" class="cls-18" d="M125.12,102.49c-2.13,1.24-2.87,3.99-1.63,6.13s3.99,2.87,6.13,1.63,2.87-3.99,1.63-6.13-3.99-2.87-6.13-1.63Z"/>
  <path id="path1111" class="cls-18" d="M122.56,91.78c-.89-1.51-2.79-2.06-4.34-1.16-1.51.89-2.06,2.79-1.16,4.34.89,1.51,2.79,2.06,4.34,1.16,1.51-.89,2.06-2.83,1.16-4.34Z"/>
  <path id="path1113" class="cls-18" d="M115,85c1.01-.58,1.36-1.86.78-2.87s-1.86-1.36-2.87-.78-1.36,1.86-.78,2.87,1.86,1.36,2.87.78Z"/>
  <path id="path1115" class="cls-18" d="M108.68,74.02c-.7.39-.93,1.28-.54,1.98s1.28.93,1.98.54.93-1.28.54-1.98-1.28-.93-1.98-.54Z"/>
  <path id="path1117" class="cls-5" d="M113.33,107.65c-2.25.62-3.61,2.91-2.99,5.16s2.91,3.61,5.16,2.99c2.25-.62,3.61-2.91,2.99-5.16-.58-2.25-2.91-3.61-5.16-2.99h0Z"/>
  <path id="path1119" class="cls-5" d="M111.28,99.97c1.55-.43,2.48-2.02,2.06-3.57s-2.02-2.48-3.57-2.06-2.44,2.02-2.06,3.57c.43,1.59,2.02,2.48,3.57,2.06h0Z"/>
  <path id="path1121" class="cls-5" d="M109.38,85.31c-.27-1.05-1.36-1.67-2.4-1.4s-1.67,1.36-1.4,2.4,1.36,1.67,2.4,1.4c1.09-.23,1.71-1.32,1.4-2.4h0Z"/>
  <path id="path1123" class="cls-5" d="M106.39,76.7c-.19-.7-.93-1.12-1.63-.93s-1.12.93-.93,1.63.89,1.12,1.63.93c.7-.19,1.12-.93.93-1.63Z"/>
  <path id="path1125" class="cls-12" d="M100.53,109.59c-2.17,0-3.96,1.78-3.96,3.96s1.78,3.96,3.96,3.96,3.96-1.75,3.96-3.96-1.75-3.96-3.96-3.96Z"/>
  <path id="path1127" class="cls-12" d="M97.89,98.49c0,1.47,1.16,2.64,2.64,2.64s2.64-1.16,2.64-2.64-1.16-2.64-2.64-2.64-2.64,1.16-2.64,2.64Z"/>
  <path id="path1129" class="cls-12" d="M100.53,88.57c1.01,0,1.86-.81,1.86-1.86s-.81-1.86-1.86-1.86-1.86.81-1.86,1.86c.04,1.05.85,1.86,1.86,1.86h0Z"/>
  <path id="path1131" class="cls-12" d="M100.53,76.43c-.66,0-1.2.54-1.2,1.2s.54,1.2,1.2,1.2,1.2-.54,1.2-1.2-.54-1.2-1.2-1.2Z"/>
  <path id="path1133" class="cls-23" d="M87.62,108.11c-1.98-.54-3.99.66-4.54,2.6-.54,1.98.66,3.99,2.6,4.54,1.98.54,3.99-.66,4.54-2.6.54-1.98-.62-3.99-2.6-4.54Z"/>
  <path id="path1135" class="cls-23" d="M91.18,94.85c-1.28-.35-2.56.43-2.91,1.67-.35,1.28.43,2.56,1.67,2.91,1.28.35,2.56-.43,2.91-1.67s-.39-2.56-1.67-2.91Z"/>
  <path id="path1137" class="cls-23" d="M94.05,84.14c-.93-.23-1.86.31-2.09,1.2-.23.93.31,1.86,1.2,2.09.93.23,1.86-.31,2.09-1.2.27-.89-.27-1.82-1.2-2.09Z"/>
  <path id="path1139" class="cls-23" d="M97,77.28c.16-.58-.19-1.16-.74-1.28s-1.16.19-1.28.74.19,1.16.74,1.28c.54.16,1.12-.16,1.28-.74Z"/>
  <path id="path1141" class="cls-22" d="M75.48,103.34c-1.63-.93-3.72-.39-4.69,1.24-.93,1.63-.39,3.72,1.24,4.69,1.63.93,3.72.39,4.69-1.24s.39-3.72-1.24-4.69Z"/>
  <path id="path1143" class="cls-22" d="M82.34,91.47c-1.01-.58-2.29-.23-2.87.78s-.23,2.29.78,2.87,2.29.23,2.87-.78.23-2.29-.78-2.87Z"/>
  <path id="path1145" class="cls-22" d="M86.38,84.49c.78.43,1.75.19,2.17-.58s.19-1.75-.58-2.17-1.75-.19-2.17.58-.19,1.75.58,2.17Z"/>
  <path id="path1147" class="cls-22" d="M92.19,74.41c-.43-.27-1.01-.12-1.24.35-.27.43-.12,1.01.35,1.24.43.27,1.01.12,1.24-.35.23-.39.08-.97-.35-1.24h0Z"/>
  <path id="path1149" class="cls-14" d="M60.43,95.55c-1.24,1.24-1.24,3.26,0,4.5s3.26,1.24,4.5,0,1.24-3.26,0-4.5-3.26-1.24-4.5,0Z"/>
  <path id="path1151" class="cls-14" d="M72.02,85.85c-.74.74-.74,1.9,0,2.6.74.74,1.9.74,2.6,0s.74-1.9,0-2.6c-.7-.74-1.9-.74-2.6,0Z"/>
  <path id="path1153" class="cls-14" d="M80.6,77.82c-.58.58-.58,1.47,0,2.06s1.47.58,2.06,0,.58-1.47,0-2.06-1.51-.58-2.06,0Z"/>
  <path id="path1155" class="cls-14" d="M88.62,71.85c-.31-.31-.81-.27-1.09.04-.31.31-.27.81.04,1.09s.78.27,1.09,0c.27-.31.27-.81-.04-1.12h0Z"/>
  <path id="path1157" class="cls-24" d="M52.71,84.18c-1.4.81-1.86,2.56-1.05,3.96s2.56,1.86,3.96,1.05,1.86-2.56,1.05-3.96c-.78-1.4-2.56-1.86-3.96-1.05Z"/>
  <path id="path1159" class="cls-24" d="M66.4,77.78c-.74.43-1.01,1.4-.58,2.17.43.74,1.4,1.01,2.17.58.74-.43,1.01-1.4.58-2.17-.43-.74-1.4-1.01-2.17-.58Z"/>
  <path id="path1161" class="cls-24" d="M76.72,72.16c-.62.35-.85,1.16-.47,1.78.35.62,1.16.85,1.78.47.62-.35.85-1.16.47-1.78-.35-.62-1.16-.85-1.78-.47Z"/>
  <path id="path1163" class="cls-8" d="M46.81,50.79h4.65v17.92h-4.65v-17.92ZM49.65,42.8c-1.44-.39-2.91.47-3.3,1.9s.47,2.91,1.9,3.3,2.91-.47,3.3-1.9-.47-2.95-1.9-3.3ZM65.86,69.1c-1.12,0-2.25-.19-3.3-.66-.93-.43-1.75-1.09-2.37-1.9v11.13h-4.54v-26.88h4.5v2.48c.58-.89,1.4-1.59,2.37-2.09,1.01-.5,2.13-.78,3.3-.78s2.21.23,3.26.66,1.98,1.09,2.75,1.86c.81.85,1.47,1.86,1.9,2.95.5,1.24.74,2.52.7,3.84.04,1.32-.23,2.64-.74,3.88-.47,1.09-1.12,2.09-1.94,2.95-1.51,1.63-3.68,2.56-5.9,2.56ZM64.93,64.75c.66,0,1.32-.12,1.94-.39.58-.27,1.12-.62,1.59-1.09s.81-1.01,1.05-1.59c.5-1.28.5-2.68,0-3.96-.23-.58-.62-1.12-1.05-1.59-.47-.47-1.01-.81-1.59-1.09-.62-.27-1.28-.39-1.94-.39-1.32,0-2.6.54-3.57,1.47-.47.47-.81,1.01-1.05,1.59-.5,1.28-.5,2.68,0,3.92.23.58.58,1.12,1.05,1.59.97,1.01,2.25,1.55,3.57,1.51ZM77.76,50.79h4.5v2.75c.39-.97,1.05-1.78,1.94-2.33.93-.5,1.94-.78,3.03-.74.58,0,1.12.08,1.67.19.47.12.93.27,1.36.5l-1.67,4.5c-.31-.19-.66-.35-1.01-.47-.47-.12-.93-.19-1.4-.19-1.05-.04-2.06.31-2.83.97-.7.66-1.05,1.75-1.05,3.22v9.46h-4.54v-17.88ZM100.38,69.1c-1.28,0-2.56-.23-3.76-.74-1.12-.47-2.13-1.16-3.03-2.02-1.75-1.75-2.72-4.11-2.72-6.59,0-1.24.23-2.48.7-3.65.47-1.12,1.12-2.13,1.98-2.99,3.76-3.65,9.74-3.65,13.5,0,1.75,1.75,2.75,4.11,2.75,6.59,0,1.24-.23,2.48-.74,3.61-.47,1.12-1.16,2.13-1.98,2.99-.85.85-1.86,1.55-3.03,2.02-1.12.5-2.4.78-3.68.78h0ZM100.42,64.75c.66,0,1.32-.12,1.94-.39.58-.27,1.09-.62,1.55-1.05.47-.47.81-1.01,1.05-1.59.5-1.28.5-2.68,0-3.92-.23-.58-.58-1.12-1.05-1.59s-.97-.81-1.55-1.05c-1.24-.54-2.64-.54-3.84,0-.58.27-1.09.62-1.55,1.05-.47.47-.81,1.01-1.05,1.59-.5,1.28-.5,2.68,0,3.92.23.58.58,1.12,1.05,1.59s.97.81,1.55,1.05,1.24.39,1.9.39ZM14.43,50.79h4.65l3.61,11.44,4.27-11.44h4.03l4.19,11.44,3.76-11.44h4.65l-6.09,17.92h-4.31l-4.27-11.67-4.31,11.67h-4.38l-5.82-17.92Z"/>
</svg>