<?xml version="1.0" encoding="UTF-8"?>
<svg id="Layer_1" data-name="Layer 1" xmlns="http://www.w3.org/2000/svg" viewBox="0 0 175 120">
  <defs>
    <style>
      .cls-1 {
        fill: #0082c9;
        fill-rule: evenodd;
        stroke-width: 0px;
      }
    </style>
  </defs>
  <path class="cls-1" d="M7.5,37.7h19.46l2.13.09,2.04.18,1.95.44,1.87.44,1.69.71,1.6.71,1.51.89,1.42.98,1.24,1.07,1.24,1.15,1.07,1.24.98,1.33.8,1.42.8,1.42.62,1.51.53,1.51,27.63-17.77,10.04,6.75-21.5,13.86,3.46,2.31,21.68-13.77,9.33,6.22-21.41,14.13,3.64,2.22,21.77-13.86v-15.19h15.99v30.29h14.21v14.21h-30.21v-14.57l-26.92,17.32-27.45-18.57-.53,1.6-.53,1.51-.8,1.51-.8,1.51-.98,1.33-1.07,1.33-1.15,1.24-1.33,1.07-1.33,1.07-1.6.89-1.6.8-1.78.71-1.87.53-1.95.36-2.04.27-2.22.09H7.5v-44.51h0ZM22.78,51.65h4.18l1.87.18,1.51.53,1.33.8,1.15,1.07.8,1.24.62,1.33.36,1.51.09,1.51-.09,1.51-.36,1.51-.62,1.33-.89,1.24-1.07,1.07-1.33.8-1.6.53-1.78.18h-4.18v-16.35h0ZM137.29,37.7h16.08v30.29h14.13v14.21h-30.21v-44.51h0Z"/>
</svg>