<?xml version="1.0" encoding="UTF-8"?>
<svg id="Layer_1" data-name="Layer 1" xmlns="http://www.w3.org/2000/svg" xmlns:xlink="http://www.w3.org/1999/xlink" viewBox="0 0 175 120">
  <defs>
    <style>
      .cls-1 {
        fill: url(#linear-gradient);
      }

      .cls-1, .cls-2, .cls-3, .cls-4, .cls-5, .cls-6, .cls-7, .cls-8, .cls-9, .cls-10, .cls-11, .cls-12 {
        stroke-width: 0px;
      }

      .cls-2 {
        fill: url(#linear-gradient-11);
      }

      .cls-3 {
        fill: url(#linear-gradient-10);
      }

      .cls-4 {
        fill: url(#linear-gradient-4);
      }

      .cls-5 {
        fill: url(#linear-gradient-2);
      }

      .cls-6 {
        fill: url(#linear-gradient-3);
      }

      .cls-7 {
        fill: url(#linear-gradient-8);
      }

      .cls-8 {
        fill: url(#linear-gradient-9);
      }

      .cls-9 {
        fill: url(#linear-gradient-7);
      }

      .cls-10 {
        fill: url(#linear-gradient-5);
      }

      .cls-11 {
        fill: url(#linear-gradient-6);
      }

      .cls-12 {
        fill: #3c2f2c;
      }
    </style>
    <linearGradient id="linear-gradient" x1="62.52" y1="109.56" x2="64.77" y2="45.06" gradientUnits="userSpaceOnUse">
      <stop offset="0" stop-color="#735b25"/>
      <stop offset=".53" stop-color="#baac7b"/>
      <stop offset="1" stop-color="#67593d"/>
    </linearGradient>
    <linearGradient id="linear-gradient-2" x1="73.45" y1="109.94" x2="75.69" y2="45.44" xlink:href="#linear-gradient"/>
    <linearGradient id="linear-gradient-3" x1="80.58" y1="110.19" x2="82.82" y2="45.69" xlink:href="#linear-gradient"/>
    <linearGradient id="linear-gradient-4" x1="89.21" y1="110.49" x2="91.45" y2="45.99" xlink:href="#linear-gradient"/>
    <linearGradient id="linear-gradient-5" x1="102.17" y1="110.94" x2="104.42" y2="46.44" xlink:href="#linear-gradient"/>
    <linearGradient id="linear-gradient-6" x1="113.32" y1="111.33" x2="115.56" y2="46.83" xlink:href="#linear-gradient"/>
    <linearGradient id="linear-gradient-7" x1="134.23" y1="112.06" x2="136.47" y2="47.56" xlink:href="#linear-gradient"/>
    <linearGradient id="linear-gradient-8" x1="147.95" y1="112.54" x2="150.2" y2="48.04" xlink:href="#linear-gradient"/>
    <linearGradient id="linear-gradient-9" x1="157.42" y1="112.87" x2="159.66" y2="48.37" xlink:href="#linear-gradient"/>
    <linearGradient id="linear-gradient-10" x1="32.7" y1="32.8" x2="56.77" y2="62.96" xlink:href="#linear-gradient"/>
    <linearGradient id="linear-gradient-11" x1="14.04" y1="47.69" x2="38.1" y2="77.86" xlink:href="#linear-gradient"/>
  </defs>
  <g>
    <path class="cls-1" d="M65.68,62.36v-.04c1.42-.52,2.27-1.66,2.27-2.95,0-1.06-.42-1.85-1.12-2.37-.84-.68-1.95-.98-3.69-.98-1.22,0-2.41.12-3.17.28v13.22c.58.08,1.5.16,2.69.16,2.19,0,3.71-.4,4.65-1.26.68-.66,1.14-1.54,1.14-2.69,0-1.99-1.5-3.05-2.77-3.37ZM61.71,57.48c.28-.06.74-.12,1.54-.12,1.76,0,2.95.62,2.95,2.19,0,1.3-1.08,2.25-2.91,2.25h-1.58v-4.33ZM63.17,68.33c-.62,0-1.12-.02-1.46-.08v-5.13h1.44c1.89,0,3.47.76,3.47,2.59,0,1.95-1.66,2.61-3.45,2.61Z"/>
    <path class="cls-5" d="M76.45,63.16v-.06c1.42-.48,2.53-1.66,2.53-3.43,0-1.04-.38-1.95-1.06-2.55-.84-.76-2.03-1.1-3.89-1.1-1.2,0-2.45.1-3.33.28v13.26h1.74v-5.82h1.64c1.58.06,2.29.76,2.69,2.61.38,1.68.68,2.83.9,3.21h1.8c-.28-.52-.6-1.81-1.04-3.69-.32-1.4-.94-2.35-1.97-2.71ZM74.22,62.42h-1.78v-4.91c.28-.08.88-.16,1.72-.16,1.83.02,3.09.78,3.09,2.51,0,1.54-1.18,2.55-3.03,2.55Z"/>
    <rect class="cls-6" x="81.36" y="56.12" width="1.74" height="13.44"/>
    <path class="cls-4" d="M91.85,63.9h2.73v4.01c-.4.2-1.18.36-2.31.36-3.13,0-5.19-2.01-5.19-5.42s2.13-5.4,5.4-5.4c1.36,0,2.25.26,2.97.58l.42-1.42c-.58-.28-1.79-.62-3.35-.62-4.51,0-7.26,2.93-7.28,6.94,0,2.09.72,3.89,1.87,5.01,1.32,1.26,2.99,1.78,5.03,1.78,1.81,0,3.35-.46,4.13-.74v-6.46h-4.43v1.4Z"/>
    <polygon class="cls-10" points="107.09 61.75 100.58 61.75 100.58 56.12 98.85 56.12 98.85 69.56 100.58 69.56 100.58 63.26 107.09 63.26 107.09 69.56 108.84 69.56 108.84 56.12 107.09 56.12 107.09 61.75"/>
    <polygon class="cls-11" points="110.24 57.6 114.33 57.6 114.33 69.56 116.08 69.56 116.08 57.6 120.19 57.6 120.19 56.12 110.24 56.12 110.24 57.6"/>
    <path class="cls-9" d="M142.61,56.12l-1.77,6.78c-.42,1.68-.8,3.17-1.08,4.65h-.04c-.2-1.42-.56-3.01-.94-4.61l-1.64-6.82h-1.81l-1.79,6.78c-.46,1.74-.88,3.33-1.1,4.67h-.04c-.24-1.3-.6-2.97-1-4.65l-1.6-6.8h-1.83l3.41,13.44h1.82l1.91-7c.5-1.74.8-3.05,1.04-4.39h.04c.18,1.36.46,2.67.88,4.39l1.7,7h1.82l3.81-13.44h-1.78Z"/>
    <path class="cls-7" d="M148.39,56.12l-4.57,13.44h1.8l1.4-4.23h4.77l1.44,4.23h1.85l-4.59-13.44h-2.09ZM147.38,63.98l1.32-3.89c.26-.82.48-1.64.68-2.43h.04c.2.78.4,1.58.7,2.45l1.32,3.87h-4.05Z"/>
    <path class="cls-8" d="M162.67,56.12l-1.93,3.71c-.52,1.02-.98,1.89-1.36,2.77h-.04c-.42-.94-.82-1.76-1.34-2.77l-1.89-3.71h-1.97l4.25,7.74v5.7h1.75v-5.72l4.51-7.72h-1.97Z"/>
  </g>
  <g>
    <path class="cls-12" d="M87.83,72.54c.6-.09,1.31-.16,2.1-.16,1.41,0,2.42.33,3.09.95.68.62,1.08,1.5,1.08,2.74s-.39,2.26-1.1,2.97c-.71.71-1.89,1.1-3.37,1.1-.7,0-1.29-.04-1.79-.09v-7.51ZM88.82,79.28c.25.05.61.06,1,.06,2.11,0,3.25-1.18,3.25-3.24.01-1.8-1.01-2.94-3.09-2.94-.51,0-.9.05-1.16.1v6.02Z"/>
    <path class="cls-12" d="M96.42,77.51c.02,1.35.88,1.9,1.88,1.9.71,0,1.14-.13,1.52-.28l.17.71c-.35.16-.95.34-1.82.34-1.69,0-2.69-1.11-2.69-2.76s.97-2.95,2.57-2.95c1.79,0,2.26,1.57,2.26,2.58,0,.2-.03.36-.04.46h-3.85ZM99.34,76.79c.01-.63-.26-1.62-1.38-1.62-1.01,0-1.45.93-1.53,1.62h2.91Z"/>
    <path class="cls-12" d="M102.01,76.07c0-.56-.01-1.03-.05-1.48h.89l.06.91h.02c.27-.52.91-1.03,1.81-1.03.76,0,1.93.45,1.93,2.33v3.27h-1v-3.16c0-.89-.33-1.62-1.27-1.62-.65,0-1.16.46-1.33,1.02-.05.12-.07.29-.07.47v3.29h-1v-4Z"/>
    <path class="cls-12" d="M109.93,73.02v1.57h1.43v.76h-1.43v2.96c0,.68.19,1.06.75,1.06.26,0,.45-.04.58-.07l.05.75c-.19.08-.5.14-.88.14-.46,0-.84-.15-1.08-.42-.28-.3-.38-.78-.38-1.43v-2.99h-.85v-.76h.85v-1.31l.97-.26Z"/>
    <path class="cls-12" d="M115.99,80.07l-.08-.69h-.03c-.31.43-.9.81-1.68.81-1.11,0-1.68-.78-1.68-1.57,0-1.33,1.18-2.05,3.29-2.04v-.11c0-.45-.12-1.27-1.25-1.27-.51,0-1.04.16-1.43.41l-.23-.66c.45-.29,1.11-.49,1.8-.49,1.68,0,2.08,1.14,2.08,2.24v2.05c0,.48.03.94.09,1.31h-.91ZM115.84,77.27c-1.09-.03-2.32.17-2.32,1.23,0,.64.43.95.94.95.71,0,1.16-.45,1.33-.92.03-.1.06-.22.06-.32v-.95Z"/>
    <path class="cls-12" d="M118.89,72.03h1v8.04h-1v-8.04Z"/>
    <path class="cls-12" d="M130.29,79.82c-.36.18-1.09.36-2.02.36-2.15,0-3.77-1.36-3.77-3.86s1.62-4.01,3.98-4.01c.95,0,1.55.21,1.81.34l-.24.8c-.37-.18-.91-.32-1.54-.32-1.79,0-2.98,1.14-2.98,3.15,0,1.87,1.08,3.07,2.93,3.07.6,0,1.21-.13,1.6-.32l.21.78Z"/>
    <path class="cls-12" d="M131.97,72.03h1v8.04h-1v-8.04Z"/>
    <path class="cls-12" d="M136.22,73.05c.01.34-.24.61-.63.61-.35,0-.6-.27-.6-.61s.26-.62.62-.62.61.27.61.62ZM135.12,80.07v-5.48h1v5.48h-1Z"/>
    <path class="cls-12" d="M138.24,76.07c0-.56-.01-1.03-.05-1.48h.88l.06.91h.02c.27-.52.91-1.03,1.81-1.03.76,0,1.94.45,1.94,2.33v3.27h-1v-3.16c0-.89-.33-1.62-1.27-1.62-.66,0-1.17.46-1.34,1.02-.05.12-.07.29-.07.47v3.29h-1v-4Z"/>
    <path class="cls-12" d="M146.11,73.05c.01.34-.24.61-.63.61-.35,0-.6-.27-.6-.61s.26-.62.62-.62.61.27.61.62ZM145,80.07v-5.48h1v5.48h-1Z"/>
    <path class="cls-12" d="M152.03,79.86c-.26.14-.84.32-1.57.32-1.65,0-2.73-1.12-2.73-2.8s1.15-2.91,2.94-2.91c.59,0,1.11.15,1.38.28l-.23.77c-.24-.14-.61-.26-1.15-.26-1.26,0-1.94.93-1.94,2.07,0,1.27.81,2.05,1.9,2.05.57,0,.94-.15,1.22-.27l.17.75Z"/>
  </g>
  <path class="cls-12" d="M46.22,79.31s6.03-8.1,5.14-22.52c0,0,2.01-.89,5.14-3.61,0,0-3.28,18.38-10.28,26.12Z"/>
  <path class="cls-3" d="M44.13,61.16s7.85-3.99,13.83-9.09c5.98-5.1,4.21-8.91,4.21-8.91,0,0-.62-3.94-5.67-5.14-5.05-1.2-17.55,3.41-17.55,3.41l-15.73,7s27.1-13.7,35.25-4.79c0,0,2.74,3.72-2.76,8.86-5.49,5.15-11.57,8.64-11.57,8.64Z"/>
  <path class="cls-12" d="M51.21,55.84s4.61-3.69,5.29-4.73c0,0-1.03-5.35-6.29-5.23,0,0-1.68.15-3.69.98-2.01.83-4.31,2.25-4.31,2.25,0,0-3.99,1.12-6.18-.44,0,0,.47,2.39,3.16,2.98,2.69.59,5.26-.41,5.26-.41,0,0,3.87-.86,5.32,1.06,1.45,1.92,1.45,3.55,1.45,3.55Z"/>
  <path class="cls-12" d="M34.2,82.17s.98-5.19-1.77-9.18l3.1-1.24s1.06,5.98-1.33,10.42Z"/>
  <path class="cls-12" d="M37.35,79.62s-.49-9.09,5.83-8.89c6.32.2,2.06,7.93,2.06,7.93,0,0,2.3-5.76-2.55-5.74s-5.34,6.69-5.34,6.69Z"/>
  <path class="cls-12" d="M31.99,72.16l3.24-1.42s-1.55-4.07-3.59-5.71c-2.04-1.64-5.01-5.54-5.1-6.69-.09-1.15-.35-9.35,11.88-5.14,0,0-11.92-9.31-15.96.22,0,0-1.73,5.41,2.39,10.46,0,0,7.27,7.49,7.14,8.29Z"/>
  <path class="cls-2" d="M20.92,55.84l-.24,1s-10.82,8.29-5.67,12.72c5.14,4.42,11.47,6.49,34.22-5.33,0,0-27.15,17.48-37.14,8.45-5.5-4.96,3.81-13.12,3.81-13.12l5.02-3.72Z"/>
</svg>