<?xml version="1.0" encoding="UTF-8"?>
<svg id="Layer_1" data-name="Layer 1" xmlns="http://www.w3.org/2000/svg" viewBox="0 0 175 120">
  <defs>
    <style>
      .cls-1 {
        fill: #bf9972;
      }

      .cls-1, .cls-2 {
        stroke-width: 0px;
      }

      .cls-2 {
        fill: #8c9091;
      }
    </style>
  </defs>
  <g>
    <g>
      <path class="cls-1" d="M75.34,45.25h-5.72c-.4,0-.75.33-.75.72v16.28c0,.39.34.72.75.72h.48c.47,0,.83-.31.83-.72v-5.3h4.44c3.52,0,6.39-2.64,6.39-5.89s-2.88-5.81-6.41-5.81ZM70.93,47.19h4.33c2.45,0,4.44,1.73,4.44,3.85s-1.98,4-4.41,4h-4.36v-7.85Z"/>
      <path class="cls-1" d="M101.43,45.25h-10.67c-.4,0-.75.33-.75.72v16.28c0,.39.34.72.75.72h10.67c.4,0,.75-.33.75-.72v-.39c0-.39-.34-.72-.75-.72h-9.33v-6.35h8.03c.4,0,.75-.33.75-.72v-.41c0-.39-.34-.72-.75-.72h-8.03v-5.87h9.33c.4,0,.75-.33.75-.72v-.41c0-.39-.34-.72-.75-.72Z"/>
      <path class="cls-1" d="M118.3,45.27c-.14-.25-.37-.38-.7-.38h-.08c-.28,0-.55.15-.68.39l-8.19,16.82v.02c-.13.29-.04.5.02.59.06.09.22.25.53.25h.74c.36,0,.62-.23.73-.45l2.02-4.22h9.66l2.05,4.24c.11.2.36.42.72.42h.69c.26,0,.45-.08.57-.25.08-.11.15-.3.05-.58l-8.14-16.87ZM121.52,56.56h-7.96l4.02-8.45,3.95,8.45Z"/>
      <path class="cls-1" d="M147.66,50.82c0-3.12-2.78-5.57-6.33-5.57h-6.6c-.42,0-.75.31-.75.72v16.28c0,.39.34.72.75.72h.48c.47,0,.83-.31.83-.72v-5.81h4.49c.27,0,.51,0,.77-.01l3.72,6.11c.16.28.4.43.72.43h.82c.26,0,.48-.12.59-.33.12-.22.09-.5-.06-.72l-3.61-5.81c2.52-.85,4.17-2.91,4.17-5.28ZM145.58,50.82c0,2.1-1.93,3.8-4.31,3.8h-5.21v-7.46h5.18c2.39,0,4.33,1.64,4.33,3.66Z"/>
      <path class="cls-1" d="M166.75,61.15h-8.08v-15.18c0-.39-.33-.72-.72-.72h-.59c-.4,0-.75.33-.75.72v16.28c0,.39.34.72.75.72h9.39c.43,0,.75-.29.75-.67v-.43c0-.65-.52-.72-.75-.72Z"/>
    </g>
    <g>
      <path class="cls-2" d="M79.14,69.35h-1.76c-.16,0-.29.14-.29.3v5.07c0,.17.13.3.29.3h1.76c1.57,0,2.85-1.28,2.85-2.85s-1.28-2.83-2.85-2.83ZM79.04,73.99h-.86v-3.6h.86c1.04,0,1.79.75,1.79,1.79s-.75,1.81-1.79,1.81Z"/>
      <path class="cls-2" d="M88.47,69.35h-3.07c-.17,0-.3.14-.3.3v5.07c0,.17.14.3.3.3h3.07c.17,0,.3-.14.3-.3v-.42c0-.17-.14-.3-.3-.3h-2.27v-1.34h1.89c.17,0,.3-.14.3-.3v-.43c0-.16-.14-.3-.3-.3h-1.89v-1.25h2.27c.17,0,.3-.14.3-.3v-.43c0-.17-.14-.3-.3-.3Z"/>
      <path class="cls-2" d="M96.41,69.35h-.49c-.17,0-.3.14-.3.3v3.22l-3.11-3.59h-.26c-.17,0-.3.13-.3.29v5.16c0,.16.14.3.3.3h.48c.17,0,.3-.14.3-.3v-3.31l3.11,3.69h.27c.17,0,.3-.13.3-.29v-5.16c0-.16-.14-.3-.3-.3Z"/>
      <path class="cls-2" d="M103.15,69.35h-3.3c-.17,0-.3.14-.3.3v.43c0,.17.14.3.3.3h1.09v4.34c0,.16.14.3.3.3h.51c.16,0,.3-.14.3-.3v-4.34h1.09c.17,0,.3-.14.3-.3v-.43c0-.17-.14-.3-.3-.3Z"/>
      <path class="cls-2" d="M108.26,69.45c-.05-.09-.17-.17-.27-.17h-.08c-.1,0-.22.08-.27.18l-2.35,5.16c-.04.1-.04.2.02.29.05.08.15.13.26.13h.48c.17,0,.28-.11.32-.21.08-.17.15-.34.23-.52.07-.15.13-.29.2-.44h2.3l.43.96c.06.13.17.21.32.21h.48c.11,0,.2-.05.26-.13.05-.08.06-.19.02-.29l-2.34-5.16ZM107.23,72.9l.71-1.6.72,1.6h-1.43Z"/>
      <path class="cls-2" d="M116.43,74.01h-1.92v-4.35c0-.16-.14-.3-.3-.3h-.51c-.17,0-.3.14-.3.3v5.07c0,.17.14.3.3.3h2.73c.17,0,.3-.14.3-.3v-.42c0-.17-.14-.3-.3-.3Z"/>
      <path class="cls-2" d="M127.55,73.54c-.11-.09-.26-.09-.38,0-.32.25-.69.47-1.22.47-.98,0-1.78-.82-1.78-1.83s.79-1.84,1.77-1.84c.43,0,.88.18,1.22.47.09.09.17.1.23.1.05,0,.13-.03.19-.1l.34-.34c.06-.06.09-.14.09-.22,0-.08-.04-.16-.11-.22-.6-.52-1.2-.75-1.96-.75-1.61,0-2.92,1.31-2.92,2.92s1.31,2.91,2.92,2.91c.76,0,1.44-.27,1.97-.79.06-.06.1-.15.09-.24,0-.08-.04-.15-.09-.19l-.36-.35Z"/>
      <path class="cls-2" d="M134.09,74.01h-1.92v-4.35c0-.16-.14-.3-.3-.3h-.51c-.17,0-.3.14-.3.3v5.07c0,.17.14.3.3.3h2.73c.17,0,.3-.14.3-.3v-.42c0-.17-.14-.3-.3-.3Z"/>
      <rect class="cls-2" x="137.21" y="69.35" width="1.11" height="5.68" rx=".3" ry=".3"/>
      <path class="cls-2" d="M146.28,69.35h-.49c-.17,0-.3.14-.3.3v3.22l-3.11-3.59h-.26c-.17,0-.3.13-.3.29v5.16c0,.16.14.3.3.3h.48c.17,0,.3-.14.3-.3v-3.31l3.11,3.69h.27c.17,0,.3-.13.3-.29v-5.16c0-.16-.14-.3-.3-.3Z"/>
      <rect class="cls-2" x="150.09" y="69.35" width="1.11" height="5.68" rx=".3" ry=".3"/>
      <path class="cls-2" d="M159.21,73.89l-.36-.35c-.11-.09-.26-.09-.38,0-.32.25-.69.47-1.22.47-.98,0-1.78-.82-1.78-1.83s.79-1.84,1.77-1.84c.43,0,.88.18,1.22.47.09.09.17.1.23.1.05,0,.13-.03.19-.1l.34-.34c.06-.06.09-.14.09-.22,0-.08-.04-.16-.11-.22-.6-.52-1.2-.75-1.96-.75-1.61,0-2.92,1.31-2.92,2.92s1.31,2.91,2.92,2.91c.76,0,1.44-.27,1.97-.79.06-.06.1-.15.09-.24,0-.08-.04-.15-.09-.19Z"/>
    </g>
  </g>
  <g>
    <path class="cls-1" d="M32.45,45.19c-2.12,0-3.84,1.72-3.84,3.84s1.72,3.84,3.84,3.84,3.84-1.72,3.84-3.84-1.72-3.84-3.84-3.84ZM32.45,46.71c1.28,0,2.32,1.04,2.32,2.32s-1.04,2.32-2.32,2.32-2.32-1.04-2.32-2.32,1.04-2.32,2.32-2.32Z"/>
    <path class="cls-2" d="M33.97,64.65l-.34-.24.34.24c3.71-5.33,7.55-10.84,12.02-10.84.23,0,.42-.19.42-.42,0-.34-.15-.67-.41-.9-.26-.23-.6-.33-.95-.29-4.89.64-8.73,6.16-12.45,11.5l-.16.23-.16-.23c-3.72-5.34-7.56-10.86-12.45-11.5-.34-.05-.69.06-.95.29-.26.23-.41.56-.41.9,0,.11.04.22.12.29.08.08.18.12.29.12,4.47,0,8.31,5.51,12.02,10.85l.5.72c-1.37,1.94-2.56,3.53-3.77,4.85-.99-1.26-1.95-2.76-2.95-4.34-1.49-2.34-3.03-4.76-4.86-6.63-1.88-1.93-3.81-2.99-5.88-3.23-.34-.04-.69.07-.95.3-.26.23-.4.56-.4.9,0,.23.19.42.42.42,4.44,0,7.4,4.65,10.27,9.15,1.07,1.68,2.08,3.27,3.17,4.63-1.51,1.36-2.88,2.02-4.19,2.02-2.45,0-4.03-2.75-5.7-5.66-1-1.74-2.04-3.54-3.35-4.94-1.32-1.4-2.75-2.19-4.36-2.42-.34-.04-.68.07-.93.29-.24.21-.38.5-.4.81,0,.02,0,.04,0,.07,0,0,0,.01,0,.02,0,0,0,0,0,0,0,0,0,0,0,0,0,.02,0,.03,0,.05,0,0,0,.02,0,.03,0,.02.01.04.02.06,0,0,0,.01,0,.02,0,.02.02.04.03.06,0,0,0,0,0,.01.01.02.03.04.05.06,0,0,0,0,0,0h0c.06.06.13.1.21.12,0,0,0,0,.01,0,.02,0,.04,0,.07,0,0,0,0,0,0,0h0c3.41,0,5.33,3.34,7.2,6.58.93,1.62,1.81,3.15,2.89,4.34,1.3,1.45,2.7,2.15,4.26,2.15,1.1,0,2.21-.33,3.32-.97.96-.55,1.92-1.34,2.95-2.41,1.86-1.93,3.6-4.43,5.44-7.08Z"/>
    <path class="cls-2" d="M41.59,66.79c2.86-4.5,5.83-9.15,10.27-9.15.11,0,.22-.05.29-.13.08-.08.12-.19.12-.3,0-.34-.15-.67-.4-.89-.26-.23-.6-.34-.94-.3-2.08.24-4.01,1.3-5.89,3.23-1.82,1.87-3.36,4.29-4.86,6.63-1,1.58-1.96,3.07-2.95,4.33-.85-.96-2.24-2.76-2.83-3.52-.14-.18-.41-.17-.54.01-.16.22-.31.44-.47.66-.17.23-.16.55.01.77.67.87,1.92,2.47,2.71,3.35-1.28,1.32-2.47,1.94-3.7,1.94-.87,0-1.72-.32-2.6-.97-.17-.12-.4-.1-.54.04-.17.17-.39.4-.59.59-.18.18-.16.48.04.63,1.2.92,2.41,1.37,3.69,1.37h0c3.85,0,6.42-4.04,9.15-8.32Z"/>
    <path class="cls-2" d="M57.37,61.63c0-.49-.3-.95-.8-1.13-.19-.07-.39-.08-.58-.05-1.59.23-3.01,1.02-4.32,2.41-1.31,1.39-2.35,3.19-3.35,4.94-1.67,2.91-3.25,5.66-5.7,5.66-.94,0-1.92-.35-2.96-1.05-.22-.15-.51-.1-.68.1-.14.16-.28.33-.42.48-.2.23-.16.59.09.76.22.15.43.29.64.41,1.11.64,2.22.97,3.32.97,1.57,0,2.96-.7,4.26-2.15,1.07-1.19,1.95-2.72,2.89-4.34,1.86-3.23,3.78-6.57,7.18-6.58.23,0,.43-.18.43-.41Z"/>
  </g>
</svg>