<?xml version="1.0" encoding="UTF-8"?>
<svg id="Layer_1" data-name="Layer 1" xmlns="http://www.w3.org/2000/svg" viewBox="0 0 175 120">
  <defs>
    <style>
      .cls-1 {
        fill: #ed3043;
      }

      .cls-1, .cls-2, .cls-3, .cls-4 {
        stroke-width: 0px;
      }

      .cls-2 {
        fill: #0e2d4e;
      }

      .cls-3 {
        fill: #999c9e;
      }

      .cls-4 {
        fill: #fff;
      }
    </style>
  </defs>
  <rect class="cls-1" x="7.5" y="42.14" width="35.72" height="35.72"/>
  <path class="cls-4" d="M26.63,73.3c-6.93,0-12.63-5.29-13.23-12.07h2.67v-1.99h-2.72c.4-6.98,6.2-12.53,13.28-12.53,4.34,0,8.22,2.09,10.64,5.32l2.77-.66c-2.85-4.41-7.79-7.31-13.41-7.31-8.82,0-15.96,7.13-15.96,15.96s7.13,15.96,15.96,15.96c5.62,0,10.56-2.92,13.41-7.31l-2.77-.66c-2.42,3.2-6.3,5.29-10.64,5.29"/>
  <path class="cls-4" d="M37.27,59.99c0-5.87-4.76-10.64-10.64-10.64s-10.64,4.76-10.64,10.64,4.76,10.64,10.64,10.64c1.39,0,2.72-.28,3.93-.76l-1.36-2.32v-.03c-.81.28-1.66.43-2.57.43-3.98,0-7.29-2.92-7.89-6.76h18.53v-1.21ZM26.63,52.02c4.13,0,7.54,3.15,7.94,7.21h-15.88c.4-4.06,3.81-7.21,7.94-7.21"/>
  <g>
    <g>
      <polygon class="cls-3" points="54.37 65.77 47.87 65.77 47.87 70.29 54.19 70.29 54.19 71.55 47.87 71.55 47.87 76.25 54.55 76.25 54.55 77.52 46.42 77.52 46.42 64.51 54.37 64.51 54.37 65.77"/>
      <path class="cls-3" d="M61.78,64.51c4.52,0,8.49,1.81,8.49,6.51s-3.98,6.51-8.49,6.51h-4.52v-13.01h4.52ZM58.89,76.25h2.89c2.89,0,6.87-.9,6.87-5.24s-3.79-5.24-6.87-5.24h-2.89v10.48Z"/>
      <path class="cls-3" d="M85.46,71.37c0,1.81-.54,2.71-1.08,3.61-.54.9-2.17,2.53-5.24,2.53-.9,0-3.61-.18-5.06-2.35-.72-1.08-.9-1.99-.9-3.98v-7.05h1.63v7.05c0,1.99.36,2.89,1.08,3.61.9.9,2.17,1.26,3.43,1.26,2.17,0,3.43-1.08,3.98-2.17.54-.9.54-2.35.54-2.71v-7.05h1.63v7.23h0Z"/>
      <path class="cls-3" d="M100.46,66.86c-1.63-.72-3.25-1.26-5.06-1.26-3.43,0-5.96,2.35-5.96,5.42s2.53,5.24,5.96,5.24c1.81,0,3.61-.54,5.24-1.45v1.63c-1.63.72-3.25,1.26-5.06,1.26-4.52,0-7.59-3.07-7.59-6.69,0-4.16,3.79-6.69,7.59-6.69,1.81,0,3.43.36,5.06,1.08l-.18,1.45h0Z"/>
      <path class="cls-3" d="M116,77.52h-1.81l-1.99-4.16h-6.51l-1.99,4.16h-1.63l6.32-13.01h1.08l6.51,13.01ZM108.95,66.68l-2.53,5.42h5.24l-2.71-5.42Z"/>
      <polygon class="cls-3" points="128.65 65.77 123.41 65.77 123.41 77.52 121.96 77.52 121.96 65.77 116.72 65.77 116.72 64.51 128.65 64.51 128.65 65.77"/>
      <rect class="cls-3" x="131.18" y="64.51" width="1.63" height="13.01"/>
      <path class="cls-3" d="M135.88,71.01c0-3.43,2.89-6.69,7.59-6.69s7.59,3.07,7.59,6.69c0,3.98-3.43,6.69-7.77,6.69-3.98,0-7.41-2.89-7.41-6.69M149.43,70.83c0-2.53-2.17-5.24-5.96-5.24s-5.96,2.53-5.96,5.42c0,3.25,2.71,5.24,5.78,5.24,3.61,0,6.14-2.17,6.14-5.42"/>
      <polygon class="cls-3" points="167.5 77.52 166.05 77.52 155.93 66.68 155.93 77.52 154.31 77.52 154.31 64.51 155.75 64.51 165.87 75.17 165.87 64.51 167.5 64.51 167.5 77.52"/>
    </g>
    <path class="cls-2" d="M92.3,45.69h-10.41v-3.16h11.78c2.65,0,3.93,1.62,3.93,4.87v1.62c0,3.16-1.28,4.78-3.93,4.78h-9.56v8.02h-2.22v-11.27h11.95c1.02,0,1.45-.77,1.54-2.39,0-1.62-.51-2.48-1.54-2.48h-1.54Z"/>
    <path class="cls-2" d="M115.01,58.66v3.24h-11.78c-2.65,0-3.93-1.62-3.93-4.78v-14.6h2.22v12.89c0,2.13.94,3.24,2.82,3.24h10.67Z"/>
    <path class="cls-2" d="M124.65,42.53c5.29,0,7.94,3.24,7.94,9.65s-2.65,9.65-7.85,9.73c-5.21,0-7.85-3.24-7.85-9.65s2.56-9.73,7.77-9.73M130.28,52.17c0-4.27-1.88-6.4-5.63-6.4s-5.63,2.13-5.63,6.4,1.88,6.49,5.63,6.49c3.76,0,5.63-2.22,5.63-6.49"/>
    <path class="cls-2" d="M144.71,45.69h-10.5v-3.16h11.78c2.65,0,3.93,1.62,3.93,4.87v1.62c0,3.16-1.28,4.78-3.93,4.78h-7.08l10.93,8.02h-4.69l-10.84-8.02v-3.24h11.95c1.02,0,1.45-.77,1.54-2.39,0-1.62-.51-2.48-1.54-2.48h-1.54Z"/>
    <path class="cls-2" d="M167.5,45.77h-15.71v-3.24h15.71v3.24ZM167.5,53.8h-15.71v-3.24h15.71v3.24ZM167.5,61.82h-15.71v-3.24h15.71v3.24Z"/>
    <polygon class="cls-2" points="128.58 53.8 128.58 50.55 120.98 50.55 120.89 53.8 128.58 53.8"/>
    <path class="cls-2" d="M92.3,45.69h-10.41v-3.16h11.78c2.65,0,3.93,1.62,3.93,4.87v1.62c0,3.16-1.28,4.78-3.93,4.78h-9.56v8.02h-2.22v-11.27h11.95c1.02,0,1.45-.77,1.54-2.39,0-1.62-.51-2.48-1.54-2.48h-1.54Z"/>
    <path class="cls-2" d="M115.01,58.66v3.24h-11.78c-2.65,0-3.93-1.62-3.93-4.78v-14.6h2.22v12.89c0,2.13.94,3.24,2.82,3.24h10.67Z"/>
    <path class="cls-2" d="M124.65,42.53c5.29,0,7.94,3.24,7.94,9.65s-2.65,9.65-7.85,9.73c-5.21,0-7.85-3.24-7.85-9.65s2.56-9.73,7.77-9.73M130.28,52.17c0-4.27-1.88-6.4-5.63-6.4s-5.63,2.13-5.63,6.4,1.88,6.49,5.63,6.49c3.76,0,5.63-2.22,5.63-6.49"/>
    <path class="cls-2" d="M144.71,45.69h-10.5v-3.16h11.78c2.65,0,3.93,1.62,3.93,4.87v1.62c0,3.16-1.28,4.78-3.93,4.78h-7.08l10.93,8.02h-4.69l-10.84-8.02v-3.24h11.95c1.02,0,1.45-.77,1.54-2.39,0-1.62-.51-2.48-1.54-2.48h-1.54Z"/>
    <path class="cls-2" d="M167.5,45.77h-15.71v-3.24h15.71v3.24ZM167.5,53.8h-15.71v-3.24h15.71v3.24ZM167.5,61.82h-15.71v-3.24h15.71v3.24Z"/>
    <polygon class="cls-1" points="73.35 55.42 77.87 61.82 80.09 61.82 74.55 53.8 73.35 55.42"/>
    <polygon class="cls-1" points="71.13 48.93 66.69 42.53 64.39 42.53 70.02 50.55 71.13 48.93"/>
    <polygon class="cls-1" points="77.79 42.53 64.39 61.82 66.61 61.82 80.09 42.53 77.79 42.53"/>
    <polygon class="cls-2" points="48.6 61.82 48.6 61.82 62.6 61.82 62.6 58.66 48.6 58.66 48.6 53.8 62.6 53.8 62.6 50.55 48.6 50.55 48.6 45.69 62.6 45.69 62.6 42.53 46.55 42.53 46.55 61.82 48.6 61.82"/>
  </g>
</svg>