<?xml version="1.0" encoding="UTF-8"?>
<svg id="Layer_1" data-name="Layer 1" xmlns="http://www.w3.org/2000/svg" viewBox="0 0 175 120">
  <defs>
    <style>
      .cls-1 {
        fill: #fbb249;
      }

      .cls-1, .cls-2 {
        stroke-width: 0px;
      }

      .cls-2 {
        fill: #19171c;
      }
    </style>
  </defs>
  <rect class="cls-1" x="14.56" y="31.98" width="145.88" height="56.04"/>
  <g>
    <path class="cls-2" d="M79.69,61.67h3.18v2.05c-.8.57-1.82.86-2.97.86-2.54,0-4.34-1.93-4.34-4.55v-.04c0-2.44,1.82-4.47,4.12-4.47,1.66,0,2.64.53,3.75,1.45l1.99-2.4c-1.5-1.27-3.05-1.97-5.63-1.97-4.34,0-7.52,3.34-7.52,7.42v.04c0,4.24,3.07,7.37,7.54,7.37,2.62,0,4.65-1.02,6.12-2.27v-6.23h-6.23v2.72Z"/>
    <path class="cls-2" d="M100.91,57.64v-.04c0-1.35-.43-2.48-1.23-3.28-.94-.94-2.36-1.45-4.18-1.45h-6.56v14.34h3.15v-4.59h2.48l3.07,4.59h3.69l-3.5-5.12c1.82-.68,3.07-2.13,3.07-4.45ZM97.72,57.8c0,1.21-.88,2.03-2.42,2.03h-3.2v-4.12h3.13c1.54,0,2.48.7,2.48,2.05v.04Z"/>
    <path class="cls-2" d="M110.36,52.62c-4.42,0-7.64,3.34-7.64,7.42v.04c0,4.08,3.18,7.37,7.6,7.37s7.64-3.34,7.64-7.42v-.04c0-4.08-3.18-7.37-7.6-7.37ZM114.66,60.08c0,2.46-1.76,4.47-4.3,4.47s-4.34-2.05-4.34-4.51v-.04c0-2.46,1.76-4.47,4.3-4.47s4.34,2.05,4.34,4.51v.04Z"/>
    <path class="cls-2" d="M129.47,61.08c0,2.27-1.17,3.44-3.09,3.44s-3.09-1.21-3.09-3.54v-8.11h-3.15v8.19c0,4.22,2.36,6.37,6.21,6.37s6.29-2.13,6.29-6.47v-8.09h-3.15v8.21Z"/>
    <path class="cls-2" d="M141.29,52.87h-5.86v14.34h3.15v-4.3h2.4c3.22,0,5.8-1.72,5.8-5.04v-.04c0-2.93-2.07-4.96-5.49-4.96ZM143.58,57.93c0,1.23-.92,2.17-2.5,2.17h-2.5v-4.38h2.44c1.58,0,2.56.76,2.56,2.17v.04Z"/>
    <path class="cls-2" d="M47.55,67.2c-.83-.24-1.44-.74-1.86-1.47-1.61-2.74-8.44-14.65-10.04-17.4-.68-1.17-1.67-1.75-3.05-1.73-1.73.02-2.25,0-4.06,0l14.67,25.3c1.29,2.19,3.73,1.14,4.36.03,1-1.74,2.03-3.46,3.05-5.19.06-.09.1-.19.15-.29-.98.77-2.02,1.09-3.22.74Z"/>
    <path class="cls-2" d="M52.79,59.42c-.52-.15-.91-.46-1.18-.92-1.01-1.7-5.32-9.12-6.33-10.82-.43-.73-1.05-1.09-1.92-1.08-1.09.01-3.17,0-4.31,0l9.25,15.74c.81,1.36,3.68,1.37,4.5.02.65-1.07,1.28-2.15,1.92-3.23.03-.06.06-.12.09-.18-.62.48-1.27.68-2.03.46Z"/>
    <path class="cls-2" d="M65.41,62.95c1.15-1.67,1.83-3.7,1.83-5.87,0-1.44-.3-2.83-.84-4.09-.81-1.89-2.16-3.49-3.87-4.62-1.49-.99-3.26-1.62-5.15-1.76v-.03h-6.71l2.39,4.23h3.49v.03c.88,0,1.71.17,2.47.49,1.14.47,2.11,1.27,2.8,2.27.69,1,1.08,2.19,1.08,3.49,0,.87-.18,1.68-.5,2.43-.48,1.12-1.29,2.08-2.31,2.75-1.02.67-2.23,1.06-3.55,1.07h0c-1.4.02-2.22,1.56-1.45,2.71l5.17,7.46h5.36l-4.71-6.83c1.83-.81,3.37-2.1,4.48-3.71Z"/>
  </g>
</svg>