<?xml version="1.0" encoding="UTF-8"?>
<svg id="Layer_1" data-name="Layer 1" xmlns="http://www.w3.org/2000/svg" xmlns:xlink="http://www.w3.org/1999/xlink" viewBox="0 0 175 120">
  <defs>
    <style>
      .cls-1 {
        fill: #111e33;
      }

      .cls-1, .cls-2 {
        stroke-width: 0px;
      }

      .cls-3 {
        clip-path: url(#clippath);
      }

      .cls-2, .cls-4 {
        fill: none;
      }

      .cls-4 {
        stroke: #1d71b2;
        stroke-miterlimit: 10;
        stroke-width: .35px;
      }
    </style>
    <clipPath id="clippath">
      <polygon class="cls-2" points="274.68 -129.51 252.4 -119.02 241.68 -114.68 241.68 -55.56 299.51 -55.56 299.51 -44.28 314.79 -44.28 314.79 -55.56 317.63 -55.56 317.63 -56.97 323.75 -56.97 323.75 -71.5 317.63 -71.5 317.63 -129.51 274.68 -129.51"/>
    </clipPath>
  </defs>
  <g class="cls-3">
    <rect class="cls-4" x="129.7" y="-164.54" width="306.03" height="167.6"/>
  </g>
  <g>
    <path class="cls-1" d="M54.54,62.56v-23.05s.01-.05.01-.05v-.03s.03-.05.03-.05l.02-.03h0s.05-.06.05-.06l.05-.04h.01s0-.01,0-.01h.02s.08-.04.08-.04c.02,0,.05,0,.07,0h.55c.05,0,.1.01.15.03.05.02.09.05.12.09l9.37,11.5,8.32,10.21v-21.49c0-.1.04-.19.11-.25.06-.06.15-.1.25-.1h.42c.1,0,.19.04.25.11.07.06.11.15.11.25v23.04s-.02.04-.02.04v.05s-.01.02-.01.02l-.04.05h0s0,.02,0,.02h0s-.04.04-.04.04l-.04.04h-.01s-.01.01-.01.01v.02l-.12.03h-.05s-.55,0-.55,0c-.05,0-.1-.01-.15-.03-.05-.02-.09-.05-.12-.1l-9.38-11.5-8.32-10.21v21.49c0,.1-.04.19-.1.25-.06.06-.15.1-.25.1h-.42c-.1,0-.19-.04-.25-.1-.06-.06-.1-.15-.1-.25M77.66,39.99v-.43c0-.1.04-.19.1-.25.06-.06.15-.11.25-.11h19.3c.1,0,.18.04.25.11.06.06.1.15.1.25v.43c0,.1-.04.19-.1.25-.06.07-.15.11-.25.11h-9.08v22.21c0,.1-.04.19-.1.25-.06.07-.15.11-.25.11h-.43c-.1,0-.18-.04-.25-.11-.06-.06-.1-.15-.1-.25v-22.21h-9.08c-.1,0-.19-.04-.25-.11-.06-.06-.1-.15-.1-.25ZM97.15,51.05c0-3.27,1.31-6.23,3.42-8.38,2.11-2.15,5.03-3.48,8.24-3.48s6.13,1.33,8.24,3.48c2.11,2.15,3.42,5.11,3.42,8.38s-1.31,6.23-3.42,8.38c-2.11,2.15-5.03,3.48-8.24,3.48s-6.13-1.33-8.24-3.48c-2.11-2.15-3.42-5.11-3.42-8.38ZM98.28,51.05c0,2.95,1.18,5.63,3.09,7.57,1.9,1.94,4.54,3.14,7.44,3.14s5.53-1.2,7.44-3.14c1.91-1.94,3.09-4.62,3.09-7.57s-1.18-5.63-3.09-7.57c-1.91-1.94-4.54-3.14-7.44-3.14s-5.54,1.2-7.44,3.14c-1.91,1.94-3.09,4.62-3.09,7.57ZM146.56,62.56v-23.05s.01-.05.01-.05v-.03s.04-.05.04-.05v-.02s.01-.01.01-.01l.06-.05h0s.05-.04.05-.04h.01s.06-.03.06-.03l.07-.02h.05s11.21,0,11.21,0c2.33,0,4.44.96,5.97,2.52,1.53,1.55,2.47,3.7,2.47,6.07,0,1.81-.55,3.52-1.51,4.92-.94,1.37-2.28,2.46-3.88,3.09l5.33,6.53c.04.05.07.12.07.19,0,.06,0,.13-.04.19-.03.06-.07.11-.13.15-.06.04-.12.06-.19.06h-.55c-.05,0-.1-.01-.15-.03-.05-.02-.09-.06-.12-.1l-5.4-6.62c-.29.07-.59.12-.89.15-.32.04-.65.06-.98.06h-10.43v6.18c0,.1-.04.19-.1.25-.06.06-.15.1-.25.1h-.42c-.1,0-.19-.04-.25-.1-.06-.06-.1-.15-.1-.25ZM147.69,40.34v14.88h10.43c.28,0,.55-.02.82-.05.27-.03.54-.08.8-.14.15-.04.29-.07.44-.12,1.55-.46,2.86-1.42,3.78-2.68.93-1.26,1.47-2.82,1.47-4.46,0-2.05-.82-3.91-2.14-5.26-1.32-1.35-3.15-2.18-5.17-2.18h-10.43ZM31.83,49.23c0,2.62,1.05,5,2.74,6.72,1.69,1.72,4.03,2.78,6.6,2.78s4.91-1.07,6.6-2.78c1.69-1.72,2.74-4.1,2.74-6.72s-1.05-5-2.74-6.72c-1.69-1.72-4.03-2.78-6.6-2.78s-4.91,1.06-6.6,2.78c-1.69,1.72-2.74,4.1-2.74,6.72ZM41.89,59.86v2.6h4.77v.83h-10.38v-.83h4.78v-2.57c-2.84-.03-5.42-1.22-7.29-3.12-1.9-1.93-3.07-4.59-3.07-7.53s1.17-5.6,3.07-7.53c1.9-1.93,4.51-3.12,7.4-3.12s5.51,1.19,7.41,3.12c1.9,1.93,3.07,4.59,3.07,7.53s-1.17,5.6-3.07,7.53c-1.74,1.77-4.08,2.92-6.68,3.1ZM125.12,49.58v-10.39c0-.1.04-.19.11-.25.07-.06.16-.1.26-.1h.37c.1,0,.19.04.26.1.07.06.11.15.11.25v10.39c0,1.94.84,3.7,2.2,4.97,1.36,1.28,3.24,2.07,5.31,2.07s3.95-.79,5.31-2.07c1.36-1.27,2.2-3.03,2.2-4.97v-10.39s.01-.1.03-.14c.02-.04.04-.07.07-.11.03-.04.08-.06.12-.08.04-.02.09-.03.14-.03h.36c.1,0,.19.04.26.1.07.06.11.15.11.25v10.39c0,2.23-.97,4.26-2.53,5.72-1.56,1.46-3.71,2.37-6.08,2.37s-4.52-.91-6.08-2.37c-1.56-1.47-2.53-3.49-2.53-5.72ZM128.12,63.25c0-1.11.65-2.1,1.71-2.81,1.01-.67,2.39-1.09,3.9-1.09s2.9.42,3.9,1.09c1.05.71,1.7,1.7,1.7,2.81h-.83c0-.82-.51-1.57-1.34-2.12-.87-.59-2.09-.95-3.44-.95s-2.57.36-3.44.95c-.83.55-1.34,1.3-1.34,2.12h-.83ZM12.64,43.48c-2.05,2.09-3.08,4.83-3.08,7.57s1.03,5.49,3.08,7.58c.97.99,2.1,1.76,3.32,2.29,1.23.53,2.55.82,3.92.85,1.37.03,2.7-.21,3.94-.69,1.24-.48,2.39-1.2,3.39-2.14l.15-.14s.1-.1.15-.15h0c.07-.07.16-.1.25-.11.09,0,.18.03.25.1l.31.3s.06.07.08.12c.02.04.03.09.03.14s0,.09-.03.13c-.02.04-.04.08-.07.12h0c-.08.08-.17.17-.25.25l-.07.06c-1.08,1.02-2.32,1.81-3.67,2.35-1.34.54-2.78.82-4.26.82-.06,0-.12,0-.21,0-1.52-.03-2.99-.35-4.35-.94-1.36-.59-2.61-1.44-3.69-2.53-2.27-2.31-3.41-5.35-3.41-8.39s1.14-6.07,3.41-8.38c1.07-1.09,2.32-1.95,3.69-2.54s2.83-.91,4.35-.94c1.51-.03,2.99.24,4.37.78,1.38.54,2.65,1.34,3.76,2.38.05.05.11.1.16.15l.16.16s.05.07.07.12c.02.04.03.09.03.13s-.01.09-.03.14c-.02.04-.04.08-.08.12l-.31.3c-.07.07-.16.1-.25.1-.09,0-.18-.04-.25-.1h0c-.05-.06-.1-.11-.15-.15-.05-.05-.1-.09-.15-.13h0c-1-.94-2.15-1.67-3.39-2.15-1.24-.48-2.58-.72-3.94-.69-1.37.03-2.7.32-3.92.85-1.23.53-2.35,1.3-3.32,2.29Z"/>
    <path class="cls-1" d="M43.91,80.12h-4.7l-.49,1.08h-.71l3.28-7.15h.55l3.29,7.15h-.71l-.5-1.08ZM43.61,79.47l-2.05-4.46-2.05,4.46h4.11Z"/>
    <path class="cls-1" d="M48.71,80.3c.41.32.88.48,1.42.48.65,0,1.2-.23,1.66-.7l.45.46c-.59.6-1.29.89-2.11.89s-1.53-.3-2.11-.89-.87-1.31-.87-2.14.29-1.55.87-2.14c.58-.59,1.29-.89,2.11-.89s1.52.29,2.11.88c.08.08.15.16.21.25l-3.74,3.8ZM51.55,76.49c-.41-.32-.88-.48-1.42-.48-.65,0-1.2.23-1.66.7-.46.47-.69,1.03-.69,1.69,0,.55.16,1.03.48,1.45l3.29-3.34Z"/>
    <path class="cls-1" d="M55.27,80.35c.51.28,1.02.42,1.54.42.45,0,.81-.09,1.09-.28.28-.18.42-.43.42-.74,0-.23-.07-.42-.2-.57-.13-.16-.34-.27-.63-.33l-1.19-.29c-.44-.13-.78-.33-1-.61-.23-.27-.34-.6-.34-.98,0-.44.17-.82.52-1.13.35-.32.81-.48,1.38-.49.8,0,1.48.23,2.02.68l-.49.43c-.44-.31-.95-.47-1.52-.47-.42.01-.73.11-.95.31-.22.19-.32.42-.32.67,0,.22.07.41.2.57s.34.28.63.36l1.25.33c.4.1.7.28.93.54.22.26.34.59.34.98,0,.49-.2.89-.6,1.2-.41.31-.92.46-1.54.46-.71,0-1.37-.19-1.97-.56l.43-.51Z"/>
    <polygon class="cls-1" points="61.72 74.06 62.35 74.06 62.35 75.57 63.2 75.57 63.2 76.22 62.35 76.22 62.35 81.21 61.72 81.21 61.72 74.06"/>
    <path class="cls-1" d="M66.44,77.21v3.99h-.64v-7.15h.64v2.08c.53-.52,1.17-.78,1.92-.78s1.42.27,1.96.82c.53.55.81,1.21.81,1.99v3.03h-.64v-3.03c0-.6-.21-1.11-.62-1.53-.41-.42-.91-.63-1.51-.63s-1.09.21-1.51.63c-.17.17-.31.36-.41.57"/>
    <path class="cls-1" d="M75.29,80.3c.41.32.88.48,1.41.48.65,0,1.2-.23,1.66-.7l.45.46c-.59.6-1.29.89-2.12.89s-1.52-.3-2.1-.89c-.58-.59-.87-1.31-.87-2.14s.29-1.55.87-2.14c.58-.59,1.29-.89,2.1-.89s1.53.29,2.12.88c.07.08.15.16.21.25l-3.74,3.8ZM78.13,76.49c-.41-.32-.88-.48-1.42-.48-.65,0-1.2.23-1.65.7-.46.47-.69,1.03-.69,1.69,0,.55.16,1.03.48,1.45l3.29-3.34Z"/>
    <polygon class="cls-1" points="81.85 74.06 82.49 74.06 82.49 75.57 83.35 75.57 83.35 76.22 82.49 76.22 82.49 81.21 81.85 81.21 81.85 74.06"/>
    <path class="cls-1" d="M86.58,73.84v.87h-.64v-.87h.64ZM86.58,75.57v5.63h-.64v-5.63h.64Z"/>
    <path class="cls-1" d="M94.2,79.89l.49.42c-.06.08-.13.15-.21.23-.58.6-1.29.89-2.11.89s-1.52-.3-2.11-.89c-.59-.59-.88-1.31-.88-2.14s.29-1.55.88-2.14c.58-.59,1.28-.89,2.11-.89s1.53.29,2.11.88c.08.08.15.16.21.23l-.49.42c-.05-.06-.1-.13-.16-.19-.46-.46-1.02-.69-1.66-.69s-1.2.23-1.66.7c-.45.47-.68,1.03-.68,1.69s.23,1.22.68,1.69c.46.47,1.01.7,1.66.7s1.2-.23,1.66-.7c.06-.06.11-.12.16-.18"/>
    <path class="cls-1" d="M107.98,79.83l.47.43-.05.05c-.73.74-1.6,1.11-2.63,1.11s-1.91-.37-2.64-1.11c-.73-.74-1.09-1.63-1.09-2.69s.37-1.94,1.09-2.68c.73-.74,1.61-1.11,2.64-1.11s1.91.37,2.63,1.11c.03.03.05.05.08.08l-.46.45-.07-.07c-.6-.61-1.33-.92-2.18-.92s-1.59.31-2.19.92c-.6.61-.9,1.35-.9,2.22s.3,1.61.9,2.23c.6.61,1.33.92,2.19.92s1.58-.31,2.18-.92l.03-.03"/>
    <rect class="cls-1" x="111.24" y="74.06" width=".64" height="7.15"/>
    <path class="cls-1" d="M115.75,73.84v.87h-.64v-.87h.64ZM115.75,75.57v5.63h-.64v-5.63h.64Z"/>
    <path class="cls-1" d="M119.63,77.21v3.99h-.64v-5.63h.64v.56c.54-.52,1.17-.78,1.91-.78s1.42.27,1.96.82c.55.55.81,1.21.81,1.99v3.03h-.64v-3.03c0-.6-.21-1.11-.62-1.53-.42-.42-.92-.63-1.51-.63s-1.09.21-1.51.63c-.17.17-.3.36-.41.57"/>
    <path class="cls-1" d="M127.97,73.84v.87h-.63v-.87h.63ZM127.97,75.57v5.63h-.63v-5.63h.63Z"/>
    <path class="cls-1" d="M135.59,79.89l.49.42c-.06.08-.13.15-.2.23-.59.6-1.29.89-2.11.89s-1.53-.3-2.11-.89c-.58-.59-.87-1.31-.87-2.14s.29-1.55.87-2.14c.58-.59,1.29-.89,2.11-.89s1.52.29,2.11.88c.08.08.14.16.2.23l-.49.42c-.05-.06-.1-.13-.16-.19-.46-.46-1.01-.69-1.66-.69s-1.2.23-1.66.7c-.46.47-.69,1.03-.69,1.69s.23,1.22.69,1.69c.45.47,1.01.7,1.66.7s1.2-.23,1.66-.7c.06-.06.12-.12.16-.18"/>
  </g>
</svg>