<?xml version="1.0" encoding="UTF-8"?>
<svg id="Layer_1" data-name="Layer 1" xmlns="http://www.w3.org/2000/svg" xmlns:xlink="http://www.w3.org/1999/xlink" viewBox="0 0 175 120">
  <defs>
    <style>
      .cls-1 {
        fill: url(#linear-gradient);
      }

      .cls-1, .cls-2, .cls-3, .cls-4, .cls-5, .cls-6, .cls-7, .cls-8, .cls-9, .cls-10, .cls-11, .cls-12, .cls-13 {
        stroke-width: 0px;
      }

      .cls-2 {
        fill: url(#linear-gradient-11);
      }

      .cls-3 {
        fill: url(#linear-gradient-10);
      }

      .cls-4 {
        fill: #f7aa2c;
      }

      .cls-5 {
        fill: #000;
      }

      .cls-6 {
        fill: url(#linear-gradient-4);
      }

      .cls-7 {
        fill: url(#linear-gradient-2);
      }

      .cls-8 {
        fill: url(#linear-gradient-3);
      }

      .cls-9 {
        fill: url(#linear-gradient-8);
      }

      .cls-10 {
        fill: url(#linear-gradient-9);
      }

      .cls-11 {
        fill: url(#linear-gradient-7);
      }

      .cls-12 {
        fill: url(#linear-gradient-5);
      }

      .cls-13 {
        fill: url(#linear-gradient-6);
      }
    </style>
    <linearGradient id="linear-gradient" x1="26" y1="25.96" x2="29.97" y2="45.3" gradientUnits="userSpaceOnUse">
      <stop offset="0" stop-color="#f7aa2c"/>
      <stop offset="1" stop-color="#e21d76"/>
    </linearGradient>
    <linearGradient id="linear-gradient-2" x1="24.54" y1="26.25" x2="28.51" y2="45.6" xlink:href="#linear-gradient"/>
    <linearGradient id="linear-gradient-3" x1="27.16" y1="25.72" x2="31.13" y2="45.06" xlink:href="#linear-gradient"/>
    <linearGradient id="linear-gradient-4" x1="23.38" y1="26.49" x2="27.34" y2="45.84" xlink:href="#linear-gradient"/>
    <linearGradient id="linear-gradient-5" x1="37.51" y1="55.18" x2="52.45" y2="70.12" xlink:href="#linear-gradient"/>
    <linearGradient id="linear-gradient-6" x1="60.18" y1="55.19" x2="75.11" y2="70.12" xlink:href="#linear-gradient"/>
    <linearGradient id="linear-gradient-7" x1="83.15" y1="44.57" x2="103.68" y2="65.1" xlink:href="#linear-gradient"/>
    <linearGradient id="linear-gradient-8" x1="101.54" y1="55.18" x2="116.47" y2="70.12" xlink:href="#linear-gradient"/>
    <linearGradient id="linear-gradient-9" x1="135.58" y1="50.14" x2="160.16" y2="74.71" xlink:href="#linear-gradient"/>
    <linearGradient id="linear-gradient-10" x1="124.21" y1="55.19" x2="139.14" y2="70.12" xlink:href="#linear-gradient"/>
    <linearGradient id="linear-gradient-11" x1="15.36" y1="66.31" x2="30.07" y2="81.02" xlink:href="#linear-gradient"/>
  </defs>
  <g>
    <path class="cls-1" d="M29.33,38.79c0,.39-.31.7-.7.7s-.7-.31-.7-.7.31-.7.7-.7.7.31.7.7Z"/>
    <path class="cls-7" d="M25.39,33.84c0-.39.31-.7.7-.7s.7.31.7.7-.31.7-.7.7-.7-.31-.7-.7Z"/>
    <path class="cls-8" d="M35.98,33.64c-.55,0-1.02.32-1.24.79h-7.4c-.22.46-.69.79-1.24.79-.76,0-1.38-.62-1.38-1.38s.62-1.38,1.38-1.38c.55,0,1.02.32,1.24.79h5.92c-1.01-2.3-3.31-3.9-5.98-3.9-3.36,0-6.2,2.54-6.4,6.27h13.86c.22.46.69.79,1.24.79.76,0,1.38-.62,1.38-1.38s-.62-1.38-1.38-1.38ZM35.98,35.72c-.39,0-.7-.31-.7-.7s.31-.7.7-.7.7.31.7.7-.31.7-.7.7Z"/>
    <path class="cls-6" d="M19.99,37.01c-.22-.46-.69-.79-1.24-.79-.76,0-1.38.62-1.38,1.38s.62,1.38,1.38,1.38c.55,0,1.02-.32,1.24-.79h7.4c.22-.46.69-.79,1.24-.79.76,0,1.38.62,1.38,1.38s-.62,1.38-1.38,1.38c-.55,0-1.02-.32-1.24-.79h-5.92c1.01,2.3,3.31,3.9,5.98,3.9,3.36,0,6.2-2.54,6.4-6.27h-13.86ZM18.75,38.31c-.39,0-.7-.31-.7-.7s.31-.7.7-.7.7.31.7.7-.31.7-.7.7Z"/>
  </g>
  <path class="cls-12" d="M55.39,60.84c-.3-1.66-.95-3.17-1.93-4.46-1-1.35-2.2-2.37-3.67-3.12-1.48-.78-3.1-1.18-4.81-1.18s-3.33.4-4.81,1.17c-1.47.76-2.71,1.8-3.69,3.12-.97,1.31-1.61,2.81-1.92,4.48-.1.69-.15,1.27-.15,1.8.02.59.06,1.15.15,1.79.3,1.67.95,3.18,1.93,4.48,1,1.33,2.2,2.35,3.67,3.12,1.48.78,3.06,1.16,4.81,1.16,1.39,0,2.71-.26,3.92-.76,1.2-.49,2.3-1.18,3.25-2.06l.31-.28-2.7-3.44-.36.37c-.52.53-1.19.99-1.97,1.35-.77.32-1.6.49-2.45.49-1.45,0-2.7-.43-3.81-1.3-.95-.74-1.61-1.65-2.02-2.76h16.18l.06-.38c.1-.63.15-1.21.15-1.81-.02-.58-.07-1.18-.15-1.79ZM44.98,56.43c1.47,0,2.72.42,3.81,1.28.93.74,1.61,1.67,2.01,2.76h-11.65c.21-.55.48-1.06.81-1.52.34-.46.74-.88,1.2-1.24,1.1-.86,2.34-1.28,3.81-1.28Z"/>
  <path class="cls-13" d="M71.99,67.13l2.98,3.14-.36.31c-.98.84-2.05,1.49-3.18,1.93-1.17.47-2.44.7-3.79.7-1.93,0-3.72-.48-5.3-1.42-1.63-.97-2.87-2.23-3.82-3.84-.95-1.57-1.44-3.36-1.44-5.3s.48-3.71,1.44-5.31c.95-1.6,2.24-2.89,3.82-3.82,1.6-.95,3.39-1.44,5.3-1.44,1.35,0,2.63.25,3.9.76,1.24.5,2.34,1.2,3.26,2.06l.35.33-3.15,2.97-.31-.27c-.53-.47-1.16-.84-1.86-1.11-.68-.26-1.42-.39-2.19-.39-1.15,0-2.21.28-3.14.82-.92.54-1.68,1.3-2.25,2.25-.55.92-.82,1.98-.82,3.14s.27,2.2.82,3.14c.56.95,1.3,1.69,2.25,2.25.95.56,2.01.84,3.14.84.76,0,1.49-.13,2.18-.39.7-.27,1.3-.63,1.84-1.08l.33-.27Z"/>
  <g>
    <polygon class="cls-11" points="104.33 45.22 104.33 49.57 95.58 49.57 95.58 73.21 91.25 73.21 91.25 49.57 82.5 49.57 82.5 45.22 104.33 45.22"/>
    <path class="cls-9" d="M119.41,60.84c-.3-1.66-.95-3.17-1.93-4.46-1-1.35-2.2-2.37-3.67-3.12-1.48-.78-3.1-1.18-4.81-1.18s-3.31.38-4.81,1.17c-1.47.76-2.71,1.8-3.69,3.12-.97,1.31-1.61,2.81-1.92,4.48-.1.69-.15,1.27-.15,1.8.02.59.06,1.17.15,1.79.3,1.67.95,3.18,1.93,4.48,1,1.33,2.2,2.35,3.67,3.12,1.48.78,3.06,1.16,4.81,1.16,1.39,0,2.71-.26,3.92-.76,1.2-.49,2.3-1.18,3.25-2.06l.31-.28-2.7-3.44-.36.37c-.52.53-1.19.99-1.97,1.35-.77.32-1.6.49-2.45.49-1.45,0-2.7-.43-3.81-1.3-.95-.74-1.61-1.65-2.02-2.76h16.18l.06-.38c.1-.63.15-1.21.15-1.81-.02-.57-.07-1.17-.15-1.79ZM109,56.43c1.47,0,2.72.42,3.81,1.28.93.74,1.61,1.67,2.02,2.76h-11.65c.21-.55.48-1.06.81-1.52.34-.46.74-.88,1.2-1.24,1.1-.86,2.34-1.28,3.81-1.28Z"/>
    <g>
      <path class="cls-10" d="M161.61,62.52v10.74h-4.33v-10.63c-.02-1.16-.31-2.21-.86-3.14-.56-.93-1.31-1.68-2.24-2.24-.93-.55-1.98-.82-3.14-.82s-2.21.28-3.12.82c-.95.57-1.68,1.3-2.24,2.22-.55.92-.84,1.98-.86,3.14v10.59h-4.33v-27.99h4.33v8.91c.74-.54,1.55-.99,2.44-1.34,1.19-.47,2.43-.7,3.79-.7,1.58,0,3.05.28,4.36.83,1.3.55,2.43,1.31,3.36,2.28.93.96,1.63,2.09,2.11,3.36.47,1.26.72,2.59.72,3.96Z"/>
      <path class="cls-3" d="M126.27,59.51c-.54.92-.82,1.98-.82,3.14s.27,2.2.82,3.14c.56.95,1.3,1.69,2.25,2.25.95.56,2.01.84,3.14.84.76,0,1.49-.13,2.18-.39.7-.27,1.31-.63,1.84-1.08l.33-.27,2.98,3.14-.36.31c-.98.84-2.05,1.49-3.18,1.93-1.17.47-2.44.7-3.79.7-1.93,0-3.72-.48-5.31-1.42-1.62-.97-2.87-2.23-3.82-3.84-.95-1.57-1.44-3.36-1.44-5.3s.48-3.71,1.44-5.31c.95-1.6,2.24-2.89,3.82-3.82,1.6-.95,3.39-1.44,5.3-1.44,1.35,0,2.63.25,3.9.76,1.24.5,2.34,1.2,3.26,2.06l.35.33-3.15,2.97-.31-.27c-.53-.47-1.16-.84-1.86-1.11-.68-.26-1.42-.39-2.19-.39-1.17,0-2.2.27-3.14.82-.92.54-1.68,1.3-2.25,2.25Z"/>
    </g>
  </g>
  <g>
    <path class="cls-5" d="M42.1,82.76h-2.27v1.87h2.48l-.05.32h-2.77v-4.44h2.72v.32h-2.38v1.62h2.27v.32Z"/>
    <path class="cls-5" d="M44.28,84.94v-4.68h.32v4.68h-.32Z"/>
    <path class="cls-5" d="M46.98,83.4c0,.82.42,1.33,1.03,1.33s.8-.34.91-.6h.32c-.13.42-.47.89-1.25.89-.96,0-1.34-.83-1.34-1.64,0-.91.45-1.69,1.38-1.69.98,0,1.29.84,1.29,1.44,0,.09,0,.18,0,.26h-2.33ZM48.99,83.12c0-.63-.35-1.12-.97-1.12-.65,0-.95.46-1.02,1.12h1.99Z"/>
    <path class="cls-5" d="M53.73,84.01c-.15.56-.52,1.01-1.23,1.01-.79,0-1.36-.59-1.36-1.65,0-.87.46-1.68,1.4-1.68.81,0,1.14.57,1.19,1.02h-.32c-.1-.37-.34-.72-.88-.72-.67,0-1.05.57-1.05,1.36s.36,1.36,1.02,1.36c.46,0,.74-.23.91-.71h.32Z"/>
    <path class="cls-5" d="M55.33,81.77h.59v-.99h.32v.99h.76v.3h-.76v2.06c0,.36.08.56.38.56.1,0,.23,0,.33-.04v.28c-.11.04-.26.06-.39.06-.41,0-.63-.2-.63-.71v-2.21h-.59v-.3Z"/>
    <path class="cls-5" d="M58.85,82.63c0-.53,0-.76,0-.86h.31c0,.1.01.3.01.71.18-.48.59-.76,1.1-.79v.34c-.66.04-1.1.5-1.1,1.26v1.65h-.32v-2.31Z"/>
    <path class="cls-5" d="M64.7,83.35c0,.88-.49,1.67-1.43,1.67-.86,0-1.39-.7-1.39-1.66,0-.91.5-1.66,1.42-1.66.84,0,1.4.66,1.4,1.66ZM62.21,83.36c0,.76.41,1.36,1.08,1.36s1.07-.56,1.07-1.36c0-.75-.38-1.36-1.09-1.36s-1.07.6-1.07,1.36Z"/>
    <path class="cls-5" d="M73.62,82.9c0-.87,0-1.7.03-2.14h-.02c-.18.6-1.08,2.79-1.64,4.19h-.34c-.43-1.09-1.36-3.52-1.56-4.19h-.01c.03.51.04,1.54.04,2.3v1.89h-.34v-4.44h.51c.61,1.52,1.38,3.52,1.54,4.02h.01c.1-.32.99-2.54,1.61-4.02h.51v4.44h-.34v-2.04Z"/>
    <path class="cls-5" d="M76.42,83.4c0,.82.42,1.33,1.03,1.33s.8-.34.91-.6h.32c-.13.42-.47.89-1.25.89-.96,0-1.34-.83-1.34-1.64,0-.91.45-1.69,1.38-1.69.98,0,1.29.84,1.29,1.44,0,.09,0,.18,0,.26h-2.33ZM78.43,83.12c0-.63-.35-1.12-.97-1.12-.65,0-.95.46-1.02,1.12h1.99Z"/>
    <path class="cls-5" d="M83.17,84.01c-.15.56-.52,1.01-1.23,1.01-.79,0-1.36-.59-1.36-1.65,0-.87.46-1.68,1.4-1.68.81,0,1.14.57,1.19,1.02h-.32c-.1-.37-.34-.72-.88-.72-.67,0-1.05.57-1.05,1.36s.36,1.36,1.02,1.36c.46,0,.74-.23.91-.71h.32Z"/>
    <path class="cls-5" d="M85.49,80.27v2.04c.18-.33.49-.61,1.05-.61.45,0,1.07.23,1.07,1.23v2.02h-.32v-1.95c0-.63-.29-.98-.81-.98-.63,0-.99.39-.99,1.17v1.77h-.32v-4.68h.32Z"/>
    <path class="cls-5" d="M92.06,84.34c0,.28.03.5.04.6h-.3c-.03-.08-.04-.22-.06-.49-.11.23-.39.56-1.04.56-.74,0-1.05-.48-1.05-.95,0-.7.54-1.02,1.49-1.02h.6v-.32c0-.32-.1-.74-.82-.74-.64,0-.74.34-.81.6h-.32c.04-.35.25-.89,1.13-.89.72,0,1.13.3,1.13,1v1.64ZM91.75,83.33h-.62c-.7,0-1.14.18-1.14.73,0,.4.29.67.73.67.91,0,1.03-.6,1.03-1.29v-.11Z"/>
    <path class="cls-5" d="M94.37,82.57c0-.28,0-.55,0-.8h.31c.01.1.02.51.01.6.14-.32.4-.68,1.05-.68.56,0,1.07.32,1.07,1.19v2.06h-.32v-2.01c0-.56-.23-.93-.79-.93-.76,0-1.02.63-1.02,1.32v1.62h-.32v-2.37Z"/>
    <path class="cls-5" d="M99.12,80.27h.32v.62h-.32v-.62ZM99.12,81.77h.32v3.17h-.32v-3.17Z"/>
    <path class="cls-5" d="M104.08,84.01c-.15.56-.52,1.01-1.23,1.01-.79,0-1.36-.59-1.36-1.65,0-.87.46-1.68,1.4-1.68.81,0,1.14.57,1.19,1.02h-.32c-.1-.37-.34-.72-.88-.72-.67,0-1.05.57-1.05,1.36s.36,1.36,1.02,1.36c.46,0,.74-.23.91-.71h.32Z"/>
    <path class="cls-5" d="M108.29,84.34c0,.28.03.5.04.6h-.3c-.03-.08-.04-.22-.06-.49-.11.23-.39.56-1.04.56-.74,0-1.05-.48-1.05-.95,0-.7.54-1.02,1.49-1.02h.6v-.32c0-.32-.1-.74-.82-.74-.64,0-.74.34-.81.6h-.32c.04-.35.25-.89,1.13-.89.72,0,1.13.3,1.13,1v1.64ZM107.98,83.33h-.62c-.7,0-1.14.18-1.14.73,0,.4.29.67.73.67.91,0,1.03-.6,1.03-1.29v-.11Z"/>
    <path class="cls-5" d="M110.61,84.94v-4.68h.32v4.68h-.32Z"/>
    <path class="cls-5" d="M119.6,83.76c-.21.7-.73,1.24-1.67,1.24-1.28,0-1.95-1.02-1.95-2.27s.66-2.29,1.95-2.29c.96,0,1.52.53,1.67,1.28h-.34c-.2-.58-.58-.96-1.35-.96-1.1,0-1.57,1.01-1.57,1.97s.46,1.95,1.59,1.95c.72,0,1.09-.37,1.31-.92h.34Z"/>
    <path class="cls-5" d="M124.28,83.35c0,.88-.49,1.67-1.43,1.67-.86,0-1.39-.7-1.39-1.66,0-.91.5-1.66,1.42-1.66.84,0,1.4.66,1.4,1.66ZM121.79,83.36c0,.76.41,1.36,1.08,1.36s1.07-.56,1.07-1.36c0-.75-.38-1.36-1.09-1.36s-1.07.6-1.07,1.36Z"/>
    <path class="cls-5" d="M126.33,82.57c0-.28,0-.55,0-.8h.31c.01.1.02.51.01.6.14-.32.4-.68,1.05-.68.56,0,1.07.32,1.07,1.19v2.06h-.32v-2.01c0-.56-.23-.93-.79-.93-.76,0-1.02.63-1.02,1.32v1.62h-.32v-2.37Z"/>
    <path class="cls-5" d="M130.59,81.77h.59v-.99h.32v.99h.76v.3h-.76v2.06c0,.36.08.56.38.56.1,0,.23,0,.33-.04v.28c-.11.04-.26.06-.39.06-.41,0-.63-.2-.63-.71v-2.21h-.59v-.3Z"/>
    <path class="cls-5" d="M134.11,82.63c0-.53,0-.76,0-.86h.31c0,.1.01.3.01.71.18-.48.59-.76,1.1-.79v.34c-.66.04-1.1.5-1.1,1.26v1.65h-.32v-2.31Z"/>
    <path class="cls-5" d="M139.5,84.34c0,.28.03.5.04.6h-.3c-.03-.08-.04-.22-.06-.49-.11.23-.39.56-1.04.56-.74,0-1.05-.48-1.05-.95,0-.7.54-1.02,1.49-1.02h.6v-.32c0-.32-.1-.74-.82-.74-.64,0-.74.34-.81.6h-.32c.04-.35.25-.89,1.13-.89.72,0,1.13.3,1.13,1v1.64ZM139.19,83.33h-.62c-.7,0-1.14.18-1.14.73,0,.4.29.67.73.67.91,0,1.03-.6,1.03-1.29v-.11Z"/>
    <path class="cls-5" d="M144.15,84.01c-.15.56-.52,1.01-1.23,1.01-.79,0-1.36-.59-1.36-1.65,0-.87.46-1.68,1.4-1.68.81,0,1.14.57,1.19,1.02h-.32c-.1-.37-.34-.72-.88-.72-.67,0-1.05.57-1.05,1.36s.36,1.36,1.02,1.36c.46,0,.74-.23.91-.71h.32Z"/>
    <path class="cls-5" d="M145.76,81.77h.59v-.99h.32v.99h.76v.3h-.76v2.06c0,.36.08.56.38.56.1,0,.23,0,.33-.04v.28c-.11.04-.26.06-.39.06-.41,0-.63-.2-.63-.71v-2.21h-.59v-.3Z"/>
    <path class="cls-5" d="M149.34,80.27h.32v.62h-.32v-.62ZM149.34,81.77h.32v3.17h-.32v-3.17Z"/>
    <path class="cls-5" d="M151.96,82.57c0-.28,0-.55,0-.8h.31c.01.1.02.51.01.6.14-.32.4-.68,1.05-.68.56,0,1.07.32,1.07,1.19v2.06h-.32v-2.01c0-.56-.23-.93-.79-.93-.76,0-1.02.63-1.02,1.32v1.62h-.32v-2.37Z"/>
    <path class="cls-5" d="M159.13,84.73c0,1.02-.45,1.55-1.37,1.55-.83,0-1.17-.46-1.24-.95h.32c.11.44.48.65.93.65.83,0,1.05-.53,1.05-1.34v-.33c-.17.41-.48.63-1.06.63-.74,0-1.31-.6-1.31-1.59,0-1.07.61-1.66,1.36-1.66.65,0,.93.3,1.02.56,0-.18.01-.41.02-.48h.3c0,.11-.01.62-.01.92v2.04ZM156.79,83.35c0,.76.4,1.3,1.01,1.3.79,0,1.03-.53,1.03-1.35s-.25-1.3-1.02-1.3-1.03.63-1.03,1.35Z"/>
  </g>
  <g>
    <path class="cls-2" d="M25.34,56.32l4.21-2.13v20.15c-.05,3.27-.87,6.25-2.45,8.89-.09.15-.18.3-.28.45l-.03.05c-.84,1.31-1.83,2.49-2.96,3.51l-.03.03c-1.08.92-2.29,1.68-3.6,2.25-1.54.67-3.18,1.05-4.88,1.15h-1.93s0-4.22,0-4.22h.45c.07,0,.13,0,.18,0,.08,0,.14,0,.21,0,1.94-.06,3.7-.56,5.4-1.53,1.75-1.05,3.14-2.43,4.12-4.09,1.03-1.71,1.56-3.66,1.6-5.78v-6.66c0-3.15,0-6.64,0-7.86v-4.18Z"/>
    <polygon class="cls-4" points="25.19 50.75 25.17 50.76 25.17 50.75 25.19 50.75"/>
    <polygon class="cls-4" points="24.26 52.12 24.26 56.63 20.05 58.75 20.05 54.32 24.26 52.12"/>
    <polygon class="cls-4" points="20.04 50.92 20.04 54.31 16.87 55.91 16.87 52.58 20.04 50.92"/>
    <polygon class="cls-4" points="20.07 58.77 20.07 61.26 17.74 62.44 17.74 59.99 20.07 58.77"/>
    <polygon class="cls-4" points="29.38 45.25 29.38 49.43 25.19 51.5 25.17 51.51 25.17 45.25 29.38 45.25"/>
  </g>
</svg>