<?xml version="1.0" encoding="UTF-8"?>
<svg id="Layer_1" data-name="Layer 1" xmlns="http://www.w3.org/2000/svg" xmlns:xlink="http://www.w3.org/1999/xlink" viewBox="0 0 175 120">
  <defs>
    <style>
      .cls-1 {
        fill: url(#linear-gradient);
      }

      .cls-1, .cls-2, .cls-3, .cls-4, .cls-5, .cls-6, .cls-7, .cls-8, .cls-9 {
        stroke-width: 0px;
      }

      .cls-10 {
        fill: none;
        stroke: #fff;
        stroke-miterlimit: 10;
        stroke-width: .48px;
      }

      .cls-2 {
        fill: url(#linear-gradient-4);
      }

      .cls-3 {
        fill: url(#linear-gradient-2);
      }

      .cls-4 {
        fill: url(#linear-gradient-3);
      }

      .cls-5 {
        fill: url(#linear-gradient-7);
      }

      .cls-6 {
        fill: url(#linear-gradient-5);
      }

      .cls-7 {
        fill: url(#linear-gradient-6);
      }

      .cls-8 {
        fill: #372115;
      }

      .cls-9 {
        fill: #fff;
      }
    </style>
    <linearGradient id="linear-gradient" x1="56.74" y1="70.84" x2="56.74" y2="88.38" gradientUnits="userSpaceOnUse">
      <stop offset="0" stop-color="#ffd43a"/>
      <stop offset="1" stop-color="#e57924"/>
    </linearGradient>
    <linearGradient id="linear-gradient-2" x1="69.37" x2="69.37" xlink:href="#linear-gradient"/>
    <linearGradient id="linear-gradient-3" x1="80.41" x2="80.41" y2="88.67" xlink:href="#linear-gradient"/>
    <linearGradient id="linear-gradient-4" x1="88.67" y1="79.92" x2="88.67" y2="80.86" xlink:href="#linear-gradient"/>
    <linearGradient id="linear-gradient-5" x1="96.72" y1="70.7" x2="96.72" y2="88.54" xlink:href="#linear-gradient"/>
    <linearGradient id="linear-gradient-6" x1="106.32" x2="106.32" xlink:href="#linear-gradient"/>
    <linearGradient id="linear-gradient-7" x1="118.26" x2="118.26" xlink:href="#linear-gradient"/>
  </defs>
  <rect class="cls-8" x="26.49" y="12.06" width="122.03" height="95.88"/>
  <g>
    <g>
      <path class="cls-1" d="M57.69,88.38v-.33h1.67s-1.11-4.72-1.11-4.72h-3.98l-1.31,4.72h1.63v.33h-4.34v-.33h1.73l4.79-17.21h.93l3.86,17.21h1.68v.33h-5.54ZM56.5,75.48l-2.09,7.33h3.73l-1.64-7.33Z"/>
      <path class="cls-3" d="M73.51,71.17l-3.06,9.04v7.83h1.64v.33h-5.58v-.33h1.68v-7.83l-3.01-9.04h-1.68v-.34h5.54v.34h-1.61s2.53,7.72,2.53,7.72l2.52-7.72h-1.62s0-.34,0-.34h4.39v.34h-1.73Z"/>
      <path class="cls-4" d="M83.71,71.17v16.11c0,.93-.89,1.39-2.66,1.39-2.63,0-3.95-.61-3.95-1.84v-15.67h-1.64v-.34h5.36v.34h-1.46v16.23c0,.57.53.85,1.6.85,1.15,0,1.73-.29,1.73-.87v-16.2h-1.46v-.34h4.12v.34h-1.64Z"/>
      <path class="cls-2" d="M85.84,80.86v-.94h5.67v.94h-5.67Z"/>
      <path class="cls-6" d="M96.65,88.54c-1,0-1.84-.14-2.5-.43-.67-.28-1-.68-1-1.19v-4.81h2.22v5.41c0,.47.43.7,1.28.7.95,0,1.42-.23,1.42-.7v-6.06c0-.22-.12-.44-.35-.63l-4.23-3.31c-.23-.18-.34-.58-.34-1.19v-3.94c0-.52.35-.94,1.04-1.24.69-.31,1.56-.46,2.59-.46s1.84.18,2.5.53c.67.35,1,.78,1,1.29v4.05h-2.22v-4.86c0-.46-.43-.69-1.29-.69-.95,0-1.42.23-1.42.69v4.66c0,.4.07.66.22.78l4.12,3.22c.38.28.58.64.58,1.08v5.39c0,.52-.35.94-1.04,1.25-.69.31-1.56.46-2.59.46Z"/>
      <path class="cls-7" d="M107.03,79.56h-1.02v8.48h1.68v.33h-5.58v-.33h1.64v-16.88h-1.64v-.34h4.92c1,0,1.84.18,2.5.53.67.35,1,.79,1,1.31v5.28c0,.51-.33.9-1,1.19-.66.28-1.5.43-2.5.43ZM108.31,71.87c0-.46-.43-.69-1.28-.69h-1.02v8.04h1.02c.85,0,1.28-.22,1.28-.67v-6.67Z"/>
      <path class="cls-5" d="M119.21,88.38v-.33h1.67s-1.11-4.72-1.11-4.72h-3.98l-1.31,4.72h1.63v.33h-4.34v-.33h1.73l4.79-17.21h.93l3.86,17.21h1.68v.33h-5.54ZM118.02,75.48l-2.08,7.33h3.73l-1.64-7.33Z"/>
    </g>
    <g>
      <g>
        <g>
          <path class="cls-9" d="M87.01,31.33s4.7,2.66.8,7.49c0,0-4.09,5.39-1.18,9.17,0,0-4.21-3.9.31-9.17,0,0,4.02-4.09.06-7.49Z"/>
          <path class="cls-9" d="M87.99,31.33s-4.7,2.66-.8,7.49c0,0,4.09,5.39,1.17,9.17,0,0,4.21-3.9-.31-9.17,0,0-4.02-4.09-.06-7.49Z"/>
        </g>
        <g>
          <path class="cls-9" d="M87.01,66.19s4.7-2.66.8-7.49c0,0-4.09-5.39-1.18-9.17,0,0-4.21,3.9.31,9.17,0,0,4.03,4.09.06,7.49Z"/>
          <path class="cls-9" d="M87.99,66.19s-4.71-2.66-.8-7.49c0,0,4.09-5.39,1.18-9.17,0,0,4.21,3.9-.31,9.17,0,0-4.02,4.09-.06,7.49Z"/>
        </g>
      </g>
      <g>
        <g>
          <path class="cls-9" d="M70.07,49.25s2.66-4.71,7.49-.8c0,0,5.39,4.09,9.16,1.18,0,0-3.9,4.21-9.16-.31,0,0-4.09-4.03-7.49-.06Z"/>
          <path class="cls-9" d="M70.07,48.26s2.66,4.71,7.49.8c0,0,5.39-4.09,9.16-1.18,0,0-3.9-4.21-9.16.31,0,0-4.09,4.02-7.49.06Z"/>
        </g>
        <g>
          <path class="cls-9" d="M104.93,49.25s-2.66-4.71-7.49-.81c0,0-5.39,4.09-9.16,1.18,0,0,3.9,4.21,9.16-.31,0,0,4.09-4.03,7.49-.06Z"/>
          <path class="cls-9" d="M104.93,48.26s-2.66,4.71-7.49.8c0,0-5.39-4.09-9.16-1.18,0,0,3.9-4.21,9.16.31,0,0,4.09,4.02,7.49.06Z"/>
        </g>
      </g>
      <g>
        <g>
          <path class="cls-9" d="M92.47,32.04s3.64,4-1.57,7.37c0,0-5.56,3.84-3.98,8.34,0,0-2.78-5.02,3.15-8.61,0,0,5.1-2.63,2.4-7.1Z"/>
          <path class="cls-9" d="M93.41,32.35s-5.3,1.06-3.1,6.87c0,0,2.2,6.39-1.74,9.08,0,0,5.22-2.39,2.56-8.81,0,0-2.55-5.14,2.28-7.14Z"/>
        </g>
        <g>
          <path class="cls-9" d="M81.59,65.17s5.3-1.06,3.1-6.87c0,0-2.2-6.39,1.74-9.07,0,0-5.22,2.39-2.57,8.8,0,0,2.55,5.14-2.28,7.14Z"/>
          <path class="cls-9" d="M82.53,65.48s-3.64-4,1.57-7.37c0,0,5.56-3.84,3.98-8.34,0,0,2.78,5.02-3.15,8.61,0,0-5.1,2.63-2.4,7.1Z"/>
        </g>
      </g>
      <g>
        <g>
          <path class="cls-9" d="M70.78,43.79s4-3.64,7.37,1.57c0,0,3.85,5.57,8.34,3.98,0,0-5.02,2.78-8.61-3.15,0,0-2.63-5.1-7.1-2.4Z"/>
          <path class="cls-9" d="M71.09,42.85s1.06,5.3,6.87,3.1c0,0,6.39-2.2,9.07,1.74,0,0-2.39-5.22-8.8-2.56,0,0-5.14,2.55-7.14-2.28Z"/>
        </g>
        <g>
          <path class="cls-9" d="M103.91,54.67s-1.06-5.3-6.87-3.1c0,0-6.39,2.2-9.07-1.74,0,0,2.39,5.22,8.8,2.56,0,0,5.14-2.55,7.14,2.28Z"/>
          <path class="cls-9" d="M104.22,53.73s-4,3.64-7.37-1.57c0,0-3.85-5.56-8.34-3.98,0,0,5.02-2.78,8.61,3.15,0,0,2.63,5.1,7.1,2.4Z"/>
        </g>
      </g>
      <g>
        <g>
          <path class="cls-9" d="M97.42,34.42s2.22,4.93-3.79,6.52c0,0-6.48,1.92-6.37,6.69,0,0-1.08-5.64,5.68-7.2,0,0,5.66-.91,4.49-6Z"/>
          <path class="cls-9" d="M98.22,35s-5.37-.64-5.09,5.56c0,0,.1,6.76-4.48,8.08,0,0,5.7-.65,5.18-7.57,0,0-.82-5.68,4.39-6.08Z"/>
        </g>
        <g>
          <path class="cls-9" d="M76.78,62.51s5.37.64,5.09-5.56c0,0-.1-6.76,4.48-8.08,0,0-5.7.65-5.18,7.57,0,0,.82,5.68-4.39,6.08Z"/>
          <path class="cls-9" d="M77.58,63.1s-2.22-4.93,3.79-6.52c0,0,6.48-1.92,6.38-6.69,0,0,1.08,5.64-5.68,7.2,0,0-5.66.91-4.49,6Z"/>
        </g>
      </g>
      <g>
        <g>
          <path class="cls-9" d="M73.16,38.84s4.93-2.22,6.52,3.79c0,0,1.92,6.48,6.69,6.38,0,0-5.64,1.08-7.2-5.68,0,0-.91-5.66-6-4.49Z"/>
          <path class="cls-9" d="M73.74,38.04s-.64,5.37,5.56,5.09c0,0,6.76-.1,8.08,4.48,0,0-.65-5.7-7.57-5.18,0,0-5.68.82-6.08-4.39Z"/>
        </g>
        <g>
          <path class="cls-9" d="M101.26,59.48s.64-5.37-5.56-5.08c0,0-6.76.1-8.08-4.48,0,0,.65,5.7,7.57,5.18,0,0,5.68-.82,6.08,4.39Z"/>
          <path class="cls-9" d="M101.84,58.68s-4.93,2.22-6.52-3.79c0,0-1.92-6.48-6.69-6.38,0,0,5.64-1.08,7.2,5.68,0,0,.91,5.66,6,4.49Z"/>
        </g>
      </g>
      <g>
        <g>
          <path class="cls-9" d="M101.33,38.13s.61,5.37-5.59,5.05c0,0-6.76-.15-8.11,4.42,0,0,.69-5.7,7.6-5.13,0,0,5.67.86,6.1-4.35Z"/>
          <path class="cls-9" d="M101.91,38.93s-4.92-2.25-6.54,3.74c0,0-1.97,6.47-6.73,6.33,0,0,5.63,1.12,7.24-5.63,0,0,.95-5.66,6.03-4.45Z"/>
        </g>
        <g>
          <path class="cls-9" d="M73.09,58.58s4.92,2.25,6.54-3.74c0,0,1.97-6.47,6.73-6.33,0,0-5.63-1.12-7.24,5.63,0,0-.95,5.66-6.03,4.45Z"/>
          <path class="cls-9" d="M73.67,59.39s-.6-5.37,5.6-5.05c0,0,6.76.15,8.11-4.42,0,0-.69,5.7-7.6,5.13,0,0-5.67-.86-6.11,4.35Z"/>
        </g>
      </g>
      <g>
        <g>
          <path class="cls-9" d="M76.87,34.93s5.37-.61,5.05,5.6c0,0-.15,6.76,4.43,8.11,0,0-5.7-.69-5.13-7.6,0,0,.86-5.67-4.35-6.1Z"/>
          <path class="cls-9" d="M77.67,34.35s-2.25,4.92,3.74,6.54c0,0,6.47,1.97,6.33,6.73,0,0,1.12-5.63-5.63-7.24,0,0-5.66-.95-4.45-6.03Z"/>
        </g>
        <g>
          <path class="cls-9" d="M97.33,63.17s2.25-4.92-3.74-6.54c0,0-6.47-1.97-6.33-6.73,0,0-1.12,5.63,5.63,7.24,0,0,5.66.95,4.45,6.03Z"/>
          <path class="cls-9" d="M98.13,62.59s-5.37.6-5.05-5.6c0,0,.15-6.76-4.42-8.11,0,0,5.7.69,5.13,7.6,0,0-.86,5.67,4.35,6.1Z"/>
        </g>
      </g>
      <g>
        <g>
          <path class="cls-9" d="M103.94,42.95s-1.09,5.3-6.89,3.06c0,0-6.38-2.24-9.08,1.69,0,0,2.42-5.2,8.82-2.51,0,0,5.13,2.58,7.15-2.24Z"/>
          <path class="cls-9" d="M104.25,43.89s-3.98-3.66-7.38,1.53c0,0-3.88,5.54-8.36,3.93,0,0,5.01,2.81,8.63-3.1,0,0,2.66-5.08,7.11-2.35Z"/>
        </g>
        <g>
          <path class="cls-9" d="M70.76,53.63s3.98,3.66,7.38-1.53c0,0,3.88-5.54,8.36-3.93,0,0-5-2.81-8.63,3.1,0,0-2.66,5.08-7.11,2.36Z"/>
          <path class="cls-9" d="M71.06,54.57s1.09-5.3,6.89-3.06c0,0,6.38,2.24,9.08-1.69,0,0-2.42,5.2-8.82,2.51,0,0-5.12-2.58-7.15,2.24Z"/>
        </g>
      </g>
      <g>
        <g>
          <path class="cls-9" d="M81.69,32.32s5.3,1.09,3.06,6.89c0,0-2.24,6.38,1.69,9.09,0,0-5.21-2.42-2.51-8.82,0,0,2.58-5.12-2.24-7.15Z"/>
          <path class="cls-9" d="M82.63,32.01s-3.66,3.98,1.53,7.38c0,0,5.54,3.88,3.93,8.36,0,0,2.81-5-3.1-8.63,0,0-5.09-2.66-2.35-7.11Z"/>
        </g>
        <g>
          <path class="cls-9" d="M92.37,65.5s3.66-3.98-1.53-7.38c0,0-5.54-3.88-3.93-8.36,0,0-2.81,5,3.1,8.63,0,0,5.08,2.66,2.35,7.11Z"/>
          <path class="cls-9" d="M93.31,65.2s-5.29-1.09-3.06-6.89c0,0,2.24-6.38-1.69-9.08,0,0,5.2,2.42,2.51,8.82,0,0-2.58,5.12,2.24,7.15Z"/>
        </g>
      </g>
    </g>
  </g>
  <rect class="cls-10" x="35.2" y="20.78" width="104.61" height="78.45"/>
</svg>