<?xml version="1.0" encoding="UTF-8"?>
<svg id="Layer_1" data-name="Layer 1" xmlns="http://www.w3.org/2000/svg" viewBox="0 0 175 120">
  <defs>
    <style>
      .cls-1 {
        fill: #ec1c24;
      }

      .cls-1, .cls-2 {
        stroke-width: 0px;
      }

      .cls-2 {
        fill: #231f20;
      }
    </style>
  </defs>
  <g>
    <g>
      <rect class="cls-1" x="7.5" y="33.4" width="21.5" height="33.49"/>
      <g>
        <rect class="cls-1" x="31.57" y="33.4" width="9.55" height="9.55"/>
        <rect class="cls-1" x="31.57" y="45.37" width="9.55" height="9.55"/>
        <rect class="cls-1" x="31.57" y="57.34" width="9.55" height="9.55"/>
      </g>
    </g>
    <g>
      <path class="cls-2" d="M77.43,61.15v5.74h-23.38v-33.68h22.96v5.74h-16.41v8.11h14.18v5.31h-14.18v8.77h16.84Z"/>
      <path class="cls-2" d="M83.69,66.89v-33.68h12.24c2.75,0,5.16.44,7.23,1.33,2.07.89,3.8,2.09,5.19,3.6,1.39,1.52,2.43,3.3,3.13,5.34.69,2.04,1.04,4.21,1.04,6.52,0,2.56-.39,4.88-1.16,6.95-.78,2.07-1.89,3.84-3.34,5.31s-3.2,2.61-5.24,3.42c-2.04.81-4.32,1.21-6.85,1.21h-12.24ZM105.94,50c0-1.61-.22-3.1-.66-4.46-.44-1.36-1.09-2.53-1.94-3.51-.85-.98-1.91-1.74-3.15-2.28-1.25-.54-2.66-.81-4.24-.81h-5.69v22.2h5.69c1.61,0,3.04-.28,4.29-.85,1.25-.57,2.29-1.35,3.13-2.35.84-1,1.48-2.17,1.92-3.53.44-1.36.66-2.83.66-4.41Z"/>
      <path class="cls-2" d="M146.25,66.89v-22.29l-8.67,22.38h-3.57l-8.68-22.38v22.29h-6.55v-33.68h7.02l9.96,25.75,10.06-25.75h6.97v33.68h-6.55Z"/>
      <path class="cls-2" d="M160.95,66.89v-33.68h6.55v33.68h-6.55Z"/>
    </g>
  </g>
  <g>
    <path class="cls-2" d="M18.87,79.92l1.27,5.21,1.29-5.21h1.25l1.3,5.18,1.35-5.18h1.11l-1.92,6.61h-1.15l-1.35-5.12-1.3,5.12h-1.15l-1.91-6.61h1.22Z"/>
    <path class="cls-2" d="M28.63,79.92l1.27,5.21,1.29-5.21h1.25l1.3,5.18,1.35-5.18h1.11l-1.92,6.61h-1.15l-1.35-5.12-1.3,5.12h-1.15l-1.91-6.61h1.22Z"/>
    <path class="cls-2" d="M38.4,79.92l1.27,5.21,1.29-5.21h1.25l1.3,5.18,1.35-5.18h1.11l-1.92,6.61h-1.15l-1.35-5.12-1.3,5.12h-1.15l-1.91-6.61h1.22Z"/>
    <path class="cls-2" d="M47.23,85.19h1.29v1.35h-1.29v-1.35Z"/>
    <path class="cls-2" d="M55.19,80.1c.44.22.77.51,1,.86.22.33.37.72.44,1.17.06.3.1.79.1,1.46h-4.81c.02.67.18,1.21.47,1.62.29.41.75.61,1.37.61.58,0,1.04-.19,1.38-.58.19-.22.33-.48.41-.78h1.09c-.03.24-.12.51-.29.81s-.34.54-.54.73c-.33.33-.75.55-1.24.67-.27.07-.57.1-.9.1-.82,0-1.51-.3-2.08-.9-.57-.6-.85-1.44-.85-2.52s.29-1.92.86-2.59c.57-.66,1.32-.99,2.25-.99.47,0,.92.11,1.36.33ZM55.59,82.7c-.05-.48-.15-.87-.31-1.15-.3-.54-.81-.8-1.51-.8-.51,0-.93.18-1.27.55-.34.37-.52.84-.55,1.4h3.64Z"/>
    <path class="cls-2" d="M62.41,80.12c.2.12.42.34.67.65v-3.34h1.07v9.1h-1v-.92c-.26.41-.56.7-.92.88-.35.18-.76.27-1.21.27-.73,0-1.37-.31-1.91-.93s-.81-1.44-.81-2.47c0-.96.24-1.8.73-2.5s1.19-1.06,2.1-1.06c.5,0,.93.11,1.27.32ZM59.93,85.08c.3.48.78.72,1.44.72.51,0,.93-.22,1.26-.66.33-.44.5-1.08.5-1.91s-.17-1.45-.51-1.86c-.34-.4-.76-.6-1.26-.6-.56,0-1.01.21-1.36.64-.35.43-.52,1.06-.52,1.89,0,.71.15,1.3.45,1.78Z"/>
    <path class="cls-2" d="M66.44,79.92h1.1v.94c.26-.33.5-.56.72-.71.37-.25.78-.38,1.25-.38.53,0,.95.13,1.27.39.18.15.35.37.49.65.25-.35.54-.62.87-.79s.71-.26,1.12-.26c.89,0,1.49.32,1.82.96.17.35.26.81.26,1.4v4.4h-1.15v-4.59c0-.44-.11-.74-.33-.91s-.49-.25-.81-.25c-.44,0-.81.15-1.13.44s-.47.78-.47,1.46v3.85h-1.13v-4.32c0-.45-.05-.78-.16-.98-.17-.31-.48-.46-.94-.46-.42,0-.8.16-1.15.49s-.52.91-.52,1.77v3.51h-1.11v-6.61Z"/>
    <path class="cls-2" d="M77.61,77.46h1.13v1.26h-1.13v-1.26ZM77.61,79.95h1.13v6.58h-1.13v-6.58Z"/>
    <path class="cls-2" d="M80.76,82.44h3.1v1.14h-3.1v-1.14Z"/>
    <path class="cls-2" d="M85.89,79.92h1.1v.94c.26-.33.5-.56.72-.71.37-.25.78-.38,1.25-.38.53,0,.95.13,1.27.39.18.15.35.37.49.65.25-.35.54-.62.87-.79s.71-.26,1.12-.26c.89,0,1.49.32,1.82.96.17.35.26.81.26,1.4v4.4h-1.15v-4.59c0-.44-.11-.74-.33-.91s-.49-.25-.81-.25c-.44,0-.81.15-1.13.44-.31.29-.47.78-.47,1.46v3.85h-1.13v-4.32c0-.45-.05-.78-.16-.98-.17-.31-.48-.46-.94-.46-.42,0-.8.16-1.15.49-.34.33-.52.91-.52,1.77v3.51h-1.11v-6.61Z"/>
    <path class="cls-2" d="M101.15,80.1c.44.22.77.51,1,.86.22.33.37.72.44,1.17.06.3.1.79.1,1.46h-4.81c.02.67.18,1.21.47,1.62.29.41.75.61,1.37.61.58,0,1.04-.19,1.38-.58.19-.22.33-.48.41-.78h1.09c-.03.24-.12.51-.29.81s-.34.54-.54.73c-.33.33-.75.55-1.24.67-.27.07-.57.1-.9.1-.82,0-1.51-.3-2.08-.9-.57-.6-.85-1.44-.85-2.52s.29-1.92.86-2.59c.57-.66,1.32-.99,2.25-.99.47,0,.92.11,1.36.33ZM101.55,82.7c-.05-.48-.15-.87-.31-1.15-.3-.54-.81-.8-1.51-.8-.51,0-.93.18-1.27.55-.34.37-.52.84-.55,1.4h3.64Z"/>
    <path class="cls-2" d="M104.95,78.07h1.12v1.85h1.06v.91h-1.06v4.32c0,.23.08.38.23.46.09.05.23.07.43.07.05,0,.11,0,.17,0s.13,0,.22-.02v.88c-.13.04-.26.06-.4.08s-.29.02-.45.02c-.52,0-.87-.13-1.06-.4s-.28-.61-.28-1.03v-4.38h-.9v-.91h.9v-1.85Z"/>
    <path class="cls-2" d="M112.96,80.1c.44.22.77.51,1,.86.22.33.37.72.44,1.17.06.3.1.79.1,1.46h-4.81c.02.67.18,1.21.47,1.62.29.41.75.61,1.37.61.58,0,1.04-.19,1.38-.58.19-.22.33-.48.41-.78h1.09c-.03.24-.12.51-.29.81-.16.3-.34.54-.54.73-.33.33-.75.55-1.24.67-.27.07-.57.1-.9.1-.82,0-1.51-.3-2.08-.9-.57-.6-.85-1.44-.85-2.52s.29-1.92.86-2.59c.57-.66,1.32-.99,2.25-.99.47,0,.92.11,1.36.33ZM113.36,82.7c-.05-.48-.15-.87-.31-1.15-.3-.54-.81-.8-1.51-.8-.51,0-.93.18-1.27.55-.34.37-.52.84-.55,1.4h3.64Z"/>
    <path class="cls-2" d="M116.57,79.92h1.06v1.14c.09-.22.3-.49.64-.81.34-.32.73-.48,1.17-.48.02,0,.06,0,.1,0s.13.01.25.02v1.17c-.07-.01-.13-.02-.18-.02s-.12,0-.18,0c-.56,0-.99.18-1.29.54s-.45.78-.45,1.24v3.8h-1.11v-6.61Z"/>
    <path class="cls-2" d="M122.05,84.46c.03.37.13.65.28.85.29.36.78.54,1.49.54.42,0,.79-.09,1.11-.27.32-.18.48-.46.48-.83,0-.28-.13-.5-.38-.65-.16-.09-.49-.2-.97-.31l-.9-.22c-.57-.14-1-.3-1.27-.47-.48-.3-.73-.72-.73-1.25,0-.63.23-1.13.69-1.52s1.07-.58,1.84-.58c1.01,0,1.74.29,2.18.88.28.37.41.77.41,1.2h-1.05c-.02-.25-.11-.48-.27-.68-.26-.29-.71-.44-1.36-.44-.43,0-.76.08-.98.24-.22.16-.33.37-.33.63,0,.29.15.52.44.69.17.1.41.19.74.27l.75.18c.81.19,1.36.38,1.64.56.43.28.65.73.65,1.34s-.23,1.1-.68,1.53c-.45.43-1.14.64-2.07.64-1,0-1.7-.22-2.12-.67-.41-.45-.64-1-.67-1.66h1.07Z"/>
    <path class="cls-2" d="M128.61,85.19h1.29v1.35h-1.29v-1.35Z"/>
    <path class="cls-2" d="M136.86,80.27c.47.36.75.99.84,1.87h-1.08c-.07-.41-.22-.75-.45-1.02-.23-.27-.61-.4-1.13-.4-.71,0-1.21.35-1.52,1.04-.2.45-.3,1-.3,1.66s.14,1.22.42,1.67c.28.45.72.68,1.32.68.46,0,.83-.14,1.1-.42s.46-.67.56-1.15h1.08c-.12.88-.43,1.52-.93,1.92-.49.41-1.13.61-1.9.61-.86,0-1.55-.32-2.07-.95-.51-.63-.77-1.42-.77-2.37,0-1.16.28-2.06.85-2.71s1.28-.97,2.16-.97c.75,0,1.35.18,1.82.54Z"/>
    <path class="cls-2" d="M144.24,80.58c.58.57.88,1.4.88,2.51s-.26,1.95-.77,2.64c-.51.69-1.31,1.04-2.4,1.04-.9,0-1.62-.31-2.15-.92-.53-.62-.8-1.44-.8-2.48,0-1.11.28-1.99.84-2.65.56-.66,1.31-.99,2.26-.99.85,0,1.56.28,2.15.85ZM143.55,84.98c.27-.56.41-1.18.41-1.86,0-.62-.1-1.12-.29-1.5-.31-.61-.84-.91-1.6-.91-.67,0-1.16.26-1.47.78-.31.52-.46,1.14-.46,1.88s.15,1.29.46,1.76c.31.47.79.7,1.45.7.73,0,1.23-.28,1.5-.84Z"/>
    <path class="cls-2" d="M147.11,79.92h1.1v.94c.26-.33.5-.56.72-.71.37-.25.78-.38,1.25-.38.53,0,.95.13,1.27.39.18.15.35.37.49.65.25-.35.54-.62.87-.79s.71-.26,1.12-.26c.89,0,1.49.32,1.82.96.17.35.26.81.26,1.4v4.4h-1.15v-4.59c0-.44-.11-.74-.33-.91s-.49-.25-.81-.25c-.44,0-.81.15-1.13.44s-.47.78-.47,1.46v3.85h-1.13v-4.32c0-.45-.05-.78-.16-.98-.17-.31-.48-.46-.94-.46-.42,0-.8.16-1.15.49-.34.33-.52.91-.52,1.77v3.51h-1.11v-6.61Z"/>
  </g>
</svg>