<?xml version="1.0" encoding="UTF-8"?>
<svg id="Layer_1" data-name="Layer 1" xmlns="http://www.w3.org/2000/svg" viewBox="0 0 175 120">
  <defs>
    <style>
      .cls-1 {
        fill: #f69331;
      }

      .cls-1, .cls-2, .cls-3, .cls-4, .cls-5, .cls-6 {
        stroke-width: 0px;
      }

      .cls-2 {
        fill: #893994;
      }

      .cls-7 {
        fill: none;
        stroke: #484442;
        stroke-width: .5px;
      }

      .cls-3 {
        fill: #000;
      }

      .cls-4 {
        fill: #0576bb;
      }

      .cls-5 {
        fill: #83c456;
      }

      .cls-6 {
        fill: #16abe2;
      }
    </style>
  </defs>
  <path class="cls-4" d="M137.25,67.94c.77,1.84-1.1,3.7-2.96,2.99l-27.43-10.39c3.29-.22,6.4-1.01,8.22-2.56,0,0,11.65,3.46,21.05,7.95.47.62.84,1.31,1.13,2.01"/>
  <path class="cls-2" d="M109.17,35.38c5.26,2.18,7.73,5.32,8.67,8.57-8.25,2.16-16.74,6.69-18.77,16.16-1.75-.32-3.24-.79-4.22-1.35v-17.94c1.84,0,3.24-.18,4.08-.33.6-.11,1.2-.15,1.81-.22,2.73-.3,6.01-2.62,8.44-4.9"/>
  <path class="cls-5" d="M117.84,43.96c1.95,6.78-2.77,14.02-2.77,14.02-1.82,1.56-4.92,2.34-8.22,2.56h0c-2.66.19-5.45,0-7.78-.43,2.03-9.47,10.53-14,18.77-16.16"/>
  <path class="cls-6" d="M127.03,42.65s-6.06-.14-4.64,6.32c1.42,6.47,14.82,11.03,18.82,12.65,2.4.97,3.4,4.35,3.81,6.9.18,1.1-1.04,1.9-1.96,1.27-1.95-1.33-4.36-2.64-6.94-3.87-9.4-4.48-21.05-7.95-21.05-7.95,0,0,4.73-7.25,2.77-14.02,8.86-2.32,17.43-1.89,17.43-1.89l-8.25.59Z"/>
  <path class="cls-1" d="M134.24,33.53c3.74,1.91,2.83,4.85,2.83,4.85l-1.8,3.68s-8.57-.42-17.43,1.89c-.93-3.25-3.41-6.39-8.67-8.57,1.17-1.1,2.15-2.18,2.77-3.02,2.06-2.79,7.6-3.68,7.6-3.68,0-1.03,1.55-1.76,3.35-2.06.81-.13,1.36.27,1.73.76.54.73,1.37,1.18,2.29,1.17.63,0,1.45.02,2.43.13,2.71.29,4.9,4.86,4.9,4.86"/>
  <path class="cls-3" d="M143.76,71.44c-.52,0-1.04-.16-1.5-.47-1.74-1.19-4.01-2.45-6.75-3.76-7.9-3.77-17.54-6.85-20.16-7.66-2.41,1.67-5.84,2.24-8.41,2.41l-.19-2.82c3.36-.23,5.98-1.02,7.39-2.23l.58-.5.74.22c.12.04,11.86,3.55,21.26,8.03,2.73,1.3,5.02,2.57,6.84,3.78-.53-2.97-1.58-4.97-2.89-5.5-.39-.16-.86-.34-1.41-.55-5.46-2.12-16.82-6.53-18.26-13.11-.54-2.45-.21-4.43.99-5.88,1.68-2.04,4.46-2.16,4.98-2.16l7.38-.52,1.38-2.81c.07-.37.19-1.92-2.14-3.1l-.42-.22-.21-.43c-.77-1.6-2.46-3.92-3.78-4.06-.79-.09-1.56-.13-2.27-.12h-.04c-1.34,0-2.57-.63-3.4-1.75-.17-.23-.26-.22-.36-.2-1.27.21-1.97.59-2.17.79v1.08l-1.19.19c-1.38.22-5.29,1.22-6.69,3.12-.7.96-1.75,2.1-2.94,3.22-1.92,1.8-5.68,4.87-9.25,5.27l-.45.05c-.44.04-.86.09-1.26.16-.9.16-2.38.37-4.34.35-2.19-.01-4.44-.27-6.69-.78-.17-.04-.33-.08-.5-.12l-.16-.04c-2.78-.69-5.52-1.75-8.17-3.14-1.66-.87-3.31-1.41-4.88-1.59l.33-2.81c1.92.22,3.9.86,5.87,1.9,2.45,1.29,4.98,2.26,7.53,2.9l.15.04c.16.04.31.08.47.11,2.04.46,4.09.7,6.07.71,1.74,0,3.04-.17,3.82-.31.51-.09,1.01-.14,1.49-.19l.42-.04c1.98-.22,4.83-1.91,7.62-4.52,1.06-.99,2-2.02,2.59-2.83,1.89-2.56,5.86-3.68,7.66-4.07.62-1.08,2.1-1.88,4.2-2.22,1.21-.2,2.31.26,3.09,1.3.29.39.71.59,1.14.61.83,0,1.69.04,2.59.14,2.94.32,5.11,3.92,5.81,5.23,3.39,1.95,3.54,4.95,3.13,6.3l-.08.21-2.16,4.41-9.13.65h-.07s-1.88-.01-2.83,1.14c-.61.75-.74,1.91-.4,3.46,1.11,5.1,11.91,9.28,16.52,11.07.56.22,1.05.41,1.45.57,2.99,1.21,4.2,5.01,4.68,7.99.18,1.06-.3,2.13-1.21,2.71-.45.28-.94.43-1.44.43"/>
  <path class="cls-3" d="M37.96,70.54c-2.58,0-4.23-2.24-4.86-4.15-.47-1.44-.33-2.46.42-3.01.49-.36,1.13-.39,1.69-.11h0c1.36,0,6.67-2.25,8.14-4.49,1.97-3,5.22-2.95,6.71-2.5,2.1.5,3.73.34,4.99-.49,2.56-1.69,3.31-6.02,3.85-9.18.08-.45.15-.88.22-1.27.83-4.44,6.43-12.66,15.63-11.58l-.33,2.81c-7.52-.88-11.94,6.19-12.52,9.28-.07.38-.14.8-.22,1.23-.63,3.67-1.49,8.71-5.08,11.07-1.93,1.27-4.37,1.56-7.26.87l-.1-.03c-.22-.06-2.26-.6-3.54,1.34-1.76,2.69-6.85,5.14-9.57,5.65-.05,0-.1.02-.15.03.18.38.43.78.74,1.1.39.39.79.59,1.22.59,1.3,0,3.5-.93,5.44-1.75,2.95-1.25,4.83-1.99,6.29-1.58.2.06,20.58,5.1,30.53-9.72l.44-.66.79.04c.15,0,3.71.17,7.28.86,3.07.59,5.18,1.37,6.44,2.39.11.09.24.18.37.25.82.47,2.16.89,3.77,1.19,2.3.43,5.01.58,7.42.41l.2,2.82c-2.68.19-5.57.03-8.13-.45-1.36-.25-3.27-.72-4.66-1.51-.26-.15-.51-.32-.74-.5-.5-.4-1.83-1.17-5.21-1.82-2.41-.47-4.88-.68-6.09-.77-11.2,15.63-32.97,10.26-33.19,10.19-.63-.14-2.9.83-4.41,1.46-2.3.97-4.68,1.98-6.55,1.98M33.79,65.71s0,0,0,0c0,0,0,0,0,0M35.43,63.41h0s0,0,0,0Z"/>
  <path class="cls-3" d="M37.97,42.62c-3.47,0-6.6-.58-8.88-1.64-.71-.33-1.02-1.17-.69-1.88.33-.71,1.17-1.02,1.88-.69,5.29,2.46,16,1.79,23.5-3.13,8.28-5.43,19.93-1.9,21.25-1.47.58.18.99.72.99,1.35,0,.78-.63,1.41-1.41,1.41-.15,0-.31-.03-.46-.08-.59-.19-11.56-3.62-18.82,1.15-5.28,3.46-11.77,4.97-17.36,4.97"/>
  <path class="cls-3" d="M134.42,72.68c-.44,0-.89-.08-1.31-.24l-27.43-10.39.5-1.32v-1.42s.26,0,.26,0l27.68,10.48c.51.2.87-.12.97-.23.12-.12.37-.45.18-.9-.27-.66-.59-1.23-.94-1.7-.14-.19-.29-.36-.43-.51l2-2c.24.24.47.51.69.8.5.65.94,1.44,1.3,2.32.56,1.36.27,2.88-.76,3.95-.72.75-1.7,1.15-2.69,1.15"/>
  <polygon class="cls-3" points="96.27 88.48 87.05 77.75 87.05 56.28 89.88 56.28 89.88 76.7 93.44 80.84 93.44 14.97 89.88 19.1 89.88 40.08 87.05 40.08 87.05 18.06 96.27 7.33 96.27 88.48"/>
  <path class="cls-3" d="M116.25,58.75l-2.37-1.54,1.19.77-1.19-.77c.04-.07,4.35-6.8,2.6-12.86-.95-3.32-3.59-5.89-7.85-7.66l1.09-2.61c5.09,2.11,8.28,5.31,9.49,9.49,2.11,7.31-2.74,14.87-2.95,15.19"/>
  <path class="cls-3" d="M100.45,60.41l-2.77-.59c1.79-8.35,8.64-14.31,19.8-17.23,8.97-2.35,17.5-1.95,17.86-1.94l-.14,2.83c-.08,0-8.48-.38-17.01,1.85-10.2,2.67-16.17,7.75-17.75,15.09"/>
  <rect class="cls-6" x="116.82" y="17.49" width="5.85" height="5.85"/>
  <path class="cls-3" d="M122.67,24.56h-5.85c-.67,0-1.21-.54-1.21-1.21v-5.85c0-.67.54-1.21,1.21-1.21h5.85c.67,0,1.21.54,1.21,1.21v5.85c0,.67-.54,1.21-1.21,1.21M118.03,22.14h3.43v-3.43h-3.43v3.43Z"/>
  <path class="cls-1" d="M109.55,17.49h-3.77c-.71,0-1.29-.58-1.29-1.29v-3.78c0-.71.58-1.29,1.29-1.29h3.77c.71,0,1.29.58,1.29,1.29v3.78c0,.71-.58,1.29-1.29,1.29"/>
  <path class="cls-3" d="M109.55,18.91h-3.77c-1.49,0-2.7-1.21-2.7-2.7v-3.78c0-1.49,1.21-2.7,2.7-2.7h3.77c1.49,0,2.7,1.21,2.7,2.7v3.78c0,1.49-1.21,2.7-2.7,2.7M105.9,16.08h3.52v-3.52h-3.52v3.52Z"/>
  <path class="cls-2" d="M109.55,31.23h-6.7c-.71,0-1.29-.58-1.29-1.29v-6.7c0-.71.58-1.29,1.29-1.29h6.7c.71,0,1.29.58,1.29,1.29v6.7c0,.71-.58,1.29-1.29,1.29"/>
  <path class="cls-3" d="M109.55,32.65h-6.7c-1.49,0-2.7-1.21-2.7-2.7v-6.7c0-1.49,1.21-2.7,2.7-2.7h6.7c1.49,0,2.7,1.21,2.7,2.7v6.7c0,1.49-1.21,2.7-2.7,2.7M102.98,29.82h6.44v-6.44h-6.44v6.44Z"/>
  <g>
    <path class="cls-7" d="M144.46,101.53l2.08-.06.09.09-.11.91h-4.73l.05-2.34-.05-5.44h4.76l.08.09-.09.91-1.97-.06-1.63.02-.02,2.36,1.55.02,1.36-.05.08.11-.09.92-1.44-.05-1.45.02-.02,1.06.02,1.48,1.53.02ZM135.2,95.62l-.02,3.05,1.47.05c.93-.26,1.39-.83,1.39-1.7,0-.46-.14-.8-.41-1.03-.27-.23-.68-.35-1.23-.37l-1.2.02ZM137.62,99.32c.63.97,1.34,1.92,2.11,2.86l-.02.16c-.44.14-.8.21-1.08.23l-.2-.13c-.79-1.2-1.39-2.14-1.8-2.83l-1.47.02v.39l.03,2.44h-1.16l.05-2.34-.05-5.44,2.66-.02c.82,0,1.46.19,1.9.58.44.39.66.94.66,1.67,0,.53-.14,1-.43,1.42-.29.42-.69.75-1.21.99ZM131.49,94.68l-.05,3.95v1.12c.01.89-.26,1.57-.8,2.06-.55.49-1.33.73-2.35.73s-1.78-.24-2.31-.73c-.53-.48-.79-1.17-.77-2.07l.02-1.19-.02-3.89h1.17l-.06,4.89c-.01.66.15,1.15.49,1.48.34.33.85.5,1.52.5s1.17-.17,1.52-.5c.34-.33.51-.83.5-1.48l-.05-4.89h1.19ZM123.49,94.68l.06.09-.08.98-1.45-.11h-.78l-.05,4.37.05,2.44h-1.17l.05-2.34-.03-4.47h-.78l-1.48.11-.09-.11.09-.97h5.67ZM116.04,94.65l-.05,5.48.02,2.33h-1.25l-4.09-5.94h-.08l-.02,3.34.03,2.59h-1.06l.05-2.3-.03-5.48h1.23l4.09,5.94h.11l-.03-5.89,1.08-.08ZM105.42,101.53l2.08-.06.09.09-.11.91h-4.73l.05-2.34-.05-5.44h4.77l.08.09-.09.91-1.97-.06-1.62.02-.02,2.36,1.55.02,1.36-.05.08.11-.09.92-1.44-.05-1.45.02-.02,1.06.02,1.48,1.53.02ZM101.23,92.45l-3.67,10.01h-1.45l-3.34-10.01h1.28l.23,1.01,2.55,7.73h.09l2.81-7.67.25-1.08h1.25ZM89.39,94.68l.06.09-.08.98-1.45-.11h-.78l-.05,4.37.05,2.44h-1.17l.05-2.34-.03-4.47h-.78l-1.49.11-.09-.11.09-.97h5.67ZM82.58,94.68l-2.61,3.72,2.8,4.06h-1.41l-.36-.67-1.81-2.48-1.89,2.55-.34.61h-1.23l2.78-3.91-2.7-3.87h1.45l.33.66,1.7,2.33,1.7-2.34.33-.64h1.27ZM72.49,101.53l2.08-.06.09.09-.11.91h-4.73l.05-2.34-.05-5.44h4.77l.08.09-.09.91-1.97-.06-1.62.02-.02,2.36,1.55.02,1.36-.05.08.11-.09.92-1.44-.05-1.45.02-.02,1.06.02,1.48,1.53.02ZM67,94.65l-.05,5.48.02,2.33h-1.25l-4.09-5.94h-.08l-.02,3.34.03,2.59h-1.06l.05-2.3-.03-5.48h1.23l4.09,5.94h.11l-.03-5.89,1.08-.08ZM57.63,94.68l-.05,5.34.03,2.44h-1.16l.05-2.34-.05-5.44h1.17ZM50.54,101.59c.83,0,1.48-.25,1.93-.76.45-.51.68-1.27.68-2.29s-.21-1.74-.64-2.22c-.43-.48-1.07-.72-1.94-.72-.51,0-1.11.02-1.8.06l-.03,4.36.02,1.47c.3.02.62.04.95.06.33.02.61.03.83.03ZM50.66,94.62c1.19,0,2.1.32,2.73.95.63.63.95,1.55.95,2.73,0,1.37-.34,2.41-1.03,3.14-.69.73-1.67,1.09-2.95,1.09-.36,0-.8,0-1.31-.02-.51-.02-.98-.03-1.43-.05l.05-2.34-.05-5.44,3.05-.06ZM44.8,94.65l-.05,5.48.02,2.33h-1.25l-4.09-5.94h-.08l-.02,3.34.03,2.59h-1.06l.05-2.3-.03-5.48h1.23l4.09,5.94h.11l-.03-5.89,1.08-.08ZM35.44,92.45l-.08,6.89.06,3.12h-1.27l.08-3.02-.08-7h1.28Z"/>
    <path class="cls-3" d="M144.46,101.53l2.08-.06.09.09-.11.91h-4.73l.05-2.34-.05-5.44h4.76l.08.09-.09.91-1.97-.06-1.63.02-.02,2.36,1.55.02,1.36-.05.08.11-.09.92-1.44-.05-1.45.02-.02,1.06.02,1.48,1.53.02ZM135.2,95.62l-.02,3.05,1.47.05c.93-.26,1.39-.83,1.39-1.7,0-.46-.14-.8-.41-1.03-.27-.23-.68-.35-1.23-.37l-1.2.02ZM137.62,99.32c.63.97,1.34,1.92,2.11,2.86l-.02.16c-.44.14-.8.21-1.08.23l-.2-.12c-.79-1.2-1.39-2.14-1.8-2.83l-1.47.02v.39l.03,2.44h-1.16l.05-2.34-.05-5.44,2.66-.02c.82,0,1.46.19,1.9.58.44.39.66.94.66,1.67,0,.53-.14,1-.43,1.42-.29.42-.69.75-1.21.99ZM131.49,94.68l-.05,3.95v1.12c.01.89-.26,1.57-.8,2.06-.55.49-1.33.73-2.35.73s-1.78-.24-2.31-.73c-.53-.48-.79-1.17-.77-2.07l.02-1.19-.02-3.89h1.17l-.06,4.89c-.01.66.15,1.15.49,1.48.34.33.85.5,1.52.5s1.17-.17,1.52-.5c.34-.33.51-.83.5-1.48l-.05-4.89h1.19ZM123.49,94.68l.06.09-.08.98-1.45-.11h-.78l-.05,4.37.05,2.44h-1.17l.05-2.34-.03-4.47h-.78l-1.48.11-.09-.11.09-.97h5.67ZM116.04,94.65l-.05,5.48.02,2.33h-1.25l-4.09-5.94h-.08l-.02,3.34.03,2.59h-1.06l.05-2.3-.03-5.48h1.23l4.09,5.94h.11l-.03-5.89,1.08-.08ZM105.42,101.53l2.08-.06.09.09-.11.91h-4.73l.05-2.34-.05-5.44h4.77l.08.09-.09.91-1.97-.06-1.62.02-.02,2.36,1.55.02,1.36-.05.08.11-.09.92-1.44-.05-1.45.02-.02,1.06.02,1.48,1.53.02ZM101.23,92.45l-3.67,10.01h-1.45l-3.34-10.01h1.28l.23,1.01,2.55,7.73h.09l2.81-7.67.25-1.08h1.25ZM89.39,94.68l.06.09-.08.98-1.45-.11h-.78l-.05,4.37.05,2.44h-1.17l.05-2.34-.03-4.47h-.78l-1.49.11-.09-.11.09-.97h5.67ZM82.58,94.68l-2.61,3.72,2.8,4.06h-1.41l-.36-.67-1.81-2.48-1.89,2.55-.34.61h-1.23l2.78-3.91-2.7-3.87h1.45l.33.66,1.7,2.33,1.7-2.34.33-.64h1.27ZM72.49,101.53l2.08-.06.09.09-.11.91h-4.73l.05-2.34-.05-5.44h4.77l.08.09-.09.91-1.97-.06-1.62.02-.02,2.36,1.55.02,1.36-.05.08.11-.09.92-1.44-.05-1.45.02-.02,1.06.02,1.48,1.53.02ZM67,94.65l-.05,5.48.02,2.33h-1.25l-4.09-5.94h-.08l-.02,3.34.03,2.59h-1.06l.05-2.3-.03-5.48h1.23l4.09,5.94h.11l-.03-5.89,1.08-.08ZM57.63,94.68l-.05,5.34.03,2.44h-1.16l.05-2.34-.05-5.44h1.17ZM50.54,101.59c.83,0,1.48-.25,1.93-.76.45-.51.68-1.27.68-2.29s-.21-1.74-.64-2.22c-.43-.48-1.07-.72-1.94-.72-.51,0-1.11.02-1.8.06l-.03,4.36.02,1.47c.3.02.62.04.95.06.33.02.61.03.83.03ZM50.66,94.62c1.19,0,2.1.32,2.73.95.63.63.95,1.55.95,2.73,0,1.37-.34,2.41-1.03,3.14-.69.73-1.67,1.09-2.95,1.09-.36,0-.8,0-1.31-.02-.5-.02-.98-.03-1.43-.05l.05-2.34-.05-5.44,3.05-.06ZM44.8,94.65l-.05,5.48.02,2.33h-1.25l-4.09-5.94h-.08l-.02,3.34.03,2.59h-1.06l.05-2.3-.03-5.48h1.23l4.09,5.94h.11l-.03-5.89,1.08-.08ZM35.44,92.45l-.08,6.89.06,3.12h-1.27l.08-3.02-.08-7h1.28Z"/>
  </g>
  <path class="cls-3" d="M140.6,109.19c.21-.04.38-.08.52-.12.14-.04.25-.08.33-.12.08-.04.14-.08.18-.13.03-.04.05-.08.05-.12,0-.04-.01-.07-.04-.11-.03-.03-.06-.06-.1-.09-.04-.02-.08-.04-.13-.05-.05-.01-.09-.02-.13-.02-.08,0-.16.02-.23.05-.07.03-.13.08-.19.15-.06.07-.11.14-.15.24-.04.09-.08.19-.1.3ZM139.44,109.54c0-.27.05-.52.14-.75.09-.23.22-.44.39-.61.17-.17.36-.31.59-.41.23-.1.48-.15.76-.15.2,0,.37.04.53.11.16.07.29.17.41.28.11.11.2.24.26.39.06.14.09.28.09.43,0,.12-.04.25-.11.38-.08.13-.19.24-.33.34-.14.1-.3.18-.5.25-.2.07-.41.1-.64.1-.12,0-.25-.01-.38-.04,0,.09.03.16.07.23.04.06.1.11.16.16.07.04.14.07.22.09.08.02.17.03.25.03.1,0,.19,0,.29-.02.09-.02.18-.04.26-.07.08-.03.16-.06.24-.09.08-.03.15-.07.22-.11.02,0,.04,0,.05,0,.01,0,.02,0,.04,0v.19c0,.06,0,.13,0,.21,0,.08,0,.18,0,.28,0,.01,0,.02.01.03,0,.01,0,.02,0,.02,0,.02-.02.05-.07.08-.04.03-.1.06-.18.09-.07.03-.15.06-.25.09-.09.03-.19.05-.29.07-.09.02-.19.04-.28.06-.09.01-.17.02-.23.02-.22,0-.43-.04-.64-.12-.21-.08-.39-.18-.55-.33-.16-.14-.29-.31-.38-.52-.1-.21-.14-.43-.14-.69ZM137.59,111.11v-.02c.02-.21.03-.41.05-.6.01-.2.03-.4.05-.61.02-.21.04-.43.06-.66.02-.23.04-.49.07-.77.02-.28.04-.55.06-.83.02-.27.03-.55.05-.84,0-.07,0-.11.02-.14,0-.03.03-.04.07-.05.19-.03.38-.07.57-.11.19-.04.38-.08.57-.14,0,0,.01,0,.03,0,.02,0,.03.01.03.03l-.39,4.35v.05s0,.03-.02.04c-.01.01-.05.02-.1.04l-.8.29s-.05.02-.09.03c-.04.01-.07.02-.11.02-.03,0-.05,0-.07-.02-.02-.02-.03-.04-.03-.07ZM134.84,109.98c.05.12.12.22.21.3.09.08.2.11.33.11.11,0,.21-.04.29-.11.09-.07.16-.16.21-.27.06-.11.1-.24.13-.37.03-.14.04-.28.04-.41,0-.11-.01-.21-.03-.31-.02-.1-.05-.18-.09-.25-.04-.07-.09-.13-.14-.16-.06-.04-.13-.06-.21-.06-.07,0-.13.01-.19.04-.07.03-.13.06-.19.1-.06.04-.11.09-.16.14-.05.05-.09.1-.12.14v.05c-.02.2-.03.35-.04.48-.01.12-.02.22-.02.3,0,.08-.01.14-.02.18,0,.04,0,.08,0,.12ZM133.41,112.44l.37-4.47c0-.07.02-.11.02-.14.01-.02.03-.04.07-.05.18-.04.37-.08.57-.11.2-.04.39-.08.57-.14.02,0,.02,0,.03,0,0,0,0,.01,0,.02,0,0,0,0,0,.02,0,.01,0,.03,0,.05,0,.03-.01.07-.02.13,0,.06-.02.14-.04.24.17-.12.35-.21.54-.28.19-.07.38-.11.59-.11.19,0,.36.04.5.12.14.08.26.18.35.32.09.14.16.29.2.46.04.17.06.35.06.54,0,.16-.02.33-.05.5-.03.17-.08.33-.14.49-.06.16-.14.3-.23.44-.09.14-.2.26-.32.36-.12.1-.26.18-.41.24-.15.06-.31.09-.48.09-.15,0-.3-.03-.44-.09-.14-.06-.27-.14-.39-.24,0,.01,0,.05,0,.11,0,.06-.01.14-.02.23,0,.09-.02.19-.03.29-.01.1-.02.2-.03.29,0,.09-.01.17-.02.23,0,.07,0,.1,0,.11v.04s0,.02,0,.03c0,.02,0,.03-.02.04-.02.01-.05.02-.1.04l-.81.2s-.05.01-.09.03c-.04.02-.07.02-.11.02-.03,0-.05,0-.07-.02-.02-.01-.03-.04-.03-.08ZM130.66,109.48c0,.11.01.22.04.32.02.11.06.21.12.29.05.09.12.16.21.21.09.05.2.08.33.08.09,0,.18-.02.25-.06.07-.04.13-.08.18-.14.05-.06.09-.13.13-.2.03-.08.06-.15.08-.23.02-.08.03-.16.04-.24,0-.08.01-.15.01-.21,0-.1-.02-.21-.05-.31-.03-.1-.08-.19-.14-.27-.06-.08-.14-.14-.23-.19-.09-.05-.2-.07-.32-.07s-.22.04-.3.11c-.08.07-.15.16-.2.27-.05.1-.08.21-.11.33-.02.12-.04.22-.04.31ZM129.48,109.51c0-.22.04-.42.11-.62.07-.2.17-.37.3-.53.13-.16.28-.29.46-.39.18-.1.38-.17.59-.21.03,0,.05-.01.05-.02,0-.02,0-.04,0-.06,0-.02,0-.04,0-.05,0-.02,0-.03.01-.04.01-.01.02-.02.03-.02.39,0,.72.04.99.13.27.09.5.21.67.36.17.15.29.33.37.54.08.21.12.43.12.67,0,.3-.05.58-.15.81-.1.24-.24.44-.42.61-.18.16-.38.29-.62.37-.23.09-.48.13-.75.13-.29,0-.54-.05-.76-.14-.22-.09-.4-.22-.54-.37-.15-.16-.26-.34-.33-.54-.07-.2-.11-.41-.11-.63ZM127.17,109.19c.21-.04.38-.08.52-.12.14-.04.25-.08.33-.12.08-.04.14-.08.18-.13.03-.04.05-.08.05-.12,0-.04-.01-.07-.04-.11-.03-.03-.06-.06-.1-.09-.04-.02-.08-.04-.13-.05-.05-.01-.09-.02-.13-.02-.08,0-.16.02-.23.05-.07.03-.13.08-.19.15-.06.07-.11.14-.15.24-.04.09-.08.19-.1.3ZM126,109.54c0-.27.05-.52.14-.75.09-.23.22-.44.39-.61.17-.17.36-.31.59-.41.23-.1.48-.15.76-.15.2,0,.37.04.53.11.16.07.29.17.41.28.11.11.2.24.26.39.06.14.09.28.09.43,0,.12-.04.25-.11.38-.08.13-.19.24-.33.34-.14.1-.3.18-.5.25-.2.07-.41.1-.64.1-.12,0-.25-.01-.38-.04,0,.09.03.16.07.23.04.06.1.11.16.16.07.04.14.07.22.09.08.02.17.03.25.03.1,0,.19,0,.28-.02.09-.02.17-.04.26-.07.08-.03.16-.06.24-.09.08-.03.15-.07.22-.11.02,0,.04,0,.05,0,.01,0,.02,0,.04,0v.19c0,.06,0,.13,0,.21,0,.08,0,.18,0,.28,0,.01,0,.02.01.03,0,.01,0,.02,0,.02,0,.02-.02.05-.07.08-.05.03-.11.06-.18.09-.07.03-.16.06-.25.09-.09.03-.19.05-.28.07-.1.02-.19.04-.28.06-.09.01-.17.02-.23.02-.22,0-.43-.04-.64-.12-.21-.08-.39-.18-.55-.33-.16-.14-.29-.31-.38-.52-.1-.21-.14-.43-.14-.69ZM123.71,108.78s0,.04.01.06c0,.02.03.03.07.03.06,0,.13-.01.2-.04.08-.03.16-.07.24-.12.08-.05.15-.11.21-.19.07-.08.12-.16.16-.27.01-.04.02-.09.03-.16.01-.06.02-.14.02-.22,0-.14-.05-.25-.15-.31-.1-.07-.23-.1-.39-.1-.03,0-.06,0-.09,0-.03,0-.07,0-.09.02-.03.01-.05.02-.07.03-.02.01-.03.02-.04.04v.07s-.01.07-.02.13c0,.06-.01.13-.02.2,0,.08-.02.16-.02.25,0,.09-.01.17-.02.24,0,.08-.01.15-.02.21,0,.06,0,.1-.01.12ZM122.08,107.67c.03-.1.05-.2.08-.29.02-.08.05-.16.07-.25.02-.09.04-.16.06-.22.01-.04.02-.06.03-.08.01-.02.03-.04.05-.05.02-.01.05-.02.08-.03.03,0,.08-.02.13-.04.04-.01.09-.02.16-.04.07-.02.15-.03.24-.05.09-.02.19-.03.29-.04.11-.02.21-.03.32-.04.11-.01.22-.02.32-.03.1,0,.2-.01.3-.01.23,0,.45.02.66.07.21.04.39.11.55.21.16.1.28.24.37.42.09.17.14.39.14.65,0,.17-.02.33-.05.47-.03.14-.08.26-.13.37-.06.11-.13.21-.21.3-.08.09-.18.17-.28.25-.2.15-.43.26-.67.33-.24.08-.49.11-.73.11-.04,0-.08,0-.12,0-.04,0-.08,0-.12,0l-.1,1.11-.05.09s-.04.02-.1.05c-.07.02-.15.05-.25.08l-.19.07c-.06.02-.11.04-.16.06-.05.02-.09.04-.13.05-.04.01-.08.02-.12.03-.04,0-.08.01-.12.01-.03,0-.05,0-.07-.02-.02-.01-.02-.04-.02-.08l.03-.52c0-.1.02-.21.02-.31.01-.11.02-.23.03-.36l.06-.73c.01-.15.02-.3.03-.45.01-.15.02-.29.03-.43.01-.13.02-.26.03-.37,0-.12.02-.22.02-.31-.11.03-.2.04-.27.05-.07.01-.12.02-.15.02-.04,0-.06-.02-.06-.05ZM117.83,109.67c0,.1,0,.19.03.28.02.09.04.16.08.23.04.07.09.12.14.16.06.04.13.06.21.06.12,0,.23-.04.34-.11.1-.08.19-.18.26-.3,0-.04,0-.09,0-.15,0-.06.01-.13.02-.21,0-.08.01-.18.02-.3,0-.11.02-.25.04-.41v-.05s-.05-.09-.08-.14c-.04-.05-.08-.09-.13-.13-.05-.04-.1-.08-.15-.1-.05-.02-.11-.04-.17-.04-.08,0-.16.03-.23.1-.07.07-.14.16-.2.28-.05.11-.1.25-.13.39-.03.15-.05.3-.05.46ZM116.69,109.66c0-.16.01-.32.04-.48.03-.16.08-.32.13-.47.06-.15.13-.29.21-.43.09-.13.18-.24.3-.34.11-.1.24-.18.37-.23.14-.06.28-.09.45-.09.17,0,.34.04.49.12.15.08.28.17.41.29,0-.04,0-.07,0-.09,0-.02,0-.04.02-.05,0-.01.02-.02.04-.03.02,0,.05-.01.08-.02.02,0,.07-.01.13-.03.06-.01.13-.03.21-.05.08-.02.17-.04.27-.06.1-.02.2-.04.3-.06.02,0,.05-.01.07-.01.06,0,.09.04.09.12v.06l-.32,2.88c-.02.2-.07.39-.14.56-.07.18-.16.34-.27.48-.11.15-.23.28-.37.39-.14.12-.29.21-.44.29-.16.08-.32.14-.48.18-.16.04-.33.06-.49.06-.09,0-.17,0-.26-.01-.09,0-.18-.02-.26-.04-.09-.02-.17-.04-.25-.07-.08-.03-.14-.07-.21-.12h0s0-.05.02-.11c.02-.06.03-.13.05-.21.02-.08.04-.17.07-.25.02-.09.04-.16.06-.23,0-.03.02-.05.02-.05,0-.01.02-.02.03-.02h.02c.06.04.12.07.17.1.05.03.11.05.16.06.06.01.12.02.19.03.07,0,.15,0,.24,0,.14,0,.27-.03.37-.08.11-.05.21-.13.28-.22.08-.09.14-.18.19-.28.05-.11.08-.21.1-.31-.15.1-.29.18-.45.24-.15.06-.3.09-.45.09-.21,0-.39-.04-.54-.13-.15-.08-.28-.2-.38-.34-.1-.14-.17-.31-.22-.49-.05-.18-.07-.38-.07-.58ZM112.67,111.09l.28-3.12c0-.07.01-.11.02-.14.01-.02.03-.04.07-.05.18-.04.37-.08.57-.11.2-.04.39-.08.57-.14.02,0,.02,0,.03,0,0,0,0,.01,0,.02v.02s0,.03,0,.05c0,.03-.01.07-.02.13,0,.06-.02.14-.04.24.14-.08.27-.15.4-.2.12-.05.24-.09.35-.11.11-.03.21-.05.3-.05.1-.01.19-.02.27-.02.29,0,.5.09.63.26.13.17.2.43.2.78,0,.05,0,.1,0,.15,0,.05,0,.11-.01.16l-.14,1.31c-.01.09-.02.16-.02.23,0,.07,0,.16,0,.25v.04s0,.02,0,.03c0,.02,0,.03-.02.04-.02.01-.05.02-.11.04l-.74.21s-.05.02-.09.03c-.04.01-.07.02-.11.02-.03,0-.05,0-.08-.02-.02-.01-.03-.04-.03-.07v-.02c.01-.11.02-.2.03-.28,0-.08.02-.14.02-.21,0-.06.01-.13.02-.19,0-.06.01-.13.02-.21,0-.08.02-.18.03-.29.01-.11.02-.25.04-.42.01-.1.02-.21.03-.32,0-.11.01-.21.01-.3,0-.06,0-.12-.02-.17,0-.05-.02-.1-.05-.14-.02-.04-.06-.07-.1-.09-.04-.02-.09-.03-.16-.03-.05,0-.11.01-.19.03-.08.02-.17.05-.25.1-.08.05-.15.11-.22.18-.06.08-.1.17-.11.28-.01.15-.02.28-.04.39,0,.11-.02.2-.03.27,0,.07-.01.13-.02.18,0,.05,0,.09,0,.12,0,0,0,.03-.01.07,0,.04,0,.08-.01.13,0,.05-.01.11-.02.16,0,.06-.01.11-.02.16,0,.05,0,.1-.01.13,0,.04,0,.06,0,.07v.07s0,.03-.02.04c-.02.01-.05.03-.11.04l-.81.28s-.05.02-.09.03c-.04.01-.07.02-.11.02-.03,0-.05,0-.07-.02-.02-.01-.03-.04-.03-.07ZM111.15,107.3c0-.09,0-.15.01-.2,0-.05,0-.08,0-.11,0-.02,0-.04,0-.05,0,0,0,0,0-.01v-.02s0-.03,0-.06c0-.03,0-.07,0-.13,0-.06,0-.14.02-.23,0-.07,0-.11.02-.14,0-.03.03-.04.07-.05.17-.04.36-.07.54-.11.19-.04.37-.09.55-.14,0,0,.01,0,.03,0,0,.01.01.02.02.02h.01s-.07.84-.07.84c0,.07-.01.11-.02.14-.01.03-.03.04-.07.05-.17.03-.35.07-.53.11-.18.04-.36.07-.56.11,0,0-.02,0-.03,0-.02,0-.04-.01-.04-.03ZM110.8,111.16s0-.03,0-.08c0-.05.01-.12.02-.21,0-.08.02-.18.02-.28,0-.1.02-.2.02-.31.01-.1.02-.2.03-.3,0-.09.01-.17.02-.24.03-.28.06-.55.08-.83.03-.27.05-.55.07-.84,0-.07,0-.11.02-.14,0-.03.03-.04.07-.05.17-.04.36-.07.54-.11.19-.04.37-.08.55-.14,0,0,.01,0,.03,0,.02,0,.04,0,.04.02l-.28,2.97c0,.07-.01.11-.02.14,0,.03-.03.04-.07.05-.17.05-.35.11-.53.18-.18.07-.36.13-.56.2,0,0-.02,0-.03,0-.02,0-.04-.01-.04-.03ZM108.04,111.09l.27-3.02c0-.07.01-.11.02-.14.01-.03.03-.04.07-.05.18-.04.38-.07.57-.11.2-.04.39-.08.57-.14.02,0,.02,0,.03,0,0,0,0,.01,0,.02v.02s0,.03,0,.05c0,.03-.01.07-.02.13,0,.06-.02.14-.04.24.09-.07.2-.14.31-.2.11-.06.22-.11.34-.16.11-.04.22-.08.33-.1.11-.03.2-.04.28-.04l-.19.95s-.09,0-.14-.01c-.05,0-.11,0-.17,0-.09,0-.18,0-.27.02-.09.02-.18.05-.26.09-.08.05-.15.11-.2.19-.06.08-.09.18-.11.3-.02.15-.03.27-.04.37-.01.1-.02.18-.02.24,0,.06,0,.11-.01.15,0,.04,0,.07,0,.11,0,0,0,.03,0,.07,0,.04,0,.08-.02.13,0,.05-.01.1-.02.16,0,.06-.01.11-.02.16,0,.05-.01.09-.02.13,0,.04,0,.06,0,.07v.04s0,.02,0,.04c0,.02,0,.03-.02.04-.02.01-.05.02-.1.04l-.81.29s-.05.02-.09.03c-.04.01-.07.02-.11.02-.03,0-.05,0-.07-.02-.02-.01-.04-.04-.04-.07ZM105.7,109.19c.21-.04.39-.08.52-.12.14-.04.25-.08.33-.12.08-.04.14-.08.18-.13.03-.04.05-.08.05-.12,0-.04-.01-.07-.04-.11-.03-.03-.06-.06-.1-.09-.04-.02-.09-.04-.13-.05-.05-.01-.09-.02-.13-.02-.08,0-.16.02-.23.05-.07.03-.13.08-.19.15-.06.07-.11.14-.15.24-.04.09-.08.19-.11.3ZM104.54,109.54c0-.27.05-.52.14-.75.09-.23.22-.44.39-.61.16-.17.36-.31.59-.41.23-.1.48-.15.76-.15.19,0,.37.04.53.11.16.07.29.17.41.28.11.11.2.24.26.39.06.14.09.28.09.43,0,.12-.04.25-.12.38-.08.13-.18.24-.32.34-.14.1-.3.18-.5.25-.2.07-.41.1-.64.1-.12,0-.25-.01-.39-.04.01.09.04.16.08.23.04.06.1.11.16.16.07.04.14.07.22.09.08.02.17.03.25.03.1,0,.19,0,.29-.02.09-.02.17-.04.26-.07.08-.03.16-.06.24-.09.08-.03.15-.07.22-.11.02,0,.03,0,.05,0,.02,0,.03,0,.04,0v.05s0,.08,0,.14v.21c0,.08,0,.18,0,.28,0,.01,0,.02.01.03,0,.01,0,.02,0,.02,0,.02-.02.05-.07.08-.05.03-.11.06-.18.09-.07.03-.16.06-.25.09-.09.03-.19.05-.28.07-.1.02-.19.04-.28.06-.09.01-.17.02-.23.02-.22,0-.43-.04-.64-.12-.21-.08-.39-.18-.55-.33-.16-.14-.29-.31-.38-.52-.1-.21-.14-.43-.14-.69ZM99.46,107.94s.02-.05.05-.05c.16-.04.32-.07.5-.11.17-.04.33-.08.48-.14,0,0,.01,0,.03,0,.03,0,.04.01.04.03l.34,2.11.48-1.84s.02-.04.05-.04c.17-.04.34-.07.51-.11.17-.04.34-.09.5-.14.03,0,.04.01.04.03l.31,2.08.58-2.08s.02-.03.05-.03c0,0,0,0,.01,0h.01c.15.06.31.11.47.14.16.04.32.07.48.11.04,0,.06.03.06.07,0,.03-.01.07-.03.12l-.98,2.72s-.03.06-.04.09c-.01.02-.02.04-.04.05-.01.01-.03.02-.04.03-.02,0-.03.01-.05.02-.15.03-.31.07-.47.11-.16.04-.32.09-.49.14,0,0,0,0-.01,0h-.03s-.02,0-.02-.01c0,0,0-.01-.01-.02-.02-.09-.05-.19-.08-.32-.03-.13-.06-.27-.09-.43-.03-.16-.07-.33-.11-.51-.04-.18-.07-.37-.11-.56l-.39,1.37s-.02.07-.03.09c-.01.02-.02.04-.04.05-.01.01-.03.02-.05.03-.02,0-.03.01-.05.02-.15.03-.31.07-.47.11-.16.04-.32.09-.49.15h-.01s0,0,0,0h-.02s-.02,0-.02-.01c0,0-.01-.01-.01-.02-.03-.09-.06-.2-.1-.34-.04-.14-.08-.29-.12-.46-.04-.17-.08-.35-.13-.55-.05-.19-.09-.39-.14-.59-.05-.2-.09-.39-.14-.59-.05-.2-.09-.39-.13-.56-.02-.03-.02-.06-.02-.08,0-.02,0-.04,0-.05ZM96.68,109.48c0,.11.01.22.04.32.02.11.06.21.12.29.05.09.13.16.21.21.09.05.2.08.33.08.09,0,.18-.02.25-.06.07-.04.13-.08.18-.14.05-.06.09-.13.13-.2.03-.08.06-.15.08-.23.02-.08.03-.16.04-.24,0-.08.01-.15.01-.21,0-.1-.02-.21-.05-.31-.03-.1-.08-.19-.14-.27-.06-.08-.14-.14-.23-.19-.09-.05-.2-.07-.31-.07-.12,0-.23.04-.31.11-.08.07-.15.16-.2.27-.05.1-.09.21-.11.33-.02.12-.04.22-.04.31ZM95.5,109.51c0-.22.04-.42.11-.62.07-.2.17-.37.3-.53.13-.16.28-.29.46-.39.18-.1.38-.17.59-.21.03,0,.05-.01.05-.02,0-.02,0-.04,0-.06,0-.02,0-.04,0-.05,0-.02,0-.03.01-.04,0-.01.02-.02.03-.02.39,0,.72.04.99.13.27.09.49.21.66.36.17.15.3.33.37.54.08.21.12.43.12.67,0,.3-.05.58-.15.81-.1.24-.24.44-.42.61-.17.16-.38.29-.62.37-.23.09-.48.13-.75.13-.29,0-.54-.05-.76-.14-.22-.09-.4-.22-.54-.37-.15-.16-.26-.34-.33-.54-.07-.2-.11-.41-.11-.63ZM92.81,109.98c.05.12.12.22.21.3.09.08.2.11.33.11.11,0,.21-.04.3-.11.08-.07.15-.16.21-.27.05-.11.1-.24.12-.37.03-.14.04-.28.04-.41,0-.11,0-.21-.03-.31-.02-.1-.05-.18-.09-.25-.04-.07-.08-.13-.14-.16-.06-.04-.12-.06-.2-.06-.07,0-.13.01-.2.04-.07.03-.13.06-.18.1-.06.04-.11.09-.16.14-.05.05-.09.1-.12.14v.05c-.02.2-.03.35-.04.48-.01.12-.02.22-.02.3,0,.08-.01.14-.02.18,0,.04,0,.08,0,.12ZM91.38,112.44l.37-4.47c0-.07.01-.11.02-.14.01-.02.03-.04.07-.05.18-.04.38-.08.57-.11.2-.04.39-.08.57-.14.02,0,.03,0,.03,0,0,0,0,.01,0,.02,0,0,0,0,0,.02,0,.01,0,.03,0,.05,0,.03-.01.07-.02.13-.01.06-.02.14-.04.24.17-.12.35-.21.53-.28.19-.07.38-.11.59-.11s.36.04.5.12c.14.08.26.18.35.32.09.14.16.29.2.46.04.17.07.35.07.54,0,.16-.02.33-.05.5-.03.17-.08.33-.14.49-.06.16-.14.3-.23.44-.09.14-.2.26-.32.36-.12.1-.26.18-.41.24-.15.06-.31.09-.48.09-.15,0-.3-.03-.44-.09-.14-.06-.27-.14-.39-.24,0,.01,0,.05,0,.11,0,.06,0,.14-.02.23,0,.09-.02.19-.03.29-.01.1-.02.2-.03.29,0,.09-.01.17-.02.23,0,.07,0,.1,0,.11,0,.02,0,.03,0,.04v.03s0,.03-.02.04c-.02.01-.05.02-.1.04l-.8.2s-.05.01-.09.03c-.04.02-.07.02-.11.02-.03,0-.05,0-.08-.02-.02-.01-.03-.04-.03-.08ZM85.53,111.09l.28-3.11c0-.07.01-.11.02-.14,0-.03.03-.04.07-.05.18-.04.37-.07.57-.11.2-.04.39-.09.57-.15.02,0,.02,0,.03,0,0,0,0,.01,0,.02l-.04.45c.08-.04.16-.08.25-.13.09-.05.19-.09.29-.13.1-.04.21-.07.32-.09.11-.03.21-.04.31-.04.14,0,.27.03.39.1.12.06.22.17.29.32.09-.06.19-.11.29-.16.1-.05.21-.09.31-.13.11-.04.21-.07.32-.09.11-.02.21-.03.32-.03.13,0,.25.02.36.05.11.04.21.1.3.18.09.08.15.19.2.32.05.13.07.3.07.49,0,.05,0,.1,0,.15,0,.05,0,.1-.01.16l-.14,1.3c-.01.09-.02.16-.02.23v.32s0,.03-.02.04c-.02.01-.05.02-.11.04l-.75.21s-.05.02-.09.03c-.04.01-.07.02-.11.02-.03,0-.05,0-.07-.02-.02-.01-.03-.04-.03-.07v-.02c.01-.15.02-.27.03-.36.01-.09.02-.17.03-.22,0-.06,0-.1.01-.13,0-.03.01-.06.02-.09,0-.02,0-.05,0-.08,0-.03,0-.07.02-.13,0-.06.01-.13.02-.22,0-.09.02-.22.04-.37,0-.08.02-.16.02-.24.01-.08.02-.15.02-.22,0-.09,0-.16-.02-.23,0-.07-.02-.13-.05-.18-.02-.05-.06-.09-.1-.12-.04-.03-.09-.04-.16-.04-.04,0-.09,0-.15.02-.06.02-.13.04-.19.09-.07.04-.12.1-.17.16-.05.07-.08.16-.1.26v.02c-.02.23-.05.43-.07.6-.02.17-.04.31-.05.44-.01.12-.02.22-.04.3,0,.08-.02.15-.02.21,0,.05,0,.1-.01.14,0,.04,0,.07,0,.11v.07s0,.03-.02.04c-.02.01-.05.03-.11.04l-.71.21s-.05.02-.09.03c-.04.01-.07.02-.11.02-.03,0-.05,0-.07-.02-.02-.01-.04-.04-.04-.07v-.02c.02-.15.03-.27.04-.36.01-.09.02-.17.03-.22,0-.06.01-.1.02-.13,0-.03,0-.06.01-.09,0-.02,0-.05,0-.08,0-.03.01-.07.02-.13,0-.06.01-.13.02-.22.01-.09.02-.22.04-.37.01-.08.02-.16.03-.24.01-.08.02-.15.02-.22,0-.09,0-.16-.02-.23,0-.07-.02-.13-.04-.18-.02-.05-.05-.09-.09-.12-.04-.03-.08-.04-.14-.04-.04,0-.1.01-.17.03-.07.02-.14.05-.21.1-.07.05-.13.11-.18.19-.05.08-.09.17-.09.28-.02.15-.03.27-.04.37-.01.1-.02.18-.02.24,0,.06-.01.11-.02.15,0,.04,0,.07,0,.11,0,0,0,.03,0,.07,0,.04-.01.08-.02.13,0,.05-.01.11-.02.17,0,.06,0,.12-.01.17,0,.05,0,.1-.01.13,0,.04,0,.06,0,.07v.05s0,.04,0,.05c0,.02,0,.03-.02.04,0,.01-.02.02-.04.04-.02.01-.05.02-.08.03l-.8.28s-.05.02-.09.03c-.04.01-.07.02-.11.02-.03,0-.05,0-.07-.02-.02-.01-.04-.04-.04-.07ZM82.1,110.98s0-.02.02-.05c.02-.03.05-.08.08-.13.03-.05.07-.12.11-.19.04-.07.08-.14.12-.21l.05-.69c0-.11.01-.2.02-.26,0-.06,0-.09,0-.09-.12,0-.21,0-.27-.02-.06-.01-.09-.03-.09-.07,0-.02.02-.05.05-.09.03-.04.06-.1.11-.15.04-.06.09-.12.14-.18.05-.06.09-.12.13-.17l.07-1.04h0s-.08,0-.12,0c-.04,0-.07,0-.1,0-.1,0-.17,0-.21-.02-.04-.01-.06-.04-.06-.07,0-.01.01-.04.04-.09.02-.04.05-.1.09-.16.04-.06.08-.12.12-.18.04-.07.08-.13.11-.18l.18-.31h1.27l1.51-.11h.02s.02,0,.03.01c.01,0,.02.01.03.02,0,.01.01.03.01.05l-.05.16s-.03.09-.05.14c-.02.05-.04.1-.07.15l-.13.36s-.03.06-.05.08c-.02.02-.06.03-.12.03-.15,0-.33,0-.52.02-.19,0-.41.02-.66.03,0,.03-.01.05-.01.07s0,.05,0,.1l-.02.14c0,.07-.01.14-.02.21,0,.08-.02.17-.03.28.1,0,.21,0,.3-.01.1,0,.19,0,.27,0,.08,0,.15,0,.21,0,.06,0,.11,0,.13,0,.02,0,.03,0,.05.02.02.01.03.03.03.07,0,.02,0,.04-.01.06,0,.03-.02.07-.04.12-.02.05-.05.11-.08.18-.03.07-.06.14-.09.21-.03.07-.07.15-.1.22-.01.03-.02.05-.03.06-.01.01-.03.02-.05.03-.02,0-.05,0-.09,0-.04,0-.09,0-.16,0h-.43s-.09.94-.09.94h1.57v.12s-.02.03-.05.08c-.03.05-.07.11-.11.18-.04.07-.08.14-.12.21-.05.07-.08.13-.11.17-.02.04-.04.07-.07.09-.03.02-.06.04-.09.05-.03.01-.07.02-.1.02-.04,0-.08,0-.13,0-.18,0-.37,0-.57-.01-.2-.01-.4-.02-.59-.03-.2-.01-.39-.03-.58-.04-.19-.02-.36-.03-.52-.05-.02,0-.03-.01-.04-.02-.01-.02-.02-.03-.02-.05ZM78.33,109.19c.21-.04.38-.08.52-.12.14-.04.25-.08.34-.12.08-.04.14-.08.18-.13.03-.04.05-.08.05-.12,0-.04-.01-.07-.04-.11-.03-.03-.06-.06-.11-.09-.04-.02-.08-.04-.13-.05-.05-.01-.09-.02-.13-.02-.08,0-.16.02-.23.05-.07.03-.13.08-.19.15-.06.07-.11.14-.15.24-.04.09-.08.19-.1.3ZM77.16,109.54c0-.27.05-.52.14-.75.09-.23.22-.44.39-.61.17-.17.36-.31.59-.41.23-.1.48-.15.76-.15.19,0,.37.04.52.11.16.07.29.17.41.28.11.11.2.24.26.39.06.14.09.28.09.43,0,.12-.04.25-.12.38-.08.13-.19.24-.32.34-.14.1-.31.18-.5.25-.2.07-.41.1-.64.1-.12,0-.25-.01-.38-.04,0,.09.03.16.07.23.04.06.1.11.16.16.07.04.14.07.22.09.08.02.17.03.26.03.1,0,.19,0,.28-.02.09-.02.18-.04.26-.07.08-.03.16-.06.24-.09.08-.03.15-.07.22-.11.02,0,.03,0,.05,0,.01,0,.03,0,.04,0v.05s0,.08,0,.14,0,.13,0,.21c0,.08,0,.18,0,.28,0,.01.01.02.01.03,0,.01,0,.02,0,.02,0,.02-.02.05-.07.08-.04.03-.1.06-.18.09-.07.03-.15.06-.25.09-.09.03-.19.05-.28.07-.1.02-.19.04-.28.06-.09.01-.17.02-.23.02-.22,0-.43-.04-.64-.12-.21-.08-.39-.18-.55-.33-.16-.14-.29-.31-.38-.52-.1-.21-.14-.43-.14-.69ZM74.49,111.09l.26-3.02c0-.07.01-.11.02-.14,0-.03.03-.04.07-.05.19-.04.38-.07.57-.11.2-.04.39-.08.57-.14.02,0,.03,0,.03,0,0,0,0,.01,0,.02,0,0,0,0,0,.02,0,0,0,.03,0,.05,0,.03-.01.07-.02.13-.01.06-.02.14-.04.24.09-.07.2-.14.31-.2.11-.06.23-.11.34-.16.11-.04.23-.08.33-.1.1-.03.2-.04.28-.04l-.19.95s-.09,0-.14-.01c-.05,0-.11,0-.17,0-.09,0-.18,0-.27.02-.09.02-.18.05-.26.09-.08.05-.15.11-.21.19-.06.08-.09.18-.11.3-.01.15-.02.27-.04.37,0,.1-.01.18-.02.24,0,.06,0,.11-.01.15,0,.04,0,.07,0,.11,0,0,0,.03,0,.07,0,.04,0,.08-.01.13,0,.05-.01.1-.02.16,0,.06-.01.11-.02.16,0,.05,0,.09-.01.13,0,.04,0,.06,0,.07,0,.02,0,.03,0,.04v.04s0,.03-.02.04c-.01.01-.05.02-.1.04l-.81.29s-.05.02-.09.03c-.04.01-.08.02-.11.02-.03,0-.05,0-.07-.02-.02-.01-.03-.04-.03-.07ZM70.61,110.21c0-.06,0-.12,0-.18,0-.06,0-.12.02-.19.02-.24.04-.45.05-.62.02-.17.03-.32.04-.44,0-.12.02-.22.02-.29,0-.08.01-.14.02-.19,0-.05,0-.09.01-.13,0-.03,0-.07.01-.1,0-.07.02-.11.02-.14,0-.03.03-.04.07-.05.1-.02.19-.04.27-.05.09-.02.17-.03.26-.05.08-.02.17-.03.26-.05.09-.02.18-.05.28-.07h.01s0,0,.01,0c.02,0,.03,0,.03.03h0c0,.07-.01.14-.02.2,0,.06-.01.13-.02.19,0,.07-.01.13-.02.21,0,.07-.02.16-.02.25-.01.1-.02.21-.04.34-.01.13-.03.27-.05.44-.01.12-.02.24-.04.37-.01.12-.02.23-.02.34,0,.06,0,.11.01.16,0,.05.02.09.04.12.02.03.05.06.09.08s.08.03.13.03c.04,0,.1,0,.18-.03s.15-.05.22-.1c.07-.05.14-.11.2-.19.05-.08.09-.18.09-.3.02-.2.03-.37.04-.51.01-.14.02-.25.03-.34,0-.09.02-.17.02-.23,0-.06.01-.12.02-.18,0-.06.01-.12.02-.19,0-.07,0-.15.01-.25,0-.07.01-.11.02-.14,0-.03.03-.04.07-.05.18-.04.37-.07.57-.11.19-.04.38-.08.57-.14.02,0,.02,0,.03,0,0,0,0,.01,0,.02l-.28,3c0,.07-.01.11-.02.14-.01.02-.03.04-.07.05-.17.05-.36.09-.54.14-.19.05-.37.12-.55.2,0,0-.02,0-.03,0-.02,0-.03,0-.03-.01,0-.01,0-.02,0-.03v-.02s0-.03,0-.05c0-.03.01-.07.02-.12,0-.05.01-.11.03-.2-.23.15-.43.26-.61.32-.18.07-.33.11-.47.11-.34,0-.59-.08-.74-.25-.16-.16-.23-.41-.23-.73ZM67.63,108.62s.01-.03.03-.07c.02-.03.05-.08.08-.13.03-.05.07-.1.1-.16.04-.05.07-.11.11-.16.03-.05.06-.09.09-.13.03-.04.04-.06.05-.07h.22c.02-.15.03-.28.04-.39.01-.1.02-.19.03-.26,0-.07.01-.12.02-.16,0-.04.01-.07.02-.09,0-.02.02-.03.03-.04.01,0,.03,0,.05-.01.09-.02.18-.04.27-.05.08-.02.17-.03.25-.05.09-.02.17-.04.26-.06.09-.02.18-.05.28-.07h.01s0,0,.01,0c.02,0,.04,0,.04.02h0c-.01.12-.03.28-.05.48-.02.2-.04.42-.07.68h.82s.03,0,.05.02c.02.01.02.03.02.06,0,.01-.01.05-.04.11-.03.06-.06.14-.11.25l-.11.25s-.03.05-.04.07c-.02.01-.05.02-.09.03h-.57c-.03.21-.06.43-.08.64-.03.21-.04.41-.05.6,0,.08,0,.15.02.2.01.05.03.09.05.13.02.03.05.05.09.07.03.01.07.02.11.02.07,0,.14-.01.21-.03.08-.02.16-.04.23-.07.02-.01.04-.02.06-.02.02,0,.03,0,.04,0,.02,0,.04,0,.04.03,0,.02.01.05.02.1,0,.05.02.11.03.18.02.08.04.18.07.29,0,.01,0,.02,0,.03v.02s-.01.05-.03.06c-.02.01-.06.02-.11.04-.08.03-.17.05-.27.09-.09.03-.18.06-.27.08-.09.02-.18.04-.26.06-.08.02-.16.02-.22.02-.34,0-.59-.08-.74-.25-.16-.17-.23-.43-.23-.77,0-.06,0-.12,0-.18,0-.06.01-.13.02-.2.02-.2.04-.4.05-.58.02-.18.03-.36.05-.52h-.32c-.11,0-.19,0-.24-.02-.05,0-.07-.03-.07-.05ZM63.85,110.21c0-.06,0-.12,0-.18,0-.06,0-.12.02-.19.02-.24.04-.45.06-.62.02-.17.03-.32.04-.44s.02-.22.02-.29c0-.08.01-.14.02-.19,0-.05,0-.09.01-.13,0-.03,0-.07.01-.1,0-.07.02-.11.02-.14,0-.03.03-.04.07-.05.1-.02.19-.04.27-.05.09-.02.17-.03.26-.05.08-.02.17-.03.26-.05.09-.02.18-.05.28-.07h.01s0,0,.01,0c.03,0,.04,0,.04.03h0c0,.07-.02.14-.02.2,0,.06-.01.13-.02.19,0,.07-.01.13-.02.21,0,.07-.02.16-.03.25-.01.1-.02.21-.04.34-.02.13-.03.27-.05.44-.01.12-.02.24-.03.37-.01.12-.02.23-.02.34,0,.06,0,.11.01.16,0,.05.02.09.05.12.02.03.05.06.08.08.03.02.08.03.13.03.04,0,.1,0,.18-.03.07-.02.15-.05.22-.1.07-.05.14-.11.2-.19.05-.08.09-.18.09-.3.02-.2.03-.37.04-.51.01-.14.02-.25.03-.34,0-.09.01-.17.02-.23,0-.06.01-.12.02-.18,0-.06.01-.12.02-.19,0-.07,0-.15.01-.25,0-.07.01-.11.02-.14,0-.03.03-.04.07-.05.19-.04.37-.07.57-.11.19-.04.38-.08.57-.14.02,0,.03,0,.03,0,0,0,0,.01,0,.02l-.29,3c0,.07-.01.11-.02.14-.01.02-.03.04-.07.05-.17.05-.36.09-.54.14-.19.05-.37.12-.55.2,0,0-.01,0-.03,0-.02,0-.03,0-.03-.01,0-.01,0-.02,0-.03,0,0,0,0,0-.02,0-.01,0-.03,0-.05,0-.03,0-.07.02-.12,0-.05.02-.11.03-.2-.23.15-.43.26-.61.32-.17.07-.33.11-.47.11-.34,0-.59-.08-.74-.25-.16-.16-.23-.41-.23-.73ZM60.47,109.36s.02-.06.05-.11c.04-.06.09-.13.14-.21.05-.08.11-.16.16-.24.05-.08.09-.15.13-.21.04-.06.06-.1.07-.11l.05-.84s-.07,0-.1,0h-.08s-.05,0-.07,0c-.02,0-.04,0-.06,0-.1,0-.17,0-.21-.02-.04-.01-.06-.03-.06-.06,0-.01.01-.04.03-.09.03-.05.06-.1.09-.16.04-.06.08-.12.12-.18.04-.06.08-.12.11-.18l.18-.31,1.39-.05c.18,0,.36-.01.53-.02.18,0,.34-.01.49-.02.15,0,.28-.01.39-.02.11,0,.18,0,.23-.01,0,0,0,0,.02,0,.01,0,.02,0,.03,0,.01,0,.02.01.03.03,0,.01.01.03.01.05,0,.01-.01.05-.04.12-.03.07-.07.17-.12.31l-.13.36s-.03.06-.05.08c-.02.02-.06.03-.11.03-.07,0-.14,0-.21,0-.07,0-.15,0-.22.01l-.93.05c-.01.08-.02.14-.03.18,0,.04,0,.07,0,.1v.07s0,.07,0,.12c0,.04,0,.07,0,.1,0,.03,0,.05,0,.08,0,.03,0,.05-.01.08,0,.03,0,.06,0,.11.14,0,.27,0,.39-.01.13,0,.25,0,.36-.01.11,0,.2,0,.28-.01.08,0,.14,0,.17,0,.02,0,.03,0,.05.02.02.01.03.03.03.07,0,.02,0,.03,0,.05-.01.03-.03.07-.05.13-.02.06-.05.12-.08.2-.03.07-.06.15-.09.23-.03.08-.07.16-.1.23-.01.03-.03.06-.05.08-.02.02-.06.02-.12.03l-.89.02-.11,1.35s0,.04-.02.05c0,.02-.02.03-.04.04,0,0-.03.01-.07.04-.04.02-.09.04-.16.07-.06.03-.13.05-.21.09-.08.03-.15.06-.22.09-.07.02-.14.04-.2.06-.06.02-.11.03-.14.03-.04,0-.08,0-.11-.02-.03-.02-.05-.05-.05-.09v-.07c0-.08,0-.17.01-.27,0-.12.02-.25.02-.37.01-.13.02-.25.03-.38.01-.12.02-.23.03-.34l.02-.25c-.17,0-.29,0-.37-.02-.07-.01-.11-.03-.11-.07ZM57.19,111.11v-.02c.02-.21.03-.41.05-.6.02-.2.03-.4.05-.61.02-.21.04-.43.06-.66.02-.23.04-.49.07-.77.02-.28.04-.55.06-.83.02-.27.03-.55.05-.84,0-.07.01-.11.02-.14.01-.03.03-.04.07-.05.19-.03.38-.07.57-.11.19-.04.38-.08.57-.14,0,0,.01,0,.03,0,.02,0,.03.01.03.03l-.39,4.35v.05s0,.03-.02.04c-.01.01-.05.02-.1.04l-.8.29s-.05.02-.09.03c-.04.01-.07.02-.11.02-.03,0-.05,0-.07-.02-.02-.02-.03-.04-.03-.07ZM54.55,109.43c0,.32.04.56.12.71.08.15.2.23.35.23.06,0,.13-.02.21-.05.07-.03.15-.08.23-.14l.13-.91c.02-.11.04-.22.04-.33,0-.1.01-.2.02-.28-.03-.02-.07-.05-.11-.07-.04-.03-.08-.05-.12-.07-.04-.02-.09-.04-.14-.06-.05-.01-.1-.02-.15-.02-.11,0-.2.04-.28.11-.07.07-.13.16-.18.26-.05.1-.08.21-.1.33-.02.12-.03.22-.03.31ZM53.34,109.58c0-.29.04-.56.13-.8.08-.24.2-.45.34-.62.14-.17.31-.31.5-.4.19-.09.4-.14.61-.14.15,0,.3.03.43.09.14.06.26.14.39.24.01-.06.02-.11.02-.14,0-.04,0-.07.02-.09,0-.02.02-.04.04-.04.02,0,.05-.01.1-.02.15-.02.29-.04.44-.05.15-.02.3-.03.46-.04l-.31,2.84s0,.02,0,.02v.02s0,.09.02.12c.02.03.03.06.05.08.02.02.03.04.05.05.02.01.03.02.03.04,0,.03-.03.05-.09.08l-.82.35s0,0-.02,0c-.02,0-.04-.01-.05-.04-.02-.03-.03-.07-.05-.11-.02-.04-.03-.09-.04-.14-.01-.05-.02-.1-.04-.14-.13.15-.27.26-.41.33-.15.07-.3.11-.44.11-.17,0-.34-.04-.5-.11-.16-.08-.31-.18-.43-.32-.13-.14-.23-.31-.3-.5-.08-.2-.12-.42-.12-.66ZM50.43,108.62s.01-.03.03-.07c.02-.03.05-.08.08-.13.03-.05.07-.1.1-.16.04-.05.07-.11.11-.16.03-.05.06-.09.09-.13.02-.04.04-.06.05-.07h.21c.02-.15.03-.28.05-.39.01-.1.02-.19.03-.26,0-.07.01-.12.02-.16,0-.04.01-.07.02-.09,0-.02.01-.03.03-.04.01,0,.02,0,.04-.01.09-.02.18-.04.27-.05.09-.02.17-.03.26-.05.08-.02.17-.04.26-.06.09-.02.18-.05.28-.07h.01s0,0,.01,0c.03,0,.04,0,.04.02h0c-.01.12-.03.28-.05.48-.02.2-.05.42-.07.68h.82s.03,0,.05.02c.02.01.02.03.02.06,0,.01-.01.05-.04.11-.02.06-.06.14-.1.25l-.11.25s-.03.05-.05.07c-.02.01-.05.02-.09.03h-.57c-.03.21-.06.43-.08.64-.02.21-.04.41-.05.6,0,.08,0,.15.02.2.01.05.03.09.05.13.02.03.05.05.08.07.03.01.07.02.11.02.07,0,.14-.01.21-.03.08-.02.15-.04.23-.07.03-.01.05-.02.06-.02.02,0,.03,0,.05,0,.02,0,.03,0,.04.03,0,.02.02.05.02.1,0,.05.02.11.03.18.01.08.04.18.07.29,0,.01,0,.02,0,.03v.02s-.01.05-.03.06c-.02.01-.06.02-.11.04-.08.03-.17.05-.26.09-.09.03-.19.06-.28.08-.09.02-.17.04-.26.06-.08.02-.16.02-.22.02-.34,0-.59-.08-.74-.25-.16-.17-.23-.43-.23-.77,0-.06,0-.12,0-.18,0-.06,0-.13.02-.2.02-.2.04-.4.05-.58.02-.18.03-.36.05-.52h-.32c-.11,0-.19,0-.24-.02-.05,0-.07-.03-.07-.05ZM49.01,107.3c0-.09,0-.15.01-.2,0-.05,0-.08,0-.11,0-.02,0-.04,0-.05h0s0-.02,0-.03c0,0,0-.03,0-.06,0-.03,0-.07.01-.13,0-.06,0-.14.02-.23,0-.07.01-.11.02-.14,0-.03.03-.04.07-.05.17-.04.36-.07.54-.11.19-.04.37-.09.55-.14,0,0,.01,0,.03,0,0,.01.01.02.02.02h0s-.07.84-.07.84c0,.07-.01.11-.02.14,0,.03-.03.04-.06.05-.17.03-.35.07-.53.11-.18.04-.36.07-.56.11,0,0-.01,0-.03,0-.02,0-.03-.01-.03-.03ZM48.66,111.16s0-.03,0-.08c0-.05.01-.12.02-.21,0-.08.01-.18.02-.28.01-.1.02-.2.03-.31.01-.1.02-.2.03-.3,0-.09.01-.17.02-.24.03-.28.05-.55.08-.83.03-.27.05-.55.07-.84,0-.07,0-.11.02-.14,0-.03.03-.04.07-.05.17-.04.36-.07.54-.11.19-.04.37-.08.55-.14,0,0,.01,0,.03,0,.02,0,.03,0,.03.02l-.27,2.97c0,.07-.01.11-.02.14,0,.03-.03.04-.07.05-.17.05-.35.11-.53.18-.18.07-.36.13-.56.2,0,0-.01,0-.03,0-.02,0-.03-.01-.03-.03ZM45.83,109.67c0,.1,0,.19.03.28.02.09.05.16.08.23.04.07.08.12.14.16.06.04.13.06.21.06.12,0,.23-.04.33-.11.1-.08.19-.18.26-.3,0-.04,0-.09,0-.15,0-.06.01-.13.02-.21,0-.08.01-.18.02-.3,0-.11.02-.25.04-.41v-.05s-.05-.09-.08-.14c-.03-.05-.07-.09-.12-.13-.05-.04-.1-.08-.15-.1-.06-.02-.12-.04-.18-.04-.08,0-.16.03-.23.1-.07.07-.14.16-.19.28-.05.11-.1.25-.13.39-.03.15-.05.3-.05.46ZM44.69,109.66c0-.16.01-.32.04-.48.03-.16.08-.32.13-.47.06-.15.13-.29.21-.43.09-.13.18-.24.3-.34.11-.1.24-.18.37-.23.14-.06.29-.09.44-.09.17,0,.34.04.49.12.15.08.28.17.41.29,0-.04,0-.07.01-.09,0-.02,0-.04.01-.05.01-.01.02-.02.04-.03.02,0,.05-.01.08-.02.02,0,.07-.01.13-.03.06-.01.13-.03.21-.05.08-.02.17-.04.27-.06l.3-.06s.05-.01.07-.01c.07,0,.1.04.1.12v.03s0,.02,0,.03l-.32,2.88c-.02.2-.06.39-.14.56-.07.18-.16.34-.27.48-.11.15-.23.28-.37.39-.14.12-.29.21-.45.29-.15.08-.31.14-.48.18-.16.04-.33.06-.49.06-.08,0-.17,0-.26-.01-.09,0-.18-.02-.26-.04-.09-.02-.17-.04-.24-.07-.08-.03-.15-.07-.21-.12h0s0-.05.02-.11c.02-.06.03-.13.05-.21.02-.08.05-.17.07-.25.02-.09.04-.16.06-.23,0-.03.02-.05.02-.05,0-.01.02-.02.03-.02h.02c.06.04.12.07.17.1.05.03.11.05.16.06.06.01.12.02.19.03.07,0,.15,0,.24,0,.14,0,.27-.03.38-.08.11-.05.2-.13.28-.22.08-.09.14-.18.19-.28.05-.11.08-.21.1-.31-.15.1-.3.18-.45.24-.15.06-.3.09-.45.09-.21,0-.39-.04-.54-.13-.15-.08-.28-.2-.38-.34-.1-.14-.17-.31-.22-.49-.05-.18-.07-.38-.07-.58ZM43.19,107.3c0-.09,0-.15.01-.2,0-.05,0-.08,0-.11,0-.02,0-.04,0-.05,0,0,0,0,0-.01v-.02s0-.03,0-.06c0-.03,0-.07,0-.13,0-.06,0-.14.02-.23,0-.07,0-.11.02-.14,0-.03.03-.04.07-.05.17-.04.36-.07.54-.11.19-.04.37-.09.55-.14,0,0,.01,0,.03,0,0,.01.01.02.02.02h.01s-.07.84-.07.84c0,.07-.01.11-.02.14-.01.03-.03.04-.07.05-.17.03-.35.07-.53.11-.18.04-.36.07-.56.11,0,0-.02,0-.03,0-.02,0-.04-.01-.04-.03ZM42.84,111.16s0-.03,0-.08c0-.05.01-.12.02-.21,0-.08.02-.18.02-.28,0-.1.02-.2.02-.31.01-.1.02-.2.03-.3,0-.09.01-.17.02-.24.03-.28.06-.55.08-.83.03-.27.05-.55.07-.84,0-.07,0-.11.02-.14,0-.03.03-.04.07-.05.17-.04.36-.07.54-.11.19-.04.37-.08.55-.14,0,0,.01,0,.03,0,.02,0,.04,0,.04.02l-.28,2.97c0,.07-.01.11-.02.14,0,.03-.03.04-.07.05-.17.05-.35.11-.53.18-.18.07-.36.13-.56.2,0,0-.02,0-.03,0-.02,0-.04-.01-.04-.03ZM39.91,110.16v.09c.24,0,.45-.04.62-.12.17-.08.31-.19.41-.33.11-.14.18-.3.23-.49.05-.19.07-.39.07-.61,0-.15-.02-.3-.07-.45-.04-.15-.1-.28-.18-.41-.08-.13-.18-.23-.3-.29-.12-.07-.25-.1-.4-.1-.03,0-.05,0-.08.02-.03.01-.05.02-.07.03l-.04.37c-.01.13-.03.26-.04.41-.01.14-.02.29-.04.44-.01.15-.03.3-.04.44-.01.15-.02.28-.03.41-.01.13-.02.24-.03.34-.01.1-.02.18-.02.24ZM38.2,107.59s0-.05.02-.06l.78-.72c.06-.06.12-.1.19-.14.06-.04.13-.07.22-.09.09-.02.2-.03.32-.04.13,0,.29-.01.48-.01.33,0,.63.04.89.11.26.07.48.17.66.29.13.09.25.19.35.29.1.1.19.21.26.33.07.12.13.25.16.4.04.15.05.31.05.49,0,.35-.05.66-.16.93-.1.27-.25.5-.43.71-.18.2-.39.37-.62.52s-.49.25-.77.34c-.27.09-.56.15-.84.19-.29.04-.57.06-.85.06h-.55s-.04-.02-.05-.04c-.01-.02-.02-.04-.02-.06,0-.02,0-.03.01-.05l.37-.72s0-.04.01-.09c0-.05.01-.12.02-.21,0-.08.02-.17.02-.27,0-.1.01-.2.02-.3.01-.1.02-.19.02-.28,0-.09.01-.17.02-.23,0-.02,0-.06.01-.11,0-.05,0-.11.01-.18,0-.07,0-.14.02-.21,0-.07.01-.15.02-.22l.04-.64c-.05.01-.11.03-.17.04-.06.01-.12.02-.18.04-.05.01-.11.02-.16.03-.05,0-.09.01-.13.01-.02,0-.04-.01-.05-.03-.01-.02-.02-.04-.02-.07Z"/>
</svg>