<?xml version="1.0" encoding="UTF-8"?>
<svg id="Layer_1" data-name="Layer 1" xmlns="http://www.w3.org/2000/svg" xmlns:xlink="http://www.w3.org/1999/xlink" viewBox="0 0 175 120">
  <defs>
    <style>
      .cls-1 {
        clip-path: url(#clippath);
      }

      .cls-2, .cls-3, .cls-4, .cls-5 {
        stroke-width: 0px;
      }

      .cls-2, .cls-6 {
        fill: none;
      }

      .cls-3 {
        fill: url(#r_1);
      }

      .cls-3, .cls-5 {
        fill-rule: evenodd;
      }

      .cls-4 {
        fill: #5d6162;
      }

      .cls-5 {
        fill: url(#or_2);
      }

      .cls-6 {
        stroke: #1d71b2;
        stroke-miterlimit: 10;
        stroke-width: .35px;
      }
    </style>
    <radialGradient id="or_2" data-name="or 2" cx="-1323.67" cy="2160.72" fx="-1323.67" fy="2160.72" r="56.51" gradientTransform="translate(-2293.26 -2675.91) rotate(-97.91) scale(2.05 .92) skewX(-3.57)" gradientUnits="userSpaceOnUse">
      <stop offset="0" stop-color="#eee821"/>
      <stop offset="1" stop-color="#ed312e"/>
    </radialGradient>
    <radialGradient id="r_1" data-name="r 1" cx="-1342.59" cy="2137.05" fx="-1342.59" fy="2137.05" r="13.67" gradientTransform="translate(-2293.26 -2675.91) rotate(-97.91) scale(2.05 .92) skewX(-3.57)" gradientUnits="userSpaceOnUse">
      <stop offset="0" stop-color="#ed312e"/>
      <stop offset=".24" stop-color="#b52323"/>
      <stop offset=".42" stop-color="#921a1d"/>
      <stop offset=".58" stop-color="#651012"/>
      <stop offset=".77" stop-color="#390708"/>
      <stop offset=".92" stop-color="#1d0202"/>
      <stop offset="1" stop-color="#130000"/>
    </radialGradient>
    <clipPath id="clippath">
      <polygon class="cls-2" points="274.77 10.23 252.49 20.73 241.77 25.06 241.77 84.19 299.6 84.19 299.6 95.46 314.88 95.46 314.88 84.19 317.72 84.19 317.72 82.78 323.84 82.78 323.84 68.24 317.72 68.24 317.72 10.23 274.77 10.23"/>
    </clipPath>
  </defs>
  <g>
    <g>
      <path class="cls-5" d="M115,18.96c-3.03,37.74-16.84,63.62-30.44,65.62-10.42,1.51-19.71-11.27-24.25-30.9-.9-5.27.27-6.87,2.39-6.54,8.81,1.51,17.75,25.56,33.01,5.59-1.13,4.34-2.43,7.94-3.68,10.5,5.7-1.43,18.09-12.05,22.98-44.27h0Z"/>
      <path class="cls-3" d="M60.07,49.41c.26-1.85,1.27-2.47,2.62-2.26,8.81,1.51,17.75,25.56,33.01,5.59-5.1,9.52-10.31,12.24-15.13,11.49-6.87-1.02-18.5-22.46-20.5-14.81h0Z"/>
    </g>
    <g>
      <g>
        <path class="cls-4" d="M15.64,100.26l-4.37-10.04h.64c.4,0,.76.24.91.6l2.24,5.19c.9,2.08,1.3,3.12,1.51,3.74h.03c.17-.53.76-1.92,1.39-3.41l2.41-5.52c.16-.36.52-.6.91-.6h.61l-4.45,10.04c-.16.36-.52.59-.91.59s-.75-.24-.91-.6"/>
        <path class="cls-4" d="M26.32,91.27v8.55c0,.58-.47,1.04-1.04,1.04h-.14v-10.63h.14c.58,0,1.04.47,1.04,1.04"/>
        <path class="cls-4" d="M30.97,90.22h4.77c2.19,0,3.39.98,3.39,2.65,0,1.34-.91,2.04-1.74,2.27.92.24,2.18.91,2.18,2.61,0,2.15-1.78,3.1-3.69,3.1h-4.91v-10.63ZM35.42,94.68c1.65,0,2.47-.58,2.47-1.72,0-1.3-1.04-1.72-2.38-1.72h-3.37v3.45h3.28ZM32.15,99.85h3.43c1.33,0,2.75-.44,2.75-2.06,0-1.38-1.09-2.1-2.97-2.1h-3.21v4.16Z"/>
        <path class="cls-4" d="M44.64,96.12v3.69c0,.58-.47,1.04-1.04,1.04h-.14v-10.63h4.76c2.11,0,3.54.97,3.54,2.84,0,1.27-.62,2.2-1.96,2.54.8.21,1.69.79,1.69,2.63v.45c0,.83,0,1.75.12,2.18h-.29c-.57,0-1.03-.45-1.04-1.02,0-.36,0-.75,0-1.14v-.34c0-1.7-.64-2.23-2.6-2.23h-3.04ZM44.64,95.1h3.24c1.77,0,2.65-.62,2.65-1.99,0-1.25-.88-1.87-2.57-1.87h-3.32v3.86Z"/>
        <path class="cls-4" d="M57.39,97.41l-1.2,2.82c-.16.39-.54.63-.96.63h-.55l4.27-9.99c.17-.39.55-.64.98-.64s.8.25.97.63l4.44,10h-.61c-.41,0-.79-.24-.95-.62l-1.25-2.83h-5.14ZM62.12,96.36c-1.35-3.06-1.99-4.51-2.23-5.21h-.01c-.22.69-.98,2.57-2.09,5.21h4.33Z"/>
        <path class="cls-4" d="M68.66,100.86v-10.63h.07c.87,0,1.68.41,2.19,1.1,2.21,2.97,5.39,7.15,5.91,8.08h.03c-.09-1.46-.08-3.05-.08-4.77v-3.37c0-.57.47-1.04,1.04-1.04h.08v10.63c-.87,0-1.68-.41-2.2-1.11-1.99-2.69-5.3-7.22-5.98-8.29h-.03c.08,1.38.08,2.9.08,4.79v3.57c0,.58-.47,1.04-1.04,1.04h-.08Z"/>
        <path class="cls-4" d="M85.26,91.27h-3.02c-.58,0-1.04-.47-1.04-1.04h9.31c0,.58-.47,1.04-1.04,1.04h-3.02v8.55c0,.58-.47,1.04-1.04,1.04h-.15v-9.59Z"/>
        <path class="cls-4" d="M96.33,99.91l-4.05-9.64h.82c.67,0,1.28.41,1.53,1.03l1.78,4.41c.8,1.97,1.16,3.02,1.36,3.68h.03c.17-.59.58-1.61,1.34-3.57l1.86-4.53c.25-.62.86-1.02,1.53-1.02h.77l-4.13,9.65c-.24.57-.8.94-1.42.94s-1.18-.37-1.42-.94"/>
        <path class="cls-4" d="M108.08,91.92v7.28c0,.91-.74,1.65-1.65,1.65h-.12v-10.58h.12c.91,0,1.65.74,1.65,1.65"/>
        <path class="cls-4" d="M115.26,99.91l-4.05-9.64h.82c.67,0,1.28.41,1.53,1.03l1.78,4.41c.8,1.97,1.16,3.02,1.36,3.68h.03c.17-.59.58-1.61,1.34-3.57l1.86-4.53c.25-.62.86-1.02,1.52-1.02h.77l-4.13,9.65c-.24.57-.8.94-1.42.94s-1.18-.37-1.42-.94"/>
        <path class="cls-4" d="M125.94,97.87l-.8,1.96c-.25.62-.86,1.03-1.53,1.03h-.71l3.95-9.56c.25-.62.86-1.02,1.52-1.02s1.25.39,1.51,1l4.13,9.58h-.82c-.66,0-1.26-.39-1.51-1l-.85-1.99h-4.89ZM130.3,96.4c-1.17-2.77-1.74-4.13-1.99-4.88h-.01c-.23.75-.9,2.5-1.86,4.88h3.86Z"/>
      </g>
      <g>
        <path class="cls-4" d="M140.52,90.31h1.4v9.57h4.58v1.16h-5.99v-10.73Z"/>
        <path class="cls-4" d="M148.82,90.31h1.4v9.57h4.58v1.16h-5.99v-10.73Z"/>
        <path class="cls-4" d="M157.11,90.43c.67-.11,1.58-.21,2.67-.21,1.37,0,2.37.32,3.01.89.57.51.94,1.29.94,2.26s-.29,1.75-.83,2.31c-.73.8-1.93,1.18-3.25,1.18-.45,0-.86-.03-1.15-.08v4.25h-1.4v-10.6ZM159.64,95.75c1.69,0,2.71-.83,2.71-2.29s-1-2.13-2.53-2.13c-.62,0-1.07.05-1.31.1v4.23c.22.06.68.1,1.13.1Z"/>
      </g>
    </g>
  </g>
  <g class="cls-1">
    <rect class="cls-6" x="129.79" y="-24.79" width="306.03" height="167.6"/>
  </g>
</svg>