<?xml version="1.0" encoding="UTF-8"?>
<svg id="Layer_1" data-name="Layer 1" xmlns="http://www.w3.org/2000/svg" xmlns:xlink="http://www.w3.org/1999/xlink" viewBox="0 0 175 120">
  <defs>
    <style>
      .cls-1 {
        clip-path: url(#clippath);
      }

      .cls-2 {
        fill: none;
      }

      .cls-2, .cls-3, .cls-4, .cls-5, .cls-6, .cls-7, .cls-8, .cls-9, .cls-10, .cls-11, .cls-12 {
        stroke-width: 0px;
      }

      .cls-3 {
        fill: url(#linear-gradient);
      }

      .cls-4 {
        fill: #404041;
      }

      .cls-13 {
        clip-path: url(#clippath-1);
      }

      .cls-14 {
        clip-path: url(#clippath-4);
      }

      .cls-15 {
        clip-path: url(#clippath-3);
      }

      .cls-16 {
        clip-path: url(#clippath-2);
      }

      .cls-17 {
        clip-path: url(#clippath-6);
      }

      .cls-18 {
        clip-path: url(#clippath-5);
      }

      .cls-5 {
        fill: #5bc3be;
      }

      .cls-6 {
        fill: #009cb3;
      }

      .cls-7 {
        fill: url(#linear-gradient-4);
      }

      .cls-8 {
        fill: url(#linear-gradient-2);
      }

      .cls-9 {
        fill: url(#linear-gradient-3);
      }

      .cls-10 {
        fill: url(#linear-gradient-7);
      }

      .cls-11 {
        fill: url(#linear-gradient-5);
      }

      .cls-12 {
        fill: url(#linear-gradient-6);
      }
    </style>
    <clipPath id="clippath">
      <path class="cls-2" d="M16.65,40.45v11.91s-.33,2.73-.84,3.5c0,0-.69,1.22-1.03,1.82,0,0-.46.94.38,1.08,0,0,1.14.08.98.7,0,0-.99,3.12-1.24,5.72,0,0,1.53-6.85,7.54-12.91,0,0-.97-2.18-3.66-2.74,0,0,2.32-4.24,7.71-.55,0,0,2.17-1.97,5.22-1.16,0,0,1.75.22,3.69,2.25,0,0,1.17,1.17,2.19,1.4,0,0,2.8.57,3.32,1.76,0,0,.72.98-1.05,1.23,0,0-6.08,1.11-8.85,3.76,0,0-.65,5.01-4.12,6.72,0,0,.48-3.08-.75-4.05,0,0-7.18,3.49-10.96,12.71,0,0-.78,1.94-.48,3.42,0,0,.16.8.99.45,0,0,.51-.22.83-1.33,0,0,.23-.85.55-2.31.33-1.46,1.05-1.2,1.05-1.2,0,0,.4,0,.38.65-.02.65.55.6.98-.18.43-.78.55-2.48,3.59-2.89,0,0,1.46-.3,3.79-.2,0,0,5.32.58,8.66-.9,0,0,4.69-1.66,7.05-5.57,0,0,2.46-3.31,2.53-8.11,0,0,.19-3.78-1.96-7.51,0,0-2.07-3.99-6.68-6.11,0,0-2.3-1.31-5.32-1.39h-14.5Z"/>
    </clipPath>
    <linearGradient id="linear-gradient" x1="-890.7" y1="-533.83" x2="-890.18" y2="-533.83" gradientTransform="translate(-38393.56 -64032.41) rotate(-90) scale(71.98 -71.98)" gradientUnits="userSpaceOnUse">
      <stop offset="0" stop-color="#5bc3be"/>
      <stop offset="0" stop-color="#5bc3be"/>
      <stop offset="1" stop-color="#009cb3"/>
      <stop offset="1" stop-color="#009cb3"/>
    </linearGradient>
    <clipPath id="clippath-1">
      <path class="cls-2" d="M56.75,59.4c-.67-.79-1-2-1-3.65s.34-2.83,1.01-3.62c.67-.79,1.52-1.19,2.55-1.19.97,0,1.79.39,2.45,1.17.66.78.99,1.97.99,3.57,0,1.71-.33,2.96-.98,3.74-.66.78-1.49,1.16-2.51,1.16s-1.84-.39-2.51-1.18M51.52,48.82c-1.9,1.82-2.85,4.14-2.85,6.96,0,3.02,1.12,5.47,3.37,7.33,1.83,1.51,4.23,2.26,7.19,2.26,3.32,0,5.93-.91,7.81-2.72,1.88-1.81,2.82-4.14,2.82-6.98,0-2.52-.76-4.65-2.28-6.38-1.89-2.14-4.68-3.21-8.37-3.21-3.23,0-5.8.91-7.7,2.74"/>
    </clipPath>
    <linearGradient id="linear-gradient-2" x1="-865.44" y1="-542.16" x2="-864.93" y2="-542.16" gradientTransform="translate(-20211.41 -32292.43) rotate(-90) scale(37.39 -37.39)" xlink:href="#linear-gradient"/>
    <clipPath id="clippath-2">
      <rect class="cls-2" x="73.51" y="39.48" width="7.09" height="25.47"/>
    </clipPath>
    <linearGradient id="linear-gradient-3" x1="-878.29" y1="-537.42" x2="-877.78" y2="-537.42" gradientTransform="translate(-26460.32 -43304.66) rotate(-90) scale(49.38 -49.38)" xlink:href="#linear-gradient"/>
    <clipPath id="clippath-3">
      <path class="cls-2" d="M93.16,59.02c-.61-.71-.92-1.79-.92-3.25,0-1.59.3-2.73.9-3.44.6-.71,1.36-1.06,2.26-1.06.83,0,1.54.35,2.12,1.05.58.7.87,1.8.87,3.29,0,1.62-.28,2.77-.83,3.45-.56.68-1.25,1.02-2.07,1.02-.94,0-1.71-.35-2.33-1.06M94.29,46.89c-.76.41-1.6,1.18-2.52,2.33v-2.73h-6.62v25.47h7.14v-8.81c.71.73,1.51,1.28,2.41,1.65.9.37,1.89.56,2.98.56,2.25,0,4.11-.81,5.58-2.42s2.21-3.96,2.21-7.03c0-2.78-.68-5.11-2.02-7-1.35-1.89-3.26-2.83-5.73-2.83-1.25,0-2.39.27-3.42.82"/>
    </clipPath>
    <linearGradient id="linear-gradient-4" x1="-878.81" y1="-536.86" x2="-878.29" y2="-536.86" gradientTransform="translate(-26848.66 -44033.6) rotate(-90) scale(50.19 -50.19)" xlink:href="#linear-gradient"/>
    <clipPath id="clippath-4">
      <path class="cls-2" d="M108.85,39.48v25.47h7.07v-8.86c0-1.68.27-2.84.8-3.49.53-.65,1.23-.97,2.08-.97.78,0,1.38.24,1.81.72.43.48.64,1.3.64,2.46v10.15h7.11v-11.73c0-2.42-.55-4.22-1.66-5.39-1.11-1.17-2.62-1.76-4.54-1.76-1.3,0-2.42.21-3.37.64-.95.43-1.9,1.14-2.87,2.14v-9.38h-7.07Z"/>
    </clipPath>
    <linearGradient id="linear-gradient-5" x1="-878.29" y1="-536.63" x2="-877.78" y2="-536.63" gradientTransform="translate(-26379.77 -43304.66) rotate(-90) scale(49.38 -49.38)" xlink:href="#linear-gradient"/>
    <clipPath id="clippath-5">
      <path class="cls-2" d="M132.85,64.95h7.07v-18.45h-7.07v18.45ZM132.85,44.29h7.07v-4.81h-7.07v4.81Z"/>
    </clipPath>
    <linearGradient id="linear-gradient-6" x1="-878.29" y1="-536.29" x2="-877.78" y2="-536.29" gradientTransform="translate(-26345.31 -43304.66) rotate(-90) scale(49.38 -49.38)" xlink:href="#linear-gradient"/>
    <clipPath id="clippath-6">
      <path class="cls-2" d="M154.01,46.87c-1.01.53-2,1.4-2.99,2.63v-3.01h-6.59v18.45h7.07v-8.86c0-1.68.27-2.84.8-3.49.53-.65,1.23-.97,2.09-.97.78,0,1.38.24,1.81.72.43.48.64,1.3.64,2.46v10.15h7.11v-11.73c0-2.43-.55-4.23-1.66-5.39-1.11-1.16-2.64-1.75-4.6-1.75-1.45,0-2.68.26-3.68.79"/>
    </clipPath>
    <linearGradient id="linear-gradient-7" x1="-864.29" y1="-540.13" x2="-863.77" y2="-540.13" gradientTransform="translate(-19603.66 -31550.68) rotate(-90) scale(36.58 -36.58)" xlink:href="#linear-gradient"/>
  </defs>
  <g class="cls-1">
    <rect class="cls-3" x="14.32" y="40.45" width="30.98" height="37.39"/>
  </g>
  <path class="cls-5" d="M12.91,79.25c-.34.86-.99,1.42-1.45,1.24-.46-.18-.55-1.03-.21-1.89.34-.87.99-1.42,1.45-1.24.46.18.55,1.03.21,1.89"/>
  <path class="cls-5" d="M14.26,61.98c-.44.6-1.01.92-1.29.71-.28-.2-.15-.85.29-1.44.44-.6,1.01-.92,1.29-.71.28.2.15.85-.29,1.44"/>
  <path class="cls-5" d="M14.58,66.68s-.91,1.61-1.9,3.14c0,0-1.19,1.68-.92,3.04,0,0,.15.82,1.31.71,0,0,1.12-.07,1.27-2.75,0,0,.17-2.53.24-4.14"/>
  <path class="cls-6" d="M35.06,52.89c0,.44-.36.8-.8.8s-.8-.36-.8-.8.36-.8.8-.8.8.36.8.8"/>
  <g class="cls-13">
    <rect class="cls-8" x="48.67" y="46.08" width="21.2" height="19.29"/>
  </g>
  <g class="cls-16">
    <rect class="cls-9" x="73.51" y="39.48" width="7.09" height="25.47"/>
  </g>
  <g class="cls-15">
    <rect class="cls-7" x="85.15" y="46.08" width="20.31" height="25.89"/>
  </g>
  <g class="cls-14">
    <rect class="cls-11" x="108.85" y="39.48" width="19.51" height="25.47"/>
  </g>
  <g class="cls-18">
    <rect class="cls-12" x="132.85" y="39.48" width="7.07" height="25.47"/>
  </g>
  <g class="cls-17">
    <rect class="cls-10" x="144.43" y="46.08" width="19.51" height="18.87"/>
  </g>
  <path class="cls-4" d="M94.63,68.23h1.38c.31,0,.55.02.71.07.22.06.41.18.56.34.16.16.27.37.36.6.08.24.12.53.12.88,0,.31-.04.57-.11.79-.09.27-.23.49-.4.66-.13.13-.31.23-.53.3-.17.05-.39.08-.67.08h-1.42v-3.73ZM95.39,68.86v2.47h.56c.21,0,.36-.01.46-.04.12-.03.22-.08.3-.16.08-.07.15-.19.2-.36.05-.17.08-.4.08-.68s-.03-.51-.08-.66c-.05-.15-.12-.27-.21-.36-.09-.09-.21-.14-.35-.18-.11-.02-.31-.04-.62-.04h-.34Z"/>
  <path class="cls-4" d="M98.72,71.97v-3.73h1.59c.4,0,.69.03.87.1.18.07.33.19.43.36.11.17.16.37.16.59,0,.28-.08.51-.25.69-.16.18-.41.3-.74.35.16.1.3.2.4.31.11.11.25.32.43.61l.46.73h-.9l-.55-.81c-.19-.29-.33-.47-.4-.55-.07-.08-.15-.13-.23-.16s-.21-.04-.38-.04h-.15v1.56h-.75ZM99.47,69.81h.56c.36,0,.59-.01.68-.05.09-.03.16-.08.21-.16.05-.07.08-.17.08-.28,0-.13-.03-.23-.1-.3-.07-.08-.16-.13-.28-.15-.06,0-.24-.01-.55-.01h-.59v.95Z"/>
  <polygon class="cls-4" points="102.79 71.97 102.79 68.23 105.56 68.23 105.56 68.86 103.55 68.86 103.55 69.69 105.42 69.69 105.42 70.32 103.55 70.32 103.55 71.34 105.63 71.34 105.63 71.97 102.79 71.97"/>
  <path class="cls-4" d="M109.95,71.97h-.82l-.33-.85h-1.49l-.31.85h-.8l1.45-3.73h.8l1.49,3.73ZM108.56,70.49l-.51-1.39-.5,1.39h1.02Z"/>
  <polygon class="cls-4" points="110.65 71.97 110.65 68.23 111.78 68.23 112.46 70.78 113.13 68.23 114.26 68.23 114.26 71.97 113.56 71.97 113.56 69.03 112.82 71.97 112.09 71.97 111.35 69.03 111.35 71.97 110.65 71.97"/>
  <path class="cls-4" d="M118.84,68.23h1.38c.31,0,.55.02.71.07.22.06.41.18.56.34.16.16.27.37.36.6.08.24.12.53.12.88,0,.31-.04.57-.11.79-.09.27-.23.49-.4.66-.13.13-.31.23-.53.3-.17.05-.39.08-.67.08h-1.42v-3.73ZM119.59,68.86v2.47h.56c.21,0,.36-.01.46-.04.12-.03.22-.08.3-.16.08-.07.15-.19.2-.36.05-.17.08-.4.08-.68s-.03-.51-.08-.66c-.05-.15-.12-.27-.21-.36-.09-.09-.21-.14-.35-.18-.11-.02-.31-.04-.62-.04h-.34Z"/>
  <polygon class="cls-4" points="122.92 71.97 122.92 68.23 125.69 68.23 125.69 68.86 123.68 68.86 123.68 69.69 125.55 69.69 125.55 70.32 123.68 70.32 123.68 71.34 125.76 71.34 125.76 71.97 122.92 71.97"/>
  <path class="cls-4" d="M129.1,70.59l.73.23c-.11.41-.3.71-.56.91-.26.2-.59.3-.99.3-.5,0-.9-.17-1.22-.51-.32-.34-.48-.8-.48-1.39,0-.62.16-1.1.48-1.45.32-.34.74-.52,1.27-.52.46,0,.83.13,1.11.4.17.16.3.39.38.69l-.75.18c-.04-.19-.14-.35-.28-.46-.14-.11-.31-.17-.51-.17-.28,0-.5.1-.67.3-.17.2-.26.52-.26.97,0,.47.08.81.25,1.01.17.2.39.3.66.3.2,0,.37-.06.52-.19.14-.13.25-.33.31-.6"/>
  <path class="cls-4" d="M130.64,70.12c0-.38.06-.7.17-.96.08-.19.2-.36.35-.51.15-.15.31-.26.48-.34.23-.1.5-.15.8-.15.55,0,.99.17,1.32.51.33.34.5.82.5,1.42s-.16,1.07-.49,1.41c-.33.34-.77.51-1.31.51s-1-.17-1.32-.51c-.33-.34-.49-.81-.49-1.4M131.42,70.1c0,.42.1.74.29.96.19.22.44.33.74.33s.55-.11.74-.33c.19-.22.29-.54.29-.97s-.09-.75-.28-.96c-.19-.21-.44-.32-.75-.32s-.56.11-.75.32c-.19.21-.29.53-.29.96"/>
  <path class="cls-4" d="M135.16,71.97v-3.73h1.59c.4,0,.69.03.87.1.18.07.33.19.43.36.11.17.16.37.16.59,0,.28-.08.51-.25.69-.16.18-.41.3-.74.35.16.1.3.2.4.31.11.11.25.32.43.61l.46.73h-.9l-.55-.81c-.19-.29-.33-.47-.4-.55-.07-.08-.15-.13-.23-.16s-.21-.04-.38-.04h-.15v1.56h-.75ZM135.92,69.81h.56c.36,0,.59-.01.68-.05.09-.03.16-.08.21-.16.05-.07.08-.17.08-.28,0-.13-.03-.23-.1-.3-.07-.08-.16-.13-.28-.15-.06,0-.24-.01-.55-.01h-.59v.95Z"/>
  <path class="cls-4" d="M142.76,68.23h1.38c.31,0,.55.02.71.07.22.06.41.18.56.34.16.16.27.37.36.6.08.24.12.53.12.88,0,.31-.04.57-.11.79-.09.27-.23.49-.4.66-.13.13-.31.23-.53.3-.17.05-.39.08-.67.08h-1.42v-3.73ZM143.51,68.86v2.47h.56c.21,0,.36-.01.46-.04.12-.03.22-.08.3-.16.08-.07.15-.19.2-.36.05-.17.08-.4.08-.68s-.03-.51-.08-.66c-.05-.15-.12-.27-.21-.36-.09-.09-.21-.14-.35-.18-.11-.02-.31-.04-.62-.04h-.34Z"/>
  <polygon class="cls-4" points="146.84 71.97 146.84 68.23 149.61 68.23 149.61 68.86 147.6 68.86 147.6 69.69 149.47 69.69 149.47 70.32 147.6 70.32 147.6 71.34 149.68 71.34 149.68 71.97 146.84 71.97"/>
  <path class="cls-4" d="M150.44,70.75l.73-.07c.04.25.13.43.27.54.14.11.32.17.55.17.24,0,.43-.05.55-.15.12-.1.18-.22.18-.36,0-.09-.03-.16-.08-.23-.05-.06-.14-.12-.27-.16-.09-.03-.29-.08-.6-.16-.4-.1-.69-.22-.85-.37-.23-.21-.34-.46-.34-.75,0-.19.05-.37.16-.53.11-.17.26-.29.47-.38.2-.09.45-.13.73-.13.47,0,.82.1,1.06.31.24.21.36.48.37.82l-.75.03c-.03-.19-.1-.33-.21-.41-.11-.08-.27-.13-.48-.13s-.39.04-.51.14c-.08.06-.12.14-.12.23,0,.09.04.16.11.23.1.08.33.16.69.25.37.09.64.18.81.27.18.09.31.22.41.38.1.16.15.36.15.59,0,.21-.06.41-.18.6-.12.19-.29.33-.5.42-.22.09-.49.14-.81.14-.47,0-.83-.11-1.09-.33-.25-.22-.4-.54-.45-.95"/>
  <rect class="cls-4" x="154.4" y="68.23" width=".75" height="3.73"/>
  <path class="cls-4" d="M157.92,70.59v-.63h1.62v1.49c-.16.15-.39.29-.69.4-.3.12-.6.17-.91.17-.39,0-.73-.08-1.02-.25-.29-.16-.51-.4-.65-.7-.15-.3-.22-.64-.22-.99,0-.39.08-.73.24-1.04.16-.3.4-.53.72-.7.24-.12.54-.19.89-.19.46,0,.83.1,1.09.29s.43.46.5.81l-.75.14c-.05-.18-.15-.33-.3-.43-.14-.11-.33-.16-.54-.16-.33,0-.59.1-.79.31-.19.21-.29.52-.29.93,0,.44.1.78.3,1,.2.22.46.33.77.33.16,0,.32-.03.48-.09.16-.06.29-.14.41-.22v-.47h-.86Z"/>
  <polygon class="cls-4" points="160.56 71.97 160.56 68.23 161.3 68.23 162.82 70.73 162.82 68.23 163.52 68.23 163.52 71.97 162.77 71.97 161.26 69.53 161.26 71.97 160.56 71.97"/>
</svg>