<?xml version="1.0" encoding="UTF-8"?>
<svg id="Layer_1" data-name="Layer 1" xmlns="http://www.w3.org/2000/svg" viewBox="0 0 175 120">
  <defs>
    <style>
      .cls-1 {
        fill: none;
      }

      .cls-1, .cls-2, .cls-3 {
        stroke-width: 0px;
      }

      .cls-2 {
        fill: #8d9091;
      }

      .cls-3 {
        fill: #f2702a;
      }
    </style>
  </defs>
  <g>
    <path class="cls-3" d="M11.19,71.14s2.63-.92,3.88,1.99l2.79,10.72,3.08-10.23s.5-1.43,2.13-1.51c1.58-.08,2.44,1.27,2.71,2.67l2.73,9.06,2.92-11.01s.96-2.22,3.43-1.76c0,0,.19.04.11.35-.08.31-3.93,16.27-3.93,16.27,0,0-.31,1.26-1.94,1.27-1.47,0-1.92.11-2.39-1.11-.42-1.07-3.29-7.88-3.29-7.88,0,0-.21-.6-.51.02-.26.55-3.59,7.84-3.59,7.84,0,0-.7,1.31-2.12,1.1,0,0-1.44-.06-1.85-1.84-.28-1.21-4.21-15.55-4.21-15.55,0,0-.1-.25.07-.4Z"/>
    <path class="cls-3" d="M73.45,77.71c1.8-2.37,3.69-.87,3.69-.87,1.58,1.22.24,2.33.24,2.33-2.82.97-4.4.45-4.4.45-.14-1.01.47-1.9.47-1.9ZM68.81,79.72c-.76,5.48,3.51,7.97,3.51,7.97,5.89,3.38,8.46-1.22,8.46-1.22.41-1.16-1.01-2.4-2-1.82-.99.59-2.01.63-2.01.63-3.97-.18-3.61-2.98-3.61-2.98,0,0,3.2-.18,5.35-.47,2.15-.28,4.09-3.87,1.68-6.63-2.41-2.76-6.63-1.18-6.63-1.18-4.02,1.29-4.76,5.68-4.76,5.68Z"/>
    <path class="cls-3" d="M37.01,71.08l-.03,16.83s.84,1.59,2.51.84c0,0,.43-.08.91-.81v-6.65s.2-2.41,2.67-2.51c0,0,1.78-.12,2.53,1.72l.02,7.4s.83,1.58,2.57.83c0,0,.59-.28.83-.81v-8.59s-.91-3.3-4.46-3.91c0,0-2.15-.49-3.99.77v-5.11s-1.57-2.28-3.57,0Z"/>
    <rect class="cls-3" x="52.35" y="75.51" width="3.49" height="13.4" rx=".26" ry=".26"/>
    <circle class="cls-3" cx="54.35" cy="72.05" r="2.08"/>
    <path class="cls-3" d="M60.78,72.72s.57,1.54-.95,1.43c0,0-1.68.76-.92,2.27,0,0,.08.16.46.11,0,0,1.38.16,1.3,1.97-.08,1.81-.03,5.57-.03,5.57,0,0-.41,3.19,2.13,4.38,0,0,1.86,1.08,3.65.05,1.78-1.03.43-2.35.43-2.35,0,0-1.24.16-2.43-1.22,0,0-.38-.59-.35-.95s0-5.76,0-5.76c0,0,.08-.92,1.32-1.35,1.24-.43,1.68-.54,1.68-.54,0,0,.68-.51.08-1.43,0,0-.3-.41-.95-.39,0,0-.93.42-1.63-.54,0,0-.74-1.03-.42-2.24,0,0,.24-1.08-1.13-1.58,0,0-1.26-.32-1.99,1.11,0,0-.38.77-.26,1.46Z"/>
    <path class="cls-3" d="M84.13,87.5l.7-13.43s-.54-3.19,3.03-3.13c0,0,1.11.24,1.3.51l5.05,9.11,4.89-8.97s2.03-2.16,3.76.46l.89,15.43s0,.95-.92,1.35c0,0-1.59.54-2.05-1.11l-1.22-10.19-3.97,8.11s-.78,1.27-1.97,1.03-1.43-1.08-1.43-1.08l-3.38-7.78-1.57,9.59s.03,1-1.11,1.38c-1.13.38-1.86-.49-2-1.27Z"/>
    <path class="cls-3" d="M119.52,81.07c.03,3.73-2.4,7.89-6.55,7.89-3.9,0-6.53-3.7-6.55-7.89-.03-4.67,2.59-7.89,6.55-7.89,3.62,0,6.51,2.57,6.55,7.89ZM112.96,76.83c-1.92-.03-2.85,1.85-2.84,4.27.01,2.17.79,4.21,2.81,4.21,2.14,0,2.76-1.86,2.78-4.27.03-3.32-1.24-4.19-2.76-4.21Z"/>
    <path class="cls-3" d="M122.12,76.59l-.35,10.86s.08,1.27,1.35,1.46c1.27.19,1.7-.92,1.7-.92,0,0,1.22-6.32,1.24-8.13,0,0,.41-2.46,2.81-2.08,0,0,1.19.27,1.65,1.54,0,0,1.27,6.86,1.24,8.78,0,0,.73,1.51,2.43.54,0,0,.76-.35.68-1.3,0,0-.16-6.57-1.03-9.86,0,0-1.65-3.54-5.92-2.51,0,0-1.4.38-2.38,1.59,0,0-1.43-2.11-2.86-.95,0,0-.46.43-.57.97Z"/>
    <path class="cls-3" d="M145.25,84.42c-1.7,2.86-3.92.7-3.92.7-2.32-2.78-1.08-6.11-1.08-6.11,2.24-3.32,5.05-1.43,5.05-1.43l-.05,6.84ZM146.16,69.72l-.24,4.32s-3.08-1.35-6.27,1c-3.19,2.35-3.46,7.65-1.49,11.24,1.97,3.59,5.73,3.24,8.08.86,0,0,1,1.73,2.65.84,0,0,.95-.49.95-1.4l-.24-17.08s-.14-1.35-1.68-1.3c0,0-1.27.08-1.76,1.51Z"/>
    <path class="cls-3" d="M163.51,76.63c1.38,3.89-2.78,5.27-2.78,5.27-2.95,1.24-5.3.68-5.3.68.11,1.24,1.08,2.3,1.08,2.3,2.16,1.68,5.11-.43,5.11-.43,1.16-.76,1.81-.08,1.81-.08.97.92.16,1.68.16,1.68-2.78,3.11-5.54,2.81-5.54,2.81-7-.11-6.21-7.89-6.21-7.89-.16-4.94,3.97-6.59,3.97-6.59,5.97-1.86,7.7,2.27,7.7,2.27ZM155.47,79.49s2.16.39,4.21-.23c0,0,.72,0,.93-1.12,0,0,.12-.95-1.04-1.3,0,0-1.92-.7-3.47,1.07,0,0-.53.74-.63,1.58Z"/>
  </g>
  <g>
    <path class="cls-2" d="M18.29,95.02h.82v6.36h-.82v-6.36Z"/>
    <path class="cls-2" d="M20.81,95.02h1.03l3.98,5.28h.02v-5.28h.82v6.36h-1.03l-3.98-5.28h-.02v5.28h-.82v-6.36Z"/>
    <path class="cls-2" d="M32.98,95.72h-2.27v5.66h-.82v-5.66h-2.27v-.7h5.36v.7Z"/>
    <path class="cls-2" d="M33.94,95.02h4.32v.7h-3.5v1.99h3.27v.7h-3.27v2.26h3.68v.7h-4.5v-6.36Z"/>
    <path class="cls-2" d="M39.7,95.02h1.76c1.33,0,2.74.18,2.74,1.75,0,.93-.65,1.53-1.72,1.68l1.95,2.93h-1l-1.86-2.86h-1.05v2.86h-.82v-6.36ZM40.51,97.82h.73c.9,0,2.08,0,2.08-1.05,0-.92-.86-1.05-1.66-1.05h-1.15v2.1Z"/>
    <path class="cls-2" d="M45.63,95.02h.82v6.36h-.82v-6.36Z"/>
    <path class="cls-2" d="M47.75,98.2c0-1.92,1.5-3.34,3.59-3.34s3.59,1.42,3.59,3.34-1.5,3.34-3.59,3.34-3.59-1.42-3.59-3.34ZM54.06,98.2c0-1.46-1.11-2.64-2.72-2.64s-2.72,1.18-2.72,2.64,1.11,2.64,2.72,2.64,2.72-1.18,2.72-2.64Z"/>
    <path class="cls-2" d="M56.25,95.02h1.76c1.33,0,2.74.18,2.74,1.75,0,.93-.65,1.53-1.72,1.68l1.95,2.93h-1l-1.86-2.86h-1.05v2.86h-.82v-6.36ZM57.06,97.82h.73c.9,0,2.08,0,2.08-1.05,0-.92-.86-1.05-1.66-1.05h-1.15v2.1Z"/>
    <path class="cls-2" d="M64.75,95.02h2.64c1.35,0,3.37.84,3.37,3.18s-2.02,3.18-3.37,3.18h-2.64v-6.36ZM65.57,100.68h1.55c1.57,0,2.77-.74,2.77-2.48s-1.19-2.48-2.77-2.48h-1.55v4.96Z"/>
    <path class="cls-2" d="M72.07,95.02h4.32v.7h-3.5v1.99h3.27v.7h-3.27v2.26h3.68v.7h-4.5v-6.36Z"/>
    <path class="cls-2" d="M81.09,96.14c-.27-.4-.76-.58-1.25-.58-.72,0-1.47.31-1.47,1.07,0,.58.35.84,1.45,1.17,1.07.31,2.06.64,2.06,1.89s-1.17,1.86-2.42,1.86c-.8,0-1.65-.24-2.12-.88l.7-.53c.29.47.87.71,1.47.71.7,0,1.5-.38,1.5-1.11,0-.78-.57-.92-1.8-1.29-.97-.3-1.71-.69-1.71-1.75,0-1.22,1.14-1.83,2.34-1.83.77,0,1.42.2,1.92.75l-.67.54Z"/>
    <path class="cls-2" d="M83.23,95.02h.82v6.36h-.82v-6.36Z"/>
    <path class="cls-2" d="M91.6,100.95c-.79.4-1.68.59-2.57.59-2.14,0-3.67-1.35-3.67-3.34s1.64-3.34,3.7-3.34c.9,0,1.78.22,2.43.84l-.61.59c-.47-.47-1.17-.73-1.87-.73-1.57,0-2.77,1.1-2.77,2.64s1.16,2.64,2.84,2.64c.55,0,1.2-.13,1.71-.37v-1.95h-1.58v-.7h2.4v3.13Z"/>
    <path class="cls-2" d="M93.31,95.02h1.03l3.98,5.28h.02v-5.28h.82v6.36h-1.03l-3.98-5.28h-.02v5.28h-.82v-6.36Z"/>
    <path class="cls-2" d="M104.12,96.14c-.27-.4-.76-.58-1.25-.58-.72,0-1.47.31-1.47,1.07,0,.58.35.84,1.45,1.17,1.07.31,2.06.64,2.06,1.89s-1.17,1.86-2.42,1.86c-.8,0-1.65-.24-2.12-.88l.7-.53c.29.47.87.71,1.47.71.7,0,1.5-.38,1.5-1.11,0-.78-.57-.92-1.8-1.29-.97-.3-1.71-.69-1.71-1.75,0-1.22,1.14-1.83,2.34-1.83.77,0,1.42.2,1.92.75l-.67.54Z"/>
    <path class="cls-2" d="M112.93,100.46c-.55.65-1.15,1.02-2.06,1.02-1.17,0-2.18-.67-2.18-1.81,0-.9.7-1.49,1.52-1.84-.45-.42-.83-.86-.83-1.47,0-.94.83-1.46,1.78-1.46s1.72.48,1.72,1.41c0,.8-.77,1.29-1.46,1.62l1.46,1.43.92-1.43h.92l-1.32,1.96,1.57,1.49h-1.12l-.93-.92ZM110.71,98.29c-.58.3-1.21.67-1.21,1.36s.62,1.19,1.34,1.19,1.16-.41,1.59-.88l-1.72-1.67ZM110.92,97.47c.51-.26,1.15-.55,1.15-1.18,0-.47-.4-.75-.87-.75-.54,0-.99.33-.99.85,0,.34.24.61.48.84l.24.23Z"/>
    <path class="cls-2" d="M118.66,95.02h4.26v.7h-3.45v2.1h3.2v.7h-3.2v2.86h-.82v-6.36Z"/>
    <path class="cls-2" d="M124.06,95.02h.82v6.36h-.82v-6.36Z"/>
    <path class="cls-2" d="M131.2,95.72h-2.27v5.66h-.82v-5.66h-2.27v-.7h5.36v.7Z"/>
    <path class="cls-2" d="M131.76,98.2c0-1.92,1.5-3.34,3.59-3.34s3.59,1.42,3.59,3.34-1.5,3.34-3.59,3.34-3.59-1.42-3.59-3.34ZM138.07,98.2c0-1.46-1.11-2.64-2.72-2.64s-2.72,1.18-2.72,2.64,1.11,2.64,2.72,2.64,2.72-1.18,2.72-2.64Z"/>
    <path class="cls-2" d="M145.41,98.95c0,1.38-.7,2.59-2.59,2.59s-2.59-1.2-2.59-2.59v-3.94h.82v3.83c0,1.02.41,1.99,1.78,1.99s1.78-.97,1.78-1.99v-3.83h.82v3.94Z"/>
    <path class="cls-2" d="M151.7,95.72h-2.27v5.66h-.82v-5.66h-2.27v-.7h5.36v.7Z"/>
    <path class="cls-2" d="M155.93,96.14c-.27-.4-.76-.58-1.25-.58-.72,0-1.47.31-1.47,1.07,0,.58.35.84,1.45,1.17,1.07.31,2.06.64,2.06,1.89s-1.17,1.86-2.42,1.86c-.8,0-1.65-.24-2.12-.88l.7-.53c.29.47.87.71,1.47.71.7,0,1.5-.38,1.5-1.11,0-.78-.57-.92-1.8-1.29-.97-.3-1.71-.69-1.71-1.75,0-1.22,1.14-1.83,2.34-1.83.77,0,1.42.2,1.92.75l-.67.54Z"/>
  </g>
  <g>
    <g>
      <path class="cls-3" d="M108.01,19.24c-.63-.52-1.39-.78-2.28-.78s-1.58.2-2.05.61c-.47.41-.8.87-1,1.38-.19.51-.4,1.22-.61,2.13l-2.14,8.36s.08.03.11.05c.55.28.99.67,1.33,1.18.34.51.62,1.11.83,1.81.22.7.41,1.34.58,1.94l1.13,3.99,4.53-16.04c.34-1.22.51-2.1.51-2.66,0-.78-.31-1.44-.94-1.96Z"/>
      <path class="cls-3" d="M77.4,39.9l-2.3,8.96c.53.24,1.19.37,1.99.37,1.05,0,1.89-.23,2.53-.7.14-.1.27-.21.39-.32.43-.39.75-.81.95-1.27.25-.59.6-1.56,1.03-2.91l1.28-4.11,4.28-13.73,4.21,13.68,1.28,4.16c.45,1.39.8,2.38,1.04,2.95.2.45.51.87.95,1.26.12.1.24.2.37.3.63.46,1.48.69,2.53.69.79,0,1.45-.12,1.99-.36l-2.31-8.92h0l-.02-.05-2.57-8.31-2.44-7.89c-.42-1.34-.75-2.3-1-2.88-.25-.58-.69-1.12-1.33-1.61-.64-.49-1.54-.74-2.7-.74s-2.05.24-2.71.71c-.66.47-1.14,1.04-1.44,1.68-.29.65-.63,1.6-1,2.84l-2.41,7.86-2.59,8.34"/>
      <path class="cls-3" d="M71.82,19.51c-.43-.7-1.28-1.06-2.53-1.06-.91,0-1.68.26-2.3.79s-.93,1.18-.93,1.95c0,.61.17,1.5.51,2.66l4.53,16.04,1.13-3.99c.39-1.35.71-2.34.96-2.97.26-.63.69-1.18,1.3-1.65.18-.14.38-.25.6-.35l-2.14-8.35c-.32-1.34-.7-2.36-1.14-3.06Z"/>
    </g>
    <polygon class="cls-1" points="97.57 39.85 97.59 39.9 97.6 39.85 97.59 39.79 97.57 39.85"/>
    <polygon class="cls-1" points="77.38 39.85 77.39 39.9 77.41 39.85 77.39 39.79 77.38 39.85"/>
    <polygon class="cls-1" points="83.24 39.87 87.46 53.55 91.74 39.82 87.53 26.14 83.24 39.87"/>
    <g>
      <path class="cls-2" d="M108.42,55.95l-4.53-16.04-1.13-3.99c-.17-.6-.36-1.24-.58-1.94-.22-.7-.49-1.3-.83-1.81-.34-.51-.78-.9-1.33-1.18-.04-.02-.08-.03-.11-.05-.53-.24-1.19-.37-1.98-.37-1.05,0-1.89.23-2.53.7-.14.1-.27.21-.39.32l2.57,8.31h0l2.33,8.97,2.14,8.35c.32,1.34.7,2.36,1.14,3.06.43.7,1.28,1.06,2.53,1.06.91,0,1.68-.26,2.3-.79s.93-1.18.93-1.95c0-.61-.17-1.5-.51-2.66Z"/>
      <path class="cls-2" d="M77.07,30.58c-.79,0-1.45.12-1.99.36-.22.1-.42.21-.6.35-.61.47-1.04,1.03-1.3,1.65-.25.63-.58,1.62-.96,2.97l-1.13,3.99-4.53,16.04c-.34,1.22-.51,2.1-.51,2.66,0,.78.31,1.44.94,1.96.63.52,1.39.78,2.28.78s1.58-.2,2.05-.61c.47-.41.8-.87,1-1.38.19-.51.4-1.22.61-2.13l2.14-8.36,2.33-8.96h0l2.56-8.34c-.12-.1-.24-.2-.37-.3-.63-.46-1.48-.69-2.53-.69Z"/>
      <path class="cls-2" d="M93.04,44.04l-1.28-4.17-4.3,13.75-4.21-13.68-1.28,4.11c-.43,1.35-.78,2.32-1.03,2.91-.2.46-.52.88-.95,1.27l2.44,7.89c.42,1.34.75,2.3,1,2.88.25.58.69,1.12,1.33,1.61.64.49,1.54.74,2.7.74s2.05-.24,2.71-.71c.66-.47,1.14-1.04,1.44-1.68.29-.65.63-1.6,1-2.84l2.43-7.86c-.44-.38-.76-.81-.96-1.27-.25-.58-.57-1.56-1.04-2.95Z"/>
    </g>
  </g>
</svg>