<?xml version="1.0" encoding="UTF-8"?>
<svg id="Layer_1" data-name="Layer 1" xmlns="http://www.w3.org/2000/svg" viewBox="0 0 175 120">
  <defs>
    <style>
      .cls-1 {
        fill: #5c3211;
      }

      .cls-1, .cls-2, .cls-3, .cls-4 {
        stroke-width: 0px;
      }

      .cls-2 {
        fill: #d58e26;
      }

      .cls-3 {
        fill: #777e30;
      }

      .cls-4 {
        fill: #343738;
      }
    </style>
  </defs>
  <g>
    <path class="cls-3" d="M83.24,25.37s1.9,6.73-4.8,10.74c0,0-4.12-7.24,4.8-10.74Z"/>
    <path class="cls-3" d="M98.66,23.78s1.82-6.87-5.4-10.6c.03,0-3.01,7.44,5.4,10.6Z"/>
    <g>
      <path class="cls-2" d="M75.48,80.91h-11.53s-3.41-21.02,15.62-27.21c0,0-1.93,6.11,3.32,9.43,0,0,1.82,1.39,5.14.34,0,0,.43,3.04,4.26,2.95,0,0,8.89-1.05,4.18-11.87,0,0,3.04,6.9-2.27,10.28,0,0-4.89,2.61-5.48-2.78,0,0-6.53,3.15-8.38-4.37,0,0-.88-4.54,1.93-7.58,0,0,2.36-2.87,6.9-1.48,0,0,2.1-3.24,5.68-3.15,0,0,3.15.6,3.66-1.93,0,0,1.73-2.78-4.89-6.7,0,0-8.38-4.37-5.14-10.11,0,0,.51-.97,1.22-.26,0,0,.71.71,1.73.6,0,0,.88.09.71,1.31,0,0-1.05,2.19,2.61,4.01,0,0,5.48,2.78,7.58,5.6,0,0,6.19,5.68,3.49,15,0,0-.6,3.15-3.24,6.99,0,0-5.31,7.16-5.4,12.3,0,0-.17,3.49.6,5.23,0,0,2.36.17,2.27,3.41h-9.94s.17-1.31-2.61-6.62c0,0,.91,3.98.99,4.83,0,0-6.05-.88-9.94-4.83,0,0-2.22,2.02-4.18,3.27l-.09.23s1.76.91,1.16,3.15Z"/>
      <path class="cls-2" d="M100.74,64.35s1.65,3.49,3.86,5.11c0,0,2.67-.8,4.09,1.53l-8.18,5.65s-2.02-2.22-2.5-2.16c0,0-.48-3.24,2.73-10.14Z"/>
    </g>
    <path class="cls-1" d="M99.32,23.93h0c-9.32-3.58-5.48-11.33-5.48-11.33,6.7,3.69,5.85,10.11,5.85,10.11,1.93-9.52-6.59-11.65-6.59-11.65-3.15,7.78.71,10.96,1.53,11.53-1.87-.37-3.81-.57-5.77-.57-11.73,0-21.87,6.79-26.84,16.67,4.06-6.28,10.42-10.94,17.92-12.75-6.11,5.11-1.59,12.07-1.59,12.07,8.86-3.27,5.97-12.13,5.97-12.13.88,7.67-5.4,10.57-5.4,10.57-1.39-3.04-.71-5.77-.71-5.77.97-2.98,3.52-4.6,5.23-5.4,1.16-.14,2.36-.23,3.55-.23,16.42,0,29.74,13.32,29.74,29.74,0,8.46-3.52,16.08-9.2,21.5,6.96-5.57,11.42-14.17,11.42-23.86.03-13.07-8.15-24.23-19.63-28.52Z"/>
  </g>
  <g>
    <path class="cls-4" d="M25.04,98.12c1.34,0,2.47.34,3.41.97.94.62,1.39,1.62,1.39,2.9,0,1.45-.54,2.73-1.65,3.75-1.08,1.05-2.41,1.85-4.01,2.36-1.56.54-3.07.82-4.52.85l-.14-.57c2.02-.43,3.83-1.16,5.4-2.19,1.56-1.02,2.36-2.39,2.36-4.06,0-.62-.2-1.16-.57-1.65-.37-.48-.85-.85-1.45-1.14-.6-.26-1.19-.4-1.85-.4-1.11,0-2.19.2-3.24.6l-.2-.62c1.36-.57,2.58-1.34,3.66-2.3,1.08-.94,1.59-1.99,1.59-3.12,0-.6-.2-1.08-.57-1.45-.37-.37-.88-.54-1.53-.54-.94,0-1.68.34-2.24,1.02s-.97,1.51-1.19,2.44c-.23.94-.34,1.82-.34,2.67v9.03l-2.19.8v-8.55c0-1.68.34-3.18.99-4.49.68-1.31,1.59-2.33,2.78-3.07,1.19-.74,2.56-1.11,4.09-1.11.77,0,1.39.2,1.9.6.51.4.77.97.77,1.68,0,1.05-.51,2.07-1.56,3.12-1.05,1.05-2.19,1.9-3.47,2.58l.06.09c.99-.11,1.73-.2,2.3-.2Z"/>
    <path class="cls-4" d="M40.09,95.99c.68.34,1.19.82,1.51,1.51l-1.7.91c-.26-.37-.6-.68-1.05-.97s-.91-.43-1.42-.43c-.8,0-1.51.2-2.1.62s-1.05.97-1.36,1.68c-.31.71-.48,1.51-.48,2.36,0,1.25.2,2.24.62,3.04.43.77,1.08,1.16,2.02,1.16,1.28,0,2.19-.51,2.67-1.56.48-1.05.74-2.16.74-3.41v-1.05l2.07-.88v6.19c0,.2.06.4.17.6s.28.28.48.28c.45,0,.88-.31,1.25-.94l.34.37c-.2.54-.51.99-.99,1.36s-.94.57-1.42.57c-.68,0-1.16-.26-1.51-.77-.31-.51-.48-1.16-.48-2.02h-.06c-.4.82-.94,1.53-1.59,2.07-.65.54-1.36.82-2.1.82-1.34,0-2.36-.45-3.04-1.39-.68-.91-1.02-2.16-1.02-3.69,0-1.22.28-2.39.82-3.47.54-1.08,1.31-1.93,2.24-2.58.94-.65,1.99-.97,3.15-.97.85.09,1.56.26,2.24.57Z"/>
    <path class="cls-4" d="M53.58,95.9c.54.37.99.94,1.31,1.73l-1.93.99c-.17-.54-.45-.99-.94-1.31-.45-.31-.97-.48-1.48-.48-.77,0-1.42.2-2.02.6-.57.4-1.02.91-1.34,1.51-.31.62-.48,1.22-.48,1.87,0,1.11.17,2.05.54,2.84.37.8.85,1.39,1.48,1.82.62.43,1.34.62,2.13.62.94,0,1.76-.23,2.47-.68.71-.45,1.36-1.05,2.02-1.79l.4.37c-.77,1.19-1.59,2.07-2.44,2.67-.85.6-1.9.91-3.15.91-.97,0-1.85-.23-2.61-.68s-1.36-1.11-1.82-1.96-.65-1.82-.65-2.93c0-1.22.26-2.36.77-3.35.51-1.02,1.25-1.82,2.27-2.41.99-.6,2.24-.91,3.69-.91.65.03,1.25.2,1.79.57Z"/>
    <path class="cls-4" d="M60.52,102.72h.17c.45-1.79,1.11-3.47,1.99-5.06.88-1.59,1.93-2.36,3.18-2.36.51,0,.91.2,1.19.6.31.4.45.88.45,1.45,0,.97-.4,1.87-1.22,2.76-.82.88-1.76,1.65-2.81,2.27.09.11.34.51.82,1.19.45.68.97,1.31,1.53,1.82.54.54,1.02.8,1.42.8.57,0,1.08-.26,1.53-.8l.37.4c-.34.54-.82.97-1.42,1.28s-1.19.48-1.79.48c-.68,0-1.28-.26-1.82-.77-.54-.51-1.14-1.19-1.76-2.07-.51-.68-.88-1.14-1.14-1.34l-.2.17c-.11.37-.2.91-.28,1.59-.09.71-.11,1.34-.14,1.87l-2.16.62v-21.22l2.13-.91v17.21h-.06ZM62.99,99.03c-.48.8-.97,1.79-1.45,2.98-.26.57-.4.88-.43.91,1.05-.43,2.02-1.05,2.84-1.82.85-.77,1.28-1.56,1.28-2.33,0-.2-.09-.43-.23-.62s-.34-.31-.6-.31c-.48,0-.97.4-1.42,1.19Z"/>
    <path class="cls-4" d="M79.06,95.51h3.27l-.71,1.51h-2.58v8.29c0,.23.06.43.2.57s.34.23.57.23c.34,0,.8-.31,1.36-.91l.34.34c-.31.6-.65,1.05-1.08,1.34s-.82.48-1.19.54c-.37.06-.57.09-.57,0h.2c-1.39,0-2.07-.8-2.07-2.39v-8.01h-1.76l.74-1.51h1.05v-5.43l2.19-.85v6.28h.06Z"/>
    <path class="cls-4" d="M89.55,95.79c-1.19.77-2.1,1.59-2.78,2.53-.68.94-1.02,2.02-1.02,3.27,0,.71.14,1.42.45,2.13s.74,1.31,1.34,1.79c.6.48,1.31.71,2.16.71.68,0,1.28-.17,1.82-.48s.94-.74,1.22-1.28c.28-.54.43-1.14.43-1.76,0-.74-.23-1.51-.68-2.27s-1.02-1.42-1.76-1.96c-.71-.54-1.45-.82-2.22-.91.31-.31.68-.65,1.14-.99.43-.34.88-.68,1.34-1.02,1.08.37,1.93,1.05,2.58,2.07.62,1.02.94,2.13.94,3.38,0,1.11-.23,2.16-.68,3.18-.45,1.02-1.11,1.85-1.96,2.47-.85.62-1.87.97-3.07.97-.94,0-1.82-.23-2.61-.71-.8-.45-1.42-1.11-1.87-1.9-.45-.8-.68-1.68-.68-2.67,0-1.7.51-3.21,1.53-4.46,1.02-1.25,2.33-2.13,3.98-2.61l.43.54Z"/>
    <path class="cls-4" d="M113.43,91.64c.94.82,1.42,2.02,1.42,3.64,0,1.05-.28,2.05-.85,2.98-.57.94-1.34,1.73-2.27,2.44-.94.68-1.96,1.16-3.07,1.48l2.58,3.12c.45.43.91.62,1.36.62.37,0,.77-.14,1.16-.43s.8-.62,1.19-1.05l.34.31c-.06.09-.31.4-.71.97-.43.57-.91,1.02-1.45,1.39-.54.37-1.08.54-1.59.54-.45,0-.85-.14-1.25-.43-.4-.28-.82-.71-1.31-1.31l-2.84-3.47.14-.62c1.05-.11,2.07-.43,3.04-.97.97-.54,1.76-1.25,2.36-2.16.6-.91.91-1.87.91-2.98,0-1.19-.37-2.13-1.08-2.84s-1.76-1.05-3.18-1.05c-1.08,0-2.22.26-3.44.77-1.19.51-2.24,1.16-3.15,1.99l-.45-.48c1.14-1.08,2.5-1.96,4.03-2.64,1.53-.68,3.01-1.05,4.46-1.05,1.48,0,2.7.43,3.64,1.22ZM104.91,106.78l-2.16.88v-12.98l2.16-.82v12.92Z"/>
    <path class="cls-4" d="M122.72,95.79c-1.19.77-2.1,1.59-2.78,2.53s-1.02,2.02-1.02,3.27c0,.71.14,1.42.45,2.13.31.71.74,1.31,1.34,1.79.6.48,1.31.71,2.16.71.68,0,1.28-.17,1.82-.48s.94-.74,1.22-1.28c.28-.54.43-1.14.43-1.76,0-.74-.23-1.51-.68-2.27s-1.02-1.42-1.76-1.96c-.71-.54-1.45-.82-2.22-.91.31-.31.68-.65,1.14-.99.43-.34.88-.68,1.34-1.02,1.08.37,1.93,1.05,2.58,2.07.62,1.02.94,2.13.94,3.38,0,1.11-.23,2.16-.68,3.18-.45,1.02-1.11,1.85-1.96,2.47-.85.62-1.87.97-3.07.97-.94,0-1.82-.23-2.61-.71-.8-.45-1.42-1.11-1.87-1.9-.45-.8-.68-1.68-.68-2.67,0-1.7.51-3.21,1.53-4.46,1.02-1.25,2.33-2.13,3.98-2.61l.43.54Z"/>
    <path class="cls-4" d="M135.7,95.79c-1.19.77-2.1,1.59-2.78,2.53-.68.94-1.02,2.02-1.02,3.27,0,.71.14,1.42.45,2.13.31.71.74,1.31,1.34,1.79.6.48,1.31.71,2.16.71.68,0,1.28-.17,1.82-.48s.94-.74,1.22-1.28.43-1.14.43-1.76c0-.74-.23-1.51-.68-2.27-.45-.77-1.02-1.42-1.76-1.96-.71-.54-1.45-.82-2.22-.91.31-.31.68-.65,1.14-.99.43-.34.88-.68,1.34-1.02,1.08.37,1.93,1.05,2.58,2.07.62,1.02.94,2.13.94,3.38,0,1.11-.23,2.16-.68,3.18-.45,1.02-1.11,1.85-1.96,2.47s-1.87.97-3.07.97c-.94,0-1.82-.23-2.61-.71-.8-.45-1.42-1.11-1.87-1.9-.45-.8-.68-1.68-.68-2.67,0-1.7.51-3.21,1.53-4.46,1.02-1.25,2.33-2.13,3.98-2.61l.43.54Z"/>
    <path class="cls-4" d="M146.24,95.51h3.27l-.71,1.51h-2.58v8.29c0,.23.06.43.2.57s.34.23.57.23c.34,0,.8-.31,1.36-.91l.34.34c-.31.6-.65,1.05-1.08,1.34s-.82.48-1.19.54c-.37.06-.57.09-.57,0h.2c-1.39,0-2.07-.8-2.07-2.39v-8.01h-1.76l.74-1.51h1.05v-5.43l2.19-.85v6.28h.06Z"/>
    <path class="cls-4" d="M155.62,94.82c.26.2.37.48.37.88,0,.43-.09.8-.26,1.14-.17.34-.34.62-.54.85s-.31.4-.37.48c.2.31.54.68,1.05,1.11.43.37.77.68,1.02.97.26.28.45.65.65,1.14.17.48.28,1.08.28,1.76,0,.82-.2,1.56-.57,2.24-.37.68-.88,1.22-1.53,1.59-.65.4-1.39.6-2.22.6-.51,0-1.05-.11-1.65-.31-.6-.2-1.05-.51-1.34-.91l1.59-2.1c.37.48.77.91,1.19,1.25.43.34.88.51,1.36.51.68,0,1.25-.23,1.73-.68s.71-.99.71-1.62c0-.51-.2-.99-.62-1.51-.43-.48-.99-1.08-1.76-1.76-.09-.09-.28-.23-.54-.48-.26-.26-.45-.45-.6-.6l-1.65,2.44-.77-.48,1.87-2.61c-.23-.62-.34-1.22-.34-1.82,0-.68.14-1.25.45-1.68.28-.45.71-.68,1.22-.68.6,0,.97.09,1.22.28ZM154.05,95.62c-.06.11-.09.28-.09.48,0,.28.03.54.11.74s.14.34.17.43c.17-.11.34-.31.48-.6.14-.28.23-.54.23-.74,0-.14-.06-.26-.14-.34-.09-.09-.23-.14-.4-.14s-.31.06-.37.17Z"/>
  </g>
</svg>