<?xml version="1.0" encoding="UTF-8"?>
<svg id="Layer_1" data-name="Layer 1" xmlns="http://www.w3.org/2000/svg" viewBox="0 0 175 120">
  <defs>
    <style>
      .cls-1 {
        fill: #326dab;
        stroke-width: 0px;
      }
    </style>
  </defs>
  <g id="_1b69b2ff" data-name="#1b69b2ff">
    <g>
      <path class="cls-1" d="M109.89,51.15c1.96-.23,4.07.24,5.55,1.61,1.65,1.44,2.43,3.63,2.59,5.76.18,1.77.06,3.59-.46,5.3-.58,1.88-1.85,3.65-3.68,4.47-1.63.7-3.51.75-5.21.31-1.82-.47-3.29-1.87-4.08-3.55-1.03-2.17-1.16-4.65-.87-7,.22-2.03,1.07-4.06,2.62-5.43.98-.86,2.26-1.34,3.55-1.46M110,54.18c-1.62.31-2.74,1.83-3.04,3.39-.35,1.79-.37,3.7.19,5.45.47,1.39,1.65,2.64,3.15,2.84,1.52.28,3.08-.58,3.82-1.9.79-1.44.9-3.15.84-4.76-.11-1.39-.35-2.9-1.36-3.95-.88-1-2.32-1.38-3.59-1.08Z"/>
      <path class="cls-1" d="M7.5,51.14c6.03,0,12.05,0,18.07,0-.02,1.77.04,3.55-.03,5.32-1.74-.04-3.48,0-5.22-.01,0,4.15,0,8.29,0,12.44-2.52,0-5.03,0-7.55,0-.02-4.15,0-8.3,0-12.45-1.76,0-3.51,0-5.27,0,0-1.77,0-3.53,0-5.3Z"/>
      <path class="cls-1" d="M30.71,51.14c2.61,0,5.23,0,7.84,0,2.43,5.92,4.87,11.84,7.28,17.76-2.43-.03-4.87-.01-7.3,0-1.29-3.48-2.55-6.97-3.85-10.44-1.32,3.46-2.52,6.96-3.79,10.44-2.41.01-4.82,0-7.22,0,2.32-5.93,4.7-11.83,7.04-17.75Z"/>
      <path class="cls-1" d="M44.12,56.46c-.06-1.77,0-3.55-.02-5.32,6.01.01,12.03,0,18.04,0,0,1.77,0,3.53,0,5.3-1.71,0-3.42,0-5.13,0,0,4.15,0,8.3,0,12.45-2.51,0-5.02,0-7.54,0,0-4.15.01-8.3,0-12.45-1.78.02-3.56-.02-5.34.02Z"/>
      <path class="cls-1" d="M60.24,68.88c2.37-5.91,4.7-11.83,7.06-17.74,2.61,0,5.22,0,7.83,0,2.44,5.91,4.85,11.83,7.29,17.75-2.44,0-4.89.02-7.33-.01-1.26-3.48-2.55-6.94-3.82-10.42-.07.12-.13.25-.18.38-1.21,3.35-2.41,6.71-3.62,10.06-2.41,0-4.82.01-7.24,0Z"/>
      <path class="cls-1" d="M90.28,51.37c2.6.01,5.21-.07,7.81.16,1.48.15,2.69,1.3,3.22,2.65.51,1.36.54,2.88.23,4.29-.36,1.5-1.43,2.94-2.98,3.34-1.72.42-3.5.29-5.26.31,0,2.17,0,4.34,0,6.51-1.01.01-2.02,0-3.03,0v-17.26M93.31,54.33c0,1.62,0,3.24,0,4.85,1.08,0,2.17.02,3.25-.07.66-.05,1.29-.39,1.65-.95.41-.59.42-1.35.33-2.04-.16-.84-.85-1.62-1.73-1.7-1.16-.17-2.33-.07-3.5-.09Z"/>
      <path class="cls-1" d="M118.98,51.37h3.09c.77,3.9,1.44,7.82,2.25,11.71.91-3.9,1.8-7.81,2.72-11.71h3.59c.86,3.97,1.74,7.94,2.6,11.92.83-3.96,1.54-7.95,2.31-11.92,1.01,0,2.03,0,3.05,0-1.21,5.75-2.41,11.51-3.65,17.26-1.06,0-2.11,0-3.17,0-1.04-4.27-1.98-8.56-3.01-12.83-.98,4.28-1.96,8.55-2.95,12.83h-3.27c-1.16-5.76-2.4-11.5-3.55-17.26Z"/>
      <path class="cls-1" d="M140.1,51.37c3.71,0,7.42,0,11.13,0v2.96c-2.7,0-5.4,0-8.09,0-.02,1.26,0,2.52,0,3.78,2.51,0,5.03,0,7.54,0,.01.97,0,1.93,0,2.9-2.52,0-5.03,0-7.55,0,0,1.55,0,3.11,0,4.66,2.79,0,5.57,0,8.36,0,0,.98,0,1.97,0,2.96h-11.4v-17.26Z"/>
      <path class="cls-1" d="M154.04,51.37c2.08,0,4.16,0,6.24,0,1.31.12,2.72-.01,3.91.65,1.3.77,2,2.29,2.05,3.76.09,1.39-.19,2.9-1.21,3.91-.7.75-1.68,1.12-2.65,1.33,1.75,1.12,2.64,3.08,3.61,4.83.5.93.99,1.86,1.51,2.78-1.2,0-2.41,0-3.62,0-1.28-2.09-2.4-4.29-3.81-6.29-.67-.98-1.96-.93-3.02-.93,0,2.41,0,4.81,0,7.22-1.01,0-2.01,0-3.02,0v-17.26M157.06,54.33c0,1.45,0,2.89,0,4.34,1.57-.04,3.15.1,4.71-.14,1.2-.24,1.6-1.72,1.29-2.76-.15-.83-.96-1.39-1.77-1.4-1.41-.07-2.82-.02-4.23-.03Z"/>
    </g>
  </g>
</svg>