<?xml version="1.0" encoding="UTF-8"?>
<svg id="Layer_1" data-name="Layer 1" xmlns="http://www.w3.org/2000/svg" viewBox="0 0 175 120">
  <defs>
    <style>
      .cls-1 {
        fill: none;
        stroke: #fff;
        stroke-miterlimit: 10;
        stroke-width: 2px;
      }

      .cls-2 {
        fill: #58595b;
      }

      .cls-2, .cls-3, .cls-4, .cls-5, .cls-6 {
        stroke-width: 0px;
      }

      .cls-3 {
        fill: #343738;
      }

      .cls-7 {
        opacity: .9;
      }

      .cls-4 {
        fill: #c6e9f9;
      }

      .cls-5 {
        fill: #8dd7f7;
      }

      .cls-6 {
        fill: #fff;
      }
    </style>
  </defs>
  <g>
    <path class="cls-3" d="M42.42,57.09v-.74c0-.95-.11-1.79-.21-2.74h-.63v-.21l.53-.32c-.21-1.16-.63-2.21-1.16-3.27l-.63.11c0-.11-.11-.11-.11-.21l.42-.42c-.53-1.05-1.16-2-1.9-2.85l-.53.32c0-.11-.11-.11-.11-.21l.32-.53c-.74-.84-1.69-1.58-2.64-2.32l-.42.42c-.11,0-.11-.11-.21-.11l.21-.63c-.95-.63-2-1.16-3.06-1.58l-.32.53q-.11,0-.21-.11v-.63c-1.05-.32-2.21-.63-3.37-.63l-.21.63h-.21l-.21-.53h-.74c-.95,0-1.79.11-2.74.21v.63h-.21l-.32-.53c-1.16.21-2.21.53-3.27,1.05l.11.63c-.11,0-.11.11-.21.11l-.42-.42c-1.05.53-2,1.16-2.85,1.9l.32.53c-.11,0-.11.11-.21.11l-.53-.32c-.84.74-1.58,1.69-2.32,2.64l.42.42c0,.11-.11.11-.11.21l-.53-.21c-.63.95-1.16,2-1.58,3.06l.53.42q0,.11-.11.21h-.63c-.32,1.05-.63,2.21-.63,3.37l.63.21v.21l-.63.11v.74c0,.95.11,1.79.21,2.74h.63v.21l-.53.32c.21,1.16.63,2.21,1.16,3.27l.63-.11c0,.11.11.11.11.21l-.42.42c.53,1.05,1.16,2,1.9,2.85l.53-.32c0,.11.11.11.11.21l-.32.53c.74.84,1.69,1.58,2.64,2.32l.42-.42c.11,0,.11.11.21.11l-.21.63c.95.63,2,1.16,3.06,1.58l.32-.53q.11,0,.21.11v.63c1.05.32,2.21.63,3.37.63l.21-.63h.21l.11.63h.74c.95,0,1.79-.11,2.74-.21v-.63h.21l.32.53c1.16-.21,2.21-.63,3.27-1.16l-.11-.63c.11,0,.11-.11.21-.11l.42.42c1.05-.53,2-1.16,2.85-1.9l-.32-.53c.11,0,.11-.11.21-.11l.53.32c.84-.74,1.58-1.69,2.32-2.64l-.42-.42c0-.11.11-.11.11-.21l.63.21c.63-.95,1.16-2,1.58-3.06l-.53-.32q0-.11.11-.21h.63c.32-1.05.63-2.21.63-3.37l-.63-.21v-.21l.63-.21ZM36.94,56.35c0,5.48-4.43,9.91-9.91,9.91s-9.91-4.43-9.91-9.91,4.43-9.91,9.91-9.91c5.48,0,9.91,4.43,9.91,9.91Z"/>
    <g>
      <path class="cls-2" d="M39.26,87.04v-11.28h.84v10.54h6.64v.74h-7.49Z"/>
      <path class="cls-2" d="M64.04,87.04l-1.48-3.16h-6.64l-1.48,3.16h-.84l5.27-11.39h.84l5.27,11.39h-.95ZM59.29,76.6l-2.95,6.54h5.9l-2.95-6.54Z"/>
      <path class="cls-2" d="M76.69,87.14c-2.74,0-4.64-1.69-4.64-4.85v-6.64h.84v6.54c0,2.64,1.48,4.22,3.8,4.22s3.8-1.37,3.8-4.11v-6.64h.84v6.54c0,3.27-1.9,4.96-4.64,4.96Z"/>
      <path class="cls-2" d="M98.52,87.04l-7.91-10.02v10.02h-.84v-11.28h.74l7.8,9.81v-9.81h.84v11.28h-.63Z"/>
      <path class="cls-2" d="M111.59,87.04h-3.8v-11.28h3.8c3.59,0,6.01,2.43,6.01,5.59h0c0,3.16-2.43,5.69-6.01,5.69ZM116.76,81.34c0-2.64-2-4.85-5.17-4.85h-2.95v9.7h2.95c3.16,0,5.17-2.11,5.17-4.85h0Z"/>
      <path class="cls-2" d="M133.95,87.04l-3.59-4.64h-3.69v4.64h-.84v-11.28h4.75c2.43,0,4.01,1.37,4.01,3.16h0c0,1.9-1.37,2.95-3.27,3.27l3.69,4.85h-1.05ZM133.74,79.02c0-1.48-1.16-2.43-3.27-2.43h-3.9v5.06h3.8c2-.11,3.37-1.05,3.37-2.64h0Z"/>
      <path class="cls-2" d="M146.92,82.5v4.43h-.84v-4.43l-4.85-6.85h1.05l4.22,6.01,4.22-6.01h.95l-4.75,6.85Z"/>
    </g>
    <polygon class="cls-3" points="38.84 73.96 151.03 72.38 163.26 45.18 18.17 35.47 38.84 73.96"/>
    <g>
      <path class="cls-6" d="M65.62,50.03h3.27l2.85,10.23,3.06-10.33h2.53l3.06,10.33,2.85-10.23h3.16l-4.75,15.18h-2.64l-3.06-9.91-3.06,9.91h-2.64l-4.64-15.18Z"/>
      <path class="cls-6" d="M88.5,50.03h2.95v6.01h5.59v-6.01h2.95v15.08h-2.95v-6.12h-5.59v6.12h-2.95v-15.08Z"/>
      <path class="cls-6" d="M103.37,50.03h10.33v2.95h-7.28v3.06h6.43v2.95h-6.43v3.16h7.38v2.95h-10.44v-15.08Z"/>
      <path class="cls-6" d="M116.45,50.03h10.33v2.95h-7.28v3.06h6.43v2.95h-6.43v3.16h7.38v2.95h-10.44v-15.08Z"/>
      <path class="cls-6" d="M129.52,50.03h2.95v12.13h6.85v3.06h-9.81v-15.18Z"/>
      <path class="cls-6" d="M140.59,63l1.79-2.32c1.27,1.16,2.53,1.79,4.11,1.79,1.27,0,2-.53,2-1.48h0c0-.84-.42-1.27-2.74-1.9-2.74-.74-4.53-1.58-4.53-4.64h0c0-2.74,2-4.53,4.75-4.53,2,0,3.69.74,5.06,1.9l-1.58,2.53c-1.16-.95-2.43-1.48-3.59-1.48s-1.79.63-1.79,1.37h0c0,.95.63,1.37,2.95,2,2.74.84,4.32,1.9,4.32,4.53h0c0,2.95-2.11,4.64-5.06,4.64-1.9,0-4.01-.84-5.69-2.43Z"/>
    </g>
    <g>
      <path class="cls-6" d="M26.08,67.95c-6.85,0-11.39-5.48-11.39-11.7v-.11c0-6.22,4.53-11.7,11.49-11.7s11.39,5.48,11.39,11.7v.11c-.11,6.12-4.64,11.7-11.49,11.7ZM35.78,56.25c0-5.59-4.11-10.23-9.7-10.23s-9.6,4.53-9.6,10.12v.11c0,5.59,4.11,10.23,9.7,10.23,5.48-.11,9.6-4.64,9.6-10.23h0Z"/>
      <path class="cls-6" d="M57.61,67.53l-16.03-20.14v20.14h-1.58v-22.67h1.58l15.61,19.72v-19.72h1.58v22.67h-1.16Z"/>
    </g>
    <g>
      <path class="cls-6" d="M143.12,40.22c.84-.84,1.69-2,1.69-3.27,0-.53-.21-.95-.53-1.27-.21-.21-.42-.32-.74-.42-.32-.21-.53-.32-.84-.53-1.16-.63-2.43-1.27-3.8-1.48-1.27-.11-2.32.21-3.48.74-1.05.53-2.11,1.16-3.37,1.48s-2.53.21-3.9.53c-.95.21-1.9.53-2.64,1.27-.84.84-1.16,2.11-1.37,3.27-.11.84,0,1.58.53,2.21.21.21.53.63.84.63h1.05c.63-.11,1.16-.11,1.79-.21,3.37-.53,6.64-1.16,10.02-1.9,1.69-.42,3.16-.74,4.75-1.05Z"/>
      <path class="cls-3" d="M125.94,43.7c-.21,0-.53,0-.63-.11s-.21-.21-.32-.32c-.21-.21-.42-.42-.63-.63-.53-.74-.42-1.69-.32-2.64.21-1.16.63-2.32,1.58-3.16.74-.74,1.79-1.05,2.85-1.16,1.37-.21,2.74-.11,4.11-.63,1.48-.53,2.64-1.37,4.11-1.9s2.95-.32,4.43.32c.63.32,1.27.63,1.9.95.32.21.63.42.95.53.32.21.63.32.84.63.84.95.32,2.43-.21,3.37-.21.32-.42.63-.63.84-.11.11-.21.32-.42.42-.11.11-.11.21-.21.21s-.21,0-.21.11c-1.16.21-2.32.53-3.37.74-3.69.74-7.28,1.58-10.97,2.11-1.16.11-2,.32-2.85.32ZM125.62,43.07c1.27,0,2.64-.21,3.9-.42,1.9-.32,3.8-.74,5.69-1.05,1.79-.32,3.59-.74,5.27-1.16.63-.11,1.16-.21,1.79-.42.21,0,.32-.11.53-.11.42-.11.63-.53.84-.84.63-.84,1.37-2.43.42-3.27-.21-.21-.63-.42-.84-.53-.32-.21-.63-.42-1.05-.63-.63-.32-1.27-.63-1.9-.95-.74-.21-1.48-.42-2.21-.32-.84,0-1.58.32-2.21.63-1.37.63-2.53,1.37-4.01,1.79-1.27.32-2.64.21-3.9.53-.95.21-1.9.74-2.43,1.58-.32.53-.53,1.16-.74,1.69-.11.53-.32,1.16-.21,1.69,0,.74.42,1.16.95,1.58-.11.11,0,.21.11.21Z"/>
      <path class="cls-3" d="M143.86,35.37c-1.69-.84-3.27-2-5.27-2.21,1.16.42,2.32.95,3.27,1.9.53.53,1.05,1.27.53,2-.63.95-2.11.84-3.06,1.27-.21.11-.53.32-.21.53.32.32.84.42,1.27.53.74.21,1.58.32,2.32.42.21,0,.42.11.53.11s.21.11.21,0c.11-.11.11-.21.21-.32.21-.32.42-.63.63-.95.63-1.16.84-2.64-.42-3.27-1.48-.84,1.58.74,0,0Z"/>
      <path class="cls-6" d="M145.86,42.12c-.74-.42-.11-1.16-.11-1.69.11-.84-.63-1.48-1.37-1.9-1.58-.84-3.48-1.05-5.27-1.16-2.21-.11-4.53-.11-6.75.32-1.79.32-3.59.63-5.06,1.79-.84.63-1.48,1.27-2.11,2s-1.16,1.48-1.37,2.32c-.21.74-.11,1.48.53,1.9.11.11.42.32.53.21.11-.11.21-.11.21-.21.21-.11.42-.32.63-.42,1.48-.95,3.27-1.48,5.06-1.79,2.85-.53,5.8-.53,8.65-.11,1.69.21,3.48.63,5.06,1.37.53.32,1.05.63,1.48,1.05.11.11.11.32.11.42,1.27-1.16,1.27-3.37-.21-4.11-1.27-.63,1.27.53,0,0Z"/>
      <path class="cls-3" d="M145.97,46.55c0-.11,0-.32-.11-.42,0-.11,0-.32-.11-.32l-.21-.21c-.32-.21-.63-.42-.95-.63-1.48-.84-3.06-1.16-4.75-1.48-2.85-.42-5.9-.53-8.75,0-1.27.21-2.53.53-3.69,1.05-.53.21-1.05.53-1.58.84-.21.11-.42.32-.63.42-.11.11-.21.11-.21.21q-.11.11-.21,0c-2.53-1.05-.63-3.8.53-5.17.74-.84,1.58-1.58,2.53-2.21.95-.63,2-.95,3.06-1.16,2.95-.63,6.01-.74,8.96-.53,1.27.11,2.64.32,3.9.74.95.32,2.11,1.05,2.21,2.21,0,.21,0,.53-.11.74s-.21.53-.21.74c0,.11.11.21.21.21.21.11.32.21.53.32.32.21.53.53.63.95.32.74.32,1.58,0,2.21-.21.74-.63,1.16-1.05,1.48ZM135.32,42.75c2.53,0,5.06.21,7.38.95,1.05.32,2.21.74,3.06,1.48.21.11.32.32.42.42.42-.53.53-1.27.42-2-.11-.32-.21-.63-.42-.84-.21-.32-.53-.42-.74-.63-.42-.32-.32-.84-.21-1.27.21-.53.21-.95,0-1.37-.53-.84-1.58-1.16-2.43-1.37-1.37-.32-2.74-.53-4.11-.53-1.69-.11-3.27,0-4.96.11-1.37.11-2.74.42-4.11.84-.95.32-1.79.84-2.64,1.48-.84.74-1.69,1.58-2.32,2.64-.42.74-1.05,1.9-.32,2.64.11.11.21.21.32.32.11,0,.11.11.21,0,.11,0,.11-.11.21-.11.21-.21.42-.32.63-.42.53-.32,1.05-.53,1.58-.84,2.53-1.16,5.27-1.48,8.01-1.48Z"/>
      <path class="cls-3" d="M145.34,42.43c-1.37-.21-2.64-.63-3.9-1.27-1.48-.63-2.95-1.27-4.64-1.48-1.69-.21-3.37-.21-4.96.11-.74.11-1.48.42-2.21.74-.63.32-1.16.74-1.69,1.16.53-.53.95-.95,1.58-1.27.63-.42,1.37-.63,2.21-.84,1.58-.42,3.27-.53,4.96-.32,1.69.11,3.16.63,4.75,1.27,1.27.53,2.64.95,4.01,1.05-.11.32-.11.53-.11.84Z"/>
      <path class="cls-3" d="M131.1,35.47c1.58.11,3.16.11,4.75-.11,1.69-.21,3.37-.74,4.85.42-1.48-1.05-3.06-.42-4.64-.11-1.58.32-3.27.32-4.85.32-.11-.21-.11-.42-.11-.53Z"/>
      <path class="cls-3" d="M135.64,43.07c2.43-.11,5.06.11,7.38.95,1.05.42,2.21.84,3.06,1.58.21.11.21.21.42.42.84-.84,1.27-2.11.63-3.16-.21-.42-.53-.74-.95-.84-.21-.11-.63,0-.63-.42,0-.32.21-.63.32-.95.11-.42.11-.95-.21-1.37-.53-.95-1.79-1.27-2.74-1.58-1.37-.32-2.74-.53-4.22-.53.74.11,1.48.32,2.21.63.42.21.84.42,1.05.84.53.84-.63,1.48-1.27,1.69.21.21.42.42.63.74.11.11.21.32.32.42.11.32-.11.63-.42.74-.53.32-1.27.42-1.9.53-1.16.32-2.43.32-3.69.32Z"/>
      <path class="cls-6" d="M138.06,41.27c2.21.53,2.64,2.95,2.53,4.96-.11.63-.21,1.37-.32,2-.11.32-.21.63-.32,1.05-.11.21-.11.32-.21.53,0,.11-.11.21-.11.21-.11,0-.21.11-.32.11-1.16.32-2.64.11-3.37-.84-.11-.11-.11-.21-.21-.32v-.21c.11-.21.11-.32.21-.53.11-.42.21-.74.21-1.16.11-.84.21-1.69.11-2.53-.11-.74-.32-1.58-.74-2.11-.53-.63-1.27-.84-2-.84-.21,0-.42,0-.63.11l5.17-.42Z"/>
      <path class="cls-3" d="M138.06,41.27c3.59.84,2.85,5.69,2,8.33-.11.21-.11.53-.32.63-.42.11-.74.21-1.16.21-.74,0-1.58-.11-2.21-.63-.32-.21-.53-.42-.63-.74,0-.11-.11-.21-.11-.32s.11-.32.21-.42c.21-.74.42-1.58.53-2.43.11-1.05.11-2.32-.53-3.37-.63-.95-1.69-1.16-2.74-1.05.74-.11,1.58-.11,2.21.32.63.42.95,1.16,1.16,1.9.42,1.69.11,3.48-.42,5.06v-.11c.63,1.37,2.53,1.48,3.8,1.05l-.11.11c.74-2.43,1.9-7.38-1.69-8.54q.21.11,0,0Z"/>
      <path class="cls-3" d="M136.37,46.44c.53.84,1.79,1.37,2.85,1.37-1.16,0-2.43-.32-3.16-1.16.11,0,.21-.11.32-.21Z"/>
      <path class="cls-3" d="M137.22,48.44c0,.42-.74.42-.74,0,0-.53.74-.53.74,0Z"/>
    </g>
  </g>
  <g>
    <path class="cls-3" d="M36.09,56.35c0,5.48-4.43,9.81-9.81,9.81s-9.81-4.43-9.81-9.81,4.43-9.81,9.81-9.81,9.81,4.43,9.81,9.81Z"/>
    <path class="cls-5" d="M26.29,64.47c4.43,0,8.12-3.37,8.12-7.59,0-1.05-.21-2-.63-2.95-.11,0-.32-.11-.63-.11-1.05,0-1.05.95-2,.95s-.95-.95-2-.95c-.95,0-.95.95-2,.95-.95,0-.95-.95-2-.95-.95,0-.95.95-2,.95-.95,0-.95-.95-2-.95-.95,0-.95.95-2,.95-.21,0-.42-.11-.63-.21-.21.74-.42,1.48-.42,2.32.11,4.22,3.69,7.59,8.22,7.59Z"/>
    <path class="cls-4" d="M26.29,64.47c4.53,0,8.12-3.27,8.12-7.38,0-.42,0-.74-.11-1.16-.21-.11-.42-.11-.74-.11-1.05,0-1.05.95-2.11.95s-1.05-.95-2.11-.95-1.05.95-2.11.95-1.05-.95-2.11-.95-1.05.95-2.11.95-1.05-.95-2.11-.95-1.05.95-2.11.95c-.21,0-.42-.11-.63-.21v.53c0,4.11,3.59,7.38,8.12,7.38Z"/>
    <path class="cls-6" d="M32.4,51.08c-.63,3.59-.63,7.28,0,10.86,1.27-1.37,2.32-3.27,2.11-5.38-.32-2.11-1.05-4.01-2.11-5.48Z"/>
    <path class="cls-1" d="M36.62,56.14c0,5.69-4.53,10.23-10.23,10.23s-10.23-4.53-10.23-10.23,4.53-10.23,10.23-10.23c5.59,0,10.23,4.53,10.23,10.23Z"/>
    <path class="cls-3" d="M27.24,49.29c.42.74,1.48,1.16,2.32,1.16-.95,0-2-.21-2.64-.95q.21-.11.32-.21Z"/>
    <path class="cls-3" d="M27.87,50.87c0,.42-.63.42-.63,0,.11-.32.63-.32.63,0Z"/>
  </g>
  <g class="cls-7">
    <path class="cls-6" d="M21.44,49.08c-.63.21-1.16.63-1.48,1.16-.32.63-.53,1.27-.53,1.9,0,.42.53.42.53,0,0-1.05.42-2.11,1.58-2.53.42-.11.21-.63-.11-.53Z"/>
  </g>
</svg>