<?xml version="1.0" encoding="UTF-8"?>
<svg xmlns="http://www.w3.org/2000/svg" xmlns:xlink="http://www.w3.org/1999/xlink" viewBox="0 0 175 120">
  <defs>
    <style>
      .cls-1 {
        fill: #5a8039;
      }

      .cls-1, .cls-2, .cls-3, .cls-4, .cls-5, .cls-6, .cls-7, .cls-8 {
        stroke-width: 0px;
      }

      .cls-2, .cls-5, .cls-8 {
        fill: #e0bb32;
      }

      .cls-3 {
        fill: url(#linear-gradient);
      }

      .cls-4 {
        fill: #ede783;
      }

      .cls-5 {
        opacity: .7;
      }

      .cls-5, .cls-8 {
        mix-blend-mode: multiply;
      }

      .cls-6 {
        fill: url(#linear-gradient-2);
      }

      .cls-7 {
        fill: #19171c;
      }

      .cls-9 {
        isolation: isolate;
      }
    </style>
    <linearGradient id="linear-gradient" x1="124.24" y1="77.91" x2="124.24" y2="70.73" gradientUnits="userSpaceOnUse">
      <stop offset="0" stop-color="#88b172"/>
      <stop offset=".01" stop-color="#88b172"/>
      <stop offset=".5" stop-color="#79a34f"/>
      <stop offset="1" stop-color="#5a8039"/>
    </linearGradient>
    <linearGradient id="linear-gradient-2" x1="14.24" y1="74.32" x2="87.28" y2="74.32" xlink:href="#linear-gradient"/>
  </defs>
  <g class="cls-9">
    <g id="Layer_1" data-name="Layer 1">
      <g>
        <g>
          <g>
            <path class="cls-3" d="M116.08,74.56c-.37.19-12.85,4.45-28.36-1.36,0,0,7.97,7.85,28.3,3.28,20.33-4.57,32.81-6.22,44.74,1.43,0,0-6.32-7.17-22.3-7.17-6.03,0-13.42,1.02-22.37,3.83"/>
            <path class="cls-6" d="M14.24,77.91c11.93-7.65,24.41-6,44.74-1.43,20.33,4.57,28.3-3.28,28.3-3.28-15.51,5.81-27.99,1.54-28.36,1.36-8.95-2.81-16.35-3.83-22.37-3.83-15.98,0-22.3,7.17-22.3,7.17"/>
          </g>
          <path class="cls-1" d="M123.37,83.9v2.34h-.06c-.57-.84-1.31-1.49-2.24-1.94-.93-.46-1.92-.69-2.97-.69-1,0-1.9.17-2.72.52-.82.35-1.52.83-2.1,1.46-.58.63-1.02,1.37-1.33,2.22-.31.85-.46,1.78-.46,2.77,0,1.31.27,2.51.82,3.61.55,1.09,1.33,1.96,2.34,2.59,1.01.63,2.18.95,3.51.95,1.03,0,2.03-.25,2.99-.74.96-.49,1.69-1.15,2.16-1.99h.06v2.43h1.32v-13.52h-1.32ZM120.26,85.26c.66.28,1.24.68,1.71,1.19.48.51.84,1.11,1.1,1.79.25.68.38,1.41.38,2.18,0,1.1-.21,2.11-.62,3.03-.41.92-1.02,1.66-1.83,2.21-.81.55-1.77.82-2.87.82s-1.99-.27-2.8-.81c-.81-.54-1.43-1.27-1.87-2.18-.44-.91-.66-1.88-.66-2.92,0-.72.13-1.43.39-2.13.26-.7.62-1.32,1.09-1.86.47-.54,1.02-.97,1.67-1.28.64-.31,1.34-.47,2.11-.47.81,0,1.55.14,2.22.43ZM103.92,83.9v13.52h1.32v-7.58c0-.91.06-1.72.17-2.43.11-.7.37-1.31.78-1.82.41-.51,1.02-.76,1.83-.76.3,0,.62.09.94.26l.7-1.17c-.48-.21-.96-.32-1.43-.32-1.37,0-2.34.68-2.93,2.04h-.06v-1.75h-1.32ZM97.57,91.54c0,1.6-.22,2.83-.67,3.67-.45.85-1.4,1.27-2.87,1.27-.77,0-1.4-.13-1.88-.39-.49-.26-.85-.62-1.09-1.07-.24-.45-.39-.96-.46-1.53-.07-.56-.11-1.22-.11-1.95v-7.64h-1.32v8.11c0,.61.01,1.12.04,1.52.03.41.1.81.22,1.23.12.41.3.8.55,1.14.45.59,1.04,1.04,1.77,1.35.73.31,1.49.46,2.27.46s1.55-.15,2.28-.46c.73-.31,1.31-.76,1.76-1.35.36-.5.59-1.04.68-1.63.09-.59.14-1.35.14-2.27v-8.11h-1.32v7.64ZM86.36,85.13v-1.23h-2.37v-4.83h-1.32v4.83h-1.49v1.23h1.49v12.29h1.32v-12.29h2.37ZM75.97,83.9v2.34h-.06c-.57-.84-1.31-1.49-2.24-1.94-.93-.46-1.92-.69-2.97-.69-1,0-1.9.17-2.72.52-.82.35-1.52.83-2.1,1.46-.58.63-1.02,1.37-1.33,2.22-.31.85-.46,1.78-.46,2.77,0,1.31.27,2.51.82,3.61.55,1.09,1.33,1.96,2.34,2.59,1.01.63,2.18.95,3.51.95,1.03,0,2.03-.25,2.99-.74.96-.49,1.69-1.15,2.16-1.99h.06v2.43h1.32v-13.52h-1.32ZM72.86,85.26c.66.28,1.24.68,1.71,1.19.48.51.84,1.11,1.1,1.79.25.68.38,1.41.38,2.18,0,1.1-.21,2.11-.62,3.03-.41.92-1.02,1.66-1.83,2.21-.81.55-1.77.82-2.87.82s-1.99-.27-2.8-.81c-.81-.54-1.43-1.27-1.87-2.18-.44-.91-.66-1.88-.66-2.92,0-.72.13-1.43.39-2.13.26-.7.62-1.32,1.09-1.86.47-.54,1.02-.97,1.67-1.28.64-.31,1.34-.47,2.11-.47.81,0,1.55.14,2.22.43ZM50.32,83.9v13.52h1.32v-6.68c0-1.06.1-2.03.31-2.91.2-.87.6-1.59,1.19-2.16.59-.56,1.41-.85,2.46-.85.92,0,1.62.19,2.1.56.48.38.79.88.93,1.5.14.63.21,1.41.21,2.35v8.17h1.32v-8.17c0-1.22-.13-2.25-.4-3.08-.27-.83-.73-1.46-1.38-1.9-.65-.44-1.54-.66-2.67-.66-.87,0-1.66.21-2.36.64-.7.42-1.25,1.01-1.65,1.77h-.06v-2.11h-1.32Z"/>
          <path class="cls-7" d="M121.03,103.47v.74h-.02c-.42-.56-.96-.84-1.62-.84-.41,0-.78.1-1.11.3-.33.2-.58.47-.76.81-.18.34-.27.72-.27,1.12s.09.77.26,1.11c.17.35.42.62.74.83.32.21.68.31,1.08.31.32,0,.64-.08.94-.23.3-.15.55-.36.74-.61h.02v.53c0,.34-.02.64-.07.9-.05.26-.15.5-.31.73-.15.22-.34.38-.59.48-.24.11-.51.16-.79.16s-.56-.06-.81-.18c-.25-.12-.45-.29-.6-.51-.15-.22-.24-.47-.25-.76h-.42c.02.38.13.71.32.99.19.28.44.49.76.63.31.14.66.22,1.04.22.35,0,.67-.07.97-.21.3-.14.55-.35.75-.61.18-.25.3-.52.35-.79.05-.27.08-.62.08-1.03v-4.09h-.42ZM120.23,104c.26.16.47.37.61.64.14.27.21.57.21.9,0,.35-.07.67-.2.96-.13.29-.33.53-.58.7-.26.17-.56.26-.91.26s-.63-.09-.89-.26c-.26-.17-.46-.4-.6-.69-.14-.29-.21-.6-.21-.93,0-.23.04-.46.12-.68.08-.22.2-.42.35-.59.15-.17.33-.31.53-.41.2-.1.43-.15.67-.15.34,0,.64.08.9.23ZM112.81,103.47v4.3h.42v-2.12c0-.34.03-.65.1-.92.07-.28.19-.51.38-.69s.45-.27.78-.27c.29,0,.52.06.67.18.15.12.25.28.3.48.05.2.07.45.07.75v2.6h.42v-2.6c0-.39-.04-.72-.13-.98-.08-.26-.23-.46-.44-.61-.21-.14-.49-.21-.85-.21-.28,0-.53.07-.75.2-.22.13-.4.32-.52.56h-.02v-.67h-.42ZM110.5,101.77c-.07.08-.11.17-.11.27s.04.2.11.27c.07.07.16.11.27.11s.2-.04.27-.11c.07-.07.11-.16.11-.27s-.04-.19-.11-.27c-.07-.07-.16-.11-.27-.11s-.2.04-.27.11ZM110.56,103.47v4.3h.42v-4.3h-.42ZM105.7,104.52c.16-.23.36-.41.61-.55.25-.14.51-.2.8-.2s.55.07.78.21c.24.14.43.32.58.55.15.23.24.48.27.74h-3.31c.02-.27.11-.51.27-.75ZM108.91,104.51c-.17-.35-.4-.62-.72-.83-.31-.2-.68-.31-1.1-.31s-.77.1-1.09.3c-.32.2-.56.47-.74.82-.17.34-.26.71-.26,1.11s.09.78.26,1.13c.17.34.42.62.73.82.32.2.68.3,1.09.3s.8-.1,1.13-.3c.33-.2.6-.49.79-.86l-.35-.2c-.16.3-.37.53-.63.71-.26.18-.56.27-.89.27s-.62-.07-.88-.22c-.26-.15-.47-.36-.62-.63-.15-.28-.22-.6-.22-.96h3.73c0-.41-.08-.8-.25-1.14ZM100.4,107.77v-.77h.02c.15.27.38.48.69.63.31.16.62.23.95.23.42,0,.79-.1,1.12-.3.32-.2.57-.47.75-.82.17-.35.26-.73.26-1.15s-.09-.79-.26-1.13c-.17-.34-.42-.6-.74-.8-.32-.19-.69-.29-1.1-.29-.33,0-.65.07-.94.22-.3.15-.53.35-.71.62h-.02v-4.12h-.42v7.68h.42ZM101.17,107.22c-.26-.17-.46-.4-.59-.68-.14-.29-.21-.6-.21-.93s.07-.65.2-.93c.14-.28.33-.5.59-.66.26-.16.56-.24.92-.24.24,0,.47.05.67.15.21.1.39.23.53.41.15.17.26.37.35.59.08.22.12.45.12.68,0,.33-.07.64-.21.93-.14.29-.34.52-.59.69-.26.17-.55.26-.89.26s-.64-.08-.9-.25ZM97.9,100.09v7.68h.42v-7.68h-.42ZM95.81,100.09v7.68h.42v-7.68h-.42ZM91.11,104.52c.16-.23.36-.41.61-.55.25-.14.51-.2.8-.2s.55.07.78.21c.24.14.43.32.58.55.15.23.24.48.27.74h-3.31c.02-.27.11-.51.27-.75ZM94.32,104.51c-.17-.35-.4-.62-.72-.83-.31-.2-.68-.31-1.1-.31s-.77.1-1.09.3c-.32.2-.56.47-.74.82-.17.34-.26.71-.26,1.11s.09.78.26,1.13c.17.34.42.62.73.82.32.2.68.3,1.09.3s.8-.1,1.13-.3c.33-.2.6-.49.79-.86l-.35-.2c-.16.3-.37.53-.63.71-.26.18-.56.27-.89.27s-.62-.07-.88-.22c-.26-.15-.47-.36-.62-.63-.15-.28-.22-.6-.22-.96h3.73c0-.41-.08-.8-.25-1.14ZM82.93,103.47l1.94,4.53,1.51-3.71,1.52,3.71,1.94-4.53h-.43l-1.49,3.53-1.53-3.76-1.52,3.76-1.52-3.53h-.43ZM75.78,104.52c.16-.23.36-.41.61-.55.25-.14.51-.2.8-.2s.55.07.78.21c.24.14.43.32.58.55.15.23.24.48.27.74h-3.31c.02-.27.11-.51.27-.75ZM78.99,104.51c-.17-.35-.4-.62-.72-.83-.31-.2-.68-.31-1.1-.31s-.77.1-1.09.3c-.32.2-.56.47-.74.82-.17.34-.26.71-.26,1.11s.09.78.26,1.13c.17.34.42.62.73.82.32.2.68.3,1.09.3s.8-.1,1.13-.3c.33-.2.6-.49.79-.86l-.35-.2c-.16.3-.37.53-.63.71-.26.18-.56.27-.89.27s-.62-.07-.88-.22c-.26-.15-.47-.36-.62-.63-.15-.28-.22-.6-.22-.96h3.73c0-.41-.08-.8-.25-1.14ZM73.49,105.9c0,.51-.07.9-.21,1.17-.14.27-.45.4-.91.4-.24,0-.44-.04-.6-.12-.16-.08-.27-.2-.35-.34-.07-.14-.12-.31-.15-.48-.02-.18-.04-.39-.04-.62v-2.43h-.42v2.58c0,.19,0,.36.01.48,0,.13.03.26.07.39.04.13.1.25.17.36.14.19.33.33.56.43.23.1.47.15.72.15s.49-.05.72-.15c.23-.1.42-.24.56-.43.12-.16.19-.33.22-.52.03-.19.04-.43.04-.72v-2.58h-.42v2.43ZM68.8,103.47v.77h-.02c-.15-.26-.38-.48-.69-.63-.31-.16-.62-.23-.95-.23s-.61.06-.88.18c-.26.12-.49.28-.67.49-.19.21-.33.45-.42.73-.1.27-.15.57-.15.89,0,.42.09.79.26,1.13.17.33.42.6.74.79.32.19.69.29,1.11.29.34,0,.66-.07.95-.22.3-.14.53-.35.7-.62h.02v3.26h.42v-6.81h-.42ZM68.03,104.03c.26.18.46.41.59.7.14.29.21.6.21.93s-.07.62-.21.89c-.14.28-.34.5-.59.66-.26.17-.55.25-.87.25s-.63-.08-.89-.23c-.26-.15-.46-.36-.6-.63-.14-.27-.21-.57-.21-.9,0-.35.07-.67.2-.97.13-.3.33-.54.58-.71.26-.18.56-.26.91-.26s.64.09.89.26ZM63.13,101.77c-.07.08-.11.17-.11.27s.04.2.11.27c.07.07.16.11.27.11s.2-.04.27-.11c.07-.07.11-.16.11-.27s-.04-.19-.11-.27c-.07-.07-.16-.11-.27-.11s-.2.04-.27.11ZM63.19,103.47v4.3h.42v-4.3h-.42ZM58.24,103.47v4.3h.42v-2.12c0-.34.03-.65.1-.92.07-.28.19-.51.38-.69s.45-.27.78-.27c.29,0,.52.06.67.18.15.12.25.28.3.48.05.2.07.45.07.75v2.6h.42v-2.6c0-.39-.04-.72-.13-.98-.08-.26-.23-.46-.44-.61-.21-.14-.49-.21-.85-.21-.28,0-.53.07-.75.2-.22.13-.4.32-.52.56h-.02v-.67h-.42ZM56.22,105.9c0,.51-.07.9-.21,1.17-.14.27-.45.4-.91.4-.24,0-.44-.04-.6-.12-.16-.08-.27-.2-.35-.34-.07-.14-.12-.31-.15-.48-.02-.18-.04-.39-.04-.62v-2.43h-.42v2.58c0,.19,0,.36.01.48,0,.13.03.26.07.39.04.13.1.25.17.36.14.19.33.33.56.43.23.1.47.15.72.15s.49-.05.72-.15c.23-.1.42-.24.56-.43.12-.16.19-.33.22-.52.03-.19.04-.43.04-.72v-2.58h-.42v2.43Z"/>
          <g>
            <path class="cls-2" d="M86.82,9.72c-26.06,34.01.68,62.48.68,62.48,25.42-33.8-.68-62.48-.68-62.48Z"/>
            <path class="cls-2" d="M140.99,39.91c-42.53-5.19-53.49,32.3-53.49,32.3,42.03,4.75,53.49-32.3,53.49-32.3Z"/>
            <path class="cls-8" d="M87.5,72.2s-10.97-37.49-53.49-32.3c0,0,11.46,37.05,53.49,32.3Z"/>
            <path class="cls-5" d="M119.08,18.28c-47.64,12.36-31.58,53.92-31.58,53.92,42.94-11.43,31.58-53.92,31.58-53.92Z"/>
            <path class="cls-5" d="M87.5,72.2s16.06-41.56-31.58-53.92c0,0-11.36,42.49,31.58,53.92Z"/>
          </g>
        </g>
        <g>
          <path class="cls-4" d="M81.37,18.09s-7.69,12.42-5.62,27.94c0,0,1.14,14.64,11.78,26.17,0,0-5.43-18.04.04-29.86,0,0,3.7-9.02,9.31-13.16,0,0-8.54-.22-14.9,13.23,0,0-5.87-.74-.62-24.32Z"/>
          <ellipse class="cls-4" cx="84.54" cy="28.51" rx="4.36" ry="2.59" transform="translate(39.97 105.8) rotate(-78.66)"/>
          <ellipse class="cls-4" cx="91.64" cy="47.73" rx="1.71" ry="1.01" transform="translate(30.57 131.07) rotate(-81.28)"/>
          <path class="cls-4" d="M87.58,72.19s5.77-15.23-1.33-22.77c0,0,2.81-.3,5.91,6.8,0,0,3.4-2.66,2.22-14.64,0,0,6.36,19.07-6.8,30.6Z"/>
        </g>
      </g>
    </g>
  </g>
</svg>