<?xml version="1.0" encoding="UTF-8"?>
<svg id="Layer_1" data-name="Layer 1" xmlns="http://www.w3.org/2000/svg" xmlns:xlink="http://www.w3.org/1999/xlink" viewBox="0 0 175 120">
  <defs>
    <style>
      .cls-1 {
        fill: url(#radial-gradient);
      }

      .cls-1, .cls-2, .cls-3 {
        stroke-width: 0px;
      }

      .cls-2 {
        fill: #d91f27;
        filter: url(#drop-shadow-1);
      }

      .cls-3 {
        fill: #fff;
      }
    </style>
    <radialGradient id="radial-gradient" cx="118.51" cy="301.97" fx="118.51" fy="301.97" r="58.67" gradientTransform="translate(-26.7 -182.48) scale(.96 .8)" gradientUnits="userSpaceOnUse">
      <stop offset="0" stop-color="#5c1310"/>
      <stop offset=".01" stop-color="#5e1310"/>
      <stop offset=".17" stop-color="#701614"/>
      <stop offset=".33" stop-color="#7c1817"/>
      <stop offset=".5" stop-color="#801918"/>
      <stop offset="1" stop-color="#5c1310"/>
    </radialGradient>
    <filter id="drop-shadow-1" filterUnits="userSpaceOnUse">
      <feOffset dx="2.49" dy="2.49"/>
      <feGaussianBlur result="blur" stdDeviation="1.78"/>
      <feFlood flood-color="#121617" flood-opacity=".75"/>
      <feComposite in2="blur" operator="in"/>
      <feComposite in="SourceGraphic"/>
    </filter>
  </defs>
  <rect class="cls-1" x="23.54" y="20.03" width="127.92" height="79.95"/>
  <g>
    <path class="cls-2" d="M67.62,70.58c1.08-.42,2.34-1.17,2.34-1.17l2.24.1s-1.53,1.51-4.58,1.07ZM66.97,69.01l-2.01-.15s-1.41.7-2.8.98c3.43.78,4.8-.83,4.8-.83ZM69.42,49.09c0-2.38-.2-3.43-.14-4.32.06-.89-1.53-1.2-2.08-1.05-.56.15-3.87,1.07-5.03,1.37-1.16.3-1.42.87-1.43,1.15-.01.28-.07,1.34-.07,1.34,1.52-1.05,5.92-2.56,5.92-2.56,0,0,.06-.19.36-.43.3-.24.88-.17.72.15-.16.32-.75,1.53-1.08,2.21-.33.68.4,1.75,2.84,2.13ZM59.55,40.37c1.29.03,2.16.68,2.16.68l2.23-.52s-2.2-1.17-4.39-.16ZM63.87,39.11c1.89.25,2.68.8,2.68.8l2.07-.51s-2.05-1.15-4.75-.29ZM60.14,46.67s-2.96.9-1.55,2.78c.14-1.13,1.51-1.46,1.51-1.46-.2-.24.04-1.32.04-1.32ZM87.38,63.19c2.05,1.28,8.48,1.02,6.3-2.54l-.04.03c-1.2,1.08-3.16,2.24-6.19,2.5h-.07ZM95.22,58.7s-.36.79-1.3,1.71c0,0,.42.38.58,1.07,2.3-1.42.71-2.78.71-2.78ZM86.27,44.46c2.71.13,4.56,1.09,5.72,2l.04.03c1.59-3.23-4.12-3.23-5.82-2.03h.06ZM92.69,45.73c-.08.61-.42.97-.42.97.91.78,1.31,1.47,1.31,1.47,0,0,1.28-1.26-.89-2.44ZM99.29,54.95c.09.36-.33.7-.93.75-.61.05-1.16-.2-1.25-.56-.09-.36.33-.7.94-.75.61-.05,1.17.2,1.25.56ZM98.03,55.1c.03.11.2.19.39.18.19-.02.32-.12.29-.24-.03-.11-.2-.19-.39-.18-.19.02-.32.12-.29.24ZM98.97,51.4c.09.36-.33.7-.94.75-.61.05-1.16-.2-1.25-.56-.09-.36.33-.7.94-.75.6-.05,1.16.2,1.25.56ZM97.71,51.54c.03.11.2.19.39.18.19-.02.32-.12.29-.24-.03-.12-.2-.19-.39-.18-.19.02-.32.12-.29.24ZM113.63,31.47c3.82-.33,12.63.35,14.6,6.02,1.28,3.5-1.71,6.61-1.26,8.45.44,1.83,1.98,2.32,2.11,2.37.13.08-.15.18-.43.04-.19-.15-1.55-.53-1.98-2.3s2.32-4.76,1.1-8.13c-1.88-5.47-10.83-6.27-14.38-5.97-1.73.15-3.19.58-4.42,1.17,11.66,2.2,19.82,10.71,13.42,17.05h0c3.41.46,3.76,2.82,2.13,3.88,0,0-.05.04-.08.03-.03-.01.02-.06.02-.06,1.5-1.08,1.07-3.33-2.19-3.74h0c-.22.21-.44.41-.69.61-.35.28-.6.17-.76-.12-.04-.07-.17-.28-.33-.53-.07,0-.14,0-.21.01-4.15.32-9.04,2.33-12.94,2.76h0c5.56.11,11.14,3.27,15.26,3.81h0l2.88-1.4s.21-.1.26.12c.17.35.29.72.37,1.1h0c2.61-.57,2.84-1.91,2.73-2.68,0,0-.03-.05.02-.05.05,0,.05.04.05.04.17.72.11,2.27-2.77,2.89.62,3.89-3.25,9.23-9.46,12.74,10.63,1.03,12.65-5.9,12.28-8.05-.33-1.94,1.9-3.58,1.9-3.58,0,0,.11-.09.22-.04.11.05-.01.12-.01.12,0,0-2.25,1.59-1.87,3.35.52,2.18-1.21,9.86-12.41,8.8-.34-.05-.63-.09-.91-.17-6.38,3.34-15.01,4.74-23.75.98,4.65-.71,2.47-3.17,1.64-3.26-.25-.06-.52.14-.25.31,1.71.88.58,2.93-2.78,2.37-1.46-.07-1.67.8-1.67.8,0,0-8.24-3.32-11.43-10.33l-1.04-.18s.94,2.74,1.84,3.14c.45.2.35.56.18.77-.16.21-2.11,2.72-2.85,3.63-.73.9-2.48.98-2.48.98l-2.38-.04c1.55-.73,5.35-3.71,5.45-3.79.09-.07.26-.02.26-.02,0,0,.25.05.53.13.28.07.63-.06.37-.3-5.4-4.11-1.91-4.57-1.91-4.57,0,0-1-.12-1.94-.45-.41-.18-.34.16-.34.16,0,0,.27,1.86,1.41,3.06.43.47.06.88.06.88,0,0-2.13,2.43-3.46,3.49-1.32,1.06-2.68.94-2.68.94l-2.66-.18s3.25-1.46,6.29-3.5c.13-.06.23-.02.23-.02,0,0,.16.07.38.17.23.1.8.04.44-.35-3.8-3.87-.95-4.56-.71-4.67.24-.11.19-.19-.07-.31-3.02-1.67-7.98.43-7.73,2.84l.04.19c2.34-.32,2.97.7,2.97.7,0,0,.06.11.28.4.22.29.87.14.7-.12-.22-.33-2.7-3.4,2.24-4.19l-.49,4.27s-.08.55-.42.75c-.35.19-.55.3-.78.45-.23.14-.54.05-.54.05,0,0-.81-.22-1.23-.33-.42-.12-.21.17-.21.17,1.58,4.21-7.7,4.24-8.48,3.47-.17-.17-.46.04-.46.04-5.44,2.86-11.28,0-10.54-3.88,0,0,.06-.1-.1-.17-4.85-1.22-4.92-7.81,3.83-6.16.3,1.25,1.18,2.05,1.18,2.05-1.87,3.53,6.9,6.1,9.16,3.19.48-.06.93-.13,1.55-.28.62-.15.46-.51-.09-.37-.55.14-1.88.16-1.88.16-1.95,3.23-10.08-.32-7.95-2.59-1.84-1.47-1.66-3.92-1.03-4.72.24-.31.74-.22.81.06.19.8.81,2.09,2.32,3.05-.98,1.22,2.62,3.83,6.52,2.53.32.05,1.23.02,1.6.04.39,0,.51-.23.32-.26-.23-.03-1.81-.17-2.24-.22-1.34,1.07-6.44-.12-5.24-2.01-2.41-1.84-2.38-3.3-2.51-3.85-.13-.55-.57-.41-.78-.35-.21.06-.22-.1-.22-.1,0,0,1.96-2.43,3.66-3.08.86-.32,1.98.04,1.65.42-.81.97-.37,2.77-.37,2.77,0,0,.09.18-.13.36-2.11,1.45,1.68,6.02,6.52,4.47,0,0,.84.14,1.23.22.39.08.6-.28.22-.35-.38-.07-1.63-.29-1.63-.29-4.3,1.31-7.72-2.79-5.32-4.03-.09-.37-.87-2.49.49-3.64.39-.31-.55-.75-.92-.64-.17.04-.2,0-.12-.06,4.45-2.09,8.24-1.69,9.39-1.65,1.15.04,1.17.9.78,1.06-.4.17-.98.33-1.75,1.14-6.94.6-5.33,7.62,1.52,6.89,0,0,.98.33,1.28.42.3.08.66-.13.34-.28-.32-.15-1.29-.61-1.29-.61-6.18.8-7.87-5.55-1.43-5.93.63-.74,2.85-1.56,2.85-1.56,0,0-.29-.97,1.43-1.78-2.87-1.03-.77-4.06-.45-4.6.32-.54-.42-.64-.78-.35-.35.28-.26.21-.26.21,0,0-5.73-2.46-7.1-2.7,1.44-.49,3.08-.51,3.53-.55.46-.04.99.15,1.39.42.4.27,4.71,3.22,4.71,3.22,0,0,.3.2.26.62-.04.42-.28,2.81-.32,3.08-.04.27.27.24.27.24,0,0,.11-.11,1.53-.35-2.5-1.12.5-3.78.91-4.51-.06-.27-.21-.43-.66-.3l-.45.13-6.53-3.16,3.19-.37,1.55.52,4.02,3.42s.38.19.25.57c-.13.38-1.18,3.48-1.18,3.48q.62-.05.96-.08c.35-.03.55-.44.55-.44.46-7.07,7.46-10.07,8.21-9.97,3.09.77,3.75-.78,3.75-.78,0,0,.1-.21.76-.23,5.07,0,4.61,2.51,4.32,3.05-.21.4.25.58.46.21,1.81-3.6-4.22-3.67-4.22-3.67,5.96-3.01,12.39-3.58,18.06-2.65,1.49-.77,3.27-1.33,5.41-1.52ZM88.14,69.67c.24-.02.41-.16.38-.3-.03-.15-.26-.25-.51-.23-.24.02-.41.16-.38.3.04.15.26.25.51.23ZM86.31,69.04c.05.19.33.32.64.29.31-.03.53-.2.48-.38-.04-.19-.33-.32-.64-.29-.31.03-.53.2-.48.39ZM51.02,60.58s-2.4-.58-3.48.62c-1.08,1.19.44,2.8.44,2.8.41-1.11,1.37-2.29,3.04-3.42ZM61.78,64.93c-.23.76-1.23,2.14-2.61,3.25,6.2-.69,3.89-3.27,2.61-3.25ZM49.78,64.84c-1.76,5.07,8.63,4.95,10.05.91,0,0,.26-.7-.26-.12-1.21,1.39-2.18,1.94-3.01,2.04-3.79.4-2.93-2.24-5.29-1.4.25-.43-.5-1.51-1.49-1.43ZM57.28,66.69c.31-.03.53-.2.48-.39-.04-.19-.33-.32-.64-.29-.31.03-.53.2-.48.39.04.19.33.32.64.29ZM55.79,66.72c-.21.02-.36.14-.33.26.03.13.23.21.44.2.21-.02.36-.14.33-.26-.03-.13-.23-.21-.44-.2ZM58.29,66.13c.16-.01.26-.1.24-.19-.02-.09-.17-.16-.32-.14-.16.01-.26.1-.24.19.02.09.17.16.32.15ZM56.33,66c-.03-.13-.24-.23-.46-.21-.22.02-.37.14-.34.28.03.13.24.23.46.21.22-.02.38-.14.34-.28ZM53.27,57.78c.03-.29,0-.56.08-.74.07-.18-.48-.27-.58,0-.1.27,0,.57-.01.79,0,.22.49.24.52-.04ZM57.64,61.9c-.22.02-.37.14-.34.28.03.13.24.22.46.21.22-.02.37-.14.34-.27-.03-.13-.24-.23-.46-.21ZM55.24,54.1c.24-.27,1.51-1.32,1.72-1.44.21-.12.04-.49-.48-.24-.64.22-1.7,1.07-1.94,1.44-.24.37.46.51.7.24ZM58.88,59.04c-.03-.13-.24-.23-.46-.21-.22.02-.38.14-.34.28.03.13.24.23.46.21.22-.02.37-.14.34-.28ZM59.64,59.81c-.03-.12-.22-.2-.42-.19-.2.02-.34.13-.31.25.03.12.22.2.41.19.2-.02.34-.13.31-.25ZM60.7,50.93c1.24-.33,3.72-.65,4.26-.7.54-.05.42-.45-.1-.41-1.43.07-4.38.58-4.77.83-.38.2-.04.45.61.28ZM60.73,55.64c-.03-.13-.23-.21-.44-.2-.21.02-.36.14-.33.26.03.13.23.22.44.2.21-.02.36-.14.33-.26ZM62.12,55.98c-.03-.13-.24-.22-.46-.21-.22.02-.38.14-.34.28.03.13.24.23.46.21.22-.02.37-.14.34-.28ZM60.87,56.67c-.14.01-.24.1-.22.18.02.09.16.15.3.13.14-.01.24-.09.22-.18-.02-.09-.15-.15-.3-.14ZM62.47,56.73c-.02-.08-.14-.14-.28-.12-.13.01-.23.08-.2.16.02.08.14.14.27.12.13-.01.23-.09.21-.17ZM63.28,57.73c-.02-.07-.13-.12-.25-.11-.12.01-.21.08-.19.15.02.07.13.12.25.11.12,0,.21-.08.19-.15ZM85.03,38.32c-.04-.19-.34-.32-.66-.29-.32.03-.54.2-.49.4.04.19.34.32.66.29.32-.03.54-.2.49-.4ZM83.34,38.94c-.22.02-.37.14-.34.27.03.13.23.22.45.2.22-.02.37-.14.34-.27-.03-.13-.23-.22-.45-.2ZM84.66,39.34c-.02-.08-.15-.14-.29-.13-.14.01-.23.09-.21.17.02.08.15.14.29.13.14-.01.23-.09.21-.17ZM81.67,39.76c-.03-.1-.18-.17-.36-.16-.17.01-.29.11-.27.21.03.1.18.17.36.16.17-.01.29-.11.26-.21ZM120.41,50.12c-.37-.59-.85-1.36-.89-1.41-.05-.08-.09-.08-.17-.09-.07,0-1.31-.12-1.44-.13s-.27-.09-.3-.13c-.03-.04-.65-.83-.65-.83,0,0-.97-.12-1.28-.14-.3-.02-.42-.13-.49-.24-.07-.11-.58-.92-.58-.92,0,0-1.6-.14-1.75-.15-.15-.01-.26-.1-.26-.1l-.6-.81s-1.14-.08-1.26-.09c-.12,0-.19-.03-.25-.11-.06-.08-.64-.86-.64-.86l-1.94-.87s-.89-.41-1.33-.05c-.44.36-.48.39-.48.39,0,0,2.91,1.31,3.02,1.35.11.05.18.15.18.15l.46.76s1.41.15,1.6.15c.19,0,.27.06.35.15s.66.81.66.81c0,0,1.57.15,1.61.15.04,0,.19.04.24.16.07.15.48,1,.48,1,0,0,1.34.09,1.57.11.23.02.36.08.45.18.19.22.52.62.56.81,0,0,.18.08.28.12.1.04.17.24-.14.25-.31.01-6.2.29-12.52-1.34.05,1.23,1.77,2.26,1.77,2.26,0,0,1.81.66-.25,1.36-2.05.71-7.34.11-7.34.11.26-.2.39-.46.33-.73-.13-.52-.94-.89-1.81-.81-.87.08-1.48.56-1.35,1.09.08.35.47.62.97.75h.03c2.57.67,8.05.25,8.05.25,3.62-.07,10.11-2.27,15.15-2.55ZM96.67,40.42c.03.13.24.22.46.2.22-.02.37-.14.34-.27-.03-.13-.23-.22-.46-.2-.22.02-.37.14-.34.27ZM95.15,40.06c-.42.04-.71.27-.65.52.06.25.45.42.86.39s.71-.27.65-.52c-.06-.25-.45-.42-.86-.39ZM102.46,39.97c-1.37,2.99.26,7.29.26,7.29,0,0,.04.33.35.33.4,0,.34-.19.34-.19,0,0-1.64-4.3-.26-7.29,0,0,.11-.29-.21-.34-.32-.05-.48.2-.48.2ZM97.15,41.43c-.16.01-.28.11-.26.2.02.1.18.17.34.15.16-.01.28-.11.25-.2-.02-.1-.17-.17-.34-.15ZM84.23,52.4c-.21.02-.36.14-.33.27.03.13.23.22.44.2.22-.02.36-.14.33-.27-.03-.13-.23-.22-.44-.2ZM92.09,51.84c.17-.01.29-.11.27-.21-.03-.1-.19-.17-.36-.16-.17.02-.29.11-.27.21.02.1.19.17.36.16ZM92.89,52.09c.03.1.19.18.36.16.17-.01.29-.11.27-.21-.02-.1-.19-.17-.36-.16-.17.01-.29.11-.27.21ZM89.03,53.54c-.02-.08-.14-.13-.27-.12-.13.01-.22.08-.2.16.02.08.14.13.27.12.13-.01.22-.08.2-.16ZM91.03,53.52c.02.09.16.16.32.14.15-.01.26-.1.24-.19-.02-.09-.16-.15-.32-.14-.15.01-.26.1-.24.19ZM87.52,53.57c.02.08.15.14.28.13.14-.01.23-.09.21-.17-.02-.08-.14-.14-.28-.13-.14.01-.23.09-.21.17ZM85.98,53.5c-.15.01-.25.09-.23.18.02.09.16.15.31.14s.25-.1.23-.18c-.02-.09-.16-.15-.31-.14ZM96.61,52.78c.02.07.13.13.26.11.12,0,.21-.08.19-.15-.02-.07-.13-.13-.26-.12-.13.01-.21.08-.19.16ZM84.58,53.64c-.04-.19-.34-.32-.65-.29-.32.03-.53.2-.49.39.05.19.34.32.65.29.32-.03.53-.2.49-.39ZM94.61,52.58c.19-.02.32-.12.29-.24-.03-.11-.2-.19-.39-.18-.19.02-.32.12-.29.24.03.12.2.19.39.18ZM86.51,54.56c-.02-.1-.18-.17-.34-.15-.17.01-.28.11-.26.21.02.1.18.17.34.15.17-.01.28-.11.26-.21ZM95.93,54.08c-.13.01-.21.08-.19.16.02.07.13.13.26.12.13-.01.21-.08.19-.16-.02-.08-.13-.13-.26-.12ZM93.51,54.49c-.18.02-.3.11-.27.22.03.11.19.18.37.17.18-.01.3-.12.27-.22-.02-.11-.19-.18-.37-.17ZM94.92,54.54c.15-.01.25-.1.23-.19s-.16-.15-.31-.14c-.15.01-.25.1-.23.18.02.09.16.15.31.14ZM85.48,55.28c-.04-.16-.28-.26-.54-.24-.26.02-.44.17-.4.32.04.16.28.27.54.24.26-.02.44-.17.4-.32ZM106.58,64.4c.89-.43,3.85-1.87,3.85-1.87l1.22-.11.36-.64s.02-.06.17-.07c.16-.01,1.02-.09,1.02-.09l.32-.5s0-.05.16-.07c.17-.01,1.19-.1,1.19-.1l.27-.58s0-.06.16-.07c.16-.01,1.12,0,1.12,0l.34-.67s0-.07.18-.07c.18,0,1.23-.02,1.23-.02l.44-.74s.05-.08.21-.08c.16,0,.95,0,.95,0l.27-.63,2.23-1.08c-4.52-.67-10.51-3.98-16.82-3.56,0,0-5.61.22-7.95.78h-.04c-.64.18-1.03.59-.93,1.02.13.52.94.89,1.81.81.87-.08,1.48-.56,1.35-1.09-.05-.19-.19-.37-.4-.5,0,0,2.35-.79,6.54-.46,1.62.18.83,1.15.83,1.15,0,0-1.45,2.03-1.38,3.94,7.38-2.33,11.54-2.36,12.3-2.43.76-.07.44.2.44.2l-2.32,1.24-.3.55s-.06.07-.17.07c-.11,0-.99-.02-.99-.02l-.29.57s-.03.08-.16.08c-.13,0-.87-.01-.87-.01l-.26.62s.01.07-.16.09c-.17.01-1.28.11-1.28.11,0,0-.12.48-.13.55,0,.08-.11.08-.11.08l-1.23.11s-.22.51-.24.6c-.02.09-.16.08-.16.08l-1.22.11s.04.47-.5.77c-.55.31-1.49.84-2.14,1.19-.65.35.18,1.2,1.07.77ZM85.83,56.28c-.03-.11-.2-.19-.38-.17-.18.02-.31.12-.29.23.03.11.2.19.38.17.18-.02.31-.12.28-.23ZM90.25,56.25c.18-.01.3-.11.28-.22-.03-.11-.19-.18-.37-.17-.18.02-.3.11-.27.22.03.11.19.18.37.16ZM91.41,55.65c.19-.02.33-.12.3-.24-.03-.12-.21-.2-.4-.18-.2.02-.33.13-.3.24.03.12.21.2.41.18ZM105.3,59.54c0,.15.03.3.05.43,4.64-1.57,8.62-2.13,8.97-2.18.52-.08.37-.49-.1-.42-.32.05-4.13.52-8.91,2.17ZM103.74,60.11c-1.84.71-3.78,1.59-5.69,2.69-.33.21.11.41.44.2,1.73-1,3.57-1.82,5.35-2.49-.04-.12-.08-.26-.1-.39ZM97.61,66.74c-.03-.13-.23-.21-.44-.19-.21.02-.36.14-.33.26.03.13.23.21.44.2.21-.02.36-.14.33-.26ZM99.36,67.52c-.04-.17-.3-.28-.58-.26-.28.03-.47.18-.43.35.04.17.3.28.58.26.28-.03.47-.18.43-.35ZM97.14,71.87c8.88,2.02,15.87-1.33,16.08-1.42.2-.09.03-.23-.13-.17-.16.06-6.69,2.82-14.76,1.12,0,0-.37.27-1.19.47ZM95.85,68.96c.04.15.27.26.53.24.26-.02.43-.16.4-.32-.04-.15-.27-.26-.53-.24-.26.02-.43.17-.4.32ZM108.96,67.66s2.86,1.37,6.09,2.17c0,0,.17-.07.33-.19s.18-.23.18-.23c-2.3-.51-4.56-1.47-5.92-2.1,0,0-.45-.24-.78-.09-.33.15.1.45.1.45ZM95.9,67.81c.06.27.48.45.92.41.44-.04.75-.29.69-.55-.06-.27-.48-.45-.92-.41-.44.04-.75.28-.69.55ZM87.37,68.33c.2-.02.34-.13.31-.25-.03-.12-.22-.2-.41-.19-.2.02-.34.13-.31.25.03.12.22.2.42.19ZM84.45,68.11c.03.14.25.24.48.22.23-.02.4-.15.36-.29-.03-.14-.25-.24-.48-.22-.23.02-.39.15-.36.29ZM79.4,60.89c-.67.06-.5.42.1.41,1.16.07,3.7-.28,4.04-.31q.35-.03.47.21c3.25,3.69,7.59,3.1,7.67,3.09.09,0,.16,0,.15.07-2.09,4.67,8.76,2.48,4.86-1.5,0,0,4.99-2.65,6.95-3.18-.21-1.78.88-3.99,1.28-4.56.4-.57-.12-.49-.12-.49,0,0-3.17.08-3.64.46-.29.23.72.1,1.53.13-6.15,3.51-15.38,3.66-7.02-.17.36-.17.2-.3-.28-.12-6.38,2.42-2.36,3.37-2.36,3.37,0,0-6.53,2.34-13.63,2.6ZM88.99,57.41c-.2.02-.33.13-.3.24.03.12.21.2.41.18.2-.02.33-.13.3-.24-.03-.12-.21-.2-.41-.18ZM68.14,54.74c3.13-1.49,4.63-3.37,5.35-4.76-3.61,1.06-5.44,2.97-5.35,4.76ZM74.63,49.68c-.64,1.51-2.28,3.96-6.37,5.73.07.2.16.4.27.59,4.85-2,6.31-4.98,6.74-6.45-.22.04-.43.08-.64.13ZM86.34,43.15c-.24.08-4.44,1.41-4.56,2.91-.12.5.72.4.74.1.04-1.5,3.68-2.65,4-2.79.34-.14.05-.3-.19-.22ZM90.11,43.11c-6.92.42-6.99,3.83-6.99,3.83,0,0-2.09-.19-3.54-.06-1.17.1-1.14.55-.11.55,7.48,0,10.29,1,10.29,1,0,0-2.84.12-4.67,1.04-3.44-.45-6.38-.43-8.79-.09-.24,1.22-1.47,4.9-7.37,7.14,1.42,1.61,4.82,2.77,10.31,2.52,1.25-.11-.07-.29-.07-.29,0,0-4.48.2-5.98-.47.95-.76.22-1.49.22-1.49,0,0,4.34.8,3.95-3.17-.39-3.98,6.6-3.63,6.6-3.63l.17.08c-2.88,1.01-4.84,7.84,4.88,8.88.51.06,1.19-.14.07-.47-11.9-2.13-5.36-10.81,2.79-9.58-.12-.02-3.58,1.18,3.19,2.86.34.15.53-.1.23-.19-8.21-2.13-1.14-4.15,6.73-.5-1.13-.1-2.76.05-.99.28,1.77.23,3.59.24,4.31-.24.27-.12.2-.21-.08-.34-1.74-.78-2.43-2.94-2.43-2.94,0,0-.98-.06-3.25-.9.83-3.97-15.57-10.5-9.45-3.83ZM79.42,55.44c.24-.02.41-.16.38-.3-.03-.15-.26-.25-.51-.23-.24.02-.41.16-.38.3.04.15.26.25.51.23ZM79.75,54.07c.05.19.34.33.67.3.32-.03.55-.21.5-.4-.05-.19-.35-.33-.67-.3-.32.03-.55.21-.5.4ZM78.22,53.84c-.2.02-.34.13-.31.25.03.12.22.2.42.19.2-.02.34-.13.31-.25-.03-.12-.21-.2-.41-.19ZM79.67,53.57c.2-.02.34-.13.31-.25-.03-.12-.21-.2-.41-.19-.2.02-.34.13-.31.25.03.12.21.2.41.18ZM84.92,51.95c.15-.01.26-.1.24-.19-.02-.09-.16-.16-.32-.14-.16.01-.26.1-.24.19.02.09.16.16.32.14ZM89.55,50.69c.03.14.26.24.49.22.24-.02.4-.15.37-.3-.03-.14-.25-.24-.49-.22-.24.02-.4.15-.37.29ZM86.05,50.6c-.14.01-.23.09-.21.17.02.08.15.14.28.13.14-.01.23-.09.21-.17-.02-.08-.15-.14-.28-.13ZM89.03,49.82c.21-.02.35-.13.32-.26-.03-.12-.22-.21-.43-.19-.21.02-.35.13-.32.26.03.12.22.21.43.19ZM94.88,39.55c.03.11.2.19.38.17.18-.01.31-.12.28-.23-.03-.11-.2-.19-.38-.17-.18.02-.31.12-.28.23ZM107.38,34.24c5.87.94,16.17,3.78,14.54,12.24.08.35,1.3.61,1.33,0,.67-8.7-9.24-11.71-15.29-12.69l-.58.45ZM103.47,33.35c-.95.08-1.13.31.1.43.27.03,1.56.09,3.15.32l.58-.42c-2.08-.3-3.59-.35-3.84-.33Z"/>
    <g>
      <path class="cls-3" d="M42.76,82.97c0-.08.04-.15.08-.19.15.04.41.05.68.05.53,0,.88-.1,1.24-.29.79-.44,1.1-1.23,1.1-2.41,0-1.79-.95-3.04-2.91-3.04-.16,0-.56.03-.71.1-.04.01-.13.13-.13.24-.04.53-.07,1.6-.07,4.48,0,1.65-.01,3.56.04,4.6.04.57.14.87.7.99.33.09.74.14,1.25.19.08.08.05.51-.05.61-.68,0-2.05-.06-3.01-.06s-2.16.06-2.88.06c-.08-.1-.08-.53-.03-.61.42-.05.78-.1,1.08-.15.49-.14.57-.43.61-1.09.01-.7.04-2.14.04-4.38s.03-3.34-.03-3.95c-.04-.66-.13-.92-.7-1.05-.26-.04-.59-.09-.97-.13-.08-.14-.04-.55.04-.61.43,0,1.54.06,2.55.06,1.36-.02,2.24-.04,3.59-.04.67,0,1.87.09,2.66.7.71.51,1.33,1.37,1.33,2.66,0,1.7-.97,2.78-1.96,3.3-.74.39-1.57.56-2.36.56-.37,0-.64-.01-.87-.08-.13-.09-.29-.41-.32-.52Z"/>
      <path class="cls-3" d="M51.77,86.82c-1.24-1.27-1.75-2.97-1.75-4.57,0-1.49.47-2.91,1.54-4.05,1.16-1.29,3.12-2.15,5.22-2.15,4.13,0,6.3,2.83,6.3,6.06,0,1.57-.39,2.9-1.22,3.99-1.27,1.69-3.3,2.51-5.37,2.51s-3.66-.68-4.72-1.77ZM59.06,87.08c1.12-.91,1.47-2.59,1.47-4.32,0-2.05-.62-4.1-2.05-5.17-.65-.49-1.4-.75-2.3-.75-.64,0-1.26.15-1.7.43-1.31.81-1.85,2.52-1.85,4.46s.66,4.16,2.25,5.31c.66.43,1.38.68,2.3.68.71,0,1.42-.24,1.88-.65Z"/>
      <path class="cls-3" d="M68.78,86.44c.04.68.16.92.63,1.06.28.08.66.12,1.11.19.08.08.01.54-.07.61-.75-.02-1.71-.06-2.93-.06s-2.34.06-2.76.06c-.07-.07-.07-.53,0-.61.43-.05.83-.12,1.09-.18.5-.13.61-.41.62-1.17.05-.86.05-2.66.03-4.33,0-1.72.03-3.08-.03-4.02-.01-.53-.12-.77-.54-.89-.24-.09-.7-.14-1.07-.18-.1-.1-.09-.53,0-.61.46,0,1.28.06,2.78.06,1.04,0,1.95-.06,2.63-.06.05.08.07.49,0,.61-.36.04-.68.08-.95.18-.45.11-.53.35-.54.99-.03.91-.04,2.76-.04,4.03,0,1.8,0,3.12.04,4.31ZM71.93,76.33c.67,0,1.34.06,2.37.06,1.42-.02,1.97-.04,2.55-.06.08.06.08.51-.03.61-1.13.15-1.62.27-2.49,1.22-1.1,1.19-2.41,2.6-3.2,3.42v.09c.84,1.3,3.51,4.28,4.77,5.33.29.24.55.43.82.51.42.12.83.18,1.28.19.05.08,0,.53-.08.61-.83.09-3.24.05-3.79-.14-.34-.14-.71-.43-.97-.68-.96-.96-2.91-3.28-3.89-4.57-.04-.08-.24-.25-.37-.33,0-.08.03-.32.08-.33.92-.4,2.51-1.99,3.85-3.67.4-.51.55-.84.55-1.1,0-.13-.12-.27-.38-.34-.25-.08-.58-.14-1.09-.19-.07-.12-.07-.53.01-.61Z"/>
      <path class="cls-3" d="M78.06,76.33c.57,0,1.59.06,2.8.06,1.49,0,2.31-.06,2.78-.06.07.08.08.49,0,.61-.42.04-.79.09-1.04.15-.46.14-.5.42-.54.99-.04.72-.04,2.24-.04,3.92,0,2.13,0,3.8.04,4.5.03.48.08.86.67.99.26.08.72.14,1.17.22.05.08,0,.54-.07.61-.65-.02-1.62-.06-2.82-.06-1.45,0-2.28.06-2.99.06-.09-.07-.09-.54,0-.61.42-.05.74-.1.97-.15.57-.11.67-.34.72-.94.05-.62.05-2.75.05-4.83,0-1.8,0-2.91-.07-3.81-.03-.44-.12-.72-.51-.84-.34-.1-.63-.14-1.17-.19-.08-.1-.05-.55.03-.61Z"/>
      <path class="cls-3" d="M85.04,76.33c.48,0,1.88.06,2.56.06,1.51,0,2.59-.06,3.55-.06,2.43,0,3.75,1.31,3.75,3,0,1.57-1.08,2.51-2.35,3.04-.01.01-.04.11-.01.13.55.94,2.26,3.29,3.25,4.24.78.74.97.81,2.11.95.05.06-.03.58-.12.62-1.04.06-2.86,0-3.64-.35-.38-.19-.75-.49-.99-.81-.76-.9-1.88-2.7-2.58-3.75-.16-.19-.33-.3-.55-.32-.22-.02-.82,0-.99,0-.04,0-.08.08-.08.1,0,1.13,0,2.66.04,3.41.01.6.16.81.59.91.36.08.62.12,1.12.19.08.04.06.54-.04.61-.42,0-1.4-.06-2.86-.06s-2.37.06-2.76.06c-.08-.07-.11-.53,0-.61.38-.05.71-.1.97-.15.46-.1.61-.35.65-1.01.01-.53.04-3.16.04-4.31,0-1.94,0-3.54-.03-4.23-.01-.56-.17-.8-.62-.9-.29-.06-.67-.11-1.08-.15-.05-.12-.04-.57.07-.61ZM89.11,77.17c-.05.04-.13.19-.13.29-.04.55-.04,2.65-.04,4.64,0,.08.04.13.09.13,1.13.04,2.04-.01,2.41-.19.61-.27,1.13-.87,1.13-2.13,0-1.72-.95-2.81-2.83-2.81-.17,0-.45.03-.63.08Z"/>
      <path class="cls-3" d="M97.85,76.33c.57,0,1.59.06,2.8.06,1.49,0,2.32-.06,2.78-.06.07.08.08.49,0,.61-.42.04-.79.09-1.04.15-.46.14-.5.42-.54.99-.04.72-.04,2.24-.04,3.92,0,2.13,0,3.8.04,4.5.03.48.08.86.67.99.26.08.72.14,1.17.22.05.08,0,.54-.07.61-.64-.02-1.62-.06-2.81-.06-1.45,0-2.28.06-2.99.06-.09-.07-.09-.54,0-.61.42-.05.74-.1.97-.15.57-.11.67-.34.72-.94.05-.62.05-2.75.05-4.83,0-1.8,0-2.91-.07-3.81-.03-.44-.12-.72-.51-.84-.34-.1-.63-.14-1.17-.19-.08-.1-.05-.55.03-.61Z"/>
      <path class="cls-3" d="M107.15,87.32c.53.37,1.24.52,1.92.52.99,0,1.93-.56,1.93-1.81,0-1.09-.59-1.7-2.45-2.76-1.77-1.01-3.1-1.95-3.1-3.84,0-2.18,1.88-3.38,4.13-3.38,1.46,0,2.29.23,3.21.32-.13.7-.26,1.71-.34,2.79-.07.09-.55.09-.63.04-.16-1.18-.37-1.75-.86-2.05-.43-.3-.96-.42-1.59-.42-1.22,0-1.92.87-1.92,1.83-.01.95.48,1.49,1.32,2.04.83.52,1.6.91,2.37,1.36,1.28.76,2.04,1.6,2.04,3.03,0,1.96-1.66,3.64-4.66,3.64-1.29,0-2.53-.37-3-.63-.2-.27-.56-2.32-.6-2.99.05-.13.56-.25.66-.2.41,1.28.85,2.05,1.58,2.55Z"/>
      <path class="cls-3" d="M117.02,87.32c.53.37,1.24.52,1.92.52.99,0,1.93-.56,1.93-1.81,0-1.09-.59-1.7-2.45-2.76-1.78-1.01-3.1-1.95-3.1-3.84,0-2.18,1.88-3.38,4.13-3.38,1.46,0,2.29.23,3.21.32-.13.7-.26,1.71-.34,2.79-.07.09-.55.09-.63.04-.16-1.18-.37-1.75-.85-2.05-.43-.3-.96-.42-1.59-.42-1.22,0-1.92.87-1.92,1.83-.01.95.47,1.49,1.32,2.04.83.52,1.6.91,2.37,1.36,1.28.76,2.04,1.6,2.04,3.03,0,1.96-1.66,3.64-4.66,3.64-1.29,0-2.52-.37-3-.63-.2-.27-.56-2.32-.61-2.99.05-.13.57-.25.66-.2.41,1.28.85,2.05,1.58,2.55Z"/>
      <path class="cls-3" d="M125.83,86c1.08-2.43,2.85-7.1,3.33-8.41.16-.39.33-.95.37-1.23.18.01.49.04.86.04.39,0,.64-.02.83-.04.08.3.2.71.32,1.07.55,1.46,2.49,6.83,3.2,8.49.63,1.46.75,1.57,2.22,1.79.06.06.03.53-.05.61-.51,0-1.49-.06-2.7-.06-1.31,0-2.26.06-2.84.06-.07-.1-.09-.54,0-.61.39-.08.8-.14,1.02-.23.26-.11.26-.32.21-.46-.2-.73-.75-2.24-1.08-3.04-.03-.04-.12-.13-.18-.13-.3-.03-1.01,0-1.74,0-1.07,0-1.39,0-1.64.01-.08,0-.17.1-.21.19-.39,1-.93,2.41-.93,2.8,0,.3.03.54.58.67.31.06.62.13.99.18.08.06.04.53-.05.61-.49,0-1.4-.06-2.57-.06-.95,0-1.68.06-2.2.06-.07-.07-.08-.53,0-.61,1.42-.19,1.7-.34,2.28-1.7ZM129.61,78.76c-.38,1.03-1.04,2.96-1.4,3.93-.01.09,0,.13.07.14.21.03.75.03,1.39.03.59,0,1.14,0,1.35-.03.04,0,.08-.08.08-.14-.33-.91-1.04-2.99-1.4-3.93-.01,0-.08-.01-.1,0Z"/>
    </g>
  </g>
</svg>