<?xml version="1.0" encoding="UTF-8"?>
<svg id="Layer_1" data-name="Layer 1" xmlns="http://www.w3.org/2000/svg" xmlns:xlink="http://www.w3.org/1999/xlink" viewBox="0 0 175 120">
  <defs>
    <style>
      .cls-1 {
        clip-path: url(#clippath);
      }

      .cls-2, .cls-3 {
        stroke-width: 0px;
      }

      .cls-2, .cls-4 {
        fill: none;
      }

      .cls-3 {
        fill: #231f20;
      }

      .cls-4 {
        stroke: #1d71b2;
        stroke-miterlimit: 10;
        stroke-width: .35px;
      }
    </style>
    <clipPath id="clippath">
      <polygon class="cls-2" points="79.33 -129.35 57.05 -118.86 46.33 -114.52 46.33 -55.4 104.15 -55.4 104.15 -44.12 119.44 -44.12 119.44 -55.4 122.28 -55.4 122.28 -56.81 128.4 -56.81 128.4 -71.34 122.28 -71.34 122.28 -129.35 79.33 -129.35"/>
    </clipPath>
  </defs>
  <g class="cls-1">
    <rect class="cls-4" x="-65.65" y="-164.38" width="306.03" height="167.6"/>
  </g>
  <g>
    <path class="cls-3" d="M10.09,64.41c.69,1.14,1.78,1.73,3.28,1.73,1.33,0,1.95-.6,1.95-1.29,0-.49-.28-.83-.71-1.09-.24-.17-.77-.39-1.13-.49-.32-.13-1.07-.38-1.44-.53-2.04-.75-3.17-1.82-3.17-3.79,0-1.13.41-2.03,1.26-2.68.84-.68,1.88-1.01,3.1-1.01,1.89,0,3.34.71,4.35,2.14l-1.93,1.46c-.53-.68-1.31-1.01-2.35-1.01-.96,0-1.58.45-1.58,1.07,0,.43.11.69.51.94.21.11.41.21.58.28l.94.32c.43.15.81.28,1.13.41,2.38.9,3.34,2.01,3.34,3.88,0,2.42-1.65,4-4.86,4-2.65,0-4.48-1.18-5.37-2.89l2.1-1.44Z"/>
    <path class="cls-3" d="M25.16,57.23c1.37-1.31,3.02-1.97,4.95-1.97s3.58.66,4.93,1.97c1.37,1.31,2.04,2.91,2.04,4.8s-.68,3.51-2.03,4.82c-1.35,1.29-3,1.95-4.95,1.95s-3.58-.66-4.95-1.95c-1.35-1.31-2.03-2.93-2.03-4.82s.68-3.49,2.03-4.8M27.2,64.99c.79.79,1.76,1.18,2.91,1.18s2.1-.39,2.89-1.2c.81-.81,1.2-1.8,1.2-2.95s-.39-2.12-1.18-2.93c-.79-.81-1.76-1.22-2.91-1.22s-2.12.41-2.91,1.22c-.79.81-1.18,1.78-1.18,2.93s.39,2.16,1.18,2.96"/>
    <polygon class="cls-3" points="42.77 68.54 42.77 55.46 45.66 55.46 45.66 65.91 50.77 65.91 50.77 68.54 42.77 68.54"/>
    <polygon class="cls-3" points="56.28 68.54 56.28 55.46 65.21 55.46 65.21 58.09 59.17 58.09 59.17 60.55 64.82 60.55 64.82 63.12 59.17 63.12 59.17 65.91 65.34 65.91 65.34 68.54 56.28 68.54"/>
    <path class="cls-3" d="M70.15,68.54l5.4-13.08h2.57l5.4,13.08h-3.08l-.88-2.2h-5.46l-.88,2.2h-3.08ZM74.93,64.04h3.81l-1.89-4.75-1.91,4.75ZM75.57,53.83l.94-2.72h3.02l-1.88,2.72h-2.08Z"/>
    <path class="cls-3" d="M161.99,68.76c2,0,3.8-.82,5.02-2.23l-.67-.62c-1.01,1.22-2.57,1.95-4.35,1.95-3.32,0-5.79-2.51-5.79-5.85s2.47-5.86,5.79-5.86c1.78,0,3.3.71,4.33,1.91l.66-.62c-1.22-1.37-2.98-2.19-4.98-2.19-3.78,0-6.76,2.89-6.76,6.76s3,6.74,6.76,6.74ZM147.17,68.54h.97v-13.06h-.97v13.06ZM139.22,68.89v-13.41h-.97v10.79l-9.16-11.15v13.41h.97v-10.79l9.16,11.15ZM120.19,68.54h.97v-13.06h-.97v13.06ZM106.64,68.54h6.59v-.9h-5.62v-12.16h-.97v13.06ZM94.81,68.76c2,0,3.8-.82,5.02-2.23l-.67-.62c-1.01,1.22-2.57,1.95-4.35,1.95-3.32,0-5.79-2.51-5.79-5.85s2.47-5.86,5.79-5.86c1.78,0,3.3.71,4.33,1.91l.66-.62c-1.22-1.37-2.98-2.19-4.98-2.19-3.78,0-6.76,2.89-6.76,6.76s3,6.74,6.76,6.74Z"/>
  </g>
</svg>