<?xml version="1.0" encoding="UTF-8"?>
<svg id="Layer_1" data-name="Layer 1" xmlns="http://www.w3.org/2000/svg" viewBox="0 0 175 120">
  <defs>
    <style>
      .cls-1 {
        fill: #16365d;
      }

      .cls-1, .cls-2, .cls-3, .cls-4 {
        stroke-width: 0px;
      }

      .cls-2 {
        fill: #e81f26;
      }

      .cls-3 {
        fill: #1c75ba;
      }

      .cls-4 {
        fill: #1d3d72;
      }
    </style>
  </defs>
  <g>
    <g>
      <path class="cls-1" d="M103.95,45.37l-1.04-9.59-10.44,1.72,2.85,1.96c-1.47,2.13-5.44,4.52-10.59,6.57-.02,0-.04,0-.06,0-25.46,5.03-33.85-4.32-34.76-7.49,1.74-3,3.97-5.35,3.97-5.35,0,0-25.29,18.82-1.47,22.38,24.57,3.67,45.36-11.57,47.34-13.07l4.2,2.88ZM56.03,50.78c-9.02-1.03-9.06-5.94-7.12-10.31,4.14,7.69,14.22,9.59,22.88,9.32-5.41,1.07-10.97,1.53-15.76.99Z"/>
      <g>
        <path class="cls-2" d="M120.78,27.75c-.2-.47-.41-.93-.65-1.4-.42-.08-.86-.14-1.32-.2-.46-.05-.93-.09-1.41-.13.05.08.1.15.14.22,1.11.41,2.2.91,3.23,1.49Z"/>
        <path class="cls-2" d="M122.37,38.46c.08-.98.11-2,.07-3.05-.47-.52-1.08-1.08-1.86-1.66.42,1.92.63,4.02.56,6.31.36-.44.79-.99,1.23-1.6Z"/>
        <path class="cls-2" d="M68.8,26.37c4.06-1.52,9.13-3.07,15.23-4.32l1.14,3.27c.6-.3,1.22-.59,1.86-.89l-.66-2.84c4.1-.76,8.64-1.38,13.62-1.78,1.64-.41,3.32-.77,5.06-1.06-.78-.02-1.55-.03-2.31-.03-3-3.06-6.03-4.93-8.22-6,3.48.39,6.71,1.4,10.44,2.9.68.28,2.46,1.09,4.62,2.55,1.18-.11,2.37-.18,3.58-.22-1.74-1.21-4.24-2.62-7.36-3.84-.02-.01-.05-.02-.07-.03-.02,0-.03,0-.05-.02-5.54-2.15-13.02-3.72-21.68-2.63h0s0,0,0,0c-1.75.22-3.55.55-5.4,1-20.19,4.98-26.49,23.34-24.34,28.16.17-2.31,1.13-5.37,2.86-8.59,1.56-1,4.78-2.87,9.77-4.88.27,2.47.84,4.79,1.9,6.07-.14-2.53-.11-4.81,0-6.81ZM90.66,12.52c1.46.69,4.7,2.48,8.56,6.23-4.71.15-9.12.63-13.19,1.33l-1.61-6.91c2.28-.4,4.33-.61,6.23-.64ZM69.86,18.33c2.82-1.77,6.01-3.2,9.56-4.09.59-.15,1.17-.28,1.73-.41l2.36,6.73c-5.65,1.13-10.55,2.67-14.61,4.29.24-2.97.65-5.19.96-6.51ZM66.79,25.73c-4.17,1.84-7.25,3.71-9.06,5.19,2.1-3.6,5.13-7.33,9.07-10.43-.1,1.49-.13,3.36,0,5.24Z"/>
        <path class="cls-2" d="M120.79,43.86c-.19,1.26-.46,2.57-.82,3.93,0,0,.91-1.85,1.63-4.74,0,0-.74.3-.82.81Z"/>
        <path class="cls-2" d="M107.73,29.64c1.7,2.81,3.36,6.04,4.91,9.76-.59-3.6-1.51-6.75-2.64-9.51-.72-.1-1.48-.19-2.28-.25Z"/>
        <path class="cls-2" d="M87.6,32.22l2.83,8.09-1.7-8.61c-.39.17-.77.35-1.14.52Z"/>
      </g>
    </g>
    <path class="cls-3" d="M122.59,19.93c-24.57-3.67-45.36,11.57-47.34,13.07l-4.2-2.88,1.04,9.59,10.44-1.72-2.85-1.96c1.47-2.13,5.44-4.52,10.59-6.57.02,0,.04,0,.06,0,25.46-5.03,33.85,4.32,34.76,7.49-1.74,3-3.97,5.35-3.97,5.35,0,0,25.29-18.82,1.47-22.38ZM126.09,35.01c-4.14-7.69-14.22-9.59-22.88-9.32,5.41-1.07,10.97-1.53,15.76-.99,9.02,1.03,9.06,5.94,7.12,10.31Z"/>
  </g>
  <g>
    <path class="cls-3" d="M48.8,107.83c-.2.33-.55.6-1.04.8-.49.21-1.01.31-1.55.31-1.01,0-1.81-.25-2.39-.76-.58-.51-.87-1.22-.87-2.16,0-1.09.41-1.94,1.22-2.56s1.98-.92,3.48-.92c.26,0,.56.04.91.13,0-1.11-.7-1.66-2.1-1.66-.83,0-1.52.14-2.07.41l-.47-1.7c.76-.36,1.65-.54,2.7-.54,1.43,0,2.48.33,3.15.98.67.65,1,1.89,1,3.71v2.01c0,1.25.25,2.04.76,2.36-.18.32-.38.51-.61.58-.22.07-.48.11-.76.11-.32,0-.6-.12-.85-.35-.25-.23-.42-.49-.51-.76ZM48.59,104.34c-.37-.08-.66-.11-.84-.11-1.73,0-2.6.57-2.6,1.7,0,.84.49,1.26,1.47,1.26,1.32,0,1.98-.66,1.98-1.98v-.88Z"/>
    <path class="cls-3" d="M53.52,95.86l2.2-.53v10.57c0,1.16.35,1.85,1.04,2.07-.34.64-.92.97-1.74.97-1,0-1.49-.69-1.49-2.07v-11.01Z"/>
    <path class="cls-3" d="M63.68,107.83c-.2.33-.55.6-1.04.8-.49.21-1.01.31-1.55.31-1.01,0-1.81-.25-2.39-.76-.58-.51-.87-1.22-.87-2.16,0-1.09.41-1.94,1.22-2.56s1.98-.92,3.48-.92c.26,0,.56.04.91.13,0-1.11-.7-1.66-2.1-1.66-.83,0-1.52.14-2.07.41l-.47-1.7c.76-.36,1.65-.54,2.7-.54,1.43,0,2.48.33,3.15.98.67.65,1,1.89,1,3.71v2.01c0,1.25.25,2.04.76,2.36-.18.32-.38.51-.61.58-.22.07-.48.11-.76.11-.32,0-.6-.12-.85-.35-.25-.23-.42-.49-.51-.76ZM63.47,104.34c-.37-.08-.66-.11-.84-.11-1.73,0-2.6.57-2.6,1.7,0,.84.49,1.26,1.47,1.26,1.32,0,1.98-.66,1.98-1.98v-.88Z"/>
    <path class="cls-3" d="M78.91,108.77v-5.89c0-1.23-.55-1.85-1.66-1.85-.33,0-.64.1-.95.29-.3.19-.52.42-.64.67v6.79h-2.2v-6.23c0-.46-.14-.83-.43-1.1-.29-.27-.69-.41-1.21-.41-.28,0-.58.1-.9.31-.32.2-.56.43-.71.68v6.76h-2.2v-9.4h1.51l.45.83c.61-.67,1.4-1,2.36-1,1.25,0,2.19.34,2.82,1.02.28-.31.66-.56,1.15-.74.49-.18.98-.28,1.47-.28,1.05,0,1.86.3,2.45.9.58.6.87,1.42.87,2.47v6.21h-2.2Z"/>
    <path class="cls-3" d="M94.13,107.83c-.2.33-.55.6-1.04.8-.49.21-1.01.31-1.55.31-1.01,0-1.81-.25-2.39-.76-.58-.51-.87-1.22-.87-2.16,0-1.09.41-1.94,1.22-2.56.82-.61,1.98-.92,3.48-.92.26,0,.56.04.91.13,0-1.11-.7-1.66-2.1-1.66-.83,0-1.52.14-2.07.41l-.47-1.7c.76-.36,1.65-.54,2.7-.54,1.43,0,2.48.33,3.15.98.67.65,1,1.89,1,3.71v2.01c0,1.25.25,2.04.76,2.36-.18.32-.38.51-.61.58-.22.07-.48.11-.76.11-.32,0-.6-.12-.85-.35-.25-.23-.42-.49-.51-.76ZM93.92,104.34c-.37-.08-.66-.11-.84-.11-1.73,0-2.6.57-2.6,1.7,0,.84.49,1.26,1.47,1.26,1.32,0,1.98-.66,1.98-1.98v-.88Z"/>
    <path class="cls-3" d="M98.85,95.86l2.2-.53v10.57c0,1.16.35,1.85,1.04,2.07-.34.64-.92.97-1.74.97-1,0-1.49-.69-1.49-2.07v-11.01Z"/>
    <path class="cls-3" d="M109.79,108.77l-2.77-4.26-1.05,1.12v3.14h-2.2v-12.91l2.2-.53v7.64l3.13-3.61h2.64l-3.18,3.56,3.83,5.84h-2.61Z"/>
    <path class="cls-3" d="M113.02,104.04c0-1.43.41-2.6,1.24-3.5.83-.9,1.92-1.35,3.28-1.35,1.43,0,2.54.43,3.33,1.3.79.87,1.19,2.05,1.19,3.56s-.4,2.69-1.21,3.57c-.8.88-1.91,1.33-3.31,1.33s-2.54-.45-3.33-1.34c-.79-.89-1.19-2.08-1.19-3.56ZM115.3,104.04c0,2.07.75,3.11,2.24,3.11.68,0,1.23-.27,1.63-.81.4-.54.6-1.31.6-2.3,0-2.04-.74-3.06-2.23-3.06-.68,0-1.23.27-1.63.81-.4.54-.61,1.29-.61,2.26Z"/>
    <path class="cls-3" d="M129.86,108.77v-5.43c0-.8-.15-1.39-.46-1.76-.31-.37-.81-.55-1.51-.55-.32,0-.67.09-1.03.27-.37.18-.65.41-.86.68v6.8h-2.2v-9.4h1.58l.4.88c.6-.7,1.48-1.05,2.64-1.05s2,.34,2.65,1.01c.65.67.97,1.61.97,2.81v5.77h-2.2Z"/>
  </g>
  <g>
    <g>
      <path class="cls-4" d="M31.09,74.56h.02v4.1c0,1.1-.31,1.86-.94,2.28-.59.4-1.67.61-3.41.63-1.73-.01-2.86-.22-3.48-.63-.63-.42-.94-1.18-.94-2.28v-4.1h.02v-4.96l-3.36.81v8.2c0,2.05.64,3.55,1.93,4.51,1.22.9,3,1.38,5.53,1.43h0c.1.01.2,0,.3,0,.05,0,.1,0,.15,0h0c2.59-.05,4.4-.53,5.62-1.44,1.29-.96,1.93-2.46,1.93-4.51v-9.01l-3.36.81v4.15Z"/>
      <polygon class="cls-4" points="85 84.57 88.85 84.57 88.85 84.55 88.85 66.82 85 68.6 85 84.57"/>
      <path class="cls-4" d="M126.2,78.18c0,1.79-.66,2.7-1.95,2.7h-1.81s-.19,0-.19,0c-2.2-.04-3.4-.61-4.16-2.21.07-.5.11-1.04.11-1.6,0-2.3-.6-4.11-1.81-5.44-1.21-1.32-2.91-1.99-5.09-1.99-.32,0-.62.02-.92.05h-6.88c-4.07,0-6.85,2.86-6.85,7.32v7.13c-.05,1.83-.64,2.94-1.77,3.31.59,1.11,1.59,1.67,3,1.67,1.72,0,2.57-1.19,2.57-3.57v-7.93c0-2.78,1.07-4.18,3.22-4.18h1.46c-.49,1.05-.74,2.26-.74,3.63,0,2.27.61,4.08,1.82,5.45,1.21,1.37,2.91,2.05,5.1,2.05,1.6,0,2.95-.38,4.04-1.14,0,0,0,0,0,0,.03-.02.05-.04.07-.06.34-.24.65-.52.94-.83.02-.02.03-.04.05-.06,1.37,1.28,3.01,1.92,5.02,2.05v.03h3.63c1.62,0,2.89-.55,3.8-1.68.8-.96,1.21-2.17,1.21-3.63v-12.4l-3.85,1.41v9.92ZM113.78,80.59c-.61.82-1.44,1.24-2.49,1.24-2.28,0-3.42-1.58-3.42-4.75,0-1.48.31-2.63.93-3.45.62-.82,1.45-1.24,2.5-1.24,2.27,0,3.41,1.56,3.41,4.69,0,1.52-.31,2.69-.92,3.52Z"/>
      <path class="cls-4" d="M147.28,77.23c0-1.49.37-2.67,1.11-3.52.74-.85,1.75-1.27,3.02-1.27s2.38.37,3.16,1.12l1.44-2.51c-1.23-.94-2.69-1.41-4.36-1.41-2.43,0-4.34.7-5.75,2.1-1.41,1.4-2.11,3.23-2.11,5.49,0,1.41.24,2.62.72,3.64h-4.5c-2.83,0-3.3-.99-3.3-2.86v-11.19l-3.85,1.43v11.77c0,2.83,1.71,4.54,4.65,4.54h18.4l-.86-3.69h-6.39c-.91-.74-1.38-1.95-1.38-3.64Z"/>
      <path class="cls-4" d="M26.72,70.37c.53,0,.99-.19,1.37-.57.38-.38.57-.84.57-1.37s-.19-.99-.57-1.37c-.38-.38-.84-.57-1.37-.57s-.99.19-1.37.57c-.38.38-.57.84-.57,1.37s.19.99.57,1.37c.38.38.84.57,1.37.57Z"/>
    </g>
    <path class="cls-4" d="M78.35,67.76v10.43c0,1.79-.66,2.7-1.95,2.7h-5.03c-.41-3.69-1.84-6.24-4.29-7.7-1.02-.61-2.23-.96-3.58-1.1h-2.06l3.44-5.23h-4.59l-5.45,8.77h6.93c1.49,0,2.75.52,3.8,1.57.96.96,1.57,2.2,1.76,3.69h-17.83v-10.02l-3.34-.96v2.84s0,10.49,0,10.49c0,.02,0,.03,0,.05,0-.02,0-.03,0-.05v-2.29c-.57.59-1.31.88-2.19.88-2.28,0-3.42-1.58-3.42-4.75,0-1.48.3-2.63.92-3.45.62-.82,1.45-1.24,2.5-1.24.92,0,1.65.25,2.19.76v-3.24c-.67-.18-1.4-.26-2.19-.26-2.08,0-3.75.69-5.02,2.07-1.27,1.38-1.9,3.16-1.9,5.36s.6,4.08,1.82,5.45c1.21,1.37,2.91,2.04,5.1,2.04.74,0,1.41-.08,2.04-.24-.15.52-.4.93-.79,1.19-.5.34-1.37.54-2.6.61-.07,0-1.13.01-1.13.01l-.79,3s1.11,0,1.21,0c2.54-.04,4.42-.51,5.66-1.44,1.04-.77,1.65-1.91,1.85-3.4.26.14.64.27,1.14.27h26.65c1.62,0,2.89-.55,3.8-1.68.8-.96,1.21-2.17,1.21-3.63v-12.43l-3.85.93Z"/>
    <path class="cls-4" d="M52.74,83.9c-.01.08-.03.16-.05.24.02-.08.04-.16.05-.24Z"/>
    <polygon class="cls-4" points="85 70.37 85 67.76 88.85 66.83 88.85 70.37 85 70.37"/>
    <polygon class="cls-4" points="126.2 70.37 126.2 67.76 130.05 66.83 130.05 70.37 126.2 70.37"/>
    <polygon class="cls-4" points="132.86 70.37 132.86 67.76 136.71 66.83 136.71 70.37 132.86 70.37"/>
  </g>
</svg>