<?xml version="1.0" encoding="UTF-8"?>
<svg id="Layer_1" data-name="Layer 1" xmlns="http://www.w3.org/2000/svg" viewBox="0 0 175 120">
  <defs>
    <style>
      .cls-1 {
        fill: #035091;
      }

      .cls-1, .cls-2, .cls-3, .cls-4, .cls-5 {
        stroke-width: 0px;
      }

      .cls-2 {
        fill: #3c3c3b;
      }

      .cls-3 {
        fill: #0370b4;
      }

      .cls-4 {
        fill: #2daae1;
      }

      .cls-5 {
        fill: #1d1e1c;
      }
    </style>
  </defs>
  <path class="cls-3" d="M17.01,38.6h39.73v15.99s-5.63,1.15-13.81,1.82c0,0-1.09-3.03-4-3.57l-.3-6.54h-3.75l-.12,6.48s-2.97.61-3.94,3.63l-13.81-1.82v-15.99Z"/>
  <path class="cls-1" d="M56.61,59.61s-1.21.48-3.39,1.03c.12.36.18.73.18,1.15,0,2.06-1.7,3.75-3.75,3.75s-3.63-1.57-3.75-3.57c-1.03.12-2.06.24-3.21.3-1.03,2.18-3.21,3.63-5.75,3.63s-4.84-1.57-5.81-3.75c-1.03-.12-2.12-.18-3.21-.36-.06,2.06-1.7,3.69-3.75,3.69s-3.75-1.7-3.75-3.75c0-.42.06-.85.24-1.27-1.15-.24-2.3-.55-3.51-.91,0,0-.12,10.42,8.48,16.17,0,0,2,1.7,10.36,5.33,0,0,.97.79,2.3,0,0,0,4.06-1.64,9.51-4.78-.18.06,9.02-4.91,8.84-16.65Z"/>
  <path class="cls-4" d="M50.25,59.73c9.51-1.88,14.72-4,14.72-4l-.48-1.57c-9.51,2.91-21.5,3.57-22.41,3.63-.55-2.06-2.3-3.63-4.48-3.88h.06l-.12-6.36h-1.27l-.18,6.36h.06c-2.12.3-3.82,1.82-4.42,3.88-.79-.06-12.9-.67-22.47-3.63l-.48,1.57s5.27,2.12,14.72,4c-.97.24-1.7,1.15-1.7,2.18,0,1.27,1.03,2.3,2.3,2.3s2.3-1.03,2.3-2.3c0-.79-.36-1.45-.97-1.88,2,.36,4.18.73,6.54,1.03.79,2,2.73,3.45,4.97,3.45s4.24-1.39,4.97-3.45c2.3-.3,4.48-.67,6.48-1.03-.55.42-.97,1.09-.97,1.82,0,1.27,1.03,2.3,2.3,2.3s2.3-1.03,2.3-2.3c-.06-.97-.79-1.88-1.76-2.12Z"/>
  <g>
    <path class="cls-5" d="M87.86,68.27h-1.82v5.03h-.42v-5.03h-1.88v-.36h4.18v.36h-.06Z"/>
    <path class="cls-5" d="M89.26,70.82v2.42h-.42v-5.39h1.82c.61,0,1.03.12,1.33.36.3.24.48.61.48,1.09,0,.3-.06.55-.24.79-.18.24-.42.36-.73.48.3.06.55.24.73.42.12.24.24.48.24.79v.48c0,.18,0,.3.06.42s.12.24.18.3v.06h-.42c-.12-.06-.18-.24-.18-.36-.06-.18-.06-.3-.06-.48v-.48c0-.3-.12-.61-.3-.79s-.48-.3-.91-.3h-1.57v.18ZM89.26,70.45h1.27c.48,0,.85-.12,1.09-.3.24-.18.36-.48.36-.79,0-.36-.12-.61-.36-.85-.24-.18-.55-.3-1.03-.3h-1.33v2.24h0Z"/>
    <path class="cls-5" d="M96.77,71.79h-2.36l-.55,1.51h-.48l2-5.39h.42l1.94,5.39h-.48l-.48-1.51ZM94.53,71.36h2.06l-1.03-2.85h0l-1.03,2.85Z"/>
    <path class="cls-5" d="M99.31,73.24h-.42v-5.39h.42v5.39Z"/>
    <path class="cls-5" d="M104.94,73.24h-.42l-3.09-4.6h0v4.6h-.42v-5.39h.42l3.09,4.6h0v-4.6h.42v5.39Z"/>
    <path class="cls-5" d="M107,73.24h-.42v-5.39h.42v5.39Z"/>
    <path class="cls-5" d="M112.63,73.24h-.42l-3.09-4.6h0v4.6h-.42v-5.39h.42l3.09,4.6h0v-4.6h.42v5.39Z"/>
    <path class="cls-5" d="M117.96,72.57c-.12.18-.36.36-.67.55-.3.18-.73.24-1.21.24-.61,0-1.15-.24-1.51-.67-.42-.42-.61-.97-.61-1.64v-.97c0-.67.18-1.21.55-1.64.36-.42.85-.61,1.45-.61s1.03.18,1.39.48.48.73.48,1.15h-.42c0-.36-.12-.67-.36-.91-.24-.24-.61-.36-1.09-.36s-.85.18-1.15.55c-.3.36-.42.79-.42,1.33v.97c0,.55.18,1.03.48,1.39s.73.55,1.21.55c.36,0,.67-.06.91-.18s.42-.24.48-.42v-1.39h-1.45v-.36h1.88v1.94h.06Z"/>
    <path class="cls-5" d="M124.56,71.97c0-.3-.12-.48-.3-.67-.24-.18-.61-.36-1.09-.48-.55-.18-1.03-.36-1.33-.61s-.42-.55-.42-.97.18-.73.48-1.03c.36-.24.79-.42,1.27-.42.55,0,.97.12,1.33.42.3.3.48.67.48,1.15h-.42c0-.36-.12-.67-.36-.91s-.61-.36-.97-.36c-.42,0-.73.12-.97.3-.24.18-.36.42-.36.73s.12.48.3.67c.24.18.61.36,1.15.48.55.18,1.03.36,1.27.61.3.24.42.55.42.97s-.18.73-.55,1.03c-.36.24-.79.36-1.33.36s-.97-.12-1.39-.42c-.42-.24-.61-.67-.55-1.21h.42c0,.42.18.73.48.91s.67.3,1.09.3.73-.12,1.03-.3c.12,0,.3-.24.3-.55Z"/>
    <path class="cls-5" d="M129.11,70.64h-2.42v2.24h2.79v.36h-3.21v-5.39h3.21v.36h-2.79v2h2.42v.42Z"/>
    <path class="cls-5" d="M130.98,70.82v2.42h-.42v-5.39h1.82c.61,0,1.03.12,1.33.36.3.24.48.61.48,1.09,0,.3-.06.55-.24.79-.18.24-.42.36-.73.48.3.06.55.24.73.42.12.24.24.48.24.79v.48c0,.18,0,.3.06.42s.12.24.18.3v.06h-.42c-.12-.06-.18-.24-.18-.36-.06-.18-.06-.3-.06-.48v-.48c0-.3-.12-.61-.3-.79-.24-.18-.48-.3-.91-.3h-1.57v.18ZM130.98,70.45h1.27c.48,0,.85-.12,1.09-.3.24-.18.36-.48.36-.79,0-.36-.12-.61-.36-.85-.24-.18-.55-.3-1.03-.3h-1.33v2.24h0Z"/>
    <path class="cls-5" d="M137.1,72.33l.12.36h0l.12-.36,1.64-4.42h.48l-2,5.39h-.42l-2-5.39h.48l1.57,4.42Z"/>
    <path class="cls-5" d="M140.92,73.24h-.42v-5.39h.42v5.39Z"/>
    <path class="cls-5" d="M146.31,71.6h0c0,.55-.18.97-.48,1.27-.36.3-.85.48-1.39.48-.61,0-1.09-.24-1.45-.67-.36-.42-.55-.97-.55-1.7v-.85c0-.67.18-1.27.55-1.7.36-.42.85-.67,1.45-.67s1.03.18,1.39.48.55.73.48,1.27h-.42c0-.42-.12-.79-.42-1.03-.24-.24-.61-.36-1.09-.36s-.85.18-1.15.55c-.3.36-.42.85-.42,1.39v.91c0,.61.12,1.03.42,1.39s.67.55,1.15.55.85-.12,1.09-.36c.24-.24.42-.61.42-1.03h.42v.06Z"/>
    <path class="cls-5" d="M150.42,70.64h-2.42v2.24h2.79v.36h-3.21v-5.39h3.21v.36h-2.79v2h2.42v.42Z"/>
    <path class="cls-5" d="M154.97,71.97c0-.3-.12-.48-.3-.67-.24-.18-.61-.36-1.09-.48-.55-.18-1.03-.36-1.33-.61s-.42-.55-.42-.97.18-.73.48-1.03c.36-.24.79-.42,1.27-.42.55,0,.97.12,1.33.42.3.3.48.67.48,1.15h-.42c0-.36-.12-.67-.36-.91-.24-.24-.61-.36-.97-.36-.42,0-.73.12-.97.3-.24.18-.36.42-.36.73s.12.48.3.67c.24.18.61.36,1.15.48.55.18,1.03.36,1.27.61.3.24.42.55.42.97s-.18.73-.55,1.03c-.36.24-.79.36-1.33.36s-.97-.12-1.39-.42c-.42-.24-.61-.67-.55-1.21h.42c0,.42.18.73.48.91s.67.3,1.09.3.73-.12,1.03-.3c.18,0,.3-.24.3-.55Z"/>
  </g>
  <g>
    <path class="cls-2" d="M71.33,52.71h2.06v10.3h-2.06v-10.3Z"/>
    <path class="cls-2" d="M75.45,52.71h2.36l3.27,7.69,3.27-7.69h2.36v10.3h-2.06v-6.66l-2.79,6.72h-1.57l-2.79-6.72v6.72h-2.06v-10.36Z"/>
    <path class="cls-2" d="M88.77,52.71h2.36l3.27,7.69,3.27-7.69h2.36v10.3h-2.06v-6.66l-2.79,6.72h-1.57l-2.79-6.72v6.72h-2.06v-10.36Z"/>
    <path class="cls-2" d="M117.42,52.59c2.3,0,4.18,1.21,4.84,3.33h-2.36c-.48-.97-1.39-1.45-2.48-1.45-1.82,0-3.09,1.33-3.09,3.39s1.27,3.39,3.09,3.39c1.09,0,2-.48,2.48-1.51h2.36c-.67,2.12-2.54,3.33-4.84,3.33-2.97,0-5.21-2.18-5.21-5.27-.06-3.03,2.18-5.21,5.21-5.21Z"/>
    <path class="cls-2" d="M123.96,52.71h2.06v6.42c0,1.39.79,2.18,2.06,2.18s2.12-.73,2.12-2.18v-6.42h2.06v6.36c0,2.73-1.94,4.06-4.24,4.06s-4.12-1.33-4.12-4.06v-6.36h.06Z"/>
    <path class="cls-2" d="M136.37,52.71v8.66h4.66v1.64h-6.72v-10.3h2.06Z"/>
    <path class="cls-2" d="M151.15,52.71h7.57v1.7h-2.73v8.66h-2.06v-8.66h-2.73v-1.7h-.06Z"/>
    <path class="cls-2" d="M166.23,54.4h-3.94v2.6h3.45v1.64h-3.45v2.73h3.94v1.7h-6v-10.36h6v1.7Z"/>
    <polygon class="cls-2" points="146.61 52.71 144.19 52.71 140.49 63.07 142.67 63.07 143.34 61.07 143.88 59.43 145.4 55.07 146.91 59.43 147.46 61.07 148.12 63.07 150.3 63.07 146.61 52.71"/>
    <polygon class="cls-2" points="107.55 52.71 105.12 52.71 101.43 63.07 103.61 63.07 104.28 61.07 104.82 59.43 106.33 55.07 107.85 59.43 108.39 61.07 109.06 63.07 111.24 63.07 107.55 52.71"/>
  </g>
  <g>
    <path class="cls-2" d="M78.9,46.53v.97h-5.75c-.55,0-.85-.12-1.03-.36-.18-.24-.3-.67-.3-1.39,0-.79.12-1.33.36-1.57.18-.18.55-.3,1.09-.3v.91c-.24,0-.42.06-.55.18-.12.12-.18.36-.18.67,0,.24.06.42.18.61.12.12.3.18.55.18h4.3v-2.6h.85v2.6h.48v.12ZM74.96,49.08v-.79h.85v.79h-.85Z"/>
    <path class="cls-2" d="M81.44,45.93c0,.48-.18.91-.55,1.15-.3.24-.79.36-1.33.36h-.97v-.97h.97c.36,0,.61,0,.67-.06.18-.06.24-.24.24-.48v-2.06h.91v2.06h.06ZM79.02,49.08v-.79h.85v.79h-.85ZM80.23,49.08v-.79h.85v.79h-.85Z"/>
    <path class="cls-2" d="M84.05,47.99c0,.42-.12.79-.36.97-.24.18-.67.3-1.21.3-.3,0-.48,0-.73-.06v-.85h.06c.12.06.3.06.67.06.24,0,.42-.06.48-.18.12-.12.12-.3.12-.55v-3.88h.97v4.18Z"/>
    <path class="cls-2" d="M88.47,43.99c.55,0,.97.12,1.21.36.24.24.36.73.36,1.39v.06l.06.3c.06.24.18.36.36.42h.61v.97h-.12c-.61,0-1.03-.18-1.21-.48l-.06.06-.06.06c-.18.24-.67.36-1.27.36h-3.69v-.97h3.82c.3,0,.48-.06.61-.18s.18-.3.18-.61-.06-.55-.18-.61c-.12-.12-.3-.18-.61-.18h-3.03v-.97h3.03Z"/>
    <path class="cls-2" d="M93.37,45.93c0,.24.06.42.24.48.06.06.3.06.67.06h.06v.97h-.06c-.61,0-1.09-.18-1.45-.48-.36.3-.79.48-1.45.48h-.73v-.97h.73c.36,0,.61,0,.67-.06.18-.06.24-.24.24-.48v-2.06h.97v2.06h.12ZM91.92,43.08v-.79h.85v.79h-.85ZM93.07,43.08v-.79h.85v.79h-.85Z"/>
    <path class="cls-2" d="M95.86,46.17c0,.42-.12.79-.36.97-.24.18-.67.3-1.21.3h-.18v-.97h.12c.24,0,.36-.06.42-.12.12-.06.18-.24.18-.42v-4h.97v4.24h.06Z"/>
    <path class="cls-2" d="M96.46,47.5v-5.57h.97v5.51h-.97v.06Z"/>
    <path class="cls-2" d="M101.01,47.5c-.48,0-.85-.12-1.03-.36s-.3-.67-.3-1.39c0-.79.12-1.33.36-1.57.18-.18.55-.3,1.09-.3v.91c-.24,0-.42.06-.55.18s-.18.36-.18.67c0,.24.06.42.18.61.12.12.3.18.55.18h4.3v-2.6h.85v3.57h-5.27v.12ZM102.28,43.69v-.79h.85v.79h-.85ZM103.49,43.69v-.79h.85v.79h-.85Z"/>
    <path class="cls-2" d="M107.85,45.93c0,.18.06.36.18.42.06.06.24.12.42.12h.12v.97h-.18c-.55,0-.97-.12-1.21-.3-.24-.24-.36-.55-.36-.97v-4.24h.97v4h.06Z"/>
    <path class="cls-2" d="M112.45,44.17c.3.24.48.67.48,1.21v.48c0,.55-.12.97-.42,1.21s-.73.36-1.33.36h-.3c-.42,0-.73-.12-.97-.3l-.06-.06-.12-.12c-.18.3-.61.48-1.21.48h-.12v-.97h.61c.18-.06.36-.18.36-.42l.06-.18v-.48c0-.55.12-.97.42-1.21s.73-.36,1.33-.36,1.03.18,1.27.36ZM110.63,44.84c-.18.12-.24.3-.24.61v.48c0,.3.06.48.18.61s.3.18.61.18c.55,0,.79-.24.79-.79v-.48c0-.48-.24-.73-.79-.73-.24-.06-.42,0-.55.12Z"/>
    <path class="cls-2" d="M117.36,43.99c.55,0,.97.12,1.21.36.24.24.36.73.36,1.39v.06l.06.3c.06.24.18.36.36.42h.61v.97h-.12c-.61,0-1.03-.18-1.21-.48l-.06.06-.06.06c-.18.24-.67.36-1.27.36h-3.69v-.97h3.82c.3,0,.48-.06.61-.18s.18-.3.18-.61-.06-.55-.18-.61c-.12-.12-.3-.18-.61-.18h-3.03v-.97h3.03Z"/>
    <path class="cls-2" d="M123.41,44.29c.42.06.73.18.91.42.12.18.24.48.24.97l.06.36c.06.24.18.36.36.42.06,0,.3.06.61.06h.06v.97h-.12c-.67,0-1.09-.18-1.27-.48,0,.06-.06.06-.06.12-.24.24-.61.36-1.15.36h-3.45v-.97h3.39c.48,0,.73-.18.73-.61v-.12c0-.3-.18-.48-.61-.55l-2.91-.42.06-.97,3.15.42ZM121.54,43.08v-.79h.85v.79h-.85Z"/>
    <path class="cls-2" d="M127.11,46.17c0,.42-.12.79-.36.97-.24.18-.67.3-1.21.3h-.18v-.97h.12c.24,0,.36-.06.42-.12.12-.06.18-.24.18-.42v-4h.97v4.24h.06Z"/>
    <path class="cls-2" d="M136.56,46.53v.97h-5.75c-.55,0-.85-.12-1.03-.36s-.3-.67-.3-1.39c0-.79.12-1.33.36-1.57.18-.18.55-.3,1.09-.3v.91c-.24,0-.42.06-.55.18s-.18.36-.18.67c0,.24.06.42.18.61.12.12.3.18.55.18h4.3v-2.6h.85v2.6h.48v.12ZM132.01,43.69v-.79h.85v.79h-.85ZM133.22,43.69v-.79h.85v.79h-.85Z"/>
    <path class="cls-2" d="M138.8,45.93c0,.24.06.42.24.48.06.06.3.06.67.06h.06v.97h-.06c-.61,0-1.09-.18-1.45-.48-.36.3-.79.48-1.45.48h-.55v-.97h.67c.36,0,.61,0,.67-.06.18-.06.24-.24.24-.48v-2.06h.97v2.06h0ZM137.34,49.08v-.79h.85v.79h-.85ZM138.55,49.08v-.79h.85v.79h-.85Z"/>
    <path class="cls-2" d="M141.28,46.17c0,.42-.12.79-.36.97-.24.18-.67.3-1.21.3h-.18v-.97h.12c.24,0,.36-.06.42-.12.12-.06.18-.24.18-.42v-4h.97v4.24h.06Z"/>
    <path class="cls-2" d="M146,47.5h-.55v.48c0,.48-.12.85-.36,1.03-.24.18-1.21.42-1.88.42l-.42-.91c.24,0,1.39-.06,1.51-.18s.18-.3.18-.55v-.36h-1.09c-.48,0-.79-.06-.97-.24-.91-.73-.67-3.33,1.21-3.33h1.82v2.6h.55v1.03h0ZM143.7,44.71c-1.15,0-1.15,1.76-.36,1.76h1.21v-1.76h-.85Z"/>
    <path class="cls-2" d="M148.24,45.93c0,.24.06.42.24.48.06.06.3.06.67.06h.06v.97h-.06c-.61,0-1.09-.18-1.45-.48-.36.3-.79.48-1.45.48h-.67v-.97h.67c.36,0,.61,0,.67-.06.18-.06.24-.24.24-.48v-2.06h.97v2.06h.12ZM146.79,49.08v-.79h.85v.79h-.85ZM148,49.08v-.79h.85v.79h-.85Z"/>
    <path class="cls-2" d="M151.27,42.96c-.3,0-.48.06-.55.12-.12.06-.18.18-.18.36,0,.12,0,.18.06.3.06.06.12.18.24.24l1.39.91c.3.18.48.36.55.48.06.12.12.36.12.67,0,.55-.12.91-.3,1.15-.18.24-.55.36-.97.36h-2.6v-.97h2.12c.48,0,.67-.12.67-.42,0-.18,0-.3-.06-.36,0-.06-.12-.18-.18-.24l-1.21-.73c-.36-.24-.61-.42-.67-.55-.12-.18-.18-.36-.18-.67,0-.55.12-.91.3-1.15s.48-.3.91-.36l2.06-.12v.85l-1.51.12Z"/>
    <path class="cls-2" d="M154.42,45.93c0,.18.06.36.18.42.06.06.24.12.42.12h.12v.97h-.12c-.55,0-.97-.12-1.21-.3-.24-.24-.36-.55-.36-.97v-4.24h.97v4Z"/>
    <path class="cls-2" d="M159.02,44.17c.3.24.48.67.48,1.21v.48l.06.18c.06.24.18.36.36.42h.61v.97h-.12c-.61,0-1.03-.18-1.21-.48q-.06.06-.12.12c-.18.18-.55.3-1.03.36h-.61c-.42,0-.73-.12-.97-.3l-.06-.06-.18-.06c-.18.3-.61.48-1.21.48h-.12v-.97h.61c.18-.06.36-.18.36-.42l.06-.18v-.48c0-.55.12-.97.42-1.21s.73-.36,1.33-.36c.61,0,1.03.12,1.33.3ZM157.15,44.84c-.18.12-.24.3-.24.61v.48c0,.3.06.48.18.61s.3.18.61.18c.55,0,.79-.24.79-.79v-.48c0-.48-.24-.73-.79-.73-.24-.06-.42,0-.55.12Z"/>
    <path class="cls-2" d="M163.02,45.93c0,.48-.18.91-.55,1.15-.3.24-.79.36-1.33.36h-.97v-.97h.97c.36,0,.61,0,.67-.06.18-.06.24-.24.24-.48v-2.06h.91v2.06h.06ZM160.6,49.08v-.79h.85v.79h-.85ZM161.81,49.08v-.79h.85v.79h-.85Z"/>
    <path class="cls-2" d="M163.63,47.5v-5.57h.97v5.51h-.97v.06Z"/>
  </g>
</svg>