<?xml version="1.0" encoding="UTF-8"?>
<svg id="Layer_1" data-name="Layer 1" xmlns="http://www.w3.org/2000/svg" viewBox="0 0 175 120">
  <defs>
    <style>
      .cls-1 {
        fill: #901d24;
        fill-rule: evenodd;
        stroke-width: 0px;
      }
    </style>
  </defs>
  <path class="cls-1" d="M86.35,57.59c1.92,0,3.46,1.54,3.46,3.45s-1.55,3.45-3.46,3.45-3.45-1.55-3.45-3.45,1.54-3.45,3.45-3.45h0Z"/>
  <path class="cls-1" d="M149.51,80.06c0-3.48.31-5.54,2.49-8.4l2.85-2.86c.75.66,2.01,1.49,2.76,2.24,2.7,2.68,4.85,5.5,5.59,9.43.72,3.79-.86,8.44-3.19,11.38-.65.82-1.15,1.22-1.94,1.84l-.73.57c-.25-.17-.47-.36-.71-.58-2.49-2.36-3.24-2.93-4.92-6.15-.9-1.74-1.52-3.04-1.91-5-.15-.78-.3-1.58-.3-2.47h0ZM146.09,81.72c0,1.91.28,2.99.74,4.7.21.78.48,1.24.76,1.92.62,1.55,3.06,5.31,4.35,6.63,2.95,3.39,6.68,6.41,8.71,10.48.83,1.68,1.22,2.73,1.22,4.86,0,.7-.19,1.05-.19,1.67,1.37-.32,2.77-2.93,2.95-4.25.61-4.4-.56-6.3-3.48-9.61-.3-.33-.62-.58-.92-.92l-.85-.98,1.62-1.52s.03-.03.05-.04c0-.02.03-.04.05-.05l.98-1.04c.41-.48.87-.91,1.26-1.41.21-.28.36-.38.59-.69.99-1.34,1.97-2.4,2.63-4.11,1.38-3.66,1.26-7.12-.51-10.63-.37-.72-1.22-1.97-1.76-2.57-1.78-1.99-2.49-2.71-4.43-4.44-.21-.18-.28-.19-.5-.4l-1.85-1.67c-.45-.43-1.45-1.13-1.63-1.96-.31.08-1.86,1.4-2.24,1.73l-1.34,1.14c-.74.76-1.22,1.13-1.98,1.99-.18.21-.19.26-.37.46-2.5,2.69-3.86,7.13-3.86,10.72h0Z"/>
  <path class="cls-1" d="M7.66,70.75c.81-.6-.17-.92,3.13-.92h12.36c-.74,1.4-1.69,2.21-2,4.73-.25,1.99-.34,4.32-.5,6.33l-.46,6.27c-.14,5.7-.82,9.2.75,14.95.12.44.28.82.46,1.2,1.97,4.05,5.32,8.67,10.24,8.67-.43-.62-1.31-1.23-1.82-1.89-1.08-1.42-1.27-1.42-2.41-3.19-.83-1.29-1.28-2.32-1.86-3.78-1.05-2.6-1.24-5.02-1.48-7.84-.14-1.72,1.78-16.51,2.06-18.6.26-1.91.41-4.5,1.27-6.21.22-.44.37-.77.67-1.16,1.2-1.6,2.72-2.71,2.83-2.89-1.35-.03-1.31-.14-2.89.43-3.06,1.1-13.22.49-17.02.49-1.22,0-2.05.23-2.66.85-.53.54-1.1,1.66-.66,2.57h0Z"/>
  <path class="cls-1" d="M122.58,95.18h3.69v-7.28h9.68v7.46c0,.21.06.29.27.29h3.23c.21,0,.28-.08.28-.29v-26.37h-3.78v16.7h-9.68v-16.42c0-.21-.07-.28-.28-.28h-3.41v26.19h0Z"/>
  <path class="cls-1" d="M57.46,95.93h2.59v-18.18c.05.06.84,1.69,1.63,2.61,1.51,1.71,1.88,2.17,3.64,3.73,1.01.9,3.16,2.64,3.89,3.58.45.59,1.09,1.18,1.93,2.31,1.49,1.97,1.74,2.48,2.8,4.59.1.23.21.54.4.7.2.15,1.15.63,1.47.66v-26.94h-2.58v18.54l-.19-.28c-1.34-2.41-2.72-3.83-4.68-5.64-.21-.2-.34-.36-.55-.55l-1.74-1.5c-.31-.23-.87-.8-1.12-1.09l-1.01-1.11c-1.13-1.46-2.19-2.81-3.11-4.46l-1.11-2.21c-.12-.25-.54-1.45-.6-1.52-.12-.12-1.41-.53-1.67-.55v27.31h0Z"/>
  <path class="cls-1" d="M96.29,74.16c0,2.89,2.85,5.23,5.11,6.6l1.26.68c.47.23.84.46,1.32.7,2.68,1.34,8.27,4.23,8.27,7.59,0,.91-.27,1.39-.63,1.96-1.7,2.7-8.72,3.7-12.72-.97-1.35-1.58-1.42-2.86-3.8-3.21-.75-.12-1.2-.53-.29,1.96.86,2.37,3.07,4.16,5.26,5.24,3.17,1.56,8.1,1.7,11.57.13l1.18-.57c2.13-1.36,3.67-2.69,3.67-5.74,0-3.44-3.62-6.48-6.52-7.86-2.25-1.08-4.52-2.19-6.7-3.45l-1.82-1.23c-.71-.52-1.28-1.17-1.46-2.14-.14-.75-.01-1.28.31-1.87,1.08-1.94,5.18-2.02,7.17-.17l1.29,1.29c.19.21.21.29.42.51.53.55,1.25,1.28,1.97,1.53.74.27.77.12,1.47.1-.44-1.87-1.49-3.34-2.83-4.63-2.72-2.62-8.32-2.77-11.24-.58-1.03.76-2.26,2.38-2.26,4.11h0Z"/>
  <path class="cls-1" d="M46.95,76.37v11.44h-10.23c.14-1.65,3.44-4.49,4.96-5.83.99-.89,2.7-2.27,3.47-3.26.24-.3.39-.42.63-.76l1.17-1.59h0ZM30.35,92.88c0,1.3.15,1.74.38,3.06h4.59c-.03-.45-.22-.73-.31-1.27-.5-2.89.44-3.86.68-4.93h11.25v6.19h2.95v-27.22c0-.5-.63-.17-.86-.03-.57.31-1.36,1.64-1.82,2.34-1,1.52-1.42,1.88-2.41,3.12-.74.92-3.05,3.24-4.12,4.19-.3.25-.44.34-.73.64-.27.29-.47.37-.74.65l-2.86,2.67c-.12.13-.19.2-.31.32-1.69,1.77-3.4,3.75-4.5,5.93-.52,1.04-1.2,2.8-1.2,4.34h0Z"/>
  <polygon class="cls-1" points="84.49 95.93 88.08 95.93 88.08 68.99 84.49 68.99 84.49 95.93 84.49 95.93"/>
  <path class="cls-1" d="M102.12,52.92c-6.11-4.56-9.62-15.39-9.61-22.75V13.94c4.01,2.11,11.74-.08,15.93,1.22,1.24.38,2.12,1.3,2.61,2.46.14.33,0,.28.35.37l.1-1.56c0-2.45-1.24-4.33-2.76-5.28-.84-.54-1.79-.91-3.15-.91-2.64.02-10.35.14-12.01-.07-1.68-.21-3.21-.75-4.63-1.46l-1.36-.68v15.68c0,2.69,0,5.18.2,7.65.09,1.18.29,2.34.49,3.47.35,1.9.98,4.36,1.69,6.16,1.86,4.72,4.11,8.2,8.23,11.42,1.55,1.23,8.86,4.21,3.9.51h0Z"/>
  <path class="cls-1" d="M70.45,52.92c6.11-4.56,9.63-15.39,9.62-22.75V13.94c-4.01,2.11-11.74-.08-15.94,1.22-1.24.38-2.12,1.3-2.61,2.46-.14.33,0,.28-.36.37l-.1-1.56c0-2.45,1.24-4.33,2.75-5.28.84-.54,1.79-.91,3.15-.91,2.64.02,10.35.14,12.01-.07,1.68-.21,3.21-.75,4.63-1.46l1.35-.68v15.68c0,2.69,0,5.18-.19,7.65-.09,1.18-.29,2.34-.49,3.47-.34,1.9-.99,4.36-1.69,6.16-1.86,4.72-4.11,8.2-8.23,11.42-1.55,1.23-8.87,4.21-3.91.51h0Z"/>
</svg>