<?xml version="1.0" encoding="UTF-8"?>
<svg id="Layer_1" data-name="Layer 1" xmlns="http://www.w3.org/2000/svg" viewBox="0 0 175 120">
  <defs>
    <style>
      .cls-1, .cls-2 {
        fill: #c36978;
        stroke-width: 0px;
      }

      .cls-2 {
        fill-rule: evenodd;
      }
    </style>
  </defs>
  <path class="cls-2" d="M51.43,51.83c-4.23-2.03-6.82,3.3-8.37,1.89-.47-.38-.64-1.28-.64-1.69,0-.04,0-.07,0-.1,1.3-.11,2.58-.78,3.44-2.19.35-.57.59-1.41.61-2.17-.03-1.46-.03-1.36-1.62-1.11-.7-.98-.94-1.96-2.79-2.03-1.76-.06-2.56.87-3.07,2.03-.52-.09-1-.15-1.51-.1-.89,3.02,1.54,5.36,4.16,5.57,0,.02,0,.03,0,.05.01.29.08.77.23,1.21.28.84.96,1.65,1.93,1.53,1.86-.22,4.07-3.52,6.99-2.39,1.06.41,2.04,1.39,2.37,2.57.97,3.45-2.88,6.52-6.31,3.91l-5.81-4.07c-.27-.2-.45-.32-.78-.54-.99-.66-2.67-2.05-3.67-2.47-2.91-1.24-5.6.72-6.23,2.97-.83,2.96,1.32,5.53,3.85,5.79,2.42.25,3.73-1.3,5.19-2.17.23-.14.49-.3.74-.47.6-.44.41-.73.04-.74-.34-.01-2.46,1.51-2.8,1.72-1.11.7-1.92,1.31-3.66.85-2.31-.61-3.88-3.71-1.99-6.02,3.07-3.74,6.31.09,8.76,1.54.3.18.41.27.7.5l5.71,4.04c1.08.65,2.38,1.04,3.82.62,4.04-1.16,4.56-6.68.71-8.52ZM45.79,47.24c.11,2.05-1.42,3.8-3.39,3.93-.21-2.28,1.43-4.3,3.39-3.93ZM41.93,45.08c1.38,0,1.85.95,2.19,1.62-.99.53-1.84,1.37-2.25,2.23-.13-.57-1.98-2.29-2.22-2.3.2-.92,1.19-1.55,2.28-1.55ZM38.08,46.98c2.24.26,3.5,1.98,3.53,4.22-1.61.09-4.18-2.06-3.53-4.22Z"/>
  <path class="cls-1" d="M15.29,57.86c0,2.16-1.86,2.74-3.16,2.74h-3.06c.26-.13.28-.28.3-.59v-7.81c-.01-.3-.04-.46-.3-.59h2.22c2.07,0,2.56,1,2.56,1.68,0,.99-1.05,1.65-1.68,1.99.95-.22,3.12.42,3.12,2.58M9.98,57.08c.53-1.57,3.15-1.7,3.15-3.95,0-.26-.06-1.45-2-1.45h-1.14v5.4ZM14.58,57.86c0-2.07-1.65-2.66-2.51-2.51-.04,0-.08.01-.12.04-.87.49-1.76.99-1.98,1.95v3.17h1.93c.71,0,2.67-.42,2.67-2.66"/>
  <path class="cls-1" d="M12.12,60.75h-3.69l.56-.28c.18-.09.2-.17.21-.46v-7.81c-.01-.29-.04-.37-.21-.46l-.56-.28h2.85c2,0,2.71.95,2.71,1.83,0,.81-.61,1.39-1.24,1.81.54.04,1.18.25,1.7.66.45.36.98,1.01.98,2.1,0,2.13-1.78,2.89-3.31,2.89M10.13,60.37h1.78s2.52-.03,2.52-2.51c0-.81-.27-1.47-.78-1.9-.5-.42-1.14-.54-1.55-.46-.04,0-.05,0-.06.02-.84.47-1.7.95-1.91,1.85v3.01ZM10.13,51.83v4.66c.31-.41.76-.72,1.2-1.02.85-.57,1.65-1.12,1.65-2.34,0-.39-.18-1.3-1.86-1.3h-1Z"/>
  <path class="cls-1" d="M68.5,60.01v-7.81c0-.28.03-.37.21-.46l.6-.28h-1.68l-3.92,8.1-3.6-7.43-.28-.66h-1.63l.58.28c.18.09.2.17.2.44v.17s0,0,0,0v8.08c0,.12,0,.16-.09.2l-.31.12h1.21l-.31-.12c-.08-.04-.09-.07-.09-.2v-.93l.09-6.58,3.93,8.15,3.98-8.04.18,6.99c0,.28-.03.37-.21.46l-.59.28h2.54l-.59-.28c-.19-.09-.21-.17-.21-.46"/>
  <path class="cls-1" d="M76.68,55.55c-1.36-.65-2.64-1.26-2.48-2.51.1-.79.93-1.34,2.02-1.34,1.22,0,1.91.61,2.63,1.6l.27.37v-1.17l-.06-.04c-.94-.71-1.72-1.12-2.92-1.12-1.26,0-2.35.76-2.58,1.81-.37,1.77,1.32,2.59,2.8,3.31,1.33.65,2.59,1.26,2.45,2.43-.13,1.03-1.07,1.62-2.52,1.59-1.28-.02-2.35-.52-3.1-1.42l-.26-.32v1.12l.06.04c.91.64,2.09.98,3.39.98,1.68,0,2.91-.83,3.12-2.12h0c.27-1.74-1.31-2.49-2.83-3.21"/>
  <path class="cls-1" d="M89.5,55.76c-.52-.41-1.16-.62-1.7-.66.63-.42,1.24-1,1.24-1.81,0-.89-.71-1.83-2.71-1.83h-2.85l.56.28c.17.09.2.17.21.46v7.81c-.01.3-.03.37-.21.46l-.56.28h3.69c1.53,0,3.31-.76,3.31-2.89,0-1.09-.53-1.75-.98-2.1M86.37,55.47c-.44.3-.9.61-1.2,1.02v-4.66h1c1.68,0,1.86.91,1.86,1.3,0,1.22-.8,1.76-1.65,2.34M85.17,57.36c.21-.9,1.07-1.38,1.91-1.85,0,0,.02-.01.06-.02.41-.07,1.05.04,1.55.46.51.43.78,1.08.78,1.9,0,2.48-2.5,2.51-2.52,2.51h-1.78v-3.01Z"/>
  <path class="cls-1" d="M100.34,51.45l.6.28c.19.09.21.17.21.46h0v5.67c0,1.72-1.28,2.61-2.55,2.61-.9,0-2.61-.52-2.61-2.5v-5.78c0-.29.02-.37.21-.46l.59-.28h-2.54l.59.28c.19.09.21.17.21.46v5.58c0,2.14,1.78,3.1,3.54,3.1,1.42,0,2.94-1.09,2.94-3.1v-5.58c0-.29.02-.37.21-.46l.59-.28h-2Z"/>
  <path class="cls-1" d="M112.29,60.07s-1-2.7-1.21-3.28c-.29-.75-.61-1.22-1.29-1.36.91-.51,1.81-1.06,1.81-2.16,0-.3-.13-1.82-2.69-1.82h-2.89l.59.28c.19.09.21.17.21.46v7.81c0,.28-.02.36-.22.46l-.53.28h2.43l-.53-.28c-.19-.1-.22-.18-.22-.46v-2.66c.16-.7.7-1.14,1.47-1.59.41.02.58.3.99,1.33.26.67.98,2.63,1.12,3.03h0c.03.09.03.16,0,.21-.04.09-.15.12-.15.12l-.63.29h2.97s-.81-.29-.81-.29c-.01,0-.3-.08-.41-.38M107.74,56.49v-4.66h1c1.72,0,1.86.99,1.86,1.29,0,1.23-.8,1.77-1.65,2.35-.44.3-.89.61-1.2,1.02"/>
  <path class="cls-1" d="M121.75,52.7c-.13-.38-.35-.7-.63-.93-.18-.14-.39-.25-.65-.33-.26-.08-.49-.11-.79-.11v.15h0v.08h0v.15c.3,0,.44.03.68.1.19.06.37.15.51.27.21.17.39.43.5.76.11.33.15.71.1,1.08-.02.24-.09.49-.23.88-.17.4-.35.75-.57,1.1l-.92,1.49-2.86-5.28c-.06-.11-.08-.2-.05-.27,0-.01,0-.02.01-.03.03-.03.07-.06.13-.08l.55-.26h-1.86,0s-.79,0-.79,0l.62.28s.26.12.47.5l3.05,5.66v2.11c0,.28-.02.36-.22.46l-.53.28h2.39l-.51-.28c-.18-.1-.21-.18-.22-.46v-2.21l1.06-1.72c.26-.41.45-.79.61-1.16.14-.39.23-.7.27-.97.04-.43,0-.87-.12-1.25"/>
  <path class="cls-1" d="M36.99,69.63c0-.53-.02-1.42-.03-1.57-.02-.22-.06-.3-.31-.3h-.39s-.06-.04-.06-.08v-.18s0-.06.06-.06c.09,0,.39.03,1.08.03.81,0,1.16-.03,1.23-.03.07,0,.07.03.07.07v.19s-.02.07-.08.07h-.5c-.26,0-.29.08-.29.32,0,.11-.03,1.37-.03,1.95v.72c0,.14,0,1.94.03,2.28.18.02,1.83.03,2.09,0,.49-.07.99-1.07,1.11-1.4.02-.03.03-.05.07-.03l.13.05s.02.03.02.07c-.02.06-.36,1.43-.41,1.66-.11,0-.76-.02-1.5-.02-.74,0-1.56,0-2.01,0-.32,0-.57,0-.74,0-.17,0-.27.02-.32.02s-.07-.02-.07-.06v-.21s0-.06.06-.06h.4c.31,0,.36-.12.36-.22,0-.16.03-2.23.03-2.74v-.47Z"/>
  <path class="cls-1" d="M44.89,71.67c0,.4,0,.81.02.98.03.26.12.29.22.29.05,0,.17,0,.27-.02.07-.02.09,0,.1.03l.02.11c0,.05,0,.07-.04.07l-.87.29c-.05.02-.1.03-.17.03-.03,0-.07-.02-.07-.1l-.07-.48h-.02c-.23.32-.72.58-1.13.58-.23,0-.51-.03-.78-.38-.34-.44-.32-.72-.32-1.63v-.97c0-.23-.12-.29-.32-.32-.14,0-.18-.02-.18-.06v-.15s.02-.07.09-.07h.74s.08,0,.12-.02c.03,0,.07,0,.09,0,.06,0,.1.04.09.1,0,.07-.03.47-.03.96v.59c0,.33-.08.87.18,1.25.21.3.44.32.67.32s.56-.22.72-.42c.03-.04.08-.15.08-.22v-1.98c-.02-.23-.15-.27-.36-.29-.14,0-.18-.02-.18-.06v-.14c0-.07.02-.07.1-.07h.77c.06,0,.1,0,.14-.02.04,0,.07,0,.1,0,.05,0,.08.04.08.08,0,.08-.05.29-.05,1.11v.62Z"/>
  <path class="cls-1" d="M46.89,73.32s0,.07-.06.07c-.07,0-.29-.03-.65-.03-.42,0-.56.03-.64.03-.07,0-.07-.03-.07-.08v-.15s0-.07.07-.07h.22c.18,0,.27-.03.34-.1.16-.14.93-1.17,1.07-1.33-.32-.49-.79-1.17-.98-1.37-.07-.08-.18-.12-.3-.12h-.23c-.05,0-.06-.03-.06-.06v-.17c0-.06,0-.07.07-.07.07,0,.29.03.68.03s.7-.03.77-.03c.04,0,.05.03.05.07v.16s-.02.07-.05.07h-.07c-.13,0-.13.13-.03.28l.52.82.63-.83c.08-.1.05-.27-.09-.27h-.1s-.05-.03-.05-.06v-.18s0-.07.04-.07c.1,0,.24.03.72.03.33,0,.42-.03.47-.03.07,0,.07.03.07.08v.15s0,.07-.07.07h-.13c-.16,0-.24.03-.32.1-.14.12-.85.99-1.02,1.21.33.49.67,1,1.03,1.44.1.12.22.18.37.18h.13s.04.02.04.07v.17s0,.07-.06.07c-.07,0-.23-.03-.64-.03-.47,0-.72.03-.82.03-.06,0-.07-.03-.07-.08v-.14c0-.06,0-.08.07-.08h.12c.09,0,.14-.12.05-.27l-.6-.96c-.12.17-.67.91-.72,1.04-.04.09,0,.18.09.18h.17s.04.03.04.07v.17Z"/>
  <path class="cls-1" d="M52.75,71.67c0,.4,0,.81.02.98.03.26.12.29.22.29.05,0,.17,0,.27-.02.07-.02.09,0,.1.03l.02.11c0,.05,0,.07-.04.07l-.87.29c-.05.02-.1.03-.17.03-.03,0-.07-.02-.07-.1l-.07-.48h-.02c-.23.32-.72.58-1.13.58-.23,0-.51-.03-.78-.38-.34-.44-.32-.72-.32-1.63v-.97c0-.23-.13-.29-.32-.32-.14,0-.18-.02-.18-.06v-.15s.02-.07.09-.07h.74s.08,0,.12-.02c.03,0,.07,0,.09,0,.06,0,.1.04.09.1,0,.07-.03.47-.03.96v.59c0,.33-.08.87.18,1.25.21.3.44.32.67.32s.56-.22.72-.42c.03-.04.08-.15.08-.22v-1.98c-.02-.23-.15-.27-.36-.29-.14,0-.18-.02-.18-.06v-.14c0-.07.02-.07.1-.07h.77c.06,0,.1,0,.14-.02.04,0,.07,0,.1,0,.05,0,.08.04.08.08,0,.08-.05.29-.05,1.11v.62Z"/>
  <path class="cls-1" d="M54.29,71.15c0-.42-.07-.51-.3-.63l-.16-.08s-.07-.03-.07-.06v-.05s.02-.05.07-.08l.82-.42s.08-.03.12-.03c.05,0,.06.05.06.1l.04.57h.03c.25-.38.64-.72,1-.72.28,0,.42.18.42.37,0,.24-.2.41-.35.41-.09,0-.18-.03-.24-.07-.07-.04-.17-.07-.27-.07-.13,0-.35.08-.49.35-.05.09-.08.24-.08.27v1.75c0,.26.06.34.23.34h.39c.05,0,.06.03.06.08v.15c0,.05,0,.08-.04.08-.05,0-.43-.03-.88-.03-.52,0-.87.03-.92.03-.03,0-.05-.02-.05-.08v-.14c0-.06.02-.08.09-.08h.32c.12,0,.18-.05.18-.16,0-.27,0-.57,0-1v-.78Z"/>
  <path class="cls-1" d="M56.61,75.2c0-.18.18-.32.38-.32.16,0,.31.07.38.09.06,0,.12,0,.18-.05.12-.15.55-1.1.67-1.42-.04-.21-.92-2.81-.99-2.98-.1-.21-.17-.35-.39-.35h-.22c-.06,0-.07-.03-.07-.07v-.17s0-.06.07-.06c.07,0,.27.03.77.03.42,0,.68-.03.77-.03.07,0,.08.03.08.06v.18s0,.07-.05.07h-.16c-.09,0-.13.06-.11.18.03.18.59,2.01.68,2.2h.03c.08-.13.81-1.86.86-2.06s-.02-.32-.14-.32h-.13c-.05,0-.06-.03-.06-.07v-.17s0-.07.05-.07c.11,0,.28.03.68.03.22,0,.42-.03.51-.03.05,0,.05.03.05.07v.16s0,.07-.04.07h-.13c-.09,0-.21.04-.29.15-.18.22-.73,1.49-1.31,2.8-.41.92-.73,1.7-.88,1.97-.12.22-.27.54-.71.54-.32,0-.47-.17-.47-.42"/>
  <path class="cls-1" d="M64.32,73.31c-.57-.22-.86-.59-.99-1.12-.1-.38-.13-.93-.13-2.02v-1.98c0-.29-.06-.42-.32-.42h-.39s-.06-.02-.06-.08v-.18s0-.07.07-.07c.08,0,.49.03,1.14.03s1.05-.03,1.14-.03c.07,0,.07.02.07.05v.22s0,.06-.07.06h-.42c-.24,0-.38.16-.4.34,0,.08-.02.66-.02,1.08v.55c0,.44.03,1.5.04,1.77,0,.38.07.77.27,1.06.31.45.84.6,1.32.6s.96-.16,1.25-.46c.32-.35.43-.85.43-1.47v-1.78c0-.63-.02-1.12-.04-1.32-.03-.22-.16-.37-.37-.37h-.37s-.06-.03-.06-.07v-.2s0-.06.06-.06c.08,0,.47.03,1.02.03s.84-.03.92-.03.08.03.08.06v.18c0,.05,0,.08-.05.08h-.34c-.31,0-.33.23-.36.33-.02.08-.02,1.27-.02,1.38s-.02,1.57-.04,1.9c-.05.68-.23,1.21-.7,1.61-.33.31-.84.5-1.57.5-.43,0-.85-.06-1.12-.18"/>
  <path class="cls-1" d="M72.3,72.91c0,.13.08.18.18.18h.27c.07,0,.09.03.09.08v.13c0,.06-.02.09-.07.09-.06,0-.32-.03-.79-.03-.42,0-.69.03-.75.03-.05,0-.07-.03-.07-.09v-.13c0-.06.03-.08.11-.08h.24c.09,0,.16-.04.17-.19,0-.22.02-.48.02-.7v-1.1c0-.33,0-.57-.24-.75-.2-.15-.4-.15-.61-.15-.13,0-.42.06-.67.32-.17.18-.19.41-.19.57v1.72c0,.23.03.27.2.27h.21c.07,0,.08.03.08.08v.14c0,.05-.02.08-.06.08-.06,0-.28-.03-.72-.03s-.69.03-.74.03c-.04,0-.06-.03-.06-.08v-.15c0-.05.02-.08.08-.08h.24c.11,0,.17-.02.17-.17v-1.95c0-.25-.13-.39-.34-.49l-.07-.03c-.06-.03-.07-.05-.07-.07v-.04s.03-.07.08-.08l.72-.4c.07-.03.12-.06.15-.06.04,0,.06.03.07.1l.06.51h.02c.24-.3.72-.61,1.14-.61.25,0,.51.05.71.18.25.17.46.58.46.79v2.15Z"/>
  <path class="cls-1" d="M74.88,72.59h.03c.13-.32.72-1.75.8-2.07.06-.23,0-.36-.15-.36h-.17s-.03-.04-.03-.08v-.15c0-.05.02-.07.05-.07.12,0,.3.03.67.03.32,0,.53-.03.6-.03.07,0,.07,0,.07.08v.14c0,.06,0,.08-.04.08h-.16c-.1,0-.18.02-.26.09-.12.12-.54,1.02-.67,1.33-.1.25-.72,1.65-.75,1.71-.07.12-.11.19-.2.19-.08,0-.13-.07-.17-.18-.02-.04-.62-1.62-.65-1.69-.03-.07-.37-1.02-.42-1.15-.11-.24-.19-.31-.34-.31h-.17s-.05-.03-.05-.08v-.15c0-.06.02-.07.09-.07.09,0,.23.03.7.03.44,0,.66-.03.75-.03.07,0,.08.02.08.07v.15c0,.05,0,.08-.06.08h-.17c-.08,0-.15.05-.15.16,0,.15.22.84.27.98.05.16.41,1.12.5,1.29"/>
  <path class="cls-1" d="M77.47,71.15c-.02.07-.03.21-.03.4,0,.82.52,1.43,1.18,1.43.51,0,.87-.29,1.01-.57.02-.03.05-.05.07-.04l.11.06s.04.03,0,.12c-.15.33-.58.91-1.32.91-.47,0-1-.14-1.31-.59-.29-.42-.37-.73-.37-1.32,0-.32.08-.88.52-1.32.36-.37.77-.44,1.19-.44.96,0,1.22.9,1.22,1.22,0,.12-.1.13-.23.13h-2.06ZM78.8,70.9c.16,0,.22-.04.22-.12,0-.19-.1-.74-.64-.74-.37,0-.72.24-.87.86h1.29Z"/>
  <path class="cls-1" d="M80.91,70.94c0-.28-.05-.43-.47-.5-.06,0-.07-.02-.07-.06v-.07s.02-.04.06-.06c.27-.1.58-.23.9-.41.07-.03.11-.05.16-.05.04,0,.05.04.04.1-.02.14-.02.67-.02,1.36v.91c0,.32,0,.62,0,.72.02.16.04.22.13.22h.38c.07,0,.08.03.08.07v.14c0,.06-.02.08-.08.08-.07,0-.45-.03-.8-.03-.48,0-.81.03-.9.03-.04,0-.07-.02-.07-.07v-.17s.03-.07.08-.07h.41c.09,0,.12-.03.13-.17,0-.25,0-.51,0-.76v-1.22ZM80.53,68.4c0-.21.17-.43.51-.43.29,0,.43.23.43.41,0,.22-.15.46-.48.46-.18,0-.46-.17-.46-.43"/>
  <path class="cls-1" d="M83.68,70.88c0,.43,0,1.69,0,1.95,0,.14.04.26.22.26h.37c.07,0,.09.03.09.08v.14c0,.05-.02.08-.05.08-.06,0-.42-.03-.94-.03s-.87.03-.94.03c-.04,0-.06-.03-.06-.08v-.14c0-.06.02-.08.11-.08h.4c.09,0,.18-.06.18-.21,0-.26,0-1.69,0-2.17v-.52c0-.59,0-1.35-.03-1.57-.02-.28-.15-.42-.42-.5l-.17-.06s-.05-.02-.05-.04v-.07s.03-.04.08-.06c.29-.13.67-.28.97-.48.07-.05.12-.07.17-.07.06,0,.08.04.07.15,0,.46-.03,2.19-.03,2.65v.74Z"/>
  <path class="cls-1" d="M85.37,71.15c-.02.07-.03.21-.03.4,0,.82.52,1.43,1.18,1.43.51,0,.87-.29,1.01-.57.02-.03.05-.05.07-.04l.11.06s.04.03,0,.12c-.15.33-.58.91-1.32.91-.47,0-1-.14-1.31-.59-.29-.42-.37-.73-.37-1.32,0-.32.08-.88.52-1.32.36-.37.77-.44,1.19-.44.96,0,1.22.9,1.22,1.22,0,.12-.1.13-.23.13h-2.06ZM86.7,70.9c.16,0,.22-.04.22-.12,0-.19-.1-.74-.64-.74-.37,0-.72.24-.87.86h1.29Z"/>
  <path class="cls-1" d="M90.98,68.29c0-.32-.06-.42-.52-.49-.05,0-.06-.03-.06-.06v-.14s.02-.05.07-.06c.32-.07.76-.14.92-.17.07,0,.13-.03.19-.03.04,0,.05.06.04.15-.02.42-.03,1.62-.03,2.68v1.84c0,.31.02.67.08.76.08.08.25.13.37.14.12,0,.15.02.17.06l.02.07s0,.07-.06.09l-.94.32s-.09,0-.11-.07l-.11-.37c-.27.27-.8.45-1.22.45-.27,0-.59.02-.98-.38-.42-.42-.52-.79-.52-1.35,0-.52.19-1.02.58-1.42.32-.35.77-.52,1.24-.52.34,0,.64.05.89.12v-1.62ZM90.98,70.93c0-.12,0-.27-.07-.41-.12-.22-.38-.45-.87-.45-.26,0-.54.07-.76.3-.32.35-.38.79-.38,1.11,0,.94.65,1.62,1.13,1.62s.82-.24.91-.46c.04-.12.05-.19.05-.28v-1.43Z"/>
  <path class="cls-1" d="M96.29,71.15c0,.39,0,1.52.02,1.64.02.18.1.27.27.27h.53c.06,0,.07.03.07.06v.2s0,.07-.07.07c-.12,0-.37-.03-1.16-.03-.73,0-1.06.03-1.15.03-.06,0-.07-.03-.07-.06v-.21s0-.06.05-.06h.36c.28,0,.34-.04.37-.27,0-.08.03-1.38.03-2.35v-.96c0-.55,0-1.46-.02-1.54-.02-.17-.1-.18-.32-.18h-.47s-.05-.02-.05-.07v-.2s0-.06.05-.06c.09,0,.39.03,1.18.03.15,0,.64-.03.92-.03.94,0,1.38.09,1.86.42.39.27.63.73.63,1.21,0,1.05-.79,1.7-2.11,1.7-.31,0-.64,0-.91-.04v.43ZM96.29,70.42c.17.05.44.07.77.07.51,0,.96-.27,1.17-.57.18-.24.22-.55.22-.84,0-1.09-1.02-1.38-1.51-1.38-.14,0-.48,0-.65.06v2.66Z"/>
  <path class="cls-1" d="M100.04,71.15c-.02.07-.02.21-.02.4,0,.82.52,1.43,1.18,1.43.51,0,.87-.29,1.01-.57.02-.03.05-.05.07-.04l.11.06s.04.03,0,.12c-.15.33-.58.91-1.32.91-.47,0-1-.14-1.31-.59-.29-.42-.37-.73-.37-1.32,0-.32.08-.88.52-1.32.36-.37.77-.44,1.19-.44.96,0,1.22.9,1.22,1.22,0,.12-.1.13-.23.13h-2.06ZM101.36,70.9c.16,0,.22-.04.22-.12,0-.19-.1-.74-.64-.74-.37,0-.72.24-.87.86h1.29Z"/>
  <path class="cls-1" d="M104.04,72.32c0,.62.28.73.43.73.19,0,.43-.03.55-.11.04-.02.08-.02.1.02l.04.07s0,.07-.02.09c-.08.08-.42.33-.92.33-.41,0-.81-.39-.81-.71,0-.34.03-1.07.03-1.19v-.18c0-.15,0-.71.02-1.06h-.51c-.08,0-.13-.03-.13-.1s.05-.09.15-.15c.2-.12.84-.77.95-1.05.03-.07.07-.08.12-.08.07,0,.08.06.08.12l-.04.82h1.16c.05,0,.08.04.06.07l-.08.29s-.03.07-.08.07h-1.07c-.02.38-.03.78-.03,1.17v.83Z"/>
  <path class="cls-1" d="M108.08,72.37c0,.47.1.62.25.62.13,0,.25-.07.29-.12.03-.04.05-.06.08-.03l.08.07s.04.07,0,.15c-.07.12-.22.41-.65.41-.3,0-.52-.22-.59-.56h-.02c-.18.21-.45.38-.82.51-.16.05-.31.05-.49.05-.2,0-.5-.17-.5-.69,0-.38.17-.72.83-1.01.38-.17.81-.37.94-.48v-.53c-.02-.14-.03-.36-.12-.47-.09-.11-.26-.18-.5-.18-.17,0-.43.07-.54.18-.12.11-.04.23-.04.38,0,.29-.1.47-.44.47-.13,0-.2-.08-.2-.27,0-.27.23-.58.57-.78.35-.21.64-.29,1.02-.29s.55.12.67.22c.18.18.18.37.18.59v1.77ZM107.47,71.53c-.3.22-1.12.39-1.12,1.08,0,.31.18.46.43.46s.68-.29.68-.52v-1.02Z"/>
  <path class="cls-1" d="M110.24,70.88c0,.43,0,1.69,0,1.95,0,.14.04.26.22.26h.37c.07,0,.09.03.09.08v.14c0,.05-.02.08-.05.08-.06,0-.42-.03-.94-.03s-.87.03-.94.03c-.04,0-.06-.03-.06-.08v-.14c0-.06.02-.08.11-.08h.4c.09,0,.18-.06.18-.21,0-.26,0-1.69,0-2.17v-.52c0-.59,0-1.35-.03-1.57-.02-.28-.15-.42-.42-.5l-.17-.06s-.05-.02-.05-.04v-.07s.02-.04.07-.06c.29-.13.67-.28.97-.48.07-.05.12-.07.17-.07.06,0,.08.04.07.15,0,.46-.03,2.19-.03,2.65v.74Z"/>
  <path class="cls-1" d="M113.69,68.87c0-.56-.09-.67-.39-.77l-.08-.03c-.09-.02-.11-.04-.11-.07v-.07s.02-.04.07-.07c.24-.11.67-.32.88-.46.06-.04.12-.07.17-.07.06,0,.08.04.07.14,0,.07,0,1.02,0,1.76v.97c.27-.26.74-.42,1.15-.42.73,0,1.52.59,1.52,1.78,0,.97-.78,1.89-1.73,1.89-.47,0-.79-.1-.98-.22l-.33.18s-.06.03-.11.03l-.1-.03s-.04-.03-.03-.07c.02-.12.02-.81.02-1.42v-3.07ZM114.28,71.57c0,.69.03.94.12,1.21.08.2.43.42.79.42.5,0,1.12-.34,1.12-1.43,0-.81-.42-1.57-1.24-1.57-.31,0-.61.11-.79.3v1.08Z"/>
  <path class="cls-1" d="M117.17,75.2c0-.18.18-.32.38-.32.16,0,.31.07.38.09.06,0,.12,0,.17-.05.12-.15.55-1.1.67-1.42-.04-.21-.92-2.81-.99-2.98-.1-.21-.17-.35-.39-.35h-.22c-.06,0-.07-.03-.07-.07v-.17s0-.06.07-.06c.07,0,.27.03.77.03.42,0,.68-.03.77-.03.07,0,.07.03.07.06v.18s0,.07-.05.07h-.16c-.09,0-.13.06-.11.18.03.18.59,2.01.68,2.2h.03c.08-.13.81-1.86.86-2.06.05-.21-.02-.32-.14-.32h-.13s-.06-.03-.06-.07v-.17s0-.07.05-.07c.11,0,.28.03.68.03.22,0,.42-.03.51-.03.05,0,.05.03.05.07v.16s0,.07-.04.07h-.13c-.09,0-.21.04-.29.15-.18.22-.73,1.49-1.31,2.8-.41.92-.73,1.7-.88,1.97-.12.22-.27.54-.71.54-.32,0-.47-.17-.47-.42"/>
  <path class="cls-1" d="M124.8,71.15c0,.39,0,1.52.02,1.64.02.18.1.27.27.27h.53c.06,0,.07.03.07.06v.2s0,.07-.07.07c-.12,0-.37-.03-1.16-.03-.73,0-1.06.03-1.15.03-.06,0-.07-.03-.07-.06v-.21s0-.06.05-.06h.36c.28,0,.34-.04.37-.27,0-.08.03-1.38.03-2.35v-.96c0-.55,0-1.46-.02-1.54-.02-.17-.1-.18-.32-.18h-.47s-.05-.02-.05-.07v-.2s0-.06.05-.06c.09,0,.39.03,1.18.03.15,0,.64-.03.92-.03.94,0,1.38.09,1.86.42.39.27.63.73.63,1.21,0,1.05-.79,1.7-2.11,1.7-.31,0-.64,0-.91-.04v.43ZM124.8,70.42c.17.05.44.07.77.07.51,0,.96-.27,1.17-.57.18-.24.22-.55.22-.84,0-1.09-1.02-1.38-1.51-1.38-.14,0-.48,0-.65.06v2.66Z"/>
  <path class="cls-1" d="M128.55,71.15c-.02.07-.03.21-.03.4,0,.82.52,1.43,1.18,1.43.51,0,.87-.29,1.01-.57.02-.03.05-.05.07-.04l.11.06s.04.03,0,.12c-.15.33-.58.91-1.32.91-.47,0-1-.14-1.31-.59-.29-.42-.37-.73-.37-1.32,0-.32.08-.88.52-1.32.36-.37.77-.44,1.19-.44.96,0,1.22.9,1.22,1.22,0,.12-.1.13-.23.13h-2.06ZM129.88,70.9c.16,0,.22-.04.22-.12,0-.19-.1-.74-.64-.74-.37,0-.72.24-.87.86h1.29Z"/>
  <path class="cls-1" d="M132.55,72.32c0,.62.28.73.43.73.19,0,.43-.03.55-.11.04-.02.07-.02.1.02l.04.07s0,.07-.02.09c-.08.08-.42.33-.92.33-.41,0-.81-.39-.81-.71,0-.34.03-1.07.03-1.19v-.18c0-.15,0-.71.02-1.06h-.51c-.08,0-.13-.03-.13-.1s.05-.09.15-.15c.2-.12.84-.77.95-1.05.03-.07.07-.08.12-.08.07,0,.08.06.08.12l-.04.82h1.16s.07.04.06.07l-.08.29s-.03.07-.07.07h-1.07c-.02.38-.03.78-.03,1.17v.83Z"/>
  <path class="cls-1" d="M136.6,72.37c0,.47.1.62.25.62.13,0,.25-.07.29-.12.03-.04.05-.06.08-.03l.08.07s.04.07,0,.15c-.07.12-.22.41-.65.41-.3,0-.52-.22-.59-.56h-.02c-.18.21-.45.38-.82.51-.16.05-.31.05-.49.05-.2,0-.5-.17-.5-.69,0-.38.17-.72.83-1.01.37-.17.81-.37.94-.48v-.53c-.02-.14-.03-.36-.12-.47-.09-.11-.26-.18-.5-.18-.17,0-.42.07-.54.18-.12.11-.04.23-.04.38,0,.29-.1.47-.44.47-.13,0-.2-.08-.2-.27,0-.27.23-.58.57-.78.35-.21.64-.29,1.02-.29s.55.12.67.22c.18.18.18.37.18.59v1.77ZM135.99,71.53c-.3.22-1.12.39-1.12,1.08,0,.31.18.46.43.46s.68-.29.68-.52v-1.02Z"/>
  <path class="cls-1" d="M138.75,70.88c0,.43,0,1.69,0,1.95,0,.14.04.26.22.26h.37c.07,0,.09.03.09.08v.14c0,.05-.02.08-.05.08-.06,0-.42-.03-.94-.03s-.87.03-.94.03c-.04,0-.06-.03-.06-.08v-.14c0-.06.02-.08.11-.08h.4c.09,0,.18-.06.18-.21,0-.26,0-1.69,0-2.17v-.52c0-.59,0-1.35-.03-1.57-.02-.28-.15-.42-.42-.5l-.17-.06s-.05-.02-.05-.04v-.07s.02-.04.07-.06c.29-.13.67-.28.97-.48.07-.05.12-.07.17-.07.06,0,.08.04.07.15,0,.46-.03,2.19-.03,2.65v.74Z"/>
  <path class="cls-1" d="M26.19,59.34l-.04.08c-.32.51-.76.76-1.03.87-.29.07-.69.08-1.21.08h-2.85v-8.18c0-.28.03-.37.21-.46l.59-.28h-2.54l.59.28c.19.09.21.17.21.46v7.81c0,.28-.03.37-.21.46l-.59.28h6.42l.2-.66.24-.74Z"/>
  <path class="cls-1" d="M132.67,59.34l-.04.08c-.32.51-.76.76-1.03.87-.29.07-.69.08-1.21.08h-2.85v-8.18c0-.28.03-.37.21-.46l.59-.28h-2.54l.59.28c.19.09.21.17.21.46v7.81c0,.28-.02.37-.21.46l-.59.28h6.42l.2-.66.24-.74Z"/>
  <path class="cls-1" d="M144.36,60.74l-.71-.29s-.26-.11-.42-.49l-3.93-8.71-.14.27s-.14.27-.36.68c0,0-1.02,1.97-1.53,2.97-.91,1.79-1.35,3.15-.71,4.41.41.83,1.56,1.28,2.43,1.28v-.15h0v-.09h0v-.15c-.77,0-1.74-.36-2.09-1.06-.36-.72-.36-1.49.04-2.56h3.89l1.45,3.23c.03.07.05.14.05.19-.01.13-.05.18-.17.24l-.49.23h.63s2.06,0,2.06,0ZM137.09,56.49c.13-.33.31-.7.52-1.12l.26-.51c.39-.75.79-1.54,1.1-2.14l1.68,3.76h-3.56Z"/>
  <path class="cls-1" d="M153.94,51.45l.6.29c.19.09.21.17.21.44v.17s0,6.62,0,6.62l-5.55-7.45-.04-.06h-1.61l.59.28c.18.09.21.17.21.45v.18s0,0,0,0v.23h0v6.62h0v1.22c0,.12,0,.15-.08.19l-.25.12h1.07l-.25-.12c-.08-.04-.09-.07-.09-.19v-1.28s0,0,0,0v-.03s0,0,0,0v-6.69s6.4,8.61,6.4,8.61v-8.82s0-.03,0-.03c0-.29.02-.37.21-.46l.6-.29h-2.02Z"/>
  <path class="cls-1" d="M166.56,59.35s-.03.03-.04.04c-.01.01-.03.03-.04.04-.03.03-.06.06-.09.08-.06.06-.11.12-.17.17-.11.11-.2.24-.31.34-.09.08-.18.16-.29.21-.15.07-.33.09-.49.11-.15.02-.3.02-.46.03-.13,0-.26,0-.38,0h-2.92v-4.23h2.1s.89,0,.89,0c.11,0,.15.01.18.08l.11.23v-1l-.11.23c-.03.07-.07.08-.18.08,0,0-.89,0-.89,0h-2.1v-3.94h2.61c.95,0,1.43-.04,1.66.26,0,0,0,.02.01.03l.39.71v-1.37h-6.41l.59.28c.19.09.21.17.21.46v7.81c0,.29-.02.37-.21.46l-.59.28h6.5l.25-.84h0c.06-.19.12-.38.18-.56"/>
</svg>