<?xml version="1.0" encoding="UTF-8"?>
<svg id="Layer_1" data-name="Layer 1" xmlns="http://www.w3.org/2000/svg" xmlns:xlink="http://www.w3.org/1999/xlink" viewBox="0 0 175 120">
  <defs>
    <style>
      .cls-1 {
        fill: #1d1d1a;
      }

      .cls-1, .cls-2, .cls-3, .cls-4 {
        stroke-width: 0px;
      }

      .cls-5 {
        clip-path: url(#clippath);
      }

      .cls-2, .cls-6 {
        fill: none;
      }

      .cls-3 {
        fill: #d91f27;
      }

      .cls-4 {
        fill: #fff;
      }

      .cls-6 {
        stroke: #1d71b2;
        stroke-miterlimit: 10;
        stroke-width: .35px;
      }
    </style>
    <clipPath id="clippath">
      <polygon class="cls-2" points="79.46 11.23 57.19 21.72 46.46 26.06 46.46 85.18 104.29 85.18 104.29 96.46 119.57 96.46 119.57 85.18 122.42 85.18 122.42 83.77 128.54 83.77 128.54 69.24 122.42 69.24 122.42 11.23 79.46 11.23"/>
    </clipPath>
  </defs>
  <g>
    <path class="cls-1" d="M53.67,91.9c-.02.08-.04.15-.04.23-.28.15-.64.22-1.07.22-.31,0-.58-.04-.82-.13-.24-.09-.44-.21-.61-.37-.17-.16-.29-.35-.38-.56-.09-.22-.13-.45-.13-.71,0-.37.06-.68.17-.94.11-.26.27-.47.46-.63.19-.16.41-.28.67-.35.25-.08.52-.11.8-.11.09,0,.19,0,.29.02.1.01.2.03.29.06.1.02.19.05.27.08.09.03.16.07.22.1-.03.09-.06.18-.08.27-.02.09-.03.18-.04.28h-.07c-.13-.17-.27-.29-.41-.37-.14-.07-.31-.11-.5-.11-.14,0-.28.03-.43.1-.14.06-.27.16-.39.29-.12.13-.21.3-.28.5-.07.2-.11.45-.11.73s.04.51.11.7c.07.19.17.35.29.48.12.12.25.21.4.27.15.06.3.09.45.09.08,0,.17-.01.26-.03.09-.02.17-.05.26-.08.09-.03.16-.08.24-.13.08-.05.14-.1.2-.17l.07.04c-.03.07-.05.15-.07.23Z"/>
    <path class="cls-1" d="M54.79,89.3c0-.23-.02-.46-.03-.69.06,0,.12.01.2.02s.15,0,.24,0,.17,0,.24,0c.07,0,.14-.01.2-.02-.01.23-.02.46-.03.69,0,.23-.01.49-.01.79v.73c0,.2,0,.4,0,.59,0,.19,0,.35,0,.49.2,0,.4,0,.6-.02.2,0,.4-.03.61-.05,0,.04-.01.08-.02.11,0,.03,0,.08,0,.13s0,.1,0,.13c0,.03,0,.06.02.08-.1,0-.21,0-.35,0-.14,0-.33,0-.57,0h-.84c-.08,0-.14,0-.18,0-.04,0-.08,0-.1,0,.01-.22.03-.45.03-.68,0-.23.01-.49.01-.79v-.73c0-.29,0-.56-.01-.79Z"/>
    <path class="cls-1" d="M58.81,92.27c-.19-.05-.36-.13-.51-.24-.14-.11-.26-.26-.34-.43-.08-.18-.12-.39-.12-.64,0-.14,0-.27,0-.38,0-.11,0-.22,0-.31s0-.19,0-.28c0-.09,0-.18,0-.28,0-.29,0-.52,0-.7,0-.18,0-.31-.01-.4.07,0,.14.01.22.02.07,0,.15,0,.22,0s.14,0,.22,0c.07,0,.15-.01.22-.02-.04.35-.06.67-.06.96,0,.3,0,.6,0,.91,0,.32.02.59.07.78.05.2.11.35.2.46.09.11.2.18.33.22.13.04.28.05.45.05.21,0,.38-.05.5-.16.12-.11.21-.25.27-.43.06-.18.1-.38.11-.61.01-.23.02-.47.02-.72s0-.49-.01-.73c0-.24-.02-.49-.03-.73.05,0,.1.01.14.02.05,0,.09,0,.12,0,.05,0,.09,0,.13,0,.04,0,.09-.01.13-.02,0,.08-.01.18-.02.31,0,.13-.01.28-.02.46,0,.17-.01.36-.02.57,0,.21,0,.43,0,.66,0,.62-.13,1.06-.39,1.33-.26.27-.65.4-1.16.4-.22,0-.43-.02-.63-.07Z"/>
    <path class="cls-1" d="M62.32,89.3c0-.23-.02-.46-.04-.69.06,0,.13.01.2.02.07,0,.15,0,.24,0,.15,0,.31,0,.47-.01.16,0,.32-.01.47-.01.16,0,.3.02.43.05.13.03.24.08.34.15.09.07.17.15.22.26.05.11.08.23.08.38s-.03.27-.09.38c-.06.11-.13.19-.22.26-.09.07-.18.12-.28.16-.1.04-.19.07-.27.08h0c.08.01.18.03.28.07.11.03.21.09.31.16.1.07.18.16.25.28.07.11.1.25.1.41,0,.19-.03.36-.1.49-.07.14-.16.25-.27.33-.11.09-.24.14-.39.18-.15.03-.3.05-.46.05-.14,0-.27,0-.39,0-.12,0-.25,0-.38,0h-.29c-.1,0-.18,0-.24.01.02-.22.03-.45.04-.68,0-.23.01-.49.01-.79v-.73c0-.29,0-.56-.01-.79ZM63.93,89.29c-.02-.08-.05-.14-.1-.2-.05-.05-.1-.1-.18-.13-.07-.03-.16-.05-.26-.05-.08,0-.13,0-.16,0-.03,0-.06,0-.1.01,0,.13-.01.27-.02.4,0,.13,0,.25,0,.34,0,.1,0,.19,0,.28,0,.09,0,.18,0,.27h.24c.07,0,.15-.01.22-.04.07-.03.14-.07.19-.12.06-.05.1-.13.14-.21.04-.09.05-.19.05-.3,0-.09,0-.17-.03-.24ZM63.83,90.7c-.11-.12-.27-.18-.48-.18-.05,0-.09,0-.13,0-.03,0-.07,0-.1,0,0,.07,0,.15,0,.23,0,.08,0,.18,0,.29,0,.09,0,.17,0,.26,0,.09,0,.18,0,.26s0,.16,0,.23c0,.07,0,.13,0,.18.05,0,.09,0,.14,0,.04,0,.09,0,.15,0,.08,0,.15-.02.22-.05.07-.03.13-.08.18-.14.05-.06.1-.14.13-.23.03-.09.05-.19.05-.31,0-.25-.06-.44-.17-.56Z"/>
    <path class="cls-1" d="M67.75,89.3c0-.23-.02-.46-.03-.69.16,0,.31,0,.47.02.15,0,.31.01.47.01.26,0,.49,0,.69,0,.2,0,.34-.01.41-.02-.01.06-.02.13-.02.22,0,.06,0,.1,0,.13,0,.03,0,.07.02.11-.1,0-.21-.02-.33-.02-.12,0-.24-.01-.35-.02-.11,0-.22-.01-.31-.02-.09,0-.16,0-.19,0-.01.2-.02.39-.02.58,0,.19,0,.39,0,.58.23,0,.43,0,.62-.02.18,0,.38-.02.58-.03-.01.06-.02.11-.02.14,0,.03,0,.07,0,.1,0,.03,0,.06,0,.09,0,.03.01.07.02.13-.4-.03-.8-.05-1.2-.05v.27c0,.29,0,.56.01.79,0,.23.02.45.03.68-.06,0-.12-.01-.2-.01h-.47c-.07,0-.14,0-.2.01.01-.22.03-.45.03-.68,0-.23.01-.49.01-.79v-.73c0-.29,0-.56-.01-.79Z"/>
    <path class="cls-1" d="M70.85,89.3c0-.23-.02-.46-.03-.69.06,0,.12.01.19.02.07,0,.15,0,.24,0s.17,0,.24,0c.07,0,.14-.01.2-.02-.01.23-.02.46-.03.69,0,.23-.01.49-.01.79v.73c0,.29,0,.56.01.79,0,.23.02.45.03.68-.06,0-.12-.01-.2-.01h-.47c-.07,0-.14,0-.19.01.01-.22.02-.45.03-.68,0-.23,0-.49,0-.79v-.73c0-.29,0-.56,0-.79Z"/>
    <path class="cls-1" d="M72.93,89.3c0-.23-.02-.46-.03-.69.16,0,.31,0,.47.02.16,0,.31.01.47.01.26,0,.49,0,.69,0,.2,0,.34-.01.41-.02-.01.06-.02.13-.02.22,0,.06,0,.1,0,.13,0,.03,0,.07.02.11-.1,0-.21-.02-.33-.02-.12,0-.24-.01-.35-.02-.11,0-.22-.01-.31-.02-.09,0-.16,0-.2,0-.01.2-.02.39-.02.58,0,.19,0,.39,0,.58.23,0,.44,0,.62-.02.18,0,.38-.02.58-.03-.01.06-.02.11-.02.14,0,.03,0,.07,0,.1,0,.03,0,.06,0,.09,0,.03.01.07.02.13-.4-.03-.8-.05-1.2-.05v.27c0,.29,0,.56.01.79,0,.23.02.45.03.68-.06,0-.12-.01-.2-.01h-.47c-.07,0-.14,0-.2.01.01-.22.02-.45.03-.68,0-.23.01-.49.01-.79v-.73c0-.29,0-.56-.01-.79Z"/>
    <path class="cls-1" d="M76.64,89.19c0-.09,0-.15-.01-.19-.05,0-.12,0-.19,0-.08,0-.16,0-.25.01-.09,0-.18.01-.27.02-.09,0-.18.02-.25.03,0-.04.01-.08.02-.12,0-.04,0-.08,0-.12s0-.08,0-.12c0-.04-.01-.08-.02-.12.12,0,.23,0,.32.01.1,0,.2,0,.29,0,.1,0,.21,0,.33,0,.12,0,.26,0,.43,0s.31,0,.43,0c.12,0,.23,0,.32,0,.1,0,.19,0,.29,0,.09,0,.19,0,.3-.01,0,.04-.01.08-.02.12,0,.04,0,.08,0,.12s0,.08,0,.12c0,.04.01.08.02.12-.07-.01-.15-.02-.24-.03-.09,0-.17-.02-.26-.02s-.17,0-.25-.01c-.08,0-.14,0-.19,0,0,.02,0,.04,0,.08,0,.03,0,.07,0,.11v1.62c0,.29,0,.56.01.79,0,.23.02.45.03.68-.06,0-.12-.01-.19-.01h-.47c-.07,0-.14,0-.2.01.01-.22.02-.45.03-.68,0-.23,0-.49,0-.79v-1.34c0-.11,0-.2,0-.28Z"/>
    <path class="cls-1" d="M80.94,89.86c.07-.13.14-.27.2-.41.07-.14.13-.29.2-.43.06-.14.12-.28.18-.41.04,0,.08.01.12.02.04,0,.08,0,.12,0s.08,0,.12,0c.04,0,.08-.01.13-.02-.06.1-.13.23-.22.39-.09.16-.19.34-.29.53-.1.19-.2.38-.31.58-.1.2-.2.38-.28.55,0,.09,0,.17,0,.26,0,.09,0,.17,0,.26,0,.18,0,.36,0,.54,0,.18.02.36.04.56-.07,0-.15-.01-.22-.01h-.45c-.08,0-.15,0-.22.01,0-.16.02-.33.04-.5.02-.17.03-.34.03-.51,0-.08,0-.16,0-.25,0-.08,0-.17,0-.25-.09-.18-.19-.38-.3-.6-.11-.22-.23-.43-.33-.64-.11-.21-.2-.39-.29-.56-.09-.17-.15-.29-.2-.36.08,0,.16.01.24.02.08,0,.16,0,.24,0s.16,0,.24,0c.07,0,.15-.01.23-.02.06.13.13.28.2.44.08.16.15.32.22.47.07.15.14.29.21.42.06.12.11.22.15.28h0c.07-.1.14-.22.21-.35Z"/>
    <path class="cls-1" d="M84.76,89.3c0-.23-.02-.46-.03-.69.16,0,.31,0,.47.02.15,0,.31.01.47.01.26,0,.49,0,.69,0,.2,0,.34-.01.41-.02-.01.06-.02.13-.02.22,0,.06,0,.1,0,.13,0,.03,0,.07.02.11-.1,0-.21-.02-.33-.02-.12,0-.24-.01-.35-.02-.11,0-.22-.01-.31-.02-.09,0-.16,0-.2,0-.01.2-.02.39-.02.58,0,.19,0,.39,0,.58.23,0,.44,0,.62-.02.18,0,.38-.02.58-.03-.01.06-.02.11-.02.14,0,.03,0,.07,0,.1,0,.03,0,.06,0,.09,0,.03.01.07.02.13-.4-.03-.8-.05-1.2-.05v.27c0,.29,0,.56.01.79,0,.23.02.45.03.68-.06,0-.12-.01-.19-.01h-.48c-.07,0-.14,0-.19.01.01-.22.02-.45.03-.68,0-.23.01-.49.01-.79v-.73c0-.29,0-.56-.01-.79Z"/>
    <path class="cls-1" d="M87.71,89.71c.1-.23.23-.43.41-.61.18-.17.39-.31.64-.41.25-.1.53-.15.83-.15.28,0,.54.04.79.12.24.08.45.2.63.35.18.16.32.36.43.6.1.24.15.52.15.84,0,.27-.05.52-.15.75-.1.23-.24.43-.42.61-.18.17-.39.31-.64.4-.25.1-.52.14-.81.14-.28,0-.54-.04-.78-.1-.24-.07-.46-.18-.64-.34-.18-.16-.32-.35-.43-.59-.11-.24-.16-.53-.16-.86,0-.26.05-.51.14-.74ZM90.63,89.71c-.06-.18-.13-.34-.23-.47-.1-.13-.22-.23-.36-.3-.14-.07-.3-.1-.47-.1-.18,0-.34.04-.48.13s-.26.21-.36.36c-.1.15-.17.32-.22.53-.05.2-.08.42-.08.64,0,.28.03.53.09.72.06.2.14.35.24.47.1.12.22.21.35.26.13.05.27.08.42.08.16,0,.31-.03.45-.1.14-.07.27-.17.38-.31.11-.14.19-.31.26-.53.07-.21.1-.47.1-.76,0-.23-.03-.44-.09-.62Z"/>
    <path class="cls-1" d="M93.61,92.27c-.2-.05-.37-.13-.51-.24-.14-.11-.26-.26-.34-.43-.08-.18-.12-.39-.12-.64,0-.14,0-.27,0-.38,0-.11,0-.22,0-.31s0-.19,0-.28c0-.09,0-.18,0-.28,0-.29,0-.52,0-.7,0-.18,0-.31-.02-.4.07,0,.14.01.22.02.07,0,.14,0,.22,0s.14,0,.22,0c.07,0,.14-.01.22-.02-.03.35-.06.67-.06.96,0,.3,0,.6,0,.91,0,.32.02.59.07.78.05.2.11.35.2.46s.2.18.33.22c.13.04.28.05.45.05.21,0,.38-.05.5-.16.12-.11.21-.25.27-.43.06-.18.1-.38.11-.61.01-.23.02-.47.02-.72s0-.49-.01-.73c0-.24-.02-.49-.03-.73.05,0,.1.01.14.02s.09,0,.13,0c.05,0,.09,0,.13,0,.04,0,.09-.01.13-.02,0,.08-.01.18-.02.31,0,.13-.01.28-.02.46,0,.17-.01.36-.02.57,0,.21,0,.43,0,.66,0,.62-.13,1.06-.4,1.33-.26.27-.65.4-1.16.4-.23,0-.44-.02-.63-.07Z"/>
    <path class="cls-1" d="M97.91,90.59v.22c0,.29,0,.56.01.79,0,.23.02.45.03.68-.06,0-.12-.01-.19-.01h-.48c-.07,0-.13,0-.19.01.01-.22.03-.45.03-.68,0-.23.01-.49.01-.79v-.73c0-.29,0-.56-.01-.79,0-.23-.02-.46-.03-.69.06,0,.12.01.19.02.07,0,.15,0,.24,0,.1,0,.2,0,.32-.01.12,0,.27-.01.45-.01.13,0,.25,0,.34.01.09,0,.18.02.24.03.07.01.13.03.18.06.05.02.1.05.14.08.11.08.19.18.25.29.06.12.09.25.09.41,0,.26-.07.47-.21.64-.14.16-.34.28-.61.35.17.3.35.6.54.91.19.3.39.6.58.89-.08,0-.16-.01-.24-.01h-.48c-.08,0-.16,0-.24.01l-.94-1.68h-.05ZM98.69,89.24c-.03-.09-.08-.16-.15-.21-.07-.05-.15-.08-.25-.09-.1-.01-.23-.02-.37-.02-.01.48-.02.97-.02,1.45.02,0,.04,0,.06,0,.02,0,.04,0,.06,0,.23,0,.41-.06.53-.19.12-.13.18-.32.18-.57,0-.16-.01-.28-.05-.37Z"/>
  </g>
  <g class="cls-5">
    <rect class="cls-3" x="46.46" y="11.23" width="75.95" height="73.96"/>
    <rect class="cls-6" x="-65.51" y="-23.8" width="306.03" height="167.6"/>
    <path class="cls-1" d="M106.7,11.23h12.87v58.01h8.96v14.53h-8.96v12.69h-15.28v-12.69h-36.66v-12.57S106.7,11.23,106.7,11.23ZM104.29,37.27l-20.29,32,20.29-.03v-31.97Z"/>
    <path class="cls-4" d="M81.67,10.19l-24.49,11.54,4.19,15.49,2.7-2.68,3.2-2.41,1.36-.64,1.46-.69c7.36-3.47,14.59-3.5,21.68-.11,7.09,3.4,12.21,8.53,15.36,15.4,3.35,7.29,3.67,14.86.97,22.7-2.7,7.84-7.73,13.49-15.09,16.96-6.6,3.11-12.77,3.78-18.53,2.01-5.75-1.76-10-3.75-12.74-5.95-2.74-2.2-4.9-5.02-6.48-8.46l13.85-6.65c1.83,2.87,4.35,4.95,7.56,6.23,3.29,1.08,6.5.88,9.64-.6,3.83-1.8,6.4-4.57,7.7-8.3,1.3-3.72,1.01-7.62-.85-11.69-1.64-3.58-4.35-6.06-8.11-7.44-3.77-1.38-7.43-1.23-10.98.44-2.02.95-3.67,2.26-4.93,3.93-1.27,1.67-2.21,3.67-2.83,6.02l-14.08,2.27-11.45-44.31L75.57-3.12l6.1,13.31Z"/>
    <rect class="cls-2" x="46.46" y="11.23" width="82.07" height="85.23"/>
  </g>
</svg>