<?xml version="1.0" encoding="UTF-8"?>
<svg id="Layer_1" data-name="Layer 1" xmlns="http://www.w3.org/2000/svg" viewBox="0 0 175 120">
  <defs>
    <style>
      .cls-1 {
        fill: #d11242;
        stroke-width: 0px;
      }
    </style>
  </defs>
  <path class="cls-1" d="M36.43,74.69h3.57c.72-.08,1.52.21,2.11.72.37.37.59.8.51,1.31h0c0,.8-.43,1.47-1.17,1.73.93.13,1.6,1.01,1.6,1.97h0c0,1.47-1.17,2.19-2.99,2.19h-3.71l.08-7.92ZM41.23,76.93c0-.67-.51-1.01-1.39-1.01h-1.95v2.11h1.89c.88,0,1.44-.35,1.44-1.09h0ZM40.01,79.2h-2.19v2.19h2.4c.93,0,1.52-.37,1.52-1.09h0c-.05-.67-.56-1.01-1.73-1.09h0ZM61.1,74.69h1.52l1.89,5.89,1.97-5.89h1.17l1.97,5.89,1.89-5.89h1.47l-2.77,8h-1.17l-1.97-5.73-1.97,5.73h-1.17l-2.83-8ZM78.99,79.57l-3.2-4.88h1.68l2.27,3.57,2.27-3.57h1.6l-3.2,4.8v3.2h-1.47v-3.12h.05ZM48.67,79.57l-3.2-4.88h1.68l2.27,3.57,2.27-3.57h1.6l-3.2,4.8v3.2h-1.47v-3.12h.05ZM87.13,74.69h1.31l4.29,5.52v-5.52h1.39v8h-1.17l-4.37-5.68v5.68h-1.39l-.05-8ZM98.62,74.69h2.99c2.19-.13,4.08,1.52,4.21,3.71v.29h0c0,2.19-1.81,4-4,4h-3.28v-8h.08ZM100.01,75.92v5.47h1.6c1.47.08,2.69-.93,2.77-2.4v-.29h0c.08-1.47-1.09-2.69-2.53-2.69h-.29l-1.55-.08ZM109.39,74.69h1.39v3.33h3.87v-3.33h1.39v8h-1.47v-3.33h-3.79v3.33h-1.47l.08-8ZM122.62,74.69h1.39l3.49,8h-1.47l-.8-1.97h-3.79l-.8,1.97h-1.47l3.44-8ZM124.67,79.49l-1.39-3.12-1.39,3.2,2.77-.08ZM130.7,74.69h1.52l2.4,3.79,2.4-3.79h1.52v8h-1.39v-5.73l-2.53,3.79h0l-2.48-3.79v5.68h-1.39l-.05-7.95ZM165.69,43.57c1.01,0,1.81.8,1.81,1.81s-.8,1.81-1.81,1.81-1.81-.8-1.81-1.81h0c0-1.01.8-1.81,1.81-1.81h0ZM165.69,43.87c-.88,0-1.52.67-1.6,1.47s.67,1.52,1.47,1.6c.88,0,1.52-.67,1.6-1.47v-.08c-.03-.88-.59-1.52-1.47-1.52h0ZM165.23,46.4h-.29v-2.11h.8c.51,0,.72.21.72.59,0,.29-.21.59-.51.59h0l.59.93h-.37l-.59-.88h-.29l-.05.88ZM165.23,45.17h.37c.37,0,.51-.08.51-.37s-.08-.29-.43-.29h-.43v.67h-.03ZM44.17,43.57l9.39,22.99h-3.87l-2.77-6.83h-8.37l-2.83,6.83h-3.71l9.6-22.99h2.56ZM42.78,49.23l-2.99,7.33h5.89l-2.91-7.33ZM83.5,44l2.61,22.53h-3.71l-1.52-14.91-6.83,14.91h-2.27l-6.77-14.53-1.6,14.53h-3.49l2.77-22.53h2.53l7.92,17.01,7.79-17.01h2.56ZM102.03,43.57l-9.52,22.99h3.79l2.83-6.91h8.37l2.77,6.91h3.92l-9.47-22.99h-2.69ZM106.11,56.59h-5.89l2.99-7.33,2.91,7.33ZM127.42,43.92c-.8,0-2.4,0-4.13.13l-1.73.08v22.27h.37c1.89.13,3.12.21,4.8.21,2.61.08,5.23-.29,7.79-1.09,3.87-1.47,6.48-5.52,6.48-10.19.08-3.12-1.17-6.11-3.33-8.29-2.45-2.03-5.87-3.12-10.24-3.12h0ZM125.23,63.2v-16h1.47c2.03-.08,4.08.37,5.97,1.17,2.77,1.47,4.43,4.29,4.29,7.41.08,1.97-.67,3.87-1.89,5.31-1.47,1.68-3.57,2.4-7.12,2.4-.88,0-1.76-.08-2.72-.29h0ZM155.5,43.57l-9.52,22.99h3.79l2.77-6.91h8.37l2.77,6.91h3.81l-9.47-22.99h-2.53ZM159.58,56.59h-5.81l2.99-7.33,2.83,7.33ZM20.09,52.72l8.37,12.67-3.79,1.73-9.47-14.69.72-1.6h.13c3.49-.43,5.73-2.61,5.73-5.6,0-3.28-1.73-4.8-5.89-4.8-.88,0-3.49.08-4.29.08v25.97h-4.11v-28.96h.21c.08,0,6.83-.21,8.21-.21,2.69,0,9.97,0,9.97,7.57,0,5.31-4.37,7.2-5.81,7.84h0Z"/>
</svg>