<?xml version="1.0" encoding="UTF-8"?>
<svg id="Layer_1" data-name="Layer 1" xmlns="http://www.w3.org/2000/svg" viewBox="0 0 175 120">
  <defs>
    <style>
      .cls-1 {
        fill: #434345;
      }

      .cls-1, .cls-2, .cls-3 {
        stroke-width: 0px;
      }

      .cls-2 {
        fill: #009798;
        fill-rule: evenodd;
      }

      .cls-3 {
        fill: #0f145a;
      }
    </style>
  </defs>
  <path class="cls-2" d="M15.03,72.93c2.74,2.99,6.12,4.37,9.6,5.78,1.7.69,3.43,1.4,5.14,2.31l.63.34.63.35h.02c.78.55,1.49,1.18,2.13,1.88.51.57.98,1.19,1.38,1.85,2.06,3.26,2.89,6.67,2.5,10.22l-.4-.86c-.41-.87-.91-1.69-1.5-2.43-.7-.83-1.55-1.64-2.57-2.43-4.2-2.94-9.36-1.23-13.35-5.43-.14-.12-.28-.25-.41-.38-1.42-1.7-2.06-3.82-1.49-6.09,2.86,1.83,5.9,3.34,9.07,4.51,1.23.41,2.47.75,3.74,1.01l-.14-.08c-.41-.23-.81-.46-1.2-.66-1.87-1-3.65-1.7-5.37-2.38-2.11-.83-4.11-1.61-6.07-2.88-1.12-.73-2.16-1.56-3.11-2.5-.25-.24-.5-.5-.74-.77-4.07-4.44-4.8-8.3-5.84-13.83l-.18-.96,1.11,1.51c2.12,2.9,3.79,5.18,7.12,7.18.54.32,1.1.62,1.67.89.57.27,1.15.51,1.75.72l1.18.42h-1.25c-1.5.01-2.98-.26-4.35-.79-1.11-.42-2.15-1.01-3.1-1.74.36.82.78,1.62,1.25,2.38.63,1.01,1.35,1.96,2.15,2.84M50.24,88.86c5.67-3.82,10.12-9.07,12.98-15.15,2.79,1.37,5.2,2.92,7.58,4.96-5.19,5.75-12.44,9.53-20.55,10.19M64.24,71.33c1.67-4.3,2.57-8.92,2.57-13.68,0-4.12-.67-8.15-1.94-11.94,3.07-1.54,5.92-3.5,8.48-5.84,7.69,11.16,7.31,26.06-.9,36.82-2.59-2.22-5.18-3.87-8.21-5.35M63.96,43.27c-2.8-6.79-7.54-12.66-13.71-16.83,8.62.71,16.3,4.94,21.55,11.35-2.36,2.19-5,4.03-7.83,5.48M33.71,44.36c2.77-6.79,7.63-12.59,13.95-16.52,6.33,3.92,11.18,9.73,13.95,16.52-4.51,1.9-8.95,2.74-13.95,2.74s-9.44-.83-13.95-2.74M23.53,37.79c5.25-6.41,12.93-10.64,21.55-11.35-6.17,4.17-10.91,10.04-13.71,16.83-2.83-1.45-5.47-3.29-7.83-5.48M44.43,88.41c.22.15.43.3.65.45-.25-.02-.51-.04-.76-.07l-.02.08c.04-.15.09-.31.13-.46M52.54,70.54c2.86.37,5.66,1.09,8.31,2.14-2.86,6.04-7.4,11.2-13.19,14.79-.87-.54-1.71-1.11-2.52-1.72.1-.41.21-.82.31-1.23.95-3.76,1.91-7.61,3.57-10.43.92-1.56,2.05-2.81,3.52-3.55M31.13,59.08c-.17-4.13.39-8.29,1.69-12.29,4.66,1.95,9.67,2.95,14.84,2.9,5.17.05,10.18-.95,14.84-2.9,2.49,7.68,2.27,15.99-.63,23.5-1.34-.53-2.68-.98-4.02-1.34l-.23-.55c-.16-.38-.37-.73-.62-1.04-.26-.32-.56-.6-.89-.83-.26-.18-.54-.34-.83-.46-.25-.11-.52-.19-.8-.25-.33-.65-.74-1.24-1.25-1.74-.53-.53-1.16-.99-1.89-1.36-.77-.39-1.64-.69-2.63-.9-.98-.21-2.07-.33-3.27-.36-.71-.02-1.42-.11-2.1-.27-.69-.15-1.37-.37-2.02-.65-.65-.28-1.28-.61-1.87-1-.59-.39-1.14-.83-1.66-1.33l-2.25-2.17.53,3.09c.12.7.33,1.38.61,2.02.29.65.66,1.25,1.09,1.81.17.22.36.43.56.63l.17.17c-.65-.04-1.28-.15-1.9-.33-.82-.23-1.59-.57-2.31-1-1.32-.8-2.36-1.98-3.17-3.34M20.76,41.77c.38-.64.78-1.28,1.21-1.9,2.56,2.34,5.42,4.3,8.48,5.84-.71,2.12-1.23,4.3-1.55,6.54-.04-.31-.07-.63-.09-.95-.04-.61-.06-1.21-.04-1.82l.12-3.64-2,3.05c-2.47,3.76-2.83,7.08-2.04,10.23l-.31-.31c-1.15-1.17-2.07-2.49-2.75-3.9-.71-1.45-1.17-3-1.38-4.58h0c-.24-1.59-.29-3.29-.14-5.11.09-1.11.25-2.25.48-3.44M21.69,35.95c-.56.67-1.09,1.36-1.59,2.08h0c-2.1,2.97-3.67,6.19-4.71,9.54l.09-.11-.05.15c-.84,2.37-1.22,4.84-1.16,7.28v.05c.02.86.09,1.72.22,2.59.36,2.47,1.09,4.55,2.07,6.37.98,1.82,2.22,3.39,3.62,4.84h0c.59.59,1.19,1.16,1.8,1.72.61.56,1.23,1.11,1.85,1.66l.65.56.66.56c.93.79,1.87,1.59,2.83,2.44.95.85,1.89,1.74,2.81,2.69l.15.16h0c1.59,1.57,3,3.32,4.19,5.21.09.15.19.3.28.45-1.35-5.38-4.05-10.33-7.85-14.39,6.06,4.75,9.82,11.85,10.35,19.55,1.19-4.15,1-8.59-.57-12.64-1.37-3.11-3.34-5.91-5.25-8.63-1.82-2.58-3.57-5.08-4.58-7.62-.91-2.26-1.23-4.58-.51-7.06v.07c.41,2.26,1.1,4.55,2.25,6.54.97,1.67,2.26,3.13,3.98,4.17,1.25.76,2.65,1.28,4.13,1.51,1.42.22,2.9.18,4.38-.17l3.09-.73-2.93-1.23c-.5-.21-.96-.47-1.38-.79-.28-.21-.54-.45-.78-.7.25.13.51.25.78.36.77.32,1.56.58,2.38.76.81.18,1.64.29,2.48.31h.01c1.04.03,1.98.13,2.82.3.83.17,1.56.42,2.19.75.59.3,1.08.67,1.48,1.1.4.43.72.93.94,1.49l.24.61.66.04c.13,0,.26.03.39.05-3.3.5-5.47,2.55-7.04,5.39-1.68,3.03-2.66,6.94-3.62,10.77-.43,1.7-.85,3.39-1.32,4.94-.34,1.1-.7,2.14-1.11,3.09.07-.85.11-1.7.14-2.56.05-1.27.06-2.55.07-3.82.04-3.73.08-7.35.97-10.3.14-.47.31-.92.49-1.35-.56,2.39-.37,4.92.62,7.23-.06-4.86,2.14-9.48,5.95-12.49l-1.1-.09c-1.33-.11-2.65.14-3.82.7-1.17.56-2.19,1.42-2.95,2.53h0c-.77,1.36-1.27,2.88-1.59,4.53-.29,1.81-.47,3.64-.55,5.48v.07s-.03.82-.03.82v.02c.01,2.94-.04,5.46-.16,7.54l-.04.7c-.07,1.05-.17,2.09-.32,3.1-.1.69-.23,1.37-.39,2.03l-.76,3.18,2.44-2.18c1.59-1.42,2.68-3.54,3.56-6.02l-.05.14c1.36.17,2.75.25,4.15.25,9.71,0,18.7-4.13,25.03-11.13h0c.58-.64,1.14-1.3,1.66-1.98h0c9.12-11.79,9.49-28.23.86-40.41h0c-.5-.72-1.03-1.41-1.59-2.08h0c-10.61-12.77-29-16.07-43.46-7.32-3.19,1.93-6.09,4.45-8.48,7.32h0Z"/>
  <g>
    <path class="cls-3" d="M96.25,46.57h3.15v2.21c-.3.17-.66.28-1.09.36-.43.07-.9.11-1.41.11-.89,0-1.71-.12-2.44-.37-.74-.25-1.37-.61-1.91-1.09-.54-.48-.95-1.06-1.25-1.75-.3-.69-.45-1.46-.45-2.32,0-.97.13-1.83.4-2.57.26-.73.66-1.35,1.18-1.85.52-.5,1.16-.87,1.92-1.12.76-.25,1.64-.37,2.63-.37.4,0,.85.05,1.36.16.51.11,1.02.24,1.51.41.5.17.89.33,1.19.5l1.16-3.35c-.68-.38-1.5-.7-2.48-.95-.98-.26-2.05-.38-3.22-.38-1.24,0-2.43.2-3.56.59-1.13.4-2.13,1-3,1.82-.87.82-1.55,1.84-2.06,3.07-.5,1.23-.76,2.68-.76,4.35,0,1.27.22,2.45.67,3.52.45,1.07,1.09,2,1.93,2.79.84.78,1.86,1.4,3.05,1.83,1.19.44,2.53.66,4.01.66.56,0,1.16-.06,1.78-.19.63-.12,1.24-.29,1.85-.48.6-.2,1.14-.42,1.6-.66.46-.24.8-.47,1.02-.71v-7.71h-6.79v3.47Z"/>
    <path class="cls-3" d="M118.37,44.81c.5-.61.87-1.29,1.09-2.03.22-.74.33-1.49.33-2.23,0-.94-.16-1.79-.47-2.54-.31-.75-.77-1.4-1.38-1.93-.6-.54-1.35-.95-2.24-1.24-.89-.29-1.91-.43-3.05-.43h-5.53v18.24h3.59v-5.8h2.39l3.85,5.8h4.19l-4.27-6.66c.58-.33,1.09-.71,1.48-1.18ZM110.72,37.87h2.58c.63,0,1.13.11,1.5.32.37.21.65.48.83.79.18.31.3.62.36.93.06.31.09.56.09.76,0,.26-.05.55-.14.85-.09.31-.24.6-.45.88-.21.28-.49.51-.86.69-.36.18-.82.27-1.36.27h-2.55v-5.5Z"/>
    <polygon class="cls-3" points="155.16 34.4 155.16 37.87 159.42 37.87 159.42 52.64 163.01 52.64 163.01 37.87 167.45 37.87 167.45 34.4 155.16 34.4"/>
    <path class="cls-3" d="M146.81,33.68l-8.23,18.96h3.54l1.49-3.57h6.05l1.41,3.57h4.16l-8.23-18.96h-.2ZM144.87,46.05l1.85-4.45,1.75,4.45h-3.6Z"/>
    <polygon class="cls-3" points="127.72 45.23 135.55 45.23 135.55 41.76 127.72 41.76 127.72 37.87 136.57 37.87 136.57 34.4 124.13 34.4 124.13 52.64 136.92 52.64 136.92 49.17 127.72 49.17 127.72 45.23"/>
  </g>
  <g>
    <polygon class="cls-3" points="103.5 67.8 99.4 57.67 95.83 57.67 97.27 61.27 94.48 68.22 90.89 57.67 86.68 57.67 94.02 76.63 99.08 65.78 103.41 76.58 110.45 57.67 106.58 57.67 103.5 67.8"/>
    <polygon class="cls-3" points="121.16 68.38 128.99 68.38 128.99 64.91 121.16 64.91 121.16 61.02 130 61.02 130 57.55 117.56 57.55 117.56 75.79 130.35 75.79 130.35 72.32 121.16 72.32 121.16 68.38"/>
    <polygon class="cls-3" points="155.21 57.55 155.21 61.02 159.47 61.02 159.47 75.79 163.06 75.79 163.06 61.02 167.5 61.02 167.5 57.55 155.21 57.55"/>
    <path class="cls-3" d="M141.8,61.12c.45-.31,1.06-.47,1.83-.47.63,0,1.3.12,2.02.37.72.25,1.43.56,2.12.94l1.36-2.75c-.73-.48-1.55-.89-2.47-1.24-.92-.35-2.11-.52-3.58-.52-1.12.05-2.11.3-2.97.76-.86.45-1.52,1.07-2,1.85-.47.78-.71,1.69-.71,2.75,0,.88.16,1.62.48,2.22.32.6.74,1.11,1.26,1.51.52.41,1.08.75,1.67,1.03.59.28,1.17.53,1.73.74.48.18.92.4,1.33.64.4.25.73.52.97.82.24.3.36.63.36.99,0,.53-.14.94-.43,1.24-.29.3-.65.51-1.09.63-.44.12-.87.19-1.3.19s-.9-.07-1.41-.2c-.51-.13-1.02-.32-1.52-.56-.5-.24-.97-.52-1.4-.83l-1.59,2.8c.64.45,1.31.81,2.01,1.1.69.29,1.4.5,2.12.64s1.42.21,2.12.21c1.35,0,2.49-.24,3.42-.73.93-.49,1.63-1.13,2.11-1.92.48-.79.72-1.65.72-2.58,0-.88-.12-1.61-.37-2.22-.25-.6-.58-1.11-.99-1.51-.41-.4-.88-.74-1.4-1.02-.52-.27-1.05-.51-1.57-.71-.58-.21-1.14-.45-1.67-.72-.54-.26-.98-.57-1.31-.9-.34-.34-.51-.72-.51-1.15,0-.63.22-1.1.67-1.41Z"/>
  </g>
  <path class="cls-1" d="M158.32,82.79h1.92v6.39h.98v-6.39h1.97v-.94h-4.87v.94ZM155.93,89.41v-7.56h-.97l.02,5.5.23.05-5.61-5.77h-.05v7.55h.98l-.02-5.44-.28-.07,5.67,5.75h.03ZM142.13,89.18h4.91v-.94h-3.92v-2.27h3.38v-.94h-3.38v-2.23h3.78v-.94h-4.77v7.33ZM132.88,89.18v-5.29l-.17.46,2.81,3.91h.02l2.77-3.91-.06-.5v5.33h.97v-7.56h-.02l-3.83,5.37.42.08-3.84-5.45h-.01v7.56h.95ZM124.69,82.79h1.92v6.39h.98v-6.39h1.97v-.94h-4.87v.94ZM122.73,82.41c-.28-.17-.6-.31-.96-.43-.36-.11-.78-.17-1.25-.17-.42.01-.79.1-1.12.27-.32.17-.58.39-.77.68-.19.29-.28.62-.28,1.01,0,.32.06.59.18.81.12.22.28.41.49.56s.42.28.66.39c.24.1.47.2.7.29.24.09.47.2.69.32.22.12.39.26.52.43.13.17.2.37.2.62,0,.29-.07.52-.22.7-.15.18-.34.31-.56.39-.23.08-.45.13-.68.13-.22,0-.44-.03-.67-.1-.23-.06-.45-.15-.66-.25-.21-.1-.4-.21-.56-.33l-.44.77c.2.13.42.25.67.37.25.12.52.21.82.29s.6.11.93.11c.49,0,.92-.09,1.28-.27.36-.18.63-.43.83-.75.19-.32.29-.67.29-1.05,0-.35-.05-.65-.16-.88-.1-.24-.25-.44-.43-.6-.18-.16-.38-.3-.6-.41-.22-.11-.45-.21-.68-.29-.26-.1-.52-.21-.76-.32-.24-.11-.44-.25-.59-.41-.15-.16-.22-.35-.22-.58,0-.3.12-.55.35-.73s.55-.27.94-.27c.28,0,.57.05.87.14.3.09.57.21.82.33l.38-.75ZM111.14,89.18h4.91v-.94h-3.92v-2.27h3.38v-.94h-3.38v-2.23h3.78v-.94h-4.77v7.33ZM102.4,81.85l3.22,7.66,3.23-7.66h-1.15l-2.29,5.95.56.11-2.41-6.06h-1.17ZM100.12,89.41v-7.56h-.97l.02,5.5.23.05-5.61-5.77h-.05v7.55h.98l-.02-5.44-.28-.07,5.67,5.75h.03ZM89.84,89.18h.98v-7.33h-.98v7.33Z"/>
</svg>