<?xml version="1.0" encoding="UTF-8"?>
<svg id="Layer_1" data-name="Layer 1" xmlns="http://www.w3.org/2000/svg" xmlns:xlink="http://www.w3.org/1999/xlink" viewBox="0 0 175 120">
  <defs>
    <style>
      .cls-1 {
        fill: url(#GradientFill_1-69);
      }

      .cls-1, .cls-2, .cls-3, .cls-4, .cls-5, .cls-6, .cls-7, .cls-8, .cls-9, .cls-10, .cls-11, .cls-12, .cls-13, .cls-14, .cls-15, .cls-16, .cls-17, .cls-18, .cls-19, .cls-20, .cls-21, .cls-22, .cls-23, .cls-24, .cls-25, .cls-26, .cls-27, .cls-28, .cls-29, .cls-30, .cls-31, .cls-32, .cls-33, .cls-34, .cls-35, .cls-36, .cls-37, .cls-38, .cls-39, .cls-40, .cls-41, .cls-42, .cls-43, .cls-44, .cls-45, .cls-46, .cls-47, .cls-48, .cls-49, .cls-50, .cls-51, .cls-52, .cls-53, .cls-54, .cls-55, .cls-56, .cls-57, .cls-58, .cls-59, .cls-60, .cls-61, .cls-62, .cls-63, .cls-64, .cls-65, .cls-66, .cls-67, .cls-68, .cls-69, .cls-70, .cls-71, .cls-72, .cls-73, .cls-74 {
        stroke-width: 0px;
      }

      .cls-1, .cls-2, .cls-3, .cls-4, .cls-5, .cls-6, .cls-7, .cls-8, .cls-9, .cls-10, .cls-11, .cls-12, .cls-13, .cls-14, .cls-15, .cls-16, .cls-17, .cls-18, .cls-19, .cls-20, .cls-21, .cls-22, .cls-23, .cls-24, .cls-25, .cls-26, .cls-27, .cls-28, .cls-29, .cls-30, .cls-31, .cls-32, .cls-33, .cls-34, .cls-35, .cls-36, .cls-37, .cls-38, .cls-39, .cls-40, .cls-41, .cls-42, .cls-43, .cls-44, .cls-45, .cls-46, .cls-47, .cls-48, .cls-49, .cls-50, .cls-51, .cls-52, .cls-53, .cls-54, .cls-55, .cls-56, .cls-57, .cls-58, .cls-59, .cls-60, .cls-61, .cls-62, .cls-63, .cls-65, .cls-66, .cls-67, .cls-68, .cls-69, .cls-70, .cls-71, .cls-72, .cls-73, .cls-74 {
        fill-rule: evenodd;
      }

      .cls-2 {
        fill: url(#GradientFill_1-68);
      }

      .cls-3 {
        fill: url(#GradientFill_1-62);
      }

      .cls-4 {
        fill: url(#GradientFill_1-64);
      }

      .cls-5 {
        fill: url(#GradientFill_1-60);
      }

      .cls-6 {
        fill: url(#GradientFill_1-65);
      }

      .cls-7 {
        fill: url(#GradientFill_1-61);
      }

      .cls-8 {
        fill: url(#GradientFill_1-66);
      }

      .cls-9 {
        fill: url(#GradientFill_1-67);
      }

      .cls-10 {
        fill: url(#GradientFill_1-63);
      }

      .cls-11 {
        fill: url(#GradientFill_1-71);
      }

      .cls-12 {
        fill: url(#GradientFill_1-72);
      }

      .cls-13 {
        fill: url(#GradientFill_1-55);
      }

      .cls-14 {
        fill: url(#GradientFill_1-59);
      }

      .cls-15 {
        fill: url(#GradientFill_1-70);
      }

      .cls-16 {
        fill: url(#GradientFill_1-50);
      }

      .cls-17 {
        fill: url(#GradientFill_1-58);
      }

      .cls-18 {
        fill: url(#GradientFill_1-57);
      }

      .cls-19 {
        fill: url(#GradientFill_1-53);
      }

      .cls-20 {
        fill: url(#GradientFill_1-56);
      }

      .cls-21 {
        fill: url(#GradientFill_1-52);
      }

      .cls-22 {
        fill: url(#GradientFill_1-54);
      }

      .cls-23 {
        fill: url(#GradientFill_1-51);
      }

      .cls-24 {
        fill: url(#GradientFill_1-25);
      }

      .cls-25 {
        fill: url(#GradientFill_1-29);
      }

      .cls-26 {
        fill: url(#GradientFill_1-28);
      }

      .cls-27 {
        fill: url(#GradientFill_1-26);
      }

      .cls-28 {
        fill: url(#GradientFill_1-24);
      }

      .cls-29 {
        fill: url(#GradientFill_1-27);
      }

      .cls-30 {
        fill: url(#GradientFill_1-23);
      }

      .cls-31 {
        fill: url(#GradientFill_1-20);
      }

      .cls-32 {
        fill: url(#GradientFill_1-21);
      }

      .cls-33 {
        fill: url(#GradientFill_1-22);
      }

      .cls-34 {
        fill: url(#GradientFill_1-14);
      }

      .cls-35 {
        fill: url(#GradientFill_1-19);
      }

      .cls-36 {
        fill: url(#GradientFill_1-18);
      }

      .cls-37 {
        fill: url(#GradientFill_1-41);
      }

      .cls-38 {
        fill: url(#GradientFill_1-44);
      }

      .cls-39 {
        fill: url(#GradientFill_1-48);
      }

      .cls-40 {
        fill: url(#GradientFill_1-46);
      }

      .cls-41 {
        fill: url(#GradientFill_1-40);
      }

      .cls-42 {
        fill: url(#GradientFill_1-45);
      }

      .cls-43 {
        fill: url(#GradientFill_1-43);
      }

      .cls-44 {
        fill: url(#GradientFill_1-47);
      }

      .cls-45 {
        fill: url(#GradientFill_1-42);
      }

      .cls-46 {
        fill: url(#GradientFill_1-49);
      }

      .cls-47 {
        fill: url(#GradientFill_1-34);
      }

      .cls-48 {
        fill: url(#GradientFill_1-39);
      }

      .cls-49 {
        fill: url(#GradientFill_1-38);
      }

      .cls-50 {
        fill: url(#GradientFill_1-32);
      }

      .cls-51 {
        fill: url(#GradientFill_1-31);
      }

      .cls-52 {
        fill: url(#GradientFill_1-33);
      }

      .cls-53 {
        fill: url(#GradientFill_1-30);
      }

      .cls-54 {
        fill: url(#GradientFill_1-36);
      }

      .cls-55 {
        fill: url(#GradientFill_1-35);
      }

      .cls-56 {
        fill: url(#GradientFill_1-37);
      }

      .cls-57 {
        fill: url(#GradientFill_1-11);
      }

      .cls-58 {
        fill: url(#GradientFill_1-13);
      }

      .cls-59 {
        fill: url(#GradientFill_1-17);
      }

      .cls-60 {
        fill: url(#GradientFill_1-10);
      }

      .cls-61 {
        fill: url(#GradientFill_1-15);
      }

      .cls-62 {
        fill: url(#GradientFill_1-16);
      }

      .cls-63 {
        fill: url(#GradientFill_1-12);
      }

      .cls-75 {
        clip-path: url(#clippath);
      }

      .cls-64, .cls-76 {
        fill: none;
      }

      .cls-65 {
        fill: url(#GradientFill_1);
      }

      .cls-66 {
        fill: #343738;
      }

      .cls-67 {
        fill: url(#GradientFill_1-4);
      }

      .cls-68 {
        fill: url(#GradientFill_1-2);
      }

      .cls-69 {
        fill: url(#GradientFill_1-3);
      }

      .cls-70 {
        fill: url(#GradientFill_1-9);
      }

      .cls-71 {
        fill: url(#GradientFill_1-8);
      }

      .cls-72 {
        fill: url(#GradientFill_1-5);
      }

      .cls-73 {
        fill: url(#GradientFill_1-7);
      }

      .cls-74 {
        fill: url(#GradientFill_1-6);
      }

      .cls-76 {
        stroke: #1d71b2;
        stroke-miterlimit: 10;
        stroke-width: .35px;
      }
    </style>
    <linearGradient id="GradientFill_1" data-name="GradientFill 1" x1="129.19" y1="60.36" x2="102.56" y2="30.52" gradientUnits="userSpaceOnUse">
      <stop offset="0" stop-color="#0f4a77"/>
      <stop offset=".09" stop-color="#1d6895"/>
      <stop offset=".18" stop-color="#1d88c3"/>
      <stop offset=".6" stop-color="#214e6b"/>
      <stop offset="1" stop-color="#000226"/>
    </linearGradient>
    <linearGradient id="GradientFill_1-2" data-name="GradientFill 1" x1="125.45" y1="65.63" x2="94.77" y2="31.26" xlink:href="#GradientFill_1"/>
    <linearGradient id="GradientFill_1-3" data-name="GradientFill 1" x1="70.12" y1="67.18" x2="131.73" y2="50.48" xlink:href="#GradientFill_1"/>
    <linearGradient id="GradientFill_1-4" data-name="GradientFill 1" x1="69.99" y1="64.1" x2="131.53" y2="47.42" xlink:href="#GradientFill_1"/>
    <linearGradient id="GradientFill_1-5" data-name="GradientFill 1" x1="71.63" y1="72.73" x2="133.24" y2="56.03" xlink:href="#GradientFill_1"/>
    <linearGradient id="GradientFill_1-6" data-name="GradientFill 1" x1="72.51" y1="77.16" x2="134.02" y2="60.48" xlink:href="#GradientFill_1"/>
    <linearGradient id="GradientFill_1-7" data-name="GradientFill 1" x1="70.55" y1="70.01" x2="132.07" y2="53.33" xlink:href="#GradientFill_1"/>
    <linearGradient id="GradientFill_1-8" data-name="GradientFill 1" x1="68.86" y1="65.01" x2="130.54" y2="48.29" xlink:href="#GradientFill_1"/>
    <linearGradient id="GradientFill_1-9" data-name="GradientFill 1" x1="68.05" y1="58.81" x2="129.65" y2="42.11" xlink:href="#GradientFill_1"/>
    <linearGradient id="GradientFill_1-10" data-name="GradientFill 1" x1="67.46" y1="59.28" x2="129.07" y2="42.58" xlink:href="#GradientFill_1"/>
    <linearGradient id="GradientFill_1-11" data-name="GradientFill 1" x1="71.81" y1="71.09" x2="133.33" y2="54.42" xlink:href="#GradientFill_1"/>
    <linearGradient id="GradientFill_1-12" data-name="GradientFill 1" x1="69.14" y1="63.63" x2="130.69" y2="46.95" xlink:href="#GradientFill_1"/>
    <linearGradient id="GradientFill_1-13" data-name="GradientFill 1" x1="69.5" y1="68.44" x2="131.06" y2="51.75" xlink:href="#GradientFill_1"/>
    <linearGradient id="GradientFill_1-14" data-name="GradientFill 1" x1="73.79" y1="81.58" x2="135.5" y2="64.85" xlink:href="#GradientFill_1"/>
    <linearGradient id="GradientFill_1-15" data-name="GradientFill 1" x1="73.3" y1="77.92" x2="134.81" y2="61.24" xlink:href="#GradientFill_1"/>
    <linearGradient id="GradientFill_1-16" data-name="GradientFill 1" x1="68.12" y1="65.26" x2="129.77" y2="48.54" xlink:href="#GradientFill_1"/>
    <linearGradient id="GradientFill_1-17" data-name="GradientFill 1" x1="70.98" y1="73.29" x2="132.67" y2="56.57" xlink:href="#GradientFill_1"/>
    <linearGradient id="GradientFill_1-18" data-name="GradientFill 1" x1="66.81" y1="53.32" x2="128.4" y2="36.62" xlink:href="#GradientFill_1"/>
    <linearGradient id="GradientFill_1-19" data-name="GradientFill 1" x1="98.84" y1="62.61" x2="137.04" y2="49.81" xlink:href="#GradientFill_1"/>
    <linearGradient id="GradientFill_1-20" data-name="GradientFill 1" x1="98.71" y1="59.78" x2="136.86" y2="47.01" xlink:href="#GradientFill_1"/>
    <linearGradient id="GradientFill_1-21" data-name="GradientFill 1" x1="100.38" y1="67.7" x2="138.57" y2="54.91" xlink:href="#GradientFill_1"/>
    <linearGradient id="GradientFill_1-22" data-name="GradientFill 1" x1="101.1" y1="71.63" x2="139.24" y2="58.86" xlink:href="#GradientFill_1"/>
    <linearGradient id="GradientFill_1-23" data-name="GradientFill 1" x1="98.98" y1="64.86" x2="137.1" y2="52.1" xlink:href="#GradientFill_1"/>
    <linearGradient id="GradientFill_1-24" data-name="GradientFill 1" x1="97.35" y1="60.31" x2="135.58" y2="47.51" xlink:href="#GradientFill_1"/>
    <linearGradient id="GradientFill_1-25" data-name="GradientFill 1" x1="96.78" y1="54.99" x2="134.97" y2="42.21" xlink:href="#GradientFill_1"/>
    <linearGradient id="GradientFill_1-26" data-name="GradientFill 1" x1="95.78" y1="54.9" x2="133.98" y2="42.11" xlink:href="#GradientFill_1"/>
    <linearGradient id="GradientFill_1-27" data-name="GradientFill 1" x1="100.6" y1="66.31" x2="138.76" y2="53.53" xlink:href="#GradientFill_1"/>
    <linearGradient id="GradientFill_1-28" data-name="GradientFill 1" x1="97.2" y1="58.47" x2="135.36" y2="45.69" xlink:href="#GradientFill_1"/>
    <linearGradient id="GradientFill_1-29" data-name="GradientFill 1" x1="97.59" y1="62.99" x2="135.76" y2="50.21" xlink:href="#GradientFill_1"/>
    <linearGradient id="GradientFill_1-30" data-name="GradientFill 1" x1="103.22" y1="75.57" x2="141.48" y2="62.76" xlink:href="#GradientFill_1"/>
    <linearGradient id="GradientFill_1-31" data-name="GradientFill 1" x1="101.94" y1="72.33" x2="140.08" y2="59.56" xlink:href="#GradientFill_1"/>
    <linearGradient id="GradientFill_1-32" data-name="GradientFill 1" x1="96.25" y1="60.15" x2="134.47" y2="47.35" xlink:href="#GradientFill_1"/>
    <linearGradient id="GradientFill_1-33" data-name="GradientFill 1" x1="99.35" y1="67.69" x2="137.6" y2="54.88" xlink:href="#GradientFill_1"/>
    <linearGradient id="GradientFill_1-34" data-name="GradientFill 1" x1="94.77" y1="48.85" x2="132.95" y2="36.06" xlink:href="#GradientFill_1"/>
    <linearGradient id="GradientFill_1-35" data-name="GradientFill 1" x1="71.98" y1="56.38" x2="133.6" y2="39.67" xlink:href="#GradientFill_1"/>
    <linearGradient id="GradientFill_1-36" data-name="GradientFill 1" x1="99.95" y1="51.9" x2="138.16" y2="39.1" xlink:href="#GradientFill_1"/>
    <linearGradient id="GradientFill_1-37" data-name="GradientFill 1" x1="98.53" y1="65.22" x2="36.91" y2="48.52" xlink:href="#GradientFill_1"/>
    <linearGradient id="GradientFill_1-38" data-name="GradientFill 1" x1="98.7" y1="62.16" x2="37.11" y2="45.46" xlink:href="#GradientFill_1"/>
    <linearGradient id="GradientFill_1-39" data-name="GradientFill 1" x1="96.99" y1="70.77" x2="35.41" y2="54.07" xlink:href="#GradientFill_1"/>
    <linearGradient id="GradientFill_1-40" data-name="GradientFill 1" x1="96.2" y1="75.21" x2="34.6" y2="58.52" xlink:href="#GradientFill_1"/>
    <linearGradient id="GradientFill_1-41" data-name="GradientFill 1" x1="98.13" y1="68.07" x2="36.56" y2="51.38" xlink:href="#GradientFill_1"/>
    <linearGradient id="GradientFill_1-42" data-name="GradientFill 1" x1="99.77" y1="63.05" x2="38.11" y2="46.33" xlink:href="#GradientFill_1"/>
    <linearGradient id="GradientFill_1-43" data-name="GradientFill 1" x1="100.61" y1="56.86" x2="38.99" y2="40.16" xlink:href="#GradientFill_1"/>
    <linearGradient id="GradientFill_1-44" data-name="GradientFill 1" x1="101.18" y1="57.32" x2="39.58" y2="40.62" xlink:href="#GradientFill_1"/>
    <linearGradient id="GradientFill_1-45" data-name="GradientFill 1" x1="96.86" y1="69.15" x2="35.31" y2="52.46" xlink:href="#GradientFill_1"/>
    <linearGradient id="GradientFill_1-46" data-name="GradientFill 1" x1="99.59" y1="61.7" x2="37.93" y2="44.98" xlink:href="#GradientFill_1"/>
    <linearGradient id="GradientFill_1-47" data-name="GradientFill 1" x1="99.15" y1="66.49" x2="37.57" y2="49.79" xlink:href="#GradientFill_1"/>
    <linearGradient id="GradientFill_1-48" data-name="GradientFill 1" x1="94.73" y1="79.59" x2="33.18" y2="62.91" xlink:href="#GradientFill_1"/>
    <linearGradient id="GradientFill_1-49" data-name="GradientFill 1" x1="95.5" y1="76" x2="33.79" y2="59.27" xlink:href="#GradientFill_1"/>
    <linearGradient id="GradientFill_1-50" data-name="GradientFill 1" x1="100.49" y1="63.29" x2="38.9" y2="46.6" xlink:href="#GradientFill_1"/>
    <linearGradient id="GradientFill_1-51" data-name="GradientFill 1" x1="97.62" y1="71.32" x2="35.99" y2="54.62" xlink:href="#GradientFill_1"/>
    <linearGradient id="GradientFill_1-52" data-name="GradientFill 1" x1="101.81" y1="51.36" x2="40.25" y2="34.67" xlink:href="#GradientFill_1"/>
    <linearGradient id="GradientFill_1-53" data-name="GradientFill 1" x1="69.8" y1="60.65" x2="31.61" y2="47.86" xlink:href="#GradientFill_1"/>
    <linearGradient id="GradientFill_1-54" data-name="GradientFill 1" x1="69.95" y1="57.83" x2="31.77" y2="45.05" xlink:href="#GradientFill_1"/>
    <linearGradient id="GradientFill_1-55" data-name="GradientFill 1" x1="68.24" y1="65.74" x2="30.09" y2="52.96" xlink:href="#GradientFill_1"/>
    <linearGradient id="GradientFill_1-56" data-name="GradientFill 1" x1="67.56" y1="69.68" x2="29.38" y2="56.9" xlink:href="#GradientFill_1"/>
    <linearGradient id="GradientFill_1-57" data-name="GradientFill 1" x1="69.68" y1="62.91" x2="31.52" y2="50.14" xlink:href="#GradientFill_1"/>
    <linearGradient id="GradientFill_1-58" data-name="GradientFill 1" x1="71.3" y1="58.35" x2="33.06" y2="45.55" xlink:href="#GradientFill_1"/>
    <linearGradient id="GradientFill_1-59" data-name="GradientFill 1" x1="71.87" y1="53.04" x2="33.67" y2="40.25" xlink:href="#GradientFill_1"/>
    <linearGradient id="GradientFill_1-60" data-name="GradientFill 1" x1="72.86" y1="52.95" x2="34.66" y2="40.16" xlink:href="#GradientFill_1"/>
    <linearGradient id="GradientFill_1-61" data-name="GradientFill 1" x1="68.04" y1="64.35" x2="29.88" y2="51.58" xlink:href="#GradientFill_1"/>
    <linearGradient id="GradientFill_1-62" data-name="GradientFill 1" x1="71.48" y1="56.53" x2="33.25" y2="43.72" xlink:href="#GradientFill_1"/>
    <linearGradient id="GradientFill_1-63" data-name="GradientFill 1" x1="71.05" y1="61.03" x2="32.88" y2="48.25" xlink:href="#GradientFill_1"/>
    <linearGradient id="GradientFill_1-64" data-name="GradientFill 1" x1="65.37" y1="73.59" x2="27.24" y2="60.82" xlink:href="#GradientFill_1"/>
    <linearGradient id="GradientFill_1-65" data-name="GradientFill 1" x1="66.77" y1="70.39" x2="28.49" y2="57.58" xlink:href="#GradientFill_1"/>
    <linearGradient id="GradientFill_1-66" data-name="GradientFill 1" x1="72.38" y1="58.19" x2="34.2" y2="45.4" xlink:href="#GradientFill_1"/>
    <linearGradient id="GradientFill_1-67" data-name="GradientFill 1" x1="69.27" y1="65.73" x2="31.07" y2="52.94" xlink:href="#GradientFill_1"/>
    <linearGradient id="GradientFill_1-68" data-name="GradientFill 1" x1="73.86" y1="46.89" x2="35.7" y2="34.11" xlink:href="#GradientFill_1"/>
    <linearGradient id="GradientFill_1-69" data-name="GradientFill 1" x1="96.57" y1="54.39" x2="35.06" y2="37.72" xlink:href="#GradientFill_1"/>
    <linearGradient id="GradientFill_1-70" data-name="GradientFill 1" x1="68.65" y1="49.93" x2="30.51" y2="37.16" xlink:href="#GradientFill_1"/>
    <linearGradient id="GradientFill_1-71" data-name="GradientFill 1" x1="94.6" y1="20.03" x2="48.29" y2="60.57" xlink:href="#GradientFill_1"/>
    <linearGradient id="GradientFill_1-72" data-name="GradientFill 1" x1="108.53" y1="12.4" x2="51.15" y2="62.63" xlink:href="#GradientFill_1"/>
    <clipPath id="clippath">
      <polygon class="cls-64" points="274.72 149.67 252.45 160.17 241.72 164.5 241.72 223.63 299.55 223.63 299.55 234.9 314.83 234.9 314.83 223.63 317.68 223.63 317.68 222.22 323.8 222.22 323.8 207.68 317.68 207.68 317.68 149.67 274.72 149.67"/>
    </clipPath>
  </defs>
  <g>
    <g>
      <polygon class="cls-65" points="113.91 46.32 109.37 42.7 112.68 38.66 117.07 42.22 113.91 46.32"/>
      <path class="cls-68" d="M84.3,39.62l16.84,13.66,1.88-2.25,4.62,3.58,3.13-4.14-4.77-3.82,3.21-3.94-4.23-3.37,3.5-4.27,4.24,3.38,3.08-3.76-1.34-1.09c-1.82-1.16-4.83-2.49-9.08-2.49h0c-5.16,0-12.15,1.95-21.08,8.48h0Z"/>
      <polygon class="cls-69" points="116.39 55.27 120.97 54.78 118.43 52.7 116.39 55.27"/>
      <polygon class="cls-67" points="121.15 50.84 125.61 50.37 123.14 48.35 121.15 50.84"/>
      <polygon class="cls-72" points="117.88 60.69 121.49 60.31 119.49 58.67 117.88 60.69"/>
      <polygon class="cls-74" points="115.53 65.89 118.39 65.58 116.8 64.28 115.53 65.89"/>
      <polygon class="cls-73" points="113.51 58.86 117.08 58.48 115.1 56.86 113.51 58.86"/>
      <polygon class="cls-71" points="110.31 54.43 115.13 53.91 112.46 51.74 110.31 54.43"/>
      <polygon class="cls-70" points="115.79 46.7 121.83 46.05 118.48 43.31 115.79 46.7"/>
      <polygon class="cls-60" points="109.67 48.56 114.97 48 112.04 45.59 109.67 48.56"/>
      <polygon class="cls-57" points="122.18 57.93 125.79 57.55 123.79 55.91 122.18 57.93"/>
      <polygon class="cls-63" points="114.77 51.66 117.67 51.35 116.07 50.03 114.77 51.66"/>
      <polygon class="cls-58" points="107.91 58.48 111.2 58.13 109.38 56.64 107.91 58.48"/>
      <polygon class="cls-34" points="118.81 69.67 120.94 69.44 119.76 68.48 118.81 69.67"/>
      <polygon class="cls-61" points="120.84 65.32 122.96 65.1 121.78 64.13 120.84 65.32"/>
      <polygon class="cls-62" points="103.02 56.42 107.59 55.93 105.06 53.87 103.02 56.42"/>
      <polygon class="cls-59" points="111.47 62.71 114.36 62.4 112.76 61.1 111.47 62.71"/>
      <polygon class="cls-36" points="116.38 40.4 120.16 40 118.07 38.28 116.38 40.4"/>
      <polygon class="cls-35" points="116.39 55.27 118.92 57.34 120.97 54.78 116.39 55.27"/>
      <polygon class="cls-31" points="121.15 50.84 123.62 52.87 125.61 50.37 121.15 50.84"/>
      <polygon class="cls-32" points="117.88 60.69 119.88 62.32 121.49 60.31 117.88 60.69"/>
      <polygon class="cls-33" points="115.53 65.89 117.11 67.19 118.39 65.58 115.53 65.89"/>
      <polygon class="cls-30" points="113.51 58.86 115.48 60.48 117.08 58.48 113.51 58.86"/>
      <polygon class="cls-28" points="110.31 54.43 112.98 56.61 115.13 53.91 110.31 54.43"/>
      <polygon class="cls-24" points="115.79 46.7 119.14 49.44 121.83 46.05 115.79 46.7"/>
      <polygon class="cls-27" points="109.67 48.56 112.6 50.96 114.97 48 109.67 48.56"/>
      <polygon class="cls-29" points="122.18 57.93 124.18 59.57 125.79 57.55 122.18 57.93"/>
      <polygon class="cls-26" points="114.77 51.66 116.38 52.98 117.67 51.35 114.77 51.66"/>
      <polygon class="cls-25" points="107.91 58.48 109.73 59.97 111.2 58.13 107.91 58.48"/>
      <polygon class="cls-53" points="118.81 69.67 119.99 70.63 120.94 69.44 118.81 69.67"/>
      <polygon class="cls-51" points="120.84 65.32 122.02 66.28 122.96 65.1 120.84 65.32"/>
      <polygon class="cls-50" points="103.02 56.42 105.55 58.49 107.59 55.93 103.02 56.42"/>
      <polygon class="cls-52" points="111.47 62.71 113.07 64.02 114.36 62.4 111.47 62.71"/>
      <polygon class="cls-47" points="116.38 40.4 118.47 42.12 120.16 40 116.38 40.4"/>
      <polygon class="cls-55" points="121.57 43.45 125.36 43.05 123.26 41.33 121.57 43.45"/>
      <polygon class="cls-54" points="121.57 43.45 123.67 45.17 125.36 43.05 121.57 43.45"/>
      <polygon class="cls-56" points="47.68 52.82 52.26 53.31 50.22 50.75 47.68 52.82"/>
      <polygon class="cls-49" points="43.03 48.41 47.5 48.89 45.51 46.39 43.03 48.41"/>
      <polygon class="cls-48" points="47.15 58.35 50.76 58.73 49.15 56.71 47.15 58.35"/>
      <polygon class="cls-41" points="50.25 63.62 53.12 63.93 51.84 62.32 50.25 63.62"/>
      <polygon class="cls-37" points="51.57 56.52 55.14 56.9 53.55 54.9 51.57 56.52"/>
      <polygon class="cls-45" points="53.51 51.96 58.33 52.48 56.18 49.78 53.51 51.96"/>
      <polygon class="cls-43" points="46.81 44.1 52.85 44.74 50.16 41.36 46.81 44.1"/>
      <polygon class="cls-38" points="53.67 46.04 58.97 46.61 56.61 43.64 53.67 46.04"/>
      <polygon class="cls-42" points="42.86 55.59 46.46 55.98 44.86 53.96 42.86 55.59"/>
      <polygon class="cls-40" points="50.97 49.39 53.87 49.71 52.58 48.08 50.97 49.39"/>
      <polygon class="cls-44" points="57.44 56.18 60.73 56.53 59.26 54.68 57.44 56.18"/>
      <polygon class="cls-39" points="47.71 67.48 49.83 67.71 48.88 66.52 47.71 67.48"/>
      <polygon class="cls-46" points="45.68 63.14 47.8 63.37 46.86 62.17 45.68 63.14"/>
      <polygon class="cls-16" points="61.06 53.98 65.62 54.47 63.59 51.91 61.06 53.98"/>
      <polygon class="cls-23" points="54.29 60.45 57.17 60.76 55.88 59.14 54.29 60.45"/>
      <polygon class="cls-21" points="48.48 38.04 52.26 38.45 50.58 36.33 48.48 38.04"/>
      <polygon class="cls-19" points="49.72 55.38 52.26 53.31 47.68 52.82 49.72 55.38"/>
      <polygon class="cls-22" points="45.02 50.91 47.5 48.89 43.03 48.41 45.02 50.91"/>
      <polygon class="cls-13" points="48.77 60.37 50.76 58.73 47.15 58.35 48.77 60.37"/>
      <polygon class="cls-20" points="51.53 65.23 53.12 63.93 50.25 63.62 51.53 65.23"/>
      <polygon class="cls-18" points="53.16 58.52 55.14 56.9 51.57 56.52 53.16 58.52"/>
      <polygon class="cls-17" points="55.67 54.65 58.33 52.48 53.51 51.96 55.67 54.65"/>
      <polygon class="cls-14" points="49.51 47.48 52.85 44.74 46.81 44.1 49.51 47.48"/>
      <polygon class="cls-5" points="56.04 49.01 58.97 46.61 53.67 46.04 56.04 49.01"/>
      <polygon class="cls-7" points="44.47 57.61 46.46 55.98 42.86 55.59 44.47 57.61"/>
      <polygon class="cls-3" points="52.26 51.02 53.87 49.71 50.97 49.39 52.26 51.02"/>
      <polygon class="cls-10" points="58.91 58.02 60.73 56.53 57.44 56.18 58.91 58.02"/>
      <polygon class="cls-4" points="48.66 68.67 49.83 67.71 47.71 67.48 48.66 68.67"/>
      <polygon class="cls-6" points="46.63 64.33 47.8 63.37 45.68 63.14 46.63 64.33"/>
      <polygon class="cls-8" points="63.09 56.54 65.62 54.47 61.06 53.98 63.09 56.54"/>
      <polygon class="cls-9" points="55.57 62.06 57.17 60.76 54.29 60.45 55.57 62.06"/>
      <polygon class="cls-2" points="50.17 40.17 52.26 38.45 48.48 38.04 50.17 40.17"/>
      <polygon class="cls-1" points="43.29 41.09 47.07 41.49 45.38 39.37 43.29 41.09"/>
      <polygon class="cls-15" points="44.97 43.21 47.07 41.49 43.29 41.09 44.97 43.21"/>
      <polygon class="cls-11" points="57.87 48.53 61 52.67 65.52 49.16 62.19 45.06 57.87 48.53"/>
      <path class="cls-12" d="M52,39.91v.05l3.26,3.99,4.09-3.28,3.22,3.94,3.81-3.08,3.55,4.31-4.21,3.35,2.73,3.26,15.83-12.84c16.3-11.92,26.13-8.57,30.16-5.99h0l-30.16-24.46-30.51,24.74,2.24,2.75-4.03,3.26Z"/>
    </g>
    <g>
      <g>
        <path class="cls-66" d="M29.36,93.32h6.62l-3.28-8.16-3.34,8.16h0ZM40.35,98.07c0,.32-.11.6-.34.82-.23.23-.51.34-.85.34-.23,0-.45-.07-.65-.19-.21-.13-.36-.31-.45-.54l-1.28-3.21h-8.23l-1.31,3.21c-.11.23-.26.41-.46.54-.2.13-.41.19-.64.19-.34,0-.62-.12-.84-.35-.22-.24-.33-.52-.33-.84,0-.15.04-.33.11-.53l6.44-15.37c.23-.53.6-.8,1.12-.8.55,0,.92.27,1.12.8l6.46,15.42c.08.2.11.37.11.5Z"/>
        <path class="cls-66" d="M65.58,81.69c.23.23.34.51.34.85v15.51c0,.34-.12.62-.36.85-.24.23-.52.34-.84.34-.34,0-.62-.12-.85-.34-.23-.23-.34-.51-.34-.85v-11.39l-5.54,11.29c-.26.4-.6.6-1.03.6-.51,0-.87-.24-1.1-.71l-5.48-10.97v11.18c0,.34-.11.62-.34.85-.23.23-.51.34-.85.34s-.62-.12-.85-.34c-.23-.23-.34-.51-.34-.85v-15.51c0-.34.11-.62.34-.85.23-.23.51-.34.85-.34.46,0,.81.21,1.05.64l6.81,13.63,6.62-13.63c.24-.43.6-.64,1.05-.64.34,0,.62.11.85.34Z"/>
        <path class="cls-66" d="M75.88,98.89c-.23-.23-.34-.51-.34-.85v-15.51c0-.35.11-.64.34-.86.23-.22.51-.33.85-.33s.64.11.86.33c.22.22.33.51.33.86v15.51c0,.34-.11.62-.33.85-.22.23-.51.34-.86.34s-.62-.11-.85-.34Z"/>
        <path class="cls-66" d="M102.13,90.29c.22.22.33.51.33.86v5.48c0,.37-.12.65-.37.85-1.6,1.33-3.47,1.99-5.61,1.99-1.63,0-3.13-.4-4.48-1.21-1.35-.81-2.42-1.92-3.2-3.32-.78-1.4-1.17-2.95-1.17-4.65s.39-3.22,1.17-4.62c.78-1.4,1.84-2.5,3.2-3.32,1.35-.82,2.85-1.23,4.48-1.23,1.16,0,2.17.15,3.01.46.85.3,1.71.81,2.58,1.51.18.14.3.28.37.42.06.15.09.32.09.52,0,.3-.11.56-.33.76-.22.2-.49.3-.79.3-.28,0-.54-.1-.78-.3-.63-.53-1.24-.92-1.83-1.16-.6-.24-1.37-.35-2.32-.35-1.19,0-2.29.31-3.29.94-1,.63-1.8,1.48-2.38,2.55-.59,1.08-.88,2.25-.88,3.52s.29,2.46.88,3.53c.59,1.07,1.38,1.92,2.38,2.54,1,.63,2.09.94,3.29.94,1.28,0,2.51-.38,3.69-1.15v-4.08h-3.16c-.35,0-.64-.1-.86-.3-.22-.2-.33-.45-.33-.76s.11-.56.33-.76c.22-.2.51-.3.86-.3h4.28c.34,0,.62.11.84.33Z"/>
        <path class="cls-66" d="M123.08,96.38c1.04-.62,1.85-1.46,2.43-2.53.58-1.07.87-2.26.87-3.57s-.29-2.5-.87-3.57c-.58-1.07-1.39-1.91-2.42-2.52-1.03-.61-2.2-.92-3.52-.92s-2.49.3-3.52.92c-1.03.61-1.84,1.45-2.42,2.52-.58,1.07-.87,2.26-.87,3.57s.29,2.5.87,3.57c.58,1.07,1.39,1.91,2.43,2.53,1.04.62,2.21.93,3.51.93s2.47-.31,3.5-.93h0ZM114.84,98.3c-1.38-.78-2.46-1.87-3.22-3.27-.76-1.4-1.14-2.98-1.14-4.75s.38-3.35,1.14-4.74c.76-1.39,1.84-2.47,3.22-3.25,1.38-.78,2.96-1.17,4.73-1.17s3.33.39,4.71,1.17c1.38.78,2.46,1.86,3.23,3.25.77,1.39,1.16,2.97,1.16,4.74s-.39,3.36-1.16,4.75c-.77,1.4-1.84,2.49-3.22,3.27-1.37.78-2.95,1.17-4.72,1.17s-3.35-.39-4.73-1.17Z"/>
        <path class="cls-66" d="M139.54,98.46c-1.21-.67-2.05-1.55-2.51-2.63-.08-.18-.11-.34-.11-.46,0-.23.08-.43.25-.61.17-.18.4-.29.69-.36.05-.01.12-.02.23-.02.24,0,.48.07.7.22.22.15.38.34.49.58.28.6.82,1.1,1.63,1.51.81.41,1.7.62,2.68.62,1.14,0,2.11-.26,2.91-.79.79-.53,1.19-1.25,1.19-2.16s-.34-1.62-1.01-2.23c-.67-.62-1.7-1-3.07-1.13-1.89-.18-3.38-.74-4.47-1.66-1.09-.92-1.63-2.08-1.63-3.47,0-.98.28-1.82.84-2.53.56-.71,1.32-1.25,2.29-1.63.97-.37,2.06-.56,3.27-.56,1.31,0,2.42.27,3.32.8.9.53,1.67,1.3,2.29,2.29.18.29.28.56.28.82,0,.34-.15.61-.46.83-.17.11-.37.16-.6.16s-.44-.06-.64-.17c-.2-.11-.35-.27-.46-.47-.41-.69-.93-1.21-1.55-1.57-.62-.36-1.4-.54-2.35-.54-1.16,0-2.1.23-2.82.68-.72.45-1.08,1.1-1.08,1.96,0,.79.32,1.46.96,1.99.64.54,1.79.89,3.44,1.05,1.83.18,3.25.74,4.26,1.66,1.01.92,1.51,2.14,1.51,3.65,0,1.1-.3,2.04-.89,2.83-.6.79-1.39,1.38-2.37,1.76-.98.39-2.04.58-3.17.58-1.48,0-2.83-.34-4.04-1.01Z"/>
      </g>
      <g>
        <path class="cls-66" d="M25.82,110.65c-.07-.07-.11-.16-.11-.27v-4.97c0-.11.04-.2.11-.27.07-.07.16-.11.26-.11s.2.04.27.11c.07.07.11.16.11.27v4.59h2.66c.11,0,.2.04.27.11.07.07.11.16.11.27s-.04.2-.11.27c-.07.07-.16.11-.27.11h-3.04c-.11,0-.2-.04-.27-.11Z"/>
        <path class="cls-66" d="M43.97,109.85c.33-.2.59-.47.78-.81.19-.34.28-.72.28-1.14s-.09-.8-.28-1.15c-.19-.34-.44-.61-.77-.81-.33-.2-.71-.29-1.13-.29s-.8.1-1.13.29c-.33.2-.59.46-.78.81-.19.34-.28.73-.28,1.15s.09.8.28,1.14c.19.34.44.61.78.81.33.2.71.3,1.12.3s.79-.1,1.12-.3h0ZM41.33,110.46c-.44-.25-.79-.6-1.03-1.05-.24-.45-.37-.95-.37-1.52s.12-1.07.37-1.52c.25-.45.59-.79,1.03-1.04.44-.25.95-.37,1.52-.37s1.07.12,1.51.37c.44.25.79.6,1.03,1.04.25.44.37.95.37,1.52s-.12,1.08-.37,1.52c-.25.45-.59.8-1.03,1.05-.44.25-.95.37-1.51.37s-1.07-.12-1.52-.37Z"/>
        <path class="cls-66" d="M61.46,107.9c.07.07.11.16.11.28v1.75c0,.12-.04.21-.12.27-.51.43-1.11.64-1.8.64-.52,0-1-.13-1.44-.39-.43-.26-.77-.61-1.02-1.06-.25-.45-.37-.95-.37-1.49s.13-1.03.37-1.48c.25-.45.59-.8,1.02-1.07.43-.26.91-.39,1.44-.39.37,0,.69.05.97.15.27.1.55.26.83.48.06.04.1.09.12.14.02.05.03.1.03.17,0,.1-.04.18-.11.24-.07.06-.15.1-.25.1-.09,0-.17-.03-.25-.1-.2-.17-.4-.29-.59-.37-.19-.08-.44-.11-.74-.11-.38,0-.73.1-1.05.3-.32.2-.58.47-.76.82-.19.34-.28.72-.28,1.13s.09.79.28,1.13c.19.34.44.61.76.81.32.2.67.3,1.05.3.41,0,.81-.12,1.18-.37v-1.31h-1.01c-.11,0-.2-.03-.28-.1-.07-.06-.11-.14-.11-.24s.03-.18.11-.24c.07-.06.16-.1.28-.1h1.37c.11,0,.2.04.27.11Z"/>
        <path class="cls-66" d="M73.76,110.65c-.07-.07-.11-.16-.11-.27v-4.97c0-.11.04-.2.11-.28.07-.07.16-.11.27-.11.11,0,.2.03.28.11.07.07.11.16.11.28v4.97c0,.11-.04.2-.11.27-.07.07-.16.11-.28.11-.11,0-.2-.04-.27-.11Z"/>
        <path class="cls-66" d="M86.68,110.51c-.39-.22-.66-.5-.8-.84-.03-.06-.04-.11-.04-.15,0-.07.03-.14.08-.2.05-.06.13-.09.22-.11.01,0,.04,0,.07,0,.08,0,.15.02.22.07.07.05.12.11.16.19.09.19.26.35.52.48.26.13.55.2.86.2.37,0,.68-.08.93-.25.25-.17.38-.4.38-.69s-.11-.52-.32-.72c-.21-.2-.54-.32-.98-.36-.61-.06-1.08-.24-1.43-.53-.35-.3-.52-.67-.52-1.11,0-.31.09-.58.27-.81.18-.23.42-.4.73-.52.31-.12.66-.18,1.05-.18.42,0,.78.09,1.06.26.29.17.53.42.73.73.06.09.09.18.09.26,0,.11-.05.2-.15.26-.05.03-.12.05-.19.05s-.14-.02-.21-.06c-.06-.04-.11-.09-.15-.15-.13-.22-.3-.39-.5-.5-.2-.11-.45-.17-.75-.17-.37,0-.67.07-.9.22-.23.14-.34.35-.34.63,0,.25.1.47.31.64.21.17.57.28,1.1.34.59.06,1.04.24,1.37.53.32.3.48.69.48,1.17,0,.35-.1.65-.29.91-.19.25-.44.44-.76.57-.32.12-.65.19-1.02.19-.47,0-.91-.11-1.3-.32Z"/>
        <path class="cls-66" d="M105.54,105.13c.07.07.1.15.1.25s-.03.19-.1.25c-.07.07-.15.1-.25.1h-1.58v4.65c0,.11-.04.2-.11.27-.07.07-.16.11-.27.11s-.2-.04-.27-.11c-.07-.07-.11-.16-.11-.27v-4.65h-1.59c-.1,0-.19-.03-.25-.1-.07-.07-.1-.15-.1-.25s.03-.19.1-.25c.07-.07.15-.1.25-.1h3.93c.1,0,.19.03.25.1Z"/>
        <path class="cls-66" d="M116.87,110.65c-.07-.07-.11-.16-.11-.27v-4.97c0-.11.04-.2.11-.28.07-.07.16-.11.27-.11.11,0,.21.03.28.11.07.07.11.16.11.28v4.97c0,.11-.03.2-.11.27-.07.07-.16.11-.28.11-.11,0-.2-.04-.27-.11Z"/>
        <path class="cls-66" d="M130.55,110.45c-.43-.26-.78-.61-1.02-1.06-.25-.45-.37-.95-.37-1.49s.13-1.03.37-1.48.59-.8,1.02-1.07c.43-.26.91-.39,1.43-.39.37,0,.69.05.97.15.27.1.55.26.83.48.06.04.1.09.12.14.02.05.03.1.03.16,0,.1-.04.18-.11.24-.07.06-.15.1-.25.1s-.18-.03-.26-.1c-.2-.17-.4-.3-.59-.37-.19-.07-.44-.11-.74-.11-.38,0-.73.1-1.05.3-.32.2-.58.47-.76.82-.19.34-.28.72-.28,1.13s.09.79.28,1.13c.19.34.44.61.76.81.32.2.67.3,1.05.3.47,0,.92-.16,1.35-.48.08-.06.16-.09.24-.09.09,0,.17.03.23.1.06.07.09.15.09.26,0,.1-.04.19-.12.27-.53.42-1.13.64-1.8.64-.52,0-1-.13-1.43-.39Z"/>
        <path class="cls-66" d="M145.92,110.51c-.39-.22-.66-.5-.8-.84-.02-.06-.04-.11-.04-.15,0-.07.03-.14.08-.2.05-.06.13-.09.22-.11.01,0,.04,0,.07,0,.08,0,.15.02.22.07.07.05.12.11.16.19.09.19.26.35.52.48.26.13.55.2.86.2.37,0,.68-.08.93-.25.26-.17.38-.4.38-.69s-.11-.52-.32-.72c-.22-.2-.54-.32-.98-.36-.61-.06-1.09-.24-1.43-.53-.35-.3-.52-.67-.52-1.11,0-.31.09-.58.27-.81.18-.23.42-.4.73-.52.31-.12.66-.18,1.05-.18.42,0,.77.09,1.06.26.29.17.53.42.73.73.06.09.09.18.09.26,0,.11-.05.2-.15.26-.05.03-.12.05-.19.05s-.14-.02-.2-.06c-.06-.04-.11-.09-.15-.15-.13-.22-.3-.39-.5-.5-.2-.11-.45-.17-.75-.17-.37,0-.67.07-.9.22-.23.14-.34.35-.34.63,0,.25.1.47.31.64.2.17.57.28,1.1.34.59.06,1.04.24,1.37.53.32.3.49.69.49,1.17,0,.35-.1.65-.29.91-.19.25-.44.44-.76.57-.32.12-.66.19-1.02.19-.47,0-.91-.11-1.3-.32Z"/>
      </g>
    </g>
  </g>
  <g class="cls-75">
    <rect class="cls-76" x="129.75" y="114.65" width="306.03" height="167.6"/>
  </g>
</svg>