<?xml version="1.0" encoding="UTF-8"?>
<svg id="Layer_1" data-name="Layer 1" xmlns="http://www.w3.org/2000/svg" xmlns:xlink="http://www.w3.org/1999/xlink" viewBox="0 0 175 120">
  <defs>
    <style>
      .cls-1 {
        fill: url(#linear-gradient);
      }

      .cls-1, .cls-2 {
        stroke-width: 0px;
      }

      .cls-2 {
        fill: #221f1f;
      }
    </style>
    <linearGradient id="linear-gradient" x1="19.78" y1="89.49" x2="155.22" y2="89.49" gradientUnits="userSpaceOnUse">
      <stop offset="0" stop-color="#7fc57c"/>
      <stop offset="1" stop-color="#01a099"/>
    </linearGradient>
  </defs>
  <g>
    <path class="cls-2" d="M119.87,34.55H55.13c-.22,0-.4-.18-.4-.4s.18-.4.4-.4h64.74c.22,0,.4.18.4.4s-.18.4-.4.4Z"/>
    <path class="cls-2" d="M73.05,41.59c-.44,0-.8-.36-.8-.8v-2.97l.45-.22c1.12-.54,1.77-1.15,1.87-1.77.13-.75-.54-1.41-.54-1.42-.46-.41-.92-.59-1.38-.53-.88.13-1.67,1.14-1.88,1.49-.23.38-.72.5-1.1.27-.38-.23-.5-.72-.27-1.1.12-.2,1.25-1.98,3.02-2.24.65-.1,1.65-.01,2.7.94.07.07,1.28,1.26,1.03,2.83-.17,1.06-.95,1.98-2.31,2.73v1.98c0,.44-.35.8-.8.8Z"/>
    <path class="cls-2" d="M103.09,41.59c-.44,0-.8-.36-.8-.8v-2.97l.45-.22c1.12-.54,1.77-1.15,1.87-1.77.13-.75-.54-1.41-.54-1.42-.46-.41-.92-.59-1.38-.53-.88.13-1.67,1.14-1.88,1.49-.23.38-.72.5-1.1.27-.38-.23-.5-.72-.27-1.1.12-.2,1.25-1.98,3.02-2.24.65-.1,1.65-.01,2.7.94.07.07,1.28,1.26,1.03,2.83-.17,1.06-.95,1.98-2.31,2.73v1.98c0,.44-.35.8-.8.8Z"/>
    <polygon class="cls-2" points="77.77 44.83 73.01 41.59 67.83 44.52 67.04 43.13 73.09 39.71 78.67 43.51 77.77 44.83"/>
    <polygon class="cls-2" points="107.97 44.96 103.13 41.59 97.52 44.72 96.75 43.33 103.22 39.71 108.88 43.65 107.97 44.96"/>
    <path class="cls-2" d="M85.49,74.67h-25.39l2.47-21.34-6.55-.15v-8.9l11.51-1.4.23.57c2,5.06,4.55,4.63,4.65,4.61l.1-.02h.12c4.3.26,5.16-4.1,5.19-4.29l.13-.7,9.03.55v9.89h-2.88l1.39,21.17ZM61.9,73.07h21.89l-1.39-21.17h2.99v-6.8l-6.15-.38c-.62,2.1-2.55,5.09-6.6,4.91-.71.1-3.83.21-6.11-5.04l-8.89,1.08v5.93l6.74.16-2.47,21.3Z"/>
    <path class="cls-2" d="M115.47,74.67h-25.39l2.47-21.14-6.5-.04-.05-9.81,11.53-.77.22.54c2,5.06,4.54,4.63,4.65,4.61l.1-.02h.12c4.3.26,5.16-4.1,5.19-4.29l.12-.68,12.06.53v9.91h-5.91l1.39,21.16ZM91.88,73.07h21.89l-1.39-21.17h6.02v-6.78l-9.18-.4c-.62,2.1-2.55,5.12-6.61,4.92-.71.1-3.84.21-6.12-5.06l-8.88.59.04,6.73,6.7.04-2.47,21.13Z"/>
    <rect class="cls-2" x="62.6" y="59.93" width="20.74" height="1.6"/>
    <rect class="cls-2" x="62.6" y="56.78" width="20.74" height="1.6"/>
    <rect class="cls-2" x="62.6" y="53.62" width="20.74" height="1.6"/>
    <path class="cls-2" d="M99.47,64.01c-.17,0-.34-.05-.48-.16-.24-.18-.36-.48-.3-.78l.56-3.02-2.63-2.1c-.25-.2-.35-.53-.27-.84.08-.31.34-.53.66-.58l3.26-.45,1.53-2.48c.14-.23.39-.38.67-.38.29.01.53.13.68.36l1.64,2.47,3.24.15c.32.01.6.22.71.52.11.3.04.64-.19.86l-2.39,2.3.59,2.77c.06.29-.04.58-.26.77s-.53.24-.8.15l-2.88-1.07-2.98,1.45c-.11.06-.23.08-.35.08ZM99.05,57.85l1.55,1.25c.23.18.34.48.29.77l-.36,1.94,1.87-.91c.2-.1.42-.11.63-.03l1.84.68-.38-1.78c-.06-.27.03-.55.23-.74l1.37-1.32-1.79-.08c-.26-.01-.49-.14-.63-.36l-1.17-1.76-1.07,1.74c-.12.2-.33.34-.57.37l-1.79.25ZM100.74,56.81h0,0Z"/>
    <path class="cls-2" d="M87.84,23.99c-2.21,0-4-1.79-4-4s1.79-4,4-4,4,1.79,4,4-1.79,4-4,4ZM87.84,17.59c-1.33,0-2.4,1.08-2.4,2.4s1.08,2.4,2.4,2.4,2.4-1.08,2.4-2.4-1.08-2.4-2.4-2.4Z"/>
    <circle class="cls-2" cx="93.15" cy="15.52" r="1.26"/>
    <circle class="cls-2" cx="95.2" cy="20.34" r="1.26"/>
    <circle class="cls-2" cx="93.03" cy="25.74" r="1.26"/>
    <circle class="cls-2" cx="82.81" cy="15.52" r="1.26"/>
    <circle class="cls-2" cx="80.76" cy="20.34" r="1.26"/>
    <circle class="cls-2" cx="82.93" cy="25.74" r="1.26"/>
    <circle class="cls-2" cx="87.8" cy="27.8" r="1.26"/>
    <circle class="cls-2" cx="87.8" cy="13.12" r="1.26"/>
  </g>
  <g>
    <path class="cls-1" d="M26.11,88.94c1.2-.54,1.74-1.61,1.74-3.29v-.58c0-2.52-1.2-3.76-4-3.76h-4.08v16.33h4.25c2.7,0,4.1-1.35,4.1-3.87v-1.33c0-1.73-.57-2.96-2.01-3.5ZM22.48,83.65h1.3c.96,0,1.38.51,1.38,1.68v.91c0,1.31-.61,1.73-1.62,1.73h-1.06v-4.31ZM25.43,93.7c0,1.21-.49,1.61-1.4,1.61h-1.55v-5.01h1.2c1.23,0,1.74.47,1.74,1.98v1.42ZM32.45,95.31h4.44v2.33h-7.15v-16.33h2.7v14ZM38.07,81.31h7.37v2.33h-4.67v4.55h3.71v2.33h-3.71v4.78h4.67v2.33h-7.37v-16.33ZM54.75,93.72c0,2.61-1.38,4.11-4.03,4.11s-4.03-1.49-4.03-4.11v-1h2.55v1.17c0,1.17.54,1.59,1.4,1.59s1.4-.42,1.4-1.59c0-3.36-5.28-3.99-5.28-8.65,0-2.61,1.35-4.11,3.98-4.11s3.98,1.49,3.98,4.11v.51h-2.55v-.68c0-1.17-.49-1.61-1.35-1.61s-1.35.44-1.35,1.61c0,3.36,5.28,3.99,5.28,8.65ZM63.93,93.72c0,2.61-1.38,4.11-4.03,4.11s-4.03-1.49-4.03-4.11v-1h2.55v1.17c0,1.17.54,1.59,1.4,1.59s1.4-.42,1.4-1.59c0-3.36-5.28-3.99-5.28-8.65,0-2.61,1.35-4.11,3.98-4.11s3.98,1.49,3.98,4.11v.51h-2.55v-.68c0-1.17-.49-1.61-1.35-1.61s-1.35.44-1.35,1.61c0,3.36,5.28,3.99,5.28,8.65ZM65.48,81.31h7.37v2.33h-4.67v4.55h3.71v2.33h-3.71v4.78h4.67v2.33h-7.37v-16.33ZM78.79,81.31h-4.27v16.33h4.27c2.7,0,4.03-1.42,4.03-4.04v-8.26c0-2.61-1.33-4.04-4.03-4.04ZM80.12,93.72c0,1.17-.52,1.59-1.38,1.59h-1.52v-11.66h1.52c.86,0,1.38.42,1.38,1.59v8.49ZM91.05,95.31h4.44v2.33h-7.15v-16.33h2.7v14ZM98.71,81.31l-2.75,16.33h2.48l.47-2.96h3.31l.47,2.96h2.73l-2.75-16.33h-3.95ZM99.25,92.46l1.3-8.26,1.3,8.26h-2.61ZM112.04,81.31h2.55v12.43c0,2.61-1.38,4.11-4.03,4.11s-4.03-1.49-4.03-4.11v-12.43h2.7v12.6c0,1.17.54,1.59,1.4,1.59s1.4-.42,1.4-1.59v-12.6h0ZM122.58,81.31h2.41v16.33h-2.78l-3.36-11.83v11.83h-2.43v-16.33h3.39l2.78,9.77v-9.77h0ZM131.2,81.31h-4.27v16.33h4.27c2.7,0,4.03-1.42,4.03-4.04v-8.26c0-2.61-1.33-4.04-4.03-4.04ZM132.53,93.72c0,1.17-.52,1.59-1.38,1.59h-1.52v-11.66h1.52c.86,0,1.38.42,1.38,1.59v8.49ZM145.05,93.14c0-1.7-.44-2.94-1.79-3.48,1.2-.54,1.77-1.63,1.77-3.31v-1.28c0-2.52-1.2-3.76-4-3.76h-4.08v16.33h2.7v-6.65h.93c1.23,0,1.77.56,1.77,2.08v2.57c0,1.33.1,1.59.25,2h2.75c-.27-.61-.3-1.19-.3-1.98v-2.52h0ZM142.33,86.94c0,1.31-.61,1.73-1.62,1.73h-1.06v-5.01h1.3c.96,0,1.38.51,1.38,1.68v1.61h0ZM155.22,81.31l-3.41,10.92v5.41h-2.7v-5.41l-3.41-10.92h2.83l2.06,7.44,2.06-7.44h2.58Z"/>
    <g>
      <path class="cls-2" d="M39.75,100.94l-2.23,7.13h-1.39l-1.58-5.4-1.68,5.4h-1.38s-2.13-7.13-2.13-7.13h1.31l1.56,5.81,1.69-5.81h1.38l1.57,5.78,1.57-5.78h1.32Z"/>
      <path class="cls-2" d="M42,101.89v2.09h2.59v.96h-2.59v2.19h2.92v.96h-4.15v-7.14h4.15v.96h-2.92Z"/>
      <path class="cls-2" d="M54.22,104.09c-.18.32-.47.58-.87.78s-.9.3-1.52.3h-1.36v2.89h-1.23v-7.13h2.59c.58,0,1.06.09,1.46.28.4.19.7.44.9.76s.3.68.3,1.08c0,.36-.09.71-.27,1.03ZM52.88,103.92c.23-.2.35-.49.35-.86,0-.78-.47-1.17-1.39-1.17h-1.36v2.33h1.36c.47,0,.82-.1,1.05-.3Z"/>
      <path class="cls-2" d="M59.57,108.07l-1.73-2.85h-.94v2.85h-1.23v-7.13h2.59c.58,0,1.06.1,1.46.29s.7.45.9.77c.2.32.3.68.3,1.08,0,.47-.14.89-.43,1.27-.28.38-.72.64-1.31.78l1.86,2.96h-1.47ZM56.9,104.29h1.36c.46,0,.81-.11,1.04-.33.23-.22.35-.51.35-.88s-.12-.66-.35-.87c-.23-.21-.58-.31-1.05-.31h-1.36v2.39h0Z"/>
      <path class="cls-2" d="M63.73,101.89v2.09h2.59v.96h-2.59v2.19h2.92v.96h-4.15v-7.14h4.15v.96h-2.92Z"/>
      <path class="cls-2" d="M69.27,107.9c-.4-.17-.72-.41-.95-.71-.23-.31-.35-.67-.35-1.08h1.32c.03.31.16.56.38.76.23.2.55.3.96.3s.76-.1.99-.29c.24-.19.36-.45.36-.75,0-.24-.07-.44-.22-.58-.15-.15-.33-.27-.55-.35-.22-.08-.52-.17-.91-.27-.49-.12-.89-.25-1.19-.37-.31-.13-.57-.32-.78-.59s-.32-.62-.32-1.07c0-.41.11-.77.32-1.08s.52-.54.91-.71.84-.25,1.35-.25c.73,0,1.32.17,1.79.52.47.35.72.82.77,1.42h-1.36c-.02-.26-.15-.48-.39-.67-.24-.18-.55-.28-.94-.28-.35,0-.64.09-.87.26-.22.17-.34.42-.34.74,0,.22.07.4.21.54.14.14.32.25.53.33s.51.17.89.27c.5.13.9.26,1.22.39.31.13.58.33.8.6s.33.63.33,1.08c0,.36-.1.7-.31,1.03s-.5.58-.9.78c-.39.19-.86.29-1.39.29-.5,0-.95-.09-1.36-.25Z"/>
      <path class="cls-2" d="M75.8,107.9c-.4-.17-.72-.41-.95-.71-.23-.31-.35-.67-.35-1.08h1.32c.03.31.16.56.38.76.23.2.55.3.96.3s.76-.1,1-.29c.24-.19.36-.45.36-.75,0-.24-.07-.44-.22-.58-.15-.15-.33-.27-.55-.35-.22-.08-.52-.17-.91-.27-.49-.12-.89-.25-1.19-.37-.31-.13-.57-.32-.78-.59s-.32-.62-.32-1.07c0-.41.11-.77.32-1.08s.52-.54.91-.71.84-.25,1.35-.25c.73,0,1.32.17,1.79.52.47.35.72.82.77,1.42h-1.36c-.02-.26-.15-.48-.39-.67-.24-.18-.55-.28-.94-.28-.35,0-.64.09-.87.26s-.34.42-.34.74c0,.22.07.4.21.54.14.14.32.25.53.33s.51.17.89.27c.5.13.9.26,1.22.39.31.13.58.33.8.6s.33.63.33,1.08c0,.36-.1.7-.31,1.03s-.5.58-.9.78c-.39.19-.86.29-1.39.29-.5,0-.96-.09-1.36-.25Z"/>
      <path class="cls-2" d="M88.88,100.94v.96h-2v6.18h-1.23v-6.18h-2.01v-.96h5.24Z"/>
      <path class="cls-2" d="M91.62,107.68c-.59-.31-1.05-.74-1.39-1.3-.34-.56-.51-1.18-.51-1.88s.17-1.32.51-1.88c.34-.55.81-.99,1.39-1.3.59-.31,1.23-.47,1.93-.47s1.35.16,1.94.47c.59.31,1.05.74,1.39,1.3.34.56.51,1.18.51,1.88s-.17,1.33-.51,1.88c-.34.56-.8.99-1.39,1.3-.59.31-1.23.47-1.94.47-.7,0-1.34-.16-1.93-.47ZM94.87,106.81c.39-.22.69-.52.91-.92.22-.4.33-.86.33-1.39s-.11-.99-.33-1.39c-.22-.4-.52-.7-.91-.91-.39-.21-.83-.32-1.33-.32s-.94.11-1.33.32c-.39.21-.69.52-.91.91-.22.4-.33.86-.33,1.39s.11.99.33,1.39c.22.4.52.71.91.92.39.22.83.32,1.33.32.5,0,.94-.11,1.33-.32Z"/>
      <path class="cls-2" d="M102.63,100.94v7.13h-1.23v-7.13h1.23Z"/>
      <path class="cls-2" d="M112.17,100.94v7.13h-1.23v-4.88l-2.29,4.88h-.85l-2.3-4.88v4.88h-1.23v-7.13h1.33l2.64,5.59,2.63-5.59h1.32Z"/>
      <path class="cls-2" d="M118.77,104.09c-.18.32-.47.58-.87.78s-.9.3-1.52.3h-1.36v2.89h-1.23v-7.13h2.59c.58,0,1.06.09,1.46.28.4.19.7.44.9.76s.3.68.3,1.08c0,.36-.09.71-.27,1.03ZM117.43,103.92c.23-.2.35-.49.35-.86,0-.78-.47-1.17-1.39-1.17h-1.36v2.33h1.36c.47,0,.82-.1,1.05-.3Z"/>
      <path class="cls-2" d="M124.12,108.07l-1.73-2.85h-.94v2.85h-1.23v-7.13h2.59c.58,0,1.06.1,1.46.29s.7.45.9.77c.2.32.3.68.3,1.08,0,.47-.14.89-.43,1.27-.28.38-.72.64-1.31.78l1.86,2.96h-1.47ZM121.45,104.29h1.36c.46,0,.81-.11,1.04-.33.23-.22.35-.51.35-.88s-.12-.66-.35-.87c-.23-.21-.58-.31-1.05-.31h-1.36v2.39h0Z"/>
      <path class="cls-2" d="M128.28,101.89v2.09h2.59v.96h-2.59v2.19h2.92v.96h-4.15v-7.14h4.15v.96h-2.92Z"/>
      <path class="cls-2" d="M133.82,107.9c-.4-.17-.72-.41-.95-.71-.23-.31-.35-.67-.35-1.08h1.32c.03.31.16.56.38.76.23.2.55.3.96.3s.76-.1,1-.29c.24-.19.36-.45.36-.75,0-.24-.07-.44-.22-.58-.15-.15-.33-.27-.55-.35-.22-.08-.52-.17-.91-.27-.49-.12-.89-.25-1.19-.37-.31-.13-.57-.32-.78-.59-.22-.27-.32-.62-.32-1.07,0-.41.11-.77.32-1.08.22-.31.52-.54.91-.71.39-.16.84-.25,1.35-.25.73,0,1.32.17,1.79.52.47.35.72.82.77,1.42h-1.36c-.02-.26-.15-.48-.39-.67-.24-.18-.55-.28-.94-.28-.35,0-.64.09-.87.26-.22.17-.34.42-.34.74,0,.22.07.4.21.54s.32.25.53.33c.22.08.51.17.89.27.5.13.9.26,1.22.39.31.13.58.33.8.6s.33.63.33,1.08c0,.36-.1.7-.31,1.03s-.5.58-.9.78c-.39.19-.86.29-1.39.29-.5,0-.95-.09-1.36-.25Z"/>
      <path class="cls-2" d="M140.35,107.9c-.4-.17-.72-.41-.95-.71-.23-.31-.35-.67-.35-1.08h1.32c.03.31.16.56.38.76.23.2.55.3.96.3s.76-.1.99-.29c.24-.19.36-.45.36-.75,0-.24-.07-.44-.22-.58-.15-.15-.33-.27-.55-.35-.22-.08-.52-.17-.91-.27-.49-.12-.89-.25-1.19-.37-.3-.13-.57-.32-.78-.59-.22-.27-.32-.62-.32-1.07,0-.41.11-.77.32-1.08s.52-.54.91-.71.84-.25,1.35-.25c.73,0,1.32.17,1.79.52.46.35.72.82.77,1.42h-1.36c-.02-.26-.15-.48-.39-.67-.24-.18-.55-.28-.94-.28-.35,0-.64.09-.87.26-.22.17-.34.42-.34.74,0,.22.07.4.21.54s.32.25.53.33c.22.08.51.17.89.27.5.13.9.26,1.22.39.31.13.58.33.8.6s.33.63.33,1.08c0,.36-.1.7-.31,1.03s-.5.58-.9.78c-.39.19-.86.29-1.39.29-.5,0-.96-.09-1.36-.25Z"/>
    </g>
  </g>
</svg>