<?xml version="1.0" encoding="UTF-8"?>
<svg id="Layer_1" data-name="Layer 1" xmlns="http://www.w3.org/2000/svg" xmlns:xlink="http://www.w3.org/1999/xlink" viewBox="0 0 175 120">
  <defs>
    <style>
      .cls-1 {
        clip-path: url(#clippath);
      }

      .cls-2, .cls-3 {
        stroke-width: 0px;
      }

      .cls-2, .cls-4 {
        fill: none;
      }

      .cls-3 {
        fill: #636566;
      }

      .cls-4 {
        stroke: #1d71b2;
        stroke-miterlimit: 10;
        stroke-width: .35px;
      }
    </style>
    <clipPath id="clippath">
      <polygon class="cls-2" points="-114.98 -129.77 -137.26 -119.28 -147.98 -114.94 -147.98 -55.82 -90.15 -55.82 -90.15 -44.54 -74.87 -44.54 -74.87 -55.82 -72.03 -55.82 -72.03 -57.23 -65.91 -57.23 -65.91 -71.76 -72.03 -71.76 -72.03 -129.77 -114.98 -129.77"/>
    </clipPath>
  </defs>
  <g class="cls-1">
    <rect class="cls-4" x="-259.96" y="-164.8" width="306.03" height="167.6"/>
  </g>
  <g>
    <path class="cls-3" d="M93.86,87.51v-8l5.35,8h1.38v-10.19h-1.29v8l-5.35-8h-1.38v10.19h1.29ZM86.03,80.34c.24-.64.42-1.29.55-1.95.16.55.4,1.26.72,2.11l1.06,2.82h-3.45l1.12-2.99ZM83.41,87.51l1.12-3.08h4.26l1.19,3.08h1.54l-4.17-10.19h-1.45l-3.91,10.19h1.43ZM79.02,85.88c-.52.44-1.16.65-1.92.65-.62,0-1.2-.16-1.73-.48-.53-.32-.93-.8-1.18-1.45-.25-.65-.38-1.4-.38-2.27,0-.67.11-1.32.32-1.96.21-.63.58-1.14,1.11-1.51.53-.38,1.18-.56,1.96-.56.68,0,1.25.17,1.7.51.45.34.79.88,1.03,1.62l1.33-.31c-.27-.94-.76-1.67-1.45-2.19-.69-.52-1.55-.78-2.57-.78-.9,0-1.72.2-2.47.61-.75.41-1.32,1.01-1.73,1.8s-.61,1.71-.61,2.78c0,.97.18,1.88.54,2.73.36.85.88,1.49,1.57,1.94.69.45,1.58.67,2.68.67s1.96-.29,2.69-.87c.73-.58,1.24-1.43,1.52-2.53l-1.35-.34c-.19.86-.54,1.5-1.06,1.94ZM66.27,80.34c.24-.64.42-1.29.55-1.95.16.55.4,1.26.72,2.11l1.06,2.82h-3.45l1.12-2.99ZM63.64,87.51l1.12-3.08h4.26l1.19,3.08h1.54l-4.17-10.19h-1.45l-3.91,10.19h1.43ZM54.43,78.45h3.22c.75,0,1.31.16,1.66.47.35.31.52.71.52,1.19,0,.33-.09.63-.27.91-.18.28-.44.48-.79.61-.35.13-.83.19-1.45.19h-2.9v-3.37ZM54.43,87.51v-4.52h1.56c.35,0,.6.02.75.05.21.05.41.14.61.27.2.13.43.36.68.68.25.32.58.79.97,1.4l1.35,2.12h1.7l-1.77-2.77c-.35-.54-.72-.99-1.12-1.35-.19-.17-.46-.34-.81-.51.98-.13,1.7-.45,2.17-.94.47-.5.7-1.1.7-1.83,0-.56-.14-1.07-.42-1.54-.28-.46-.66-.79-1.13-.97-.47-.18-1.16-.27-2.07-.27h-4.52v10.19h1.35ZM49.47,83.2c0,1.28-.21,2.14-.63,2.59-.42.45-1.13.67-2.12.67-.58,0-1.07-.11-1.47-.34-.4-.23-.68-.55-.85-.97-.16-.42-.25-1.07-.25-1.96v-5.88h-1.35v5.88c0,1.08.13,1.93.39,2.55.26.62.69,1.1,1.3,1.43.61.33,1.39.49,2.34.49s1.78-.19,2.38-.57c.6-.38,1.02-.87,1.25-1.47.23-.6.35-1.41.35-2.44v-5.88h-1.35v5.88ZM33.9,87.51v-4.8h5.29v4.8h1.35v-10.19h-1.35v4.18h-5.29v-4.18h-1.35v10.19h1.35Z"/>
    <path class="cls-3" d="M118.8,98.56v-.58h-2.42v-4.34h-.65v4.92h3.07ZM114.85,98.56v-.58h-3.02v-1.67h2.72v-.58h-2.72v-1.51h2.91v-.58h-3.56v4.92h3.67ZM106.05,98.56v-4.19l1.42,4.19h.59l1.43-4.12v4.12h.63v-4.92h-.88l-1.18,3.42c-.12.35-.21.61-.26.79-.05-.16-.13-.4-.23-.73l-1.16-3.48h-.98v4.92h.63ZM102.28,95.09c.11-.31.2-.62.27-.94.08.27.19.61.35,1.02l.51,1.36h-1.67l.54-1.44ZM101.01,98.56l.54-1.49h2.06l.57,1.49h.74l-2.01-4.92h-.7l-1.89,4.92h.69ZM95.8,100c.19,0,.36-.05.5-.14.14-.09.26-.24.37-.44.08-.15.19-.42.34-.81l1.36-3.62h-.6l-.76,2.08c-.1.26-.18.53-.25.81-.08-.29-.16-.56-.26-.83l-.74-2.06h-.65l1.35,3.57c-.02.06-.04.11-.05.15-.09.24-.15.39-.18.45-.05.08-.12.14-.2.19-.08.04-.19.07-.32.07-.1,0-.21-.02-.35-.05l.07.57c.14.05.27.07.39.07ZM92.46,95.75c.19-.23.42-.34.68-.34s.48.11.67.33c.18.22.28.56.28,1.03s-.1.8-.29,1.02c-.19.23-.42.34-.68.34-.32,0-.58-.16-.77-.47-.12-.19-.17-.5-.17-.93s.1-.77.29-.99ZM92.18,98.11c.24.35.57.53.99.53s.79-.17,1.09-.5c.3-.33.45-.81.45-1.42,0-.26-.04-.5-.11-.72-.07-.23-.17-.42-.3-.58s-.29-.28-.48-.37c-.2-.09-.4-.13-.62-.13-.4,0-.72.16-.98.48v-1.75h-.6v4.92h.56v-.45Z"/>
    <path class="cls-3" d="M78.12,19.81c0-.32-.13-.62-.37-.84-.21-.19-.48-.29-.76-.29-.12,0-.25.02-.37.06-.02,0-.03.02-.04.03-.01,0-.02.01-.03.03-3.26,5.42-5.52,11.37-6.67,17.59h0c-.06.28-.12.56-.17.84-.02.09-.03.19-.05.28-.04.19-.07.38-.1.57-.02.11-.04.22-.05.33-.03.18-.06.35-.08.53-.02.12-.03.23-.05.35-.02.18-.05.35-.07.53-.01.11-.03.23-.04.34-.02.19-.04.37-.06.56,0,.1-.02.2-.03.3-.02.25-.04.49-.06.74,0,.04,0,.08,0,.12-.02.25-.03.49-.04.74l-1.51-.25-1.04-.24-.65-.16-1.64-.5-.13-.05-1.29-.5-1.01-.45-.66-.31c.04-.11.08-.21.12-.32.01-.04.03-.08.04-.12.09-.26.18-.53.26-.8.02-.06.03-.11.05-.17.08-.25.15-.51.21-.76.03,0,.05-.03.05-.06l.42-2.09h0s.35-2.12.35-2.12h0s.25-2.15.25-2.15h0s.12-2.12.12-2.12h0s.05-2.15.05-2.15h0s-.05-2.15-.05-2.15h0s-.17-2.15-.17-2.15h0s-.27-2.12-.27-2.12h0s-.35-2.12-.35-2.12h0s-.47-2.1-.47-2.1h0s-.57-2.07-.57-2.07h0s-.65-2.05-.65-2.05h0s-.75-2-.75-2c0,0,0,0,0-.01,0,0,0,0,0-.01,0,0,0,0,0,0,0,0,0,0,0,0,0,0,0,0,0,0,0,0,0,0-.01,0,0,0,0,0,0,0,0,0,0,0-.01,0,0,0,0,0,0,0,0,0,0,0-.01,0,0,0,0,0,0,0,0,0,0,0-.01,0,0,0,0,0,0,0,0,0,0,0-.01,0,0,0,0,0,0,0,0,0,0,0,0,0s0,0,0,0c0,0,0,0,0,0,0,0,0,0,0,0,0,0,0,0,0,0,0,0,0,0-.01,0,0,0,0,0,0,0,0,0,0,0,0,.01,0,0,0,0,0,0,0,0,0,0,0,0,0,0,0,0,0,0,0,0,0,0,0,.01,0,0,0,0,0,0,0,0,0,0,0,0,0,0,0,0,0,0,0,0,0,0,0,.01,0,0,0,0,0,.01l.62,2.02.52,2.07.45,2.07.35,2.09.27,2.09.17,2.12.07,2.12v2.14l-.1,2.12-.17,2.12-.29,2.04s-.01.02-.01.03c-.04.23-.08.46-.12.68-.01.07-.03.13-.04.2-.04.17-.07.34-.11.51-.01.06-.03.12-.04.18-.05.23-.11.45-.17.68,0,.01,0,.03-.01.04-.06.21-.12.42-.18.63-.02.06-.04.12-.06.18-.06.18-.11.35-.17.53-.02.05-.03.1-.05.15-.08.22-.16.44-.24.66-.01.03-.02.06-.04.09-.07.19-.15.37-.22.56-.02.06-.05.12-.07.18-.08.18-.15.35-.23.53,0,0,0,.01,0,.02-4.2-2.5-7.5-6.27-9.41-10.77,0-.03-.02-.06-.02-.09,0-.04-.05-.07-.09-.06-.01,0-.02.01-.03.02-.03.02-.04.05-.03.08l.14.51s.01.05.02.07l.04.14c.02.08.04.16.07.24l.08.29h0s.09.25.09.25c.02.06.04.12.06.18.03.09.06.19.1.28.02.05.03.09.05.14l.13.37h0s.5,1.18.5,1.18h0s.6,1.15.6,1.15h0s.3.49.3.49c.01.02.03.05.04.07.02.03.04.06.05.09l.28.45h0s.72,1.05.72,1.05h0s.82,1,.82,1h0s.87.93.87.93h0s.95.88.95.88h0s1.02.8,1.02.8h0s.5.35.5.35c0,0,0,0,0,0l.54.37h0s1.03.63,1.03.63c-.52.99-1.12,1.95-1.78,2.86l-.47.62c-.19.24-.38.48-.59.72l-.22.25c-1.04,1.19-2.21,2.27-3.5,3.23l-.11.08c-.12.09-.25.18-.37.27-.03,0-.05.01-.07.04-.1.17-.14.35-.14.54,0,.23.07.46.22.65.21.28.53.43.87.43.08,0,.16,0,.24-.03.02,0,.03,0,.05-.01.24-.16.47-.34.7-.51.07-.05.14-.11.21-.16.16-.13.33-.26.49-.39.07-.06.15-.12.22-.18.17-.15.35-.3.52-.45.05-.04.09-.08.14-.12.21-.19.42-.39.62-.59.05-.05.1-.11.16-.16.15-.15.3-.31.45-.47.06-.07.13-.14.19-.21.14-.15.28-.31.41-.47.05-.06.11-.13.16-.19.18-.22.36-.44.54-.67.02-.03.04-.05.06-.08.15-.2.3-.41.45-.62.05-.07.1-.15.15-.22.12-.17.23-.34.34-.51.05-.08.1-.16.15-.23.12-.2.25-.4.36-.6.03-.05.06-.09.08-.14.14-.25.28-.5.41-.75.04-.07.07-.14.1-.21.1-.19.19-.38.28-.57.04-.09.08-.18.12-.27.02-.05.04-.09.06-.14,1.5.9,3.16,1.46,4.87,1.66.45.05.91.08,1.37.08h0c.19,0,.38,0,.56-.01.06,0,.12,0,.19-.01.13,0,.25-.01.38-.03.08,0,.15-.02.23-.03.11-.01.22-.02.34-.04.09-.01.18-.03.27-.04.06,0,.12-.02.18-.03-.01.31-.02.62-.02.92,0,.02.01.04.03.06-.07.9-.11,1.79-.11,2.69,0,2.8.34,5.6,1.02,8.32,0,.01,0,.02,0,.03.09.26.18.52.27.77.03.08.06.15.09.23.07.18.13.36.2.54.04.1.08.19.12.29.06.16.13.31.19.47.04.1.09.2.14.3.07.15.13.29.2.44.05.1.1.21.15.31.07.14.13.28.2.42.05.11.11.21.16.31.07.14.14.27.21.41.06.11.12.21.18.32.07.13.14.26.22.4.06.11.12.21.19.32.08.13.15.26.23.38.06.11.13.21.2.32.08.12.16.25.24.37.07.11.14.21.21.31.08.12.16.24.24.36.07.1.15.21.22.31.08.12.17.24.25.35.08.1.15.2.23.31.09.12.17.23.26.34.08.1.16.2.24.3.09.11.18.23.27.34.08.1.17.2.25.29.09.11.19.22.28.33.08.1.17.19.26.29.1.11.19.21.29.32.09.09.18.19.27.28.06.06.12.13.18.19.01.02.02.03.04.05,0,0,.01,0,.02.01.04.04.08.09.12.13.03.03.08.03.11,0,.03-.03.03-.08,0-.11-.06-.06-.12-.13-.18-.19-3.67-4.57-5.84-10.16-6.22-16.01,0-.01.02-.03.02-.05l-.12-2.14v-2.14l.1-2.14.22-2.12.35-2.14.42-2.09.55-2.07.67-2.04h0s.7-2.19.7-2.19l.77-2.14.85-2.12.95-2.09,1.02-2.04,1.1-2.02s.01-.03,0-.05c.02-.08.03-.16.03-.25Z"/>
    <path class="cls-3" d="M140.73,108.42v-1.46c0-.34.07-.58.21-.7.14-.12.31-.18.5-.18.12,0,.23.03.32.08.09.05.15.13.19.22s.05.23.05.41v1.63h.45v-1.65c0-.21,0-.36-.03-.44-.03-.13-.07-.24-.14-.34-.07-.09-.17-.17-.3-.23-.14-.06-.28-.09-.45-.09-.37,0-.66.15-.85.44v-.38h-.41v2.68h.45ZM137.98,106.26c.14-.14.32-.21.53-.21.23,0,.42.09.56.26.09.11.15.28.17.51h-1.5c.02-.23.09-.42.24-.56ZM138.95,107.97c-.12.09-.26.13-.43.13-.22,0-.41-.08-.56-.23-.15-.16-.23-.38-.25-.68h2c0-.05,0-.09,0-.12,0-.44-.11-.79-.34-1.03-.23-.24-.52-.37-.88-.37s-.67.12-.9.37-.35.6-.35,1.05.11.77.34,1.01.54.36.93.36c.31,0,.57-.08.77-.23.2-.15.34-.36.41-.64l-.47-.06c-.07.19-.16.33-.28.42ZM133.55,108.42v-1.39c0-.24.02-.43.07-.56.05-.13.13-.23.24-.3.11-.07.23-.1.35-.1.17,0,.29.05.36.15.07.1.11.25.11.45v1.74h.45v-1.56c0-.28.06-.48.19-.6s.28-.19.47-.19c.1,0,.19.02.27.07.08.05.13.11.16.19s.04.21.04.39v1.69h.45v-1.84c0-.31-.07-.53-.21-.68-.14-.15-.35-.22-.61-.22-.34,0-.62.16-.83.47-.05-.15-.14-.26-.27-.35-.13-.08-.29-.12-.49-.12-.18,0-.34.04-.48.12-.14.08-.25.19-.34.32v-.38h-.41v2.68h.45ZM130.75,106.31c.15-.17.34-.25.56-.25s.41.09.56.26c.15.17.23.42.23.75,0,.35-.07.61-.22.78-.15.17-.34.26-.56.26s-.42-.09-.56-.26c-.15-.17-.22-.43-.22-.77s.07-.6.22-.77ZM130.41,108.12c.23.24.53.36.91.36.23,0,.45-.05.65-.16.2-.11.35-.26.45-.46.1-.2.16-.47.16-.81,0-.43-.12-.76-.35-1-.23-.24-.53-.36-.9-.36-.33,0-.61.1-.84.3-.28.24-.41.61-.41,1.1,0,.45.12.8.35,1.04ZM127.47,108.42l.54-2.06.1.46.43,1.6h.47l.84-2.68h-.44l-.46,1.55-.15.52-.13-.51-.4-1.55h-.47l-.43,1.57c-.09.34-.13.52-.14.55l-.16-.57-.43-1.55h-.47l.82,2.68h.47ZM123.1,107.95c-.15.08-.29.13-.42.13-.22,0-.39-.08-.51-.24-.12-.16-.18-.32-.18-.47,0-.12.04-.25.13-.37s.25-.26.5-.41l.83,1.03c-.09.13-.2.24-.35.33ZM122.61,105.82c-.06-.07-.1-.14-.13-.2-.03-.06-.04-.12-.04-.18,0-.11.04-.21.12-.29.08-.08.18-.12.31-.12s.22.04.3.12c.08.08.12.18.12.31,0,.11-.03.2-.09.29-.06.09-.19.19-.38.31l-.2-.23ZM124.3,108.5l.31-.36c-.22-.15-.41-.34-.58-.57.14-.21.25-.47.33-.8l-.47-.1c-.04.2-.1.37-.18.51l-.66-.84c.47-.25.7-.55.7-.9,0-.22-.08-.4-.24-.56s-.37-.23-.62-.23-.48.08-.66.25c-.17.16-.26.36-.26.58,0,.11.03.23.08.35.06.12.17.27.33.47-.29.14-.51.3-.66.49-.15.18-.22.39-.22.62,0,.26.09.49.27.7.22.26.52.38.9.38.2,0,.4-.04.57-.12s.34-.21.49-.37c.2.23.38.4.57.52ZM117.77,108.42v-1.46c0-.34.07-.58.21-.7.14-.12.31-.18.5-.18.12,0,.23.03.32.08.09.05.15.13.19.22.04.09.05.23.05.41v1.63h.45v-1.65c0-.21,0-.36-.03-.44-.03-.13-.07-.24-.14-.34-.07-.09-.17-.17-.3-.23-.14-.06-.28-.09-.45-.09-.37,0-.66.15-.85.44v-.38h-.41v2.68h.45ZM115.02,106.26c.14-.14.32-.21.53-.21.23,0,.42.09.56.26.09.11.15.28.17.51h-1.5c.02-.23.09-.42.24-.56ZM116,107.97c-.12.09-.26.13-.43.13-.22,0-.41-.08-.56-.23-.15-.16-.23-.38-.25-.68h2c0-.05,0-.09,0-.12,0-.44-.11-.79-.34-1.03-.23-.24-.52-.37-.88-.37s-.67.12-.9.37-.35.6-.35,1.05.11.77.34,1.01.54.36.93.36c.31,0,.57-.08.77-.23.2-.15.34-.36.41-.64l-.47-.06c-.07.19-.16.33-.28.42ZM110.59,108.42v-1.39c0-.24.02-.43.07-.56.05-.13.13-.23.24-.3.11-.07.23-.1.35-.1.17,0,.29.05.36.15.07.1.11.25.11.45v1.74h.45v-1.56c0-.28.06-.48.19-.6.12-.13.28-.19.47-.19.1,0,.2.02.27.07.08.05.13.11.16.19s.04.21.04.39v1.69h.45v-1.84c0-.31-.07-.53-.21-.68-.14-.15-.35-.22-.61-.22-.34,0-.62.16-.83.47-.05-.15-.14-.26-.27-.35-.13-.08-.29-.12-.49-.12-.18,0-.34.04-.48.12s-.25.19-.34.32v-.38h-.41v2.68h.45ZM107.43,108.42v-1.4c0-.19.03-.37.08-.53.03-.11.09-.19.17-.25s.17-.09.27-.09c.11,0,.22.03.33.1l.16-.42c-.16-.1-.31-.15-.47-.15-.11,0-.2.03-.29.09-.09.06-.18.19-.29.38v-.41h-.41v2.68h.45ZM104.64,106.31c.15-.17.34-.25.56-.25s.41.09.56.26c.15.17.23.42.23.75,0,.35-.07.61-.22.78s-.34.26-.56.26-.42-.09-.56-.26c-.15-.17-.22-.43-.22-.77s.07-.6.22-.77ZM104.29,108.12c.23.24.53.36.91.36.23,0,.45-.05.65-.16.2-.11.35-.26.45-.46.1-.2.16-.47.16-.81,0-.43-.12-.76-.35-1-.23-.24-.53-.36-.9-.36-.33,0-.61.1-.84.3-.28.24-.41.61-.41,1.1,0,.45.12.8.35,1.04ZM103.24,108.42v-2.32h.52v-.35h-.52v-.25c0-.16.03-.27.09-.33s.15-.09.29-.09c.08,0,.17,0,.27.03l.07-.4c-.15-.03-.3-.05-.42-.05-.2,0-.35.04-.46.11-.11.07-.19.17-.23.29-.03.09-.05.22-.05.4v.28h-.4v.35h.4v2.32h.45ZM100.08,107.24c0,.2-.02.35-.07.45-.06.13-.16.24-.3.31-.14.08-.29.11-.47.11s-.31-.04-.4-.12c-.09-.08-.14-.18-.14-.3,0-.08.02-.15.06-.22.04-.06.1-.11.18-.15.08-.03.21-.06.4-.09.33-.05.58-.1.74-.17v.17ZM100.21,108.42h.47c-.06-.1-.1-.21-.11-.32-.02-.11-.03-.38-.03-.8v-.61c0-.2,0-.34-.02-.42-.03-.12-.07-.23-.14-.31-.07-.08-.17-.15-.32-.2s-.33-.08-.56-.08-.43.03-.61.09-.31.15-.4.27-.16.27-.2.46l.44.06c.05-.19.12-.32.23-.4.1-.07.26-.11.47-.11.23,0,.4.05.52.15.09.08.13.21.13.39,0,.02,0,.06,0,.12-.17.06-.44.11-.81.16-.18.02-.31.04-.4.07-.12.03-.23.08-.33.15-.1.07-.17.15-.23.26-.06.11-.09.23-.09.36,0,.22.08.41.24.55.16.14.38.22.68.22.18,0,.35-.03.5-.09.16-.06.32-.16.49-.3.01.13.04.24.09.33ZM96.14,106.3c.15-.18.32-.27.51-.27s.36.08.5.25c.14.17.21.43.21.77,0,.36-.07.62-.22.79-.14.17-.32.26-.52.26s-.37-.08-.51-.25c-.14-.16-.21-.42-.21-.76s.07-.61.22-.79ZM95.96,109.44v-1.3c.08.1.18.18.3.24.12.06.26.1.41.1.21,0,.4-.06.59-.18s.33-.28.43-.5c.1-.22.15-.47.15-.74,0-.26-.04-.49-.13-.7-.09-.21-.22-.38-.4-.5-.17-.12-.38-.18-.61-.18-.17,0-.32.03-.45.1s-.23.17-.33.31v-.35h-.41v3.7h.45ZM92.15,107.89c.13.2.31.34.53.44.23.1.51.15.84.15.26,0,.5-.05.71-.15.21-.1.37-.23.49-.41.11-.17.17-.36.17-.56s-.05-.37-.15-.53c-.1-.15-.26-.28-.48-.38-.15-.07-.42-.15-.82-.24-.4-.09-.64-.18-.74-.26-.1-.09-.14-.2-.14-.33,0-.15.07-.28.2-.39.14-.11.35-.16.65-.16s.5.06.64.18c.15.12.23.3.26.53l.47-.04c0-.22-.07-.41-.18-.58-.11-.17-.27-.3-.48-.39-.21-.09-.45-.13-.72-.13-.25,0-.47.04-.68.13-.2.08-.36.21-.46.37-.11.16-.16.34-.16.52,0,.17.04.32.13.46s.22.25.39.34c.14.07.37.15.71.23.34.08.56.14.66.18.15.06.27.13.33.22.07.09.1.19.1.3s-.03.22-.1.32c-.07.1-.18.17-.32.23-.14.06-.31.08-.49.08-.21,0-.4-.04-.57-.11-.17-.07-.29-.17-.37-.29s-.13-.27-.15-.46l-.46.04c0,.25.07.47.2.66ZM88.26,106.3c.14-.16.3-.25.51-.25s.38.09.52.26c.14.17.21.44.21.81,0,.33-.07.58-.21.74-.14.16-.31.24-.51.24s-.37-.08-.51-.25-.22-.43-.22-.77.07-.61.2-.78ZM89.91,108.42v-3.7h-.45v1.33c-.08-.11-.18-.2-.31-.27-.13-.07-.27-.1-.43-.1-.22,0-.42.06-.6.17s-.31.28-.4.5-.13.46-.13.73.05.52.15.73.24.38.42.49c.18.12.38.18.59.18.33,0,.58-.13.75-.4v.34h.42ZM85.33,108.42v-1.46c0-.34.07-.58.21-.7.14-.12.31-.18.5-.18.12,0,.23.03.32.08.09.05.15.13.19.22s.05.23.05.41v1.63h.45v-1.65c0-.21,0-.36-.03-.44-.03-.13-.07-.24-.14-.34-.07-.09-.17-.17-.3-.23-.14-.06-.28-.09-.45-.09-.37,0-.66.15-.85.44v-.38h-.41v2.68h.45ZM83.72,107.24c0,.2-.02.35-.07.45-.06.13-.16.24-.3.31s-.29.11-.47.11-.31-.04-.4-.12-.14-.18-.14-.3c0-.08.02-.15.06-.22.04-.06.1-.11.18-.15.08-.03.21-.06.4-.09.33-.05.58-.1.74-.17v.17ZM83.85,108.42h.47c-.06-.1-.1-.21-.11-.32-.02-.11-.03-.38-.03-.8v-.61c0-.2,0-.34-.02-.42-.03-.12-.07-.23-.14-.31-.07-.08-.17-.15-.32-.2s-.33-.08-.56-.08-.43.03-.61.09-.31.15-.4.27-.16.27-.2.46l.44.06c.05-.19.12-.32.23-.4.1-.07.26-.11.47-.11.23,0,.4.05.52.15.09.08.13.21.13.39,0,.02,0,.06,0,.12-.17.06-.44.11-.81.16-.18.02-.31.04-.4.07-.12.03-.23.08-.33.15-.1.07-.17.15-.23.26-.06.11-.09.23-.09.36,0,.22.08.41.24.55.16.14.38.22.68.22.18,0,.35-.03.5-.09.16-.06.32-.16.49-.3.01.13.04.24.09.33ZM78.26,109.5c.14,0,.27-.03.37-.1.1-.07.2-.18.28-.33.06-.11.15-.31.25-.61l1.02-2.72h-.45l-.57,1.56c-.07.2-.13.4-.19.61-.06-.22-.12-.42-.19-.62l-.56-1.55h-.49l1.02,2.68s-.03.09-.04.11c-.06.18-.11.29-.14.34-.04.06-.09.11-.15.14-.06.03-.14.05-.24.05-.07,0-.16-.01-.26-.04l.05.43c.11.04.21.06.29.06ZM77.35,108.03c-.07,0-.12-.01-.16-.03s-.06-.05-.08-.09c-.02-.04-.02-.12-.02-.25v-1.57h.46v-.35h-.46v-.94l-.45.27v.66h-.33v.35h.33v1.54c0,.27.02.45.06.54.04.08.1.15.19.21.09.05.22.08.38.08.1,0,.22-.01.34-.04l-.07-.4c-.08.01-.15.02-.2.02ZM75.85,108.42v-2.68h-.45v1.43c0,.23-.02.4-.07.52-.05.12-.13.22-.25.28-.12.07-.25.1-.38.1s-.25-.03-.34-.1c-.09-.07-.15-.16-.18-.28-.02-.08-.03-.24-.03-.48v-1.49h-.45v1.66c0,.19,0,.33.03.42.03.13.07.24.14.34s.17.17.31.23c.14.06.28.09.44.09.36,0,.64-.15.85-.45v.39h.41ZM72.52,107.24c0,.2-.02.35-.07.45-.06.13-.16.24-.3.31s-.29.11-.47.11-.31-.04-.4-.12-.14-.18-.14-.3c0-.08.02-.15.06-.22.04-.06.1-.11.18-.15.08-.03.21-.06.4-.09.33-.05.58-.1.74-.17v.17ZM72.65,108.42h.47c-.06-.1-.1-.21-.11-.32-.02-.11-.03-.38-.03-.8v-.61c0-.2,0-.34-.02-.42-.03-.12-.07-.23-.14-.31-.07-.08-.17-.15-.32-.2-.14-.05-.33-.08-.56-.08s-.43.03-.61.09-.31.15-.4.27c-.09.12-.16.27-.2.46l.44.06c.05-.19.12-.32.23-.4.1-.07.26-.11.47-.11.23,0,.4.05.52.15.09.08.13.21.13.39,0,.02,0,.06,0,.12-.17.06-.44.11-.81.16-.18.02-.31.04-.4.07-.12.03-.23.08-.33.15s-.17.15-.23.26c-.06.11-.09.23-.09.36,0,.22.08.41.24.55.16.14.38.22.68.22.18,0,.35-.03.5-.09.16-.06.32-.16.49-.3.01.13.04.24.09.33ZM68.52,106.26c.14-.14.32-.21.53-.21.23,0,.42.09.56.26.09.11.15.28.17.51h-1.5c.02-.23.09-.42.24-.56ZM69.5,107.97c-.12.09-.26.13-.43.13-.22,0-.41-.08-.56-.23-.15-.16-.23-.38-.25-.68h2c0-.05,0-.09,0-.12,0-.44-.11-.79-.34-1.03-.23-.24-.52-.37-.88-.37s-.67.12-.9.37-.35.6-.35,1.05.11.77.34,1.01.54.36.93.36c.31,0,.57-.08.77-.23.2-.15.34-.36.41-.64l-.47-.06c-.07.19-.16.33-.28.42ZM65.02,106.71h.85c.24,0,.42.02.54.06s.22.11.29.21c.07.1.11.22.11.36,0,.12-.02.22-.07.31-.05.09-.11.16-.19.21-.08.05-.17.08-.28.1-.06.01-.17.02-.33.02h-.92v-1.27ZM65.02,105.16h.74c.27,0,.45.02.56.05.11.03.19.1.25.19.06.09.09.2.09.32,0,.13-.03.24-.09.32-.06.09-.16.15-.28.18-.09.03-.25.04-.47.04h-.8v-1.12ZM65.95,108.42c.24,0,.43-.02.6-.06.16-.04.3-.1.4-.18s.2-.2.27-.34c.07-.15.11-.31.11-.48,0-.22-.06-.4-.18-.56-.12-.16-.29-.27-.52-.34.17-.09.3-.2.39-.34s.13-.29.13-.45c0-.17-.05-.33-.15-.49-.1-.16-.23-.27-.4-.35-.17-.07-.4-.11-.68-.11h-1.39v3.7h1.41Z"/>
  </g>
</svg>