<?xml version="1.0" encoding="UTF-8"?>
<svg id="Layer_1" data-name="Layer 1" xmlns="http://www.w3.org/2000/svg" viewBox="0 0 175 120">
  <defs>
    <style>
      .cls-1 {
        fill: #8c181b;
      }

      .cls-1, .cls-2, .cls-3 {
        stroke-width: 0px;
      }

      .cls-2 {
        fill: #231f20;
      }

      .cls-3 {
        fill: #67696b;
      }
    </style>
  </defs>
  <rect class="cls-1" x="81.64" y="39.56" width="13.95" height="4.41" rx="1.45" ry="1.45"/>
  <path class="cls-2" d="M35.86,55.49c-1.63-1.6-4.02-2.68-7.09-3.21l-4.18-.73c-2.1-.37-3.68-1.05-4.7-2-1-.94-1.51-2.27-1.51-3.97,0-1.93.66-3.47,1.97-4.58,1.32-1.12,3.21-1.69,5.61-1.69,4.27,0,6.69,1.78,7.38,5.46.14.75.81,1.29,1.59,1.29h.98c.49,0,.95-.22,1.26-.6.31-.39.43-.89.33-1.37-.56-2.61-1.73-4.64-3.46-6.04-2.08-1.69-4.78-2.54-8.03-2.54-3.53,0-6.42.92-8.59,2.73-2.18,1.82-3.28,4.39-3.28,7.63,0,2.81.82,5.03,2.43,6.59,1.6,1.55,3.92,2.58,6.88,3.08l4.08.68c2.2.37,3.87,1.05,4.94,2.03,1.05.95,1.59,2.4,1.59,4.3,0,2.1-.68,3.72-2.02,4.82-1.36,1.11-3.39,1.67-6.03,1.67-4.7,0-7.37-1.91-8.15-5.83-.15-.77-.83-1.34-1.6-1.34h-1.03c-.48,0-.94.21-1.25.59-.31.38-.44.87-.35,1.35.51,2.7,1.66,4.84,3.42,6.36,2.1,1.81,5.02,2.73,8.69,2.73,3.88,0,6.98-.93,9.21-2.75,2.25-1.84,3.39-4.47,3.39-7.81,0-2.92-.84-5.21-2.48-6.83Z"/>
  <path class="cls-2" d="M100.74,56.16c-.7-1.63-1.68-3.08-2.9-4.3-1.22-1.22-2.66-2.2-4.28-2.9-1.63-.71-3.4-1.07-5.27-1.07-2.14,0-4.07.42-5.72,1.25-1.61.81-3,1.85-4.13,3.1-.61.59-.71,1.21-.68,1.64.03.52.21.99.52,1.35.27.34.58.59.92.73l.06.02c.09.03.18.05.27.07.1.02.22.03.34.03.52,0,1.03-.19,1.5-.57l.09-.08.07-.1c.36-.46.79-.89,1.28-1.26.5-.38,1.06-.71,1.65-.98.59-.27,1.22-.48,1.86-.62,1.82-.39,3.7-.23,5.31.42,1.04.42,1.97,1.01,2.76,1.74.79.74,1.44,1.62,1.93,2.61.32.66.56,1.35.71,2.07h-20.13c-.63,0-1.17.23-1.57.66-.38.41-.58.93-.58,1.51,0,1.85.36,3.61,1.08,5.24.71,1.62,1.69,3.06,2.9,4.27,1.21,1.21,2.65,2.18,4.27,2.89,1.63.71,3.4,1.07,5.27,1.07s3.63-.36,5.27-1.07c1.62-.7,3.06-1.68,4.28-2.9,1.22-1.22,2.2-2.66,2.9-4.28.71-1.63,1.07-3.4,1.07-5.27s-.36-3.64-1.07-5.28ZM79.33,63.35h17.81c-.14.76-.38,1.48-.71,2.16-.49,1.01-1.15,1.91-1.95,2.66-.8.75-1.74,1.35-2.8,1.78-1.05.43-2.21.64-3.42.64s-2.34-.22-3.4-.64c-1.06-.43-2.02-1.03-2.84-1.78-.81-.74-1.48-1.64-1.97-2.65-.33-.68-.58-1.41-.72-2.17Z"/>
  <path class="cls-2" d="M126.44,66.51c-.24.14-.46.29-.68.49-.83.79-1.77,1.38-2.79,1.75-1.04.38-2.14.58-3.29.58-1.24,0-2.4-.25-3.46-.74-1.08-.5-2.02-1.17-2.8-2-.79-.83-1.42-1.81-1.87-2.91-.45-1.09-.68-2.24-.68-3.42,0-.04,0-.08,0-.12,0-.04,0-.08,0-.12,0-1.21.24-2.37.7-3.46.47-1.09,1.12-2.06,1.93-2.88.81-.82,1.77-1.48,2.85-1.96,1.06-.48,2.22-.72,3.44-.72,1.13,0,2.21.19,3.23.56,1,.37,1.93.94,2.77,1.71.2.17.42.33.65.46.79.44,1.8.33,2.47-.29.49-.43.75-.99.75-1.63,0-.42-.13-1.05-.72-1.65-1.13-1.15-2.52-2.04-4.13-2.64-1.58-.59-3.25-.89-4.95-.89-1.82,0-3.57.35-5.2,1.05-1.61.69-3.04,1.66-4.25,2.86-1.2,1.2-2.17,2.63-2.86,4.23-.7,1.61-1.05,3.37-1.05,5.21,0,.05,0,.1,0,.15v.19c0,1.83.35,3.58,1.04,5.2.69,1.61,1.66,3.04,2.86,4.25,1.2,1.21,2.63,2.17,4.25,2.86,1.62.7,3.37,1.05,5.2,1.05,1.71,0,3.38-.32,4.97-.95,1.6-.63,2.98-1.54,4.11-2.68.6-.6.72-1.23.72-1.65,0-.62-.24-1.18-.7-1.6-.72-.66-1.7-.77-2.52-.3Z"/>
  <path class="cls-2" d="M160.31,54.86c-.71-1.62-1.69-3.06-2.9-4.27-1.21-1.21-2.65-2.18-4.27-2.89-1.63-.71-3.4-1.07-5.27-1.07s-3.63.36-5.27,1.07c-1.62.7-3.06,1.68-4.28,2.9-1.22,1.22-2.2,2.66-2.9,4.28-.71,1.63-1.07,3.4-1.07,5.27s.36,3.64,1.07,5.28c.7,1.63,1.68,3.08,2.9,4.3,1.22,1.22,2.66,2.2,4.28,2.9,1.63.71,3.4,1.07,5.27,1.07,2.14,0,4.07-.42,5.72-1.25,1.61-.81,3-1.85,4.13-3.1.61-.59.71-1.21.68-1.64-.03-.52-.21-.99-.52-1.35-.27-.34-.58-.59-.92-.73l-.06-.02c-.09-.03-.18-.05-.27-.07-.1-.02-.22-.03-.34-.03-.52,0-1.03.19-1.5.57l-.09.08-.07.1c-.36.46-.79.89-1.28,1.26-.5.38-1.06.71-1.65.98-.59.27-1.22.48-1.86.62-1.82.39-3.7.23-5.31-.42-1.04-.42-1.97-1.01-2.76-1.74-.79-.74-1.44-1.62-1.93-2.61-.32-.66-.56-1.35-.71-2.07h20.13c.63,0,1.17-.23,1.57-.66.38-.41.58-.93.58-1.51,0-1.85-.36-3.61-1.08-5.24ZM139.73,56.09c.49-1.01,1.15-1.91,1.95-2.66.8-.75,1.74-1.35,2.8-1.78,1.05-.43,2.21-.64,3.42-.64s2.34.22,3.4.64c1.06.43,2.02,1.03,2.84,1.78.81.74,1.48,1.64,1.97,2.65.33.68.58,1.41.72,2.17h-17.81c.14-.76.38-1.48.71-2.16Z"/>
  <path class="cls-2" d="M69.01,54.9c-.7-1.64-1.66-3.09-2.88-4.31-1.21-1.21-2.65-2.18-4.29-2.89-1.64-.71-3.42-1.07-5.28-1.07s-3.61.36-5.25,1.07c-1.63.7-3.08,1.67-4.3,2.88-1.22,1.21-2.2,2.66-2.9,4.3-.71,1.65-1.06,3.43-1.06,5.29v19.74c0,.61.22,1.22.66,1.65s.97.65,1.56.65c.63,0,1.18-.24,1.58-.69.37-.42.56-.95.56-1.53v-19.82c0-1.26.24-2.47.71-3.58.48-1.12,1.13-2.1,1.95-2.93.81-.82,1.79-1.48,2.91-1.96,1.11-.47,2.31-.71,3.58-.71s2.51.24,3.61.71c1.11.48,2.08,1.14,2.9,1.96.82.82,1.47,1.81,1.94,2.92.47,1.11.7,2.32.7,3.58s-.24,2.41-.7,3.51c-.47,1.11-1.12,2.1-1.94,2.93-.82.83-1.79,1.5-2.9,1.98-1.1.48-2.31.72-3.61.72s-2.48-.24-3.58-.72c-1.11-.48-2.08-1.15-2.9-1.98,0,0-.01-.01-.02-.02-.91-.92-2.48-.42-2.68.86l-.23,1.47c-.09.58.14,1.15.61,1.51.8.61,1.81,1.3,2.49,1.66.94.51,1.96.91,3.02,1.18,1.07.27,2.18.41,3.31.41,1.86,0,3.64-.36,5.28-1.07,1.63-.7,3.08-1.68,4.29-2.9,1.21-1.22,2.18-2.67,2.87-4.3.7-1.64,1.05-3.4,1.05-5.25s-.35-3.63-1.05-5.28Z"/>
  <g>
    <path class="cls-3" d="M52.98,84.39h-1.03v-7.81h1.03v7.81Z"/>
    <path class="cls-3" d="M55.87,78.59l.03.73c.44-.56,1.02-.84,1.74-.84,1.23,0,1.84.69,1.85,2.07v3.83h-.99v-3.84c0-.42-.1-.73-.29-.93-.19-.2-.48-.3-.88-.3-.32,0-.6.09-.85.26s-.43.4-.57.68v4.13h-.99v-5.8h.94Z"/>
    <path class="cls-3" d="M62.55,77.19v1.4h1.08v.77h-1.08v3.6c0,.23.05.41.14.52s.26.17.49.17c.11,0,.27-.02.47-.06v.8c-.26.07-.51.11-.76.11-.44,0-.78-.13-1-.4-.23-.27-.34-.65-.34-1.14v-3.6h-1.06v-.77h1.06v-1.4h.99Z"/>
    <path class="cls-3" d="M67.42,84.5c-.79,0-1.43-.26-1.92-.77-.49-.52-.74-1.21-.74-2.07v-.18c0-.58.11-1.09.33-1.54.22-.45.53-.81.92-1.06.39-.26.82-.38,1.28-.38.75,0,1.34.25,1.76.74.42.5.63,1.21.63,2.13v.41h-3.93c.01.57.18,1.03.5,1.39.32.35.73.53,1.22.53.35,0,.65-.07.89-.21.24-.14.46-.33.64-.57l.61.47c-.49.75-1.22,1.12-2.19,1.12ZM67.3,79.3c-.4,0-.74.15-1.01.44-.27.29-.44.7-.5,1.22h2.91v-.08c-.03-.5-.16-.89-.41-1.17-.24-.28-.57-.42-.99-.42Z"/>
    <path class="cls-3" d="M73.85,79.48c-.15-.03-.31-.04-.49-.04-.65,0-1.09.28-1.32.83v4.12h-.99v-5.8h.97l.02.67c.33-.52.79-.78,1.38-.78.19,0,.34.03.44.08v.92Z"/>
    <path class="cls-3" d="M74.99,77.06c0-.16.05-.3.15-.41s.24-.17.44-.17.34.06.44.17.15.25.15.41-.05.29-.15.4-.25.16-.44.16-.34-.05-.44-.16-.15-.24-.15-.4ZM76.06,84.39h-.99v-5.8h.99v5.8Z"/>
    <path class="cls-3" d="M77.61,81.44c0-.57.11-1.08.34-1.53.22-.45.53-.8.93-1.05.4-.25.85-.37,1.36-.37.79,0,1.43.27,1.92.82.49.55.73,1.27.73,2.18v.07c0,.56-.11,1.07-.32,1.52-.22.45-.53.8-.93,1.05-.4.25-.86.38-1.39.38-.79,0-1.42-.27-1.91-.82-.49-.55-.73-1.27-.73-2.17v-.07ZM78.6,81.56c0,.64.15,1.16.45,1.55s.7.58,1.2.58.9-.2,1.2-.59c.3-.39.44-.95.44-1.66,0-.64-.15-1.15-.45-1.55-.3-.39-.7-.59-1.2-.59s-.88.2-1.18.58-.45.95-.45,1.67Z"/>
    <path class="cls-3" d="M87.15,79.48c-.15-.03-.31-.04-.49-.04-.65,0-1.09.28-1.32.83v4.12h-.99v-5.8h.97l.02.67c.33-.52.79-.78,1.38-.78.19,0,.34.03.44.08v.92Z"/>
    <path class="cls-3" d="M91.66,82.86c0-.27-.1-.48-.3-.62-.2-.15-.55-.28-1.06-.38s-.9-.24-1.2-.39c-.3-.15-.51-.33-.65-.54-.14-.21-.21-.45-.21-.74,0-.48.2-.88.6-1.21.4-.33.92-.49,1.54-.49.66,0,1.19.17,1.6.51.41.34.61.77.61,1.3h-1c0-.27-.12-.51-.35-.7-.23-.2-.52-.29-.87-.29s-.64.08-.85.24-.31.36-.31.62c0,.24.09.42.28.54s.53.24,1.03.35c.49.11.9.24,1.2.4.31.15.54.34.68.56.15.22.22.48.22.79,0,.52-.21.93-.62,1.25-.41.31-.95.47-1.61.47-.46,0-.88-.08-1.23-.25s-.64-.39-.84-.69c-.2-.3-.3-.61-.3-.96h.99c.02.33.15.6.4.79.25.2.58.29.98.29.38,0,.68-.08.9-.23.23-.15.34-.35.34-.61Z"/>
    <path class="cls-3" d="M96.9,82.3c0-.37.1-.72.31-1.03.21-.31.61-.68,1.2-1.1-.35-.42-.58-.76-.7-1.02s-.18-.51-.18-.77c0-.59.18-1.06.53-1.39s.83-.5,1.43-.5c.54,0,.98.16,1.33.47.35.31.53.71.53,1.18,0,.31-.08.61-.24.87-.16.27-.44.55-.83.84l-.57.42,1.74,2.07c.24-.46.36-.98.36-1.55h.9c0,.91-.22,1.67-.66,2.27l1.12,1.33h-1.19l-.52-.62c-.26.24-.57.42-.93.54-.36.12-.72.18-1.09.18-.76,0-1.37-.2-1.83-.61s-.69-.94-.69-1.6ZM99.42,83.69c.53,0,1.01-.2,1.44-.6l-1.9-2.28-.18.13c-.6.44-.9.89-.9,1.36,0,.42.14.76.41,1.01.27.25.65.38,1.12.38ZM98.52,78.35c0,.34.21.77.63,1.29l.63-.45c.24-.17.41-.33.5-.49.09-.16.13-.34.13-.57,0-.24-.09-.44-.27-.6-.18-.16-.4-.24-.68-.24-.29,0-.53.1-.7.3-.17.2-.26.45-.26.75Z"/>
    <path class="cls-3" d="M111.65,80.79h-3.38v2.77h3.93v.84h-4.96v-7.81h4.91v.84h-3.88v2.51h3.38v.84Z"/>
    <path class="cls-3" d="M115.49,80.71l1.29-2.12h1.16l-1.9,2.87,1.96,2.93h-1.15l-1.34-2.17-1.34,2.17h-1.15l1.96-2.93-1.9-2.87h1.15l1.27,2.12Z"/>
    <path class="cls-3" d="M120.2,79.3c.44-.54,1.01-.81,1.72-.81,1.23,0,1.84.69,1.85,2.07v3.83h-.99v-3.84c0-.42-.1-.73-.29-.93-.19-.2-.48-.3-.88-.3-.32,0-.6.09-.85.26s-.43.4-.57.68v4.13h-.99v-8.23h.99v3.14Z"/>
    <path class="cls-3" d="M125.48,77.06c0-.16.05-.3.15-.41s.24-.17.44-.17.34.06.44.17.15.25.15.41-.05.29-.15.4-.25.16-.44.16-.34-.05-.44-.16-.15-.24-.15-.4ZM126.55,84.39h-.99v-5.8h.99v5.8Z"/>
    <path class="cls-3" d="M133.27,81.56c0,.89-.2,1.6-.61,2.14-.41.54-.95.81-1.64.81-.73,0-1.3-.26-1.7-.78l-.05.67h-.91v-8.23h.99v3.07c.4-.5.95-.74,1.66-.74s1.26.27,1.66.8c.4.53.6,1.26.6,2.19v.09ZM132.28,81.45c0-.68-.13-1.2-.39-1.57s-.64-.55-1.13-.55c-.65,0-1.12.3-1.41.91v2.51c.3.61.78.91,1.42.91.48,0,.85-.18,1.11-.55s.4-.92.4-1.66Z"/>
    <path class="cls-3" d="M134.74,77.06c0-.16.05-.3.15-.41s.24-.17.44-.17.34.06.44.17.15.25.15.41-.05.29-.15.4-.25.16-.44.16-.34-.05-.44-.16-.15-.24-.15-.4ZM135.82,84.39h-.99v-5.8h.99v5.8Z"/>
    <path class="cls-3" d="M138.97,77.19v1.4h1.08v.77h-1.08v3.6c0,.23.05.41.14.52s.26.17.49.17c.11,0,.27-.02.47-.06v.8c-.26.07-.51.11-.76.11-.44,0-.78-.13-1-.4-.23-.27-.34-.65-.34-1.14v-3.6h-1.06v-.77h1.06v-1.4h.99Z"/>
    <path class="cls-3" d="M141.43,77.06c0-.16.05-.3.15-.41s.24-.17.44-.17.34.06.44.17.15.25.15.41-.05.29-.15.4-.25.16-.44.16-.34-.05-.44-.16-.15-.24-.15-.4ZM142.51,84.39h-.99v-5.8h.99v5.8Z"/>
    <path class="cls-3" d="M144.05,81.44c0-.57.11-1.08.34-1.53.22-.45.53-.8.93-1.05.4-.25.85-.37,1.36-.37.79,0,1.43.27,1.92.82.49.55.73,1.27.73,2.18v.07c0,.56-.11,1.07-.32,1.52-.22.45-.53.8-.93,1.05-.4.25-.86.38-1.39.38-.79,0-1.42-.27-1.91-.82-.49-.55-.73-1.27-.73-2.17v-.07ZM145.05,81.56c0,.64.15,1.16.45,1.55.3.39.7.58,1.2.58s.9-.2,1.2-.59c.3-.39.45-.95.45-1.66,0-.64-.15-1.15-.45-1.55-.3-.39-.7-.59-1.2-.59s-.88.2-1.18.58-.45.95-.45,1.67Z"/>
    <path class="cls-3" d="M151.73,78.59l.03.73c.44-.56,1.02-.84,1.74-.84,1.23,0,1.84.69,1.85,2.07v3.83h-.99v-3.84c0-.42-.1-.73-.29-.93-.19-.2-.48-.3-.88-.3-.32,0-.6.09-.85.26s-.43.4-.57.68v4.13h-.99v-5.8h.94Z"/>
    <path class="cls-3" d="M160.45,82.86c0-.27-.1-.48-.3-.62-.2-.15-.55-.28-1.06-.38-.5-.11-.9-.24-1.2-.39-.3-.15-.51-.33-.65-.54-.14-.21-.21-.45-.21-.74,0-.48.2-.88.6-1.21.4-.33.92-.49,1.54-.49.66,0,1.19.17,1.6.51.41.34.61.77.61,1.3h-1c0-.27-.11-.51-.35-.7-.23-.2-.52-.29-.87-.29s-.64.08-.85.24-.31.36-.31.62c0,.24.09.42.28.54s.53.24,1.03.35c.49.11.9.24,1.2.4.31.15.54.34.68.56.15.22.22.48.22.79,0,.52-.21.93-.62,1.25-.41.31-.95.47-1.61.47-.46,0-.88-.08-1.23-.25s-.64-.39-.84-.69c-.2-.3-.3-.61-.3-.96h.99c.02.33.15.6.4.79.25.2.58.29.98.29.38,0,.68-.08.9-.23.23-.15.34-.35.34-.61Z"/>
  </g>
</svg>