<?xml version="1.0" encoding="UTF-8"?>
<svg id="Layer_1" data-name="Layer 1" xmlns="http://www.w3.org/2000/svg" xmlns:xlink="http://www.w3.org/1999/xlink" viewBox="0 0 175 120">
  <defs>
    <style>
      .cls-1 {
        clip-path: url(#clippath);
      }

      .cls-2, .cls-3, .cls-4 {
        stroke-width: 0px;
      }

      .cls-2, .cls-5 {
        fill: none;
      }

      .cls-3 {
        fill: #f37721;
      }

      .cls-4 {
        fill: #1a4073;
      }

      .cls-5 {
        stroke: #1d71b2;
        stroke-miterlimit: 10;
        stroke-width: .35px;
      }
    </style>
    <clipPath id="clippath">
      <polygon class="cls-2" points="79.72 149.67 57.45 160.17 46.72 164.5 46.72 223.63 104.55 223.63 104.55 234.9 119.83 234.9 119.83 223.63 122.68 223.63 122.68 222.22 128.8 222.22 128.8 207.68 122.68 207.68 122.68 149.67 79.72 149.67"/>
    </clipPath>
  </defs>
  <g>
    <path class="cls-4" d="M155.06,71.6h-.99l2.3,5.68-.41,1.08c-.12.32-.26.57-.42.74-.16.18-.38.26-.66.26-.23,0-.43-.04-.6-.13l-.08.77c.12.04.24.06.37.07.12,0,.25.01.37.01.49,0,.86-.13,1.12-.38.26-.26.47-.6.64-1.03l2.8-7.07h-.96l-1.71,4.63-1.76-4.63Z"/>
    <path class="cls-4" d="M153.78,71.6h-1.62v-1.58h-.79v1.58h-1.19v.72h1.19v3.53c0,.31.04.56.13.75.09.19.2.34.34.45.14.11.29.19.45.23.16.04.32.06.47.06.42,0,.77-.07,1.07-.2l-.04-.73c-.12.06-.25.12-.4.16-.14.04-.28.06-.42.06-.12,0-.23-.01-.33-.04-.1-.03-.19-.08-.26-.15-.07-.07-.13-.17-.17-.31-.04-.13-.06-.3-.06-.51v-3.3h1.62v-.72Z"/>
    <rect class="cls-4" x="148.3" y="71.6" width=".79" height="5.6"/>
    <path class="cls-4" d="M149.09,69.03c-.12-.11-.25-.16-.39-.16s-.28.05-.4.16c-.12.11-.18.25-.18.41s.06.31.18.41c.12.11.25.16.4.16s.28-.05.39-.16c.12-.11.18-.25.18-.41s-.06-.3-.18-.41"/>
    <path class="cls-4" d="M141.53,71.6c.02.21.03.43.04.66.01.23.02.42.02.57v4.37h.79v-2.87c0-.51.08-.91.24-1.2.16-.29.34-.5.54-.65.2-.14.4-.23.58-.26.18-.03.3-.05.34-.05.58,0,.98.17,1.2.5.22.33.32.81.32,1.43v3.1h.79v-3.56c0-.7-.17-1.24-.52-1.62-.34-.38-.87-.57-1.59-.57-.18,0-.37.03-.56.08-.19.05-.37.12-.53.22-.17.09-.32.2-.46.33-.14.13-.25.27-.34.42h-.02c0-.15,0-.3,0-.45,0-.15-.01-.3-.03-.45h-.81Z"/>
    <path class="cls-4" d="M139.91,77.2c-.02-.21-.03-.43-.04-.66-.01-.23-.02-.42-.02-.57v-4.37h-.79v2.87c0,.51-.08.91-.24,1.2-.16.29-.34.5-.54.65-.2.14-.4.23-.58.26-.18.03-.3.05-.34.05-.3,0-.54-.04-.74-.13-.2-.08-.35-.21-.47-.37-.12-.16-.2-.37-.25-.61-.05-.24-.07-.51-.07-.83v-3.1h-.79v3.56c0,.7.17,1.24.52,1.62.34.38.87.57,1.59.57.18,0,.37-.03.56-.08.19-.05.37-.12.53-.22.17-.09.32-.2.46-.33.14-.13.25-.27.34-.42h.02c0,.15,0,.3,0,.45,0,.15.01.3.03.45h.81Z"/>
    <path class="cls-4" d="M124.96,77.2h.79v-2.87c0-.51.07-.91.22-1.2.15-.29.31-.5.5-.65.18-.14.36-.23.53-.26.17-.03.28-.05.33-.05.54,0,.91.15,1.11.46.2.3.3.74.3,1.3v3.27h.79v-2.98c0-.26.03-.52.08-.76.06-.24.15-.46.27-.65.12-.19.29-.34.49-.46.2-.12.45-.17.74-.17.54,0,.91.15,1.11.46.2.3.3.74.3,1.3v3.27h.79v-3.56c0-.7-.17-1.24-.52-1.62-.34-.38-.87-.57-1.59-.57-.38,0-.74.1-1.08.31-.35.21-.6.49-.76.85-.1-.24-.21-.44-.35-.59-.14-.15-.29-.27-.45-.35-.16-.08-.33-.14-.5-.17-.17-.03-.33-.05-.48-.05-.34,0-.67.08-1.01.25-.34.17-.6.41-.8.74h-.02v-.85h-.85c.02.21.03.41.04.62.01.21.02.41.02.62v4.36Z"/>
    <path class="cls-4" d="M114.88,77.2h.79v-2.87c0-.51.07-.91.22-1.2.15-.29.31-.5.5-.65.18-.14.36-.23.53-.26.17-.03.28-.05.33-.05.54,0,.91.15,1.11.46.2.3.3.74.3,1.3v3.27h.79v-2.98c0-.26.03-.52.08-.76.06-.24.15-.46.27-.65.12-.19.29-.34.49-.46.2-.12.45-.17.74-.17.54,0,.91.15,1.11.46.2.3.3.74.3,1.3v3.27h.79v-3.56c0-.7-.17-1.24-.52-1.62-.34-.38-.87-.57-1.59-.57-.38,0-.74.1-1.08.31-.35.21-.6.49-.76.85-.1-.24-.21-.44-.35-.59-.14-.15-.29-.27-.45-.35-.16-.08-.33-.14-.5-.17-.17-.03-.33-.05-.48-.05-.34,0-.67.08-1.01.25-.34.17-.6.41-.8.74h-.02v-.85h-.85c.02.21.03.41.04.62.01.21.02.41.02.62v4.36Z"/>
    <path class="cls-4" d="M113.34,73.22c-.15-.36-.35-.67-.62-.93-.26-.26-.58-.47-.94-.62-.36-.15-.77-.22-1.2-.22s-.83.07-1.19.22c-.36.15-.68.35-.94.62-.26.26-.47.58-.62.93-.15.36-.22.75-.22,1.17s.07.81.22,1.17c.15.36.35.67.62.93.26.26.58.47.94.62.36.15.76.22,1.19.22s.84-.07,1.2-.22c.36-.15.68-.35.94-.62.26-.26.47-.58.62-.93.15-.36.22-.75.22-1.17s-.07-.81-.22-1.17M112.55,75.27c-.1.27-.24.51-.43.71-.18.2-.4.36-.66.47-.26.12-.55.17-.88.17s-.62-.06-.88-.17c-.26-.12-.48-.27-.66-.47-.18-.2-.32-.43-.42-.71-.1-.27-.15-.56-.15-.87s.05-.6.15-.87c.1-.27.24-.51.42-.71.18-.2.4-.36.66-.47.26-.12.55-.17.88-.17s.62.06.88.17c.26.12.48.27.66.47.18.2.33.44.43.71.1.27.15.56.15.87s-.05.6-.15.87"/>
    <path class="cls-4" d="M106.98,72.42c-.28-.33-.59-.57-.95-.72-.35-.16-.72-.24-1.1-.25-.45,0-.87.06-1.23.21-.37.15-.68.35-.94.62-.26.26-.46.58-.59.94-.14.36-.2.76-.2,1.18s.07.82.2,1.18c.14.36.33.68.59.94.26.26.57.47.94.62.37.15.78.22,1.23.21.38,0,.75-.09,1.1-.25.35-.16.67-.4.95-.72l-.65-.49c-.14.21-.33.38-.57.53-.24.14-.52.22-.83.22-.33,0-.62-.04-.88-.16-.26-.11-.48-.27-.66-.47-.18-.2-.32-.44-.42-.71s-.14-.57-.14-.89.05-.62.14-.89.24-.51.42-.71c.18-.2.4-.36.66-.47s.55-.16.88-.16c.31,0,.59.07.83.22.24.14.43.32.57.53l.65-.49Z"/>
    <polygon class="cls-3" points="117 64.66 120.1 64.66 120.1 39.93 117 39.93 117 50.75 104.62 50.75 104.62 39.93 101.54 39.93 101.54 64.66 104.62 64.66 104.62 53.84 117 53.84 117 64.66"/>
    <path class="cls-3" d="M136.18,62.53c1.62-1.62,2.43-3.49,2.43-5.6v-10.82h-3.08v10.82c0,1.38-.49,2.54-1.47,3.5-.97.97-2.13,1.45-3.48,1.45s-2.53-.48-3.5-1.45c-.97-.97-1.45-2.13-1.45-3.5v-10.82h-3.1v10.82c0,2.11.81,3.98,2.43,5.6,1.61,1.61,3.48,2.41,5.62,2.41s3.99-.8,5.6-2.41"/>
    <path class="cls-3" d="M152.4,46.07c-.71-.17-1.44-.27-2.22-.27-2.71,0-4.97,1.03-6.8,3.1v-8.97h-3.1v15.46c0,2.63.94,4.89,2.81,6.76,1.87,1.86,4.13,2.79,6.78,2.79s4.89-.93,6.76-2.79c1.63-1.61,2.56-3.52,2.77-5.72-.6.19-1.25.29-1.91.29-.42,0-.84-.04-1.24-.12-.23,1.27-.83,2.4-1.81,3.38-1.27,1.27-2.79,1.9-4.57,1.9s-3.31-.63-4.59-1.9c-1.27-1.28-1.9-2.81-1.9-4.59s.63-3.3,1.9-4.57,2.81-1.92,4.59-1.92c.41,0,.81.04,1.19.11.2-1.1.67-2.1,1.34-2.94"/>
    <path class="cls-4" d="M157.48,55.02c2.68,0,4.85-2.17,4.85-4.85s-2.17-4.85-4.85-4.85-4.85,2.17-4.85,4.85,2.17,4.85,4.85,4.85"/>
    <path class="cls-4" d="M55.97,64.66v-11.44c0-2.01-.69-3.75-2.07-5.22-1.38-1.47-3.06-2.21-5.04-2.21-2.33,0-4.19.89-5.56,2.66-1.4-1.78-3.26-2.66-5.56-2.66-1.97,0-3.65.74-5.06,2.21-1.38,1.47-2.07,3.21-2.07,5.22v11.44h3.1v-11.44c0-1.17.39-2.18,1.16-3.03.77-.87,1.73-1.3,2.86-1.3,1.25,0,2.22.41,2.92,1.21.72.82,1.09,1.86,1.09,3.12v11.44h3.1v-11.44c0-1.26.36-2.29,1.09-3.12.73-.81,1.7-1.21,2.94-1.21,1.12,0,2.08.43,2.86,1.3.77.85,1.16,1.86,1.16,3.03v11.44h3.08Z"/>
    <path class="cls-4" d="M73.96,48.63c-1.87-1.89-4.13-2.83-6.78-2.83s-4.89.94-6.78,2.83c-1.87,1.87-2.81,4.13-2.81,6.76s.9,4.83,2.7,6.72c1.81,1.88,4.01,2.83,6.58,2.83,2.72,0,4.99-1.02,6.81-3.06v2.79h3.08v-9.28c0-2.63-.94-4.89-2.81-6.76M71.77,59.97c-1.29,1.27-2.82,1.9-4.59,1.9s-3.29-.63-4.57-1.9c-1.28-1.28-1.92-2.81-1.92-4.59s.64-3.3,1.92-4.57c1.28-1.28,2.8-1.92,4.57-1.92s3.3.64,4.59,1.92c1.28,1.27,1.92,2.79,1.92,4.57s-.64,3.3-1.92,4.59"/>
    <path class="cls-4" d="M87.6,48.9v-3.1c-2.13,0-4,.81-5.62,2.43s-2.43,3.49-2.43,5.62v10.82h3.1v-10.82c0-1.36.48-2.53,1.45-3.5.97-.97,2.13-1.45,3.5-1.45"/>
    <polygon class="cls-4" points="92.97 39.93 92.97 46.11 89.89 46.11 89.89 49.21 92.97 49.21 92.97 64.66 96.07 64.66 96.07 49.21 99.17 49.21 99.17 46.11 96.07 46.11 96.07 39.93 92.97 39.93"/>
    <path class="cls-4" d="M12.67,60.09v.02s.05.12.05.12c.29.64.71,1.25,1.24,1.82.54.57,1.17,1.07,1.88,1.48.71.42,1.51.75,2.37.99.86.24,1.76.36,2.68.36,1.14,0,2.22-.19,3.23-.55,1.01-.37,1.9-.88,2.66-1.53s1.36-1.44,1.79-2.34c.43-.91.65-1.91.65-2.98s-.21-1.94-.61-2.68c-.41-.73-.95-1.37-1.62-1.91-.67-.53-1.45-.98-2.31-1.33-.87-.35-1.77-.66-2.68-.92-.68-.16-1.38-.33-2.06-.52-.68-.18-1.29-.41-1.82-.68-.53-.28-.97-.62-1.29-1.03-.33-.41-.49-.93-.49-1.56,0-.57.13-1.08.39-1.52.26-.44.61-.81,1.04-1.12.43-.3.93-.54,1.48-.7.55-.16,1.12-.24,1.7-.24.53,0,1.02.04,1.45.12.43.08.84.2,1.23.37.38.17.76.39,1.1.66.18.14.39.32.64.55l2.65-1.41c-.33-.55-.74-1.04-1.22-1.46-.5-.44-1.08-.81-1.7-1.11-.63-.3-1.3-.52-2-.67-.71-.15-1.44-.23-2.19-.23-.98,0-1.95.16-2.88.49s-1.76.78-2.49,1.38c-.72.59-1.31,1.31-1.74,2.14-.43.83-.65,1.77-.65,2.78s.21,1.89.62,2.64c.41.75.99,1.4,1.71,1.95.72.55,1.56,1.01,2.51,1.37.95.36,1.97.65,3.03.87.6.17,1.2.35,1.79.54.59.19,1.13.43,1.61.71.48.28.87.64,1.17,1.07.3.43.45.97.45,1.62s-.15,1.25-.44,1.75c-.29.5-.68.93-1.16,1.27-.47.34-1.02.6-1.62.77-.59.17-1.2.26-1.8.26-1.2,0-2.3-.26-3.25-.77-.96-.51-1.71-1.23-2.23-2.13l-.12-.13-.03-.04-2.72,1.45Z"/>
  </g>
  <g class="cls-1">
    <rect class="cls-5" x="-65.25" y="114.65" width="306.03" height="167.6"/>
  </g>
</svg>