<?xml version="1.0" encoding="UTF-8"?>
<svg id="Layer_1" data-name="Layer 1" xmlns="http://www.w3.org/2000/svg" viewBox="0 0 175 120">
  <defs>
    <style>
      .cls-1 {
        fill: #847770;
      }

      .cls-1, .cls-2 {
        stroke-width: 0px;
      }

      .cls-2 {
        fill: #908c13;
      }
    </style>
  </defs>
  <path class="cls-2" d="M14.46,53.59c.64-2.47,1.89-4.47,3.76-5.99,1.87-1.52,4.26-2.28,7.16-2.28,1.87,0,3.53.39,4.98,1.17,1.45.78,2.66,1.82,3.63,3.13.97,1.31,1.71,2.83,2.23,4.56.51,1.73.77,3.55.77,5.46,0,2.05-.26,3.94-.8,5.67-.53,1.73-1.3,3.22-2.31,4.48-1.01,1.25-2.23,2.23-3.66,2.94-1.43.71-3.05,1.06-4.85,1.06-2.79,0-5.13-.76-7.02-2.28-1.89-1.52-3.19-3.5-3.9-5.94h-.11v7.63h-1.06v-37.85h1.06v18.23h.11ZM15.09,64.67c.49,1.59,1.21,2.99,2.15,4.19.94,1.2,2.09,2.16,3.47,2.86,1.38.71,2.93,1.06,4.66,1.06s3.31-.35,4.64-1.06c1.32-.71,2.42-1.67,3.29-2.89.86-1.22,1.52-2.62,1.96-4.21.44-1.59.66-3.25.66-4.98,0-1.59-.2-3.17-.61-4.74-.41-1.57-1.03-2.99-1.88-4.24-.85-1.25-1.93-2.28-3.26-3.07-1.32-.79-2.92-1.19-4.8-1.19-3.32,0-5.99,1.14-8,3.42-2.02,2.28-3.02,5.56-3.02,9.83,0,1.77.25,3.45.74,5.04"/>
  <path class="cls-2" d="M41.17,50.81c.46-1.11,1.12-2.07,1.99-2.89.86-.81,1.92-1.45,3.18-1.91,1.25-.46,2.73-.69,4.43-.69,1.2,0,2.34.12,3.42.37,1.08.25,2.02.68,2.84,1.3.81.62,1.47,1.42,1.96,2.41.49.99.76,2.23.79,3.71v17.33c0,.53.11.92.32,1.17.21.25.49.42.85.51.35.09.73.12,1.14.1.41-.02.79-.04,1.14-.08v1.06h-1.59c-.78,0-1.46-.19-2.04-.56-.58-.37-.87-1.07-.87-2.09v-3.55h-.11c-.28.88-.73,1.73-1.35,2.54-.62.81-1.4,1.54-2.33,2.17-.94.64-2.01,1.14-3.21,1.51-1.2.37-2.51.56-3.92.56-2.76,0-4.97-.61-6.63-1.83-1.66-1.22-2.49-3.05-2.49-5.49,0-1.7.27-3.06.82-4.08.55-1.03,1.26-1.83,2.15-2.41.88-.58,1.89-.99,3.02-1.22,1.13-.23,2.26-.38,3.39-.45,1.87-.11,3.48-.2,4.82-.29,1.34-.09,2.45-.27,3.31-.53.86-.26,1.5-.67,1.91-1.22.41-.55.61-1.33.61-2.36,0-.81-.07-1.66-.21-2.55-.14-.88-.49-1.7-1.03-2.44-.55-.74-1.35-1.35-2.41-1.83-1.06-.48-2.49-.72-4.29-.72-2.86,0-5.09.7-6.68,2.09-1.59,1.4-2.47,3.37-2.65,5.91h-1.06c.07-1.27.34-2.47.8-3.58M58.61,57.19c-.35.5-.9.88-1.64,1.14-.74.26-1.59.47-2.54.61-.95.14-1.99.23-3.1.26-1.11.04-2.2.09-3.26.16-1.06.07-2.09.2-3.1.4-1.01.2-1.9.55-2.68,1.06-.78.51-1.4,1.22-1.86,2.12-.46.9-.69,2.08-.69,3.53,0,.78.13,1.55.4,2.3.27.76.72,1.43,1.35,2.02.64.58,1.46,1.06,2.47,1.43,1.01.37,2.25.56,3.74.56,1.77,0,3.34-.3,4.72-.9,1.38-.6,2.54-1.39,3.47-2.36.94-.97,1.64-2.09,2.12-3.37.48-1.27.71-2.58.71-3.92v-5.04h-.11Z"/>
  <rect class="cls-2" x="63.27" y="35.35" width="1.06" height="37.85"/>
  <path class="cls-2" d="M68.25,50.81c.46-1.11,1.12-2.07,1.99-2.89.87-.81,1.93-1.45,3.18-1.91,1.25-.46,2.73-.69,4.43-.69,1.2,0,2.34.12,3.42.37,1.08.25,2.02.68,2.84,1.3.81.62,1.47,1.42,1.96,2.41.49.99.76,2.23.8,3.71v17.33c0,.53.11.92.32,1.17.21.25.49.42.85.51.35.09.73.12,1.14.1.41-.02.78-.04,1.14-.08v1.06h-1.59c-.78,0-1.46-.19-2.04-.56-.58-.37-.87-1.07-.87-2.09v-3.55h-.11c-.28.88-.73,1.73-1.35,2.54-.62.81-1.4,1.54-2.33,2.17-.94.64-2.01,1.14-3.21,1.51-1.2.37-2.51.56-3.92.56-2.76,0-4.97-.61-6.63-1.83-1.66-1.22-2.49-3.05-2.49-5.49,0-1.7.27-3.06.82-4.08.55-1.03,1.26-1.83,2.15-2.41.88-.58,1.89-.99,3.02-1.22,1.13-.23,2.26-.38,3.39-.45,1.87-.11,3.48-.2,4.82-.29,1.34-.09,2.45-.27,3.31-.53.86-.26,1.5-.67,1.91-1.22.41-.55.61-1.33.61-2.36,0-.81-.07-1.66-.21-2.55-.14-.88-.49-1.7-1.03-2.44-.55-.74-1.35-1.35-2.41-1.83-1.06-.48-2.49-.72-4.29-.72-2.86,0-5.09.7-6.68,2.09-1.59,1.4-2.47,3.37-2.65,5.91h-1.06c.07-1.27.34-2.47.8-3.58M85.69,57.19c-.35.5-.9.88-1.64,1.14-.74.26-1.59.47-2.54.61-.95.14-1.99.23-3.1.26-1.11.04-2.2.09-3.26.16-1.06.07-2.09.2-3.1.4-1.01.2-1.9.55-2.68,1.06-.78.51-1.4,1.22-1.85,2.12-.46.9-.69,2.08-.69,3.53,0,.78.13,1.55.4,2.3.27.76.72,1.43,1.35,2.02.64.58,1.46,1.06,2.46,1.43,1.01.37,2.25.56,3.74.56,1.77,0,3.34-.3,4.72-.9,1.38-.6,2.54-1.39,3.47-2.36.93-.97,1.64-2.09,2.12-3.37.48-1.27.72-2.58.72-3.92v-5.04h-.11Z"/>
  <path class="cls-2" d="M91.42,45.95v6.73h.11c.25-1.06.64-2.03,1.19-2.92.55-.88,1.24-1.66,2.07-2.33.83-.67,1.79-1.19,2.89-1.56,1.09-.37,2.31-.56,3.66-.56,1.41,0,2.71.21,3.9.64,1.18.42,2.21,1.05,3.07,1.88.86.83,1.54,1.85,2.01,3.07.48,1.22.72,2.62.72,4.21v18.07h-1.06v-17.92c0-1.59-.23-2.94-.69-4.05-.46-1.11-1.09-2.03-1.88-2.76-.8-.72-1.71-1.25-2.76-1.59-1.04-.33-2.15-.5-3.31-.5-1.63,0-3.06.31-4.29.93-1.24.62-2.27,1.45-3.1,2.49-.83,1.04-1.46,2.25-1.88,3.63-.42,1.38-.64,2.83-.64,4.35v15.42h-1.06v-27.24h1.06Z"/>
  <path class="cls-2" d="M135.04,68.03c-.6,1.22-1.39,2.25-2.36,3.1-.97.85-2.1,1.5-3.39,1.96-1.29.46-2.71.69-4.27.69-1.94,0-3.67-.36-5.17-1.09-1.5-.72-2.77-1.7-3.79-2.94-1.03-1.24-1.8-2.68-2.33-4.32-.53-1.64-.8-3.4-.8-5.27,0-1.98.26-3.86.77-5.65.51-1.78,1.29-3.36,2.33-4.72,1.04-1.36,2.37-2.45,3.98-3.26,1.61-.81,3.49-1.22,5.65-1.22,1.27,0,2.49.19,3.66.58,1.17.39,2.21.95,3.13,1.7.92.74,1.69,1.67,2.3,2.78.62,1.11,1.02,2.4,1.19,3.84h-1.06c-.21-1.34-.6-2.5-1.17-3.47-.57-.97-1.26-1.78-2.07-2.44-.81-.65-1.73-1.14-2.76-1.46-1.03-.32-2.1-.48-3.23-.48-2.16,0-3.98.42-5.48,1.25-1.5.83-2.7,1.91-3.61,3.23-.9,1.33-1.56,2.81-1.96,4.45-.41,1.64-.61,3.26-.61,4.85s.24,3.25.72,4.77c.48,1.52,1.17,2.86,2.09,4.03.92,1.17,2.07,2.09,3.45,2.78,1.38.69,2.97,1.03,4.77,1.03,1.34,0,2.6-.2,3.76-.61,1.17-.41,2.2-1,3.1-1.78.9-.78,1.63-1.7,2.2-2.78.56-1.08.9-2.31,1.01-3.68h1.06c-.14,1.52-.51,2.89-1.11,4.11"/>
  <path class="cls-2" d="M139.52,64.9c.41,1.57,1.03,2.94,1.88,4.11.85,1.17,1.94,2.08,3.29,2.76,1.34.67,2.99,1.01,4.93,1.01,2.86,0,5.24-.75,7.13-2.25,1.89-1.5,3.07-3.75,3.53-6.76h1.06c-.39,3.18-1.64,5.64-3.76,7.39-2.12,1.75-4.73,2.62-7.84,2.62-2.12.03-3.93-.3-5.43-1.01-1.5-.71-2.73-1.7-3.68-2.99-.95-1.29-1.66-2.81-2.12-4.56-.46-1.75-.69-3.63-.69-5.65,0-2.26.34-4.27,1.01-6.04.67-1.77,1.55-3.26,2.65-4.48,1.1-1.22,2.37-2.15,3.82-2.78,1.45-.64,2.93-.95,4.45-.95,2.12,0,3.95.41,5.49,1.22,1.54.81,2.79,1.89,3.76,3.23.97,1.35,1.68,2.88,2.12,4.61.44,1.73.63,3.53.56,5.41h-22.79c.03,1.84.26,3.54.66,5.11M159.9,53.99c-.46-1.5-1.14-2.82-2.04-3.95-.9-1.13-2.02-2.02-3.37-2.68-1.34-.65-2.9-.98-4.66-.98-1.48,0-2.87.28-4.16.85-1.29.57-2.42,1.39-3.39,2.46-.97,1.08-1.76,2.38-2.36,3.9-.6,1.52-.95,3.23-1.06,5.14h21.73c0-1.66-.23-3.24-.69-4.74"/>
  <g>
    <path class="cls-1" d="M59.25,82.79l-.58,1.77h-.75l1.91-5.62h.88l1.92,5.62h-.78l-.6-1.77h-1.99ZM61.09,82.22l-.55-1.62c-.13-.37-.21-.7-.29-1.03h-.02c-.08.33-.18.68-.28,1.02l-.55,1.63h1.69Z"/>
    <path class="cls-1" d="M64.38,84.55v-2.38l-1.78-3.24h.83l.79,1.55c.22.43.38.77.56,1.16h.02c.16-.37.35-.73.57-1.16l.81-1.55h.83l-1.88,3.23v2.39h-.73Z"/>
    <path class="cls-1" d="M68.71,78.93v3.33c0,1.26.56,1.79,1.31,1.79.83,0,1.37-.55,1.37-1.79v-3.33h.73v3.28c0,1.73-.91,2.43-2.13,2.43-1.15,0-2.02-.66-2.02-2.4v-3.31h.73Z"/>
    <path class="cls-1" d="M73.72,79.01c.37-.08.89-.12,1.39-.12.78,0,1.28.14,1.63.46.28.25.44.63.44,1.07,0,.74-.47,1.23-1.06,1.43v.03c.43.15.69.55.83,1.13.18.78.32,1.33.43,1.54h-.75c-.09-.16-.22-.64-.38-1.34-.17-.78-.47-1.07-1.13-1.09h-.68v2.43h-.73v-5.55ZM74.44,81.57h.74c.78,0,1.27-.43,1.27-1.07,0-.73-.53-1.04-1.29-1.05-.35,0-.6.03-.72.07v2.05Z"/>
    <path class="cls-1" d="M79.92,84.55l-1.83-5.62h.78l.88,2.77c.24.76.45,1.44.6,2.1h.02c.16-.65.39-1.36.64-2.09l.95-2.78h.78l-2.01,5.62h-.8Z"/>
    <path class="cls-1" d="M86.59,81.92h-2.18v2.03h2.44v.61h-3.16v-5.62h3.04v.61h-2.31v1.78h2.18v.6Z"/>
    <path class="cls-1" d="M88.13,79.01c.44-.07.97-.12,1.54-.12,1.04,0,1.78.24,2.28.7.5.46.79,1.11.79,2.02s-.28,1.67-.81,2.18c-.52.53-1.39.81-2.48.81-.52,0-.95-.03-1.32-.07v-5.53ZM88.85,83.98c.18.03.45.04.73.04,1.55,0,2.39-.87,2.39-2.38,0-1.33-.74-2.17-2.28-2.17-.38,0-.66.03-.85.08v4.44Z"/>
    <path class="cls-1" d="M94.75,78.93v5.62h-.73v-5.62h.73Z"/>
    <path class="cls-1" d="M100.29,84.37c-.27.13-.8.27-1.48.27-1.58,0-2.78-1-2.78-2.84s1.19-2.95,2.94-2.95c.7,0,1.14.15,1.33.25l-.18.59c-.28-.13-.67-.23-1.13-.23-1.32,0-2.19.84-2.19,2.32,0,1.38.79,2.26,2.16,2.26.44,0,.89-.09,1.18-.23l.15.58Z"/>
    <path class="cls-1" d="M107.58,84.37c-.27.13-.8.27-1.48.27-1.58,0-2.78-1-2.78-2.84s1.19-2.95,2.94-2.95c.7,0,1.14.15,1.33.25l-.18.59c-.28-.13-.67-.23-1.13-.23-1.32,0-2.19.84-2.19,2.32,0,1.38.79,2.26,2.16,2.26.44,0,.89-.09,1.18-.23l.15.58Z"/>
    <path class="cls-1" d="M111.74,81.92h-2.18v2.03h2.44v.61h-3.16v-5.62h3.04v.61h-2.31v1.78h2.18v.6Z"/>
    <path class="cls-1" d="M113.27,84.55v-5.62h.79l1.8,2.84c.42.66.74,1.25,1.01,1.83h.02c-.07-.76-.08-1.44-.08-2.32v-2.35h.68v5.62h-.73l-1.78-2.85c-.39-.63-.77-1.27-1.05-1.88h-.03c.04.72.06,1.39.06,2.33v2.4h-.68Z"/>
    <path class="cls-1" d="M120.17,79.55h-1.71v-.62h4.16v.62h-1.72v5h-.73v-5Z"/>
    <path class="cls-1" d="M126.5,81.92h-2.18v2.03h2.44v.61h-3.16v-5.62h3.04v.61h-2.31v1.78h2.18v.6Z"/>
    <path class="cls-1" d="M128.04,79.01c.37-.08.89-.12,1.39-.12.78,0,1.28.14,1.63.46.28.25.44.63.44,1.07,0,.74-.47,1.23-1.06,1.43v.03c.43.15.69.55.83,1.13.18.78.32,1.33.43,1.54h-.75c-.09-.16-.22-.64-.38-1.34-.17-.78-.47-1.07-1.13-1.09h-.68v2.43h-.73v-5.55ZM128.76,81.57h.74c.78,0,1.27-.43,1.27-1.07,0-.73-.53-1.04-1.29-1.05-.35,0-.6.03-.72.07v2.05Z"/>
    <path class="cls-1" d="M138.5,84.55c-.16-.16-.31-.32-.53-.55-.48.45-1.03.64-1.64.64-1.09,0-1.73-.73-1.73-1.58,0-.77.46-1.29,1.1-1.64v-.03c-.29-.37-.47-.78-.47-1.18,0-.68.49-1.38,1.43-1.38.7,0,1.24.47,1.24,1.19,0,.59-.34,1.06-1.23,1.5v.03c.48.55,1.01,1.17,1.37,1.57.26-.39.43-.93.54-1.64h.67c-.15.88-.39,1.58-.81,2.08.3.32.59.63.93.99h-.87ZM137.61,83.59c-.33-.37-.96-1.05-1.58-1.77-.3.19-.73.55-.73,1.14,0,.64.48,1.13,1.15,1.13.48,0,.89-.22,1.16-.51ZM135.91,80.16c0,.4.18.71.43,1.01.57-.33.93-.63.93-1.1,0-.34-.19-.73-.65-.73s-.71.38-.71.82Z"/>
    <path class="cls-1" d="M142.38,83.67c.33.2.8.37,1.3.37.74,0,1.18-.39,1.18-.96,0-.53-.3-.83-1.06-1.12-.92-.32-1.48-.8-1.48-1.59,0-.88.73-1.53,1.82-1.53.58,0,.99.13,1.24.27l-.2.59c-.18-.1-.56-.27-1.07-.27-.77,0-1.06.46-1.06.84,0,.53.34.78,1.12,1.08.95.37,1.43.83,1.43,1.65,0,.87-.64,1.62-1.97,1.62-.54,0-1.13-.16-1.43-.36l.18-.61Z"/>
    <path class="cls-1" d="M146.93,79c.35-.06.81-.11,1.39-.11.72,0,1.24.17,1.58.47.31.27.49.68.49,1.18s-.15.91-.43,1.2c-.38.41-1.01.62-1.72.62-.22,0-.42,0-.58-.05v2.25h-.73v-5.55ZM147.66,81.71c.16.04.36.06.6.06.88,0,1.41-.43,1.41-1.2s-.53-1.1-1.33-1.1c-.32,0-.56.03-.68.06v2.18Z"/>
    <path class="cls-1" d="M151.92,82.79l-.58,1.77h-.75l1.91-5.62h.88l1.92,5.62h-.78l-.6-1.77h-1.99ZM153.76,82.22l-.55-1.62c-.13-.37-.21-.7-.29-1.03h-.02c-.08.33-.18.68-.28,1.02l-.55,1.63h1.69Z"/>
  </g>
</svg>