<?xml version="1.0" encoding="UTF-8"?>
<svg id="Layer_1" data-name="Layer 1" xmlns="http://www.w3.org/2000/svg" viewBox="0 0 175 120">
  <defs>
    <style>
      .cls-1 {
        fill: #006380;
      }

      .cls-1, .cls-2, .cls-3, .cls-4 {
        stroke-width: 0px;
      }

      .cls-2 {
        fill-rule: evenodd;
      }

      .cls-2, .cls-4 {
        fill: #79858d;
      }

      .cls-3 {
        fill: #00aae3;
      }
    </style>
  </defs>
  <path class="cls-1" d="M101.99,38.59c-.36-1.01-.81-2.03-1.34-3.07-.92-1.82-7.23-10.8-7.25-10.83-1-1.17-2.75-1.32-3.93-.31-1.17.99-1.31,2.75-.32,3.92h0c.15.18,5.34,7.45,6.37,9.44.52.99.93,1.92,1.2,2.7.27.77.37,1.39.36,1.67,0,1.08-.24,2.1-.7,3.06-.68,1.42-1.85,2.7-3.38,3.61-1.53.92-3.41,1.47-5.45,1.47-2.73,0-5.07-1.09-6.86-2.51-1.76-1.4-4.19-6-1.08-10.99,1-1.61,13.46-18.04,14.87-19.84.71-.9,1.32-1.65,1.74-2.16.21-.25.38-.45.49-.59.05-.07.1-.12.12-.15l.04-.03h0c1-1.18.85-2.94-.31-3.94-1.18-.99-2.94-.85-3.93.33-.03.03-3.15,3.69-6.31,8.19-1.58,2.25-9.84,13.86-11.37,16.06-1.84,2.66-2.44,5.88-2.5,7.49-.07,1.93.44,3.79,1.24,5.45,1.19,2.5,3.14,4.57,5.54,6,2.4,1.44,5.26,2.27,8.32,2.27,4.07,0,7.79-1.46,10.55-3.9,1.37-1.22,2.51-2.7,3.3-4.36.79-1.66,1.24-3.52,1.24-5.45,0-1.23-.29-2.37-.68-3.53"/>
  <path class="cls-3" d="M106.81,56.7c-1.51-1.51-3.62-2.45-5.92-2.45-.4,0-.76.04-1.11.1-.36.06-.7.14-1.06.23-.71.18-1.45.43-2.22.71-1.54.56-3.19,1.29-4.75,2-1.66.76-3.17,1.51-4.25,2.05-1.08-.54-2.6-1.29-4.25-2.05-1.56-.72-3.22-1.44-4.75-2-.77-.28-1.51-.53-2.22-.71-.36-.09-.7-.18-1.06-.23-.35-.06-.71-.1-1.11-.1-2.3,0-4.41.94-5.91,2.45-1.51,1.51-2.45,3.61-2.45,5.91,0,2.3.94,4.41,2.45,5.92,1.5,1.51,3.61,2.45,5.91,2.45h0c.4,0,.76-.04,1.11-.1.66-.11,1.31-.29,2-.5,1.21-.39,2.51-.9,3.83-1.46,1.41-.6,2.83-1.26,4.07-1.87-2.8-3.42-7.28-2.64-9.11-2.14-.44.15-.86.28-1.19.37-.22.05-.4.09-.53.11-.06.01-.12.02-.15.02h-.04s0,0,0,0c-.78,0-1.46-.31-1.97-.82-.51-.51-.82-1.2-.82-1.98,0-.78.31-1.46.82-1.97.51-.51,1.2-.82,1.98-.82.01,0,.11,0,.25.03.29.05.74.17,1.28.34.93.3,2.11.76,3.31,1.28.24.11,1.17.54,2.38,1.11,1.86.88,4.4,2.1,6.18,2.94,1.77-.84,4.31-2.06,6.17-2.94,1.21-.58,2.13-1.01,2.38-1.11,1.2-.51,2.38-.98,3.31-1.28.54-.17.99-.29,1.27-.34.14-.02.24-.03.26-.03.78,0,1.46.31,1.98.82.51.52.82,1.2.82,1.97s-.3,1.47-.82,1.98c-.52.51-1.19.82-1.98.82h-.04s-.09-.01-.15-.03c-.13-.02-.31-.06-.53-.11-.34-.08-.74-.21-1.19-.37-1.83-.5-6.32-1.28-9.11,2.14,1.25.6,2.66,1.26,4.07,1.87,1.32.57,2.62,1.08,3.83,1.46.69.21,1.34.39,2.01.5.35.06.71.1,1.11.1h0c2.3,0,4.41-.94,5.91-2.45,1.5-1.5,2.44-3.61,2.44-5.92s-.94-4.41-2.44-5.91"/>
  <path class="cls-3" d="M91.7,41.69c0,2.33-1.88,4.21-4.2,4.21s-4.21-1.88-4.21-4.21,1.88-4.21,4.21-4.21,4.2,1.89,4.2,4.21"/>
  <path class="cls-4" d="M63.96,80.02h1.27v4.38h.03c.45-.78,1.26-1.27,2.39-1.27,1.74,0,2.95,1.45,2.95,3.56,0,2.52-1.59,3.76-3.15,3.76-1.01,0-1.81-.39-2.34-1.32h-.03l-.07,1.16h-1.1c.04-.48.06-1.19.06-1.81v-8.46ZM65.23,87.48c0,.16.01.32.04.46.25.88,1,1.49,1.91,1.49,1.35,0,2.13-1.08,2.13-2.69,0-1.42-.72-2.62-2.08-2.62-.87,0-1.68.61-1.92,1.56-.04.16-.07.33-.07.54v1.26Z"/>
  <path class="cls-4" d="M77.69,88.38c0,.72.01,1.36.06,1.91h-1.13l-.07-1.14h-.03c-.32.56-1.07,1.3-2.31,1.3-1.1,0-2.42-.62-2.42-3.07v-4.09h1.27v3.86c0,1.33.42,2.24,1.56,2.24.85,0,1.45-.59,1.68-1.17.07-.17.12-.4.12-.65v-4.28h1.27v5.09Z"/>
  <path class="cls-4" d="M79.26,89c.39.23,1.06.49,1.69.49.91,0,1.35-.45,1.35-1.04s-.36-.94-1.29-1.29c-1.27-.46-1.87-1.14-1.87-1.98,0-1.13.93-2.05,2.42-2.05.71,0,1.33.19,1.71.43l-.3.91c-.28-.16-.78-.41-1.43-.41-.75,0-1.16.43-1.16.96,0,.59.41.85,1.32,1.2,1.2.45,1.84,1.06,1.84,2.11,0,1.24-.97,2.11-2.6,2.11-.77,0-1.48-.2-1.97-.49l.3-.95Z"/>
  <path class="cls-4" d="M85.41,82c-.48,0-.8-.38-.8-.82s.33-.81.82-.81.81.36.81.81-.32.82-.82.82h-.01ZM84.8,83.29h1.27v7h-1.27v-7Z"/>
  <path class="cls-4" d="M87.83,85.18c0-.74-.01-1.32-.06-1.89h1.13l.07,1.14h.03c.35-.65,1.16-1.3,2.31-1.3.97,0,2.47.58,2.47,2.98v4.18h-1.27v-4.04c0-1.13-.42-2.08-1.62-2.08-.82,0-1.48.59-1.71,1.3-.06.16-.09.39-.09.59v4.22h-1.27v-5.11Z"/>
  <path class="cls-4" d="M96.22,87.01c.03,1.72,1.11,2.43,2.39,2.43.91,0,1.48-.16,1.94-.35l.23.9c-.45.2-1.23.45-2.34.45-2.14,0-3.44-1.43-3.44-3.53s1.26-3.79,3.3-3.79c2.29,0,2.88,2.01,2.88,3.3,0,.26-.01.46-.04.61h-4.9ZM99.93,86.09c.01-.8-.33-2.07-1.75-2.07-1.3,0-1.85,1.19-1.95,2.07h3.7Z"/>
  <path class="cls-4" d="M102.2,89c.39.23,1.06.49,1.69.49.91,0,1.35-.45,1.35-1.04s-.36-.94-1.29-1.29c-1.27-.46-1.87-1.14-1.87-1.98,0-1.13.93-2.05,2.42-2.05.71,0,1.33.19,1.71.43l-.3.91c-.28-.16-.78-.41-1.43-.41-.75,0-1.16.43-1.16.96,0,.59.41.85,1.32,1.2,1.2.45,1.84,1.06,1.84,2.11,0,1.24-.97,2.11-2.6,2.11-.77,0-1.48-.2-1.97-.49l.3-.95Z"/>
  <path class="cls-4" d="M107.57,89c.39.23,1.06.49,1.69.49.91,0,1.35-.45,1.35-1.04s-.36-.94-1.29-1.29c-1.27-.46-1.87-1.14-1.87-1.98,0-1.13.93-2.05,2.42-2.05.71,0,1.33.19,1.71.43l-.3.91c-.28-.16-.78-.41-1.43-.41-.75,0-1.16.43-1.16.96,0,.59.41.85,1.32,1.2,1.2.45,1.84,1.06,1.84,2.11,0,1.24-.97,2.11-2.6,2.11-.77,0-1.48-.2-1.97-.49l.3-.95Z"/>
  <path class="cls-2" d="M128.64,102.8c-.05-1.3-.97-2.23-2.3-2.4-.82-.11-1.58-.07-2.41,0-.6.04-1.41.24-1.92.41v-2.39l-1.5-.04c-.23,1.52-.43,3.43-.65,4.87,2.37-1.16,4.1-1.4,5.27-1.27,1.2.14,1.77.96,1.72,2.06-2.93-1.03-5.55-.52-7.28,1.44-1.29,1.45-1.15,3.19.53,4.19,2.44,1.46,5.02.56,6.47-.36.77.4,1.45.74,2.07,1.06v-7.56ZM126.96,106.51c0,.97-2.57,2.23-4.66,2.48-1.46.11-1.97-.43-2.22-.85-.25-.59.08-1.29.55-1.73,1.53-1.46,4.12-1.36,5.71-.59.27.13.52.26.62.34v.36Z"/>
  <path class="cls-2" d="M88.87,96.82c0,2.69-.02,7.9,0,10.52.02,2.07,1.68,3.37,3.7,2.93,1.55-.33,2.41-1.39,3.04-2.83-.73-.43-1.4-.81-2.09-1.22-.07,1.76-.89,3.35-1.74,3.26-.33-.09-.73-.22-.73-1.31v-9.96l-2.18-1.4"/>
  <path class="cls-2" d="M90.99,97.87c.1-2.09-.24-3.05-2.16-3.56v3.66"/>
  <path class="cls-2" d="M74.39,102.8c-.06-1.3-.98-2.23-2.3-2.4-.82-.11-1.59-.07-2.41,0-.61.04-1.41.24-1.93.41v-2.39l-1.49-.04c-.23,1.52-.43,3.43-.65,4.87,2.37-1.16,4.09-1.4,5.27-1.27,1.19.14,1.77.96,1.72,2.06-2.93-1.03-5.55-.52-7.28,1.44-1.29,1.45-1.15,3.19.53,4.19,2.43,1.46,5.02.56,6.47-.36.77.4,1.45.74,2.07,1.06v-7.56ZM72.7,106.51c0,.97-2.56,2.23-4.66,2.48-1.46.11-1.97-.43-2.22-.85-.25-.59.08-1.29.55-1.73,1.54-1.46,4.13-1.36,5.71-.59.27.13.51.26.62.34v.36Z"/>
  <path class="cls-2" d="M96.48,98.9v1.14c0,2.79-.01,4.68,0,7.47,0,.33-.22,2.89,2.2,2.89v-3.81c0-2.47,1.64-4.53,4.03-5.09,1.23-.27,2.23.26,2.6,1.46.54,1.72.08,3.25-.98,4.62-.46.59-.99,1.14-1.51,1.76.7.41,1.6.92,2.17,1.27,2.55-2.13,3.14-5.55,1.24-8.14-.78-1.07-1.81-1.78-3.14-1.99-1.75-.28-3.09.52-4.33,1.78v-3.37l-.04-1.54c-.17-2.46-1.41-4.75-4.55-4.63,2.26,2.13,2.27,4.67,2.27,5.2l.03.97Z"/>
  <path class="cls-2" d="M60.15,98.07v2.5s.04.04.07.06c4.11,1.25,3.66,5.81,1.42,8.05-.12.12-.24.23-.36.34-1.83,1.55-2.82,1.73-4.39-.69,1.74-.32,3.26-1.03,4.49-2.3,1.02-1.04,1.41-2.28.93-3.06-.7-1.15-1.86-1.2-3.02-1.1-1.8.15-2.9,1.26-3.6,2.83-.2.45-.59,1.78-.76,2.25-.08,0-.17-.02-.23-.03-1.94-.54-1.79-1.75-1.56-2.67.25-.93.88-1.71.89-1.76-1.05-.74-2.55-.6-3.76.27-1.16.83-1.57,2.06-1.2,3.64.53,2.25,2.27,3.3,3.1,4.02-2.23-.73-4.18-1.51-5.34-3.62-.77-1.4-.55-3.12.38-4.38,1.46-1.96,5.45-1.96,7.87-.78.02.01,1.2-.93,2.95-1.11v-2.37"/>
  <path class="cls-4" d="M78.41,100.34h-1.83v7.53c0,1.5.61,2.17,2.05,2.46v-3.78c0-2.2.65-3.98,2.76-4.83,1.68-.67,3.48.17,3.57,2.2.07,1.62-.22,2.73-1.38,3.9-.35.35-.79.82-1.13,1.1.76.48,1.46.96,2.38,1.56.63-1.3,1.35-2.44,1.73-3.68.69-2.32-.19-4.6-2.01-5.87-1.46-1.02-3.12-1.01-5.2.5-.12.08-.52.44-.69.54l-.25-1.63Z"/>
  <path class="cls-2" d="M117.71,102.69c-.2-1.17-1.59-2.23-3.09-2.26-.62,0-2.33.17-3.74,1.11l-.2-1.2h-1.82v7.53c0,1.5.6,2.17,2.05,2.46v-3.78c0-1.73.15-3.01,1.39-4.27.35-.33.59-.48,1.08-.71.88-.42,1.94-.36,2.24.33.24.57-.1,1.02-.75,1.45-.25.17-.54.25-.89.41.55.62,1.04,1.17,1.51,1.71,1.52-.68,2.39-1.79,2.22-2.77"/>
  <polygon class="cls-2" points="128.41 98.86 46.39 98.86 46.39 97.44 127.84 97.44 128.41 98.86"/>
</svg>