<?xml version="1.0" encoding="UTF-8"?>
<svg id="Layer_1" data-name="Layer 1" xmlns="http://www.w3.org/2000/svg" viewBox="0 0 175 120">
  <defs>
    <style>
      .cls-1 {
        fill: #75160d;
      }

      .cls-1, .cls-2 {
        stroke-width: 0px;
      }

      .cls-2 {
        fill: #c01818;
      }
    </style>
  </defs>
  <g id="Icons">
    <g>
      <path class="cls-2" d="M87.46,64.7l-4.21-2.46-.26.44c-.97,1.49-2.28,2.28-3.86,2.28-2.72,0-4.83-2.11-4.83-4.83s2.11-4.83,4.83-4.83c1.67,0,2.9.7,3.86,2.28l.35.44,4.21-2.46-.35-.53c-2.02-2.9-4.65-4.3-7.99-4.3-6.41,0-9.83,4.83-9.83,9.39s3.42,9.48,9.83,9.48c3.25,0,6.32-1.67,7.99-4.3l.26-.61Z"/>
      <path class="cls-2" d="M87.28,69.52h5.79l1.76-4.3h8.69l1.76,4.3h5.79l-10.53-25.01h-5.18l1.4,3.34-9.48,21.68M99.13,54.34l2.37,5.88h-4.74l2.37-5.88Z"/>
      <path class="cls-2" d="M113.35,69.52h5.09v-11.23h3.34v-4.74h-3.34v-2.19c0-.97.61-1.93,1.84-1.93.61,0,1.05.09,1.4.26l.53.26,2.11-4.56-.61-.26c-.97-.35-2.28-.53-3.16-.53-2.28,0-4.21.79-5.44,2.19-1.14,1.23-1.76,2.98-1.76,4.83v2.02h-2.28v4.74h2.19l.09,11.15Z"/>
      <polygon class="cls-2" points="45.33 44.33 45.33 69.52 50.86 69.52 50.86 55.13 56.21 59.08 61.56 55.13 61.56 69.52 67.09 69.52 67.09 44.33 56.21 52.58 45.33 44.33"/>
      <path class="cls-2" d="M133.1,50.74c-6.41,0-9.83,4.83-9.83,9.39s3.42,9.39,9.83,9.39h0c2.9,0,5.7-1.4,7.81-3.77l-4.13-2.28c-1.05,1.05-2.37,1.67-3.77,1.67-2.11,0-3.95-1.4-4.39-3.16h13.78v-1.23c0-6.93-5.44-10.01-9.3-10.01ZM128.71,57.76c.7-1.76,2.11-2.72,3.95-2.72s3.34.97,4.13,2.72h-8.07Z"/>
      <path class="cls-2" d="M153.81,50.74c-6.41,0-9.83,4.83-9.83,9.39s3.42,9.39,9.83,9.39h0c2.9,0,5.7-1.4,7.81-3.77l-4.13-2.28c-1.05,1.05-2.37,1.67-3.77,1.67-2.11,0-3.95-1.4-4.39-3.16h13.78v-1.23c0-6.93-5.44-10.01-9.3-10.01ZM149.42,57.85c.7-1.76,2.11-2.72,3.95-2.72s3.34.97,4.13,2.72h-8.07Z"/>
      <path class="cls-2" d="M162.41,49.86h2.11v.44h-.88v2.28h-.44v-2.28h-.88v-.44h.09Z"/>
      <path class="cls-2" d="M164.87,49.86h.61l.7,2.11h0l.7-2.11h.61v2.63h-.26v-2.02h0l-.7,2.02h-.35l-.88-2.02h0v2.02h-.44v-2.63Z"/>
      <polygon class="cls-2" points="13.12 65.75 13.12 53.02 21.1 56.8 21.1 50.65 7.5 44.33 7.5 69.35 21.1 75.67 21.1 69.52 13.12 65.75"/>
      <polygon class="cls-1" points="29.18 65.75 29.18 53.02 21.1 56.8 21.1 50.65 34.71 44.33 34.71 69.35 21.1 75.67 21.1 69.52 29.18 65.75"/>
    </g>
  </g>
</svg>