<?xml version="1.0" encoding="UTF-8"?>
<svg id="Layer_1" data-name="Layer 1" xmlns="http://www.w3.org/2000/svg" xmlns:xlink="http://www.w3.org/1999/xlink" viewBox="0 0 175 120">
  <defs>
    <style>
      .cls-1 {
        fill: url(#linear-gradient);
      }

      .cls-1, .cls-2, .cls-3, .cls-4, .cls-5, .cls-6, .cls-7, .cls-8, .cls-9, .cls-10, .cls-11 {
        stroke-width: 0px;
      }

      .cls-2 {
        fill: url(#linear-gradient-11);
      }

      .cls-3 {
        fill: url(#linear-gradient-10);
      }

      .cls-4 {
        fill: url(#linear-gradient-4);
      }

      .cls-5 {
        fill: url(#linear-gradient-2);
      }

      .cls-6 {
        fill: url(#linear-gradient-3);
      }

      .cls-7 {
        fill: url(#linear-gradient-8);
      }

      .cls-8 {
        fill: url(#linear-gradient-9);
      }

      .cls-9 {
        fill: url(#linear-gradient-7);
      }

      .cls-10 {
        fill: url(#linear-gradient-5);
      }

      .cls-11 {
        fill: url(#linear-gradient-6);
      }
    </style>
    <linearGradient id="linear-gradient" x1="79.4" y1="71.43" x2="86.43" y2="71.43" gradientUnits="userSpaceOnUse">
      <stop offset="0" stop-color="#80c355"/>
      <stop offset=".52" stop-color="#22a456"/>
      <stop offset="1" stop-color="#006639"/>
    </linearGradient>
    <linearGradient id="linear-gradient-2" x1="88.3" y1="71.45" x2="96.35" y2="71.45" xlink:href="#linear-gradient"/>
    <linearGradient id="linear-gradient-3" x1="101.53" y1="71.43" x2="113.96" y2="71.43" gradientUnits="userSpaceOnUse">
      <stop offset="0" stop-color="#383b3e"/>
      <stop offset=".69" stop-color="#19171c"/>
      <stop offset="1" stop-color="#19171c"/>
    </linearGradient>
    <linearGradient id="linear-gradient-4" x1="115.15" x2="125.38" xlink:href="#linear-gradient-3"/>
    <linearGradient id="linear-gradient-5" x1="127.01" y1="71.39" x2="135.24" y2="71.39" xlink:href="#linear-gradient-3"/>
    <linearGradient id="linear-gradient-6" x1="136.84" x2="145.77" xlink:href="#linear-gradient-3"/>
    <linearGradient id="linear-gradient-7" x1="146.89" x2="153.92" xlink:href="#linear-gradient-3"/>
    <linearGradient id="linear-gradient-8" x1="154.88" x2="163.67" xlink:href="#linear-gradient-3"/>
    <linearGradient id="linear-gradient-9" x1="14.05" y1="71.5" x2="24.99" y2="71.5" xlink:href="#linear-gradient-3"/>
    <linearGradient id="linear-gradient-10" x1="26.04" y1="71.5" x2="34.85" y2="71.5" xlink:href="#linear-gradient-3"/>
    <linearGradient id="linear-gradient-11" x1="11.33" y1="-17458.57" x2="122.28" y2="-17458.57" gradientTransform="translate(0 -17398.57) scale(1 -1)" xlink:href="#linear-gradient"/>
  </defs>
  <path class="cls-1" d="M85.91,72.08h-4.39v3.39h4.91v1.73h-7.03v-11.53h6.77v1.73h-4.65v2.98h4.39v1.71Z"/>
  <path class="cls-5" d="M88.3,65.82c.67-.14,1.9-.24,3.09-.24,1.57,0,2.54.19,3.34.74.73.43,1.21,1.18,1.21,2.16,0,1.06-.67,2.04-1.93,2.5v.04c1.23.31,2.35,1.26,2.35,2.86,0,1.03-.45,1.83-1.13,2.38-.83.72-2.19,1.08-4.32,1.08-1.18,0-2.07-.09-2.61-.16v-11.34ZM90.41,70.37h1.09c1.47,0,2.3-.68,2.3-1.66,0-1.08-.83-1.57-2.18-1.57-.62,0-.98.04-1.21.09v3.15ZM90.41,75.67c.28.04.64.05,1.12.05,1.36,0,2.57-.51,2.57-1.93,0-1.33-1.18-1.88-2.65-1.88h-1.05v3.76Z"/>
  <path class="cls-6" d="M111.66,72.49c-.07-1.49-.16-3.29-.14-4.84h-.05c-.38,1.4-.86,2.96-1.38,4.41l-1.69,5h-1.64l-1.55-4.93c-.45-1.47-.86-3.04-1.17-4.48h-.04c-.05,1.5-.12,3.34-.21,4.91l-.26,4.64h-1.99l.78-11.53h2.8l1.52,4.64c.41,1.35.78,2.72,1.07,4h.05c.31-1.25.71-2.67,1.16-4.02l1.61-4.62h2.77l.68,11.53h-2.08l-.22-4.7Z"/>
  <path class="cls-4" d="M118.35,73.93l-1,3.27h-2.19l3.73-11.53h2.71l3.78,11.53h-2.28l-1.05-3.27h-3.7ZM121.68,72.34l-.92-2.84c-.22-.7-.41-1.49-.59-2.16h-.04c-.17.67-.34,1.47-.55,2.16l-.9,2.84h2.99Z"/>
  <path class="cls-10" d="M127.01,65.82c.79-.14,1.99-.24,3.21-.24,1.68,0,2.82.27,3.59.92.64.53,1,1.33,1,2.31,0,1.49-1.02,2.5-2.11,2.89v.05c.83.31,1.33,1.11,1.63,2.22.36,1.44.67,2.77.91,3.22h-2.19c-.17-.34-.45-1.28-.78-2.72-.33-1.51-.88-1.98-2.09-2.02h-1.07v4.74h-2.11v-11.38ZM129.11,70.92h1.26c1.43,0,2.33-.75,2.33-1.9,0-1.27-.9-1.85-2.28-1.85-.67,0-1.1.05-1.31.1v3.64Z"/>
  <path class="cls-11" d="M136.84,65.66h2.11v5.3h.05c.28-.45.57-.86.85-1.25l3.04-4.06h2.63l-4.01,4.91,4.27,6.62h-2.49l-3.3-5.29-1.04,1.23v4.05h-2.11v-11.53Z"/>
  <path class="cls-9" d="M153.41,72.08h-4.39v3.39h4.91v1.73h-7.03v-11.53h6.77v1.73h-4.65v2.98h4.39v1.71Z"/>
  <path class="cls-7" d="M158.19,67.43h-3.32v-1.76h8.79v1.76h-3.35v9.77h-2.12v-9.77Z"/>
  <g>
    <path class="cls-8" d="M24.99,71.38c0,3.87-2.37,6.07-5.58,6.07s-5.36-2.48-5.36-5.87,2.25-6.04,5.53-6.04,5.41,2.55,5.41,5.83ZM16.3,71.56c0,2.34,1.19,4.21,3.23,4.21s3.21-1.88,3.21-4.3c0-2.17-1.09-4.22-3.21-4.22s-3.23,1.93-3.23,4.31Z"/>
    <path class="cls-3" d="M26.04,76.11l5.96-8.57v-.05h-5.42v-1.75h8.19v1.23l-5.87,8.48v.07h5.96v1.75h-8.81v-1.16Z"/>
  </g>
  <path class="cls-2" d="M68.65,79.15c-1.99,0-3.75-1.09-4.62-2.9l-.1-.25-5.75-17.81c-.34-.59-.92-.66-1.16-.66s-.82.07-1.16.66l-5.79,17.94-.06.12c-.91,1.87-2.77,2.97-4.85,2.89-2.08-.09-3.84-1.34-4.6-3.28l-8.74-22.75c-.32-.83-1.08-.86-1.3-.86-.23,0-.98.1-1.24.95l-3.43,8.19c-.67,2.19-2.65,3.65-4.94,3.65h-7.69c-1.05,0-1.91-.85-1.91-1.9s.85-1.91,1.91-1.91h7.69c.6,0,1.11-.39,1.29-.96l3.43-8.19c.65-2.14,2.51-3.57,4.74-3.65,2.23-.09,4.19,1.2,5,3.28l8.74,22.75c.29.74.93.85,1.2.86.25,0,.86-.04,1.21-.66l5.79-17.94.06-.12c.87-1.79,2.65-2.9,4.64-2.9s3.76,1.11,4.64,2.9l.1.25,5.75,17.81c.36.62.96.67,1.21.66.27-.01.91-.12,1.2-.86l11.83-30.34c.81-2.08,2.78-3.37,5-3.28,2.23.09,4.09,1.52,4.74,3.65l3.43,11.25c.17.57.69.95,1.29.95h24.16c1.05,0,1.9.85,1.9,1.91s-.85,1.91-1.9,1.91h-24.16c-2.28,0-4.27-1.47-4.93-3.65l-3.43-11.25c-.26-.85-1.01-.94-1.24-.95-.23-.01-.98.03-1.31.86l-11.83,30.34c-.76,1.94-2.51,3.2-4.6,3.28-.07,0-.15,0-.22,0Z"/>
</svg>