<?xml version="1.0" encoding="UTF-8"?>
<svg id="Layer_1" data-name="Layer 1" xmlns="http://www.w3.org/2000/svg" viewBox="0 0 175 120">
  <defs>
    <style>
      .cls-1 {
        fill: #165d3d;
      }

      .cls-1, .cls-2 {
        stroke-width: 0px;
      }

      .cls-2 {
        fill: #968643;
      }
    </style>
  </defs>
  <g>
    <polygon class="cls-2" points="25.65 32.45 25.65 50.56 33.91 50.56 33.91 40.85 51.58 40.85 51.58 79.15 33.91 79.15 33.91 69.44 25.65 69.44 25.65 87.55 59.84 87.55 59.84 32.45 25.65 32.45"/>
    <polygon class="cls-2" points="38.58 44.19 38.58 55.84 20.21 55.84 20.21 32.45 11.89 32.45 11.89 87.55 20.21 87.55 20.21 64.16 38.58 64.16 38.58 75.81 46.9 75.81 46.9 44.19 38.58 44.19"/>
  </g>
  <g>
    <path class="cls-1" d="M86.25,40.97c-2.42.19-2.66.32-2.66,2.65v10.94c0,2.33.25,2.48,2.66,2.67v.79h-8.11v-.79c2.52-.19,2.75-.34,2.75-2.67v-5.37h-10.02v5.37c0,2.31.23,2.48,2.66,2.67v.79h-7.95v-.79c2.34-.19,2.56-.34,2.56-2.67v-10.94c0-2.33-.21-2.46-2.64-2.65v-.83h7.87v.83c-2.27.19-2.5.32-2.5,2.65v4.32h10.02v-4.32c0-2.31-.23-2.46-2.56-2.65v-.83h7.91v.83Z"/>
    <path class="cls-1" d="M99.9,39.73c5.14,0,9.79,3.61,9.79,9.11,0,5.94-4.63,9.6-10.18,9.6s-9.86-3.89-9.86-9.19c0-4.98,3.89-9.53,10.24-9.53h.02ZM99.26,40.77c-3.28,0-6.41,2.57-6.41,7.78s3.11,8.87,7.31,8.87c3.28,0,6.29-2.52,6.29-7.84,0-5.77-3.32-8.81-7.17-8.81h-.02Z"/>
    <path class="cls-1" d="M123.19,48.42c2.99.38,5.27,1.58,5.27,4.34,0,1.84-1.05,3.27-2.77,4.17-1.5.77-3.5,1.09-5.82,1.09h-6.72v-.79c2.5-.17,2.7-.36,2.7-2.67v-10.92c0-2.35-.14-2.52-2.44-2.67v-.83h7.74c2.23,0,3.5.32,4.47.96,1.02.66,1.64,1.86,1.64,3.14,0,2.61-2.36,3.68-4.06,4.08v.09ZM119.83,48.06c3.16,0,4.49-1.18,4.49-3.46,0-1.97-1.15-3.53-3.81-3.53-.7,0-1.37.15-1.62.34-.25.17-.33.49-.33,1.33v5.32h1.27ZM118.56,54.49c0,2.05.57,2.57,2.4,2.56,2.29-.04,4.36-1.16,4.36-4s-1.99-4.02-5.55-4.02h-1.21v5.47Z"/>
    <path class="cls-1" d="M141.94,48.42c2.99.38,5.27,1.58,5.27,4.34,0,1.84-1.05,3.27-2.77,4.17-1.5.77-3.5,1.09-5.82,1.09h-6.72v-.79c2.5-.17,2.69-.36,2.69-2.67v-10.92c0-2.35-.14-2.52-2.44-2.67v-.83h7.74c2.23,0,3.5.32,4.47.96,1.02.66,1.64,1.86,1.64,3.14,0,2.61-2.36,3.68-4.06,4.08v.09ZM138.58,48.06c3.16,0,4.49-1.18,4.49-3.46,0-1.97-1.15-3.53-3.81-3.53-.7,0-1.37.15-1.62.34-.25.17-.33.49-.33,1.33v5.32h1.27ZM137.31,54.49c0,2.05.57,2.57,2.4,2.56,2.29-.04,4.36-1.16,4.36-4s-1.99-4.02-5.55-4.02h-1.21v5.47Z"/>
    <path class="cls-1" d="M160.99,44.45c-.51-1.77-1.41-3.76-3.87-3.76-2.19,0-3.22,1.49-3.22,2.99,0,1.94,1.35,2.88,3.73,3.98,2.48,1.16,5.06,2.46,5.06,5.49s-2.62,5.3-6.6,5.3c-1.21,0-2.19-.21-2.93-.45-.74-.23-1.15-.45-1.45-.58-.2-.55-.63-3.04-.8-4.38l.88-.24c.49,1.75,1.91,4.62,4.9,4.62,2.13,0,3.38-1.26,3.38-3.23s-1.56-2.93-3.79-4.06c-2.03-.98-4.82-2.35-4.82-5.37,0-2.74,2.3-5.02,6.11-5.02,1.39,0,2.7.32,3.79.66.12.98.25,2.1.51,3.91l-.88.15Z"/>
    <path class="cls-1" d="M83.11,75.12c-.38,1.32-1.15,3.48-1.63,4.36-.83.19-3.31.79-5.39.79-7.25,0-10.49-4.79-10.49-9.13,0-5.79,4.68-9.58,11.2-9.58,2.41,0,4.44.66,5.22.79.23,1.56.43,2.74.6,4.3l-.85.19c-.77-3.04-2.65-4.25-5.71-4.25-4.79,0-7.35,3.87-7.35,7.97,0,5.19,3.18,8.64,7.59,8.64,2.91,0,4.51-1.56,5.99-4.4l.81.32Z"/>
    <path class="cls-1" d="M99.63,75.4c-.19.94-.77,3.59-1.05,4.44h-12.97v-.79c2.41-.17,2.65-.36,2.65-2.76v-10.79c0-2.39-.19-2.56-2.52-2.71v-.83h7.61v.83c-2.22.15-2.48.3-2.48,2.71v10.69c0,1.5.13,2.03.66,2.31.55.3,1.5.36,2.61.36,1.48,0,2.48-.17,3.12-.88.53-.53,1.05-1.43,1.52-2.74l.85.17Z"/>
    <path class="cls-1" d="M101.96,79.83v-.79c2.29-.17,2.54-.34,2.54-2.71v-10.84c0-2.39-.24-2.56-2.54-2.71v-.83h7.67v.83c-2.27.15-2.52.32-2.52,2.71v10.84c0,2.37.24,2.54,2.52,2.71v.79h-7.67Z"/>
    <path class="cls-1" d="M132.31,62.79c-1.56.07-2.24.39-2.37,1.65-.09.88-.17,2.12-.17,4.68v10.99h-.9l-12.35-14.32h-.04l-.02,6.71c0,2.54.11,3.83.19,4.62.13,1.43.77,1.77,2.71,1.92v.79h-6.73v-.79c1.62-.11,2.33-.47,2.46-1.84.11-.86.23-2.16.23-4.7v-5.9c0-2.01-.09-2.16-.6-2.82-.58-.68-1.18-.9-2.5-1v-.83h4.32l11.97,13.57h.07v-6.41c0-2.56-.11-3.8-.19-4.59-.13-1.3-.79-1.65-2.8-1.75v-.83h6.71v.83Z"/>
    <path class="cls-1" d="M135,79.83v-.79c2.29-.17,2.54-.34,2.54-2.71v-10.84c0-2.39-.24-2.56-2.54-2.71v-.83h7.67v.83c-2.27.15-2.52.32-2.52,2.71v10.84c0,2.37.24,2.54,2.52,2.71v.79h-7.67Z"/>
    <path class="cls-1" d="M163.11,75.12c-.38,1.32-1.15,3.48-1.63,4.36-.83.19-3.31.79-5.39.79-7.25,0-10.49-4.79-10.49-9.13,0-5.79,4.68-9.58,11.2-9.58,2.41,0,4.44.66,5.22.79.23,1.56.43,2.74.6,4.3l-.85.19c-.77-3.04-2.65-4.25-5.71-4.25-4.79,0-7.35,3.87-7.35,7.97,0,5.19,3.18,8.64,7.59,8.64,2.91,0,4.51-1.56,5.99-4.4l.81.32Z"/>
  </g>
</svg>