<?xml version="1.0" encoding="UTF-8"?>
<svg id="Layer_1" data-name="Layer 1" xmlns="http://www.w3.org/2000/svg" xmlns:xlink="http://www.w3.org/1999/xlink" viewBox="0 0 175 120">
  <defs>
    <style>
      .cls-1 {
        clip-path: url(#clippath);
      }

      .cls-2, .cls-3, .cls-4, .cls-5 {
        stroke-width: 0px;
      }

      .cls-2, .cls-6 {
        fill: none;
      }

      .cls-3 {
        fill: #2f6038;
      }

      .cls-4 {
        fill: #573411;
      }

      .cls-5 {
        fill: #6fae52;
      }

      .cls-6 {
        stroke: #1d71b2;
        stroke-miterlimit: 10;
        stroke-width: .35px;
      }
    </style>
    <clipPath id="clippath">
      <polygon class="cls-2" points="-115.28 149.67 -137.55 160.17 -148.28 164.5 -148.28 223.63 -90.45 223.63 -90.45 234.9 -75.17 234.9 -75.17 223.63 -72.32 223.63 -72.32 222.22 -66.2 222.22 -66.2 207.68 -72.32 207.68 -72.32 149.67 -115.28 149.67"/>
    </clipPath>
  </defs>
  <g>
    <g>
      <path class="cls-4" d="M122.81,14.46c-.87,1.34-2.72,1.69-4.12.77l-5.02-3.26c-1.41-.91-1.84-2.74-.97-4.08l.18-.27c.87-1.34,2.72-1.69,4.12-.77l5.02,3.26c1.41.91,1.84,2.74.97,4.08l-.18.27Z"/>
      <path class="cls-5" d="M94.22,32.62c.65-.5,1.28-1.01,1.89-1.52-1.96-4.82-4.82-9.36-8.61-13.34-7.9,8.31-11.81,19.03-11.75,29.73.96.99,1.89,2.02,2.76,3.09,3.46-5.55,8.63-12.56,15.71-17.97Z"/>
      <path class="cls-3" d="M77.32,52.55c-.46-.59-.94-1.16-1.42-1.72-7.64-8.77-18.77-14.42-31.21-14.73.57,22.76,18.97,41.16,41.73,41.73-.24-9.52-3.6-18.26-9.09-25.27Z"/>
      <path class="cls-4" d="M115.31,15.05l-3.14-2.04s-3.98,11.65-16.65,21.33c-7.07,5.4-12.25,12.6-15.61,18.09,3.6,4.92,6.23,10.6,7.59,16.75,2.44-11.02,8.94-20.52,17.84-26.88.13-.44.25-.89.37-1.34,4.02-15.42,12.75-23.86,12.75-23.86l-3.14-2.04Z"/>
      <path class="cls-3" d="M130.32,36.09c-22.76.57-41.16,18.97-41.73,41.73,22.76-.57,41.16-18.97,41.73-41.73Z"/>
    </g>
    <g>
      <path class="cls-3" d="M35.25,93.56v3.79c0,.32.09.59.26.81.12.17.26.32.43.44.17.12.38.21.61.25.02.02.03.04.02.05-.05.03-.19.05-.43.03-1.49-.06-2.64-.06-3.45,0-.17.01-.29-.01-.35-.07.39-.03.72-.18,1-.42.27-.25.42-.54.44-.87-.02-5.69-.08-8.62-.17-8.8-.09-.23-.22-.43-.37-.6s-.33-.25-.51-.25c.09-.02.74-.04,1.96-.04,1.21,0,1.84,0,1.87.04-.31.02-.57.12-.78.29s-.39.38-.55.63l.03,4.14c1.59-1.33,3.07-2.57,4.43-3.72.27-.23.44-.42.51-.58.08-.16.08-.29,0-.4s-.19-.2-.37-.27c-.18-.07-.38-.13-.61-.19l.85.03,2.7-.03-1.97,1.44h.02c-.22.15-.54.4-.95.74-.42.34-1.58,1.31-3.48,2.92.85.82,2.34,2.4,4.45,4.73.31.39.65.7,1,.92.36.22.68.35.97.38v.02l-2.58-.03-4.97-5.37Z"/>
      <path class="cls-3" d="M57.65,93.35c0,1.63-.6,3.01-1.8,4.14-1.19,1.12-2.61,1.68-4.28,1.68s-3.19-.53-4.35-1.58c-1.19-1.07-1.78-2.47-1.78-4.19s.6-3.04,1.8-4.17c1.19-1.11,2.63-1.66,4.33-1.66s3.18.54,4.33,1.63c1.17,1.09,1.75,2.47,1.75,4.16ZM55.93,93.64c0-1.64-.45-2.94-1.35-3.9-.85-.91-1.99-1.37-3.41-1.37-1.17,0-2.13.43-2.88,1.3-.76.87-1.13,1.99-1.13,3.38,0,1.66.44,2.97,1.32,3.93.85.92,2.01,1.39,3.46,1.39,1.18,0,2.14-.44,2.88-1.31.74-.87,1.12-2.01,1.12-3.42Z"/>
      <path class="cls-3" d="M71.27,87.83c-.01,1.07-.02,1.99-.03,2.75h-.07c-.52-.77-.96-1.29-1.32-1.54-.45-.32-1.22-.48-2.32-.48h-.66c-.21.02-.32.07-.35.14-.02.03-.03.08-.03.14l-.02,8.52c0,.32.09.59.26.81.12.17.26.32.43.44.17.12.38.21.61.25.02.02.03.04.02.05-.05.03-.19.05-.43.03-1.49-.06-2.64-.06-3.45,0-.17.01-.29-.01-.35-.07.39-.03.72-.18,1-.42.27-.25.42-.54.44-.87l-.02-8.75c0-.12-.06-.2-.17-.26h-.92c-1.1,0-1.87.16-2.32.48-.36.25-.8.77-1.32,1.54h-.07c-.01-.76-.02-1.68-.03-2.75l4.76.02,6.36-.03Z"/>
      <path class="cls-3" d="M84.49,87.83c-.01,1.07-.02,1.99-.03,2.75h-.07c-.52-.77-.96-1.29-1.32-1.54-.45-.32-1.22-.48-2.32-.48h-.66c-.21.02-.32.07-.35.14-.02.03-.03.08-.03.14l-.02,8.52c0,.32.09.59.26.81.12.17.26.32.43.44s.38.21.61.25c.02.02.03.04.02.05-.05.03-.19.05-.43.03-1.49-.06-2.64-.06-3.45,0-.17.01-.29-.01-.35-.07.39-.03.72-.18,1-.42.27-.25.42-.54.44-.87l-.02-8.75c0-.12-.06-.2-.17-.26h-.92c-1.1,0-1.87.16-2.32.48-.36.25-.8.77-1.32,1.54h-.07c-.01-.76-.02-1.68-.03-2.75l4.76.02,6.36-.03Z"/>
      <path class="cls-3" d="M86.93,98.93h-2.1l-.02-.02c.27-.05.47-.18.62-.39.15-.21.31-.43.48-.65.17-.21.57-.98,1.19-2.33.62-1.34,1.09-2.39,1.41-3.14.84-2.07,1.57-3.91,2.18-5.54,1.55,3.68,3.08,7.19,4.59,10.53.17.46.39.82.66,1.07s.55.4.87.45v.02l-2.68.02c-.5-1.3-.89-2.31-1.18-3.03h-4.94l-1.09,3.01ZM92.61,95.1c-.03-.08-.74-1.81-2.13-5.18l-2.2,5.32h4.4l-.07-.14Z"/>
      <path class="cls-3" d="M100.25,93.56v3.79c0,.32.09.59.26.81.12.17.26.32.43.44s.38.21.61.25c.02.02.03.04.02.05-.05.03-.19.05-.43.03-1.49-.06-2.64-.06-3.45,0-.17.01-.29-.01-.35-.07.39-.03.72-.18,1-.42.27-.25.42-.54.44-.87-.02-5.69-.08-8.62-.17-8.8-.09-.23-.22-.43-.37-.6-.16-.17-.33-.25-.51-.25.09-.02.74-.04,1.96-.04,1.21,0,1.84,0,1.87.04-.31.02-.57.12-.78.29-.21.17-.39.38-.55.63l.03,4.14c1.59-1.33,3.07-2.57,4.43-3.72.27-.23.44-.42.51-.58s.08-.29,0-.4-.19-.2-.37-.27-.38-.13-.61-.19l.85.03,2.7-.03-1.97,1.44h.02c-.22.15-.54.4-.95.74-.42.34-1.58,1.31-3.48,2.92.85.82,2.34,2.4,4.45,4.73.31.39.65.7,1,.92.36.22.68.35.97.38v.02l-2.58-.03-4.97-5.37Z"/>
      <path class="cls-3" d="M113.35,93.56v3.79c0,.32.09.59.26.81.12.17.26.32.43.44s.38.21.61.25c.02.02.03.04.02.05-.05.03-.19.05-.43.03-1.49-.06-2.64-.06-3.45,0-.17.01-.29-.01-.35-.07.39-.03.72-.18,1-.42.27-.25.42-.54.44-.87-.02-5.69-.08-8.62-.17-8.8-.09-.23-.22-.43-.37-.6-.16-.17-.33-.25-.51-.25.09-.02.74-.04,1.96-.04,1.21,0,1.84,0,1.87.04-.31.02-.57.12-.78.29-.21.17-.39.38-.55.63l.03,4.14c1.59-1.33,3.07-2.57,4.43-3.72.27-.23.44-.42.51-.58s.08-.29,0-.4-.19-.2-.37-.27-.38-.13-.61-.19l.85.03,2.7-.03-1.97,1.44h.02c-.22.15-.54.4-.95.74-.42.34-1.58,1.31-3.48,2.92.85.82,2.34,2.4,4.45,4.73.31.39.65.7,1,.92.36.22.68.35.97.38v.02l-2.58-.03-4.97-5.37Z"/>
      <path class="cls-3" d="M123.59,98.93h-2.1l-.02-.02c.27-.05.47-.18.62-.39.15-.21.31-.43.48-.65.17-.21.57-.98,1.19-2.33.62-1.34,1.09-2.39,1.41-3.14.84-2.07,1.57-3.91,2.18-5.54,1.55,3.68,3.08,7.19,4.59,10.53.17.46.39.82.66,1.07s.55.4.87.45v.02l-2.68.02c-.5-1.3-.89-2.31-1.18-3.03h-4.94l-1.09,3.01ZM129.27,95.1c-.03-.08-.74-1.81-2.13-5.18l-2.2,5.32h4.4l-.07-.14Z"/>
      <path class="cls-3" d="M136.87,97.19c0,.52.31.84.92.97.15.02.68.03,1.58.03.42,0,.79-.04,1.11-.12.69-.2,1.2-.41,1.53-.65.33-.24.54-.51.63-.81l.02.02-.35,2.23-.02.1-.14-.02c-.08.01-.2.02-.36.02-.88-.05-2-.07-3.36-.07-.99,0-2.33,0-4,.02v-.02c.3-.05.53-.2.7-.46.17-.26.25-.62.25-1.08l.02-5.94h-.02v-1.99h-.02v-.02c0-.46-.08-.82-.25-1.08-.17-.26-.4-.41-.7-.46v-.02h3.45v.02c-.3.05-.53.22-.7.51-.17.29-.26.79-.29,1.48v7.33Z"/>
    </g>
    <g>
      <path class="cls-5" d="M61.63,106.61l-.86-.49h0c.12.03.23.03.35-.02.11-.05.23-.1.35-.15.12-.04.46-.27,1.03-.67.57-.4,1.01-.72,1.32-.95.83-.65,1.56-1.23,2.19-1.75-.23,1.87-.43,3.67-.6,5.39-.04.23-.03.43.02.59s.13.3.25.39h0s-1.1-.62-1.1-.62c.1-.65.18-1.16.23-1.52l-2.02-1.16-1.15.98ZM64.85,106.38s.12-.91.35-2.62l-2.15,1.66,1.8,1.03v-.07Z"/>
      <path class="cls-5" d="M70.09,110.6l-.66-.25-.13-.05c-.2-.08-.44-.16-.72-.25h0c.14.02.27,0,.38-.1.12-.09.21-.23.29-.44l.42-1.17c-.09-.79-.27-1.53-.51-2.23-.25-.7-.41-1.15-.5-1.34-.09-.19-.22-.33-.4-.41.03-.02.1,0,.21.06.39.14.74.27,1.04.39l.17.78c.02.08.04.16.07.24l.51,2.04c.01.06.03.09.04.09.02,0,.05,0,.1-.04.17-.12.45-.33.86-.6.4-.28,1-.68,1.79-1.19h.02s.67.23.67.23v.02s-.09-.02-.14,0-.1.02-.14.03c-.22.1-.49.25-.82.46-.65.41-1.05.67-1.21.77-.38.25-.72.5-1.02.74l-.48,1.37c-.07.2-.1.38-.06.52.03.14.11.25.24.32h0Z"/>
      <path class="cls-5" d="M79.24,107.73c-.05-.14-.15-.23-.28-.28h0s1.33.25,1.33.25h0c-.14,0-.27.05-.37.16-.1.1-.17.26-.21.48l-.44,2.28c-.1.72-.37,1.25-.82,1.56-.46.33-1.06.42-1.78.27-1.54-.3-2.17-1.18-1.88-2.62l.47-2.36h0s0,0,0,0c.04-.21.04-.39-.02-.52-.05-.14-.15-.23-.28-.28h0s1.59.3,1.59.3h0c-.14,0-.27.06-.37.18-.1.12-.19.34-.26.64l-.4,2.04c-.13.67-.09,1.18.13,1.55.21.36.63.61,1.24.73,1.05.21,1.7-.3,1.94-1.51l.45-2.34c.04-.21.04-.39-.02-.52Z"/>
      <path class="cls-5" d="M83.38,113.25h0s-.71-.05-.71-.05h-.18s-.71-.04-.71-.04h0c.25-.03.41-.21.47-.55v-.03s.01-.07.02-.12l.22-3.73h0s0,0,0,0c.01-.22-.02-.39-.09-.52-.07-.13-.18-.21-.32-.23h0s2.04.09,2.04.09c.45.04.79.15,1.04.34.31.22.45.54.43.95-.03.54-.39.98-1.09,1.33-.08.02-.13.04-.16.07.97,1.6,1.95,2.49,2.93,2.68l.27.06-1.31-.07c-.53-.02-.99-.28-1.36-.77-.51-.75-.94-1.35-1.28-1.81-.24-.01-.42-.01-.56,0l-.07,1.64c-.01.22.02.39.09.52s.18.21.32.23h0ZM84.77,109.36c.02-.35-.06-.6-.23-.77-.17-.17-.44-.26-.83-.28-.31-.02-.48.02-.51.11,0,.02-.01.05-.01.08l-.14,1.99.33.02c.46.03.8-.07,1.02-.3.22-.22.34-.51.36-.85Z"/>
      <path class="cls-5" d="M93.18,107.86l.99-.07h0c-.12.04-.22.11-.28.21-.06.11-.13.21-.21.32-.08.1-.23.48-.48,1.14-.25.65-.43,1.16-.56,1.53-.33,1-.61,1.89-.84,2.68-.85-1.68-1.69-3.28-2.51-4.8-.1-.21-.21-.37-.35-.48-.13-.11-.27-.17-.42-.18h0s1.26-.11,1.26-.11c.28.6.94,1.9,1.98,3.91.02.04.05.06.08.06.02,0,.04-.02.06-.07l1.27-4.14Z"/>
      <path class="cls-5" d="M100.55,111.99s-.09.03-.17.04c-.41.06-.93.15-1.56.27-.46.09-1.08.22-1.85.37h0c.13-.06.23-.15.28-.28.05-.14.06-.31.02-.52l-.71-3.66h0s0,0,0,0c-.04-.21-.11-.37-.22-.48-.1-.11-.22-.15-.37-.15h0s1.47-.31,1.47-.31c.4-.08.76-.16,1.09-.23h.06c.23-.06.45-.12.65-.17.17-.04.26-.05.26-.02l.03.13.15.7h0c-.02-.07-.06-.12-.12-.17-.05-.04-.13-.08-.24-.1-.1-.02-.24-.03-.4-.02-.17,0-.37.03-.63.07-.23.04-.54.1-.93.18-.09.02-.14.04-.16.07,0,.02,0,.06,0,.12l.32,1.64c.01.06.06.09.13.07.14-.03.64-.12,1.52-.29.21-.04.36-.12.44-.24.08-.12.11-.25.11-.39h0c.04.21.12.64.26,1.29h0c-.05-.13-.14-.23-.28-.28-.14-.05-.31-.06-.52-.02-.34.05-.84.14-1.5.27-.05,0-.07.03-.06.07l.34,1.71c.05.24.22.36.51.37.07,0,.32-.05.73-.13.19-.04.36-.09.5-.16.3-.15.52-.3.65-.44s.2-.28.22-.43h0s.04,1.07.04,1.07v.05s-.06,0-.06,0Z"/>
      <path class="cls-5" d="M102.99,111.37c.13-.07.21-.17.24-.31.03-.14.02-.32-.06-.52l-1.22-3.54h0s0,0,0,0c-.07-.21-.17-.35-.28-.44s-.24-.12-.38-.1h0c.86-.34,1.58-.6,2.17-.81.87-.3,1.64-.34,2.31-.1.7.24,1.17.74,1.44,1.49.3.87.25,1.64-.17,2.29-.39.6-1.02,1.04-1.87,1.31-.2.07-.92.32-2.16.75h0ZM103.8,110.06c.09.25.21.39.37.43s.43-.01.83-.15c1.47-.51,1.95-1.49,1.45-2.93-.51-1.45-1.51-1.92-3.01-1.4l-.52.18c-.27.12-.38.25-.34.38l1.22,3.49Z"/>
      <path class="cls-5" d="M110.16,108.61l-.86.48h-.01c.1-.08.15-.18.17-.31.01-.12.03-.25.05-.38.02-.13,0-.54-.04-1.23-.05-.7-.1-1.24-.14-1.62-.13-1.04-.25-1.97-.37-2.79,1.48,1.16,2.92,2.26,4.3,3.29.18.15.35.25.52.29.17.04.32.04.46-.01h0s-1.1.63-1.1.63c-.5-.42-.9-.75-1.18-.98l-2.04,1.13.24,1.49ZM111.62,105.73s-.72-.57-2.06-1.65l.31,2.7,1.81-1.01-.06-.04Z"/>
    </g>
  </g>
  <g class="cls-1">
    <rect class="cls-6" x="-260.25" y="114.65" width="306.03" height="167.6"/>
  </g>
</svg>