<?xml version="1.0" encoding="UTF-8"?>
<svg id="Layer_1" data-name="Layer 1" xmlns="http://www.w3.org/2000/svg" viewBox="0 0 175 120">
  <defs>
    <style>
      .cls-1 {
        stroke: #fff;
      }

      .cls-1, .cls-2 {
        fill: none;
        stroke-miterlimit: 10;
        stroke-width: .25px;
      }

      .cls-3 {
        fill: #226b96;
      }

      .cls-3, .cls-4 {
        stroke-width: 0px;
      }

      .cls-2 {
        stroke: #121617;
      }

      .cls-4 {
        fill: #fff;
      }
    </style>
  </defs>
  <rect class="cls-3" x="14.78" y="29.91" width="145.43" height="60.18"/>
  <g>
    <g>
      <path class="cls-4" d="M32.09,70.19v-20.37h2.7v8.36h10.59v-8.36h2.7v20.37h-2.7v-9.61h-10.59v9.61h-2.7Z"/>
      <path class="cls-4" d="M52.69,70.19v-20.37h13.74v2.4h-11.05v6.31h9.56v2.4h-9.56v9.26h-2.7Z"/>
      <path class="cls-4" d="M75.12,70.19v-17.97h-6.71v-2.4h16.15v2.4h-6.74v17.97h-2.7Z"/>
      <path class="cls-4" d="M87.37,70.19v-20.37h14.73v2.4h-12.03v6.24h11.27v2.39h-11.27v6.94h12.5v2.4h-15.2Z"/>
      <path class="cls-4" d="M120.83,63.04l2.7.68c-.56,2.21-1.58,3.9-3.05,5.06-1.47,1.16-3.27,1.74-5.38,1.74s-3.98-.44-5.36-1.34c-1.38-.9-2.42-2.19-3.14-3.88-.72-1.7-1.08-3.52-1.08-5.46,0-2.12.4-3.97,1.22-5.55.81-1.58,1.97-2.78,3.46-3.6,1.49-.82,3.14-1.23,4.94-1.23,2.04,0,3.75.52,5.14,1.56,1.39,1.04,2.36,2.5,2.9,4.38l-2.65.63c-.47-1.48-1.16-2.56-2.06-3.24s-2.03-1.01-3.39-1.01c-1.56,0-2.88.38-3.93,1.13s-1.79,1.76-2.22,3.02c-.42,1.26-.64,2.57-.64,3.91,0,1.73.25,3.25.76,4.54s1.29,2.26,2.36,2.9c1.06.64,2.22.96,3.46.96,1.51,0,2.79-.43,3.84-1.31,1.05-.88,1.76-2.17,2.13-3.88Z"/>
      <path class="cls-4" d="M126.93,70.19v-20.37h2.7v8.36h10.59v-8.36h2.7v20.37h-2.7v-9.61h-10.59v9.61h-2.7Z"/>
    </g>
    <g>
      <polyline class="cls-2" points="87.43 34.58 156.2 34.58 156.2 85.42 87.47 85.42"/>
      <polyline class="cls-1" points="87.57 85.42 18.8 85.42 18.8 34.58 87.53 34.58"/>
    </g>
  </g>
</svg>