<?xml version="1.0" encoding="UTF-8"?>
<svg id="Layer_1" data-name="Layer 1" xmlns="http://www.w3.org/2000/svg" viewBox="0 0 175 120">
  <defs>
    <style>
      .cls-1 {
        fill: #d2b732;
      }

      .cls-1, .cls-2, .cls-3, .cls-4 {
        stroke-width: 0px;
      }

      .cls-2 {
        fill: #767a7f;
      }

      .cls-3 {
        fill: #343f74;
        fill-rule: evenodd;
      }

      .cls-4 {
        fill: #323335;
      }
    </style>
  </defs>
  <g>
    <path class="cls-4" d="M64.17,43.87v-9.82h1.61v9.82h-1.61Z"/>
    <path class="cls-4" d="M72.62,43.87l-2.85-8.2h-.05c.08,1.22.11,2.36.11,3.43v4.78h-1.46v-9.82h2.26l2.73,7.81h.04l2.81-7.81h2.27v9.82h-1.55v-4.86c0-.49.01-1.12.04-1.91.02-.78.05-1.26.06-1.42h-.05l-2.95,8.19h-1.42Z"/>
    <path class="cls-4" d="M84.46,43.87h-1.61v-8.45h-2.89v-1.38h7.38v1.38h-2.89v8.45Z"/>
    <path class="cls-4" d="M64.17,48.01h2.92c1.35,0,2.33.2,2.93.59s.9,1.02.9,1.87c0,.57-.15,1.05-.44,1.43-.3.38-.72.62-1.28.72v.07c.69.13,1.2.39,1.52.77.32.38.49.9.49,1.56,0,.88-.31,1.57-.92,2.07-.62.5-1.47.75-2.57.75h-3.55v-9.82ZM65.78,52.06h1.55c.67,0,1.16-.11,1.47-.32s.46-.57.46-1.09c0-.46-.17-.79-.5-1-.33-.21-.86-.31-1.59-.31h-1.39v2.71ZM65.78,53.37v3.11h1.71c.67,0,1.18-.13,1.52-.39.34-.26.51-.66.51-1.22,0-.51-.17-.89-.52-1.14-.35-.25-.88-.37-1.59-.37h-1.63Z"/>
    <path class="cls-4" d="M78.33,57.83l-.22-.97h-.08c-.22.35-.53.62-.94.81-.41.2-.87.3-1.39.3-.9,0-1.57-.22-2.02-.67-.44-.45-.67-1.13-.67-2.04v-4.86h1.59v4.58c0,.57.12,1,.35,1.28.23.28.6.43,1.1.43.66,0,1.15-.2,1.46-.59.31-.4.47-1.06.47-1.99v-3.7h1.59v7.43h-1.24Z"/>
    <path class="cls-4" d="M86.82,55.71c0,.73-.26,1.28-.79,1.67-.53.39-1.29.58-2.27.58s-1.79-.15-2.39-.45v-1.36c.87.4,1.69.6,2.44.6.97,0,1.46-.29,1.46-.88,0-.19-.05-.34-.16-.47-.11-.13-.28-.26-.53-.39-.25-.13-.59-.29-1.03-.46-.86-.33-1.43-.66-1.74-.99-.3-.33-.45-.76-.45-1.29,0-.64.26-1.13.77-1.48.51-.35,1.21-.53,2.09-.53s1.7.18,2.48.53l-.51,1.19c-.8-.33-1.48-.5-2.02-.5-.83,0-1.25.24-1.25.71,0,.23.11.43.33.59.22.16.69.38,1.42.67.61.24,1.06.45,1.34.65.28.2.48.42.62.68s.2.57.2.92Z"/>
    <path class="cls-4" d="M88.43,48.43c0-.28.08-.5.23-.65.15-.15.38-.23.66-.23s.49.08.65.23c.15.15.23.37.23.65s-.08.48-.23.64c-.15.15-.37.23-.65.23s-.51-.08-.66-.23c-.15-.15-.23-.37-.23-.64ZM90.1,57.83h-1.58v-7.43h1.58v7.43Z"/>
    <path class="cls-4" d="M98.9,57.83h-1.59v-4.57c0-.57-.12-1-.35-1.28s-.6-.42-1.1-.42c-.67,0-1.16.2-1.46.59s-.46,1.05-.46,1.98v3.7h-1.58v-7.43h1.24l.22.97h.08c.22-.35.54-.63.95-.82.41-.19.87-.29,1.37-.29,1.78,0,2.67.91,2.67,2.72v4.84Z"/>
    <path class="cls-4" d="M104.34,57.96c-1.16,0-2.06-.34-2.71-1.01-.65-.67-.98-1.6-.98-2.79s.3-2.17.91-2.86c.6-.69,1.44-1.04,2.49-1.04.98,0,1.76.3,2.32.89.57.6.85,1.42.85,2.46v.85h-4.95c.02.72.22,1.28.58,1.66.37.39.88.58,1.55.58.44,0,.85-.04,1.23-.12.38-.08.78-.22,1.22-.41v1.28c-.39.18-.78.31-1.17.39-.39.08-.84.11-1.35.11ZM104.05,51.46c-.5,0-.9.16-1.21.48-.3.32-.48.78-.54,1.39h3.37c0-.61-.16-1.08-.44-1.39-.29-.32-.68-.47-1.18-.47Z"/>
    <path class="cls-4" d="M114.02,55.71c0,.73-.26,1.28-.79,1.67-.53.39-1.29.58-2.27.58s-1.79-.15-2.39-.45v-1.36c.87.4,1.69.6,2.44.6.97,0,1.46-.29,1.46-.88,0-.19-.05-.34-.16-.47-.11-.13-.28-.26-.53-.39-.25-.13-.59-.29-1.03-.46-.86-.33-1.43-.66-1.74-.99-.3-.33-.45-.76-.45-1.29,0-.64.26-1.13.77-1.48.51-.35,1.21-.53,2.09-.53s1.7.18,2.48.53l-.51,1.19c-.8-.33-1.48-.5-2.02-.5-.83,0-1.25.24-1.25.71,0,.23.11.43.33.59.22.16.69.38,1.42.67.61.24,1.06.45,1.34.65.28.2.48.42.62.68s.2.57.2.92Z"/>
    <path class="cls-4" d="M120.71,55.71c0,.73-.26,1.28-.79,1.67-.53.39-1.29.58-2.27.58s-1.79-.15-2.39-.45v-1.36c.87.4,1.69.6,2.44.6.97,0,1.46-.29,1.46-.88,0-.19-.05-.34-.16-.47-.11-.13-.28-.26-.53-.39-.25-.13-.59-.29-1.03-.46-.86-.33-1.43-.66-1.74-.99-.3-.33-.45-.76-.45-1.29,0-.64.26-1.13.77-1.48.51-.35,1.21-.53,2.09-.53s1.7.18,2.48.53l-.51,1.19c-.8-.33-1.48-.5-2.02-.5-.83,0-1.25.24-1.25.71,0,.23.11.43.33.59.22.16.69.38,1.42.67.61.24,1.06.45,1.34.65.28.2.48.42.62.68s.2.57.2.92Z"/>
    <path class="cls-4" d="M131.83,55.16c0,.87-.32,1.56-.95,2.06-.63.5-1.5.75-2.61.75s-2.02-.17-2.73-.52v-1.52c.45.21.92.38,1.43.5.5.12.97.18,1.41.18.64,0,1.11-.12,1.41-.36.3-.24.45-.57.45-.97,0-.37-.14-.68-.42-.93-.28-.26-.85-.56-1.72-.91-.9-.36-1.53-.78-1.9-1.24-.37-.47-.55-1.03-.55-1.68,0-.82.29-1.46.87-1.94.58-.47,1.36-.71,2.35-.71s1.88.21,2.81.62l-.51,1.31c-.87-.37-1.65-.55-2.34-.55-.52,0-.91.11-1.18.34s-.4.53-.4.9c0,.26.05.47.16.66.11.18.28.35.53.51.25.16.69.37,1.33.64.72.3,1.25.58,1.59.84.34.26.58.55.74.88.16.33.24.71.24,1.16Z"/>
    <path class="cls-4" d="M136.56,57.96c-1.12,0-1.98-.33-2.56-.98-.58-.66-.88-1.6-.88-2.83s.31-2.21.92-2.88c.61-.67,1.5-1.01,2.65-1.01.78,0,1.49.15,2.12.44l-.48,1.27c-.67-.26-1.22-.39-1.65-.39-1.29,0-1.93.85-1.93,2.56,0,.83.16,1.46.48,1.88s.79.63,1.41.63c.7,0,1.37-.17,2-.52v1.38c-.28.17-.58.28-.9.36-.32.07-.71.11-1.17.11Z"/>
    <path class="cls-4" d="M146.91,57.83h-1.59v-4.57c0-.57-.12-1-.35-1.28s-.6-.42-1.1-.42c-.66,0-1.15.2-1.46.59-.31.4-.47,1.06-.47,1.99v3.69h-1.58v-10.46h1.58v2.65c0,.43-.03.88-.08,1.36h.1c.22-.36.51-.64.9-.83.38-.2.83-.3,1.34-.3,1.8,0,2.7.91,2.7,2.72v4.84Z"/>
    <path class="cls-4" d="M155.7,54.1c0,1.21-.31,2.16-.93,2.84-.62.68-1.49,1.02-2.6,1.02-.69,0-1.31-.16-1.84-.47-.53-.31-.94-.76-1.23-1.35-.29-.59-.43-1.27-.43-2.04,0-1.2.31-2.15.93-2.82.62-.68,1.49-1.01,2.61-1.01s1.93.35,2.55,1.04c.63.69.94,1.62.94,2.8ZM150.29,54.1c0,1.72.63,2.57,1.9,2.57s1.88-.86,1.88-2.57-.63-2.55-1.89-2.55c-.66,0-1.14.22-1.44.66-.3.44-.45,1.07-.45,1.89Z"/>
    <path class="cls-4" d="M164.11,54.1c0,1.21-.31,2.16-.93,2.84-.62.68-1.49,1.02-2.6,1.02-.69,0-1.31-.16-1.84-.47-.53-.31-.94-.76-1.23-1.35-.29-.59-.43-1.27-.43-2.04,0-1.2.31-2.15.93-2.82.62-.68,1.49-1.01,2.61-1.01s1.93.35,2.55,1.04c.63.69.94,1.62.94,2.8ZM158.7,54.1c0,1.72.63,2.57,1.9,2.57s1.88-.86,1.88-2.57-.63-2.55-1.89-2.55c-.66,0-1.14.22-1.44.66-.3.44-.45,1.07-.45,1.89Z"/>
    <path class="cls-4" d="M167.5,57.83h-1.58v-10.46h1.58v10.46Z"/>
    <path class="cls-4" d="M70.64,71.24c0,1.37-.37,2.42-1.12,3.14s-1.81,1.09-3.21,1.09h-2.3v-8.3h2.54c1.29,0,2.29.36,3.01,1.07.72.72,1.07,1.71,1.07,3ZM69.62,71.27c0-1.08-.27-1.9-.81-2.45s-1.35-.82-2.42-.82h-1.4v6.63h1.18c1.15,0,2.02-.28,2.59-.85s.87-1.4.87-2.51Z"/>
    <path class="cls-4" d="M73.24,69.24v4.04c0,.51.12.89.35,1.14s.59.37,1.08.37c.65,0,1.13-.18,1.43-.53s.45-.94.45-1.74v-3.27h.94v6.22h-.78l-.14-.83h-.05c-.19.31-.46.54-.8.7s-.73.24-1.17.24c-.76,0-1.32-.18-1.7-.54-.38-.36-.56-.94-.56-1.73v-4.07h.95Z"/>
    <path class="cls-4" d="M82.39,69.14c.82,0,1.45.28,1.91.84s.68,1.35.68,2.37-.23,1.82-.68,2.38c-.46.57-1.09.85-1.9.85-.41,0-.78-.07-1.11-.22s-.62-.38-.84-.69h-.07l-.2.8h-.68v-8.84h.94v2.15c0,.48-.02.91-.05,1.29h.05c.44-.62,1.09-.93,1.95-.93ZM82.25,69.93c-.64,0-1.11.18-1.39.55-.28.37-.43.99-.43,1.87s.15,1.5.44,1.88c.29.38.76.56,1.4.56.58,0,1.01-.21,1.29-.63s.43-1.03.43-1.82-.14-1.41-.43-1.81-.72-.6-1.32-.6Z"/>
    <path class="cls-4" d="M90.44,75.47l-.19-.89h-.05c-.31.39-.62.65-.93.79s-.69.21-1.16.21c-.62,0-1.1-.16-1.45-.48-.35-.32-.53-.77-.53-1.36,0-1.26,1.01-1.92,3.02-1.98l1.06-.03v-.39c0-.49-.11-.85-.32-1.08s-.55-.35-1.01-.35c-.52,0-1.11.16-1.76.48l-.29-.72c.31-.17.64-.3,1.01-.39s.73-.14,1.1-.14c.74,0,1.29.16,1.65.49s.54.86.54,1.58v4.25h-.7ZM88.31,74.8c.59,0,1.05-.16,1.38-.48s.5-.77.5-1.35v-.56l-.94.04c-.75.03-1.29.14-1.62.35s-.5.53-.5.96c0,.34.1.6.31.78s.49.27.87.27Z"/>
    <path class="cls-4" d="M93,67.56c0-.22.05-.37.16-.47s.24-.15.4-.15.28.05.39.15.16.26.16.47-.05.37-.16.47-.24.16-.39.16c-.16,0-.29-.05-.4-.16s-.16-.26-.16-.47ZM94.03,75.47h-.94v-6.22h.94v6.22Z"/>
  </g>
  <rect class="cls-1" x="21.17" y="66.56" width="2.68" height="9.51"/>
  <polygon class="cls-1" points="36.31 66.56 35.49 66.56 33.6 66.56 31.7 72.58 31.65 72.58 31.59 72.58 29.7 66.56 27.81 66.56 26.99 66.56 25.47 66.56 25.47 76.06 28.1 76.06 27.87 68.79 27.99 68.79 30.54 76.06 31.65 76.06 32.76 76.06 35.31 68.79 35.42 68.79 35.2 76.06 37.83 76.06 37.83 66.56 36.31 66.56"/>
  <polygon class="cls-1" points="38.75 66.56 38.75 68.73 41.32 68.73 41.32 76.06 43.99 76.06 43.99 68.74 46.71 68.74 46.71 66.56 38.75 66.56"/>
  <path class="cls-1" d="M47.56,49.34l-4.78-15.34h-3.21l4.35,16.55c.59,4.02-2.81,3.64-2.81,3.64h-5.6v-1.61h-1.96s0,0,0,0h-1.97v1.62h-5.6s-3.4.38-2.81-3.64l4.35-16.55h-3.2l-4.78,15.34s-1.5,3.98.65,6.49c2.16,2.51,4.61,2.47,5.6,2.47h5.79v5.71h3.94v-5.71h5.79c.98,0,3.43.03,5.59-2.47,2.16-2.51.66-6.49.66-6.49"/>
  <path class="cls-1" d="M39.46,51.56c0,.22-.17.4-.38.4h-11.05c-.21,0-.38-.18-.38-.4v-.7c0-.22.17-.4.38-.4h11.05c.21,0,.38.18.38.4v.7Z"/>
  <rect class="cls-1" x="30.63" y="48.55" width="5.84" height="1.21"/>
  <path class="cls-1" d="M33.24,47.62s1.56-1.22,2.29-3.38c.73-2.16.26-3.62,3.01-4.76,0,0-.21.42,0,2.66.21,2.24.03,3.23-1.72,4.65,0,0-1.76,1.18-3.58.83"/>
  <path class="cls-1" d="M29.42,38.85s-1.23,2.57-.84,4.64c.39,2.08,1.09,4.08,3.75,3.89,0,0,1.24-.08,1.46-1.45.22-1.37-.21-1.71-1.3-2.81-1.1-1.1-2.29-2.01-3.06-4.27"/>
  <path class="cls-1" d="M31.07,34.89s-1.33,1.48-.88,4.12c0,0,.23,1.51,1.81,2.74,1.58,1.23,2.43,2.26,2.43,3.42,0,0,.8-1.1.97-3.19.17-2.09-.92-3.66-1.38-4.23-.47-.57-2.51-1.98-2.95-2.86"/>
  <path class="cls-1" d="M36.05,33.64s-1.62,1.48-1.55,3.02c.06,1.55,1.05,2.6,1.27,3.08.22.48.16,1.02.16,1.02,0,0,.96-.49,1.3-1.98.34-1.49-.01-2.14-.69-3.43-.67-1.29-.49-1.71-.49-1.71"/>
  <path class="cls-1" d="M33.45,28.02s-2.01,3.72-1.69,5.98c.33,2.26,2,2.59,2,2.59,0,0,1.47-1.13,1.16-3.87,0,0-.17-1.02-.61-2.02-.44-1.01-.85-2.15-.87-2.68"/>
  <rect class="cls-2" x="55.48" y="34" width=".38" height="42.06"/>
  <path class="cls-3" d="M16.64,87.19c0,2.65-2.05,4.79-4.57,4.79s-4.57-2.15-4.57-4.79,2.04-4.79,4.57-4.79,4.57,2.15,4.57,4.79"/>
  <path class="cls-3" d="M31.16,87.19c0,2.65-2.05,4.79-4.57,4.79s-4.57-2.15-4.57-4.79,2.05-4.79,4.57-4.79,4.57,2.15,4.57,4.79"/>
  <path class="cls-3" d="M45.68,87.19c0,2.65-2.05,4.79-4.57,4.79s-4.57-2.15-4.57-4.79,2.05-4.79,4.57-4.79,4.57,2.15,4.57,4.79"/>
  <path class="cls-3" d="M60.21,87.19c0,2.65-2.05,4.79-4.57,4.79s-4.57-2.15-4.57-4.79,2.05-4.79,4.57-4.79,4.57,2.15,4.57,4.79"/>
</svg>