<?xml version="1.0" encoding="UTF-8"?>
<svg id="Layer_1" data-name="Layer 1" xmlns="http://www.w3.org/2000/svg" xmlns:xlink="http://www.w3.org/1999/xlink" viewBox="0 0 175 120">
  <defs>
    <style>
      .cls-1 {
        fill: #00a7e1;
      }

      .cls-1, .cls-2, .cls-3, .cls-4, .cls-5, .cls-6, .cls-7, .cls-8, .cls-9, .cls-10, .cls-11, .cls-12, .cls-13, .cls-14 {
        stroke-width: 0px;
      }

      .cls-2 {
        fill: url(#linear-gradient-3);
      }

      .cls-2, .cls-5 {
        mix-blend-mode: multiply;
      }

      .cls-15 {
        filter: url(#luminosity-noclip-3);
      }

      .cls-16 {
        clip-path: url(#clippath);
      }

      .cls-3, .cls-9 {
        fill: none;
      }

      .cls-17 {
        mask: url(#mask);
      }

      .cls-18 {
        filter: url(#luminosity-noclip);
      }

      .cls-4 {
        fill: url(#radial-gradient);
      }

      .cls-5 {
        fill: url(#linear-gradient);
      }

      .cls-19 {
        clip-path: url(#clippath-1);
      }

      .cls-20 {
        clip-path: url(#clippath-4);
      }

      .cls-21 {
        clip-path: url(#clippath-3);
      }

      .cls-22 {
        clip-path: url(#clippath-2);
      }

      .cls-23 {
        clip-path: url(#clippath-7);
      }

      .cls-24 {
        clip-path: url(#clippath-8);
      }

      .cls-25 {
        clip-path: url(#clippath-6);
      }

      .cls-26 {
        clip-path: url(#clippath-5);
      }

      .cls-27 {
        clip-path: url(#clippath-9);
      }

      .cls-6 {
        fill: #17171c;
      }

      .cls-7 {
        fill: #80bc00;
      }

      .cls-28 {
        clip-path: url(#clippath-10);
      }

      .cls-29 {
        clip-path: url(#clippath-11);
      }

      .cls-8 {
        fill: url(#radial-gradient-2);
      }

      .cls-9 {
        clip-rule: evenodd;
      }

      .cls-10 {
        fill: #93d500;
      }

      .cls-30 {
        opacity: .75;
      }

      .cls-11 {
        fill: #f5333f;
      }

      .cls-12 {
        fill: url(#linear-gradient-4);
      }

      .cls-13 {
        fill: url(#linear-gradient-2);
      }

      .cls-31 {
        isolation: isolate;
      }

      .cls-14 {
        fill: #fff;
      }

      .cls-32 {
        mask: url(#mask-3);
      }

      .cls-33 {
        mask: url(#mask-2);
      }

      .cls-34 {
        mask: url(#mask-1);
      }
    </style>
    <clipPath id="clippath">
      <path id="SVGID" class="cls-3" d="M81.47,60.5c0,5.05,4.09,9.15,9.14,9.15s9.15-4.1,9.15-9.15-4.09-9.15-9.15-9.15-9.14,4.1-9.14,9.15"/>
    </clipPath>
    <radialGradient id="radial-gradient" cx="1758.21" cy="217.26" fx="1758.21" fy="217.26" r=".86" gradientTransform="translate(-34565.2 -4213.94) scale(19.71)" gradientUnits="userSpaceOnUse">
      <stop offset="0" stop-color="#c5db6a"/>
      <stop offset=".12" stop-color="#a3cf5f"/>
      <stop offset=".25" stop-color="#84c456"/>
      <stop offset=".26" stop-color="#83c355"/>
      <stop offset=".75" stop-color="#56964b"/>
      <stop offset="1" stop-color="#458547"/>
    </radialGradient>
    <filter id="luminosity-noclip" x="81.15" y="49.58" width="17.32" height="15.42" color-interpolation-filters="sRGB" filterUnits="userSpaceOnUse">
      <feFlood flood-color="#fff" result="bg"/>
      <feBlend in="SourceGraphic" in2="bg"/>
    </filter>
    <clipPath id="clippath-1">
      <rect id="SVGID-2" data-name="SVGID" class="cls-3" x="82.81" y="51.56" width="14.02" height="11.47"/>
    </clipPath>
    <clipPath id="clippath-2">
      <path id="SVGID-3" data-name="SVGID" class="cls-9" d="M96.8,56.52c.35,3.14-2.5,6.03-6.35,6.46-3.86.43-7.26-1.77-7.61-4.91-.35-3.14,2.5-6.03,6.35-6.45,3.86-.43,7.27,1.77,7.61,4.91"/>
    </clipPath>
    <filter id="luminosity-noclip-2" x="81.15" y="-7965.98" width="17.32" height="32766" color-interpolation-filters="sRGB" filterUnits="userSpaceOnUse">
      <feFlood flood-color="#fff" result="bg"/>
      <feBlend in="SourceGraphic" in2="bg"/>
    </filter>
    <mask id="mask-1" x="81.15" y="-7965.98" width="17.32" height="32766" maskUnits="userSpaceOnUse"/>
    <linearGradient id="linear-gradient" x1="1880.58" y1="388.33" x2="1881.43" y2="388.33" gradientTransform="translate(4322.72 -20446.37) rotate(90) scale(10.9)" gradientUnits="userSpaceOnUse">
      <stop offset="0" stop-color="#fff"/>
      <stop offset=".11" stop-color="#e6e7e7"/>
      <stop offset=".66" stop-color="#747578"/>
      <stop offset=".9" stop-color="#47484c"/>
      <stop offset=".98" stop-color="#323337"/>
      <stop offset="1" stop-color="#2c2d30"/>
    </linearGradient>
    <mask id="mask" x="81.15" y="49.58" width="17.32" height="15.42" maskUnits="userSpaceOnUse">
      <g class="cls-18">
        <g class="cls-19">
          <g class="cls-31">
            <g class="cls-22">
              <g class="cls-34">
                <rect class="cls-5" x="81.86" y="50.42" width="15.91" height="13.75" transform="translate(-5.75 10.22) rotate(-6.31)"/>
              </g>
            </g>
          </g>
        </g>
      </g>
    </mask>
    <clipPath id="clippath-3">
      <rect id="SVGID-4" data-name="SVGID" class="cls-3" x="82.81" y="51.56" width="14.02" height="11.47"/>
    </clipPath>
    <clipPath id="clippath-4">
      <path id="SVGID-5" data-name="SVGID" class="cls-9" d="M96.8,56.52c.35,3.14-2.5,6.03-6.35,6.46-3.86.43-7.26-1.77-7.61-4.91-.35-3.14,2.5-6.03,6.35-6.45,3.86-.43,7.27,1.77,7.61,4.91"/>
    </clipPath>
    <linearGradient id="linear-gradient-2" x1="1880.58" y1="388.33" x2="1881.43" y2="388.33" gradientTransform="translate(4322.72 -20446.37) rotate(90) scale(10.9)" gradientUnits="userSpaceOnUse">
      <stop offset="0" stop-color="#bfd96f"/>
      <stop offset=".24" stop-color="#aad268"/>
      <stop offset=".9" stop-color="#74c058"/>
      <stop offset="1" stop-color="#74c058"/>
    </linearGradient>
    <clipPath id="clippath-5">
      <rect id="SVGID-6" data-name="SVGID" class="cls-3" x="82.25" y="51.35" width="17.51" height="18.02"/>
    </clipPath>
    <clipPath id="clippath-6">
      <path id="SVGID-7" data-name="SVGID" class="cls-3" d="M81.52,60.34c0,5.05,4.09,9.15,9.15,9.15s9.15-4.1,9.15-9.15-4.1-9.15-9.15-9.15-9.15,4.1-9.15,9.15"/>
    </clipPath>
    <radialGradient id="radial-gradient-2" cx="1758.22" cy="217.26" fx="1758.22" fy="217.26" r=".86" gradientTransform="translate(-34567.17 -4214.33) scale(19.71)" xlink:href="#radial-gradient"/>
    <filter id="luminosity-noclip-3" x="81.2" y="49.43" width="17.32" height="15.42" color-interpolation-filters="sRGB" filterUnits="userSpaceOnUse">
      <feFlood flood-color="#fff" result="bg"/>
      <feBlend in="SourceGraphic" in2="bg"/>
    </filter>
    <clipPath id="clippath-7">
      <rect id="SVGID-8" data-name="SVGID" class="cls-3" x="82.85" y="51.4" width="14.02" height="11.47"/>
    </clipPath>
    <clipPath id="clippath-8">
      <path id="SVGID-9" data-name="SVGID" class="cls-9" d="M96.85,56.37c.34,3.14-2.5,6.03-6.35,6.45-3.86.43-7.26-1.77-7.61-4.91-.35-3.14,2.5-6.03,6.35-6.45,3.86-.43,7.26,1.77,7.61,4.91"/>
    </clipPath>
    <filter id="luminosity-noclip-4" x="81.2" y="-7965.98" width="17.32" height="32766" color-interpolation-filters="sRGB" filterUnits="userSpaceOnUse">
      <feFlood flood-color="#fff" result="bg"/>
      <feBlend in="SourceGraphic" in2="bg"/>
    </filter>
    <mask id="mask-3" x="81.2" y="-7965.98" width="17.32" height="32766" maskUnits="userSpaceOnUse"/>
    <linearGradient id="linear-gradient-3" x1="1880.59" y1="388.33" x2="1881.43" y2="388.33" gradientTransform="translate(4322.65 -20445.69) rotate(90) scale(10.9)" xlink:href="#linear-gradient"/>
    <mask id="mask-2" x="81.2" y="49.43" width="17.32" height="15.42" maskUnits="userSpaceOnUse">
      <g class="cls-15">
        <g class="cls-23">
          <g class="cls-31">
            <g class="cls-24">
              <g class="cls-32">
                <rect class="cls-2" x="81.91" y="50.26" width="15.91" height="13.75" transform="translate(-5.74 10.22) rotate(-6.31)"/>
              </g>
            </g>
          </g>
        </g>
      </g>
    </mask>
    <clipPath id="clippath-9">
      <rect id="SVGID-10" data-name="SVGID" class="cls-3" x="82.85" y="51.4" width="14.02" height="11.47"/>
    </clipPath>
    <clipPath id="clippath-10">
      <path id="SVGID-11" data-name="SVGID" class="cls-9" d="M96.85,56.37c.34,3.14-2.5,6.03-6.35,6.45-3.86.43-7.26-1.77-7.61-4.91-.35-3.14,2.5-6.03,6.35-6.45,3.86-.43,7.26,1.77,7.61,4.91"/>
    </clipPath>
    <linearGradient id="linear-gradient-4" x1="1880.59" y1="388.33" x2="1881.43" y2="388.33" gradientTransform="translate(4322.69 -20445.68) rotate(90) scale(10.9)" xlink:href="#linear-gradient-2"/>
    <clipPath id="clippath-11">
      <rect id="SVGID-12" data-name="SVGID" class="cls-3" x="82.3" y="51.2" width="17.51" height="18.02"/>
    </clipPath>
  </defs>
  <polygon class="cls-10" points="104.37 57.92 104.8 59.25 106.2 59.25 105.07 60.08 105.5 61.41 104.37 60.59 103.23 61.41 103.67 60.08 102.53 59.25 103.93 59.25 104.37 57.92"/>
  <polygon class="cls-10" points="77.17 61.41 76.96 60.03 75.57 59.8 76.82 59.17 76.61 57.79 77.59 58.78 78.85 58.15 78.21 59.39 79.19 60.38 77.81 60.16 77.17 61.41"/>
  <g class="cls-16">
    <rect class="cls-4" x="81.47" y="51.35" width="18.29" height="18.29"/>
  </g>
  <g class="cls-17">
    <g class="cls-21">
      <g class="cls-20">
        <rect class="cls-13" x="81.86" y="50.42" width="15.91" height="13.75" transform="translate(-5.75 10.22) rotate(-6.31)"/>
      </g>
    </g>
  </g>
  <g class="cls-30">
    <g class="cls-26">
      <path class="cls-14" d="M87.44,54.77c.06,0,.1-.1.17-.05h0c-.02.14-.16.16-.22.25h0s0,0,0,0h0s-.03.04-.11.04h-.01s-.03.02-.05.04c.03.16.22-.11.35-.04h0s0,.04-.25.15t.11,0s0,.02-.03.05c.13.29.4-.27.66-.15h0s0,.02,0,.02v.03s.03.02.08-.02c.03,0,.04,0,.09.05h0c.05.06.13.08.19.13h0q-.06.05-.06.07s.03.02.06.02h0s-.01.04-.01.04c.1.04.11-.03.11-.04h-.01v-.03c.07-.02.18.03.21.06h0s0,0,0,0h0s0,0,0,0c-.13.04-.16.06-.18.07t.06,0h0c-.05.1-.05.12-.05.15h.01s.03,0,.03,0c.02-.01.06-.03.12-.09-.02-.01-.05-.02-.08-.03h0s.02-.01.02-.01h0s0,0,0,0t.2.07h0c-.12.13-.18.19,0,.28h0s-.02.05-.02.09c.13,0,.13.16.22.2,0-.06.02-.09.04-.11h0c.15.3.18.3.9.2q-.1-.26-.12-.3h-.01c-.02-.09.04-.17,0-.25h0q-.12-.05-.14-.06h0c.09-.05.09-.17.16-.23h0s0,0,.03.07h.04s0,0,0,0c.02-.02.05-.06.06-.09.05-.13-.02-.27.02-.4.06-.18.26-.27.31-.46-.09.04-.23.1-.25.11h0s0,0,0,0h0s0,0,0,0h0s-.04.06-.08.05h0s0-.02,0-.02t-.05,0h0c.01-.06-.05-.1-.02-.15h0c.07.05.08.06.1.07h.01c0-.08,0-.09.04-.11.07-.03.15,0,.21-.03h0c.05-.09-.16-.08-.24-.07-.1,0-.15.01-.17-.03h.02s-.02-.02-.02-.02c.09.04.15.02.18,0h.01s0-.02,0-.02c-.09-.03-.17.06-.25-.01h0c.06-.06.14-.04.2-.08h.01s-.01-.04-.01-.04c-.02,0-.05.02-.1.02h0s0-.02,0-.02c.02-.04.11-.07.07-.13h0c-.1.05-.13.03-.14.03h0s0-.04,0-.04c-.09-.06-.18.04-.28,0h0c.04-.08.13-.07.17-.13,0,0-.09-.02-.14.01h-.01s0-.02.03-.04c-.09.03-.1.05-.09.07h0q-.08-.08-.08-.08h0s-.01-.02-.01-.02t.05-.03v-.02c-.06-.04-.07-.04-.1-.02h0s-.01-.02-.01-.02t.09-.06h0s-.04,0-.06-.01c.02-.01.05-.01.07-.03v-.02s-.08,0-.1.02h0s0-.03.09-.11c.02-.02.04-.04,0-.07-.02-.01-.06-.02-.13.04h0s-.07.1-.12.15h0s0,.11-.04.16h0s-.01-.1-.04-.14c-.1,0-.03.2-.14.18t-.02-.05c-.05,0-.19.1-.21.16h0s-.02-.07.03-.13c.07-.08.17-.12.25-.19-.12,0-.17.13-.28.15h0s0-.02,0-.02c.01-.03.04-.05.06-.07-.03,0-.05-.02-.11.03-.04.04-.07.08-.11.11-.06.04-.16.01-.18.11.03.01.03.02.03.06h.02s-.03.02-.06.03c.03.01.03,0,.05,0h0s-.02.06-.13.05h0s.01-.05.01-.07t-.05.01h-.01s0,0,0,0c-.08.05-.09.09-.1.1q.14.02.16.04h0s-.08,0-.12,0h-.02s0,.01,0,.01q.08.01.12.03h0c-.06.1-.17.04-.25.07.02.01.03.01.06.04h0s-.02.01-.15,0h.02s-.03.03-.09.04h0s-.02.01-.08.04h-.01c-.11.05-.13.08-.14.11t.04.05h0c-.04.12-.18.11-.25.2M90.17,51.65h0s.01.01.04.02q.42.13.73.15s.01,0,.07,0h0s.05.02.05.02h0s0,0,0,0h0s.17.02.2,0t-.02-.02h.01c.06,0,.06,0,.07,0-.02-.04-.06-.04-.08-.07-.42.11-1.04-.08-1.05-.08h-.03ZM84.9,55.99s-.07.01-.13.05c0,0,.01.01.02.03h0s-.05.05-.1.07h0s.04,0,.04,0c0,0,0,.01-.02.03.1-.01.12-.02.12.02h0s-.1.01-.15.04c.04.13.22-.03.28.1h0c-.04.06-.07.08-.18.04-.05-.02-.08-.03-.11-.01,0,.06,0,.19.17.21.08.02.16,0,.21-.02.12-.04.25-.08.39-.06-.04-.02-.07-.03-.08-.04h0s0,0,0,0h0q.15-.03.16-.02c0-.1-.12-.1-.16-.17h0s0-.02.02-.08c.03-.07.07-.14.1-.21,0-.03-.02-.03-.04-.02-.05.01-.05.02-.16.07h0c-.02.06,0,.12-.01.18h0s-.04.02-.05,0c-.03-.04-.03-.1-.06-.15,0,.02,0,.04,0,.08h0c-.08.02-.09,0-.09-.01h0s.01-.01.01-.01c-.02-.02-.11-.03-.15-.01h0c.05-.07.03-.1-.03-.08M86.87,55.53h0c-.15,0-.29.1-.45.1-.11,0-.16-.02-.17-.1h0s.03.03.07,0c-.02-.02-.06-.04-.12-.03-.09.02-.03.17.03.2.07.05.18.03.23.02.13-.03.19-.06.38-.14l-.02-.03h0s.03.01.04-.03M86.45,54.93h0s-.03.04-.03.03c0,.02,0,.04.05.03h0s0,0,0,0c.03,0,.07-.02.16-.07h0s0,0,0,0h0s0,0,0,0h0s-.02.03-.04.06c0,0,.31-.18.34-.11h0c-.04.06-.06.07-.18.12.02.02.03.03.04.05h0c-.06,0-.11-.05-.17-.05-.06.02-.04.09-.02.1.05.04.15-.03.17.05h0s-.06.04-.12.04c-.11,0-.12.04-.12.04.03.03.13.04.17.04h0c-.05.06-.1.1-.12.11-.05,0-.06-.06-.11-.07-.01,0-.02,0-.03.03.01.02.02.03.04.03h0s0,.02,0,.02h0s0,0,0,0h0s-.08.04-.13.05h0c0,.05.08.05.09.04v-.02s0,0,0,0c.12-.05.26-.01.38-.07h0s-.02.03-.02.03c.08-.03.1-.05.11-.06h0s0,0,0,0c.02.01.03,0,.03-.02-.02-.03-.03-.03-.08-.02h0s0,0,0,0h0s0,0,0,0h0s-.07.01-.09-.02h0s.02-.04.05-.04c.04,0,.07.01.11,0h0s.02-.01.02-.01h0s-.02,0-.02-.04h0s0,0,0,0c.01-.02.03-.04.11-.06t.08-.12s-.06,0-.09.02h0c.03-.08.05-.1.22-.19.19-.1.26-.14.26-.23-.03,0-.05.01-.09,0h0s.03-.04.11-.07h0s0,0,0,0c.03-.01.08-.03.09-.08v-.02c-.07-.02-.18.02-.2.02h0s0,0,0,0h0s-.02.01-.02.01t-.34.11c-.49.15-.59.22-.72.3.02.04.07-.01.09.02M89.21,62.99h0s0,0,0,0c.19-.05.38-.1.57-.15h.01s0,0,0,0c-.08-.01-.59-.07-.71-.03-.03.01-.03.02-.01.03.03.03.15.14.15.14h0ZM91.18,54.83h0s0,0,0,0h0s.11-.09.11-.14c0,0,0-.18-.02-.24-.01-.01-.03-.05-.09.04h0s-.07-.07-.11-.03c-.02.03-.03.07-.06.1,0,0-.02.03-.04.04.02,0,.03,0,.05.02h0s-.06.01-.11.05c-.03.03-.02.04-.01.05h.01s.02.03-.11.05c-.09,0-.09,0-.11.02h0s0,0,0,0c.02.01.05,0,.07.02h0q-.07.02-.06.04h0s0,0,0,0h0s0,.05.02.06h0s.05-.06.08-.08c.02-.02.04,0,.05,0,.02.03-.05.13-.05.13.02,0,.03,0,.06-.02.06-.03.09-.04.15-.02h0s-.03.03-.05.05h0s.12-.05.22-.13M96.87,54.34h.01q1.13.89,1.36,1.2h0s0,0,0,0c-.27-.44-.65-.91-1.11-1.4l-.13-.13s-.09-.08-.13-.12h0s.03.04.05.05l.02.02h0s0,0,0,0h0s0,0,0,0h0s0,0,0,0h0s.05.05.07.07h0c-.14-.12-.29-.23-.44-.35h0s0,0,0,0c-.02-.02-.04-.04-.06-.06h0s.08.03.12.05c-.22-.18-.51-.43-.74-.59-.71-.48-.8-.53-1.42-.84-.71-.31-.86-.37-1.62-.59-.63-.14-1.04-.24-1.87-.29-.9-.02-1.32,0-2.16.14-.2.04-.33.07-.42.09h0s.08,0,.13-.02h0s.04,0,.06-.01c-.01,0-.04,0-.05,0h0c.09-.02.2-.05.38-.07h-.01c-.33.07-.44.09-.52.11v.02c.07-.01.15-.03.22-.04h0s-.05.01-.07.02c.04,0,.08,0,.11,0h0s-.04,0-.06.01t-.02,0h.09c.19-.04.29-.06.31-.07h-.02s0,0,0,0c.13-.02.19-.02.2-.02h0s0,0,0,0c-.04,0-.04.01-.04.01.12,0,.57-.04.65-.05h-.01s0-.01,0-.01c.12-.01.24.02.36.01.02-.02.04-.04.07-.05h0q.08,0,.18-.03s-.04.02-.06.02h-.02s.02,0,.02,0c-.03,0-.08,0-.11,0,.03.01.08.03.11.04h.04s0,0,0,0h0s.08,0,.12,0l-.02-.02h0s.04,0,.06.01v.03s0,0,0,0c-.02,0-.05,0-.07.01h0c.08,0,.1.01.14,0,.13-.03.14-.03.22-.03l-.04-.02h0v-.03h0s.06,0,.08,0h.03s-.04.02-.06.03h0s.09.01.13.01h0s0,0,0,0c.24.01.33.03.41.04-.04.01-.04.01-.04.01h0c-.28-.06-.44-.03-.62.02h-.01s0,0,0,0h0s-.1,0-.14,0l-.02.02s.43.09.58-.02c.09.02.14.11.23.13h0c.07,0,.12.01.17.03h0s-.05,0-.07,0h-.02q.15.06.24.1v.03s0,0,0,0c-.02,0-.04,0-.06-.01.09.05.19.09.28.13h0s.09.04.12.06c-.01.01-.04.03-.05.04-.01,0-.03-.02-.05-.03v-.02s-.05,0-.07,0l-.02.05c.22,0,.41.14.63.15h0s.01.05.02.07c-.01.01-.03.03-.04.05h0s0,.02,0,.02c.04,0,.09-.02.12-.04-.09.14-.4.13-.41.13,0-.02-.02-.04-.03-.05.04-.03.09-.07.13-.1l.02-.04q-.13-.11-.48.16h0s-.01.04-.02.06c-.02,0-.05.03-.07.03h0s-.02-.04-.02-.04c-.03.02-.07.05-.1.06h0s.04.03.06.04v.02s.07.04.1.06h-.04s-.08-.03-.11-.04c0,.04,0,.04,0,.04.02,0,.04.02.06.02,0,.02,0,.04-.01.06h.01s.05,0,.05,0h0s0,0,0,0v.04s.06,0,.06,0h0l-.05.04h0s.06.04.06.04h-.02s-.01,0-.01,0h-.04c.05.06.06.07.13.11h0s.04.03.05.04h0s-.06.06-.09.09c.03.03.08.07.13.09-.03-.06-.05-.11-.04-.13h0c.39.24.49.78.97.93t.02,0s.1-.04.14-.05l.04-.03s0,0-.09-.23h0c.21.02.42.09.63.07,0-.06-.04-.25-1.06-.78h-.04s0-.01,0-.01h0s0,0,0,0h0q-.12-.04-.16-.1s.02-.04.02-.06q.07-.03.12-.02h0c.14.1.19.15.25.25.11.03.22.04.33.09.04,0,.09-.01.13-.01-.08-.21-.05-.27-.02-.33.02,0,.06,0,.08,0h0s0,0,0,0q.01.05.03.28h0s0,0,0,0c.01.01.03.03.05.04.02,0,.04,0,.06,0h.04v-.02h0s0,0,0,0c.08.04.15.07.18.09h0s-.08.03-.12.04t.36.19s.02.11.05.15q-.06.24.05.33h-.02s-.01-.02-.01-.02q-.15-.02-.15-.02h0s0,.11.02.15c-.09,0-.17.05-.25,0h0s.06,0,.06,0c-.02-.01-.04-.02-.06-.03h-.04s0,0,0,0h0s0,0,0,0h0s0,0,0,0c-.01-.03-.03-.06-.04-.09h0q-.15-.03-.19-.04l-.04.04c.06.09.22.17.48.24.02.05.04.11-.01.31h0q.24.54.24.54s-.04.03-.05.04l-.05.02s0,.04,0,.06c.04.02.08.04.12.06h0s0,0,0,0q-.16.15-.17.2c1.07-.15.64.39.63.39t-.19.19h0c-.29.34.37.51.55.76.06-.05.11-.12.16-.17,0,.02.02.04.03.05.04-.01.09-.04.12-.07l.02-.03h0c.19-.24.12-.4-.04-.57h0c-.05-.37-.21-.56-.25-.58h0q-.01-.06,0-.15h0s.05,0,.06.01c.02-.01.04-.03.06-.04,0-.17,0-.3.08-.33,0,0,.65-.21.82.01.01.01.02.04.03.06v.04q-.09.14-.07.18c.17,0,.21-.06.21-.06-.11-.2-.26-.33-.32-.38-.01-.01-.04-.03-.05-.04l.04-.05.04-.02h0c-.26-.05-.61.24-.8-.09v-.05c.12-.07.58-.08.58-.08h0s0,0,0,0h0q.47.16.52.03h0q-.02.14,0,.17s.08.04.11.05h0s.03-.02.03-.02q-.02-.06-.11-.1h.01s-.05-.07-.06-.1h-.02s0,0,0,0c.02,0,.04-.02.06-.03q-.14,0-.17-.01h0c-.09-.02-.11-.02-.16-.06.02-.01.04-.02.06-.04-.03-.03-.06-.05-.1-.06h0s0,0,0,0c.06-.1,0-.22.06-.32h0c.06.09.02.21.13.28v-.05s.01,0,.01,0c.06.04.08.06.12.07h0s.02.05.03.06c.02,0,.02,0,.02,0,.02,0,.04-.01.06-.02.03.02.09.03.12.03.01-.02.03-.04.04-.06v-.02s-.02-.04-.03-.06h-.01s0-.01,0-.01t-.08-.33h0c.52.37.71.57.75.75.04.02.06.02.25.14t-.21-.26M95.63,53.75h0c0,.07-.05.09-.17.06h0c-.13-.21-.37-.31-.51-.51h0s0,0,.03,0h0s.01.01.03,0c.01-.02-.02-.05,0-.07h.02s.15.15.15.06v-.02h0c-.02-.08-.02-.08-.11-.15,0,.02.01.04.02.06h0s-.01.02-.08,0h0s-.02-.03-.07-.09c-.11-.13-.15-.18-.15-.21t.03,0h0s.07.09.11.12h0s0,0,0,0c.03-.01.15.09.15.1h.02c.09.02.16-.04.24-.03h.03s.04.02.07.04c.18.11.22.3.14.33-.02,0-.04,0-.06,0q.12.25.12.31M92.67,54.54h0s-.01-.02-.01-.02h-.01s0,0,0,0c-.03-.02-.02-.06-.04-.09-.04.02-.04.03-.06.05-.01.05,0,.08.08.18h0q-.07.01-.07.03h0s.08,0,.1,0h0s0,0,0,0c.01.02.07.08.09.08h0s-.03-.06-.03-.06h0s.02.07.04.1h0s0,0,0,0c0,0,.01-.03,0-.06h0s.04.02.07.03c-.02-.04-.02-.06,0-.06h0s.06.04.06.06q.14-.04.15-.05h0s0,0,0,0h0c.06.01.1.07.17.08h0s-.03.05-.08.06c.01.02.02.03.03.05.06-.05.08.03.11.13.02-.01.02-.01.05-.05.05-.06.08-.08.11-.07h0c.02.1-.05.2,0,.3l.02-.02h0s0,0,0,0c.1-.12.19-.4.18-.51-.01.01-.03.02-.06.02h0s-.03-.08-.06-.1c-.03-.02-.06-.02-.15.04h0c-.07-.09-.4-.09-.49-.09-.1,0-.1-.11-.16-.16-.02,0-.03,0-.07.04h0s0,0,0,0h0s-.03.03-.05.06h0s0,0,0,0h0ZM93.01,55.37s.07,0,.1-.03h0c.1-.11.09-.3-.02-.29,0,0-.01,0-.03,0h0s-.03-.05-.01-.07c-.04-.02-.05-.02-.06-.02h0s0,0,0,0c0-.02,0-.02,0-.04,0-.02,0-.02,0-.03,0,0-.08-.08-.19.02h0s-.06.09,0,.13c.01,0,.04.02.04.03,0,.03-.04.04-.05.07.03,0,.06.06.06.06.01.02.05,0,.05,0t.05-.02s.03.04.04.17c.04-.02.03.01.03.01h0ZM90.12,52.87h0c.16.05.26-.09.26-.11h.01s.03.04.08.07c0-.03,0-.04,0-.07h0c.07.02.08.03.05.05.08-.01.12-.07.12-.07-.06-.02-.28-.09-.29-.09h-.02q-.16.06-.16.08s.03.02.04.02c0,0,.02-.02.12-.01h0s-.03,0-.06.02c-.06.01-.08.02-.08.03,0,.03.03.05,0,.08-.02.02-.06.02-.11.02M94.14,64.13h0s0,0,0,0h0s-.03.1-.05.15h0c-.01-.05-.03-.11-.03-.16-.02,0-.05-.02-.07-.02l-.04.04h0s0-.02,0-.02c-.06-.02-.11-.04-.29.04h0q-.05.03-.17.12s.02-.05.02-.08q-.02-.06-.02-.05h0c-.26.15-.27.16-.29.2h0s0-.01,0-.01v-.02s0,0,0,0c.03-.34-.31-.52-.31-.52-.6-.19-1.24,0-1.85-.15h0s-.02-.05-.02-.05c-.08.02-.15.03-.23.05q-.04.1-.39.24l-.05.03c-.13-.05-.26-.12-.39-.18h0c-.1.16.14.36-.04.5-.09-.1-.17-.29-.13-.43h-.02c-.29.18-.31.55-.53.79h0c-.07-.04-.18-.09-.4-.12h-.02s0,0,0,0c-.71.44-.77-.2-.77-.21q.02-.38-.02-.4c-.29-.12-.55.21-.84.04h0s0,0,0,0h0s0,0,0,0h0s0-.01,0-.01c0-.08,0-.16-.02-.4h.01s.02.03.02.03h0c0-.14-.03-.28-.04-.42q-.25,0-.46.46s.04,0,.06,0h0c-.18.11-.43.17-.45.17h0q-.59-.74-.55-1.47v-.04q.13-.11.77-.14s.05-.02.07-.02c0-.04,0-.1-.03-.14,0-.02,0-.02,0-.02h0s0,0,0,0c-.02,0-.05.01-.08.02l-.03-.03h0s0,0,0,0c.31-.15.76-.12.82-.11.29.1.35.44.61.57.03-.2-.12-.32-.18-.49l.02.02h0q-.22-.39.25-1.03s-.02-.06-.04-.07h0q.03-.12-.06-.29h0s.02-.05.02-.07c-.01-.02-.03-.04-.04-.06,0-.01.01-.03.02-.05h0s.04.04.06.05c.02.05.02.05.02.05,0-.16,0-.17,0-.25h0c.23-.19.24-.23.3-.33-.04.02-.09.04-.14.06h-.01s0-.03.34-.18q-.09-.34.01-.39h0c.14-.11.16-.15.19-.22h-.01s0-.01,0-.01h0s0,0,0,0h0c.09-.06.16-.15.26-.19h0,0s0,0,0,0h0s.06.03.09.04q-.21.2-.21.26s.05.02.07.03c.22-.16.31-.27.38-.35-.02-.1.03-.19.02-.28h-.02q-.17.32-.5.16s.02-.05.02-.08c-.07,0-.14.02-.21.02h0v-.02h0c.16-.11.17-.13.22-.2q-.15-.04-.57.49v-.02c.15-.66.99-.67,1.19-1.29h-.03s0-.02,0-.02c-.01-.02-.03-.04-.04-.06h-.02s0,0,0,0l-.04.05h0q-.16-.05-.18-.06h0s.04-.04.06-.06q-.07-.05-.25-.02h-.03s-.02.02-.02.02h0v-.07s-.11,0-.15-.02h0s0,0,0,0h0q-.04-.15-.4-.39c-.04.08-.05.16-.08.24h0c-.12.1-.13.11-.16.16v-.02s-.02-.05-.03-.07c-.03,0-.09.01-.12.03h0s.03-.04.05-.05c-.03-.03-.07-.07-.1-.1h0s0,0,0,0c0-.02.02-.05.03-.07-.13-.03-.24-.09-.36-.12h-.04q-.26.08-.28.13c-.07.16.08.32,0,.48h0c.24.24.23.42-.04.53q.16.39.14.48h-.02c-.26,0-.28-.05-.42-.43h-.02c-.23.02-.42-.13-.65-.13h-.03s0,0,0,0q-.17.04-.23.04h0c0-.12,0-.14-.04-.23l-.03-.02s-.03.04-.04.06q-.03-.08-.04-.22c.03-.07.06-.13.09-.2q.1-.14.1-.15v-.02s0,0,0,0l.06-.02s-.03-.02-.03-.02h-.01s.01,0,.01,0c.04,0,.1-.03.13-.06h0s-.1-.04-.14-.06h0c.13-.1.32-.1.43-.24-.14-.03-.16-.05-.21-.08h.01q.2,0,.28-.08s-.04-.02-.06-.02h0s.1-.02.15-.01h.01s0,0,0,0h0s0,0,0,0l.03-.06h0s0,0,0,0c.02.02.04.03.06.05h.02s0,0,0,0c.04-.06.09-.12.12-.18-.03-.02-.07-.06-.09-.09h0s0-.02,0-.02h0s0-.01,0-.01h0s0,0,0,0c.02,0,.05-.02.06-.03v-.02s-.03,0-.03,0h0s0-.01,0-.01c0-.02-.02-.05-.02-.08.13-.02.14-.03.19-.05-.02,0-.05,0-.07-.01.02,0,.05-.02.07-.02,0-.02,0-.04,0-.06h0s0,0,0,0c.34-.12.54.2.49.32q-.05.11-.06.22-.23.04-.26.14c.21.03.43.02.64.07v-.02s0,0,0,0h0c.12-.02.25,0,.37,0t-.24-.07s-.05-.05-.05-.05h0q.07-.04.36.02h.03s0,0,0,0c-.01-.02-.03-.04-.04-.07,0-.02,0-.05.01-.07q-.28-.15-.29-.17s-.07,0-.11.01h.01s.03-.06.04-.08h-.02s0-.02,0-.02q.1-.03.26-.02h.06s.05-.09.09-.13c-.01-.02-.03-.06-.04-.09q-.49.02-.5,0h0s.06-.09.08-.13c.02-.03.01-.03.01-.03-.03.02-.06.04-.08.07h0s0-.05,0-.07l-.02-.03s-.06.06-.08.07h0s0,0,0,0c0-.02.01-.05.01-.08l-.02-.05s-.08.06-.11.09h0s-.02-.05-.04-.07q-.22-.03-.62.06s-.02,0-.02,0h0s.03-.09.03-.14c.12-.02.13-.02.26-.05-.02-.02-.04-.05-.05-.07q-.08,0-.47.19s-.01.06,0,.08c.01.03.02.07.03.1h0s-.03.05-.03.05c-.08-.08-.09-.09-.1-.22.02-.02.04-.05.06-.07v-.06h0c-.08.04-.26.16-.24.33.04,0,.11.01.15.03v.03s0,0,0,0c-.04,0-.11.03-.15.04.09.04.18.05.27.07,0,.02,0,.05,0,.07l.03.02q-.1.18-.11.19h0s-.02-.07-.02-.07c0,.04,0,.1,0,.14-.02,0-.05-.02-.07-.03-.02-.06-.03-.13-.03-.16-.02,0-.05-.01-.07-.02-.03.03-.06.08-.07.12h0s0,0,0,0c0-.04-.02-.09-.03-.13h0s-.04-.05-.04-.05h0s0,0,0,0h0s0,0,0,0h-.05s.02-.07.02-.07h0s0,0,0,0q-.06-.15-.12-.18h0s.06-.07.09-.1h0q.11-.08.21-.2-.1-.03-.19-.02s-.05.02-.06.03c0,.02,0,.03,0,.05h0s0,0,0,0c-.05.09-.07.12-.06.24h0l-.02.06h0s-.04.03-.06.05v.04s0,0,0,0c0,.02-.02.05-.03.07.05.03.11.02.16.06h0s0,0,0,0h0s-.03.04-.05.06l-.02.03.06-.03h0s0,.04,0,.04c-.04.04-.1.09-.13.12,0,.02,0,.04,0,.06-.02,0-.05,0-.07,0v-.03s.02-.06.02-.08c-.04,0-.1,0-.14,0v.02s0,0,0,0c.02,0,.04.02.06.03h0c-.29.11-.46-.04-.53-.11h-.02s-.05.02-.07.03c.04.02.1.02.14.01h0s0,0,0,0c-.05.04-.11.05-.15.1,0,.04,0,.1,0,.14h0s-.03-.08-.02-.12q-.38-.06-.39-.07h0s.04-.04.06-.05c0-.02-.02-.05-.03-.06-.02,0-.05,0-.07-.01-.02-.04-.05-.09-.07-.13-.07,0-.14.02-.2-.01h0s.04-.06.04-.06h-.06s-.03-.1-.04-.14v.04h0s0,0,0,0c-.05.02-.11.05-.16.07.01-.02.03-.04.04-.06-.06-.01-.12.03-.18,0h0s-.05-.02-.07-.02h-.01s0,.06,0,.06h0c-.15-.09-.21-.43-.21-.43l-.03-.05h0s0,0,0,0h0s0,0,0,0c-.01-.03-.03-.06-.03-.09h0s0,0,0,0c-.01-.02-.02-.05-.03-.06.01-.02.02-.05.03-.07-.01-.02-.03-.05-.05-.07-.13,0-.18,0-.29.04,0,0-.12.4-.13.42-.03-.06-.04-.14-.09-.19-.02.04-.03.09-.05.13-.05.06-.09.1-.01.24h0s0,0,0,0h-.03c-.07.11-.1.1-.17.08-.02.02-.05.06-.06.09h0s-.02-.01-.02-.01c-.02.06-.03.13-.05.2h0s0-.06,0-.06c-.06.1-.06.22-.1.33,0,.05,0,.12-.01.16.01-.01.03-.03.04-.05h0s0,.04,0,.04l.02.04h0s0,0,0,0h0c-.06.06-.11.12-.16.18-.06,0-.14,0-.17.04l.04.02c-.01.06-.01.06-.01.06.14-.02.31-.08.38-.28h0c.07-.04.14-.08.22-.12h.05s0,.02,0,.02c-.06.05-.15.06-.19.14l.02.02h0s-.04.04-.04.04h0s-.02,0-.02,0c.04.01.11.02.15.02l.02-.02.02-.03s0-.06,0-.08h0c.07.12.12.24.19.36h0s0,0,0,0h0c.02.12.02.14.05.22l.03.05.02-.03h0s-.02.1-.04.14c-.02.03-.02.03-.02.03,0-.02,0-.05,0-.08q-.04.07-.05.21s.04-.03.06-.05v.04s0,0,0,0c-.01.02-.03.04-.04.05l.04-.03h0q-.06.22-.02.31h0s0,.01,0,.01v-.02q.03-.17.05-.2c.06.31.06.62.09.93h0s-.03-.03-.05-.05l-.04-.05c.02.16.05.25.15.41l.03.02h0c.02-.1-.05-.19-.03-.29q.02.08.19.21h0c-.05.13-.09.26-.15.39h0q.04-.2-.06-.28h0s0,.06,0,.08v.05-.02h0c0,.4-.2.76-.13,1.15.07.4.37.69.51,1.05h0q.26.75.26.82.24.21.27.32c0,.05,0,.05,0,.05q.08.11.22.26c-.01-.48-.68-.67-.53-1.22.01.01,1.15,1.32,1.12,1.59,0,.05.05.12.09.15.67.43,2.15.59,2.39.6q.07.16.34.33s.08.07.12.11h.05s0,0,0,0h.01s-.03-.07-.03-.07h0q.1.04.29.18l.02-.03c.24.07.39.06.48.06h0q.02-.19.04-.24t.22.03h0q.03.09.26.35s.02.03.02.03c.16.37-.38.79.03,1.12,0-.02.01-.03.02-.05h0s0,0,0,0c0,.02.01.05.02.07,0-.02.02-.04.02-.05.02.12-.06.21-.06.33.02.01.04.02.05.03h0s0,0,0,0h0s.01,0,.01,0c.09.05.19.1.28.16l.04.02s.6.57,1.26.64c.57.06.57.09.58.13.08.13.17.26.24.4l.36,1.12c.05.11.15.1.18.09.04.03.09.08.12.12,0,.02,0,.06-.01.08h0s0,0,0,0c0-.02-.03-.04-.04-.06h-.02s.02.04.03.06h0s0,0,0,0c-.02.01-.04.02-.06.04v.03h.01s.05-.02.08-.03c.01.02.04.04.04.06l-.03.02h0v.03s.1,0,.14,0h0s0,0,0,0h-.02s0,0,0,0h.04s0,0,0,0c.03,0,.08.01.11.01h-.03s0,0,0,0c-.02,0-.05,0-.08.01.03,0,.07,0,.1,0,.02,0,.05-.02.08-.02h0s.05,0,.08,0h0s0,0,0,0c-.05,0-.12.02-.17.03.07,0,.14-.02.2-.04h0s0,0,0,0c.06-.01.12-.02.18-.02h0s.05-.01.07-.02h0s0,0,0,0c.04,0,.1-.02.15-.03h-.03s0-.01,0-.01h0q.07-.02.2-.09c-.14.04-.18.05-.32.06h0s0,0,0,0c-.03.01-.07.03-.1.04h0s.07-.01.1-.02l-.05.03s.08-.02.11-.02h0s-.03.01-.27.07q.2-.11.24-.12s-.05-.01-.07-.01q.03-.08.14-.19c-.06,0-.11,0-.17,0,.05-.08.07-.12.16-.23-.02,0-.04,0-.06-.01h0s0,0,0,0c.04-.02.1-.04.14-.07h-.04s-.1.03-.14.04c0-.02,0-.05,0-.07q.18-.03.23-.06s-.03-.09-.05-.12h0v-.02c.19-.04.5-.19.52-.34-.09-.05-.2-.05-.27-.14.18.01.23,0,.3-.02h.02c.23-.14.25-.41.39-.6h.04s0,0,0,0h0s-.01.05-.02.07c.17-.31.21-.67.47-.93h-.01s-.02,0-.02,0h0s0-.02.44-.43h0q-.03-1.05.1-1.36c.1-.21.17-.37.11-.55-.18-.47-1.13-.09-1.31-.01M99.75,60.13c-.08-.92-.09-1-.22-1.62-.25-.91-.28-1-.55-1.64-.16-.33-.39-.78-.58-1.11l.02.04h0c-.09-.15-.12-.18-.18-.25h-.02s0,0,0,0c-.1-.07-.17-.17-.27-.24h0s0,0,0,0h0c-.12-.12-.19-.18-.42-.38l-.03-.03h0c-.2-.18-.49-.22-.67-.43.02.11-.02.21-.08.33q-.08.03-.17.11l-.02.03h0c.04.15.16.24.22.37-.06.16-.55.31-.56.31q-.05,0-.39-.29l-.04-.03h0s0,.06,0,.08q-.39,1.08-.65,1.22c-.04.17.02.64.02.64.04.15.19.25.22.4.09.44-.03.9.13,1.33,0,0,.48.94.69,1.04h.03s0,0,0,0c0,.02,0,.05.01.07t.18.04h0s0,0,0,0c.31.27.49.43,1.07.36l.05-.03c.07-.12.1-.25.16-.37q.05-.05.18-.11l.04-.04c.14-.23.06-.55.31-.73.05.02.11.06.15.1h0c.09-.08.16-.18.26-.26.13.2.17.46.17.47.07.53.43.57.44.56v.02c.04.48.15.95.16,1.43.08.99.09,1.16.03,1.44.18-.7.19-.75.25-1.21.08-.89.09-.98.06-1.63M86.53,56.8s-.02-.03-.02-.03h0s-.05.07-.09.25c-.02.06-.02.07-.03.09.03,0,.04-.03.07-.04.01,0,.02,0,.04,0h0s0,.01.04,0h0c.11-.03.21-.09.31-.13h.02c-.06,0-.09.02-.12.03v-.02s.01,0,.01,0c-.01-.03-.06-.06-.2-.13t-.02-.02h0ZM88.51,62.99s.13-.02.38-.17l.03-.02c-.08-.02-.16-.02-.24-.03h0c-.13.01-.25-.07-.37-.09,0,.01.01.01.03.03h0c-.15-.04-.33-.08-.57-.02-.29.09-.27.18-.26.26h0s.01,0,.01,0h0s.04-.03.12-.12c.04-.05.1-.13.17-.13h0s.05.04.03.06c.19.03.38.04.56.07.14.02.15.04.16.05h0s-.06.05-.05.1M86.13,55.14q.09.06.12.06h0s-.04.03-.06.05h.02s0,0,0,0h0c.06.01.07.01.07.03h-.02s.03.03.05.03h0s.09-.02.09-.02c.01-.05,0-.07,0-.07h0s.03,0,.05.02c.02-.03.11-.08.14-.09h0s-.07-.09-.07-.09c0,0-.01-.01-.03-.02-.05-.01-.1-.01-.15-.03-.04-.02-.04-.02-.04-.05-.02.01-.04.03-.06.04.01.03-.08.07-.08.07.02.02.03.02.05.01h0s-.02.04-.06.06M84.44,56.05c.05.03.04.1.1.13.04,0,.08-.03.08-.04,0-.02.02-.08.33-.22h0s0-.07-.03-.09c-.06-.03-.13,0-.19-.02-.03-.01-.04-.03-.04-.05h-.01s0-.01,0-.01c-.04,0-.03.06-.03.06h0s0,.01,0,.01c-.06.08-.16.13-.21.22h0ZM85.06,55.74s.05-.02.07-.03h0s0,.03.04.03c.01,0,.04,0,.08,0h.01-.01c-.07.06-.1.07-.18.08,0,.02.02.02.05.03h0c.14,0,.32-.07.38-.14v-.02s-.06.03-.1,0h0s.01-.03.01-.05c0-.04,0-.05.02-.09h0s-.01,0-.01,0c-.03.02-.05.03-.09.05,0,.04,0,.05.02.06h0s0,0,0,0h0s0,.03,0,.05h0s-.09,0-.12-.08c-.03-.05-.03-.05-.06-.06-.02,0-.04,0-.07.03,0,.03,0,.04-.01.04h-.03s0,.02,0,.02c-.01,0-.02.01-.04.03.02.01.04.04.07.05M85.62,55.59h.01s0,.01,0,.01h-.01s0-.01,0-.01ZM88.99,53.76h0,0ZM85.3,55.4v-.02h-.02s-.01-.01-.02.01c0,.02,0,.03,0,.03l.03-.02ZM85.6,55.49s.02,0,.04,0h0s-.04-.04-.05-.05h0s0,.04,0,.04ZM91.04,63.16v.03s0,0,0,0v-.02h0s0,0,0,0ZM86.26,55.44h.01s.06-.03.07-.03h0s-.03-.03-.04-.03h-.03s.01.04.01.04c0,.01,0,.01-.03.02M90.46,51.5h-.02s.02,0,.02,0h0ZM88.96,51.68h.01s0-.01,0-.01c-.02,0-.05,0-.06.01h0s.02,0,.02,0h0s.04,0,.04,0M89.08,63.02s.08-.02.1-.02h0s-.05,0-.08.02h0s-.02,0-.02,0ZM94.97,58.22l-.03.03v.02s.02-.03.03-.05h0s0,0,0,0ZM94.9,58.41h0s0,.01,0,.01h0s0,0,0,0h0ZM92.42,54.22l.06.02v-.02s-.05-.03-.06-.04h0s0,0,0,0v.02s0,.02,0,.02ZM93.06,54.85h0v-.03s-.02,0-.02,0h0s.01.03.01.03h0ZM92.53,54.39h0s.02.03.02.03h0s0,0,0,0v-.03s-.02,0-.02,0ZM92.51,54.73h0s.06.04.06.04l-.03-.03s-.03-.02-.03-.01M95.21,55.64h0s-.02-.03-.05-.07h0s-.01.03-.02.05h0s.07.03.08.02M96.82,54.45h0v.02s0-.01,0-.01h0ZM99.44,62.97c-.02.06-.03.13-.05.2.02-.08.04-.14.05-.2M98.39,55.75h0s0,.01,0,.01h0ZM92.92,69.34h0s.01,0,.01,0h0s0,0,0,0h0ZM88.55,64.83h0s0,0,0,0h.02s0,0,0,0h-.03ZM87.07,56.98s.03.02.04,0h0s-.03-.01-.03-.01h-.01s0,0,0,0ZM87.13,56.26h0s.03-.02.03-.04h0s0,0,0,0c-.02,0-.04.02-.05.03h.02s0,0,0,0ZM87.72,62.92l.02.02h0c.02-.05.02-.07.02-.07h0s0,0,0,0c0,0-.02.01-.03.03h0s-.01,0-.01,0h.01ZM87.32,56.32h.02s0,0,0,0c-.01-.01-.03-.02-.05-.01h0s-.01,0-.03.01c0,0,.02.01.06,0"/>
    </g>
  </g>
  <path class="cls-7" d="M82.05,49.22h0c.08.14.2.32.36.54.16.22.28.37.36.46.16.16.26.26.32.33.06.06.09.12.11.18.02.06.02.12,0,.18-.01.06-.05.11-.09.16-.07.07-.17.12-.28.13-.11,0-.21-.02-.27-.09-.02-.02-.1-.14-.24-.35-.12-.19-.23-.35-.32-.48-.12.79-.35,1.37-.71,1.73-.24.24-.51.37-.79.37-.28,0-.55-.12-.8-.36-.39-.39-.65-.88-.77-1.47h0c-.13-.62-.13-1.21,0-1.76.12-.56.35-1,.69-1.34.18-.18.35-.28.51-.32.17-.04.3,0,.4.09.08.08.14.21.17.38.03.17.01.29-.06.36-.05.05-.09.07-.13.07-.04,0-.1-.01-.18-.04-.09-.03-.16-.05-.22-.04-.06.01-.12.05-.18.11-.21.21-.34.55-.4,1.02-.06.47-.03.93.08,1.37.11.44.3.79.55,1.04.27.26.52.28.74.06.12-.12.23-.29.33-.52.1-.22.18-.5.24-.81.06-.32.05-.55-.02-.69-.07-.14-.16-.29-.27-.44-.07-.09-.09-.16-.07-.24.02-.07.07-.15.15-.22.18-.18.33-.21.45-.09.05.05.1.15.17.3.04.12.11.25.19.4"/>
  <path class="cls-7" d="M85.42,47.23c.1.46.06.91-.11,1.35-.17.44-.42.75-.73.92-.25.14-.51.15-.77.06-.26-.1-.46-.28-.61-.55-.23-.44-.31-.95-.24-1.53.07-.58.32-.99.74-1.22.29-.16.58-.17.88-.06.29.12.52.33.68.62.07.13.12.26.16.4h0ZM83.67,47.13c-.06.17-.09.4-.08.69.01.29.08.55.2.78.08.14.16.24.26.31.1.06.19.07.28.03.21-.11.36-.35.46-.73.09-.37.06-.71-.11-1.02-.09-.18-.21-.3-.34-.37-.13-.07-.27-.07-.4,0-.12.07-.22.17-.27.31h0Z"/>
  <path class="cls-7" d="M92.3,46.25h0c-.04.16-.09.37-.13.64-.04.27-.06.46-.06.58,0,.22,0,.38,0,.46,0,.09-.02.15-.05.21-.03.05-.07.1-.13.13-.05.03-.11.05-.17.05-.1,0-.2-.03-.29-.1-.09-.07-.13-.16-.14-.26,0-.03.03-.17.08-.42.04-.22.08-.41.11-.57-.64.49-1.21.73-1.72.74-.34,0-.62-.09-.83-.29-.21-.2-.31-.47-.32-.82,0-.55.15-1.08.47-1.59h0c.34-.53.75-.95,1.23-1.26.48-.31.95-.47,1.43-.48.25,0,.44.04.59.13.15.09.22.2.22.35,0,.12-.04.25-.14.39-.1.14-.2.22-.3.22-.06,0-.11-.01-.14-.04-.03-.03-.06-.08-.1-.15-.04-.09-.08-.15-.13-.18-.05-.03-.12-.05-.21-.05-.29,0-.62.15-1,.45-.37.29-.67.64-.9,1.04-.23.4-.34.77-.33,1.13,0,.38.17.56.49.56.17,0,.37-.05.6-.14.23-.09.48-.23.74-.42.26-.19.42-.36.47-.51.05-.15.09-.32.11-.5.01-.11.05-.18.11-.22.06-.04.15-.06.26-.06.25,0,.38.08.38.25,0,.07-.03.18-.09.33-.05.12-.1.26-.14.42"/>
  <path class="cls-7" d="M94.15,46.66l.07-.07c.35-.39.69-.69,1.03-.89.34-.21.63-.28.88-.21.19.05.33.15.42.28.09.14.12.28.08.42-.02.09-.07.16-.13.21-.06.05-.12.07-.2.05-.12-.03-.21-.11-.28-.23-.05-.08-.09-.12-.13-.14-.14-.04-.43.11-.88.45-.45.34-.78.77-.99,1.29-.06.15-.14.25-.23.29-.09.04-.19.05-.31.01-.13-.04-.2-.14-.21-.29-.01-.16.03-.41.12-.74.04-.13.09-.32.16-.54.07-.21.16-.47.29-.78.03-.08.06-.14.07-.19.07-.18.12-.3.16-.36.04-.06.11-.11.2-.15.1-.04.19-.04.28-.02.1.03.17.08.2.15.04.07.05.14.03.21-.02.09-.11.26-.28.51-.06.08-.11.19-.17.32l-.19.41Z"/>
  <path class="cls-7" d="M98.58,49.07c-.09.18-.36.3-.79.38-.43.08-.83.02-1.2-.19-.28-.16-.46-.37-.52-.64-.06-.27,0-.56.17-.88.26-.47.67-.82,1.23-1.05.56-.23,1.03-.23,1.41-.03.19.1.31.25.35.43.05.18.03.36-.06.52-.16.29-.46.49-.89.6-.43.11-.89.09-1.38-.05-.06-.02-.1,0-.13.05-.04.08-.05.18-.02.29.03.11.11.2.22.27.34.19.77.2,1.3.03.1-.03.18-.03.24,0,.1.06.12.14.06.25M97.14,47.68c.29.09.59.11.89.05.3-.06.49-.16.57-.3.03-.06.04-.11.03-.17-.01-.05-.04-.1-.09-.12-.15-.08-.37-.06-.66.05-.3.12-.54.28-.73.49"/>
  <path class="cls-7" d="M100.95,51.15c-.14.15-.42.21-.86.19-.43-.02-.81-.17-1.12-.46-.24-.22-.36-.47-.36-.75s.12-.55.37-.82c.36-.4.84-.64,1.44-.74.6-.09,1.06,0,1.38.3.16.14.24.31.25.5,0,.19-.06.35-.19.49-.22.25-.55.38-1,.38-.44,0-.89-.11-1.34-.37-.05-.03-.1-.02-.14.02-.06.07-.09.16-.08.28,0,.12.06.22.16.31.29.26.7.37,1.25.33.11,0,.18.01.23.06.09.08.09.16,0,.26M99.86,49.47c.26.16.55.24.86.25.31,0,.51-.04.62-.17.04-.05.06-.1.07-.15,0-.06-.02-.1-.06-.14-.12-.11-.35-.15-.66-.1-.32.05-.59.15-.83.31"/>
  <path class="cls-7" d="M102.18,53.93c.09-.17.33-.4.71-.69.39-.3.55-.51.47-.64-.08-.12-.42-.18-1.03-.19-.62-.01-1.05.02-1.3.08-.07.02-.14.03-.2.02-.07-.02-.11-.04-.14-.08-.16-.25-.13-.44.1-.59.08-.05.27-.13.57-.26.39-.16.84-.41,1.34-.73.07-.05.18-.07.31-.06.13.01.22.05.27.13.06.09.08.18.07.26-.02.08-.12.18-.33.31-.16.1-.48.24-.98.44,1.05-.18,1.71-.05,1.99.38.24.38.09.79-.46,1.23-.56.45-.81.72-.76.8.02.04.06.08.1.11.06.05.1.09.12.12.05.08.03.15-.06.2-.08.05-.2.06-.37,0-.16-.05-.29-.15-.4-.31-.12-.19-.13-.37-.01-.56h0Z"/>
  <path class="cls-7" d="M79.19,66.75c.17-.08.28-.17.3-.3.03-.12,0-.27-.07-.44-.13-.3-.32-.54-.58-.73-.26-.19-.47-.25-.65-.17-.11.05-.18.14-.22.27-.04.13-.02.42.04.87.06.47.07.84.01,1.11-.05.27-.18.45-.39.54-.34.15-.76.03-1.27-.36-.51-.39-.89-.87-1.14-1.42-.08-.18-.11-.34-.08-.49.03-.14.1-.24.21-.29.09-.04.18-.05.28-.03.1.02.16.06.19.13.02.04.03.08.03.13,0,.22.04.41.11.57.12.27.34.55.64.82.31.27.53.38.68.31.06-.03.1-.1.12-.21.02-.11.01-.32-.02-.62-.04-.44-.07-.77-.07-1,0-.23.04-.42.12-.58.09-.16.22-.28.41-.36.33-.15.72-.09,1.17.17.45.26.79.65,1.02,1.16.13.3.18.56.14.78-.04.22-.14.37-.29.44-.31.14-.54.04-.69-.3"/>
  <path class="cls-7" d="M79.24,70.42c-.84.03-1.41-.14-1.7-.5-.11-.13-.15-.29-.12-.48.03-.18.12-.34.29-.48.4-.32.96-.49,1.69-.5.74-.01,1.25.16,1.54.52.15.18.15.38.02.58.14.17.15.31.02.42-.06.05-.19.13-.38.23-.36.19-.62.36-.81.51-.19.16-.31.28-.37.37-.06.09-.09.15-.11.18-.01.03,0,.09.01.17.02.08,0,.15-.04.19-.08.06-.17.08-.28.04-.11-.04-.2-.09-.27-.18-.23-.28-.05-.63.54-1.07M80.36,69.27c-.12-.15-.45-.21-.98-.18-.53.03-.91.14-1.14.33-.12.1-.17.17-.12.23.14.18.48.26,1,.27.52,0,.9-.09,1.13-.28.08-.06.12-.12.14-.2.02-.07.01-.12-.03-.17"/>
  <path class="cls-7" d="M80.45,72.89c.08-.1.18-.37.3-.79.24-.85.47-1.42.68-1.7.19-.25.38-.31.58-.16.2.14.21.33.04.56-.11.15-.18.26-.22.32-.04.07-.1.2-.18.39-.08.2-.14.36-.18.5-.03.08-.06.19-.11.32-.03.08-.05.14-.05.17.02,0,.1-.04.23-.11.08-.04.33-.15.74-.31.41-.17.76-.29,1.03-.36.28-.08.46-.11.56-.1.1.01.19.04.26.1.08.06.13.13.14.22.01.09,0,.17-.07.25-.06.09-.19.13-.39.12-.19,0-.51.06-.96.21-.45.15-.97.36-1.57.65-.34.16-.57.2-.68.12-.1-.07-.15-.21-.16-.42"/>
  <path class="cls-7" d="M85.98,74.85c-.08.18-.33.34-.75.46-.42.12-.82.11-1.21-.06-.3-.12-.5-.32-.59-.58-.09-.26-.07-.56.07-.9.21-.5.58-.89,1.11-1.17.53-.29,1-.35,1.4-.18.2.08.33.21.4.39.07.18.06.35,0,.52-.13.31-.4.54-.82.69-.41.15-.87.19-1.38.1-.06,0-.1.01-.12.06-.04.09-.03.18.01.29.04.11.13.19.25.24.36.15.79.11,1.29-.1.1-.04.18-.05.24-.02.11.04.14.13.09.25M84.4,73.63c.3.06.6.04.89-.05.29-.09.47-.21.53-.36.03-.06.03-.12.01-.17-.02-.06-.05-.09-.1-.11-.16-.06-.37-.02-.66.12-.28.15-.51.34-.68.57"/>
  <path class="cls-7" d="M92.83,72.82l-.89.09c-.31.03-.57.07-.79.12-.22.05-.34.08-.36.1-.02.02-.03.08-.03.18,0,.1-.03.27-.08.51-.04.19-.06.34-.06.46.12,0,.3-.03.53-.06.23-.04.39-.07.49-.1.27-.08.49-.12.64-.13.3-.01.46.07.47.25,0,.13-.03.23-.11.28-.09.06-.22.1-.4.12-.11.02-.23.04-.37.07-.07.01-.16.03-.27.05-.53.09-.84.15-.93.19h0s-.06.03-.07.07c-.02.04-.04.18-.07.43-.03.25-.04.43-.04.53.01.07.06.1.14.1.09,0,.34-.04.72-.11.39-.07.63-.11.72-.14.26-.06.43-.1.51-.11.25.02.37.13.38.32,0,.09-.02.16-.08.21-.19.1-.45.16-.79.2-.26.03-.58.08-.95.14-.33.09-.64.14-.94.15-.16,0-.27-.02-.34-.08-.07-.06-.12-.16-.14-.3v-.09s0-.08.03-.18c.07-.24.14-.77.21-1.59.07-.82.11-1.28.1-1.37,0,0,0-.01-.02-.02-.02-.01-.04-.04-.07-.11-.04-.06-.05-.12-.06-.19,0-.03,0-.06,0-.08,0-.04.05-.08.12-.13.07-.04.14-.07.21-.07.09,0,.18,0,.27,0,.16,0,.68-.09,1.55-.25.29-.05.44-.08.46-.08h.04c.35-.05.52.06.54.31,0,.05-.03.1-.09.18-.06.07-.12.12-.17.13"/>
  <path class="cls-7" d="M95.98,74.53c-.26.8-.62,1.27-1.06,1.42-.17.05-.33.04-.49-.05-.16-.09-.28-.23-.35-.43-.17-.48-.13-1.07.12-1.76.24-.69.58-1.11,1.02-1.26.23-.08.41-.01.55.19.21-.07.34-.03.4.13.03.08.06.22.08.44.06.4.12.71.2.94.08.23.15.39.21.47.07.08.11.14.13.16.03.02.08.04.16.05.09.01.14.05.16.11.03.09.01.18-.06.28-.07.09-.16.16-.26.19-.34.12-.61-.17-.81-.87M95.3,73.07c-.18.06-.35.35-.51.86-.15.51-.18.9-.08,1.19.05.15.1.21.17.19.22-.07.42-.36.6-.84.18-.49.23-.88.13-1.16-.03-.09-.08-.16-.14-.2-.06-.04-.12-.05-.17-.03"/>
  <path class="cls-7" d="M98.1,72.97v-.1c-.07-.52-.06-.97,0-1.36.07-.39.21-.66.42-.79.17-.11.33-.15.49-.13.16.02.28.1.36.22.05.08.07.16.07.23s-.03.14-.09.18c-.1.06-.22.08-.35.05-.09-.02-.15-.01-.19.01-.12.08-.2.4-.24.96-.04.56.06,1.09.31,1.6.07.15.09.27.07.36-.02.09-.09.17-.2.24-.11.07-.23.06-.36-.04-.13-.1-.29-.29-.47-.57-.08-.12-.18-.28-.3-.49-.11-.19-.25-.43-.39-.73-.04-.07-.07-.13-.09-.18-.09-.17-.14-.29-.16-.36-.02-.07-.01-.15.02-.25.04-.1.09-.17.18-.22.09-.06.17-.07.25-.05.08.02.14.06.17.12.05.08.11.26.2.54.03.1.07.21.12.34l.18.41Z"/>
  <path class="cls-7" d="M100.56,69.8s.11.2.35.56c.25.36.4.57.47.64.11.11.21.17.27.19.07.02.13,0,.18-.05.07-.08.13-.17.17-.26.04-.1.07-.25.09-.46.01-.13.04-.22.09-.27.04-.04.08-.06.13-.06.04,0,.08.01.11.04.12.12.17.35.14.69-.03.34-.16.63-.37.85-.17.18-.36.27-.56.26-.2,0-.4-.11-.6-.3-.19-.18-.5-.61-.92-1.28-.08.1-.13.16-.16.2l-.04.04c-.06.06-.14.11-.25.14-.1.03-.2,0-.29-.09-.12-.11-.11-.23.01-.37l.41-.46c-.11-.22-.27-.49-.49-.82-.13-.2-.13-.37,0-.51.07-.08.15-.11.24-.11.09,0,.16.03.22.09.02.02.18.29.48.79.38-.48.59-.74.64-.78.07-.08.13-.11.17-.12.04,0,.1.02.16.08.13.12.1.3-.06.54l-.57.84Z"/>
  <path class="cls-7" d="M102.91,68.48c-.36-.57-.58-1.02-.65-1.32-.07-.31-.05-.57.07-.77.08-.14.2-.23.35-.27.15-.04.44.04.88.23.21.09.38.16.51.2.14.04.26.07.38.09.11.02.23.02.35,0,.1-.01.17,0,.23.03.06.04.1.09.12.18.02.09,0,.17-.04.24-.08.15-.24.23-.47.26-.23.02-.49-.04-.79-.18-.36-.17-.6-.27-.72-.3-.11-.03-.19,0-.23.07-.06.1.03.4.26.9.23.5.42.88.58,1.14.13.18.21.3.24.37.03.07.02.14-.01.2-.06.1-.13.17-.22.2-.09.03-.18.03-.27-.03-.05-.03-.17-.13-.39-.31-.8-.68-1.67-1.37-2.62-2.05-.23-.17-.37-.31-.42-.44-.05-.13-.06-.22-.02-.29.05-.09.13-.15.23-.17.1-.03.22,0,.34.07.19.11.39.25.61.44.22.18.56.49,1.02.92.28.26.5.46.68.6"/>
  <g class="cls-25">
    <rect class="cls-8" x="81.52" y="51.2" width="18.29" height="18.3"/>
  </g>
  <g class="cls-33">
    <g class="cls-27">
      <g class="cls-28">
        <rect class="cls-12" x="81.91" y="50.26" width="15.91" height="13.75" transform="translate(-5.74 10.22) rotate(-6.31)"/>
      </g>
    </g>
  </g>
  <g class="cls-30">
    <g class="cls-29">
      <path class="cls-14" d="M87.49,54.62c.06,0,.1-.1.17-.05h0s0,.01,0,.01c-.02.13-.16.15-.22.24h0s0,0,0,0h0s-.03.04-.11.04h0s-.03.02-.05.04c.03.16.22-.11.35-.04h0s0,.04-.25.15t.11,0s-.01.02-.03.04c.13.29.4-.27.66-.15h0s0,.02,0,.02v.03s.03.02.08-.02c.03,0,.04,0,.09.05h0c.05.06.13.08.19.13h0q-.06.05-.06.07s.03.02.06.02h0s-.01.04-.01.04c.1.04.11-.03.11-.03h-.01s0-.03,0-.03c.07-.02.18.03.21.06h0s0,0,0,0h0c-.13.04-.16.06-.18.07t.07,0h0c-.05.1-.05.12-.06.15h.01s.03,0,.03,0h0s.06-.03.12-.09c-.02-.01-.05-.02-.07-.03h0s.02-.01.02-.01h0s0,0,0,0t.2.07h0c-.13.13-.19.19,0,.28h0s-.02.05-.02.09c.13,0,.13.16.23.21,0-.06.02-.09.04-.11h0c.15.3.18.3.9.19q-.1-.26-.12-.3h-.01c-.03-.09.04-.17,0-.25h0q-.12-.05-.14-.06h0c.09-.06.09-.17.16-.23h0s0,0,.03.07h.04s0-.01,0-.01c.02-.02.05-.06.06-.09.05-.13-.02-.27.02-.4.06-.18.26-.27.31-.46-.09.04-.23.11-.25.12h0s0,0,0,0h0s0,0,0,0h0s-.04.06-.08.05h0s0-.02,0-.02t-.05,0h0c.01-.06-.05-.1-.02-.15h0c.07.05.07.06.1.07h.01c0-.08.01-.09.04-.11.07-.03.15,0,.21-.03.05-.1-.16-.08-.24-.07-.1,0-.15.01-.17-.03h.02s-.01-.02-.01-.02c.09.04.15.02.18,0h.01s0-.02,0-.02c-.08-.03-.17.06-.25-.01v-.02c.06-.04.14-.03.2-.07h0s-.01-.04-.01-.04c-.02,0-.05.02-.09.02h0s0-.02,0-.02c.02-.04.11-.07.07-.13h0c-.1.05-.13.03-.14.02h0s.01-.04.01-.04c-.09-.06-.18.04-.28,0h0c.04-.08.12-.07.17-.13,0,0-.09-.02-.14.01h-.01s0-.01.03-.03c-.09.03-.1.05-.09.07h0s0,0,0,0q-.08-.08-.08-.08h0s-.01-.02-.01-.02t.05-.03v-.02c-.06-.04-.07-.04-.1-.02h0s-.01-.02-.01-.02t.09-.06h0s-.04,0-.06-.01c.02-.01.05-.01.07-.03v-.02s-.08,0-.1.02h0s0-.03.09-.11h0s.03-.04,0-.07c-.02-.01-.06-.02-.13.04h0s0,0,0,0c-.04.04-.07.1-.11.15h0s0,.11-.03.16h0s-.02-.1-.03-.14c-.11,0-.03.2-.14.18t-.01-.05c-.05,0-.19.1-.22.16h0s-.03-.07.03-.13c.07-.08.18-.12.25-.19-.12,0-.17.13-.28.15h0s0-.02,0-.02c.01-.03.04-.05.06-.07-.02,0-.05-.02-.11.03-.04.04-.07.08-.11.11-.06.04-.16.01-.19.11.03.01.03.02.03.06h.02s-.03.02-.06.03c.03,0,.03,0,.06,0h0s-.02.06-.12.05h0s.01-.05.01-.07t-.05.01h0s0,0,0,0h0c-.08.05-.09.08-.1.1q.14.02.16.03h0s-.08,0-.12,0h-.01s-.01.02-.01.02q.08.01.12.02h0c-.06.1-.17.05-.25.07.02.01.03.01.06.04h0s-.02,0-.15,0h.02s-.03.03-.09.04h0s-.02.01-.09.04h-.01c-.11.05-.13.08-.14.11t.04.05h0c-.04.12-.18.11-.25.2M90.21,51.49h0s.01.01.04.02q.42.13.74.15s0,0,.07,0c.04.02.05.02.05.02h0s0,0,0,0h0s.17.02.2,0c0-.02,0-.02-.03-.02h.01c.06,0,.06,0,.07,0-.02-.04-.06-.04-.09-.07-.42.11-1.04-.08-1.05-.08h-.03ZM84.94,55.84s-.06.01-.13.05c0,0,.01.01.02.03h0s-.05.05-.1.07h0s.04,0,.04,0c0,0,0,.01-.02.03.1-.01.12-.02.12.02h0s-.1.01-.15.04c.03.13.22-.03.28.1h0c-.04.06-.07.08-.17.04-.05-.02-.08-.03-.11-.01,0,.06,0,.19.16.21.09.02.16,0,.21-.02.12-.04.25-.08.39-.06-.04-.02-.07-.03-.07-.04h0s0-.01,0-.01q.15-.03.16-.02c0-.1-.12-.1-.15-.17h-.01s0-.02.02-.08c.03-.07.07-.14.1-.21,0-.03-.02-.03-.04-.02-.05.01-.05.02-.16.07h0c-.02.06,0,.12,0,.18h0s-.03.02-.05,0c-.03-.04-.03-.1-.06-.15,0,.02,0,.04,0,.08h0c-.09.02-.09,0-.09,0h0s.01-.01.01-.01c-.02-.02-.11-.03-.15-.01h0c.04-.07.03-.1-.03-.08M86.92,55.38h0c-.15,0-.29.1-.45.1-.11,0-.15-.02-.17-.1h0s.03.03.07,0c-.02-.02-.06-.04-.12-.04-.09.02-.03.17.03.2.07.05.18.03.23.02.13-.03.19-.06.38-.14v-.03s-.01,0-.01,0c.02.03.03.02.04-.02M86.49,54.77h0s-.03.04-.03.04c0,.02,0,.04.06.03h0s0,0,0,0c.03,0,.08-.02.16-.07h0s0,0,0,0h0s-.02.03-.04.06c0,0,.31-.18.34-.11h0c-.04.06-.06.07-.18.12.01.02.03.03.04.05h0c-.06,0-.11-.05-.17-.05-.06.02-.04.09-.02.1.05.04.16-.03.17.05h0s-.06.04-.11.04c-.11,0-.12.04-.12.04.03.03.13.04.17.04h0c-.05.06-.1.1-.12.11-.05,0-.06-.06-.12-.07-.01,0-.02,0-.03.03.01.02.02.03.04.03h0s0,.02,0,.02h0s.01,0,.01,0h0c-.05.03-.08.04-.13.05h0c0,.05.08.05.09.04v-.02s0,0,0,0c.12-.05.26-.01.38-.07h0s-.02.03-.02.03c.08-.03.11-.05.12-.06h0s0,0,0,0c.02.02.03,0,.03-.02-.02-.03-.04-.03-.08-.02h0s0,0,0,0h0s0,0,0,0h0s-.07.01-.09-.02h0s.02-.04.05-.04c.04,0,.07.01.11,0h.02s0-.01,0-.01c-.01,0-.02,0-.02-.04h0s.03-.05.12-.07t.08-.12s-.06,0-.09.02h0c.03-.08.05-.1.22-.19.18-.1.26-.14.26-.23-.03,0-.05.01-.08,0h0s.03-.04.11-.07h0s0,0,0,0c.03-.01.08-.03.08-.07v-.02c-.06-.02-.18.02-.2.03h0s0,0,0,0h-.02s-.02.02-.34.12c-.49.15-.59.22-.72.3.02.04.07-.01.09.02M89.26,62.83h0c.19-.04.38-.1.57-.15h.02s0,0,0,0c-.08-.01-.59-.07-.72-.03-.02.01-.02.02-.01.03.03.03.15.14.15.14h0ZM91.23,54.68h0s0,0,0,0h0s.11-.09.12-.14c0,0,0-.18-.03-.24,0-.01-.03-.05-.09.04h0s-.07-.07-.11-.03c-.02.03-.03.07-.06.1,0,0-.02.03-.03.04.02,0,.03,0,.05.02h0s-.06.01-.11.05c-.03.03-.02.04-.01.05h0s.02.04-.11.05c-.09.01-.09.01-.11.02h0s.05,0,.07.02h0q-.07.02-.06.04h0s0,0,0,0h0s0,.05.01.06h0s0,0,0,0h0s.05-.06.08-.08c.02-.02.04,0,.05,0,.02.03-.05.13-.05.13.02,0,.03,0,.06-.02.06-.03.09-.04.15-.02h0s-.04.03-.05.05h0s.12-.05.22-.13M96.92,54.19h.01q1.13.89,1.36,1.2h0s0,0,0,0c-.28-.44-.65-.91-1.11-1.4l-.13-.14s-.09-.08-.12-.12h0s.04.04.05.05l.03.02h0s0,0,0,0h0s0,0,0,0h0s.05.05.07.07h0c-.14-.12-.29-.23-.44-.35h0s0,0,0,0c-.02-.02-.04-.05-.06-.06h0s.08.03.11.05c-.22-.18-.51-.43-.74-.6-.71-.48-.8-.53-1.42-.84-.71-.31-.86-.37-1.62-.59-.63-.14-1.04-.24-1.87-.29-.9-.02-1.32,0-2.16.14-.2.04-.33.07-.42.09h0s.08,0,.13-.02h0s.04,0,.06-.01c-.02,0-.04,0-.05.01h0c.09-.02.2-.05.38-.07h-.01c-.33.07-.44.09-.52.11v.02c.07-.01.15-.03.22-.04h0s-.05.01-.07.02c.03,0,.08,0,.11,0h0s-.04,0-.06.01c-.02,0-.02,0-.02,0h.09c.19-.04.29-.06.31-.07h-.02,0c.13-.02.19-.02.21-.02h0s0,0,0,0c-.04,0-.04.01-.04.01.12,0,.57-.04.65-.05h0s0-.01,0-.01c.12-.02.24.02.36.01.02-.02.05-.04.07-.05h0q.08,0,.18-.03s-.04.02-.06.02h-.02s.03,0,.03,0c-.03,0-.08,0-.11,0,.04.01.08.03.12.04h.03s0,0,0,0h0s.08,0,.12,0l-.02-.02h0s.04,0,.06.01v.03s0,0,0,0c-.02,0-.05,0-.07.01h0c.08,0,.1,0,.13,0,.13-.03.14-.03.22-.04l-.04-.02h0s0-.03,0-.03h0s.06,0,.08,0h.02s-.04.02-.06.03h.01s.09.01.13,0h0s0,0,0,0c.24.01.33.03.41.04-.04.01-.04.01-.04.01h0c-.28-.06-.44-.03-.62.01h-.01s0,0,0,0h0s-.1,0-.14,0l-.02.02s.42.09.58-.02c.09.02.14.11.24.13h0c.07,0,.12.02.17.03h0s-.05,0-.07,0c-.02,0-.03,0-.03,0h0s0,0,0,0q.15.06.24.1s0,.03,0,.03h0s-.04,0-.06-.01c.09.05.19.09.28.13h0s.09.04.12.06c-.02.01-.04.03-.05.04-.02,0-.03-.02-.05-.03v-.02s-.05,0-.07,0l-.02.05c.22,0,.41.14.63.15h0s.01.05.02.07c-.01.02-.03.04-.03.05h0s0,.02,0,.02c.04,0,.09-.02.12-.04-.09.14-.4.13-.41.13h0s-.02-.04-.03-.05c.04-.03.09-.07.13-.1l.02-.04h0q-.13-.11-.48.16h0s-.01.04-.02.05c-.02,0-.05.03-.07.03h0s-.02-.05-.02-.05c-.03.02-.07.05-.1.06h-.01s.04.03.06.04v.02s-.01,0-.01,0c.04.02.08.04.11.06h-.04s-.08-.03-.11-.04c0,.04,0,.04,0,.04.01,0,.04.02.05.02,0,.02,0,.04-.01.06h0s.05,0,.05,0h0s0,0,0,0v.04s.06,0,.06,0h0s-.05.04-.05.04h0s.06.04.06.04h-.02s-.01,0-.01,0h-.04c.05.06.06.07.13.1h0s0,0,0,0c.02.01.04.03.06.03h0s-.06.06-.08.09c.03.04.08.07.12.09-.03-.06-.05-.11-.04-.13h.01c.39.24.49.78.96.93.02,0,.02,0,.02,0,.04-.02.1-.04.14-.05l.04-.03s0,0-.09-.23h0c.21.02.41.09.63.07,0-.06-.04-.25-1.06-.78-.04-.01-.04-.01-.04-.01h0s0,0,0,0h0q-.11-.03-.16-.1s.02-.04.02-.06q.07-.02.12-.02h0c.14.1.19.15.25.25.11.03.22.04.32.09.04,0,.09-.01.13-.02-.08-.21-.05-.27-.02-.33.02,0,.06,0,.08,0h0q.02.05.03.28h0s0,0,0,0c.01.01.03.03.05.04.02,0,.04,0,.06,0l.04-.02h0s0,0,0,0c.08.04.15.07.18.09h0s-.09.03-.13.04t.36.19s.02.11.05.15q-.06.24.05.33h-.02s0-.02,0-.02q-.14-.02-.15-.02h0s.01.1.02.15c-.08,0-.17.05-.25,0h0s.06,0,.06,0c-.02-.01-.04-.02-.05-.03h-.04s0,0,0,0h0s0,0,0,0h0s0,0,0,0c-.01-.03-.03-.06-.04-.09h0q-.15-.03-.19-.04l-.04.05c.06.09.22.17.48.24.02.05.03.11-.01.31h0q.23.54.24.54s-.04.03-.06.04l-.05.02s0,.04,0,.06c.03.02.08.04.12.06h0q-.16.15-.17.21c1.07-.15.64.39.64.39t-.19.2h0c-.29.34.37.51.55.76.06-.05.11-.12.16-.18,0,.02.02.04.03.05.04-.01.09-.04.11-.07l.02-.02h0s0,0,0,0c.19-.23.12-.4-.04-.57h0c-.04-.38-.21-.57-.24-.58h0q-.01-.06,0-.15h0s.04,0,.06.01c.02-.01.04-.03.06-.04,0-.17,0-.3.09-.33,0,0,.65-.21.82.01.01.01.02.04.03.06v.04q-.09.14-.07.18c.17,0,.21-.06.21-.06-.11-.21-.26-.33-.32-.38-.01-.01-.03-.03-.05-.04l.04-.05.04-.02h0c-.26-.05-.61.24-.79-.09v-.04h0c.12-.07.58-.08.58-.08h0s0,0,0,0h0q.47.16.52.03h0q-.01.14,0,.17s.08.04.11.05h0s.03-.02.03-.02q-.02-.06-.11-.1h.01s-.05-.07-.07-.1h-.02s.04-.03.06-.04q-.14,0-.17-.01c-.09-.02-.11-.02-.16-.07h0s.04-.02.05-.03c-.02-.03-.07-.05-.1-.06h0s0,0,0,0c.06-.1,0-.22.06-.32h0c.06.09.02.21.13.28v-.05s0,0,0,0c.06.04.08.06.13.07h0s.02.05.02.06c.02,0,.02,0,.02,0,.02,0,.04-.02.05-.02.04.02.09.03.13.03.01-.02.03-.04.04-.06v-.02s-.03-.04-.03-.06v-.02s-.01,0-.01,0t-.08-.33h0c.52.37.71.57.74.75.04.02.06.03.25.14t-.21-.26M95.68,53.59h0c0,.07-.05.09-.17.06h0c-.13-.21-.37-.31-.51-.51h0s0-.01.03,0h0s.02.01.03,0c.01-.02-.02-.05,0-.07h.02s0,0,0,0c.04.04.15.15.15.06h0s0-.01,0-.01h0c-.02-.08-.02-.08-.11-.16,0,.02.01.04.02.06h0s-.02.02-.08,0h0s-.02-.03-.07-.09c-.11-.13-.15-.18-.15-.21,0,0,0,0,.02,0h0s.07.09.11.13h0s0,0,0,0c.03-.01.15.1.15.1h.02c.09.02.16-.04.24-.03h.03s.04.02.07.04c.18.11.22.3.13.33-.02,0-.04,0-.06,0q.12.25.13.31M92.72,54.39h0s-.01-.02-.01-.02h-.01s0,0,0,0c-.03-.02-.02-.06-.03-.09-.04.02-.04.03-.06.06,0,.05,0,.08.08.18h0q-.07.01-.08.02h.01s.08,0,.1,0h0s.07.08.09.09c0-.02-.03-.05-.03-.06h0s.02.07.04.1h0s.01-.03,0-.06h0s.04.02.07.03c-.02-.04-.02-.06,0-.06h0s.06.04.06.06q.14-.04.15-.05h0s0,0,0,0h0c.06.01.1.07.17.08h0s-.03.05-.08.06c.01.02.02.03.03.05.05-.06.08.03.11.13.02-.01.02-.01.05-.05.06-.06.08-.08.11-.07h0c.02.1-.05.2,0,.3h.02s0-.02,0-.02h0c.1-.12.19-.4.19-.51-.02.01-.03.02-.06.02h0s-.03-.08-.05-.1c-.03-.02-.06-.02-.15.04h0c-.07-.09-.4-.09-.49-.09-.11,0-.1-.11-.16-.16-.02,0-.03,0-.06.04h0s0,0,0,0h0s-.02.03-.04.06h0s0,0,0,0ZM93.06,55.21s.06,0,.1-.03h0c.1-.11.08-.3-.02-.29,0,0,0,0-.03,0h0s-.03-.05,0-.06c-.04-.02-.05-.02-.06-.02h0s0,0,0,0c0-.02,0-.02,0-.04.01-.02,0-.02,0-.03,0,0-.08-.08-.19.02h0s0,0,0,0c-.02.03-.06.09,0,.12.01,0,.04.02.03.04,0,.03-.04.04-.05.07.03.01.06.06.06.07.01.02.04,0,.05,0t.05-.02s.03.04.04.17c.04-.02.03.01.03.01h0ZM90.17,52.72h0c.16.05.26-.09.26-.11h.01s.03.04.08.07c0-.03,0-.04.01-.07h0c.06.02.08.03.05.05.09-.01.12-.07.12-.07h0c-.05-.02-.28-.09-.29-.09h-.02q-.16.06-.16.08s.03.01.04.02c0,0,.02-.02.12-.01h0s-.03,0-.06.02c-.06.01-.08.02-.09.03h0s.03.05,0,.08c-.02.02-.06.02-.11.02M94.18,63.98h0s0,0,0,0h0s-.03.1-.05.14h-.01c-.01-.05-.02-.11-.03-.16-.02,0-.05-.02-.07-.03l-.05.04h0s0-.02,0-.02c-.06-.02-.11-.04-.29.04h0s0,0,0,0q-.05.03-.17.12s.02-.05.02-.07l-.02-.06h0s0,0,0,0c-.25.15-.27.16-.29.2h0s0-.03,0-.03h0c.03-.35-.31-.53-.31-.53-.61-.19-1.24,0-1.85-.15h0s-.02-.05-.02-.05c-.07.02-.15.03-.23.05q-.05.1-.39.24l-.05.03c-.13-.05-.26-.12-.39-.18h0s0,0,0,0c-.1.16.14.35-.04.5-.09-.1-.17-.29-.13-.43h-.02c-.29.18-.32.55-.53.79h0c-.07-.04-.18-.09-.4-.12h-.02s0,0,0,0c-.71.44-.77-.21-.77-.21q.02-.38-.01-.39c-.29-.12-.55.21-.84.04h0s0,0,0,0h0s0-.02,0-.02c0-.08,0-.16-.02-.41h.01s.02.03.02.03h0c0-.14-.03-.28-.04-.42q-.25,0-.46.46s.04,0,.06,0h0c-.18.11-.43.17-.45.17h0q-.59-.74-.55-1.47v-.04q.13-.11.77-.14h0s.05-.02.07-.02c0-.04,0-.1-.03-.14,0-.02,0-.02,0-.02h0s0,0,0,0c-.02,0-.05.01-.08.02l-.03-.03h0s0,0,0,0c.31-.15.76-.13.82-.11.29.1.36.44.61.57.03-.2-.12-.32-.18-.49l.02.02q-.21-.39.25-1.03s-.02-.06-.04-.07h0q.02-.12-.07-.29h0s.02-.05.02-.07c-.01-.02-.03-.05-.04-.06,0-.01,0-.03.01-.05h0s.04.04.06.06c.02.05.02.05.02.05,0-.16,0-.17-.01-.25h0c.22-.19.24-.23.3-.33-.04.02-.09.04-.14.05h-.02s0-.02.35-.18q-.09-.34.01-.39h0c.14-.11.16-.15.19-.22h-.01v-.02h0c.09-.06.16-.15.26-.19h0,0s0,0,0,0h0s.06.03.09.04q-.2.19-.21.26s.05.02.07.03c.21-.16.31-.27.38-.35-.03-.1.03-.19.02-.29h-.01q-.17.32-.5.16s.01-.05.02-.08c-.07,0-.14.02-.21.02h0v-.02h0c.16-.11.18-.13.22-.2q-.15-.04-.57.49v-.02c.15-.66.99-.67,1.18-1.29l-.03-.02h0s-.03-.05-.04-.07h-.02s-.04.04-.04.04q-.16-.05-.18-.06h0s.04-.04.06-.06q-.07-.05-.25-.02h-.03s0,.01,0,.01h-.02s0,0,0,0v-.07s-.11,0-.15-.02h0s0,0,0,0h0q-.04-.14-.4-.39c-.04.08-.05.16-.08.24h0c-.12.1-.12.11-.16.16v-.02s-.02-.05-.03-.07c-.04,0-.09,0-.12.03h0s.03-.04.05-.06c-.03-.03-.07-.07-.1-.1h0s0,0,0,0c0-.02.02-.05.02-.07-.12-.03-.24-.08-.36-.12h-.04s0,0,0,0q-.25.07-.28.13c-.07.16.08.32,0,.48h0c.24.24.23.42-.04.53q.16.39.14.48h-.02c-.26,0-.28-.05-.42-.43h-.02c-.23.02-.43-.13-.65-.13h-.03s0,0,0,0q-.17.03-.23.04h-.01v-.02c0-.1,0-.12-.04-.21l-.03-.02s-.03.04-.04.06q-.03-.08-.04-.22c.03-.07.06-.13.09-.2q.1-.14.1-.15v-.02s0,0,0,0l.06-.02s-.02-.02-.03-.02h-.01s0-.01,0-.01c.04,0,.1-.03.13-.05h0s-.1-.04-.15-.07h0c.13-.1.32-.1.43-.24-.14-.03-.16-.05-.21-.08h.01q.2,0,.29-.08s-.04-.02-.06-.02h0s.1-.02.15-.01h.01s0,0,0,0h0s0,0,0,0l.03-.06h0s0,0,0,0c.02.01.04.03.06.04h.02s0,0,0,0c.04-.06.09-.12.11-.18-.03-.02-.06-.06-.09-.09h0s0-.02,0-.02h0s0-.01,0-.01h0s0,0,0,0c.02,0,.04-.02.06-.03v-.02s-.03,0-.03,0h0s0,0,0,0c0-.02-.02-.05-.02-.08.13-.02.14-.03.18-.05-.02,0-.05,0-.08-.01.02,0,.05-.02.07-.02v-.05h0s0,0,0,0c.34-.12.54.2.49.32q-.05.11-.07.22-.23.04-.26.15c.21.03.43.02.63.07h0s0-.02,0-.02h0c.12-.02.25,0,.38,0t-.25-.08s-.05-.05-.05-.05h0q.07-.04.36.02h.03s0,0,0,0c-.01-.02-.03-.04-.04-.07,0-.02,0-.05.01-.08q-.28-.14-.29-.17s-.08,0-.11.01h.01s.03-.05.04-.08h-.02s0-.02,0-.02q.1-.03.26-.02h.06s.05-.09.08-.13c-.01-.03-.02-.06-.04-.08q-.49.02-.5,0h0s.06-.09.08-.13c.02-.03.01-.03.01-.03-.03.02-.06.04-.08.07h0s0-.05,0-.07l-.02-.03s-.06.05-.09.07h0,0s.01-.06.02-.09l-.02-.05s-.08.07-.11.09h0s-.03-.05-.04-.07q-.22-.03-.62.06s-.02,0-.02,0h0s.03-.1.03-.14c.12-.02.13-.02.25-.05-.01-.02-.03-.05-.05-.07q-.08,0-.48.19s-.01.06,0,.08c0,.03.02.07.03.1h0s-.02.05-.02.05c-.08-.08-.09-.09-.11-.22.02-.02.04-.05.06-.07v-.06h0c-.08.04-.26.16-.24.33.05,0,.11.01.15.03v.02s0,0,0,0c-.04,0-.1.03-.14.05.08.04.18.05.26.07,0,.02,0,.05,0,.07l.03.02q-.1.18-.11.19h0s-.02-.07-.02-.07c0,.04,0,.1,0,.14-.02,0-.05-.02-.07-.03-.02-.07-.03-.13-.03-.16-.02,0-.05-.01-.07-.02-.03.03-.06.08-.07.12h0s0,0,0,0c0-.04-.02-.09-.03-.13h0s-.04-.05-.04-.05h0s0,0,0,0h0s0,0,0,0h-.04s.02-.07.02-.07h.01q-.06-.15-.12-.18h0s.06-.07.08-.1h0q.11-.08.22-.2-.1-.03-.2-.02s-.05.02-.06.03c0,.01,0,.04,0,.05h0s0,0,0,0c-.05.09-.07.12-.06.24h0l-.02.06h0s-.04.03-.06.05v.04s.01,0,.01,0c-.01.02-.02.05-.03.07.05.03.11.02.16.06h0s0,.01,0,.01c-.02.02-.04.04-.05.06v.03s.05-.03.05-.03h0s0,.04,0,.04c-.04.04-.09.09-.13.12,0,.02,0,.04,0,.06-.02,0-.05,0-.07,0v-.03s.02-.06.02-.08c-.04,0-.1,0-.14,0v.02s0,0,0,0c.02,0,.05.02.06.03h0c-.29.11-.46-.04-.53-.11h-.02s-.05.02-.07.03c.04.02.1.02.13.01h0s-.11.06-.15.11c0,.04,0,.1,0,.14h0s-.02-.08-.02-.12q-.38-.06-.39-.07h0s.04-.04.06-.05c0-.02-.02-.04-.03-.06-.02,0-.05,0-.07-.01-.02-.04-.05-.09-.07-.13-.07,0-.14.02-.2-.01h0s.03-.05.03-.05h-.06s-.03-.1-.04-.14v.04h0s0,0,0,0c-.05.02-.11.05-.16.08.01-.02.03-.05.04-.06-.06-.02-.12.02-.18,0h0s0,0,0,0h0s-.05-.01-.07-.02h-.01s0,.06,0,.06h0c-.14-.09-.2-.43-.2-.43l-.03-.05h0s0,0,0,0h0s0,0,0,0h0s-.03-.06-.03-.09h0s0,0,0,0c-.01-.02-.02-.04-.03-.06.01-.02.02-.05.03-.07-.01-.02-.03-.05-.05-.07-.14,0-.18,0-.29.04,0,0-.12.4-.13.42-.03-.07-.04-.14-.09-.19-.02.04-.04.09-.05.13h0c-.05.06-.09.1-.01.24h0s0,0,0,0h0s-.03.01-.03.01c-.07.1-.1.1-.18.08-.02.02-.05.05-.06.08h0s-.02-.01-.02-.01c-.02.06-.03.13-.05.19h0s0-.06,0-.06c-.06.1-.05.22-.1.33,0,.05,0,.11-.01.17.01-.02.03-.03.04-.05h0s0,.04,0,.04l.02.03h0s0,0,0,0h0c-.06.06-.11.12-.16.18-.06,0-.14,0-.17.04l.04.02-.02.06c.14-.01.31-.08.38-.28h0c.08-.04.14-.09.22-.12h.05s0,.02,0,.02c-.06.05-.15.06-.19.14l.02.03h0s-.04.04-.04.04h0s-.02,0-.02,0c.04.01.11.02.16.02l.02-.02.02-.03s0-.06,0-.08h0c.07.12.12.24.19.36h0s0,0,0,0h0c.02.12.02.14.05.22l.03.05h0l.02-.03h0s-.02.1-.04.14c-.02.03-.02.03-.02.03v-.08q-.04.07-.05.21s.05-.03.06-.05v.04s-.03.04-.05.05l.04-.03h0q-.06.22-.02.31h0s0,.01,0,.01v-.02q.03-.16.05-.2c.06.31.06.62.09.93h0s-.03-.03-.05-.05l-.04-.05c.02.16.05.25.15.41l.03.02h0c.02-.1-.05-.19-.03-.29q.02.08.19.21h0c-.05.13-.09.26-.15.39h0q.04-.2-.06-.27h0s0,0,0,0h0s0,.06,0,.08t0,.05v-.02s0,.01,0,.01c0,.38-.2.75-.13,1.14.07.4.37.69.51,1.05h0s0,.01,0,.01q.26.74.26.81.24.21.27.32c0,.05,0,.05,0,.05q.07.12.22.26c-.01-.48-.68-.67-.53-1.22.01.01,1.15,1.32,1.13,1.59,0,.05.04.12.09.15.67.44,2.15.59,2.39.6q.07.16.34.32s.08.08.12.11h.05s0,0,0,0h.01s0,0,0,0l-.03-.06h0q.1.04.29.18l.02-.03c.24.07.39.06.48.06h0q.03-.2.04-.24t.22.03h0q.03.08.26.35l.02.03c.16.37-.38.79.03,1.12,0-.01.01-.03.02-.05h0s0,0,0,0c0,.02.01.05.02.07,0-.02.02-.04.03-.05.02.11-.06.21-.06.33.02.01.03.02.05.03h0s0,0,0,0h.01c.09.06.19.11.28.16l.04.02s.61.57,1.27.64c.57.06.57.09.58.13.08.14.17.26.24.4l.36,1.12c.05.11.15.1.18.08.04.03.09.08.12.13,0,.02,0,.05-.01.08h0s0,0,0,0c-.01-.02-.03-.04-.04-.06h-.02s.02.04.03.06h0s0,0,0,0c-.02.01-.04.03-.06.04v.03s0,0,0,0h0s.05-.02.07-.02c.02.02.04.03.04.05l-.03.02h0v.03s0,0,0,0c.04,0,.09,0,.13,0h0s0,0,0,0h-.02s0,0,0,0h.04s0,0,0,0c.03,0,.07.01.11.01h-.03s0,0,0,0c-.02,0-.05,0-.08.01.03,0,.07,0,.1,0,.02,0,.05-.02.08-.02h0s.05,0,.07,0h0s0,0,0,0h0s-.12.02-.16.03c.07,0,.14-.02.2-.04h0c.06-.01.12-.02.17-.02h0s.05-.01.07-.02h0s0,0,0,0c.04,0,.1-.02.14-.03h-.03s0,0,0,0h0q.07-.03.2-.09c-.14.04-.18.05-.32.06h0s0,0,0,0c-.03.01-.07.03-.1.04h0s.07-.01.1-.02l-.05.03s.08-.02.11-.02h0s-.03.01-.27.07q.2-.11.23-.12h0s-.06-.01-.07-.02q.03-.08.14-.19c-.05,0-.11,0-.16,0,.05-.08.07-.12.16-.23-.02,0-.04,0-.06-.01h0s0,0,0,0h0s.1-.04.14-.07h-.04s0-.01,0-.01c-.04.02-.1.04-.14.04,0-.02,0-.05,0-.07q.18-.03.23-.06s-.03-.09-.04-.12h0v-.02c.19-.04.5-.19.52-.34-.09-.05-.2-.05-.27-.14.18.01.23,0,.3-.02h.02c.23-.14.25-.41.39-.6h.04s0,0,0,0h0s-.01.05-.02.07c.17-.31.22-.67.47-.93h-.02s-.02,0-.02,0h0s.01-.02.44-.43h0q-.03-1.05.1-1.36c.1-.21.17-.37.11-.55-.18-.47-1.12-.09-1.31-.01M99.8,59.98c-.08-.92-.09-1-.22-1.62-.25-.9-.28-1-.55-1.64-.17-.33-.39-.78-.58-1.11l.02.04h0c-.09-.15-.12-.18-.18-.25h-.02s0-.01,0-.01c-.1-.06-.17-.17-.26-.24h0s0,0,0,0h0c-.12-.12-.19-.18-.42-.37l-.03-.03h0c-.2-.18-.49-.23-.66-.43.01.11-.03.21-.09.33q-.08.03-.17.11l-.02.03h0c.04.15.16.24.22.37-.06.16-.55.31-.56.31q-.05,0-.39-.29l-.04-.02s0,.06,0,.08q-.39,1.07-.65,1.22c-.04.17.02.64.02.64.04.15.19.25.22.4.09.44-.03.9.13,1.33,0,0,.49.94.69,1.04h.03s0,0,0,0c0,.02,0,.05.01.07t.18.03h0c.31.28.5.44,1.08.37l.04-.02c.07-.12.1-.25.17-.37h0q.06-.05.18-.12l.04-.04c.14-.23.06-.55.31-.74.05.02.11.06.15.1h0c.09-.08.16-.18.25-.26.14.2.17.46.17.47.07.53.44.56.44.56h0c.05.49.16.97.17,1.45.07.99.09,1.16.03,1.44.18-.7.19-.75.25-1.21.08-.89.09-.98.06-1.63M86.58,56.65s-.01-.03-.03-.03h0s-.05.07-.1.25c-.02.06-.02.07-.03.09.02-.01.04-.03.07-.04.01,0,.02,0,.04,0h0s0,.01.04,0h0c.11-.03.21-.09.32-.13h.02c-.06,0-.09.02-.12.03v-.02s.01,0,.01,0c0-.03-.06-.06-.2-.13t-.02-.02h0ZM88.55,62.83s.13-.02.38-.17l.04-.02c-.08-.02-.16-.02-.24-.03h0c-.13.01-.24-.07-.37-.09,0,.01.01.01.03.03h0c-.15-.03-.34-.08-.57-.01-.29.09-.28.18-.26.26h0s.01,0,.01,0h0s.05-.03.12-.12c.04-.05.1-.13.17-.13h0s.05.04.03.06c.19.03.38.04.56.07.14.02.15.04.16.05h0s-.06.05-.05.1M86.17,54.99q.09.06.12.06h0s-.04.03-.06.05h.02s0,0,0,0h0c.07,0,.07.01.07.03h0s-.02.02-.02.02c.02,0,.03,0,.05.01h0s.09-.02.09-.02c.01-.05,0-.07,0-.07h0s.03,0,.05.02c.02-.03.12-.08.14-.09h0s-.07-.09-.07-.09c0,0-.01-.01-.03-.02-.05-.01-.1-.01-.15-.03-.04-.02-.04-.02-.04-.05-.02,0-.04.03-.06.04,0,.03-.08.07-.08.07.02.02.03.02.05.01h0s-.02.04-.06.05M84.49,55.9s.04.11.1.13c.04,0,.08-.03.08-.04,0-.02.02-.08.33-.22h0s0-.07-.03-.09c-.06-.04-.13,0-.19-.02-.03-.01-.04-.04-.04-.05h-.01s0-.01,0-.01c-.04,0-.03.06-.03.06h0s0,.01,0,.01c-.06.08-.16.13-.21.22h0ZM85.11,55.58s.05-.02.07-.04h0s0,.03.04.03c0,0,.04,0,.07,0h.01-.01c-.07.06-.1.07-.18.08,0,.02.02.02.06.03.14,0,.32-.07.38-.14v-.02s-.07.03-.11,0h0s.01-.03.01-.05c0-.03,0-.05.02-.09h0s-.01,0-.01,0c-.03.02-.06.03-.09.05,0,.04,0,.04.02.05h0s0,0,0,0h0s0,.03,0,.05h0s-.09,0-.13-.08c-.02-.05-.03-.05-.05-.06-.02,0-.04,0-.08.03,0,.03,0,.04-.01.04h-.03s0,.02,0,.02c-.02,0-.02,0-.04.03.02.01.03.04.07.05M85.66,55.44h.01s0,.01,0,.01h-.02s0-.01,0-.01ZM85.34,55.25v-.02s-.02-.01-.02-.01c0,0-.01,0-.02.03,0,.02,0,.03,0,.03l.03-.02ZM85.65,55.34s.02,0,.04,0h0s-.04-.04-.05-.05h0s0,.04,0,.04ZM91.09,63.01v.03s0,0,0,0v-.02h0s0,0,0,0ZM86.31,55.29h.01s.06-.03.07-.03h0s-.03-.03-.05-.03h-.02s.01.04.01.04c0,.01,0,.01-.02.02M90.51,51.35h-.02s.02,0,.02,0ZM89,51.53h.01s0-.01,0-.01c-.02,0-.05,0-.06,0h0s.02,0,.02,0h0s.04,0,.04,0M89.12,62.87s.08-.02.1-.02h0s-.05,0-.09.02h-.02ZM95.02,58.07l-.02.03v.02s.02-.03.03-.06h0s0,0,0,0ZM94.95,58.25h0s-.01,0-.01,0h0s0,0,0,0h0ZM92.47,54.06l.06.02v-.02s-.04-.03-.06-.04h0s0,0,0,0v.04ZM93.11,54.69h0s0-.03,0-.03h-.02s.01.03.01.03h0ZM92.58,54.24h0s.01.03.01.03h0s0,0,0,0v-.03s-.02,0-.02,0ZM92.55,54.57h0s.07.04.07.04l-.03-.02s-.04-.02-.04-.02M95.26,55.49h0s-.02-.03-.06-.07h0s0,0,0,0c0,.02-.01.03-.02.05h0s.07.03.08.02M96.87,54.3h.01s0,0,0,0h0ZM99.49,62.82c-.02.06-.03.13-.05.2.02-.08.04-.14.05-.2M98.44,55.6h0s0,.01,0,.01h0ZM92.96,69.18h0s0,0,0,0h0s0,0,0,0h0s0,0,0,0ZM88.6,64.68h0s0,0,0,0h.02s0,0,0,0h-.02ZM87.12,56.82s.03.02.05,0h0s0-.01,0-.01h-.03s-.01,0-.01,0h-.01ZM87.17,56.11h0s.03-.03.03-.03h0s0,0,0,0c-.01,0-.04.02-.05.03h.02ZM87.76,62.77l.02.02h0c.02-.05.02-.07.02-.07,0,0-.02.01-.03.03h0s-.01,0-.01,0h0ZM87.36,56.16h.03s0,0,0,0c-.01-.01-.03-.02-.05,0h0s-.01,0-.03.01c.01,0,.02.02.06,0"/>
    </g>
  </g>
  <g>
    <path class="cls-10" d="M149.07,64.3c-.11-.26-.27-.48-.45-.67-.19-.19-.41-.34-.67-.44-.25-.11-.53-.16-.81-.16s-.56.05-.82.16c-.25.11-.48.26-.67.44-.19.19-.34.41-.46.67-.11.25-.17.53-.17.81s.06.57.17.83c.11.26.27.48.46.67.19.19.42.35.68.46.26.11.52.17.81.17s.56-.06.81-.17c.25-.11.48-.27.67-.46.19-.19.34-.42.45-.68.11-.25.17-.53.17-.83s-.06-.56-.17-.81"/>
    <path class="cls-10" d="M143.43,63.63c-.19-.19-.41-.34-.67-.44-.25-.11-.53-.16-.83-.16s-.56.05-.81.16c-.25.11-.48.26-.67.44-.19.19-.34.41-.45.67-.11.25-.17.53-.17.81s.06.57.17.83c.11.26.26.48.45.68.19.19.41.35.67.46.25.11.52.17.81.17s.57-.06.83-.17c.25-.11.48-.27.67-.46.19-.19.34-.42.45-.68.11-.25.17-.53.17-.83s-.06-.56-.17-.81c-.11-.26-.26-.48-.45-.67"/>
    <path class="cls-1" d="M126.64,57.37v-5.07c0-1.53-.34-2.65-1.02-3.32-.68-.67-1.66-1.01-2.94-1.01h-.24s-.09,0-.14,0h-3.14c-1.24,0-2.26,1.01-2.26,2.26s1.01,2.26,2.26,2.26h2.93l.02,4.89h-1.11s-.03,0-.04,0h-3.16c-1.25,0-2.27,1.02-2.27,2.27s1.02,2.27,2.27,2.27h14.52v-4.54h-5.69Z"/>
    <path class="cls-11" d="M163.66,41.7h-.04c-1.23.01-2.24,1.02-2.24,2.26v3.66s0,.07,0,.11v9.63h-12.26v4.54h12.81c1.28,0,2.27-.34,2.95-1.01.68-.67,1.02-1.79,1.02-3.32v-13.61c0-1.24-1-2.25-2.24-2.26"/>
    <path class="cls-10" d="M146.2,57.37v-7.86s0-.09,0-.13v-.35c0-1.25-1.02-2.27-2.27-2.27s-2.27,1.02-2.27,2.27v4.03c0,.09,0,.18.02.27v4.04h-9.33v4.54h16.78v-4.54h-2.91Z"/>
    <path class="cls-6" d="M137.01,68.26s-.08-.07-.12-.09c-.05-.02-.1-.03-.15-.03h-.52c-.06,0-.11.01-.16.03-.05.02-.09.05-.12.09-.04.04-.06.08-.09.13-.02.05-.03.11-.03.17v2.24h-16.78l.02-2.25c0-.06-.01-.11-.03-.16-.02-.05-.05-.1-.09-.14-.03-.04-.08-.07-.12-.09-.05-.02-.1-.04-.15-.04h-.52c-.06,0-.11.01-.16.04-.05.02-.09.05-.13.09-.03.04-.06.09-.08.14-.02.05-.03.11-.03.16v3.69c-.02.11-.05.2-.09.27-.05.07-.1.13-.16.17-.06.04-.14.07-.21.1-.08.02-.16.03-.24.04h-.13c-.11,0-.2.04-.28.13-.08.08-.11.18-.11.3v.57c0,.12.04.22.12.3.08.08.17.12.28.13.06,0,.13,0,.18,0,.06,0,.12-.01.18-.02.25-.04.47-.12.67-.22.2-.11.38-.24.53-.41.15-.17.27-.37.36-.59.09-.23.15-.49.19-.77h17c.36,0,.63-.1.83-.31.19-.21.29-.55.29-1.01v-2.36c0-.06-.01-.11-.03-.17-.02-.05-.05-.1-.09-.13"/>
    <path class="cls-6" d="M136,67.31c.06.07.13.12.21.16.08.04.17.06.25.06s.18-.02.26-.06c.08-.04.15-.09.21-.16.06-.06.1-.14.14-.23.03-.09.05-.18.05-.28s-.02-.19-.05-.28c-.03-.09-.08-.16-.14-.23-.06-.06-.13-.12-.21-.15-.08-.04-.17-.06-.26-.06s-.17.02-.25.06c-.08.04-.15.09-.21.15-.06.07-.1.14-.14.23-.04.09-.05.18-.05.28s.02.19.05.28c.04.09.08.16.14.23"/>
    <path class="cls-6" d="M139.58,68.12h-.59c-.11,0-.2.04-.27.11-.08.08-.11.17-.11.29v3.72c-.02.11-.05.2-.09.27-.04.07-.1.13-.16.17-.06.04-.13.08-.21.1-.08.02-.16.03-.24.04h-.13c-.05,0-.1.01-.15.04-.05.02-.09.05-.13.09-.03.04-.06.08-.09.14-.02.05-.03.11-.03.17v.58c0,.12.04.22.12.3.08.08.17.12.28.13.06,0,.13,0,.19,0,.06,0,.12-.01.18-.02.27-.04.52-.13.74-.26.22-.13.41-.29.56-.49.16-.2.28-.44.36-.71.09-.27.13-.58.13-.92v-3.34c0-.12-.02-.21-.08-.29-.06-.08-.14-.11-.26-.11"/>
    <path class="cls-6" d="M164.93,68.42c-.19-.21-.47-.31-.83-.31h-2.61c.02-.12.06-.21.11-.28.05-.07.11-.13.19-.17.07-.04.15-.07.24-.08.09-.02.18-.02.27-.03.1,0,.19,0,.28,0,.09,0,.18,0,.26,0,.05,0,.11-.01.15-.03.05-.02.09-.05.13-.09.03-.04.07-.09.08-.14.02-.05.03-.11.03-.17v-.58c0-.12-.04-.22-.12-.29-.08-.08-.17-.12-.28-.14-.37-.04-.71-.03-1.02.04-.31.07-.58.19-.8.36-.23.17-.41.39-.56.66-.14.27-.24.59-.27.95v.98c0,.06,0,.11.03.17.02.05.05.1.09.14.04.04.08.07.13.09.05.02.1.03.15.03h3.3v1.26s-4.03,0-4.03,0h-16.25v-1.36c0-.23-.02-.43-.07-.6-.05-.17-.12-.3-.22-.41-.09-.11-.21-.18-.35-.24-.14-.05-.3-.08-.48-.08h-.94c-.36,0-.64.1-.83.31-.19.21-.29.54-.29,1.01v1.48c0,.47.1.8.29,1.01.19.21.47.31.83.31h.75c-.02.12-.05.22-.11.29-.05.08-.11.14-.19.18-.07.04-.15.07-.24.09-.09.02-.18.03-.28.03-.1,0-.19,0-.29,0-.1,0-.19,0-.27,0-.05,0-.1.01-.15.04-.05.02-.09.05-.13.09-.04.04-.07.08-.09.14-.02.05-.03.11-.03.17v.58c0,.12.04.22.12.3.08.08.17.12.28.13.37.04.71.03,1.02-.04.31-.07.58-.19.81-.36.23-.17.42-.39.56-.67.14-.27.23-.59.27-.95h21.22c.05,0,.11-.01.16-.03.05-.02.09-.05.12-.09.03-.04.06-.08.08-.14.02-.05.03-.11.03-.17v-2.38c0-.47-.09-.8-.28-1.01M142.31,70.8h-.53v-1.26h.53v1.26Z"/>
    <path class="cls-6" d="M117.59,76.5h-.75c-.39,0-.62.28-.62.71v.94h.3v-.88c0-.29.13-.46.33-.46h.22c-.05.09-.08.19-.08.31,0,.34.25.62.6.62s.59-.26.59-.61-.24-.62-.59-.62M117.6,77.47c-.18,0-.3-.15-.3-.35s.1-.34.28-.34.3.15.3.35-.11.34-.28.34"/>
    <rect class="cls-6" x="118.34" y="77.38" width=".33" height=".34"/>
    <path class="cls-6" d="M120.29,76.5h-.75c-.39,0-.62.28-.62.71v.94h.3v-.88c0-.29.13-.46.32-.46h.22c-.05.09-.08.19-.08.31,0,.34.25.62.6.62s.59-.26.59-.61-.24-.62-.59-.62M120.29,77.47c-.18,0-.3-.15-.3-.35s.1-.34.28-.34.3.15.3.35-.11.34-.28.34"/>
    <rect class="cls-6" x="121.04" y="77.38" width=".33" height=".34"/>
    <path class="cls-6" d="M122.42,76.55c-.07-.02-.12-.04-.16-.04-.04,0-.13,0-.28,0v.27c.1,0,.19,0,.27.02.27.06.41.26.41.61h-.96v.3h1.26v-.3c0-.46-.18-.74-.54-.86"/>
    <rect class="cls-6" x="122.12" y="75.96" width=".29" height=".3"/>
    <rect class="cls-6" x="123.1" y="77.38" width=".33" height=".34"/>
    <rect class="cls-6" x="125.56" y="75.97" width=".29" height=".3"/>
    <rect class="cls-6" x="125.81" y="75.55" width=".29" height=".3"/>
    <rect class="cls-6" x="126.06" y="75.97" width=".29" height=".3"/>
    <path class="cls-6" d="M126.56,77.12c0,.19-.07.29-.23.29h-.29s.06-.15.06-.32v-.58h-.3v.61c0,.2-.07.3-.22.3h-.24c0-.05.01-.11.01-.17v-.74h-.3v.7c0,.17-.04.32-.13.45-.1.14-.24.21-.41.21s-.3-.07-.41-.21c-.09-.12-.14-.27-.14-.45v-.7h-.3v.74c0,.26.09.48.25.65.16.17.36.26.59.26s.43-.09.59-.27c.05-.05.09-.11.13-.17h1.11c.14,0,.25-.05.34-.14.11-.11.17-.28.17-.49v-.57h-.3v.61Z"/>
    <path class="cls-6" d="M128.33,76.41c-.37,0-.63.27-.63.65s.26.65.63.65.63-.28.63-.64-.26-.66-.63-.66M128.34,77.45c-.19,0-.33-.17-.33-.39s.12-.38.31-.38.33.17.33.39-.12.38-.31.38"/>
    <rect class="cls-6" x="127.93" y="75.87" width=".29" height=".29"/>
    <rect class="cls-6" x="128.43" y="75.87" width=".29" height=".29"/>
    <path class="cls-6" d="M129.51,77.52c0,.26-.12.38-.37.38v.25c.46,0,.67-.2.67-.68v-.97h-.3v1.01Z"/>
    <rect class="cls-6" x="131.59" y="78" width=".29" height=".3"/>
    <rect class="cls-6" x="133.31" y="75.96" width=".29" height=".29"/>
    <rect class="cls-6" x="132.81" y="75.96" width=".29" height=".29"/>
    <path class="cls-6" d="M135.58,76v1.13c0,.1,0,.16-.02.19-.03.06-.09.09-.19.09h-.67c.04-.05.06-.15.06-.31v-1.1h-.29v1.12c0,.09-.01.16-.03.2-.03.06-.09.09-.18.09h-.7c.04-.05.06-.15.06-.31v-.59h-.29v.61c0,.09-.01.16-.03.2-.03.06-.09.09-.18.09h-.48c-.02-.37-.16-.63-.4-.78-.14-.09-.3-.13-.49-.13-.12,0-.23.02-.35.08-.11.05-.2.11-.28.19.07.1.11.18.15.23.06-.07.14-.13.24-.17.08-.03.16-.05.23-.05.19,0,.35.06.46.2.09.12.14.26.14.42h-1.62c-.11,0-.19-.02-.23-.05-.05-.04-.09-.13-.09-.26v-1.11h-.29v1.23c0,.15.03.26.1.35.08.09.19.14.33.14h4.91c.3,0,.45-.16.45-.48v-1.23h-.3Z"/>
  </g>
  <g>
    <path class="cls-1" d="M55.74,42.7h-9.44c-1.14,0-2.07.93-2.07,2.07s.93,2.07,2.07,2.07h9.44c3.26,0,5.92,2.65,5.92,5.91s-2.65,5.92-5.92,5.92h-4.46v-5.88c0-1.14-.93-2.07-2.07-2.07s-2.07.93-2.07,2.07v10.01h8.6c5.55,0,10.05-4.5,10.05-10.05s-4.5-10.05-10.05-10.05"/>
    <path class="cls-7" d="M41.64,58.66h-6.87c-2.51,0-4.66-1.58-5.52-3.79h7.55c1.17,0,2.12-.95,2.12-2.12s-.95-2.12-2.12-2.12h-7.55c.85-2.22,3-3.79,5.52-3.79h5.82c.57-1.5,1.4-2.89,2.44-4.11v-.03h-8.26c-5.55,0-10.05,4.5-10.05,10.05s4.5,10.05,10.05,10.05h10.6c-1.51-1.13-2.77-2.54-3.73-4.13"/>
    <path class="cls-11" d="M24.1,58.64h-6.95c-2.15,0-3.9-1.16-3.9-3.31v-10.59h0c-.02-1.13-.94-2.04-2.07-2.04s-2.06.91-2.07,2.04h0v10.59c0,4.44,3.61,7.47,8.05,7.47h11.52c-1.89-.93-3.48-2.38-4.58-4.16"/>
    <path class="cls-6" d="M15.46,72.39c0,.32-.17.55-.5.7-.45.2-.92.3-1.43.3-.92,0-1.65-.3-2.2-.91-.53-.57-.8-1.32-.8-2.23s.28-1.65.83-2.23c.56-.58,1.29-.87,2.2-.87.45,0,.84.06,1.15.17.45.17.68.43.68.8,0,.11-.01.19-.03.24-.12.26-.31.39-.56.39-.1,0-.29-.05-.56-.15-.27-.1-.48-.15-.62-.15-.77,0-1.27.37-1.49,1.11-.08.26-.12.5-.12.7,0,.46.12.87.37,1.23.25.36.64.53,1.18.53.29,0,.58-.05.84-.16.16-.07.29-.1.41-.1.19,0,.34.06.46.17.12.11.18.26.18.44"/>
    <path class="cls-6" d="M26.38,70.33c0,.91-.26,1.64-.79,2.2-.55.58-1.28.86-2.21.86s-1.66-.29-2.2-.88c-.53-.56-.8-1.29-.8-2.19s.27-1.66.8-2.23c.53-.57,1.27-.86,2.2-.86s1.67.29,2.22.87c.52.56.78,1.3.78,2.22M24.89,70.33c0-.52-.12-.94-.35-1.28-.27-.38-.65-.58-1.16-.58s-.89.2-1.16.59c-.23.33-.34.75-.34,1.26s.12.93.35,1.26c.27.37.65.56,1.15.56s.89-.19,1.16-.57c.23-.32.35-.74.35-1.25"/>
    <path class="cls-6" d="M35.76,72.75c0,.2-.08.36-.24.48-.16.11-.35.17-.58.17-.19,0-.37-.11-.54-.32l-1.74-2.17v1.75c0,.22-.06.4-.18.54-.12.14-.29.21-.51.21-.46,0-.69-.25-.69-.75v-4.73c0-.2.07-.36.2-.49.13-.13.31-.19.52-.19h1.62c.61,0,1.11.17,1.48.51.38.34.57.82.57,1.43,0,.42-.14.79-.4,1.1s-.61.5-1.03.56l1.25,1.34c.16.17.25.36.25.57M34.3,69.21c0-.19-.07-.36-.21-.49-.14-.13-.3-.2-.49-.2h-.93v1.37h.87c.2,0,.38-.06.53-.19.15-.12.23-.29.23-.49"/>
    <path class="cls-6" d="M46.03,72.63c0,.22-.06.4-.19.55-.12.15-.29.22-.51.22-.24,0-.48-.14-.71-.43l-2.58-3.22v2.95c0,.22-.06.39-.19.51-.13.12-.3.19-.52.19s-.38-.07-.49-.21c-.11-.14-.17-.32-.17-.53v-4.74c0-.21.06-.38.18-.51.12-.14.28-.21.48-.21.14,0,.27.03.37.1.15.1.27.2.35.31l2.59,3.21h.01v-2.91c0-.21.06-.38.18-.52.12-.13.28-.2.49-.2.48,0,.72.24.72.72v4.71Z"/>
    <path class="cls-6" d="M54.5,72.73c0,.45-.23.67-.7.67h-2.14c-.21,0-.38-.06-.52-.19-.13-.12-.2-.3-.2-.51v-4.79c0-.2.06-.37.18-.51.12-.13.28-.2.48-.2h2.2c.43,0,.65.22.65.65s-.22.64-.65.64h-1.48v1.13h1.38c.19,0,.35.06.47.18.12.12.18.28.18.48s-.06.35-.18.48c-.12.12-.28.18-.47.18h-1.38v1.17h1.48c.47,0,.7.21.7.62"/>
    <path class="cls-6" d="M63.89,72.75c0,.2-.08.36-.24.48-.16.11-.35.17-.57.17-.19,0-.37-.11-.54-.32l-1.74-2.17v1.75c0,.22-.06.4-.18.54-.12.14-.29.21-.51.21-.46,0-.69-.25-.69-.75v-4.73c0-.2.07-.36.2-.49.13-.13.31-.19.52-.19h1.62c.61,0,1.11.17,1.48.51.38.34.57.82.57,1.43,0,.42-.14.79-.4,1.1-.27.31-.61.5-1.03.56l1.25,1.34c.16.17.25.36.25.57M62.43,69.21c0-.19-.07-.36-.21-.49-.14-.13-.3-.2-.49-.2h-.93v1.37h.87c.2,0,.38-.06.53-.19.15-.12.23-.29.23-.49"/>
    <polygon class="cls-6" points="45.73 77.26 45.73 75.34 45.05 75.34 45.05 74.95 46.89 74.95 46.89 75.34 46.2 75.34 46.2 77.26 45.73 77.26"/>
    <path class="cls-6" d="M47.19,77.26v-2.32h.98c.25,0,.43.02.54.06.11.04.2.12.27.22.07.11.1.23.1.36,0,.17-.05.32-.15.43-.1.11-.25.18-.46.21.1.06.18.12.25.2.07.07.15.19.27.38l.28.45h-.56l-.34-.5c-.12-.18-.2-.29-.25-.34-.04-.05-.09-.08-.14-.1-.05-.02-.13-.03-.24-.03h-.1v.97h-.47ZM47.66,75.93h.35c.23,0,.37,0,.42-.03.06-.02.1-.05.13-.1.03-.05.05-.1.05-.17,0-.08-.02-.14-.06-.19-.04-.05-.1-.08-.18-.09-.04,0-.15-.01-.34-.01h-.37v.59Z"/>
    <path class="cls-6" d="M49.53,74.95h.86c.19,0,.34.01.44.04.14.04.25.11.35.22.1.1.17.23.22.37s.08.33.08.55c0,.19-.02.36-.07.49-.06.17-.14.31-.25.41-.08.08-.19.14-.33.18-.1.03-.24.05-.41.05h-.88v-2.32ZM50,75.34v1.54h.35c.13,0,.23,0,.28-.02.07-.02.14-.05.19-.1.05-.05.09-.12.12-.22.03-.1.05-.24.05-.42s-.01-.32-.05-.41c-.03-.1-.08-.17-.13-.23-.06-.05-.13-.09-.22-.11-.06-.01-.19-.02-.38-.02h-.21Z"/>
    <path class="cls-6" d="M52.95,76.41v-.39h1.01v.92c-.1.09-.24.18-.43.25-.19.07-.37.11-.56.11-.24,0-.45-.05-.63-.15-.18-.1-.32-.25-.41-.44-.09-.19-.13-.39-.13-.62,0-.24.05-.45.15-.64.1-.19.25-.33.44-.43.15-.08.33-.12.56-.12.29,0,.51.06.68.18.16.12.26.29.31.5l-.46.09c-.03-.11-.1-.2-.19-.27-.09-.07-.2-.1-.34-.1-.21,0-.37.06-.49.2-.12.13-.18.32-.18.58,0,.27.06.48.18.62.12.14.28.21.48.21.1,0,.2-.02.29-.06.1-.04.18-.08.26-.14v-.3h-.54Z"/>
    <rect class="cls-6" x="54.39" y="76.82" width=".44" height=".44"/>
    <polygon class="cls-6" points="56.2 77.26 56.2 74.96 56.67 74.96 56.67 76.87 57.83 76.87 57.83 77.26 56.2 77.26"/>
    <rect class="cls-6" x="58.17" y="76.82" width=".45" height=".44"/>
    <polygon class="cls-6" points="59.08 77.26 59.08 74.96 59.55 74.96 59.55 76.87 60.71 76.87 60.71 77.26 59.08 77.26"/>
    <rect class="cls-6" x="61.05" y="76.82" width=".45" height=".44"/>
    <path class="cls-6" d="M63.43,76.41l.46.14c-.07.25-.19.44-.35.56-.16.12-.37.18-.62.18-.31,0-.56-.1-.76-.31-.2-.21-.3-.5-.3-.86,0-.39.1-.69.3-.9.2-.21.46-.32.79-.32.28,0,.51.08.69.25.11.1.18.24.24.43l-.46.11c-.03-.12-.08-.22-.17-.29-.09-.07-.19-.1-.32-.1-.17,0-.31.06-.42.18-.11.13-.16.32-.16.6,0,.3.05.5.16.63.1.12.24.19.41.19.12,0,.23-.04.32-.12.09-.08.15-.2.19-.37"/>
  </g>
</svg>