<?xml version="1.0" encoding="UTF-8"?>
<svg id="Layer_1" data-name="Layer 1" xmlns="http://www.w3.org/2000/svg" viewBox="0 0 175 120">
  <defs>
    <style>
      .cls-1 {
        fill: #ec7d23;
      }

      .cls-1, .cls-2 {
        stroke-width: 0px;
      }

      .cls-2 {
        fill: #3c3c3b;
      }
    </style>
  </defs>
  <path class="cls-1" d="M110.28,86.85c-.08-.77-.14-1.54-.23-2.31-.3-2.49-1.09-4.83-2.19-7.07-.27-.56-.3-1.06-.01-1.64,1.52-3.09,2.18-6.36,2.17-9.81-.02-11.04,0-22.09-.02-33.13,0-1.15-.01-2.32-.2-3.45-1.27-7.74-5.48-13.32-12.48-16.76-3.65-1.79-7.54-2.34-11.59-1.97-3.3.3-6.49,1-9.35,2.68-7.32,4.3-11.08,10.81-11.28,19.29-.14,6.27,0,12.55-.04,18.82-.01,2.15-.11,4.31-.34,6.45-.31,2.88-.39,5.74.2,8.59,1.51,7.23,7.51,15.51,17.57,17.28,2.16.38,4.35.72,6.29,1.84.69.4,1.24.9,1.84,1.59.05.05.08.09.14.13h1.94c-.2-.53-.49-1.02-.75-1.37-1.07-1.42-2.54-2.27-4.23-2.67-1.94-.46-3.93-.73-5.85-1.25-11.69-3.13-17.85-13.6-15.65-25.15,1.01-5.33,3.82-9.59,8.17-12.8,3.76-2.78,8.01-4.12,12.67-4.14,1.07,0,1.4.26,1.36.97-.06.89-.74.73-1.33.8-1.6.19-3.25.26-4.8.68-9.94,2.7-16.57,11.45-14.47,22.96,1.56,8.51,8.77,14.17,16.56,15.39,2.1.33,4.22.58,6.15,1.53,1.94.95,3.71,2.12,4.42,4.33.1.32.22.56.28.72h1.78c0-.14-.08-.34-.13-.54-.44-1.83-1.38-3.32-2.83-4.49-2.29-1.85-4.98-2.72-7.81-3.24-3.14-.57-6.18-1.39-8.89-3.18-6.58-4.35-9.16-11.03-7.79-18.06,1.52-7.77,8.78-13.81,18.02-14.28.46-.02.81.11.86.61.05.48-.06.91-.63,1.03-.22.05-.44.11-.66.13-4.42.42-8.32,2.03-11.61,5.04-5.31,4.84-6.34,13.18-2.34,19.14,2.93,4.37,7.16,6.72,12.25,7.64,2.73.49,5.46,1.04,7.86,2.53,2.78,1.72,4.99,4.19,5.41,7.67h1.66c0-.09.01-.18,0-.29,0-.21,0-.46-.06-.74-.06-.29-.11-.59-.19-.88-1-3.61-3.37-6.08-6.54-7.85-2.26-1.26-4.78-1.68-7.29-2.13-3.9-.69-7.45-2.18-10.24-5.08-2.97-3.08-4.26-6.79-3.6-11.08.48-3.1,2.05-5.62,4.37-7.67,3.06-2.72,6.7-4.09,10.72-4.56.68-.08,1.02.35.89,1.03-.11.55-.51.66-.99.74-3.22.49-6.14,1.69-8.72,3.72-4.66,3.67-5.79,9.92-2.56,14.78,2.01,3.02,4.9,4.93,8.35,5.89,2.13.59,4.37.81,6.5,1.42,4.47,1.29,8.14,3.76,10.22,8.08.63,1.3.82,2.81,1.17,4.24.05.17.07.3.09.4h1.56c.01-.21-.05-.54-.08-.87-.45-3.91-2.21-7.12-5.13-9.74-3.16-2.84-6.97-4.12-11.06-4.74-3.75-.57-7.02-2.06-9.61-4.91-2.78-3.07-2.93-7.81-.34-11.04,2.56-3.19,6.06-4.63,9.93-5.36.17-.03.5.2.58.38.35.81.01,1.3-.99,1.5-2.4.48-4.57,1.46-6.48,2.97-2.35,1.85-3.5,4.24-2.85,7.26.52,2.43,2.14,4.08,4.19,5.35,2.39,1.48,5.06,2.07,7.78,2.55,4.48.79,8.32,2.75,11.36,6.2,2.36,2.69,3.87,5.77,4.11,9.39.03.45.02.75.06.93.01.06.02.1.04.14h1.77c.02-3.41-.91-6.53-2.69-9.37-3.54-5.65-8.84-8.42-15.28-9.29-2.84-.38-5.49-1.3-7.72-3.18-2.62-2.21-2.78-5.46-.39-7.91,1.82-1.87,4.15-2.72,6.61-3.3.47-.11.66.18.65.59-.02.71-.39,1.14-1.07,1.36-1.56.5-3.04,1.16-4.25,2.3-1.73,1.64-1.73,4,.02,5.63.42.39.9.72,1.39,1.02,1.96,1.23,4.2,1.5,6.42,1.86,5.97.96,10.74,3.93,14.31,8.8,2.38,3.25,3.43,6.98,3.6,10.97,0,.14.03.35.07.52h1.35c0-.18-.01-.4-.03-.54M87.6,63.73c-.22.57-.65.79-1.19.58-1.18-.46-2.12-1.22-2.63-2.42-.26-.62-.25-1.26.2-1.77,1.13-1.29,2.62-1.9,4.32-2.32.12,2.1.03,4.05-.7,5.93M88.15,38.15c-.02.17-.37.29-.57.29-.21,0-.58-.1-.61-.26-.13-.89.04-1.74.57-2.6.59.85.72,1.7.61,2.57M91.67,58.66c-.09,2.01-.49,4.02-.79,6.02-.07.46-.38.64-.81.57-.41-.07-.8-.19-1.17-.27.29-1.3.69-2.48.79-3.69.2-2.44.32-4.9.34-7.35.04-4.47.04-8.93-.04-13.4-.04-2.1-.32-4.19-1.11-6.17-.25-.63-.45-1.45-1.31-1.46-.87-.01-1.11.81-1.32,1.44-.33,1.02-.52,2.08-.77,3.12-.06.24-.04.62-.18.7-.42.25-.49.12-1.17.3-.52.12-.73.3-.54-.7.34-1.85.51-3.72,1.41-5.41.19-.35.4-.7.63-1.02,1.19-1.66,2.7-1.64,3.89.02.89,1.25,1.37,2.66,1.66,4.15.63,3.29.55,6.58.58,9.94,0,1.23,0,2.46,0,3.68.02,3.19.06,6.36-.09,9.54M95.09,49.88h0c0,3.49.06,6.98-.03,10.46-.04,1.66-.36,3.32-.6,4.98-.11.77-.62.72-1.25.57-.68-.16-.61-.47-.52-1.03.29-1.87.68-3.8.75-4.87.38-5.86.2-11.74.14-17.61-.03-3.11.07-6.3-1.17-9.25-.54-1.28-1.18-2.57-2.03-3.64-1.6-2-3.81-1.97-5.57-.12-1.32,1.39-2.02,3.1-2.44,4.92-.3,1.28-.41,2.61-.65,3.91-.06.32-.22.7-.46.89-.24.19-.71.22-1.03.21-.08,0-.14-.44-.12-.7.39-3.68.78-7.15,2.9-10.23.83-1.21,1.91-2.12,3.36-2.5,1.84-.48,3.43.09,4.74,1.37,2.02,1.96,2.99,4.47,3.51,7.17.67,3.5.44,7.04.45,10.57,0,1.63,0,3.26,0,4.89M98.36,61.42c-.03,1.76-.27,3.54-.62,5.27-.03.17-.37.48-.56.45-.41-.07-1.31-.1-1.11-.9,1.06-4.23.63-8.53.68-12.8.06-4.79.06-9.58,0-14.38-.04-3.13-.2-6.26-1.65-9.15-.81-1.61-1.84-3.04-3.18-4.24-2.54-2.28-6.47-2.16-8.99.25-2.42,2.32-3.63,5.25-4.17,8.47-.26,1.54-.25,3.14-.33,4.71-.05,1.05-.41,1.43-1.65,1.49-.03-.79-.11-1.58-.09-2.37.07-2.71.34-5.39,1.31-7.95.9-2.38,2.18-4.53,4.15-6.16,3.58-2.97,8.57-2.56,11.81.95,2.62,2.85,4.04,6.29,4.25,10.12.21,3.83.15,7.67.17,11.5.02,4.92.06,9.84-.02,14.75M101.67,64.15c-.02,1.48-.24,3-.64,4.44-.04.14-.36.38-.56.38-.73,0-1.17-.59-1.09-1.18.13-1.04.32-2.08.4-3.12.18-2.37.34-4.74.46-7.11.08-1.58.14-3.16.11-4.73-.07-4.61-.2-9.22-.27-13.83-.04-2.4.19-4.81-.46-7.18-.98-3.56-2.57-6.77-5.54-9.07-4.77-3.7-11.57-2.69-15.19,2.14-2.24,2.98-3.54,6.32-3.76,10.04-.11,1.92-.11,3.86-.15,5.78-.02.72-.19,1.34-.88,1.7-.41.22-.7.14-.7-.37.01-2.36.02-4.71.07-7.07.05-2.11.38-4.19,1.1-6.18,1.14-3.15,2.92-5.89,5.61-7.92,4.69-3.54,12.14-3.48,16.73,1.81,3.19,3.66,4.8,7.91,4.79,12.78-.01,4.72,0,9.43,0,14.15s.05,9.69-.03,14.53M104.96,65.77c-.01,1.74-.6,3.48-.94,5.22-.08.39-.33.52-.73.32-.64-.31-.97-.84-.75-1.52.78-2.47.86-5.01.85-7.58-.03-9.31.09-18.62-.06-27.93-.1-6.44-2.72-11.73-8.24-15.25-6.57-4.19-15.69-2.01-19.99,4.8-1.97,3.12-3.21,6.44-3.3,10.15-.07,3.16-.11,6.32-.11,9.48,0,1.11-.64,1.65-1.58,2.27-.03-.39-.06-.61-.06-.83,0-3.56-.08-7.13.02-10.69.12-4.54,1.31-8.76,4.24-12.34,2.92-3.57,6.57-5.92,11.23-6.4,6.68-.68,11.96,1.81,15.85,7.27,2.41,3.38,3.59,7.19,3.6,11.34.02,10.56.05,21.13-.04,31.69M106.58,74.76c-1.09-.64-1.32-1.13-.96-2.2.92-2.71,1.32-5.48,1.26-8.35-.06-3.08-.03-6.17-.01-9.26.03-4.46.1-8.93.1-13.39,0-3.23.05-6.48-.17-9.7-.59-8.69-6.75-16.4-15.55-17.97-5.33-.95-10.29-.08-14.72,3.14-4.23,3.09-6.76,7.32-7.83,12.42-.32,1.5-.43,3.07-.45,4.62-.06,4.37-.03,8.73-.01,13.1,0,1.32-.66,2.31-1.59,3.25-.02-.23-.05-.46-.05-.69,0-5.92-.14-11.85.04-17.76.18-5.92,2.67-10.88,7.04-14.86,3.27-2.98,7.15-4.64,11.52-5.1,10.53-1.12,19.83,5.17,22.61,15.57.5,1.86.74,3.85.75,5.78.06,11.04.03,22.08,0,33.12,0,2.69-.6,5.26-1.68,7.72-.08.18-.19.34-.31.55"/>
  <path class="cls-1" d="M54.98,97.17c-.2.65-.49,1.19-.88,1.62l1.3,1.23-1.24,1.29-1.36-1.29c-.42.25-.78.43-1.08.53-.51.17-1.12.25-1.82.25-1.48,0-2.7-.44-3.66-1.32-1.17-1.06-1.76-2.62-1.76-4.68s.6-3.64,1.8-4.7c.98-.87,2.2-1.3,3.65-1.3s2.7.46,3.69,1.38c1.15,1.06,1.72,2.55,1.72,4.45,0,1.01-.12,1.86-.37,2.54M50.68,98.7c.14-.04.32-.1.53-.19l-1.15-1.09,1.22-1.27,1.15,1.09c.18-.37.3-.69.38-.97.11-.42.17-.9.17-1.45,0-1.27-.26-2.25-.78-2.95-.52-.69-1.28-1.04-2.28-1.04-.94,0-1.69.33-2.25,1-.56.67-.84,1.66-.84,2.99,0,1.55.4,2.67,1.2,3.34.52.44,1.14.65,1.86.65.27,0,.53-.03.78-.1"/>
  <path class="cls-1" d="M57.15,89.15h2.41v6.96c0,.78.09,1.35.28,1.71.29.64.91.95,1.87.95s1.58-.32,1.86-.95c.18-.36.28-.93.28-1.71v-6.96h2.41v6.97c0,1.21-.19,2.14-.56,2.82-.7,1.23-2.02,1.85-3.99,1.85s-3.29-.62-3.99-1.85c-.37-.67-.56-1.61-.56-2.82v-6.97Z"/>
  <rect class="cls-1" x="68.34" y="89.15" width="2.35" height="11.34"/>
  <path class="cls-1" d="M73.99,90.34c.91-.93,2.07-1.4,3.49-1.4,1.89,0,3.27.63,4.14,1.88.48.7.74,1.41.78,2.12h-2.37c-.15-.54-.34-.95-.58-1.23-.42-.49-1.05-.74-1.88-.74s-1.51.35-2,1.04c-.49.69-.73,1.68-.73,2.95s.26,2.22.77,2.86c.51.63,1.17.95,1.96.95s1.43-.27,1.86-.82c.24-.29.43-.73.59-1.32h2.35c-.2,1.24-.72,2.24-1.56,3.02-.83.77-1.9,1.16-3.21,1.16-1.61,0-2.88-.52-3.8-1.57-.92-1.05-1.38-2.49-1.38-4.32,0-1.98.53-3.5,1.58-4.58"/>
  <polygon class="cls-1" points="84.32 89.15 86.65 89.15 86.65 93.82 91.03 89.15 94.09 89.15 89.44 93.81 94.33 100.49 91.28 100.49 87.79 95.54 86.65 96.7 86.65 100.49 84.32 100.49 84.32 89.15"/>
  <path class="cls-1" d="M97.36,96.99c.07.52.22.91.43,1.16.39.47,1.07.7,2.02.7.57,0,1.03-.06,1.39-.18.68-.24,1.01-.67,1.01-1.32,0-.37-.17-.66-.5-.87-.33-.2-.86-.38-1.57-.53l-1.23-.27c-1.21-.27-2.04-.56-2.49-.87-.76-.52-1.15-1.34-1.15-2.45,0-1.02.37-1.86,1.12-2.53.75-.67,1.85-1.01,3.29-1.01,1.21,0,2.24.32,3.1.95.85.63,1.3,1.55,1.34,2.76h-2.28c-.04-.68-.35-1.17-.91-1.45-.38-.19-.85-.28-1.41-.28-.63,0-1.13.12-1.5.37-.37.25-.56.59-.56,1.03,0,.4.18.71.55.91.24.13.74.29,1.51.47l1.99.47c.87.21,1.53.48,1.96.82.68.53,1.01,1.31,1.01,2.32s-.4,1.9-1.2,2.58c-.8.68-1.93,1.03-3.39,1.03s-2.67-.34-3.52-1.01c-.86-.67-1.28-1.6-1.28-2.78h2.26Z"/>
  <polygon class="cls-1" points="106.15 100.49 106.15 89.15 108.5 89.15 108.5 93.47 112.91 93.47 112.91 89.15 115.26 89.15 115.26 100.49 112.91 100.49 112.91 95.43 108.5 95.43 108.5 100.49 106.15 100.49"/>
  <rect class="cls-1" x="117.35" y="89.15" width="2.35" height="11.34"/>
  <path class="cls-1" d="M129.53,95.58c-.66.55-1.61.83-2.84.83h-2.36v4.08h-2.35v-11.34h4.87c1.12,0,2.02.29,2.68.88.67.58,1,1.49,1,2.72,0,1.34-.33,2.28-1,2.84M127.72,91.5c-.3-.25-.72-.38-1.26-.38h-2.13v3.34h2.13c.54,0,.96-.14,1.26-.41.3-.27.45-.7.45-1.29s-.15-1.01-.45-1.26"/>
  <polygon class="cls-2" points="88.65 103.04 88.65 103.9 87.13 103.9 87.13 107.92 86.06 107.92 86.06 103.9 84.53 103.9 84.53 103.04 88.65 103.04"/>
  <path class="cls-2" d="M91.13,104.38c.26.11.48.29.65.53.15.21.25.46.3.75.03.17.04.4.03.72h-2.74c.02.36.15.62.39.76.15.09.33.14.54.14.22,0,.41-.06.55-.17.08-.06.14-.14.2-.25h1c-.03.21-.15.43-.36.65-.34.35-.81.53-1.42.53-.5,0-.94-.15-1.33-.44-.38-.3-.57-.78-.57-1.44,0-.62.17-1.1.52-1.44.35-.33.79-.5,1.35-.5.33,0,.62.06.88.17M89.66,105.2c-.14.14-.23.32-.26.56h1.7c-.02-.25-.11-.44-.26-.57-.16-.13-.35-.19-.58-.19-.25,0-.45.07-.59.21"/>
  <path class="cls-2" d="M94.86,105.6c-.02-.13-.07-.26-.14-.36-.11-.15-.28-.22-.52-.22-.33,0-.56.16-.68.47-.06.17-.1.39-.1.67s.03.48.1.64c.12.3.34.45.66.45.23,0,.39-.06.49-.18.1-.12.16-.27.18-.46h1c-.02.29-.13.56-.32.81-.31.41-.77.62-1.37.62s-1.05-.17-1.34-.52-.43-.79-.43-1.34c0-.62.16-1.1.47-1.44.32-.34.75-.52,1.31-.52.47,0,.86.1,1.16.3.3.2.48.56.53,1.08h-1.01Z"/>
  <path class="cls-2" d="M99.24,104.33c.19.08.34.2.47.35.1.13.17.27.19.42.02.14.03.37.03.7v2.12h-1v-2.2c0-.19-.03-.35-.1-.47-.09-.17-.26-.25-.51-.25s-.45.08-.59.25c-.13.17-.2.4-.2.71v1.95h-.98v-4.86h.98v1.72c.14-.21.31-.36.49-.44.19-.08.38-.12.59-.12.23,0,.44.04.63.12"/>
  <path class="cls-2" d="M103.89,104.52c.25.2.37.52.37.97v2.43h-1.01v-2.19c0-.19-.03-.34-.08-.44-.1-.19-.28-.28-.55-.28-.33,0-.56.14-.68.41-.06.14-.1.33-.1.55v1.95h-.98v-3.6h.95v.53c.13-.19.25-.32.36-.4.2-.15.46-.22.77-.22.39,0,.7.1.95.29"/>
  <path class="cls-2" d="M108.31,107.47c-.32.38-.8.56-1.45.56s-1.13-.19-1.45-.56c-.32-.38-.48-.83-.48-1.36s.16-.97.48-1.35c.32-.38.8-.57,1.45-.57s1.13.19,1.45.57c.32.38.48.83.48,1.35s-.16.98-.48,1.36M107.53,106.95c.15-.2.23-.47.23-.84s-.08-.64-.23-.83c-.15-.19-.38-.29-.66-.29s-.51.1-.66.29c-.16.19-.23.47-.23.83s.08.64.23.84c.16.2.38.29.66.29s.51-.1.66-.29"/>
  <rect class="cls-2" x="109.52" y="103.04" width=".98" height="4.88"/>
  <path class="cls-2" d="M114.6,107.47c-.32.38-.8.56-1.45.56s-1.13-.19-1.45-.56c-.32-.38-.48-.83-.48-1.36s.16-.97.48-1.35c.32-.38.8-.57,1.45-.57s1.13.19,1.45.57c.32.38.48.83.48,1.35s-.16.98-.48,1.36M113.81,106.95c.15-.2.23-.47.23-.84s-.08-.64-.23-.83c-.15-.19-.38-.29-.66-.29s-.51.1-.66.29c-.16.19-.23.47-.23.83s.08.64.23.84c.16.2.38.29.66.29s.51-.1.66-.29"/>
  <path class="cls-2" d="M117.64,104.31c.24.09.43.27.58.52v-.52h.96v3.42c0,.47-.08.82-.25,1.05-.28.41-.82.61-1.62.61-.48,0-.87-.09-1.18-.27-.3-.18-.47-.45-.5-.81h1.07c.03.11.07.19.13.24.11.09.28.13.54.13.35,0,.59-.11.71-.34.08-.15.12-.39.12-.73v-.23c-.09.15-.2.27-.3.35-.2.14-.45.22-.76.22-.48,0-.87-.16-1.16-.49-.29-.33-.43-.77-.43-1.32s.14-.99.42-1.35c.28-.36.67-.55,1.18-.55.19,0,.35.03.49.08M117.97,106.89c.16-.17.24-.43.24-.8,0-.34-.08-.6-.23-.78-.15-.18-.35-.27-.6-.27-.34,0-.58.16-.71.47-.07.17-.1.37-.1.61,0,.21.04.4.11.56.13.3.37.46.71.46.23,0,.42-.08.58-.25"/>
  <path class="cls-2" d="M121.11,103.88h-1v-.87h1v.87ZM120.11,104.31h1v3.61h-1v-3.61Z"/>
  <path class="cls-2" d="M124.51,104.38c.26.11.48.29.65.53.15.21.25.46.3.75.03.17.04.4.03.72h-2.74c.02.36.15.62.39.76.15.09.33.14.54.14.22,0,.41-.06.55-.17.08-.06.14-.14.2-.25h1c-.03.21-.15.43-.36.65-.34.35-.81.53-1.42.53-.5,0-.94-.15-1.33-.44-.38-.3-.57-.78-.57-1.44,0-.62.17-1.1.52-1.44.35-.33.79-.5,1.35-.5.33,0,.62.06.88.17M123.04,105.2c-.14.14-.23.32-.26.56h1.7c-.02-.25-.11-.44-.26-.57-.16-.13-.35-.19-.58-.19-.25,0-.45.07-.59.21"/>
  <path class="cls-2" d="M126.76,106.76c.02.17.07.29.14.36.12.13.35.19.68.19.19,0,.35-.03.46-.08.11-.06.17-.14.17-.25s-.05-.19-.14-.24c-.09-.06-.44-.15-1.03-.28-.43-.1-.73-.23-.9-.38-.17-.15-.26-.37-.26-.65,0-.33.14-.62.41-.86.27-.24.66-.36,1.15-.36.47,0,.85.09,1.15.27.3.18.47.49.51.93h-.98c-.01-.12-.05-.22-.11-.29-.11-.13-.29-.19-.55-.19-.21,0-.37.03-.46.1-.09.06-.14.14-.14.22,0,.11.05.19.15.23.1.05.44.14,1.03.26.39.09.69.22.88.4.19.18.29.41.29.68,0,.36-.14.65-.42.88-.28.23-.71.34-1.29.34s-1.03-.12-1.31-.36c-.28-.24-.42-.54-.42-.91h1Z"/>
</svg>