<?xml version="1.0" encoding="UTF-8"?>
<svg id="Layer_1" data-name="Layer 1" xmlns="http://www.w3.org/2000/svg" viewBox="0 0 175 120">
  <defs>
    <style>
      .cls-1 {
        fill: #446fb5;
      }

      .cls-1, .cls-2 {
        stroke-width: 0px;
      }

      .cls-2 {
        fill: #fff;
      }
    </style>
  </defs>
  <g>
    <polygon class="cls-1" points="54.1 80.33 120.9 80.33 87.67 17.18 54.1 80.33"/>
    <path class="cls-2" d="M84.3,42.49l3.05-6.6,3,6.6h-6.06ZM92.79,47.63c.18.37.27.65.27.84,0,.46-.3.74-.9.84v.43h6.82v-.43c-.38-.07-.68-.22-.91-.44-.23-.22-.49-.64-.79-1.24l-7.06-14.28c-.17-.33-.26-.63-.26-.9,0-.38.27-.65.8-.8v-.43h-6.57v.43c.52.18.79.48.79.9,0,.27-.11.63-.33,1.09l-6.81,14.24c-.24.52-.46.88-.65,1.06-.19.18-.47.31-.83.38v.43h6.13v-.43c-.6-.15-.91-.43-.91-.83,0-.21.09-.49.26-.86l1.25-2.61h8.42l1.27,2.61Z"/>
    <path class="cls-2" d="M76.76,58.53h6.17c1.24,0,2.1.13,2.59.39.32.17.57.45.77.82.19.38.29.78.29,1.23s-.1.87-.29,1.24c-.19.38-.45.65-.77.82-.5.26-1.36.39-2.59.39h-6.17v-4.9ZM83.41,66.48c1.71,0,3.04-.17,4-.51.95-.34,1.72-.91,2.3-1.72.67-.94,1-2.04,1-3.28,0-.87-.18-1.69-.53-2.47-.35-.75-.84-1.36-1.47-1.82-.61-.44-1.31-.76-2.1-.94-.79-.18-1.86-.27-3.21-.27h-11.56v.43c.33.09.55.21.68.35.13.14.19.36.19.64v15.69c0,.27-.06.48-.19.62-.13.14-.35.26-.68.35v.43h5.78v-.43c-.32-.08-.54-.2-.67-.35-.13-.15-.2-.36-.2-.63v-6.11h6.65Z"/>
    <path class="cls-2" d="M97.37,73.21c-.13.14-.35.26-.68.35v.43h5.78v-.43c-.32-.08-.54-.2-.67-.35-.13-.15-.2-.36-.2-.64v-15.69c0-.27.06-.48.19-.63.13-.15.35-.26.68-.35v-.43h-5.78v.43c.33.09.55.21.68.35.13.14.19.35.19.62v15.69c0,.28-.06.49-.19.64Z"/>
  </g>
  <g>
    <path class="cls-1" d="M162.47,100.87v.1c0,.07-.02.14-.09.21-.06.06-.18.14-.34.23-.45.25-.92.38-1.42.38-.59,0-1.06-.15-1.42-.44-.42-.35-.62-.8-.62-1.36s.21-1.01.62-1.36c.35-.3.82-.44,1.42-.44.5,0,.98.13,1.42.38.16.09.27.17.34.23.06.06.09.13.09.21,0,.03,0,.06,0,.1l.1.07.72-1.08-.1-.07c-.07.07-.13.1-.17.1s-.17-.06-.38-.18c-.44-.25-.81-.42-1.1-.51-.29-.09-.65-.13-1.06-.13-1.12,0-1.95.35-2.5,1.04-.37.46-.55,1.01-.55,1.64,0,.46.1.88.31,1.26.18.33.42.61.73.84.52.39,1.19.58,2.01.58.41,0,.76-.04,1.06-.13.3-.09.66-.26,1.1-.51.21-.12.34-.18.38-.18s.1.03.17.1l.1-.07-.72-1.08-.1.07ZM153.37,97.79c0-.08.02-.14.05-.18.04-.04.1-.07.19-.1v-.12h-1.62v.12c.09.03.15.06.19.1.04.04.05.1.05.18v4.39c0,.08-.02.14-.05.18-.04.04-.1.07-.19.1v.12h4.56c.08,0,.14.02.18.05.04.04.07.1.1.19h.12v-1.34h-.12c-.03.09-.06.15-.1.19-.04.04-.1.05-.18.05h-3.19v-3.93ZM147.73,97.79c0-.08.02-.14.05-.18.04-.04.1-.07.19-.1v-.12h-1.62v.12c.09.03.15.06.19.1.04.04.05.1.05.18v4.39c0,.08-.02.14-.05.18-.04.04-.1.07-.19.1v.12h4.56c.08,0,.14.02.18.05.04.04.07.1.1.19h.12v-1.34h-.12c-.03.09-.06.15-.1.19-.04.04-.1.05-.18.05h-3.19v-3.93ZM143.24,98.66c-.06.06-.12.08-.16.08s-.11-.02-.22-.07c-.35-.16-.65-.28-.9-.34-.25-.06-.52-.1-.81-.1-.54,0-.99.11-1.35.33-.4.25-.6.6-.6,1.07,0,.21.05.4.14.57.09.17.22.31.38.41.13.08.27.14.44.18.17.04.42.07.74.1l.6.05c.32.03.54.06.66.1.18.06.27.17.27.32,0,.19-.13.33-.39.42-.21.07-.45.11-.72.11-.3,0-.61-.04-.92-.12-.31-.08-.53-.18-.66-.29-.05-.05-.08-.1-.08-.17v-.03l-.09-.04-.44,1.04.09.04c.04-.06.09-.09.14-.09.03,0,.06,0,.1.03.6.27,1.22.41,1.86.41s1.14-.12,1.51-.36c.39-.25.58-.59.58-1.03,0-.24-.06-.45-.19-.64-.1-.15-.22-.27-.38-.36-.27-.16-.67-.26-1.2-.3l-.6-.05c-.38-.03-.63-.07-.76-.12-.13-.05-.2-.14-.2-.26,0-.19.14-.33.41-.43.19-.07.41-.1.65-.1.29,0,.57.04.85.13.28.08.49.19.64.32.05.05.08.11.08.2l.09.05.51-.99-.09-.05ZM136.97,100.77c.08,0,.14.02.18.05.04.04.08.1.1.19h.1v-1.23h-.1c-.03.09-.06.15-.1.19-.04.04-.1.05-.18.05h-1.6v-.93h2.58c.08,0,.14.02.18.05.04.03.08.1.1.19h.1v-1.26h-.1c-.03.09-.06.15-.1.19-.04.04-.1.05-.18.05h-3.84v.11c.09.03.15.06.19.1.04.04.05.1.05.18v3.48c0,.08-.02.14-.06.18-.04.04-.1.08-.19.1v.11h3.96c.08,0,.14.02.18.06.04.04.08.1.1.19h.11v-1.26h-.11c-.03.09-.06.16-.1.19-.04.03-.1.05-.18.05h-2.7v-1.04h1.6ZM133.03,98.53s.1-.08.19-.1v-.11h-1.5v.11c.09.03.15.06.19.1.04.04.05.1.05.18v3.48c0,.08-.02.14-.06.18-.04.04-.1.08-.19.1v.11h1.5v-.11c-.09-.03-.15-.06-.19-.1-.04-.04-.05-.1-.05-.18v-3.47c0-.08.02-.14.05-.18ZM127.48,99.09h1.53c.28,0,.48.04.59.11.11.07.17.2.17.38,0,.2-.08.34-.24.41-.11.05-.28.08-.52.08h-1.53v-.96ZM128.5,100.83l.85,1.22c.08.11.12.2.12.25,0,.08-.07.14-.2.17v.11h1.79v-.11c-.11-.02-.21-.07-.3-.14-.09-.07-.2-.22-.35-.42l-.8-1.12c.42-.09.72-.23.91-.42.19-.19.28-.46.28-.81,0-.45-.15-.78-.46-.98-.15-.1-.32-.16-.51-.2-.19-.04-.47-.06-.83-.06h-2.79v.11c.09.03.15.06.19.1.04.04.05.1.05.18v3.48c0,.08-.02.14-.06.18-.04.04-.1.08-.19.1v.11h1.5v-.11c-.09-.03-.15-.06-.19-.1-.04-.04-.05-.1-.05-.18v-1.36h1.02ZM125.26,99.09c.08,0,.14.02.18.05.04.04.08.1.1.19h.1v-1.26h-.1c-.03.09-.06.15-.1.19-.04.04-.1.05-.18.05h-3.53c-.08,0-.14-.02-.18-.06-.04-.04-.07-.1-.1-.19h-.1v1.26h.1c.03-.09.06-.15.1-.19.04-.04.1-.05.18-.05h1.25v3.09c0,.08-.02.14-.06.18-.04.04-.1.08-.19.1v.11h1.5v-.11c-.09-.03-.15-.06-.19-.1-.04-.04-.05-.1-.05-.18v-3.09h1.25ZM120.66,98.66c-.06.06-.12.08-.16.08s-.11-.02-.22-.07c-.35-.16-.65-.28-.9-.34-.25-.06-.52-.1-.81-.1-.54,0-.99.11-1.35.33-.4.25-.6.6-.6,1.07,0,.21.05.4.14.57.09.17.22.31.38.41.13.08.27.14.44.18.17.04.42.07.74.1l.6.05c.32.03.54.06.66.1.18.06.27.17.27.32,0,.19-.13.33-.39.42-.21.07-.45.11-.72.11-.3,0-.61-.04-.92-.12-.31-.08-.53-.18-.66-.29-.05-.05-.08-.1-.08-.17v-.03l-.09-.04-.44,1.04.09.04c.04-.06.09-.09.14-.09.03,0,.06,0,.1.03.6.27,1.22.41,1.86.41s1.14-.12,1.51-.36c.39-.25.58-.59.58-1.03,0-.24-.06-.45-.19-.64-.1-.15-.22-.27-.38-.36-.27-.16-.67-.26-1.2-.3l-.6-.05c-.38-.03-.63-.07-.76-.12-.13-.05-.2-.14-.2-.26,0-.19.14-.33.41-.43.19-.07.41-.1.65-.1.29,0,.57.04.85.13s.49.19.64.32c.05.05.08.11.08.2l.09.05.51-.99-.09-.05ZM115.67,98.53s.1-.08.19-.1v-.11h-1.42v.11c.09.03.16.06.19.1.03.04.05.1.05.18v2.05c0,.24-.02.42-.06.55-.04.13-.11.23-.21.31-.21.16-.51.25-.9.25s-.69-.08-.9-.25c-.1-.08-.18-.18-.22-.31-.04-.13-.06-.31-.06-.55v-2.05c0-.08.02-.14.05-.18.03-.04.1-.08.19-.1v-.11h-1.5v.11c.09.03.15.06.19.1.04.04.05.1.05.18v2.25c0,.34.05.63.14.85.1.25.28.44.55.57.37.18.86.28,1.47.28.9,0,1.52-.19,1.85-.57.2-.24.3-.62.3-1.13v-2.25c0-.08.02-.14.05-.18ZM106.81,99.09h1.09c.26,0,.48.03.65.08.17.05.32.14.43.26.24.24.35.58.35,1.01s-.12.78-.35,1.01c-.23.23-.59.34-1.09.34h-1.09v-2.71ZM105.73,102.37s-.1.08-.19.1v.11h2.49c.39,0,.72-.04.99-.11.26-.07.49-.2.69-.36.43-.37.65-.93.65-1.65,0-.39-.06-.74-.19-1.03-.18-.42-.49-.72-.91-.9-.3-.13-.71-.19-1.23-.19h-2.49v.11c.09.03.15.06.19.1.04.04.05.1.05.18v3.48c0,.08-.02.14-.06.18ZM103.05,102c.11.11.18.18.21.22l.05.11c0,.07-.06.12-.17.14v.11h1.52v-.11c-.09-.03-.15-.06-.19-.1-.04-.04-.05-.1-.05-.18v-3.47c0-.08.02-.14.05-.18.04-.04.1-.08.19-.1v-.11h-1.41v.11c.09.03.15.06.19.1.04.04.05.1.05.18v2.34l-2.28-2.26c-.08-.08-.12-.15-.12-.21,0-.07.06-.12.17-.15v-.11h-1.63v.11c.09.03.15.06.19.1.04.04.05.1.05.18v3.48c0,.08-.02.14-.06.18-.04.04-.1.08-.19.1v.11h1.41v-.11c-.09-.03-.15-.06-.19-.1-.04-.04-.06-.1-.06-.18v-2.41l2.26,2.22ZM97.21,102.35s-.1.07-.19.1v.12h1.62v-.12c-.09-.02-.15-.06-.19-.1-.04-.04-.06-.1-.06-.18v-4.39c0-.08.02-.13.05-.18.04-.04.1-.07.19-.1v-.12h-1.62v.12c.09.03.15.06.19.1.04.04.05.1.05.17v4.39c0,.08-.02.14-.05.18ZM92.94,101.58c-.34.18-.76.28-1.26.28-.52,0-.93-.13-1.21-.38-.28-.25-.42-.58-.42-1,0-.45.15-.8.46-1.06.29-.25.67-.38,1.13-.38.4,0,.77.09,1.12.28.19.1.28.19.28.29v.02l.09.05.51-1.07-.09-.05c-.06.04-.11.06-.15.06-.04,0-.16-.04-.37-.11-.53-.18-1-.27-1.41-.27-.94,0-1.65.3-2.13.9-.31.39-.46.84-.46,1.34,0,.36.08.7.25,1.02.14.27.33.49.57.68.44.33,1,.5,1.71.5.81,0,1.63-.23,2.45-.68v-.09c-.09-.03-.15-.06-.19-.1-.04-.04-.06-.1-.06-.18v-.9c0-.09.02-.16.06-.21.04-.05.1-.08.19-.11v-.11h-2.02c-.08,0-.14-.02-.18-.05-.04-.04-.08-.1-.1-.19h-.1v1.13h.1c.03-.09.06-.15.1-.19.04-.04.1-.05.18-.05h.97v.65ZM86.61,102c.11.11.18.18.21.22l.05.11c0,.07-.06.12-.17.14v.11h1.52v-.11c-.09-.03-.15-.06-.19-.1-.04-.04-.05-.1-.05-.18v-3.47c0-.08.02-.14.05-.18.04-.04.1-.08.19-.1v-.11h-1.41v.11c.09.03.15.06.19.1.04.04.05.1.05.18v2.34l-2.28-2.26c-.08-.08-.12-.15-.12-.21,0-.07.06-.12.17-.15v-.11h-1.63v.11c.09.03.15.06.19.1.04.04.05.1.05.18v3.48c0,.08-.02.14-.06.18-.04.04-.1.08-.19.1v.11h1.41v-.11c-.09-.03-.15-.06-.19-.1-.04-.04-.06-.1-.06-.18v-2.41l2.26,2.22ZM82.1,98.53s.1-.08.19-.1v-.11h-1.5v.11c.09.03.15.06.19.1.04.04.05.1.05.18v3.48c0,.08-.02.14-.06.18-.04.04-.1.08-.19.1v.11h1.5v-.11c-.09-.03-.15-.06-.19-.1-.04-.04-.05-.1-.05-.18v-3.47c0-.08.02-.14.05-.18ZM78.89,101.58c-.34.18-.76.28-1.26.28-.52,0-.93-.13-1.21-.38-.28-.25-.42-.58-.42-1,0-.45.15-.8.46-1.06.29-.25.67-.38,1.13-.38.4,0,.77.09,1.12.28.19.1.28.19.28.29v.02l.09.05.51-1.07-.09-.05c-.06.04-.11.06-.15.06-.04,0-.16-.04-.37-.11-.53-.18-1-.27-1.41-.27-.94,0-1.65.3-2.13.9-.31.39-.46.84-.46,1.34,0,.36.08.7.25,1.02.14.27.33.49.57.68.44.33,1,.5,1.71.5.82,0,1.63-.23,2.45-.68v-.09c-.09-.03-.15-.06-.19-.1-.04-.04-.06-.1-.06-.18v-.9c0-.09.02-.16.06-.21.04-.05.1-.08.19-.11v-.11h-2.02c-.08,0-.14-.02-.18-.05-.04-.04-.08-.1-.1-.19h-.1v1.13h.1c.03-.09.06-.15.1-.19s.1-.05.18-.05h.97v.65ZM71.07,100.92l.66-1.37.7,1.37h-1.36ZM72.97,101.95c.06.12.09.21.09.29,0,.13-.08.2-.25.23v.11h1.74v-.11c-.1-.02-.18-.05-.23-.1-.05-.05-.12-.16-.21-.32l-1.61-3.05c-.06-.12-.09-.22-.09-.31,0-.12.07-.2.21-.26v-.11h-1.65v.11c.14.06.21.14.21.24,0,.09-.03.19-.09.31l-1.55,3.14c-.06.13-.12.21-.17.25-.05.04-.12.07-.21.09v.11h1.56v-.11c-.16-.03-.24-.11-.24-.23,0-.06.03-.15.08-.26l.22-.46h1.96l.23.43ZM66.86,102.04c.1.12.16.18.18.21l.02.07c0,.07-.07.12-.21.15v.11h1.86v-.11c-.11-.03-.21-.07-.3-.14s-.23-.22-.43-.46l-1.58-1.81,1.43-1.15c.26-.22.42-.35.48-.4.06-.04.14-.07.24-.09v-.11h-1.91v.11c.15.03.22.08.22.15,0,.07-.06.15-.18.25l-1.6,1.28v-1.39c0-.08.02-.14.05-.18.04-.04.1-.08.19-.1v-.11h-1.5v.11c.09.03.15.06.19.1.04.04.05.1.05.18v3.48c0,.08-.02.14-.06.18-.04.04-.1.08-.19.1v.11h1.5v-.11c-.09-.03-.15-.06-.19-.1-.04-.04-.05-.1-.05-.18v-1.06l.6-.49,1.17,1.4ZM62.49,101.11c0,.07.01.1.01.11,0,.11-.14.23-.42.37-.36.18-.72.27-1.07.27-.46,0-.84-.12-1.14-.36-.34-.27-.51-.62-.51-1.05s.17-.78.51-1.05c.3-.24.68-.36,1.14-.36.33,0,.66.07.98.22.34.16.51.3.51.42v.05s-.01.06-.01.06l.08.06.64-.93-.09-.07c-.06.04-.11.06-.14.06-.04,0-.14-.05-.3-.14-.34-.2-.65-.34-.92-.42-.27-.08-.58-.12-.92-.12-.94,0-1.63.3-2.08.9-.29.38-.43.82-.43,1.32,0,.36.08.7.24,1.01.15.29.34.52.59.71.44.33,1,.5,1.7.5.35,0,.65-.04.92-.12.27-.08.57-.22.92-.42.16-.09.26-.14.3-.14.04,0,.08.02.14.06l.09-.06-.64-.94-.08.06ZM54.44,100.92l.66-1.37.7,1.37h-1.36ZM56.34,101.95c.06.12.09.21.09.29,0,.13-.08.2-.25.23v.11h1.74v-.11c-.1-.02-.18-.05-.23-.1-.05-.05-.12-.16-.21-.32l-1.61-3.05c-.06-.12-.09-.22-.09-.31,0-.12.07-.2.21-.26v-.11h-1.65v.11c.14.06.21.14.21.24,0,.09-.03.19-.09.31l-1.55,3.14c-.06.13-.12.21-.17.25-.05.04-.12.07-.21.09v.11h1.56v-.11c-.16-.03-.24-.11-.24-.23,0-.06.03-.15.08-.26l.22-.46h1.96l.23.43ZM48.81,98.25h1.73c.35,0,.59.04.73.11.09.05.16.12.21.23.05.11.08.22.08.34s-.03.24-.08.35c-.05.11-.13.18-.21.23-.14.07-.38.11-.73.11h-1.73v-1.37ZM50.67,100.47c.48,0,.85-.05,1.12-.14.27-.09.48-.25.64-.48.19-.26.28-.57.28-.92,0-.24-.05-.47-.15-.69-.1-.21-.24-.38-.41-.51-.17-.12-.37-.21-.59-.26-.22-.05-.52-.08-.9-.08h-3.23v.12c.09.03.15.06.19.1.04.04.05.1.05.18v4.39c0,.08-.02.13-.05.17-.04.04-.1.07-.19.1v.12h1.62v-.12c-.09-.02-.15-.06-.19-.1-.04-.04-.06-.1-.06-.18v-1.71h1.86ZM41.04,99.09h1.53c.28,0,.48.04.59.11.11.07.17.2.17.38,0,.2-.08.34-.24.41-.11.05-.28.08-.52.08h-1.53v-.96ZM42.05,100.83l.85,1.22c.08.11.12.2.12.25,0,.08-.07.14-.2.17v.11h1.79v-.11c-.11-.02-.21-.07-.3-.14-.09-.07-.2-.22-.35-.42l-.8-1.12c.42-.09.72-.23.91-.42.19-.19.28-.46.28-.81,0-.45-.15-.78-.46-.98-.15-.1-.32-.16-.51-.2-.19-.04-.47-.06-.83-.06h-2.79v.11c.09.03.15.06.19.1.04.04.05.1.05.18v3.48c0,.08-.02.14-.06.18-.04.04-.1.08-.19.1v.11h1.5v-.11c-.09-.03-.15-.06-.19-.1-.04-.04-.05-.1-.05-.18v-1.36h1.02ZM37.51,100.77c.08,0,.14.02.18.05.04.04.08.1.1.19h.1v-1.23h-.1c-.03.09-.06.15-.1.19-.04.04-.1.05-.18.05h-1.6v-.93h2.58c.08,0,.14.02.18.05s.08.1.1.19h.1v-1.26h-.1c-.03.09-.06.15-.1.19s-.1.05-.18.05h-3.84v.11c.09.03.15.06.19.1.04.04.05.1.05.18v3.48c0,.08-.02.14-.06.18-.04.04-.1.08-.19.1v.11h3.96c.08,0,.14.02.18.06.04.04.08.1.1.19h.11v-1.26h-.11c-.03.09-.06.16-.1.19-.04.03-.1.05-.18.05h-2.7v-1.04h1.6ZM32.5,99.78v2.41c0,.08-.02.14-.06.18-.04.04-.1.08-.19.1v.11h1.5v-.11c-.09-.03-.15-.06-.19-.1-.04-.04-.05-.1-.05-.18v-3.47c0-.08.02-.14.05-.18.04-.04.1-.08.19-.1v-.11h-1.75v.11c.12.03.19.09.19.2,0,.08-.06.23-.18.43l-1.07,1.9-1.06-1.92c-.09-.15-.13-.28-.13-.38s.06-.18.18-.22v-.11h-1.8v.11c.09.03.15.06.19.1.04.04.05.1.05.18v3.48c0,.08-.02.14-.06.18-.04.04-.1.08-.19.1v.11h1.41v-.11c-.09-.03-.15-.06-.19-.1-.04-.04-.05-.1-.05-.18v-2.41l1.55,2.8,1.64-2.8ZM24.16,100.92l.66-1.37.7,1.37h-1.36ZM26.06,101.95c.06.12.09.21.09.29,0,.13-.08.2-.25.23v.11h1.74v-.11c-.1-.02-.18-.05-.23-.1-.05-.05-.12-.16-.21-.32l-1.61-3.05c-.06-.12-.09-.22-.09-.31,0-.12.07-.2.21-.26v-.11h-1.65v.11c.14.06.21.14.21.24,0,.09-.03.19-.09.31l-1.55,3.14c-.06.13-.12.21-.17.25-.05.04-.12.07-.21.09v.11h1.56v-.11c-.16-.03-.24-.11-.24-.23,0-.06.03-.15.08-.26l.22-.46h1.96l.23.43ZM19.26,98.71c0-.08.02-.14.05-.18.04-.04.1-.08.19-.1v-.11h-1.5v.11c.09.03.15.06.19.1.04.04.05.1.05.18v3.48c0,.08-.02.14-.06.18-.04.04-.1.08-.19.1v.11h3.64c.08,0,.14.02.18.05.04.04.08.1.1.19h.1v-1.26h-.1c-.03.09-.06.16-.1.19-.04.03-.1.05-.18.05h-2.38v-3.09ZM13.41,100.54l.85-1.85.84,1.85h-1.69ZM15.78,101.98c.05.1.08.18.08.24,0,.13-.08.21-.25.24v.12h1.91v-.12c-.11-.02-.19-.06-.25-.12-.06-.06-.14-.18-.22-.35l-1.97-3.99c-.05-.09-.07-.18-.07-.25,0-.11.07-.18.22-.22v-.12h-1.84v.12c.15.05.22.13.22.25,0,.08-.03.18-.09.3l-1.91,3.98c-.07.15-.13.25-.18.3-.05.05-.13.09-.23.11v.12h1.71v-.12c-.17-.04-.25-.12-.25-.23,0-.06.02-.14.07-.24l.35-.73h2.36l.36.73Z"/>
    <g>
      <rect class="cls-1" x="162.65" y="87.09" width="1.19" height="6.01"/>
      <path class="cls-1" d="M161.49,87.19v5.91h-10.94c-.8,0-1.45-.65-1.45-1.45v-4.51h1.09v4.5c0,.27.22.49.49.49h3.21v-1.58c0-.82.66-1.48,1.48-1.48h1.4v1.12h-1.36c-.28,0-.5.22-.5.5v1.44h5.49v-4.94h1.09Z"/>
      <path class="cls-1" d="M146.48,89.12h-2.17l-.03,2.98h-5.44v-3.02h-1.14v4.29c0,.31-.25.56-.56.56h-.58v1.1h.84c.71,0,1.29-.58,1.29-1.29v-.64h9.47v-2.32c0-.93-.75-1.68-1.68-1.68M147.07,92.11h-1.72v-2h1.07c.36,0,.66.29.66.66v1.34Z"/>
      <path class="cls-1" d="M133.02,87.18v4.94h-1.73v-1.37c0-.9-.73-1.62-1.62-1.62h-4.67v3.02h-5.58v-3.04h-.97v3.04h-5.38c-.24,0-.44-.2-.44-.44v-4.54h-1.14v4.53c0,.79.64,1.43,1.43,1.43h21.23v-5.94h-1.12ZM130.23,92.18h-4.18v-2.1h3.55c.35,0,.63.28.63.63v1.47Z"/>
      <path class="cls-1" d="M119.49,87.71c0,.29-.23.52-.52.52s-.52-.23-.52-.52.23-.52.52-.52.52.23.52.52"/>
      <path class="cls-1" d="M101.35,87.71c0,.29-.23.52-.52.52s-.52-.23-.52-.52.23-.52.52-.52.52.23.52.52"/>
      <path class="cls-1" d="M99.93,87.71c0,.29-.23.52-.52.52s-.52-.23-.52-.52.23-.52.52-.52.52.23.52.52"/>
      <path class="cls-1" d="M65.55,87.71c0,.29-.23.52-.52.52s-.52-.23-.52-.52.23-.52.52-.52.52.23.52.52"/>
      <path class="cls-1" d="M64.14,87.71c0,.29-.23.52-.52.52s-.52-.23-.52-.52.23-.52.52-.52.52.23.52.52"/>
      <path class="cls-1" d="M39.28,87.71c0,.29-.23.52-.52.52s-.52-.23-.52-.52.23-.52.52-.52.52.23.52.52"/>
      <path class="cls-1" d="M37.87,87.71c0,.29-.23.52-.52.52s-.52-.23-.52-.52.23-.52.52-.52.52.23.52.52"/>
      <path class="cls-1" d="M31.64,87.71c0,.29-.23.52-.52.52s-.52-.23-.52-.52.23-.52.52-.52.52.23.52.52"/>
      <path class="cls-1" d="M108.31,92.15v-1.36c0-.37.3-.68.68-.68h1.23v-1.03h-1.53c-.75,0-1.36.61-1.36,1.36v1.64h-5.52v-2.95h-2.41c-.72,0-1.3.58-1.3,1.3v2.62h12.4v-.91h-2.19ZM100.73,92.14h-1.6v-1.45c0-.32.26-.58.58-.58h1.02v2.03Z"/>
      <rect class="cls-1" x="77.95" y="87.08" width="1.11" height="5.99"/>
      <rect class="cls-1" x="68.98" y="87.08" width="1.11" height="5.99"/>
      <path class="cls-1" d="M72.9,93.08v-1.01h2.99v-1.3c0-.36-.29-.65-.65-.65h-1.74v-1.03h2.15c.69,0,1.25.56,1.25,1.25v2.73h-4.01Z"/>
      <path class="cls-1" d="M29.19,93.08v-1.01h2.99v-1.3c0-.36-.29-.65-.65-.65h-1.74v-1.03h2.15c.69,0,1.25.56,1.25,1.25v2.73h-4.01Z"/>
      <path class="cls-1" d="M45.1,88.45h1.8v-.47h-.92v-.55c0-.14.11-.25.25-.25h.62v-.49h-.81c-.33,0-.6.27-.6.6v.71h-.34v.46Z"/>
      <rect class="cls-1" x="26.76" y="91.82" width="1.26" height="1.21"/>
      <rect class="cls-1" x="17.73" y="91.82" width="1.26" height="1.21"/>
      <path class="cls-1" d="M66.69,87.18v4.96h-1.93v-3.08h-1.09v3.05h-5.81v-1.31c0-.38.31-.69.69-.69h1.2v-.98h-1.64c-.7,0-1.26.56-1.26,1.26v1.72h-3.54v-3.01h-.96v3.06h-5.83v-3.08h-1.05v3.01h-5.78v-2.92h-2.36c-.76,0-1.38.62-1.38,1.38v2.47h31.8v-5.84h-1.06ZM38.7,92.14h-1.7v-1.47c0-.35.28-.63.63-.63h1.07v2.1Z"/>
      <path class="cls-1" d="M23.02,89.11c-.84,0-1.53.68-1.53,1.53v1.53h-.27c-.58,0-1.05.47-1.04,1.05v1.83h1.01v-1.45c0-.3.24-.55.55-.55h3.57v-3.95h-2.28ZM24.36,92.14h-1.7v-1.47c0-.35.28-.63.63-.63h1.07v2.1Z"/>
      <path class="cls-1" d="M14,89.11c-.84,0-1.53.68-1.53,1.53v1.53h-.27c-.58,0-1.05.47-1.04,1.05v1.83h1.01v-1.45c0-.3.24-.55.55-.55h3.57v-3.95h-2.28ZM15.34,92.14h-1.7v-1.47c0-.35.28-.63.63-.63h1.07v2.1Z"/>
      <path class="cls-1" d="M93.9,89.13h-2.34v2.96h-7.44v-3.02h-2.32c-.85,0-1.53.69-1.53,1.53v2.45h2.74v.52c0,.23-.18.41-.41.41h-1.72v1.05h1.91c.67,0,1.22-.55,1.22-1.22v-.74h11.38v-2.47c0-.82-.67-1.49-1.49-1.49M83.02,92.14h-1.7v-1.47c0-.35.28-.63.63-.63h1.07v2.1ZM94.29,92.14h-1.7v-2.1h1.07c.35,0,.63.28.63.63v1.47Z"/>
    </g>
  </g>
</svg>