<?xml version="1.0" encoding="UTF-8"?>
<svg id="Layer_1" data-name="Layer 1" xmlns="http://www.w3.org/2000/svg" viewBox="0 0 175 120">
  <defs>
    <style>
      .cls-1 {
        fill: #090808;
        stroke-width: 0px;
      }
    </style>
  </defs>
  <path class="cls-1" d="M47.98,87.02c-1.83-10.6,5.61-20.55,16.18-21.86.92-.11,1.84-.17,2.77-.17,5.74,0,11.48,0,17.23,0h1.21c-.04,4.07.07,8.02,2.93,11.42,8.87-5.93,13.84-14.16,14.96-24.92-1.79,0-3.49-.04-5.19,0-9.33.25-17.82-6.38-19.92-15.64-.14-.62-.25-1.25-.4-1.97-3.34,0-6.68,0-10.02,0-1.93,0-3.82-.26-5.68-.79-7.79-2.22-13.42-8.97-14.23-17.02-.17-1.64-.14-3.26.1-4.87.41-.21.8-.11,1.19-.11,7.17,0,14.34.03,21.5-.02,5.27-.04,10.3,1,15.12,3.1.57.25,1,.26,1.55-.09,3.31-2.07,6.94-3,10.84-3,9.56,0,19.12,0,28.67,0h1.16c1.21,4.42-.21,11.85-5.36,16.96-4.71,4.67-10.5,6.27-17.13,5.79,1.63,3.92,2.64,7.78,2.98,11.84,4.39.27,8.39,1.63,11.77,4.43,6.65,5.49,9.27,12.61,7.29,20.96-2.02,8.52-7.66,13.71-16.26,15.57-1.33.29-2.67.39-4.03.39-3.39,0-6.78-.06-10.16.01-3.55.08-6.72-1.01-9.62-2.95-.68-.46-1.18-.46-1.92-.13-4.65,2.02-9.54,3.03-14.6,3.05-7.28.04-14.55,0-21.83,0h-1.11ZM121.88,16.8h-1.25c-7.31,0-14.61,0-21.92,0-.93,0-1.85.02-2.77.17-5.93.95-9.98,4.27-11.79,9.94-1.82,5.69-.36,10.75,3.93,14.91,4.25,4.11,9.58,4.11,15.03,3.81-.75-6.76-3.4-12.64-7.86-17.9,3.16,0,6.08.02,8.99,0,2.03-.02,4.05.11,6.08-.19,5.42-.79,10.43-5.37,11.56-10.74ZM108.53,51.67c-1.03,11.77-6.36,21.18-15.85,28.33.97.52,1.89.88,2.86,1.03,4.39.68,8.82.56,13.21.22,9.56-.75,15.76-10.12,12.93-19.26-1.81-5.84-7.46-10.29-13.15-10.33ZM54,81.29c.18.05.28.1.38.1,6.59-.06,13.19.23,19.77-.17,2.83-.17,5.6-.85,8.31-1.96-1.76-2.53-2.75-5.31-3.2-8.29-4.4,0-8.71-.01-13.02,0-3.63.01-6.73,1.32-9.21,3.99-1.65,1.78-2.69,3.88-3.03,6.32ZM53.66,16.8c-.02.15-.05.22-.04.29.01.11.04.21.07.31,1.58,4.82,4.72,8.18,9.58,9.65,4.8,1.45,9.76.35,14.64.74.64-3.4,1.97-6.34,4.01-8.99-.19-.11-.3-.21-.43-.25-3.25-1.1-6.6-1.71-10.03-1.74-4.99-.05-9.98-.01-14.96-.01h-2.85Z"/>
  <path class="cls-1" d="M53.55,96.36c0-.96,0-1.81,0-2.66,0-.81,0-1.63,0-2.44.54-.16.98-.14,1.49-.03v13.2c-.64.12-1.32.43-1.65-.52-2.5,1.28-4.72,1-6.23-.76-1.38-1.6-1.45-4.07-.18-5.83,1.39-1.92,3.5-2.26,6.57-.97ZM53.53,99.94c-.09-.56.31-1.46-.46-2.16-1.09-.99-2.9-1.11-4.14-.24-1.23.86-1.68,2.49-1.07,3.89.58,1.35,2.16,2.25,3.59,1.83,1.45-.43,2.34-.62,2.08-3.32Z"/>
  <path class="cls-1" d="M115.47,100.6h-7.06c-.02,1.14.52,1.88,1.4,2.36,1.04.56,2.22.65,3.12-.08.73-.6,1.4-.71,2.22-.58-.59,1.9-2.7,2.85-5.06,2.28-2.28-.55-3.74-2.87-3.29-5.25.51-2.68,2.55-4.12,5.28-3.74,2.25.32,3.59,2.24,3.39,5ZM113.95,99.47c-.21-1.76-1.21-2.64-2.83-2.6-1.48.04-2.58,1.09-2.66,2.6h5.49Z"/>
  <path class="cls-1" d="M98.7,102.28c-.6,1.94-2.82,2.91-5.19,2.29-2.27-.6-3.61-2.95-3.11-5.45.51-2.55,2.63-3.94,5.34-3.51,2.17.34,3.48,2.31,3.24,4.97h-7.06c.03,1.21.58,2.01,1.53,2.45,1.04.49,2.24.6,3.12-.21.7-.64,1.37-.56,2.13-.54ZM97.47,99.43c-.18-1.69-1.1-2.55-2.64-2.56-1.57-.02-2.66.95-2.87,2.56h5.51Z"/>
  <path class="cls-1" d="M82.68,98.33c-.66.07-1.22.18-1.64-.67-.49-.97-2.82-1.16-3.68-.45-.64.52-.56,1.34.2,1.75.64.35,1.36.38,2.06.49.64.1,1.27.19,1.85.47,1.41.67,1.84,2.58.76,3.69-1.32,1.35-3.02,1.32-4.69.94-1.4-.32-2.27-1.24-2.5-2.79.71-.16,1.26-.31,1.72.58.62,1.2,3.04,1.52,4.1.66.32-.26.53-.58.47-1.01-.08-.56-.47-.9-.98-1.01-.83-.19-1.68-.3-2.52-.46-1.68-.31-2.43-1.09-2.39-2.47.03-1.32,1.05-2.26,2.62-2.45.96-.11,1.92-.1,2.84.24,1.18.43,1.75,1.24,1.77,2.49Z"/>
  <path class="cls-1" d="M123.75,95.84c.54-.14.99-.12,1.55-.01,0,2.34,0,4.68,0,7.03,0,1.11.05,2.22-.06,3.31-.2,2.04-1.12,2.81-3.25,2.83-.19-.39-.21-.81-.15-1.23,1.71-.49,1.9-.75,1.91-2.64,0-3.09,0-6.19,0-9.28Z"/>
  <path class="cls-1" d="M63.76,95.79h1.26c.3.29,0,.69.23,1.05.9-.68,1.83-1.4,3.11-1.21.13.45.12.89-.01,1.36-.6.1-1.19.17-1.73.48-.95.55-1.57,1.21-1.49,2.45.1,1.48.02,2.98.02,4.45-.46.28-.9.12-1.4.16v-8.74Z"/>
  <path class="cls-1" d="M124.63,93.51c-.74.02-1.13-.33-1.15-.93-.02-.59.36-1,.98-1.02.62-.02,1.01.32,1.04.95.03.64-.34.96-.87,1.01Z"/>
</svg>